<?xml version="1.0" encoding="iso-8859-1"?>
<!-- Generator: Adobe Illustrator 16.0.0, SVG Export Plug-In . SVG Version: 6.00 Build 0)  -->
<!DOCTYPE svg PUBLIC "-//W3C//DTD SVG 1.1//EN" "http://www.w3.org/Graphics/SVG/1.1/DTD/svg11.dtd">
<svg version="1.1" id="Capa_1" xmlns="http://www.w3.org/2000/svg" xmlns:xlink="http://www.w3.org/1999/xlink" x="0px" y="0px"
	 width="600.504px" height="600.504px" viewBox="0 0 600.504 600.504" style="enable-background:new 0 0 600.504 600.504;"
	 xml:space="preserve">
<g>
	<g>
		<path d="M597.615,371.333c-2.146-0.425-4.374-0.461-7.165-0.706c2.551-1.13,4.591-1.868,6.459-2.909
			c1.946-1.085,1.946-2.415,0.294-3.957c-2.877-2.689-5.957-2.167-9.27-0.854c-4.052,1.604-8.111,3.419-12.343,4.28
			c-7.715,1.566-15.736,1.681-22.859-1.787c-5.578-2.713-10.344-7.099-15.464-10.751c-9.931-7.078-18.743-15.83-30.547-20.098
			c-1.465-0.53-2.591-1.995-4.235-3.317c2.403-0.771,4.121-1.163,5.704-1.856c12.322-5.394,24.565-10.979,36.953-16.218
			c4.867-2.061,8.637-5.137,11.583-9.404c0.498-0.718,1.049-1.399,1.562-2.109c4.749-6.569,4.472-8.592-2.346-12.876
			c-3.231-2.031-6.753-3.623-10.2-5.296c-4.827-2.342-7.854-6.377-10.168-10.946c-2.089-4.125-5.279-6.259-9.751-6.924
			c-2.619-1.188-5.455-2.105-8.327-2.452c-2.02-0.905-3.974-2.003-5.888-3.296c-3.227-2.184-7.181-3.509-10.991-4.566
			c-7.984-2.22-16.092-3.986-24.138-5.99c-1.436-0.359-2.786-1.061-4.223-1.424c-4.341-1.097-6.597,0.694-5.965,5.092
			c0.363,2.538,1.424,5.007,2.366,7.426c0.727,1.864,1.918,3.554,2.579,5.435c0.053,0.159,0.081,0.354,0.086,0.575
			c-0.62-0.506-1.273-0.991-1.955-1.461c-6.201-4.288-12.803-7.935-19.678-10.995c-1.542-2.04-3.048-4.117-4.688-6.075
			c-1.388-1.656-3.228-2.934-4.859-4.386c-0.049,2.46,1.069,4.59,0.869,6.957c-1.15-0.416-2.31-0.816-3.477-1.204
			c-4.671-4.961-9.143-9.947-15.349-13.419c0.771,3.142,1.607,5.639,1.909,8.197c0.049,0.42,0.013,0.926-0.094,1.428
			c-2.782-0.641-5.586-1.204-8.4-1.689c-3.537-2.787-7.03-5.639-10.588-8.396c-1.726-1.338-3.644-2.428-5.978-3.962
			c1.27,3.876,3.28,6.973,3.379,10.637c-1.122-0.102-2.248-0.192-3.374-0.27c-1.24-0.849-2.432-1.738-3.591-2.664
			c-3.615-2.889-6.997-6.153-11.697-7.254c-1.244-0.293-2.554-0.318-4.137-0.498c2.121,3.023,3.871,5.512,5.622,8.005
			c-0.258,0.302-0.515,0.608-0.768,0.91c-1.555-0.616-3.178-1.097-4.646-1.869c-3.713-1.95-7.312-4.117-11.041-6.034
			c-2.855-1.469-5.912-1.701-9.099-0.938c1.514,2.738,2.897,5.239,4.28,7.74c-0.232,0.245-0.469,0.49-0.702,0.734
			c-2.696-0.856-5.377-1.795-8.103-2.554c-2.934-0.816-5.896-1.583-8.891-2.114c-0.971-0.171-2.085,0.465-3.133,0.73
			c0.489,0.873,0.914,1.795,1.489,2.607c0.562,0.796,1.285,1.477,1.938,2.208c-0.139,0.286-0.277,0.571-0.416,0.861
			c-5.602-1.29-11.199-2.583-17.364-4.002c1.416,2.742,2.387,4.623,3.644,7.058h-18.593c1.362,2.66,2.46,4.794,3.884,7.573
			c-7.229-0.372-13.745-0.706-20.669-1.061c1.109,2.926,1.909,5.039,2.799,7.394c-5.186-0.233-9.812-0.437-15.084-0.67
			c0.861,1.208,1.334,1.645,1.518,2.175c0.445,1.298,0.755,2.645,1.118,3.97c-1.261,0.335-2.514,0.923-3.778,0.947
			c-2.239,0.045-4.487-0.253-6.508-0.388c0.062,0.42,0.176,0.873,0.282,1.306c-2.823-0.421-5.655-0.845-8.462-1.253
			c-2.163-0.583-4.337-1.122-6.528-1.604c-8.494-1.881-17.124-3.129-25.785-3.729c-20.004-3.231-39.862-2.57-59.866,1.184
			c-20.437,3.835-40.143,10.147-60.049,15.912c-13.06,3.782-26.565,6.083-39.931,8.747c-7.193,1.437-14.492,2.424-21.779,3.293
			c-13.994,1.669-27.446-5.749-33.746-18.348c-4.296-8.589-2.677-19.058,3.562-26.516c7.266-8.694,18.123-9.686,24.37-7.046
			c10.833,4.578,16.389,11.481,14.831,22.199c-0.657,4.509-2.995,8.299-6.206,10.918c-0.555,0.376-1.122,0.727-1.722,1.024
			c-6.663,3.309-15.182,2.188-19.833-3.929c-4.002-5.264-2.68-12.881,3.599-15.247c1.946-0.734,5.296-0.151,6.308,1.999
			c0.457,0.971,0.408,1.306-0.09,2.024c-0.22,0.318-0.62,0.677-0.546,0.641c-0.196,0.098-0.298,0.163-0.351,0.208
			c-0.049-0.033-0.175-0.065-0.465-0.086c-6.752-0.501-7.177,9.988-0.424,10.494c6.462,0.481,12.411-5.206,12.627-11.652
			c0.008-0.253-0.004-0.498-0.012-0.743c0.265-2.452-0.567-4.704-2.13-6.772c-2.167-3.33-5.761-5.757-9.792-6.536
			c-7.462-1.444-14.439,2.48-18.376,8.441c-5.267,6.618-5.21,14.774,0.384,22.003c5.259,8.054,14.761,12.391,24.435,11.326
			c7.393-0.416,14.806-3.726,20.959-9.89c8.633-8.658,10.412-19.099,6.854-30.535c-5.802-18.658-26.528-31.73-45.753-28.752
			c-10.665,1.653-18.825,7.263-24.875,16.288c-10.604,15.826-10.71,32.489-4.096,49.56c3.452,8.91,10.726,14.59,18.674,19.47
			c9.499,5.83,20.123,6.527,30.808,7.152c25.981,1.518,51.89,0.42,77.81-1.697c9.551-0.779,19.107-1.498,28.667-2.188
			c2.195,0.326,4.447,0.266,6.642-0.216l1.767-0.388c13.807-0.955,27.618-1.819,41.432-2.574c8.07-0.445,16.21,0.481,24.329,0.897
			c1.204,0.216,2.407,0.432,3.607,0.665c7.005,1.358,13.945,2.986,20.82,4.867c3.19,1.918,6.981,4.933,8.784,8.021l-0.971,4.646
			c-1.555,1.686-2.815,2.894-3.9,4.248c-8.939,11.138-15.096,23.672-18.65,37.486c-0.93,3.611-1.742,4.566-5.459,4.717
			c-10.351,0.416-20.388-1.15-29.996-5.148c-1.611-0.67-3.227-1.375-4.908-1.812c-1.922-0.498-3.672-0.069-4.741,1.836
			c-1.037,1.848-1.118,3.651,0.318,5.36c0.355,0.425,0.686,0.873,1.184,1.506c-0.841,0-1.363-0.021-1.881,0.004
			c-1.999,0.094-4.08-0.11-5.981,0.371c-3.256,0.829-4.692,4.468-3.419,7.875c1.187,3.17,3.031,3.814,6.687,2.533
			c1.64-0.575,3.354-1.032,5.076-1.276c7.527-1.073,15.059-2.122,22.611-3.044c10.485-1.281,20.804-1.738,30.865,2.934
			c3.831,1.778,8.425,2.044,12.722,2.66c2.317,0.33,4.043-0.991,4.483-3.468c0.441-2.469-0.722-4.17-2.986-4.855
			c-2.321-0.706-4.737-1.253-7.148-1.478c-3.827-0.358-7.687-0.403-11.529-0.555c-1.653-0.065-2.31-0.71-2.024-2.492
			c0.542-3.436,1.522-6.626,3.92-9.258c2.354-2.583,4.545-5.333,7.055-7.752c8.278-7.977,16.793-15.602,28.327-18.735
			c2.489-0.678,4.749-2.126,5.476-5.006c1.362,0.293,2.729,0.591,4.092,0.885c3.982,0.972,7.899,1.922,11.779,3.016
			c1.139,0.322,2.42,1.334,2.958,2.378c1.991,3.86,4.651,6.77,9.091,7.598c8.07,1.509,16.107,3.292,24.23,4.39
			c3.966,0.534,7.94,1.04,11.931,1.358c8.556,1.673,17.205,2.901,25.899,3.697c0.645,1.301,0.229,2.913-1.236,4.643
			c-3.104,3.668-6.532,7.066-9.571,10.787c-6.365,7.781-14.565,9.666-24.027,7.969c-1.894-0.339-3.799-0.616-5.712-0.812
			c-1.726-0.175-3.501-0.452-5.194-0.236c-2.823,0.363-4.214,2.13-4.051,4.565c0.175,2.604,2.138,4.484,4.916,4.402
			c1.999-0.061,3.986-0.481,5.978-0.722c8.323-1,16.654-2.86,24.97-2.774c11.093,0.114,22.048,2.284,32.473,6.508
			c1.844,0.746,3.843,1.199,5.813,1.525c2.399,0.4,4.496-0.392,6.055-2.338c1.722-2.146,1.42-4.104-0.991-5.418
			c-1.575-0.861-3.309-1.437-4.981-2.146c2.334-3.569-0.184-7.059-4.374-6.568c-0.779,0.09-1.579,0.102-2.338,0.277
			c-5.789,1.334-11.555,2.778-17.364,4.022c-2.975,0.637-6.026,0.931-9.331-1.077c1.66-1.432,2.975-2.819,4.524-3.855
			c6.61-4.427,13.272-8.78,19.956-13.097c1.999-1.293,4.165-2.411,4.394-4.606c12.044,0.176,24.101-0.478,36.039-1.975h7.132
			c-0.099,8.009,2.37,14.647,8.123,20.184c1.665,1.6,2.509,4.378,3.023,6.769c0.738,3.448-0.686,4.77-4.183,4.297
			c-2.938-0.4-5.817-1.351-8.76-1.587c-3.174-0.253-6.426-0.192-9.584,0.195c-2.044,0.253-4.174,1.216-4.357,3.831
			c-0.134,1.95,1.8,3.599,4.685,4.166c0.681,0.135,1.411,0.245,2.085,0.143c3.268-0.51,6.564-0.918,9.775-1.689
			c9.009-2.166,18.168-3.215,27.308-1.945c8.115,1.126,16.066,3.395,24.125,4.961c2.713,0.526,5.553,0.714,8.314,0.6
			c3.313-0.139,5.146-2.647,4.831-5.924c-0.261-2.754-2.113-3.945-4.524-4.333c-2.407-0.388-4.859-0.489-7.593-0.747
			c3.892-1.774,4.753-2.859,4.06-4.851c-0.82-2.354-2.958-3.081-6.414-2.158c-0.592,0.159-1.191,0.318-1.746,0.562
			c-4.794,2.113-9.649,4.108-14.346,6.422c-3.863,1.905-7.454,1.354-11.048-0.444c-0.621-0.311-1.359-1.008-1.457-1.62
			c-0.33-2.121-1.012-4.459-0.449-6.394c1.171-4.022,0.816-7.743-0.506-11.521c0.009-0.384,0.017-0.763,0.024-1.146
			c0.037-1.681-0.583-2.941-1.534-3.786c-0.118-0.367-0.244-0.73-0.392-1.09c-0.636-1.559-0.204-2.395,1.18-3.146
			c4.839-2.627,9.625-5.353,14.468-7.968c1.113-0.601,2.383-0.91,3.06-1.163c2.008,1.856,3.452,3.7,5.324,4.835
			c11.433,6.936,23.758,11.942,36.553,15.594c8.083,2.305,14.533,6.915,20.743,12.15c-4.211,0.506-8.421,1.016-12.632,1.521
			c-0.991,0.028-1.975,0.102-2.95,0.253c-0.95,0.146-2.517,2.097-2.309,2.746c0.396,1.236,1.718,2.402,2.941,3.068
			c0.877,0.477,2.248,0.248,3.354,0.053c4.888-0.865,9.801-1.656,14.64-2.754c2.023-0.245,4.047-0.49,6.075-0.73
			c0.562-0.069,1.032-0.277,1.403-0.575c6.442-0.641,12.778,0.086,19.069,2.623c5.32,2.143,10.951,3.109,16.695,2.771
			c1.95-0.114,3.941-0.714,5.77-1.457c2.28-0.926,1.583-3.178,1.313-4.839C600.092,372.374,598.603,371.525,597.615,371.333z"/>
	</g>
</g>
<g>
</g>
<g>
</g>
<g>
</g>
<g>
</g>
<g>
</g>
<g>
</g>
<g>
</g>
<g>
</g>
<g>
</g>
<g>
</g>
<g>
</g>
<g>
</g>
<g>
</g>
<g>
</g>
<g>
</g>
</svg>
