<?xml version="1.0" encoding="iso-8859-1"?>
<!-- Generator: Adobe Illustrator 16.0.0, SVG Export Plug-In . SVG Version: 6.00 Build 0)  -->
<!DOCTYPE svg PUBLIC "-//W3C//DTD SVG 1.1//EN" "http://www.w3.org/Graphics/SVG/1.1/DTD/svg11.dtd">
<svg version="1.1" id="Capa_1" xmlns="http://www.w3.org/2000/svg" xmlns:xlink="http://www.w3.org/1999/xlink" x="0px" y="0px"
	 width="557.826px" height="557.826px" viewBox="0 0 557.826 557.826" style="enable-background:new 0 0 557.826 557.826;"
	 xml:space="preserve">
<g>
	<g>
		<path d="M116.728,326.582c12.579,18.886,25.622,37.458,38.45,56.177c0.457,0.669,0.853,1.384,1.758,2.864
			c-31.195-3.048-50.816,9.086-55.651,41.146c-10.583-3.504-19.205-9.901-27.919-16.115c-3.419-2.44-6.528-5.431-10.212-7.328
			c-2.358-1.212-6.74-2.166-8.021-0.942c-2.007,1.922-3.574,6.202-2.819,8.735c1.701,5.691,4.112,11.571,7.74,16.193
			c6.079,7.752,13.178,14.729,20.167,21.718c2.269,2.269,3.317,3.726,2.048,7.16c-9.718,26.309,2.787,62.371,38.589,70.054
			c13.052,2.804,26.626,3.293,39.996,4.411c3.855,0.322,6.936,1.158,10.012,3.627c19.25,15.459,41.012,23.994,66.006,23.525
			c23.077-0.437,42.754-9.552,60.271-23.786c4.508-3.664,8.972-4.909,14.646-4.855c46.251,0.44,92.511,1.023,138.757,0.583
			c11.384-0.11,23.15-2.55,34.003-6.145c17.589-5.826,26.083-19.665,26.282-37.891c0.201-18.405-7.977-32.42-24.943-40.429
			c-15.451-7.291-32.212-7.83-48.858-8.43c-8.882-0.322-17.78-0.057-27.319-0.057c1.889-11.995,0.493-22.261-3.729-31.979
			c-7.177-16.508-21.146-22.733-38.001-23.61c-19.217-1-36.373,5.426-52.122,15.944c-3.15,2.105-5.732,2.113-9.299,0.931
			c-27.483-9.111-48.193-27.577-65.431-49.601c-30.327-38.744-49.421-82.938-58.939-131.221c-2.595-13.154,0.338-25.716,4.398-38.14
			c6.948-21.252,16.903-40.727,34.052-55.643c5.166-4.492,11.037-8.282,16.957-11.762c10.526-6.182,16.581-14.529,15.149-27.226
			c-0.073-0.632,0.147-1.297,0.298-2.489c4.362,1.102,8.503,2.321,12.717,3.178c9.898,2.016,19.817,3.945,29.952,1.29
			c0.935-0.245,2.44,0.061,3.113,0.706c3.766,3.599,7.707,7.111,10.865,11.216c1.583,2.061,1.763,5.275,2.35,8.013
			c1.073,5.01,1.979,10.053,2.954,15.084c0.51-0.049,1.021-0.098,1.53-0.147c0.481-5.945,0.959-11.893,1.411-17.475h18.512
			c0.114-0.42,0.224-0.845,0.334-1.265c-14.026-2.717-25.141-9.865-33.893-21.877c5.594-5.924,4.386-11.848,1.562-17.842
			c-0.791-3.864-2.778-7.482-5.613-10.542c-4.492-8.315-8.887-16.679-13.257-25.06c-3.99-7.658-9.417-12.979-18.756-12.783
			c-1.256,0.024-2.603-0.624-3.782-1.208C219.898-8.203,179.192-3.103,140.783,24.796c-6.357,4.615-12.118,10.167-17.618,15.814
			c-7.768,7.977-15.863,15.329-25.533,21.061c-30.086,17.833-44.456,45.479-49.18,79.262c-5.186,37.087,3.937,71.31,19.466,104.509
			C81.366,274.207,99.22,300.29,116.728,326.582z"/>
	</g>
</g>
<g>
</g>
<g>
</g>
<g>
</g>
<g>
</g>
<g>
</g>
<g>
</g>
<g>
</g>
<g>
</g>
<g>
</g>
<g>
</g>
<g>
</g>
<g>
</g>
<g>
</g>
<g>
</g>
<g>
</g>
</svg>
