<?xml version="1.0" encoding="iso-8859-1"?>
<!-- Generator: Adobe Illustrator 18.0.0, SVG Export Plug-In . SVG Version: 6.00 Build 0)  -->
<!DOCTYPE svg PUBLIC "-//W3C//DTD SVG 1.1//EN" "http://www.w3.org/Graphics/SVG/1.1/DTD/svg11.dtd">
<svg version="1.1" id="Capa_1" xmlns="http://www.w3.org/2000/svg" xmlns:xlink="http://www.w3.org/1999/xlink" x="0px" y="0px"
	 viewBox="0 0 450.302 450.302" style="enable-background:new 0 0 450.302 450.302;" xml:space="preserve">
<path d="M304.458,288.799c-5.852-0.53-6.684-4.456-2.78-5.291c19.495-1.949,32.597-11.984,36.772-17.282
	c22.296-4.179,27.855-13.652,37.055-20.614c9.196-2.223,29.814-1.116,34.408-2.223c4.603-1.122,14.345-5.022,19.365-7.249
	c5.013-2.224,13.091-1.392,16.44-3.072c3.337-1.669,5.855-3.528,3.901-5.758c-2.429-2.767-16.723-0.19-21.736,1.203
	c-8.361,2.78-21.726-1.849-32.871-2.124c-11.149-0.278-23.959,1.673-25.079-1.395c-1.109-3.063,3.629-8.639,9.477-12.532
	c25.07-3.628,39.556-17.835,45.133-24.523c7.242-3.062,15.039-7.886,13.647-11.706c-2.231-6.124-13.925-2.224-17.826,1.68
	c-5.011,5.569-16.162,12.541-21.726,12.541c-5.573,0-17.834,5.289-22.856,5.845c-13.652-3.622-14.755,1.395-22.004,6.412
	c-7.244,5.013-12.539,6.123-12.817,10.589c-5.842-0.838-18.942,2.784-25.075,8.075c-22.017,5.289-31.481,12.541-31.481,12.541
	s-40.724-7.16-92.225-2.504c-53.492,4.847-83.02,18.1-113.388,19.119c-30.367,1.006-48.773-25.507-49.074-50.049
	c-0.362-29.817,22.809-46.335,18.392-48.472c-7.57-4.251-47.08,32.183-47.918,60.867c-5.294,77.735,101.446,76.208,107.58,75.645
	c0.838,3.896,5.815,10.003,29.526,10.111c23.416,0.114,16.719-7.61,14.492-11.506c35.107,15.881,86.086,7.802,98.067,3.34
	c9.473,9.478,23.402,8.917,30.643,5.291c8.917,4.738,25.844,1.103,40.677,1.124C336.063,296.891,322.33,290.407,304.458,288.799z"/>
<g>
</g>
<g>
</g>
<g>
</g>
<g>
</g>
<g>
</g>
<g>
</g>
<g>
</g>
<g>
</g>
<g>
</g>
<g>
</g>
<g>
</g>
<g>
</g>
<g>
</g>
<g>
</g>
<g>
</g>
</svg>
