<?xml version="1.0" encoding="iso-8859-1"?>
<!-- Generator: Adobe Illustrator 18.0.0, SVG Export Plug-In . SVG Version: 6.00 Build 0)  -->
<!DOCTYPE svg PUBLIC "-//W3C//DTD SVG 1.1//EN" "http://www.w3.org/Graphics/SVG/1.1/DTD/svg11.dtd">
<svg version="1.1" id="Capa_1" xmlns="http://www.w3.org/2000/svg" xmlns:xlink="http://www.w3.org/1999/xlink" x="0px" y="0px"
	 viewBox="0 0 495.803 495.803" style="enable-background:new 0 0 495.803 495.803;" xml:space="preserve">
<g>
	<path d="M465.045,203.644C382.228,54.791,203.578,54.361,151.047,103.451c0.953,2.032,1.924,4.129,2.928,6.405
		c11.322,25.628,26.916,71.366,31.449,109.221c3.33-9.44,5.908-14.9,13.49-24.067c9.815-11.924,27.434-13.635,39.367-3.819
		c11.917,9.819,13.637,27.449,3.82,39.373c-4.686,5.65-19.605,10.376-17.99,21.58c-0.048,1.521,0.632,3.213,1.264,4.997
		c24.744-2.25,46.635-14.179,61.779-31.935c4.049-1.142,13.456-3.578,26.086-5.57c-0.498-1.251-3.021-4.901-4.58-16.414
		c-0.535-5.424-0.211-10.888,0.775-16.356c3.291-14.757,10.888-27.798,24.23-39.339c11.655-10.13,29.324-8.894,39.443,2.768
		c13.01,14.96,6.257,37.645-9.877,43.626c-7.758,3.605-8.021,3.812-10.994,6.508c-2.92,3.384-2.408,4.067-2.885,5.143
		c-0.522,1.036-0.877,6.014,1.135,11.312c32.711,0.437,69.279,9.506,88.517,43.301c43.706,76.827,5.913,107.647-19.71,127.058
		c-15.273,11.571-44.429,23.252-76.158,8.637c-12.09-5.569-34.893-19.404-38.673-52.084c-2.464-21.306,9.978-39.723,12.369-43.139
		c13.438-17.09,44.728-23.659,69.444-3.387c13.676,11.217,11.427,32.803,7.742,40.686c-12.139,25.967-42.236,15.979-48.891,11.702
		c-4.494-2.819-9.201,3.227-5.457,6.882c4.074,3.998,7.705,8.528,18.297,11.764c6.77,1.747,16.03,2.954,25.635-1.248
		c43.176-18.271,38.964-74.435-1.308-93.265c-42.346-20.281-97.059,14.168-94.706,71.08c1.529,12.33,1.223,42.631,47.822,67.478
		c11.664,6.219,24.34,8.761,35.887,9.085c29.176,0.821,45.764-5.441,64.02-15.118C457.135,394.751,540.002,338.398,465.045,203.644z
		"/>
	<path d="M329.16,247.335c15.732-3.143,17.318,0.944,22.121-3.151c3.547-3.046,3.966-8.404,0.924-11.957v-0.011l-4.665-7.634
		c-0.536-1.352-4.727-9.668-4.5-14.882c-0.911-10.495,7.53-18.779,16.726-22.112c13.443-4.949,17.783-21.474,8.91-32.34
		c-7.177-8.802-20.129-10.122-28.941-2.929l-1.926,1.569c-3.424,2.805-6.807,6.161-9.863,10.129
		c-16.314,20.364-18.07,46.504-0.598,66.865c-2.299,0.452-31.482,4.667-52.598,34.072c-2.965,3.418-2.641,8.605,0.76,11.611
		c3.432,3.012,8.648,2.688,11.664-0.73l0.983-1.116C307.179,250.585,326.389,247.667,329.16,247.335z"/>
	<path d="M231.239,275.462l-5.864-6.751c-3.786-6.258-10.313-13.859-6.057-25.556c5.684-11.649,12.551-11.888,17.327-17.311
		c7.479-8.544,6.625-21.544-1.913-29.028c-8.551-7.489-21.553-6.639-29.035,1.911c-2.309,2.646-5.998,6.636-9.68,13.489
		c-12.602,22.569-10.26,48.67,10.361,66.081c-0.423,0.16-0.89,0.251-1.313,0.412c-3.238,1.016-27.842,10.228-44.795,41.86
		c-2.36,3.863-1.18,8.926,2.676,11.33c3.869,2.404,8.957,1.221,11.369-2.648c16.29-29.416,41.76-38.099,52.257-38.826
		c7.482-0.692,10.474-10.114,4.679-14.956L231.239,275.462z"/>
	<path d="M120.892,75.954c-2.234,0.007-3.984,2.065-5.069,6.617C90.028,191.151,37.655,236.709,6.416,254.849
		c-4.275,2.477-6.752,7.189-6.379,12.11c0.372,4.932,3.531,9.214,8.129,11.031c53.938,21.297,123.586,33.471,162.846-9.564
		C198.932,237.811,140.717,75.954,120.892,75.954z"/>
</g>
<g>
</g>
<g>
</g>
<g>
</g>
<g>
</g>
<g>
</g>
<g>
</g>
<g>
</g>
<g>
</g>
<g>
</g>
<g>
</g>
<g>
</g>
<g>
</g>
<g>
</g>
<g>
</g>
<g>
</g>
</svg>
