<?xml version="1.0" encoding="iso-8859-1"?>
<!-- Generator: Adobe Illustrator 16.0.0, SVG Export Plug-In . SVG Version: 6.00 Build 0)  -->
<!DOCTYPE svg PUBLIC "-//W3C//DTD SVG 1.1//EN" "http://www.w3.org/Graphics/SVG/1.1/DTD/svg11.dtd">
<svg version="1.1" id="Capa_1" xmlns="http://www.w3.org/2000/svg" xmlns:xlink="http://www.w3.org/1999/xlink" x="0px" y="0px"
	 width="566.177px" height="566.177px" viewBox="0 0 566.177 566.177" style="enable-background:new 0 0 566.177 566.177;"
	 xml:space="preserve">
<g>
	<g>
		<path d="M6.826,204.32c0.494,1.265,0.971,2.53,1.521,3.807c0.167,3.387,0.27,6.777,0.702,10.126
			c0.429,3.305,1.571,6.508,2.175,9.8c0.526,2.864,0.188,5.994,1.195,8.637c2.301,6.018,4.782,12.041,7.956,17.626
			c3.432,6.026,7.63,11.628,11.693,17.274c5.892,8.188,14.688,12.698,23.064,17.696c4.663,2.782,9.314,5.605,14.149,8.066
			c2.962,1.509,6.218,2.468,9.404,3.492c7.842,2.518,15.716,4.937,23.582,7.372c0.922,0.286,1.881,0.551,2.84,0.616
			c6.21,0.421,12.432,1.159,18.642,1.086c12.097-0.135,24.198,1.325,36.316-0.511c5.842-0.885,11.872-0.534,17.817-0.746
			c3.888-0.139,7.78-0.343,11.668-0.404c4.537-0.073,9.087-0.265,13.607,0.017c16.124,0.995,32.265,1.86,48.344,3.366
			c14.337,1.342,28.707,2.896,42.86,5.471c8.327,1.514,16.287,5.112,24.362,7.924c8.601,2.99,15.724,8.548,23.398,13.247
			c12.644,7.744,22.211,18.205,30.796,29.898c0.706,0.959,1.505,1.922,1.917,3.012c3.521,9.306,7.748,18.38,9.181,28.368
			c0.722,5.043,1.832,10.04,2.358,15.104c1.636,15.741,0.012,31.163-5.802,45.938c-3.493,8.874-7.169,17.723-11.555,26.173
			c-2.607,5.019-6.933,9.119-10.192,13.835c-7.209,10.429-15.5,20.119-25.614,27.479c-6.683,4.863-13.447,10.53-22.252,12.235
			c-3.378,0.653-6.52,2.754-9.633,4.447c-1.11,0.604-1.815,1.946-2.709,2.95c0.105,0.347,0.216,0.693,0.322,1.044
			c1.934,0.024,3.941,0.4,5.789,0.017c10.461-2.171,20.144-6.161,28.193-13.366c9.11-8.156,18.548-16.03,26.911-24.904
			c6.193-6.564,11.339-14.256,16.157-21.942c6.051-9.653,10.2-20.285,14.704-30.775c6.124-14.268,6.944-28.649,5.153-43.615
			c-0.861-7.188-0.498-14.668-2.366-21.562c-5.94-21.901-15.916-41.547-34.979-55.228c-8.552-6.136-17.173-12.187-25.997-17.919
			c-3.501-2.272-7.479-4.104-11.498-5.234c-14.802-4.166-29.682-8.066-44.591-11.856c-21.559-5.479-43.468-8.878-65.59-11.216
			c-11.032-1.167-21.991-1.804-33.085-1.388c-10.154,0.384-20.347,0.163-30.514-0.106c-9.608-0.257-19.278-0.354-28.797-1.533
			c-19.327-2.396-38.07-7.5-54.231-18.638c-9.678-6.671-18.927-14.28-23.79-26.006c-4.496-10.841-6.039-21.812-4.545-33.269
			c1.106-8.445,1.926-17.046,4.231-25.19c3.134-11.073,6.092-22.317,12.954-32.04c7.923-11.228,18.621-18.907,30.326-25.545
			c1.367-0.775,2.298-2.313,3.456-3.472c0.519-0.522,1.024-1.289,1.656-1.436c3.477-0.824,6.989-1.501,10.498-2.211
			c0.734-0.151,1.485-0.208,2.22-0.355c5.32-1.057,10.669-2.003,15.948-3.248c2.338-0.551,4.501-1.812,6.81-2.53
			c1.11-0.347,2.416-0.42,3.562-0.212c3.798,0.682,7.531,1.914,11.346,2.248c4.346,0.375,8.765-0.228,13.13,0.021
			c8.111,0.465,16.193,1.342,24.305,1.836c3.011,0.184,6.066-0.102,9.082-0.404c5.296-0.526,10.465-1.175,15.459,1.799
			c2.016,1.2,4.721,1.24,7.52,1.905c-1.591,1.538-3.061,3.036-4.606,4.447c-5.826,5.304-9.972,11.922-12.705,19.074
			c-1.281,3.35-0.057,7.792,0.522,11.669c0.424,2.86,1.823,5.557,2.48,8.4c3.958,17.132,20.106,30.755,28.96,45.782
			c0.824,1.404,1.664,2.942,1.477,4.557c-0.191,1.616-1.946,3.109-3.41,2.403c1.975,2.876,6.703,2.615,9.163,0.147
			s3.016-6.304,2.599-9.768c-1.154-9.653-8.388-17.307-15.242-24.203c15.148,14.06,34.782,35.166,56.128,38.332
			c-0.077,2.852-0.159,5.704-0.236,8.556c3.934,0.412,6.993-4.121,6.426-8.034c-0.571-3.913-3.59-7.009-6.772-9.352
			c-6.051-4.459-13.142-7.238-19.743-10.836c-6.602-3.594-13.007-8.348-16.128-15.186c12.762,7.829,26.977,13.284,41.701,15.998
			c0,1.538,2.525,4.027,3.57,5.006c4.361-4.99-1.008-13.248-6.083-16.581c-5.855-3.839-13.085-4.745-19.988-5.912
			s-14.157-2.901-19.106-7.862c5.353,5.365,29.812,7.299,36.561,4.814c1.681,2.33,3.525,5.026,5.353,6.81
			c1.979-4.28-0.069-8.482-3.871-11.453c-6.296-4.002-13.301-6.634-20.91-7.291c-3.554-0.306-7.079-0.926-10.608-1.465
			c-0.583-0.089-1.118-0.494-1.677-0.75c1.073-1.351,2.04-2.566,3.264-4.108c0.441,0.897,0.955,1.946,1.551,3.166
			c1.954-0.408,2.819-1.718,2.211-3.48c-0.538-1.562-1.424-3.223-2.64-4.292c-4.937-4.345-8.625-4.574-14.189-1.257
			c-4.187,2.493-4.774,2.534-10.616,0.6c4.129-2.281,8.155-4.329,12.007-6.671c6.989-4.239,14.219-8.201,20.686-13.142
			c4.986-3.811,8.96-8.952,13.529-13.648c0.967,0.11,2.497,0.049,3.852,0.502c1.392,0.465,2.628,1.408,3.904,2.187
			c0.735,0.449,1.481,1.501,2.102,1.42c4.957-0.677,9.078,2.179,13.607,3.207c4.879,1.11,9.535,2.665,14.549,1.11
			c0.412-0.126,0.89-0.359,1.257-0.257c22.722,6.389,45.896,5.336,69.074,4.235c0.629-0.028,1.265,0.037,2.265,0.069
			c-0.298,2.044-0.816,3.925-0.808,5.806c0.057,11.367-0.054,22.75,0.506,34.097c0.265,5.382,3.08,10.094,6.825,14.109
			c1.167,1.249,2.293,2.631,3.048,4.145c2.313,4.639,5.492,8.458,9.385,11.914c2.623,2.33,4.402,5.594,6.675,8.34
			c0.738,0.889,1.848,1.469,3.357,2.627c0.004,0.693,0.021,2.154,0.032,3.619c5.129-0.51,6.818-5.679,4.953-13.211
			c1.172,1.55,2.396,3.064,3.501,4.66c1.281,1.856,2.505,3.757,3.664,5.688c1.085,1.812,2.061,3.688,3.317,5.965
			c-0.09,0.175-0.58,0.792-0.743,1.481c-0.396,1.673,0.734,2.636,1.89,1.657c1.697-1.44,3.651-3.378,4.047-5.394
			c1.248-6.324-0.983-11.771-5.867-15.981c-2.554-2.203-5.328-4.157-8.001-6.222c0.188-0.331,0.376-0.661,0.567-0.992
			c2.848,1.188,5.684,2.416,8.56,3.542c1.326,0.518,2.729,0.833,4.685,1.408c-0.009-0.049,0.139,0.849,0.285,1.775
			c2.477-0.824,3.378-4.199,1.963-7.234c-2.229-4.77-6.373-6.891-11.302-7.67c-2.986-0.474-6.039-0.526-9.025-1.016
			c-1.261-0.208-2.419-1.053-3.623-1.604c0.041-0.298,0.078-0.591,0.118-0.889c3.962-0.885,7.928-1.775,12.195-2.729
			c0.502,0.706,1.184,1.656,2.085,2.921c0.759-6.046-1.742-10.71-5.834-10.755c-2.979-0.028-6.01,0.612-8.932,1.314
			c-1.75,0.42-3.337,1.53-5.234,2.444c-1.236-5.002-2.656-8.458-0.657-12.856c3.26-7.173,5.382-14.855,8.066-22.297
			c0.371-1.028,1.216-1.885,1.844-2.819c1.094,0.804,2.632,1.367,3.207,2.444c4.08,7.634,8.014,15.345,11.865,23.101
			c0.963,1.938,1.75,3.448,3.79,1.836c2.162,1.836,4.084,3.468,5.753,4.884c3.859,2.53,7.739,4.664,11.134,7.401
			c4.08,3.289,2.819,8.197,2.918,12.619c-1.42,1.032-2.836,2.064-4.252,3.097c0.184,0.266,0.367,0.531,0.551,0.796
			c4.386-0.792,7.797-3.17,9.996-7.185c1.416-2.583,3.224-4.484,6.716-5.459c-1.159,7.878-6.65,13.476-8.421,21.249
			c7.996-2.231,10.942-8.633,14.316-15.186c-1.562,6.752-3.125,13.509-4.762,20.596c3.403-1.856,6.74-4.141,8.312-7.711
			c1.521-3.46,1.893-7.426,3.166-11.045c-0.502,7.524-3.04,14.39-6.761,20.743c7.564-1.481,14.26-3.325,13.134-14.602
			c-0.021-0.216-0.077-0.449-0.024-0.649c2.31-8.739-3.398-13.194-9.307-17.625c-2.072-1.554-3.713-3.746-5.892-5.088
			c-4.32-2.656-8.788-5.116-13.37-7.291c-4.822-2.293-7.666-5.496-7.874-11.134c-0.18-4.884-1.135-9.735-1.734-14.606
			c-0.118-0.946-0.171-1.897-0.257-2.884c4.513,0.987,7.576,4.639,7.936,8.919c0.073,0.889,1.183,1.689,2.175,2.333
			c0.008,4.807,0.008,4.807,2.741,5.145c0.143,1.33,0.29,2.66,0.478,4.366c1.277-0.698,2.097-1.143,2.926-1.595
			c2.447,4.888,2.447,4.888,6.409,1.791c0.065,2.028,0.127,3.929,0.191,5.83c0.262,0.065,0.526,0.131,0.788,0.2
			c1.566-1.914,3.133-3.827,4.761-5.814c0.833,2.048,1.494,3.676,2.159,5.3c1.399-1.195,2.803-2.387,4.438-3.782
			c0.335,1.824,0.645,3.529,1.122,6.132c2.269-3.75,4.011-6.63,6.238-10.306c0.861,2.338,1.407,3.823,1.954,5.304
			c0.311,0.11,0.616,0.224,0.927,0.334c1.501-2.873,3.007-5.749,4.508-8.621c0.322,0.123,0.641,0.249,0.963,0.371
			c0.086,1.783,0.168,3.566,0.253,5.349c0.339,0.11,0.678,0.22,1.017,0.331c1.934-3.003,3.871-6.002,6.075-9.425
			c1.023,1.762,1.774,3.052,2.803,4.822c1.48-4.688,1.836-9.368,6.377-12.407c0.24,2.036,0.412,3.501,0.583,4.965
			c0.27,0.033,0.539,0.069,0.812,0.102c1.403-3.354,2.807-6.708,4.504-10.755c1.024,1.803,1.616,2.852,2.465,4.345
			c2.558-2.95,0.934-8.107,6.177-9.51c0.017,1.281,0.033,2.583,0.049,3.88c0.359-0.021,0.714-0.037,1.073-0.057
			c1.224-2.338,2.448-4.68,3.799-7.262c0.894,1.061,1.534,1.828,2.741,3.264c0.212-5.125,3.562-7.238,6.744-9.388
			c1.306-0.881,2.905-1.551,4.456-1.795c4.047-0.645,8.139-0.987,12.211-1.498c0.628-0.077,1.399-0.241,1.804-0.653
			c3.994-4.067,8.413-7.948,9.09-14.068c0.204-1.836-0.204-3.929-0.946-5.638c-1.204-2.771-2.922-5.316-4.406-7.964
			c-1.686-2.999-3.142-5.753-2.681-9.698c0.306-2.615-1.571-6.181-3.587-8.221c-3.517-3.558-8.396-5.797-11.815-9.425
			c-6.189-6.573-13.627-10.616-21.701-13.521c-3.056-5.092-7.091-12.611-8.874-19.454c-3.061-11.73-0.359-12.652-10.38-17.034
			c-10.021-4.386-58.471,25.704-92.641,9.894s-17.336,29.058-55.075,4.578c-37.74-24.48-11.221,4.08-95.371-2.55
			C178.181,23.246-39.809,80.798,6.348,203.121C6.352,203.537,6.495,203.94,6.826,204.32z"/>
	</g>
</g>
<g>
</g>
<g>
</g>
<g>
</g>
<g>
</g>
<g>
</g>
<g>
</g>
<g>
</g>
<g>
</g>
<g>
</g>
<g>
</g>
<g>
</g>
<g>
</g>
<g>
</g>
<g>
</g>
<g>
</g>
</svg>
