<?xml version="1.0" encoding="iso-8859-1"?>
<!-- Generator: Adobe Illustrator 16.0.0, SVG Export Plug-In . SVG Version: 6.00 Build 0)  -->
<!DOCTYPE svg PUBLIC "-//W3C//DTD SVG 1.1//EN" "http://www.w3.org/Graphics/SVG/1.1/DTD/svg11.dtd">
<svg version="1.1" id="Capa_1" xmlns="http://www.w3.org/2000/svg" xmlns:xlink="http://www.w3.org/1999/xlink" x="0px" y="0px"
	 width="569.074px" height="569.074px" viewBox="0 0 569.074 569.074" style="enable-background:new 0 0 569.074 569.074;"
	 xml:space="preserve">
<g>
	<g>
		<path d="M510.475,332.822c-10.927-6.634-22.244-12.623-33.387-18.906c-0.796-0.449-1.579-0.914-3.146-1.815
			c5.3-0.706,9.828-1.571,14.402-1.873c11.326-0.751,22.558-2.016,33.541-4.966c4.668-1.252,8.739-3.431,11.127-7.936
			c1.325-2.505,1.362-3.745-0.123-4.247c1.408-3.578,2.718-9.547-1.514-14.219c0,0-0.995,8.454-5.516,12.351
			c-2.032-1.032-4.064-2.064-6.108-3.113c-1.321,1.759-6.801,1.729-10.195-0.33c-0.09,0.362-0.192,0.66-0.237,0.971
			c-0.036,0.261-0.008,0.534-0.008,0.665c-1.465,0-2.889,0.049-4.309-0.017c-1.293-0.057-2.587-0.236-4.149-0.388
			c-1.477,1.987-3.533,0.979-5.463,0.099c-2.261,2.117-4.937,1.999-7.589,1.607c-6.304-0.931-12.578-2.028-18.887-2.934
			c-1.216-0.176-2.517,0.229-3.777,0.363c-0.065-0.27-0.131-0.535-0.2-0.805c0.991-0.171,1.982-0.448,2.979-0.501
			c8.633-0.453,17.282-0.706,25.903-1.363c3.718-0.281,7.377-1.347,11.049-2.109c2.64-0.547,5.279-1.171,8.05-1.799
			c-0.273,2.525-1.269,5.124-1.269,5.124c4.488,0.376,6.707-3.162,7.801-6.418c0.217-0.199,0.42-0.416,0.641-0.611
			c-1.109,3.419-3.342,7.029-3.342,7.029c6.602,0,9.776-5.287,11.281-9.649c0.645-0.383,1.343-0.705,2.15-0.958
			c5.243-1.64,6.634-3.843,6.345-9.372c-0.241-4.623-3.231-8.662-7.544-9.384c-4.068-0.681-8.226-0.836-12.354-1.126
			c-2.66-0.188-5.337-0.245-8.005-0.293c-3.391-0.062-6.365-0.959-9.262-2.942c-1.819-1.245-4.479-1.836-6.732-1.767
			c-6.422,0.192-12.814,1.028-19.176-0.824c-1.399-0.408-3.219-0.196-4.606,0.343c-5.442,2.105-11.012,1.465-16.63,1.416
			c-5.287-0.041-10.791-0.028-15.83,1.33c-8.218,2.216-14.635,7.511-19.458,14.615c-0.502,0.738-1.028,1.562-1.746,2.028
			c-7.613,4.933-12.493,11.982-16.197,20.106c-3.358,7.352-1.914,14.112,2.868,19.873c5.561,6.699,11.358,13.432,18.078,18.887
			c10.478,8.503,21.673,16.152,32.836,23.77c12.538,8.561,25.537,16.455,38.03,25.076c8.249,5.695,15.638,12.505,22.387,21.18
			c-3.733,1.456-7.075,3.104-10.604,4.055c-4.785,1.29-9.697,2.146-14.59,2.987c-3.162,0.542-6.377,0.901-9.584,1.016
			c-6.81,0.245-13.651,0.693-20.433,0.285c-7.874-0.477-15.675-2.072-23.546-2.668c-13.549-1.024-25.867-6.353-38.396-10.783
			c-4.651-1.645-8.812-4.949-12.823-7.989c-1.371-1.036-1.975-3.521-2.293-5.446c-3.505-21.408-11.959-40.665-24.794-58.091
			c-5.929-8.05-13.534-14.309-21.522-20.065c-15.5-11.18-32.774-18.834-50.768-25.088c-19.963-6.94-40.453-11.44-61.261-14.917
			c-16.854-2.815-33.958-4.112-50.519-8.829c-10.441-2.97-20.666-6.344-31.012-11.122c1.771-1.159,3.219-2.224,4.777-3.101
			c9.547-5.361,19.287-10.404,28.625-16.104c6.198-3.782,11.62-8.666,15.818-14.798c5.65-8.258,5.447-16.842,1.399-25.435
			c-4.104-8.723-11.024-14.834-19.674-18.976c-15.292-7.324-31.845-9.115-48.369-9.89c-22.15-1.037-44.354-0.959-66.532-1.318
			c-15.023-0.241-28.572-4.835-40.608-13.766c-8.127-6.03-11.542-16.671-8.54-26.704c1.338-4.476,3.211-8.792,4.855-13.174
			c0.306-0.812,0.681-1.599,0.754-2.509c-8.208,9.266-15.218,19.025-13.194,32.44c1.036,6.858,4.031,12.848,8.784,17.793
			c10.114,10.522,22.248,18.107,36.447,21.302c11.444,2.574,23.219,3.933,34.917,5.096c17.23,1.713,34.48,3.203,51.331,7.352
			c6.675,1.645,13.149,4.109,19.694,6.255c1.204,0.396,2.317,1.044,4.125,1.881c-1.391,0.645-2.224,1.065-3.084,1.42
			c-10.547,4.349-21.437,8.025-31.563,13.194c-13.839,7.067-26.275,16.394-30.506,32.387c-4.921,18.601-3.223,30.739,13.084,44.484
			c14.088,11.873,30.902,18.621,48.323,24.117c17.185,5.422,34.741,9.032,52.555,11.31c16.687,2.134,32.946,6.111,48.899,11.126
			c12.154,3.818,24.117,8.421,34.965,15.467c6.667,4.333,13.395,8.527,17.234,15.798c4.186,7.928,7.34,16.264,8.82,25.162
			c1.086,6.527,1.869,13.125,3.305,19.575c3.293,14.807,12.294,25.916,23.787,35.231c13.427,10.881,28.964,17.634,45.153,23.247
			c21.281,7.381,43.288,10.841,65.61,11.27c26.014,0.502,51.657-2.57,75.773-13.501c14.468-6.557,26.961-15.545,35.435-29.249
			c2.032-3.289,3.484-7.124,4.37-10.902c3.709-15.834-1.143-29.775-9.421-43.211C546.619,356.49,529.047,344.096,510.475,332.822z"
			/>
	</g>
</g>
<g>
</g>
<g>
</g>
<g>
</g>
<g>
</g>
<g>
</g>
<g>
</g>
<g>
</g>
<g>
</g>
<g>
</g>
<g>
</g>
<g>
</g>
<g>
</g>
<g>
</g>
<g>
</g>
<g>
</g>
</svg>
