<?xml version="1.0" encoding="iso-8859-1"?>
<!-- Generator: Adobe Illustrator 16.0.0, SVG Export Plug-In . SVG Version: 6.00 Build 0)  -->
<!DOCTYPE svg PUBLIC "-//W3C//DTD SVG 1.1//EN" "http://www.w3.org/Graphics/SVG/1.1/DTD/svg11.dtd">
<svg version="1.1" id="Capa_1" xmlns="http://www.w3.org/2000/svg" xmlns:xlink="http://www.w3.org/1999/xlink" x="0px" y="0px"
	 width="565.452px" height="565.452px" viewBox="0 0 565.452 565.452" style="enable-background:new 0 0 565.452 565.452;"
	 xml:space="preserve">
<g>
	<g>
		<path d="M565.399,246.059c0.196-6.079-4.357-10.624-10.514-10.812c-2.342-0.069-4.696-0.143-7.034,0.012
			c-1.824,0.123-3.619,0.094-5.394-0.041c-0.412-0.094-0.837-0.135-1.273-0.11c-6.581-0.689-12.885-2.803-19.322-4.529
			c-5.117-1.371-10.764-0.795-16.174-1.057c-0.697-0.033-1.42,0.27-2.105,0.188c-5.177-0.608-9.559,1.163-13.284,4.582
			c-2.488,2.285-5.373,3.093-8.617,3.093c-7.221,0-14.442,0-21.562,0c-1.714-5.443-3.366-10.881-5.055-16.3
			c-2.134-9.311-5.316-18.307-9.466-26.81c-4.876-11.208-11.09-21.677-19.458-31.008c-9.249-10.311-20.416-17.887-32.203-24.823
			c-8.915-5.247-17.784-10.608-26.341-16.41c-6.675-4.528-12.889-9.747-19.208-14.786c-6.259-4.994-13.692-7.503-21.024-10.212
			c-7.393-2.729-14.88-5.214-22.326-7.813c-6.426-2.244-12.754-4.839-19.302-6.626c-4.092-1.118-8.568-1.644-12.783-1.314
			c-4.524,0.355-9.017,1.808-13.407,3.158c-12.056,3.705-24.088,7.503-36.063,11.46c-11.995,3.962-23.978,3.142-36.251,1.326
			c-11.501-1.701-23.105-2.052-34.851-0.535c-11.539,1.489-20.331,6.92-28.258,14.835c-4.243,4.235-8.743,8.111-13.472,11.673
			c-9.078,4.664-17.858,9.768-26.01,15.704c-3.46,1.616-7.062,2.95-10.588,4.435c-7.833,3.296-12.317,9.874-16.487,16.777
			c-6.414,10.612-11.346,21.938-14.872,33.75c-2.774,9.303-4.304,18.976-6.446,28.47c-1.448,6.435-2.88,12.914-9.996,15.786
			c-2.603,1.053-5.182,2.17-7.789,3.219c-0.559,0.225-1.098,0.478-1.62,0.743c-1.64,0.571-3.28,1.138-4.921,1.709
			c-0.449-0.024-0.901-0.049-1.35-0.069c-1.102-0.065-2.163,0.126-3.15,0.498c-0.212,0.041-0.424,0.094-0.637,0.151
			c-4.675,1.285-7.927,6.52-6.41,11.29c4.288,13.472,11.123,25.944,20,36.748c0.037,0.062,0.069,0.122,0.106,0.184
			c2.982,5.039,7.438,9.355,11.775,13.415c6.202,5.81,5.977,5.455,3.603,13.542c-2.138,7.274-4.941,14.431-5.177,22.239
			c-0.196,6.353,1.909,12.069,3.696,17.937c0.094,0.306,0.188,0.615,0.282,0.922c0,0.021,0.004,0.045,0.008,0.065
			c0.135,0.979,0.453,1.954,0.89,2.904c0.996,3.313,1.954,6.639,2.726,10.005c0.559,2.447,0.224,4.622-0.755,6.531
			c-0.625,0.67-1.146,1.429-1.55,2.253c-0.637,0.722-1.367,1.399-2.187,2.023c-4.549,3.468-7.654,7.503-7.405,13.668
			c0.13,3.223,1.897,5.218,3.852,7.226c2.485,2.55,5.259,4.826,7.634,7.467c3.717,4.137,8.445,5.94,13.741,5.871
			c6.711-0.086,12.448,2.248,17.516,6.263c3.733,2.958,7.401,2.949,11.102,0.571c3.798-2.444,7.417-2.469,11.62-1.004
			c3.17,1.105,6.72,1.118,10.098,1.619c2.24,0.335,3.888-0.347,4.88-1.615c0.241-0.249,0.453-0.522,0.636-0.832
			c0.661-1.126,0.767-2.444,0.412-3.627c-0.082-0.751-0.257-1.526-0.547-2.313c-0.6-1.633-1.424-3.19-2.044-4.807
			c-0.122-0.914-0.383-1.804-0.771-2.647c-0.478-2.375-0.375-4.655,0.143-6.843c2.261-3.35,4.08-6.984,5.443-10.783
			c3.905-7.507,3.644-15.562,2.733-23.811c-0.098-0.873-0.204-1.742-0.297-2.469c2.533,0.453,5.067,0.901,7.601,1.354
			c5.529,1.771,11.126,3.558,16.781,5.137c3.464,0.967,6.969,1.787,10.498,2.514c6.324,1.66,12.791,2.7,19.323,3.007
			c1.84,0.208,3.68,0.412,5.516,0.628c6.916,0.816,13.823,1.812,20.767,2.289c7.605,0.526,15.243,0.624,22.869,0.775
			c5.74,0.114,5.577,0.098,7.993,5.169c0.494,1.032,1.048,2.04,1.624,3.031c1.188,2.514,2.33,5.047,3.436,7.602
			c1.081,2.664,2.122,5.341,3.113,8.037c0.29,3.717-0.596,7.394-3.239,10.927c-2.848,3.807-5.692,7.621-8.47,11.477
			c-4.806,6.659-6.124,14.027-4.072,21.935c0.334,1.297,1.293,2.55,2.256,3.541c5.304,5.455,10.677,10.845,16.083,16.202
			c0.767,0.763,1.758,1.42,2.766,1.791c4.594,1.693,9.38,2.876,12.403,7.393c0.64,0.959,2.697,1.249,4.129,1.339
			c0.171,0.012,0.338,0.028,0.506,0.04c1.313,0.779,2.909,0.983,4.402,0.661c1.995,0.449,3.954,1.081,5.981,1.897
			c3.015,1.216,7.609,2.203,11.077-1.021c1.146-1.064,2.811-1.546,4.096-2.492c1.22-0.897,2.448-1.384,3.725-1.302
			c0.853,0.396,1.738,0.706,2.636,0.935c7.947,4.084,16.111-1.347,20.396-5.811c1.865-1.941,2.077-5.765,0.429-8.486
			c-1.322-2.183-2.737-4.309-4.166-6.43c-1.391-2.497-2.782-4.994-4.174-7.487c-0.611-2.713,0.307-5.169,2.819-7.923
			c7.189-7.858,13.501-16.304,18.548-25.741c2.469-4.614,2.99-9.563,3.529-14.479c0.146-1.334,0.265-2.673,0.375-4.011
			c0.307-1.538,0.408-3.084,0.327-4.606c0.257-4.309,0.411-8.625,0.628-12.934c0.081-1.656,0.682-2.199,2.374-2.366
			c9.038-0.901,18.111-1.632,27.071-3.064c10.608-1.697,21.139-3.921,31.648-6.181c3.599-0.775,7.07-2.224,10.515-3.582
			c2.611-1.032,4.528-0.845,5.63,0.596c0.188,1.465,0.56,2.88,1.094,4.255c0.44,6.969,0.562,13.97,1.281,20.906
			c0.616,5.978,1.86,11.897,3.007,17.805c0.253,1.306,1.008,2.746,1.971,3.647c1.652,1.551,3.011,3.256,4.17,5.067
			c0.432,0.768,0.877,1.53,1.334,2.285c1.636,3.056,2.855,6.332,4.051,9.633c0.359,1.889,0.976,3.68,1.918,5.279
			c0.151,0.392,0.302,0.783,0.465,1.171c2.317,5.614,7.34,6.178,13.917,5.753c2.669-0.171,5.41-0.143,8.042,0.273
			c3.06,0.481,5.998,1.718,9.054,2.216c3.986,0.652,7.731-0.44,11.42-2.073c0.583-0.257,1.228-0.469,1.897-0.62
			c0.534,0.168,1.093,0.282,1.668,0.331c1.562,0.139,3.113,0.114,4.644-0.041c2.28,0.098,4.394-0.425,6.373-1.502
			c2.031-0.767,3.97-1.786,5.772-3.027c1.339-0.367,2.746-0.506,4.276-0.403c3.554,0.236,7.132,0.057,10.702,0.053
			c0.566,0,1.109-0.065,1.636-0.18c0.975-0.102,1.877-0.514,2.647-1.13c2.893-1.95,4.293-5.757,2.521-9.221
			c-0.27-0.53-0.571-1.057-0.885-1.579c-0.421-1.354-1.253-2.591-2.407-3.342c-0.882-1.02-1.845-1.95-2.877-2.717
			c-6.642-4.929-11.722-10.775-13.496-19.009c-0.657-3.048-1.081-6.186-1.24-9.299c-0.314-6.083-0.649-12.187-0.478-18.266
			c0.326-11.542-2.313-21.999-8.642-31.375c-2.023-3.84-4.524-7.405-7.471-10.588c-0.979-1.546-1.934-3.093-2.921-4.586
			c0.832-0.905,1.66-1.815,2.488-2.722c3.668-2.79,8.124-3.378,12.461-3.855c5.618-0.62,10-3.431,14.3-6.564
			c2.697-1.963,4.97-4.549,7.781-6.291c5.218-3.235,11.236-4.166,17.209-5.092c10.755-1.673,21.375-3.688,30.556-10.185
			c5.01-3.541,7.58-8.747,9.225-14.198c2.023-6.69,3.149-13.668,4.438-20.567c0.033-0.179,0.062-0.362,0.09-0.546
			c0.245-0.584,0.453-1.188,0.629-1.812l0.546-4.068c0-0.763-0.057-1.521-0.171-2.268
			C565.33,247.536,565.375,246.798,565.399,246.059z"/>
	</g>
</g>
<g>
</g>
<g>
</g>
<g>
</g>
<g>
</g>
<g>
</g>
<g>
</g>
<g>
</g>
<g>
</g>
<g>
</g>
<g>
</g>
<g>
</g>
<g>
</g>
<g>
</g>
<g>
</g>
<g>
</g>
</svg>
