<svg height="512pt" viewBox="0 -27 512 512" width="512pt" xmlns="http://www.w3.org/2000/svg"><path d="m237.265625 389.164062 18.734375 17.894532 18.734375-17.894532-18.734375-10.355468zm0 0"/><path d="m0 214.527344v41.472656c.363281 19.414062 6.753906 38.230469 18.285156 53.851562v-60.542968c.015625-3.277344.613282-6.523438 1.765625-9.59375-1.933593-1.9375-3.878906-3.988282-5.832031-6.152344-5.25-5.945312-10.007812-12.3125-14.21875-19.035156zm0 0"/><path d="m201.617188 324.570312c1.09375-3.253906 3.917968-5.625 7.316406-6.132812l26.769531-4.097656 5.90625-12.625h-50.890625l-11.519531 32 41.078125 39.242187 3.09375-18.964843-19.632813-20.113282c-2.398437-2.457031-3.21875-6.054687-2.121093-9.308594zm0 0"/><path d="m51.566406 242.285156c-1.589844-1.378906-3.621094-2.136718-5.722656-2.140625-1.382812.015625-2.746094.328125-3.996094.917969-3.230468 1.46875-5.292968 4.699219-5.277344 8.246094v107.820312c0 2.710938 1.203126 5.285156 3.285157 7.023438l18.285156 15.238281c2.664063 2.234375 6.367187 2.753906 9.539063 1.335937 3.175781-1.414062 5.261718-4.515624 5.382812-7.992187v-.0625c0-.117187.054688-.191406.054688-.3125v-107.820313c0-2.710937-1.203126-5.285156-3.285157-7.019531zm0 0"/><path d="m173.714844 98.980469v-81.929688c-102.785156 20.132813-173.714844 76.03125-173.714844 138.378907.0703125 10.976562 2.242188 21.839843 6.398438 32 32-42.277344 92.753906-74.5625 167.316406-88.449219zm0 0"/><path d="m505.601562 187.429688c4.15625-10.160157 6.332032-21.023438 6.398438-32 0-62.320313-70.929688-118.226563-173.714844-138.359376v81.929688c74.5625 13.867188 135.316406 46.152344 167.316406 88.429688zm0 0"/><path d="m228.570312 36.554688h54.859376v36.578124h-54.859376zm0 0"/><path d="m201.144531 109.714844h109.710938c5.050781 0 9.144531-4.09375 9.144531-9.144532v-91.425781c0-5.050781-4.09375-9.144531-9.144531-9.144531h-109.710938c-5.050781 0-9.144531 4.09375-9.144531 9.144531v91.425781c0 5.050782 4.09375 9.144532 9.144531 9.144532zm9.140625-73.144532c0-10.097656 8.1875-18.285156 18.285156-18.285156h54.859376c10.097656 0 18.285156 8.1875 18.285156 18.285156v36.574219c0 10.097657-8.1875 18.285157-18.285156 18.285157h-54.859376c-10.097656 0-18.285156-8.1875-18.285156-18.285157zm0 0"/><path d="m120.136719 335.980469 12.105469-33.671875c-13.914063-4.148438-27.542969-9.183594-40.8125-15.078125v80.359375c22.042968 10.515625 45.175781 18.574218 68.980468 24.035156l-35.246094-33.683594c-5.839843-5.695312-7.808593-14.285156-5.027343-21.960937zm0 0"/><path d="m470.164062 241.023438c-1.253906-.585938-2.617187-.898438-3.996093-.914063-2.105469.003906-4.140625.765625-5.734375 2.140625l-18.285156 15.242188c-2.085938 1.734374-3.289063 4.308593-3.292969 7.019531v107.859375c0 .117187.054687.191406.054687.308594v.066406c.121094 3.472656 2.207032 6.574218 5.382813 7.988281 3.171875 1.417969 6.875.898437 9.539062-1.332031l18.285157-15.242188c2.089843-1.738281 3.292968-4.316406 3.292968-7.03125v-107.820312c.035156-3.554688-2.019531-6.800782-5.246094-8.285156zm0 0"/><path d="m391.871094 336c2.777344 7.644531.832031 16.203125-4.972656 21.898438l-35.308594 33.746093c23.804687-5.464843 46.9375-13.527343 68.980468-24.046875v-80.375c-13.257812 5.910156-26.886718 10.945313-40.804687 15.078125zm0 0"/><path d="m261.851562 326.527344-5.851562-12.460938-5.851562 12.460938c-1.296876 2.757812-3.882813 4.6875-6.894532 5.148437l-13.996094 2.140625 10.429688 10.6875c2.027344 2.074219 2.945312 4.988282 2.480469 7.851563l-2.367188 14.492187 11.765625-6.507812c2.753906-1.527344 6.101563-1.527344 8.859375 0l11.765625 6.507812-2.367187-14.492187c-.46875-2.863281.453125-5.777344 2.476562-7.851563l10.433594-10.6875-14-2.140625c-3.007813-.464843-5.589844-2.394531-6.882813-5.148437zm0 0"/><path d="m270.390625 301.714844 5.941406 12.652344 26.773438 4.097656c3.386719.519531 6.199219 2.886718 7.285156 6.136718s.261719 6.835938-2.128906 9.285157l-19.632813 20.117187 3.09375 18.960938 41.078125-39.25-11.519531-32zm0 0"/><path d="m374.664062 342.191406-27.234374-75.804687c-.199219-.703125-.824219-1.203125-1.554688-1.242188h-179.75c-.726562.03125-1.34375.53125-1.535156 1.234375l-27.246094 75.8125c-.34375.894532-.144531 1.910156.511719 2.613282l57.601562 55.066406 59.519531 56.871094c.265626.265624.625.417968 1 .417968s.738282-.152344 1-.417968l59.523438-56.871094 57.71875-55.183594c.589844-.691406.761719-1.644531.445312-2.496094zm-24.949218.621094-87.40625 83.5c-3.53125 3.375-9.09375 3.375-12.625 0l-87.40625-83.457031c-2.621094-2.496094-3.519532-6.300781-2.296875-9.707031l15.707031-43.65625c1.300781-3.636719 4.746094-6.0625 8.605469-6.0625h143.414062c3.859375 0 7.300781 2.421874 8.605469 6.050781l15.6875 43.628906c1.246094 3.414063.351562 7.238281-2.277344 9.746094zm0 0"/><path d="m493.714844 249.308594v60.542968c11.53125-15.621093 17.921875-34.4375 18.285156-53.851562v-41.324219c-5.789062 9.011719-12.53125 17.375-20.113281 24.941407 1.1875 3.09375 1.804687 6.375 1.828125 9.691406zm0 0"/></svg>