<?xml version="1.0" encoding="iso-8859-1"?>
<!-- Generator: Adobe Illustrator 19.0.0, SVG Export Plug-In . SVG Version: 6.00 Build 0)  -->
<svg version="1.1" id="Capa_1" xmlns="http://www.w3.org/2000/svg" xmlns:xlink="http://www.w3.org/1999/xlink" x="0px" y="0px"
	 viewBox="0 0 511.998 511.998" style="enable-background:new 0 0 511.998 511.998;" xml:space="preserve">
<g>
	<g>
		<g>
			<path d="M219.703,389.989l-38.473,24.692c-6.012,3.902-13.771,3.847-19.726-0.142l-22.221,14.727
				c2.099,0.132,4.169,0.446,6.286,0.446h47.357c24.507,0.005,48.173-8.937,66.554-25.147l83.964-74.088
				c-12.866-1.007-25.197-5.581-35.609-13.206l-80.239,53.31C229.304,378.066,226.151,385.821,219.703,389.989z"/>
			<polygon points="296.982,475.427 314.993,475.427 300.62,392.657 284.995,406.435 			"/>
			<path d="M500.99,475.427l-21.038-126.411c-2.651-15.722-13.312-28.922-28.125-34.823l28.014,161.233H500.99z"/>
			<path d="M29.953,388.048c-1.729-1.467-3.961-2.204-6.223-2.054c-4.895,0.217-8.746,4.261-8.723,9.161v80.272h263.416
				l-9.551-54.974c-21.319,17.772-48.189,27.518-75.944,27.546h-47.358c-2.808,0-5.604-0.099-8.388-0.296
				c-6.951-0.513-13.841-1.65-20.588-3.398l-18.461,12.234c-4.143,2.779-9.02,4.26-14.009,4.254
				c-8.55,0.004-16.539-4.254-21.304-11.353l-12.268-18.406c-2.762-4.194-4.248-9.099-4.277-14.12
				c0.025-4.441,1.217-8.798,3.457-12.633L29.953,388.048z"/>
			<path d="M67.882,410.815c-1.647,1.059-2.795,2.741-3.18,4.661c-0.385,1.92,0.024,3.914,1.135,5.527l12.178,18.267
				c2.2,3.309,6.657,4.224,9.982,2.049l62.164-41.202l-19.773-30.808L67.882,410.815z"/>
			<polygon points="461.279,475.427 432.689,310.856 414.65,310.856 443.267,475.427 			"/>
			<path d="M424.706,475.427l-28.208-162.191c-5.94,1.882-11.431,4.962-16.134,9.049l-0.279,0.248l26.612,152.895H424.706z"/>
			<polygon points="388.136,475.427 363.999,336.748 348.364,350.536 370.124,475.427 			"/>
			<polygon points="316.721,378.458 333.553,475.427 351.564,475.427 332.273,364.734 			"/>
			<path d="M12.557,90.981c3.061-1.345,6.296-2.251,9.61-2.692l239.696-29.061V19.235c0.039-5.663-2.378-11.066-6.625-14.812
				c-3.828-3.408-8.96-4.963-14.036-4.255L24.373,30.074C14.343,31.787,7.403,41.043,8.569,51.15L12.557,90.981z"/>
			<path d="M143.007,173.713c0.012,10.094,8.192,18.274,18.286,18.286h41.509c8.703-0.021,16.191-6.158,17.92-14.688l0.991-5.08
				c3.038-14.897,14.921-26.394,29.911-28.937l30.444-5.073l3.976-41.088c0.535-5.525-1.465-10.994-5.438-14.871
				c-3.973-3.877-9.49-5.742-15-5.071L143.007,92.056V173.713z M193.292,100.57c17.673,0,32,14.327,32,32c0,17.673-14.327,32-32,32
				s-32-14.327-32-32C161.314,114.906,175.628,100.591,193.292,100.57z"/>
			<path d="M32.046,368.894c1.067,0.348,2.111,0.761,3.127,1.237c0.598,0.265,1.216,0.461,1.797,0.769
				c1.605,0.842,3.125,1.838,4.537,2.973l21.896,17.968l57.213-37.992c-4.669-8.389-1.993-18.963,6.106-24.119l38.473-24.692
				c7.625-4.931,17.723-3.459,23.623,3.445l83.308-55.274c-0.314-4.132-0.309-8.281,0.016-12.412l8.103-83.737l-25.656,4.277
				c-7.496,1.276-13.435,7.031-14.946,14.482l-0.982,5.04c-3.444,17.082-18.432,29.381-35.857,29.424h-41.509
				c-20.189-0.021-36.55-16.383-36.571-36.571v-79.44L24.337,106.445c-4.781,0.576-9.136,3.033-12.102,6.828
				c-0.065,0.084-0.105,0.181-0.174,0.263c-2.797,3.628-4.112,8.183-3.68,12.744l23.161,242.415
				C31.715,368.743,31.873,368.842,32.046,368.894z"/>
			<path d="M170.373,397.686c0.041,0.062,0.041,0.136,0.08,0.198l0.902,1.404l38.473-24.692l0.009-0.004l-31.098-48.431
				l-0.009-0.011l-0.002-0.007l-3.668-5.712l-38.464,24.692l33.647,52.433C170.28,397.608,170.338,397.633,170.373,397.686z"/>
			<path d="M15.007,493.713v9.143c0.005,5.047,4.095,9.138,9.143,9.143h461.349c4.845,0.012,9.495-1.914,12.913-5.348
				c3.418-3.434,5.322-8.093,5.287-12.938H15.007z"/>
			<path d="M275.873,272.671l-76.963,51.064l19.777,30.807l75.239-49.988c-6.308-7.452-11.509-15.773-15.445-24.708
				C277.481,277.504,276.611,275.108,275.873,272.671z"/>
			<circle cx="193.292" cy="132.57" r="13.714"/>
		</g>
	</g>
</g>
<g>
</g>
<g>
</g>
<g>
</g>
<g>
</g>
<g>
</g>
<g>
</g>
<g>
</g>
<g>
</g>
<g>
</g>
<g>
</g>
<g>
</g>
<g>
</g>
<g>
</g>
<g>
</g>
<g>
</g>
</svg>
