<?xml version="1.0" encoding="iso-8859-1"?>
<!-- Generator: Adobe Illustrator 19.0.0, SVG Export Plug-In . SVG Version: 6.00 Build 0)  -->
<svg version="1.1" id="Capa_1" xmlns="http://www.w3.org/2000/svg" xmlns:xlink="http://www.w3.org/1999/xlink" x="0px" y="0px"
	 viewBox="0 0 512 512" style="enable-background:new 0 0 512 512;" xml:space="preserve">
<g>
	<g>
		<path d="M508.875,493.792c-23.583-23.583-29.917-69.644-37.25-122.987c-9.845-71.755-22.178-160.343-83.729-231.61l32.521-32.52
			h48.917c4.438,0,8.417-2.76,9.979-6.917l32-85.331c1.479-3.917,0.521-8.333-2.438-11.291c-2.958-2.958-7.333-3.937-11.292-2.448
			L412.25,32.687c-4.167,1.563-6.917,5.542-6.917,9.989v48.916l-32.492,32.491c-70.917-61.465-159.729-73.832-231.654-83.709
			C87.854,33.042,41.792,26.708,18.208,3.136c-4.167-4.167-10.917-4.167-15.083,0C1.042,5.219,0,7.948,0,10.678
			c0,1.457,0.346,2.893,0.94,4.251l146.374,334.678L134.25,362.67H74.667c-2.833,0-5.542,1.125-7.542,3.125l-64,63.999
			c-3.042,3.052-3.958,7.635-2.313,11.625s5.542,6.583,9.854,6.583H64v53.332c0,4.312,2.604,8.208,6.583,9.854
			c1.313,0.552,2.708,0.813,4.083,0.813c2.771,0,5.5-1.083,7.542-3.125l64-63.999c2-2,3.125-4.708,3.125-7.542v-59.582
			l13.063-13.062c47.052,20.578,334.688,146.373,334.688,146.373c1.365,0.594,2.797,0.936,4.25,0.936
			c2.729,0,5.458-1.042,7.542-3.125c2.083-2.083,3.125-4.812,3.125-7.542C512,498.604,510.958,495.875,508.875,493.792z
			 M117.333,443.583L96,464.917V416H47.083l21.333-21.333h38.25c5.896,0,10.667,4.771,10.667,10.667V443.583z M37.474,45.336
			c32.203,20.561,70.09,34.087,109.651,48.07c58.176,20.557,118.109,42.089,168.092,88.293L163.505,333.411L37.474,45.336z
			 M178.589,348.495l151.712-151.712c46.204,49.983,67.736,109.905,88.283,168.072c13.991,39.57,27.521,77.465,48.083,109.673
			L178.589,348.495z"/>
	</g>
</g>
<g>
</g>
<g>
</g>
<g>
</g>
<g>
</g>
<g>
</g>
<g>
</g>
<g>
</g>
<g>
</g>
<g>
</g>
<g>
</g>
<g>
</g>
<g>
</g>
<g>
</g>
<g>
</g>
<g>
</g>
</svg>
