<svg id="Layer_1_1_" enable-background="new 0 0 64 64" height="512" viewBox="0 0 64 64" width="512" xmlns="http://www.w3.org/2000/svg"><path d="m50.953 19.461c-.223 1.434-1.456 2.539-2.953 2.539-.352 0-.686-.072-1-.184v1.883l12.983-3.462c-.119-2.684-.863-5.287-2.174-7.631z"/><path d="m25.586 56-2-2h-5.586v6h5.586l2-2h-2.586v-2z"/><path d="m46.258 25.966c-.085.023-.172.034-.258.034-.218 0-.433-.071-.609-.207-.246-.189-.391-.482-.391-.793v-10.523l-8 3.2v9.646l9.372 3.748-.743 1.857-10-4c-.38-.152-.629-.519-.629-.928v-11c0-.409.249-.776.628-.929l9.372-3.748v-2.705l-.875-.437-4.501 3.601c-.177.141-.397.218-.624.218h-6v17.28l14.228 4.743c.416.139.858.071 1.213-.186s.559-.654.559-1.093l-.075-8.49z"/><path d="m38.414 56h2.586v2h-2.586l2 2h5.586v-6h-5.586z"/><path d="m31 13h-6c-.227 0-.447-.077-.625-.219l-4.501-3.601-.874.438v2.704l9.372 3.749c.379.153.628.52.628.929v11c0 .409-.249.776-.628.929l-10 4-.743-1.857 9.371-3.749v-9.646l-8-3.2v10.523c0 .311-.145.604-.391.793-.176.136-.391.207-.609.207-.086 0-.173-.011-.258-.034l-2.761-.736.019 8.512c0 .44.204.838.559 1.095.355.255.798.326 1.213.185l14.228-4.742z"/><path d="m36.586 55h-9.172l1.293 1.293c.391.391.391 1.023 0 1.414l-1.293 1.293h9.172l-1.293-1.293c-.391-.391-.391-1.023 0-1.414z"/><path d="m17 21.816c-.314.112-.648.184-1 .184-1.497 0-2.73-1.105-2.953-2.539l-6.856-6.856c-1.311 2.344-2.056 4.947-2.174 7.631l12.983 3.462z"/><path d="m17 4.302-.215.057c-1.944.519-3.752 1.385-5.404 2.542l5.237 9.165c.132.028.257.074.382.119z"/><path d="m45.638 36.601-13.638-4.547-13.691 4.564c.166 2.149.662 4.721 1.108 7.023.417 2.149.776 4.007.841 5.308.057 1.149-.253 2.223-.599 3.052h4.341c.265 0 .52.105.707.293l.707.706h13.172l.707-.707c.187-.188.442-.293.707-.293h4.357c-.362-.855-.698-1.958-.647-3.048.06-1.307.417-3.134.829-5.251.449-2.306.934-4.87 1.099-7.1zm-2.881 9.119-5.143-1.286c-3.672-.917-7.556-.917-11.229 0l-5.143 1.286-.485-1.939 5.143-1.286c3.99-.998 8.209-.998 12.199 0l5.143 1.286zm1-4.75-6.143-1.536c-3.672-.916-7.556-.918-11.229 0l-6.143 1.536-.485-1.939 6.143-1.536c3.99-.998 8.209-.998 12.199 0l6.143 1.536z"/><circle cx="16" cy="19" r="1"/><path d="m7.695 5.274c-.316-.041-.618.063-.84.284l-1.734 1.735c-.389.39-.389 1.024 0 1.414l8.493 8.494c.243-.321.547-.588.897-.79l-6.08-10.641c-.156-.273-.424-.454-.736-.496z"/><circle cx="48" cy="19" r="1"/><path d="m47 4.302v11.883c.125-.045.25-.091.382-.119l5.237-9.165c-1.653-1.157-3.46-2.023-5.404-2.542z"/><path d="m36.832 6.555c-.186.278-.498.445-.832.445h-8c-.334 0-.646-.167-.832-.445l-1.323-1.985-2.138 2.138c-.046.047-.098.089-.152.125l-1.862 1.241 3.658 2.926h13.299l3.658-2.927-1.862-1.241c-.055-.036-.106-.078-.152-.125l-2.138-2.138z"/><path d="m50.385 17.201 8.494-8.494c.389-.39.389-1.024 0-1.414l-1.734-1.734c-.223-.222-.529-.326-.84-.284-.312.042-.58.223-.736.495l-6.081 10.641c.35.202.655.469.897.79z"/></svg>