<svg height="512pt" viewBox="-32 0 512 512.06725" width="512pt" xmlns="http://www.w3.org/2000/svg"><path d="m199.628906 362.683594c-13.691406-46.839844-65.785156-124.1875-93.9375-162.535156-28.160156 38.355468-80.277344 115.746093-93.949218 162.578124 6.117187 22.089844 20.105468 41.175782 39.324218 53.664063-4.90625-9.484375-7.460937-20.007813-7.441406-30.6875 0-28.363281 45.242188-102.203125 54.308594-116.726563 1.714844-2.445312 4.515625-3.902343 7.503906-3.902343s5.789062 1.457031 7.503906 3.902343c9.074219 14.523438 54.316406 88.363282 54.316406 116.726563.011719 10.914063-2.667968 21.664063-7.804687 31.296875 19.664063-12.5 33.980469-31.859375 40.175781-54.316406zm0 0"/><path d="m61.28125 385.703125c-.695312 25.042969 18.9375 45.957031 43.96875 46.847656h.238281c25.070313-.839843 44.757813-21.761719 44.070313-46.835937 0-13.332032-17.804688-51.484375-44.140625-95.171875-26.339844 43.679687-44.136719 81.832031-44.136719 95.160156zm0 0"/><path d="m105.683594 450.207031h-.265625c-.316407 0-.617188-.042969-.933594-.050781-37.605469-.132812-72.789063-18.582031-94.289063-49.4375 9.84375 44.730469 49.699219 76.4375 95.496094 75.972656 45.820313.457032 85.683594-31.277344 95.507813-76.03125-21.730469 31.242188-57.457031 49.773438-95.515625 49.546875zm0 0"/><path d="m308.453125 421.015625c-.695313 25.039063 18.9375 45.953125 43.972656 46.847656h.238281c25.066407-.839843 44.753907-21.765625 44.066407-46.839843 0-13.328126-17.804688-51.480469-44.136719-95.171876-26.34375 43.679688-44.140625 81.832032-44.140625 95.164063zm0 0"/><path d="m446.800781 397.992188c-13.691406-46.839844-65.785156-124.1875-93.933593-162.535157-28.160157 38.359375-80.28125 115.75-93.953126 162.578125 6.117188 22.089844 20.105469 41.179688 39.328126 53.664063-4.910157-9.480469-7.460938-20.007813-7.445313-30.683594 0-28.363281 45.242187-102.207031 54.308594-116.726563 1.71875-2.429687 4.507812-3.875 7.480469-3.875 2.976562 0 5.765624 1.445313 7.484374 3.875 9.074219 14.519532 54.316407 88.363282 54.316407 116.726563.011719 10.914063-2.667969 21.664063-7.804688 31.292969 19.679688-12.488282 34.011719-31.847656 40.21875-54.316406zm0 0"/><path d="m352.855469 485.519531h-.261719c-.320312 0-.621094-.046875-.9375-.054687-37.605469-.132813-72.789062-18.578125-94.289062-49.433594 10.230468 44.507812 49.851562 76.046875 95.519531 76.035156 45.667969-.007812 85.273437-31.566406 95.484375-76.078125-21.734375 31.234375-57.460938 49.761719-95.515625 49.53125zm0 0"/><path d="m16.207031 154.96875 22.671875-33.96875c9.070313-13.5625 15.121094-28.914062 17.742188-45.019531l6.972656-42.160157c3.160156-9.59375 12.09375-16.097656 22.191406-16.164062 8.332032 0 16.035156 4.433594 20.21875 11.636719 4.183594 7.207031 4.21875 16.09375.085938 23.328125l-7.785156 13.585937c-.773438 1.34375-1.171876 2.867188-1.164063 4.414063v54.589844c-12.160156 4.300781-19.457031 16.734374-17.273437 29.445312 2.179687 12.714844 13.203124 22.003906 26.097656 22.003906 12.898437 0 23.921875-9.289062 26.101562-22.003906 2.183594-12.710938-5.113281-25.144531-17.273437-29.445312v-52.242188l6.613281-11.582031c7.34375-12.675781 7.289062-28.324219-.140625-40.949219-7.277344-12.710938-20.832031-20.5234375-35.480469-20.4375-18.089844.0859375-34.019531 11.941406-39.296875 29.246094-.109375.359375-.195312.726562-.257812 1.09375l-7.0625 42.796875c-2.222657 13.617187-7.339844 26.601562-15.007813 38.074219l-22.640625 33.960937c-2.707031 4.054687-1.613281 9.535156 2.445313 12.242187 4.054687 2.707032 9.539062 1.609376 12.242187-2.445312zm0 0"/><path d="m263.378906 190.28125 22.671875-33.96875c9.070313-13.5625 15.121094-28.917969 17.742188-45.023438l6.972656-42.160156c3.160156-9.59375 12.09375-16.097656 22.195313-16.164062 8.332031 0 16.03125 4.433594 20.21875 11.640625 4.183593 7.203125 4.214843 16.089843.082031 23.328125l-7.785157 13.585937c-.769531 1.339844-1.171874 2.863281-1.164062 4.414063v54.589844c-12.160156 4.296874-19.457031 16.730468-17.273438 29.445312 2.179688 12.710938 13.203126 22.003906 26.101563 22.003906s23.917969-9.292968 26.101563-22.003906c2.179687-12.714844-5.113282-25.148438-17.277344-29.445312v-52.242188l6.613281-11.582031c7.257813-12.699219 7.203125-28.300781-.136719-40.949219-7.339844-12.652344-20.855468-20.4375-35.480468-20.4375-18.09375.085938-34.023438 11.9375-39.300782 29.246094-.109375.355468-.195312.722656-.257812 1.09375l-7.0625 42.796875c-2.222656 13.617187-7.339844 26.597656-15.007813 38.070312l-22.640625 33.960938c-2.707031 4.054687-1.613281 9.539062 2.445313 12.242187 4.054687 2.707032 9.539062 1.613282 12.242187-2.441406zm0 0"/></svg>