<svg height="512" viewBox="0 0 512 512" width="512" xmlns="http://www.w3.org/2000/svg"><g id="Gloves"><g id="Glyph"><path d="m272 420.564-134.604 43.932 16.238 47.504 118.366-38.632z"/><path d="m288 464h192v48h-192z"/><path d="m480 88.046v119.954a8 8 0 0 1 -16 0v-144c.179-18.8-15.582-31.747-32-31.954v175.954a8 8 0 0 1 -16 0v-176c-.221-41.634-63.618-42.8-64 0v176a8 8 0 0 1 -16 0v-175.995c-16.587.082-32.018 13.25-32 31.995v144a8 8 0 0 1 -16 0v-87.986c-16.583.117-32.089 13.318-32 31.986v120c0 34.408 31.039 95.975 32 97.892v78.108h192v-78.108c.961-1.917 32-63.484 32-97.892v-152c.179-18.808-15.583-31.747-32-31.954zm-128 327.954a8 8 0 1 1 8-8 8 8 0 0 1 -8 8zm0-32a8 8 0 1 1 8-8 8 8 0 0 1 -8 8zm32 32a8 8 0 1 1 8-8 8 8 0 0 1 -8 8zm0-32a8 8 0 1 1 8-8 8 8 0 0 1 -8 8zm32 32a8 8 0 1 1 8-8 8 8 0 0 1 -8 8zm0-32a8 8 0 1 1 8-8 8 8 0 0 1 -8 8z"/><path d="m257.661 114.888-2.781-8.519a32.035 32.035 0 0 0 -40.349-20.492c-.1.033-.2.074-.3.108l25.769 78.956c-1.35-19.265 2.063-37.541 17.661-50.053z"/><path d="m272 373.688-1.168-2.318c-15.159-30.07-30.832-61.157-30.832-99.37v-79.693a7.865 7.865 0 0 1 -9.6-5.237l-48.455-149.47c-5.839-17.916-25.076-25.7-40.99-20.279l58.645 179.679a8 8 0 1 1 -15.21 4.96l-58-179.883c-12.037-36.763-67.707-22.983-62.323 13.543l57.533 176.27a8 8 0 1 1 -15.21 4.96l-55.524-170.132c-14.881 4.73-25.443 20.41-22 36.886l46.734 143.176a8 8 0 1 1 -15.2 4.97l-38.1-116.727c-15.818 5.286-26.4 22.936-20.714 40.356l47.162 144.5c11.33 34.723 36.017 58.106 60.793 83.132l22.679 66.345 139.78-45.623zm-107.327-2.248a8 8 0 1 1 10.087 5.123 8 8 0 0 1 -10.087-5.123zm20.016 35.544a8 8 0 1 1 5.123-10.088 8 8 0 0 1 -5.123 10.088zm10.405-45.473a8 8 0 1 1 10.087 5.123 8 8 0 0 1 -10.087-5.123zm20.016 35.544a8 8 0 1 1 5.123-10.087 8 8 0 0 1 -5.123 10.087zm10.4-45.472a8 8 0 1 1 10.088 5.123 8 8 0 0 1 -10.084-5.123zm20.016 35.543a8 8 0 1 1 5.123-10.087 8 8 0 0 1 -5.119 10.087z"/></g></g></svg>