<svg height="511pt" viewBox="-7 0 511 511.97339" width="511pt" xmlns="http://www.w3.org/2000/svg"><path d="m156.722656 126.984375c-43.046875 29.941406-70.117187 77.859375-73.539062 130.1875-1.691406 32.210937 1.171875 64.496094 8.5 95.90625 3.496094 18.335937 9.519531 36.09375 17.898437 52.769531l34.972657-25.011718c-5.089844-14.515626-14.214844-50.375-7.0625-107.578126 8.410156-67.238281 73.8125-110.742187 132.175781-113.960937 31.546875-1.710937 61.824219 12.621094 80.5 38.097656l47.382812-33.84375c-30.445312-29.847656-68.652343-50.554687-110.277343-59.765625-44.871094-9.960937-91.859376-1.609375-130.550782 23.199219zm0 0"/><path d="m414.691406 421.863281c-60.160156 9.714844-93.265625-11.875-107.867187-26.101562-1.800781-1.761719-4.285157-2.648438-6.792969-2.417969-2.730469.222656-5.230469 1.613281-6.863281 3.8125-14.84375 22.320312-21.5 49.097656-18.832031 75.773438 28.617187 16.230468 82.285156 37.214843 170.441406 39.042968zm0 0"/><path d="m210.917969 308.449219c17.585937-61.546875 44.378906-101.28125 119.121093-106.554688-15.128906-16.589843-36.902343-25.523437-59.328124-24.339843-50.90625 2.804687-107.847657 40.21875-115.074219 97.96875-5.164063 32.398437-3.285157 65.527343 5.503906 97.136718 12.394531-5.34375 37.46875-21.132812 49.777344-64.210937zm0 0"/><path d="m430.832031 253.824219c-18.921875-22.757813-46.890625-34.292969-83.125-34.292969-77.644531 0-101.800781 33.015625-119.207031 93.945312-14.722656 51.511719-46.214844 70.316407-61.859375 76.65625l7.082031 28.324219c.425782 1.707031.351563 3.5-.214844 5.164063-.703124 2.058594-17.429687 50.765625-40.628906 79.523437 24.996094-1.550781 59.917969-8.457031 83.921875-32.902343 10.0625-10.316407 25.355469-13.535157 38.722657-8.148438-.550782-27.078125 7.492187-53.632812 22.972656-75.855469 4.777344-6.429687 12.097656-10.488281 20.082031-11.128906 7.757813-.585937 15.398437 2.164063 21.007813 7.554687 11.878906 11.574219 38.820312 29 89.253906 21.667969l-19.25-57.660156c-9.554688 6.765625-21.035156 10.273437-32.738282 10.003906-31.957031 0-52.464843-30.214843-53.320312-31.5-1.289062-2.164062-1.78125-4.710937-1.394531-7.199219 1.996093-25.371093 30.226562-40.988281 38.832031-45.160156 10.4375-5.203125 21.890625-8.054687 33.554688-8.359375 53.890624-.371093 74.59375 55.996094 86.757812 92.613281-.515625-33.074218-6.691406-74.683593-30.449219-103.246093zm0 0"/><path d="m260.578125.0195312c-51.292969-.6250002-101.597656 14.1054688-144.445313 42.3046878-67.269531 46.671875-109.589843 121.464843-114.960937 203.164062-2.519531 49.832031 1.910156 99.773438 13.167969 148.382813 6.683594 30.566406 17.25 69.796875 39.792968 101.894531l44.078126-73.242187c-11.902344-20.25-20.15625-42.433594-24.390626-65.535157-7.699218-33.101562-10.691406-67.128906-8.878906-101.066406 3.824219-57.921875 33.824219-110.945313 81.5-144.058594 42.765625-27.578125 94.773438-36.9375 144.472656-26 46.394532 10.195313 88.863282 33.546875 122.332032 67.253907l83.359375-49.644532v.003906l.019531-.011718c-48.289062-48.863282-109.695312-82.695313-176.796875-97.417969-19.496094-3.992187-39.347656-6.0117188-59.25-6.0273438zm-232.871094 210.3710938h18.289063c5.046875 0 9.140625 4.09375 9.140625 9.140625 0 5.050781-4.09375 9.144531-9.140625 9.144531h-18.289063c-5.046875 0-9.140625-4.09375-9.140625-9.144531 0-5.046875 4.09375-9.140625 9.140625-9.140625zm-18.285156 64c0-5.050781 4.09375-9.144531 9.144531-9.144531h18.285156c5.050782 0 9.144532 4.09375 9.144532 9.144531 0 5.046875-4.09375 9.140625-9.144532 9.140625h-18.285156c-5.050781 0-9.144531-4.09375-9.144531-9.140625zm10.109375 58.945313c-1.085938-2.167969-1.265625-4.679688-.496094-6.980469.765625-2.300781 2.414063-4.203125 4.582032-5.285157l18.289062-9.144531c2.921875-1.460937 6.398438-1.253906 9.125.546875 2.726562 1.800782 4.285156 4.917969 4.089844 8.179688-.195313 3.261718-2.117188 6.167968-5.039063 7.628906l-18.285156 9.144531c-2.167969 1.085938-4.679687 1.261719-6.980469.496094-2.300781-.765625-4.203125-2.417969-5.285156-4.585937zm17.320312 69.054687c-3.699218 0-7.03125-2.230469-8.445312-5.644531-1.414062-3.417969-.632812-7.347656 1.980469-9.964844l18.285156-18.285156c3.589844-3.464844 9.292969-3.414063 12.816406.113281 3.527344 3.527344 3.578125 9.226563.113281 12.816406l-18.285156 18.285157c-1.714844 1.71875-4.039062 2.683593-6.464844 2.679687zm30.105469 11.820313c3.589844-3.464844 9.292969-3.414063 12.816407.113281 3.527343 3.527343 3.578124 9.226562.113281 12.816406l-18.285157 18.285156c-2.296874 2.375-5.695312 3.328125-8.890624 2.492188-3.199219-.835938-5.695313-3.332031-6.53125-6.527344-.835938-3.199219.117187-6.597656 2.492187-8.894531zm5.5-236.304688c-1.082031 2.171875-2.984375 3.820312-5.285156 4.585938-2.300781.769531-4.8125.589843-6.980469-.496094l-18.285156-9.140625c-4.519531-2.261719-6.347656-7.753907-4.089844-12.269531 2.257813-4.515626 7.75-6.347657 12.265625-4.089844l18.289063 9.144531c2.167968 1.082031 3.816406 2.984375 4.582031 5.285156.769531 2.300781.589844 4.8125-.496094 6.980469zm27.429688-45.710938c-1.085938 2.167969-2.984375 3.816407-5.285157 4.582032-2.300781.769531-4.8125.589844-6.984374-.496094l-18.285157-9.140625c-4.515625-2.257813-6.347656-7.753906-4.085937-12.269531 2.257812-4.515625 7.75-6.347656 12.265625-4.089844l18.285156 9.144531c2.171875 1.085938 3.820313 2.988281 4.585937 5.285157.765626 2.300781.589844 4.8125-.496093 6.984374zm44-34.195312c-1.714844 1.714844-4.039063 2.679688-6.464844 2.679688s-4.75-.964844-6.464844-2.679688l-18.285156-18.285156c-3.464844-3.589844-3.414063-9.292969.113281-12.816406 3.527344-3.527344 9.226563-3.578126 12.816406-.113282l18.285157 18.285156c1.714843 1.714844 2.679687 4.039063 2.679687 6.464844 0 2.421875-.964844 4.746094-2.679687 6.460938zm45.714843-27.429688c-1.714843 1.714844-4.039062 2.679688-6.464843 2.679688s-4.75-.964844-6.464844-2.679688l-18.285156-18.285156c-3.464844-3.585937-3.414063-9.289062.113281-12.816406s9.226562-3.578125 12.816406-.113281l18.285156 18.289062c1.714844 1.710938 2.675782 4.035157 2.675782 6.460938s-.960938 4.75-2.675782 6.460937zm48.394532-15.609374c0 5.050781-4.09375 9.144531-9.144532 9.144531-5.050781 0-9.144531-4.09375-9.144531-9.144531v-27.429688c0-5.046875 4.09375-9.140625 9.144531-9.140625 5.050782 0 9.144532 4.09375 9.144532 9.140625zm63.527344-24.535157-9.140626 27.429688c-1.597656 4.789062-6.777343 7.378906-11.566406 5.78125-4.792968-1.597657-7.378906-6.777344-5.78125-11.566407l9.140625-27.429687c1.597657-4.792969 6.777344-7.378906 11.566407-5.78125 4.792968 1.597656 7.378906 6.777344 5.78125 11.566406zm154.070312 55.621094c3.03125 4.039063 2.210938 9.769531-1.828125 12.800781l-36.570313 27.429688c-4.039062 3.027344-9.769531 2.210937-12.800781-1.832032-3.03125-4.039062-2.210937-9.769531 1.828125-12.796874l36.570313-27.429688c1.941406-1.457031 4.378906-2.078125 6.78125-1.738281 2.398437.34375 4.566406 1.625 6.019531 3.566406zm-86.921875-.976563 27.429687-27.429687c3.585938-3.464844 9.289063-3.414063 12.816407.109375 3.527343 3.527344 3.578125 9.230469.113281 12.816406l-27.429688 27.429688c-3.589843 3.464844-9.289062 3.414062-12.816406-.109375-3.527344-3.527344-3.578125-9.230469-.113281-12.816407zm-47.425781-15.910156 18.285156-36.570312c2.257812-4.519532 7.75-6.347656 12.265625-4.089844 4.519531 2.257812 6.347656 7.75 4.089844 12.269531l-18.285157 36.570313c-1.460937 2.921875-4.371093 4.839844-7.632812 5.039062-3.257812.195313-6.378906-1.363281-8.175781-4.089844-1.800781-2.726562-2.007813-6.207031-.546875-9.128906zm0 0"/></svg>