<svg height="464pt" viewBox="-24 0 464 464" width="464pt" xmlns="http://www.w3.org/2000/svg"><path d="m184 396.007812v-24.007812l-22.496094-16.871094c4.023438-5.351562 6.496094-11.929687 6.496094-19.128906 0-17.648438-14.351562-32-32-32-3.335938 0-6.488281.65625-9.511719 1.609375-1.496093-5.417969-4.703125-10.128906-9.375-13.363281h-.007812c-7.441407-5.117188-16.753907-5.367188-24.328125-1.589844.757812-2.121094 1.320312-4.3125 1.460937-6.625.386719-6.398438-1.742187-12.558594-5.992187-17.359375h-.007813c-4.246093-4.800781-10.109375-7.65625-16.503906-8.046875-2.308594-.105469-4.558594.199219-6.757813.695312 1.246094-1.878906 2.328126-3.878906 3.023438-6.105468 1.902344-6.117188 1.3125-12.613282-1.664062-18.292969-2.976563-5.675781-7.992188-9.851563-14.113282-11.761719-2.199218-.6875-4.4375-.9375-6.6875-.976562 1.648438-1.519532 3.160156-3.199219 4.359375-5.167969 3.3125-5.488281 4.296875-11.9375 2.761719-18.160156-1.527344-6.222657-5.398438-11.480469-10.886719-14.800781-1.976562-1.191407-4.105469-1.964844-6.273437-2.550782 7.40625-4.070312 12.503906-11.878906 12.503906-20.929687 0-10.414063-6.710938-19.214844-16-22.527344v-66.046875c0-30.871094 25.128906-56 56-56h88c4.414062 0 8 3.585938 8 8s-3.585938 8-8 8h-8v16h8c13.230469 0 24-10.769531 24-24s-10.769531-24-24-24h-88c-39.703125 0-72 32.296875-72 72v66.046875c-9.289062 3.3125-16 12.113281-16 22.527344 0 11.082031 7.59375 20.347656 17.816406 23.089843-3.65625 2.007813-6.792968 4.855469-9.007812 8.527344-3.3125 5.488282-4.296875 11.9375-2.761719 18.160156 2.648437 10.746094 12.199219 17.96875 22.777344 18.214844-7.734375 7.1875-10.128907 18.875-4.992188 28.679688 2.976563 5.683594 7.992188 9.851562 14.113281 11.761718 2.351563.734376 4.765626 1.097657 7.167969 1.097657 1.75 0 3.488281-.25 5.191407-.632813-2.28125 3.464844-3.71875 7.429688-3.984376 11.679688-.382812 6.398437 1.742188 12.558594 6 17.367187 4.246094 4.800781 10.121094 7.648438 16.503907 8.039063.496093.035156 1 .050781 1.496093.050781 3.75 0 7.34375-.953125 10.632813-2.601563-1.402344 3.921876-1.847656 8.136719-1.082031 12.34375 1.167968 6.304688 4.703125 11.785157 9.976562 15.417969 4.046875 2.804688 8.761719 4.261719 13.578125 4.261719.191407 0 .390625-.046875.582031-.054688 0 .015626-.007812.03125-.007812.046876 0 17.648437 14.351562 32 32 32 9.609375 0 18.128906-4.335938 24-11.054688v57.0625zm0 0"/><path d="m191.246094 365.441406 8.753906-8.753906v-36.6875l-33.6875 26.742188zm0 0"/><path d="m166.3125 437.265625 33.6875 26.734375v-36.6875l-8.753906-8.753906zm0 0"/><path d="m232 404.007812 24 18v-60.007812l-24 18zm0 0"/><path d="m249.6875 346.742188-33.6875-26.742188v36.6875l8.753906 8.753906zm0 0"/><path d="m216 427.3125v36.6875l33.6875-26.734375-24.933594-18.707031zm0 0"/><path d="m216 379.3125-8-8-8 8v25.375l8 8 8-8zm0 0"/><path d="m398.183594 183.664062c10.230468-2.753906 17.816406-12.007812 17.816406-23.089843 0-10.414063-6.710938-19.214844-16-22.527344v-66.046875c0-39.703125-32.296875-72-72-72h-88c-13.230469 0-24 10.769531-24 24s10.769531 24 24 24h8v-16h-8c-4.414062 0-8-3.585938-8-8s3.585938-8 8-8h88c30.871094 0 56 25.128906 56 56v66.046875c-9.289062 3.3125-16 12.113281-16 22.527344 0 9.050781 5.097656 16.851562 12.503906 20.9375-2.167968.585937-4.296875 1.359375-6.265625 2.550781-5.496093 3.320312-9.359375 8.570312-10.886719 14.800781-1.535156 6.214844-.550781 12.671875 2.761719 18.160157 1.191407 1.96875 2.703125 3.648437 4.351563 5.160156-2.242188.046875-4.480469.296875-6.679688.984375-6.121094 1.902343-11.136718 6.089843-14.113281 11.761719-2.976563 5.679687-3.566406 12.175781-1.664063 18.292968.6875 2.210938 1.769532 4.203125 3.007813 6.082032-2.191406-.496094-4.429687-.792969-6.742187-.671876-6.402344.390626-12.257813 3.246094-16.503907 8.046876h-.007812c-4.25 4.800781-6.378907 10.960937-5.992188 17.359374.140625 2.3125.703125 4.503907 1.460938 6.625-7.566407-3.769531-16.878907-3.535156-24.328125 1.59375h-.007813c-4.671875 3.230469-7.886719 7.949219-9.375 13.359376-3.023437-.953126-6.175781-1.609376-9.511719-1.609376-17.648437 0-32 14.351563-32 32 0 17.648438 14.351563 32 32 32 17.648438 0 32-14.351562 32-32 0-.015624-.007812-.03125-.007812-.046874.191406.007812.390625.054687.585938.054687 4.820312 0 9.519531-1.464844 13.566406-4.253906 5.28125-3.640625 8.824218-9.121094 9.984375-15.425781.765625-4.207032.320312-8.414063-1.082031-12.34375 3.289062 1.648437 6.890624 2.601562 10.640624 2.601562.496094 0 .992188-.019531 1.496094-.050781 6.394532-.390625 12.257813-3.238281 16.511719-8.039063 4.25-4.808594 6.375-10.96875 5.992187-17.367187-.253906-4.25-1.695312-8.214844-3.984374-11.679688 1.714843.382813 3.441406.632813 5.191406.632813 2.402344 0 4.816406-.363282 7.167968-1.097656 6.121094-1.902344 11.136719-6.082032 14.121094-11.769532 5.128906-9.789062 2.738282-21.480468-4.992187-28.664062 10.570312-.238282 20.113281-7.480469 22.769531-18.222656 1.535156-6.214844.550781-12.671876-2.761719-18.160157-2.230469-3.65625-5.367187-6.511719-9.023437-8.511719zm0 0"/></svg>