<svg height="512pt" viewBox="0 0 512.07719 512" width="512pt" xmlns="http://www.w3.org/2000/svg"><path d="m256.046875 164.621094c45.445313 0 82.289063-36.839844 82.289063-82.285156 0-45.445313-36.84375-82.289063-82.289063-82.289063s-82.285156 36.84375-82.285156 82.289063c.050781 45.421874 36.863281 82.234374 82.285156 82.285156zm0-146.285156c35.347656 0 64 28.652343 64 64 0 35.34375-28.652344 64-64 64-35.34375 0-64-28.65625-64-64 .042969-35.332032 28.671875-63.960938 64-64zm0 0"/><path d="m9.183594 41.183594c.53125.402344 47.695312 35.316406 146.8125 51.363281-.347656-3.390625-.519532-6.800781-.519532-10.210937.023438-12.007813 2.210938-23.910157 6.457032-35.136719-80.992188-13.351563-120.765625-39.480469-125.207032-42.546875-7.402343-5.578125-17.4375-6.148438-25.421874-1.4375-7.984376 4.707031-12.34375 13.765625-11.042969 22.941406.84375 6 4.054687 11.414062 8.921875 15.027344zm0 0"/><path d="m301.761719 82.335938c0 25.246093-20.464844 45.710937-45.714844 45.710937-25.246094 0-45.710937-20.464844-45.710937-45.710937 0-25.25 20.464843-45.714844 45.710937-45.714844 25.25 0 45.714844 20.464844 45.714844 45.714844zm0 0"/><path d="m511.824219 212.304688-30.324219-137.960938c-8.679688 4.140625-19.199219 8.636719-31.503906 13.132812l47.800781 159.289063 12.269531-23.554687c1.789063-3.335938 2.410156-7.179688 1.757813-10.90625zm0 0"/><path d="m14.300781 246.761719 47.800781-159.285157c-12.300781-4.496093-22.820312-8.992187-31.503906-13.136718l-30.398437 138.324218c-.558594 3.585938.066406 7.257813 1.785156 10.449219zm0 0"/><path d="m356.101562 92.546875c99.128907-16.046875 146.277344-50.960937 146.757813-51.324219 4.878906-3.625 8.109375-9.046875 8.972656-15.0625.867188-6.015625-.703125-12.125-4.363281-16.976562-7.550781-10.027344-21.757812-12.117188-31.875-4.691406-4.652344 3.21875-44.433594 29.351562-125.433594 42.707031 4.25 11.226562 6.4375 23.128906 6.460938 35.136719 0 3.410156-.175782 6.820312-.519532 10.210937zm0 0"/><path d="m11.011719 441.71875c2.195312 1.5625 4.964843 2.074219 7.570312 1.394531l53.527344-13.351562-3.882813-7.765625c-3.105468-6.199219-3.738281-13.347656-1.777343-20l45.285156-153.964844-32.285156-10.738281c-3.167969-.976563-5.558594-3.589844-6.25-6.832031-.691407-3.242188.425781-6.601563 2.921875-8.785157 2.496094-2.183593 5.976562-2.84375 9.097656-1.730469l31.679688 10.535157 35.300781-120.023438c-24.640625-3.921875-48.964844-9.628906-72.777344-17.078125l-15.710937 52.375 30.648437 10.191406c4.261719 1.414063 6.867187 5.710938 6.148437 10.140626-.714843 4.429687-4.542968 7.683593-9.03125 7.679687-.980468 0-1.953124-.15625-2.882812-.472656l-30.140625-10.023438-41.289063 137.589844 31.492188 10.519531c3.183594.964844 5.597656 3.582032 6.292969 6.835938.695312 3.253906-.429688 6.632812-2.941407 8.816406-2.511718 2.183594-6.011718 2.828125-9.136718 1.6875l-30.960938-10.34375-10.238281 34.105469c-.984375 3.332031-1.335937 6.816406-1.027344 10.273437l6.589844 72.304688c.207031 2.671875 1.59375 5.109375 3.777344 6.660156zm0 0"/><path d="m296.789062 174.203125 46.144532 223.039063c1.1875 5.785156 1.484375 11.714843.886718 17.59375l27.484376-11.765626c3.003906-1.285156 6.464843-.871093 9.078124 1.085938 2.617188 1.960938 3.988282 5.164062 3.597657 8.40625-.386719 3.246094-2.476563 6.035156-5.480469 7.320312l-42.09375 18.015626c-.96875 1.683593-2.023438 3.316406-3.160156 4.890624l-8.441406 11.664063 56.136718 31.183594c2.179688 1.210937 4.761719 1.480469 7.144532.742187 2.382812-.738281 4.363281-2.417968 5.476562-4.648437l33.957031-67.910157c1.035157-2.066406 1.25-4.449218.597657-6.667968l-30.398438-103.332032-19.933594 6.621094c-3.097656 1.03125-6.515625.328125-8.957031-1.84375-2.441406-2.167968-3.539063-5.476562-2.882813-8.675781s2.972657-5.808594 6.074219-6.835937l20.53125-6.824219-12.082031-41.09375-.070312-.132813c-.023438-.058594 0-.121094-.023438-.183594l-15.726562-53.472656-22.917969 9.15625c-3.035157 1.210938-6.484375.714844-9.050781-1.308594-2.566407-2.019531-3.859376-5.257812-3.394532-8.492187.46875-3.230469 2.625-5.96875 5.660156-7.183594l24.519532-9.789062-13.632813-46.351563c-10.476562 20.777344-27.796875 37.304688-49.042969 46.792969zm0 0"/><path d="m177.15625 183.558594c3.03125 1.210937 5.1875 3.949218 5.65625 7.183594.46875 3.234374-.828125 6.46875-3.394531 8.492187-2.566407 2.019531-6.015625 2.515625-9.046875 1.304687l-22.921875-9.152343-15.722657 53.472656c-.019531.058594 0 .117187-.023437.175781l-.066406.132813-12.089844 41.097656 20.53125 6.820313c3.097656 1.027343 5.414063 3.636718 6.074219 6.835937.65625 3.199219-.441406 6.507813-2.886719 8.675781-2.441406 2.171875-5.855469 2.875-8.957031 1.84375l-19.929688-6.621094-30.394531 103.335938c-.648437 2.21875-.4375 4.605469.601563 6.671875l33.953124 67.910156c1.117188 2.226563 3.09375 3.902344 5.476563 4.640625 2.382813.734375 4.960937.46875 7.140625-.742187l56.140625-31.1875-8.445313-11.667969c-1.136718-1.570312-2.1875-3.203125-3.15625-4.882812l-42.101562-18.019532c-3.003906-1.285156-5.09375-4.074218-5.480469-7.320312-.390625-3.242188.984375-6.445313 3.597657-8.40625 2.613281-1.957032 6.074218-2.371094 9.078124-1.085938l27.488282 11.769532c-.597656-5.875-.296875-11.808594.890625-17.589844l46.136719-223.046875c-21.242188-9.488281-38.566407-26.015625-49.039063-46.789063l-13.632813 46.351563zm0 0"/><path d="m237.761719 347.476562h-39.625l-11.0625 53.46875c-2.265625 10.835938.121093 22.125 6.582031 31.113282l12.875 17.78125c1.085938.761718 1.992188 1.757812 2.652344 2.910156.179687.433594.320312.882812.425781 1.34375l39.214844 54.160156c1.703125 2.277344 4.378906 3.617188 7.21875 3.617188 2.84375 0 5.519531-1.339844 7.21875-3.617188l39.222656-54.160156c.105469-.460938.25-.910156.429687-1.34375.65625-1.15625 1.5625-2.148438 2.652344-2.910156l7.917969-10.933594h-30.007813c-5.050781 0-9.140624-4.09375-9.140624-9.144531 0-5.046875 4.089843-9.140625 9.140624-9.140625h40.429688c2.023438-6.363282 2.40625-13.128906 1.113281-19.679688l-22.40625-108.320312h-19.136719c-5.050781 0-9.140624-4.09375-9.140624-9.144532 0-5.046874 4.089843-9.140624 9.140624-9.140624h15.355469l-19.5-94.265626c-15.292969 3.773438-31.273437 3.773438-46.570312 0l-11.929688 57.691407h16.929688c5.050781 0 9.144531 4.09375 9.144531 9.144531s-4.09375 9.140625-9.144531 9.140625h-20.714844l-15.125 73.144531h35.839844c5.050781 0 9.144531 4.09375 9.144531 9.144532 0 5.046874-4.09375 9.140624-9.144531 9.140624zm0 0"/><path d="m501.085938 441.71875c2.179687-1.546875 3.566406-3.980469 3.773437-6.648438l6.585937-72.242187c.320313-3.523437-.039062-7.078125-1.054687-10.472656l-10.199219-33.980469-30.964844 10.34375c-3.125 1.140625-6.625.496094-9.136718-1.6875-2.511719-2.183594-3.640625-5.5625-2.941406-8.816406.695312-3.253906 3.105468-5.871094 6.292968-6.835938l31.492188-10.519531-41.289063-137.589844-30.140625 10.023438c-.929687.316406-1.902344.472656-2.882812.472656-4.488282.003906-8.316406-3.25-9.035156-7.679687-.714844-4.429688 1.890624-8.726563 6.148437-10.140626l30.652344-10.191406-15.714844-52.371094c-23.8125 7.445313-48.136719 13.15625-72.777344 17.078126l35.308594 120.019531 31.679687-10.535157c3.121094-1.113281 6.601563-.453124 9.09375 1.730469 2.496094 2.183594 3.613282 5.542969 2.921876 8.785157-.691407 3.242187-3.082032 5.855468-6.25 6.832031l-32.285157 10.738281 45.285157 153.964844c1.964843 6.648437 1.332031 13.796875-1.777344 19.996094l-3.886719 7.773437 53.53125 13.347656c2.605469.679688 5.378906.167969 7.570313-1.394531zm0 0"/></svg>