<svg id="Capa_1" enable-background="new 0 0 512 512" height="512" viewBox="0 0 512 512" width="512" xmlns="http://www.w3.org/2000/svg"><path d="m252.64 83.72c-21.212 0-41.565 6.515-59.592 18.616l26.598 35.968c10.235-6.321 21.383-9.638 32.993-9.638s22.758 3.317 32.994 9.638l26.598-35.968c-18.026-12.101-38.379-18.616-59.591-18.616z"/><path d="m190.455 168.641c2.205-3.542 4.529-6.858 6.951-9.956l-27.141-36.702c-6.184 6.71-11.903 14.226-17.058 22.506-16.766 26.929-26.915 60.747-29.142 96.512h44.233c2.077-27.15 9.747-52.428 22.157-72.36z"/><path d="m252.64 383.333c-11.971 0-23.454-3.519-33.949-10.23l-26.571 35.931c18.255 12.505 38.943 19.246 60.52 19.246s42.265-6.741 60.52-19.247l-26.571-35.931c-10.495 6.712-21.978 10.231-33.949 10.231z"/><path d="m252.64 158.667c-29.778 0-54.935 44.573-54.935 97.333s25.157 97.333 54.935 97.333 54.935-44.573 54.935-97.333-25.157-97.333-54.935-97.333z"/><path d="m169.499 389.169 27.191-36.77c-2.166-2.833-4.247-5.848-6.235-9.041-12.409-19.932-20.08-45.21-22.156-72.359h-44.233c2.227 35.765 12.376 69.582 29.142 96.512 4.939 7.936 10.401 15.163 16.291 21.658z"/><path d="m394.337 162.191c11.297 28.552 17.347 60.794 17.347 93.809 0 33.014-6.049 65.257-17.347 93.809l117.663-40.209v-107.2z"/><path d="m93.597 256c0-31.995 5.678-63.269 16.312-91.159l-109.909 37.559v107.2l109.909 37.559c-10.634-27.89-16.312-59.164-16.312-91.159z"/><path d="m335.016 121.983-27.141 36.702c2.423 3.098 4.746 6.414 6.952 9.956 12.409 19.932 20.079 45.21 22.156 72.359h44.233c-2.227-35.766-12.376-69.583-29.142-96.512-5.155-8.279-10.874-15.796-17.058-22.505z"/><path d="m314.826 343.359c-1.988 3.193-4.07 6.208-6.235 9.041l27.19 36.769c5.889-6.495 11.351-13.722 16.291-21.657 16.767-26.93 26.917-60.747 29.143-96.512h-44.233c-2.077 27.149-9.747 52.427-22.156 72.359z"/></svg>