<svg id="Layer_1_1_" enable-background="new 0 0 64 64" height="512" viewBox="0 0 64 64" width="512" xmlns="http://www.w3.org/2000/svg"><path d="m34.851 31.54c-.282 2.818-1.158 5.508-2.53 7.913l20.76-14.236 1.61-14.495-19.731 19.732z"/><path d="m15.576 52.99-4.566-4.566-6.676 8.496 2.746 2.746z"/><path d="m21.453 49.038 17.874 1.702-4.741-4.74h-8.586c-.258 0-.514-.1-.707-.293l-7-7c-.194-.193-.282-.449-.282-.707h-.011v-8.586l-4.741-4.741 1.702 17.874z"/><path d="m23 37c2.206 0 4 1.794 4 4 0 .978-.358 1.89-.981 2.605l.057.057c3.829-3.015 6.298-7.448 6.785-12.321l.022-.224-.224.022c-4.873.487-9.306 2.957-12.321 6.785l.057.057c.715-.623 1.627-.981 2.605-.981z"/><path d="m21.824 39.409 2.767 2.767c.254-.337.409-.74.409-1.176 0-1.103-.897-2-2-2-.436 0-.839.155-1.176.409z"/><path d="m19.496 49.91-5.406-5.406-1.836 2.336 4.906 4.906z"/><path d="m58.586 4h-15.059l-3.251 4.741 15.265-1.696z"/><path d="m33.546 29.04 19.731-19.731-14.495 1.61-14.236 20.76c2.405-1.372 5.095-2.248 7.913-2.53z"/><path d="m55.259 23.724 4.741-3.251v-15.059l-3.045 3.045z"/></svg>