<?xml version="1.0" encoding="iso-8859-1"?>
<!-- Generator: Adobe Illustrator 16.0.0, SVG Export Plug-In . SVG Version: 6.00 Build 0)  -->
<!DOCTYPE svg PUBLIC "-//W3C//DTD SVG 1.1//EN" "http://www.w3.org/Graphics/SVG/1.1/DTD/svg11.dtd">
<svg version="1.1" id="Capa_1" xmlns="http://www.w3.org/2000/svg" xmlns:xlink="http://www.w3.org/1999/xlink" x="0px" y="0px"
	 width="581.216px" height="581.216px" viewBox="0 0 581.216 581.216" style="enable-background:new 0 0 581.216 581.216;"
	 xml:space="preserve">
<g>
	<g>
		<path d="M25.312,446.025c-2.518,3.981-5.304,7.792-7.993,11.669c-3.125,4.504-2.876,9.212-0.559,13.855
			c4.337,8.694,11.975,14.092,19.935,18.943c3.929,2.395,8.241,4.157,12.75,5.818c0.979,0.362,1.436-0.127,1.048-1.103
			c-3.362-8.522-3.142-15.206-0.718-20.779c0.417-0.958,1.657-1.868,2.668-2.146c1.587-0.437,3.138-1.004,4.643-1.677
			c0.955-0.429,2.505-1.102,3.493-1.453c8.707-3.108,17.283-6.34,26.022-9.041c7.83-2.42,15.447-1.179,22.93,2.439
			c16.026,7.748,31.979,15.741,48.438,22.473c24.676,10.086,50.649,12.432,77.104,10.474c6.169-0.457,12.313-1.053,18.413-1.86
			c1.037-0.139,1.926,0.592,2.024,1.632c0.216,2.313,0.567,4.623,1.048,6.92c0.216,1.023-0.428,1.918-1.453,2.13
			c-7.16,1.48-11.391,7.164-14.463,14.573c-0.657,1.588-1.555,3.13-2.603,4.488c-2.958,3.831-3.798,7.246,0.718,10.71
			c0.975,0.751,1.187,3.093,1.02,4.623c-0.437,3.929-1.151,7.829-1.856,12.048c-0.171,1.032,0.506,2.109,1.485,2.48
			c3.244,1.22,6.487,2.913,9.029,2.175c2.264-0.657,3.745-4.011,5.557-6.997c0.543-0.894,1.734-1.102,2.591-0.506
			c2.122,1.473,4.219,2.926,6.116,4.243c0.861,0.596,2.174,0.498,2.934-0.221c5.336-5.026,10.506-9.901,16.414-15.471
			c0.763-0.719,0.539-1.176-0.494-1.021c-5.781,0.857-10.755,1.592-16.169,2.391c-1.037,0.155-1.828-0.57-1.775-1.615
			c0.253-5.03,0.437-9.711,0.914-14.361c0.082-0.788,1.926-2.004,2.917-1.967c2.232,0.082,4.456,0.519,6.932,0.955
			c1.032,0.179,1.734,1.15,1.566,2.183c-0.477,2.958-0.934,5.785-1.403,8.698c-0.167,1.032,0.522,1.66,1.501,1.289
			c6.744-2.542,9.825-8.205,13.317-13.831c0.551-0.89,0.265-1.999-0.657-2.493c-3.509-1.872-6.969-3.721-10.857-5.801
			c-0.922-0.494-1.187-1.588-0.587-2.448c1.591-2.285,3.097-4.451,4.521-6.496c0.4-0.481,0.755-1.003,1.081-1.55
			c0.266-0.384,0.531-0.763,0.792-1.139c0.437-0.628,0.697-1.113,0.575-1.081c-0.119,0.032,0.171-0.697,0.645-1.628
			c0.73-1.432,1.465-2.86,2.195-4.292c0.478-0.931,1.42-1.045,2.216-0.367c1.46,1.244,3.166,2.183,5.01,2.762
			c0.999,0.314,2.603,0.812,3.55,1.257c5.553,2.604,11.542,5.26,17.327,8.303c6.912,3.64,8.132,10.547,8.499,17.405
			c0.225,4.133-3.183,6.034-6.545,7.842c-4.675,2.514-9.551,4.974-13.5,8.413c-5.104,4.447-4.884,7.862-1.216,13.574
			c0.636,0.991,0.571,2.909,0.081,4.084c-4.899,11.686-4.944,11.665,4.183,20.326c1.578,1.502,3.162,2.999,5.218,4.945
			c0.759,0.718,1.191,0.474,0.972-0.547c-0.874-4.015-1.579-7.303-2.318-10.579c-1.31-5.81-0.905-7.928,3.203-11.926
			c0.751-0.73,2.143-0.922,3.08-0.461c1.853,0.909,3.791,1.86,5.985,2.938c0.938,0.461,1.543,0.2,1.355-0.588
			c-0.14-0.587-0.241-1.008-0.359-1.42c-2.893-10.028-2.48-11.628,7.377-15.234c0.979-0.359,1.868,0.204,1.979,1.244
			c0.697,6.626,1.387,13.134,2.057,19.642c0.13,1.256,0.154,2.521,0.261,3.777c0.571,6.753,2.945,9.425,9.539,10.47
			c0.955,0.151,2.224-0.172,3.015-0.734c3.786-2.697,7.491-5.512,11.881-8.801c0.837-0.628,0.674-1.216-0.371-1.31
			c-3.978-0.347-7.312-0.526-10.551-1.184c-1.392-0.281-3.509-2.027-3.541-3.161c-0.273-8.499-0.176-17.01-0.163-25.929
			c0-1.045,0.799-1.604,1.791-1.277c1.538,0.506,3.117,1.016,4.459,1.89c1.146,0.75,2.163,2.562,2.224,3.94
			c0.127,2.93-0.18,5.876-0.44,9.604c-0.073,1.045,0.519,1.335,1.31,0.649c5.312-4.595,9.825-8.609,12.122-14.676
			c1.012-2.669,0.812-4.179-2.143-5.488c-6.042-2.681-12.244-5.3-17.646-9.017c-2.799-1.926-4.484-5.467-7.083-9.388
			c-0.579-0.873-0.229-1.607,0.815-1.665c6.892-0.384,12.726-0.706,18.765-1.04c1.044-0.058,1.51-0.861,1.004-1.779
			c-2.542-4.59-5.586-8.91-4.468-14.908c0.191-1.028,1.02-1.195,1.795-0.494c3.586,3.228,7.409,3.746,11.473,2.53
			c1.004-0.302,1.808-0.82,1.841-1.049c0.024-0.171,0.036-0.33-0.041-0.404c-7.634-7.291-9.091-16.683-4.146-28.466
			c0.004-0.012,0.012-0.028,0.017-0.041c0.012-0.024,0.795-0.379,1.782-0.726c5.554-1.946,11.139-1.926,17.45,0
			c6.006,2.28,9.201,6.838,11.567,15.296c3.125,11.167,3.455,22.395-0.938,33.415c-2.228,5.585-5.443,10.38-10.588,13.709
			c-0.877,0.566-0.836,1.276,0.151,1.611c9.266,3.162,18.816,3.056,25.765-12.342c0.429-0.955,0.935-0.914,1.195,0.102
			c0.29,1.11,0.522,1.979,0.543,2.856c0.253,12.052,5.055,22.171,13.88,30.045c13.546,12.081,28.887,20.196,47.834,18.923
			c16.749-1.122,36.39-16.394,39.58-31.339c2.489-11.66,0.743-22.889-5.3-33.297c-0.865-1.484-2.012-2.814-3.088-4.169
			c-0.209-0.262-0.494-0.466-0.923-0.759c-0.547-0.376-0.746,0.122-0.444,1.121c0.922,3.032,1.853,5.631,2.22,8.308
			c1.611,11.767-6.051,22.554-18.87,27.14c-10.539,3.771-20.013,0.453-27.797-6.026c-6.01-5.006-10.348-12.068-15.187-18.396
			c-0.819-1.073-1.105-2.562-1.252-4.288c-0.09-1.04,0.367-1.199,1.036-0.392c7.69,9.311,17.021,8.181,27.344,5.108
			c1.004-0.298,1.24-1.18,0.535-1.95c-3.815-4.17-7.242-7.883-10.608-11.648c-5.695-6.369-9.768-13.84-11.143-22.122
			c-0.697-4.206-1.93-7.829-3.631-10.946c-0.502-0.918-1.269-2.424-1.677-3.387c-2.804-6.605-6.757-12.615-11.592-17.817
			c-0.714-0.767-1.754-2.089-2.338-2.958c-1.881-2.807-3.884-5.247-6.042-7.441c-0.734-0.747-1.6-2.154-2.191-3.02
			c-0.489-0.722-1.146-1.387-1.982-1.963c-5.133-3.524-10.429-6.784-15.859-9.779c-0.914-0.506-2.317-1.444-3.142-2.089
			c-6.561-5.133-13.758-9.376-21.387-12.619c-0.963-0.408-0.906-0.816,0.13-0.938c17.683-2.077,34.953-5.855,52.388-11.612
			c0.995-0.326,0.95-0.542-0.09-0.465c-13.012,0.95-24.835,2.126-36.684,2.464c-4.831,0.14-9.67,0.009-14.513-0.195
			c-1.044-0.045-1.57-0.914-0.767-1.583c1.611-1.338,4.337-1.967,6.124-2.632c1.975-0.734,3.945-1.465,5.916-2.199
			c0.979-0.363,2.623-0.661,3.668-0.681c23.741-0.453,46.275-7.969,68.421-17.573c0.959-0.416,0.894-0.661-0.143-0.534
			c-9.213,1.118-18.409,2.709-27.646,2.982c-5.99,0.176-11.983,0.266-17.977,0.306c-1.045,0.009-2.064-0.673-2.444-1.439
			c-0.379-0.768-0.682-1.425-0.502-1.559c0.11-0.082,0.221-0.159,0.331-0.237c1.795-1.244,3.61-2.464,5.524-3.513
			c2.346-1.285,4.712-2.383,7.151-3.329c0.976-0.38,2.611-0.812,3.636-1.021c2.529-0.514,5.055-1.122,7.568-1.844
			c16.899-4.839,32.188-13.162,47.622-21.433c0.922-0.493,0.853-0.673-0.159-0.403c-16.704,4.442-33.534,7.638-50.535,9.693
			c-1.036,0.127-2.362-0.081-3.02-0.31c-0.656-0.225-0.652-0.906,0.045-1.686c1.894-2.104,3.754-4.243,5.573-6.413
			c0.674-0.8,2.04-1.641,3.057-1.881c28.021-6.581,53.721-19.76,76.639-41.155c0.763-0.714,0.596-0.963-0.367-0.562
			c-2.84,1.183-5.483,2.231-8.021,3.476c-17.785,8.724-36.198,15.419-55.076,20.604c-1.008,0.277-1.347-0.204-0.763-1.073
			c1.881-2.795,3.7-5.626,5.463-8.499c0.547-0.894,1.787-1.885,2.782-2.211c2.526-0.832,5.048-1.665,7.569-2.477
			c25.067-8.05,43.436-26.087,62.003-43.578c0.764-0.718,1.204-1.518,0.992-1.787c-0.217-0.269-1.131-0.073-2.04,0.433
			c-2.722,1.514-5.451,3.011-8.14,4.578c-8.854,5.157-17.993,10.73-27.753,14.002c-1.672,0.563-18.348,5.398-16.735,0.449
			c1.644-5.01,7.078-8.67,10.828-12.048c6.924-6.234,13.848-12.469,20.771-18.703c4.618-3.497,9.049-7.271,13.198-11.477
			c15.504-15.704,27.156-34.219,39.666-52.122c0.6-0.857,0.856-1.738,0.575-1.971c-0.281-0.233-1.139,0.151-1.913,0.853
			c-5.459,4.961-10.923,9.918-16.382,14.88c-17.393,15.814-35.978,29.878-55.68,42.293c-0.885,0.559-1.411,0.18-1.183-0.84
			c0.326-1.444,0.636-2.897,0.93-4.349c0.058-0.286,0.114-0.567,0.163-0.853c0.086-0.469,0.665-1.521,1.31-2.35
			c1.865-2.395,3.729-4.786,5.59-7.181c0.641-0.824,1.84-2.007,2.656-2.66c7.397-5.928,13.656-13.215,18.417-21.501
			c0.522-0.906,1.469-2.301,2.138-3.109c22.44-27.189,34.701-58.866,38.932-95.097c0.122-1.041-0.2-1.143-0.706-0.225
			c-7.127,12.905-13.496,24.913-20.358,36.63c-12.979,22.163-28.141,42.509-46.227,60.364c-0.743,0.734-2.094,1.738-3.032,2.195
			c-1.538,0.75-3.125,1.396-4.749,1.934c-0.991,0.326-2.125,0.208-2.517-0.204s-0.213-1.403,0.407-2.244
			c7.426-10.016,13.685-20.743,18.728-32.126c0.425-0.955,1.208-2.456,1.755-3.346c11.248-18.339,19.392-38.229,26.589-58.556
			c0.314-0.89,0.931-1.991,0.661-2.718c-3.934-10.579-0.91-21.538-1.705-32.301c-1.506-20.232-10.612-37.018-21.474-53.268
			c-1.497-2.24-3.072-4.427-5.043-6.447c-0.73-0.75-1.122-0.498-0.819,0.502c1.864,6.145,3.867,12.256,5.45,18.474
			c6.467,25.443,9.796,51.021,3.606,77.125c-3.292,13.892-10.95,25.316-18.947,36.724c-13.439,19.172-28.523,36.557-49.547,47.842
			c-11.249,6.039-22.31,12.452-33.718,18.181c-38.046,19.099-74.374,40.947-108.52,66.329
			c-12.497,8.458-24.423,17.768-35.476,28.013c-0.767,0.71-1.028,0.522-0.596-0.429c3.456-7.658,6.328-15.41,7.666-23.843
			c0.164-1.032-0.045-1.763-0.44-1.648c-0.392,0.114-0.612,0.167-0.665,0.29c-2.672,6.381-7.226,11.416-11.591,16.589
			c-0.677,0.8-1.493,0.652-1.844-0.335c-0.861-2.428-1.75-4.843-2.656-7.254c-0.367-0.979-0.277-2.521,0.196-3.456
			c7.03-13.762,12.591-28.025,15.752-43.252c0.212-1.024,0.151-1.955-0.118-2.081c-0.273-0.122-0.853,0.543-1.277,1.498
			c-0.563,1.269-1.122,2.538-1.861,3.696c-5.797,9.131-11.624,18.25-17.491,27.336c-0.567,0.877-1.354,0.808-1.763-0.155
			c-1.211-2.852-2.456-5.691-3.729-8.515c-0.428-0.955-0.498-2.521-0.151-3.509c6.389-18.144,11.159-36.691,13.391-56.022
			c0.122-1.041-0.065-1.983-0.404-2.105c-0.338-0.123-0.889,0.579-1.208,1.575c-0.641,2.011-1.244,4.039-2.13,5.92
			c-5.565,11.853-11.146,23.697-16.777,35.517c-0.449,0.942-1.199,0.955-1.677,0.024c-2.583-5.039-5.271-10.021-8.062-14.945
			c-0.514-0.91-0.767-2.477-0.559-3.501c2.525-12.631,4.309-25.41,5.431-38.311c0.363-4.182,0.13-8.413,0.073-13.117
			c-0.012-1.044-0.294-1.093-0.641-0.106c-4.479,12.762-8.825,25.149-13.125,37.405c-0.347,0.987-1.077,1.069-1.636,0.184
			c-2.061-3.244-4.166-6.455-6.316-9.637c-0.587-0.865-0.926-2.403-0.767-3.436c3.301-21.208,4.525-42.505,2.513-64.101
			c-0.098-1.041-0.559-1.934-1.02-1.995c-0.461-0.061-0.967,0.727-1.102,1.763c-0.322,2.489-0.575,4.998-1.244,7.393
			c-3.725,13.309-7.467,26.614-11.265,39.902c-0.29,1.003-1.036,1.146-1.673,0.318c-2.407-3.125-4.863-6.21-7.364-9.258
			c-0.665-0.808-1.171-2.309-1.143-3.354c0.792-26.63-2.579-52.812-11.13-78.65c-0.331-0.991-0.327-0.991-0.057,0.017
			c3.762,14.255-0.576,40.017-3.027,54.807c-0.171,1.032-1.155,1.987-2.199,1.954c-5.145-0.163-9.38-3.57-11.779-8.466
			c-2.595-5.296-2.917-11.367-3.472-17.238c-2.048-21.775-7.94-43.183-17.316-62.946c-0.449-0.946-0.738-0.861-0.636,0.18
			c2.036,20.808,3.884,41.938,0.057,62.44c-0.192,1.028-0.734,1.093-1.191,0.155c-16.046-33.133-32.093-66.267-48.14-99.401
			c-0.457-0.942-0.661-0.873-0.461,0.155c4.603,23.464,9.208,46.932,13.811,70.396c0.2,1.028-0.314,1.351-1.134,0.702
			C85.57,81.457,74.436,62.938,70.8,42.966c-0.188-1.028-0.273-1.02-0.253,0.024c0.13,6.932-0.225,22.306,2.954,28.107
			c0.502,0.918,0.506,0.934-0.273,0.236c-0.959-0.861-1.918-1.718-2.876-2.579c-0.779-0.698-1.82-2.007-2.322-2.921
			c-2.986-5.426-6.001-10.824-9.241-16.083c-5.777-9.384-11.501-18.964-18.56-27.356C33.631,14.549,25.585,7.919,18.054,0.853
			c-0.763-0.714-1.64-1.048-1.971-0.734s-0.163,1.293,0.375,2.191c3.982,6.671,8.046,13.292,11.873,20.053
			C46.932,55.219,61.126,89.78,68.748,126.904c5.786,28.193,4.659,56.414,1.024,84.713c-2.876,22.395-6.654,44.59-14.753,65.782
			c-1.967,5.145-4.647,10.017-7.238,15.263c-0.465,0.938-0.159,2.224,0.665,2.868c3.884,3.035,7.903,6.259,12.114,9.196
			c0.799,0.559,2.844-0.106,4.027-0.743c7.062-3.781,14.023-7.752,21.061-11.578c0.522-0.286,1.105-0.457,1.701-0.601
			c0.975-0.232,1.848-0.273,1.955-0.098c0.102,0.176-0.437,0.886-1.208,1.596c-0.587,0.538-1.175,1.077-1.762,1.615
			c-0.771,0.706-0.596,0.996,0.396,0.665c8.45-2.831,16.957-4.631,25.9-4.292c20.062,0.763,38.397,24.321,33.228,42.901
			c-2.456,8.829-8.601,14.953-15.704,20.131c-14.631,10.673-31.612,16.193-48.584,21.701c-9.143,2.966-18.217,6.165-27.385,9.045
			c-16.125,5.063-22.391,17.862-25.684,32.808c-0.637,2.885-0.951,5.843-1.053,8.87c-0.037,1.044-0.322,2.697-0.526,3.721
			c-0.42,2.102-0.396,4.325,0.13,6.524c0.208,0.864,0.417,1.726,0.625,2.591c0.245,1.016,0.004,2.566-0.547,3.455
			C26.544,444.055,25.933,445.042,25.312,446.025z"/>
	</g>
</g>
<g>
</g>
<g>
</g>
<g>
</g>
<g>
</g>
<g>
</g>
<g>
</g>
<g>
</g>
<g>
</g>
<g>
</g>
<g>
</g>
<g>
</g>
<g>
</g>
<g>
</g>
<g>
</g>
<g>
</g>
</svg>
