<?xml version="1.0" encoding="iso-8859-1"?>
<!-- Generator: Adobe Illustrator 16.0.0, SVG Export Plug-In . SVG Version: 6.00 Build 0)  -->
<!DOCTYPE svg PUBLIC "-//W3C//DTD SVG 1.1//EN" "http://www.w3.org/Graphics/SVG/1.1/DTD/svg11.dtd">
<svg version="1.1" id="Capa_1" xmlns="http://www.w3.org/2000/svg" xmlns:xlink="http://www.w3.org/1999/xlink" x="0px" y="0px"
	 width="581.752px" height="581.752px" viewBox="0 0 581.752 581.752" style="enable-background:new 0 0 581.752 581.752;"
	 xml:space="preserve">
<g>
	<path d="M48.164,167.228c0.225,0.314,1.726,0.09,2.362-0.326c1.75-1.143,3.297-2.595,5.022-3.778c3.211-2.203,6.5-4.3,9.747-6.45
		c2.138-1.412,4.272-2.836,6.605-4.056c0.6-0.314,0.796-0.09,0.42,0.473c-2.66,4.023-5.377,8.009-7.87,12.134
		c-0.58,0.963-0.739,2.179-0.931,3.374c-0.106,0.669,0.31,1.114,0.979,1.028c1.065-0.134,2.138-0.261,3.101-0.648
		c1.175-0.473,2.15-1.473,3.162-2.301c3.843-3.158,7.67-6.332,11.971-9.894c0.522-0.432,0.955-0.229,0.812,0.433
		c-0.433,1.987-1.73,3.5-0.906,5.251c0.29,0.612,1.175,0.73,1.75,0.375c6.887-4.251,11.848-10.706,17.65-16.141
		c0.494-0.461,1.065-0.306,1.265,0.339c0.037,0.122,0.078,0.245,0.114,0.363c0.2,0.645,0.881,0.996,1.53,0.808
		c0.616-0.18,1.211-0.375,1.632-0.767c3.036-2.807,5.969-5.729,8.923-8.621c0.481-0.473,1.012-0.755,1.175-0.632
		c0.163,0.122,0.134,0.747-0.082,1.387c-0.224,0.661-0.437,1.326-0.506,2.007c-0.049,0.473,0.033,0.963,0.139,1.452
		c0.147,0.661,0.8,1.089,1.465,0.967c0.514-0.094,1.004-0.22,1.338-0.518c2.371-2.109,4.574-4.407,6.875-6.598
		c1.106-1.053,2.261-2.052,3.705-3.329c0.506-0.449,0.804-0.273,0.665,0.388c-0.322,1.518-0.583,2.66-0.73,3.814
		c-0.082,0.641,0.012,1.714,0.379,1.901c0.587,0.298,1.661,0.298,2.183-0.069c1.204-0.845,2.313-1.889,3.252-3.027
		c1.391-1.681,2.672-3.456,3.974-5.214c0.404-0.542,0.865-0.901,1.028-0.808c0.163,0.098,0.159,0.702-0.033,1.346
		c-0.253,0.861-0.506,1.722-0.546,2.591c-0.041,0.861,0.286,2.113,0.901,2.53c0.58,0.396,1.816,0.11,2.632-0.208
		c0.755-0.29,1.453-0.727,2.167-1.179c0.571-0.359,1.183-0.114,1.412,0.522c1.065,2.975,2.256,2.958,4.712,0.404
		c0.934-0.971,1.75-1.616,3.138-0.6c0.551,0.404,1.705,0.559,2.276,0.253c2.497-1.33,4.917-0.077,7.356,0.008
		c0.518,0.016,1.02,0.494,1.538,0.734c0.534,0.249,1.224,0.816,1.604,0.657c2.501-1.032,4.937-0.461,7.401,0.045
		c1.514,0.31,3.023,0.657,4.549,0.857c5.582,0.734,11.15,1.697,16.756,2.044c6.695,0.417,13.423,0.327,20.135,0.379
		c4.606,0.037,9.217,0.004,13.823-0.13c0.873-0.024,1.738-0.277,2.603-0.53c0.649-0.188,1.236,0.224,1.297,0.897
		c0.898,9.657,0.906,19.115-0.84,28.454c-0.612,3.28-2.521,6.36-4.101,9.396c-0.444,0.857-1.746,1.424-2.774,1.799
		c-9.441,3.423-18.923,6.749-28.36,10.184c-1.29,0.469-2.587,1.196-3.583,2.126c-1.836,1.713-3.778,3.031-5.736,3.256
		c-0.673,0.077-1.375,0.518-1.571,1.167c-0.033,0.11-0.065,0.216-0.098,0.322c-0.192,0.649-0.531,1.143-0.759,1.102
		c-0.224-0.037-0.522-0.535-0.661-1.118c-0.139-0.579-0.808-0.926-1.33-0.502c-1.151,0.935-1.926,2.615-3.733,2.771
		c-0.673,0.057-1.211,0.44-1.211,1.118c0,1.437,0,2.897,0,4.362c0,0.677,0.151,1.252,0.338,1.289s0.363-0.485,0.437-1.159
		c0.216-1.966,0.824-3.753,3.407-4.712c0.632-0.236,0.967,0.167,0.718,0.796c-0.298,0.742-0.551,1.383-0.792,1.983
		c-0.253,0.628-0.029,0.804,0.506,0.387c0.257-0.204,0.518-0.404,0.775-0.608c0.53-0.416,1.093-0.624,1.248-0.465
		c0.155,0.159-0.065,0.714-0.494,1.24c-0.693,0.845-1.387,1.689-2.081,2.538c-0.428,0.522-0.906,0.804-1.065,0.625
		c-0.159-0.176-0.645,0.094-1.089,0.6c-1.526,1.726-3.117,3.407-4.349,5.316c-0.343,0.534-0.074,1.465,0.355,2.346
		c0.298,0.608,0.722,0.535,0.873-0.126c0.126-0.567,0.265-1.167,0.42-1.86c0.151-0.661,0.567-0.734,0.93-0.167
		c0.457,0.71,0.869,1.351,1.354,2.105c0.367,0.567,0.596,0.485,0.575-0.188c-0.082-2.354,0.559-3.709,3.297-3.179
		c0.31,0.062,0.897-1.289,1.346-1.987c1.167-1.812,2.33-3.627,3.533-5.5c0.367-0.567,0.869-0.522,1.138,0.094
		c0.514,1.183,0.963,2.134,1.212,3.133c0.967,3.9,1.942,7.809,2.66,11.758c1.375,7.561,2.721,15.133,6.165,22.089
		c0.763,1.538,2.199,2.733,3.264,4.133c0.355,0.469,0.571,1.064,0.767,1.628c1.082,3.08,2.052,6.201,3.236,9.241
		c0.416,1.073,1.044,2.06,1.656,3.056c0.355,0.575,0.853,0.987,1.13,0.906c0.277-0.082,0.501-0.702,0.501-1.379
		c0-1.277,0-2.554,0-3.831c0-0.677,0.204-1.277,0.453-1.342c0.249-0.065,0.669,0.392,0.934,1.012
		c0.706,1.652,1.404,3.301,2.126,4.945c2.231,5.088,4.374,10.22,6.785,15.223c0.718,1.493,1.306,3.99,3.599,3.35
		c0.588-0.163,0.502-3.105,0.535-4.778c0.012-0.665-0.135-1.334-0.143-2.068c-0.008-0.677,0.396-0.722,0.706-0.123
		c0.869,1.665,1.73,3.329,2.624,4.978c2.848,5.275,5.712,10.543,8.58,15.806c0.253,0.465,0.49,0.991,0.881,1.31
		c0.253,0.204,0.539,0.363,0.84,0.51c0.49,0.237,1.065,0.033,1.277-0.457c0.143-0.322,0.249-0.641,0.208-0.934
		c-0.322-2.305-0.759-4.594-0.935-7.062c-0.049-0.673,0.245-0.763,0.625-0.204c0.743,1.094,1.489,2.183,2.203,3.292
		c3.774,5.863,7.527,11.734,11.297,17.601c0.286,0.444,0.518,1.044,0.935,1.261c1.313,0.673,2.839,1.86,4.035,1.624
		c1.954-0.388,1.244-2.33,0.983-3.795c-0.049-0.27-0.061-0.547-0.065-0.849c-0.008-0.474,0.151-0.815,0.367-0.775
		c0.147,0.029,0.265,0.058,0.383,0.103c0.849,0.322,1.693,0.648,2.538,0.975c0.632,0.245,1.272-0.09,1.481-0.73
		c0.359-1.102,0.754-2.211,0.551-3.194c-0.49-2.37-1.318-4.822-2.624-6.838c-1.281-1.971-0.816-3.969-1.008-5.887
		c-0.069-0.673,0.31-1.273,0.983-1.334c1.003-0.09,1.934-0.159,1.987-0.404c0.237-1.179,0.037-2.542-0.326-3.733
		c-0.661-2.183-1.473-4.321-2.313-6.63c-0.233-0.637,0.13-1.093,0.804-1.069c2.811,0.106,3.105-0.645,2.497-3.583
		c-0.212-1.032-0.51-2.048-0.702-3.084c-0.11-0.591-0.188-1.187-0.27-1.832c-0.086-0.669,0.408-1.265,1.02-1.554
		c1.314-0.62,1.249-1.828,0.551-3.484c-0.571-1.354-0.853-2.835-1.212-4.415c-0.151-0.661,0.265-1.2,0.918-1.383
		c1.971-0.555,2.126-2.146,1.792-4.047c-0.306-1.726-1.322-3.59,1.187-4.72c0.412-0.188,0.543-1.461,0.457-2.187
		c-0.208-1.783-0.539-3.554-0.861-5.418c-0.114-0.665,0.31-1.416,0.833-1.844c1.265-1.037,1.526-2.583,1.26-4.647
		c-0.273-2.138,0.698-4.418,0.543-6.597c-0.151-2.125-0.682-4.227-1.073-5.896c-0.155-0.657-0.094-1.709,0.114-2.354
		c0.58-1.787,1.041-3.223,1.526-4.651c1.028-3.011,0.474-6.577,3.407-8.96c0.583-0.477,0.686-2.052,0.429-2.958
		c-0.469-1.677,0.135-2.48,1.424-3.129c0.604-0.302,1.195,0.065,1.289,0.735c0.404,2.835,0.886,5.557,1.028,8.294
		c1.15,22.477,2.379,44.954,3.244,67.442c0.604,15.7,0.792,31.419,0.947,47.131c0.179,17.997,0.392,35.998,0.082,53.991
		c-0.253,14.639-1.016,29.278-2.044,43.884c-0.481,6.818-2.011,13.579-3.272,20.323c-0.853,4.553-2.101,9.028-3.105,13.554
		c-0.53,2.391-1.677,4.998-1.163,7.185c0.689,2.93-0.677,5.3-0.689,7.919c-0.004,0.519,0.583,1.045,1.228,1.628
		c0.502,0.453,0.73,1.384,0.551,2.032c-0.192,0.697-0.396,1.428-0.604,2.175c-0.179,0.652-0.763,1.521-1.232,2.007
		c-1.53,1.592-2.514,3.705-2.713,5.994c-0.037,0.408,0.065,0.734,0.249,0.979c0.343,0.457,0.967,0.874,1.265,1.2
		s0.693,0.538,0.743,0.637c0.049,0.102,0.498,0.044,1.016-0.131c0.335-0.114,0.649-0.249,0.857-0.478
		c0.261-0.285,0.49-0.608,0.722-0.976c0.359-0.566,0.751-1.187,0.91-1.366c0.159-0.18,0.123,0.195-0.016,0.856
		c-4.753,22.583,0.971,18.029,1.501,17.312c0.4-0.543,0.73-0.437,0.718,0.241c-0.057,3.398-0.433,6.731-0.563,10.008
		c-0.028,0.678-0.151,1.759-0.293,2.42l-1.493,6.915c-0.298,1.379,1.069,2.212,2.084,1.935c0.653-0.176,0.955-0.571,1.045-0.311
		c0.089,0.261,0.596,0.122,1.032-0.392c2.664-3.158,1.742-7.328,2.774-11.437c0.163-0.656,0.351-0.624,0.359,0.054
		c0.028,3.329,0.155,6.173-0.037,9c-0.583,8.646-1.208,17.287-1.832,25.933c-0.632,4.916-1.265,9.837-1.893,14.753
		c-0.086,0.669-0.404,1.403-0.547,1.738c-0.082,0.188-0.126,0.399-0.13,0.645c-0.004,0.494,0,0.987,0.004,1.478
		c0.008,0.677-0.049,1.767-0.139,2.439c-0.102,0.808-0.208,1.615-0.31,2.424c-0.041,0.318,0.004,0.583,0.106,0.799
		c0.196,0.404,0.604,1.103,0.657,1.775c0.082,1.081,0.179,2.158,0.29,3.239c0.069,0.673,0.118,1.697,0.102,2.289
		c-0.012,0.359-0.021,0.714-0.033,1.073c-0.021,0.689,0.069,1.473,0.388,2.061c0.236,0.428,0.555,0.815,0.894,1.187
		c0.453,0.502,1.244,0.56,1.783,0.147c0.461-0.351,0.869-0.71,0.947-1.13c0.849-4.562,1.905-9.144,2.101-13.754
		c0.861-20.009,3.497-25.268,3.562-14.06c0.02,3.513,0.016,7.025,0.004,10.538c0,0.678-0.167,1.396-0.265,1.665
		c-0.057,0.155-0.09,0.326-0.09,0.51c0.008,4.594,0.012,9.188,0.021,13.782c0,0.449,0.155,0.8,0.392,1.053
		c0.44,0.461,1.195,0.816,1.514,1.15c0.241,0.253,0.502,0.429,0.702,0.421c0.6-0.021,1.587-0.727,1.698-1.281
		c0.212-1.077,0.469-2.158,0.729-3.244c0.159-0.656,0.531-1.375,0.674-1.701c0.077-0.184,0.126-0.396,0.126-0.637
		c0,0,0-0.24,0-0.538s0.118-1.077,0.237-1.742c0.322-1.783,0.51-3.558,0.379-5.305c-1.538-20.877-1.759-53.77-1.611-49.449
		c0.021,0.6,0.236,1.191,0.478,1.783c0.253,0.628,0.465,1.231,0.518,1.334c0.054,0.102,0.123,0.424,0.266,0.673
		s0.624,0.861,0.963,1.448c0.024,0.041,0.045,0.082,0.069,0.119c0.339,0.583,0.804,0.987,1.04,0.894
		c0.232-0.095,0.641-0.67,0.857-1.311c2.138-6.274,0.343-12.852,0.57-19.616c0.024-0.678,0.453-0.837,0.923-0.351
		c0.645,0.669,1.216,1.301,1.856,2.023c0.448,0.506,0.909,0.384,1.057-0.277c0.354-1.607,0.71-2.836,0.686-4.056
		c-0.009-0.318-0.017-0.637-0.033-0.955c-0.021-0.526,0.024-1.293,0.004-1.709s-0.163-1.289-0.216-1.967
		c-0.131-1.795-0.294-3.595-0.44-5.39c-0.078-0.926-0.355-1.774-0.445-2.66c-0.065-0.673,0.249-1.555,0.522-1.963
		c0.163-0.248,0.326-0.493,0.489-0.742c0.396-0.6,0.567-1.281,0.56-1.967c-0.013-0.677,0.021-1.722,0.077-2.395
		c0.037-0.445,0.004-0.902-0.11-1.354c-0.179-0.706-0.358-1.412-0.534-2.122c-0.077-0.306-0.191-0.592-0.339-0.856
		c-0.249-0.449-0.661-1.285-0.819-1.942c-0.106-0.44-0.217-0.877-0.323-1.313c-0.158-0.657,0.209-1.448,0.747-1.856
		c0.767-0.583,0.433-0.869-0.519-2.391c-0.583-0.931-0.354-2.428-0.317-3.664c0.057-1.783,0.51-3.574,0.379-5.333
		c-0.294-3.933-0.701-7.874-1.33-11.767c-0.518-3.202-1.277-6.389-2.175-9.51c-5.536-19.209-5.304-38.903-5.071-58.605
		c0.232-19.507,0.236-39.018,0.682-58.516c0.408-17.915,0.914-35.842,2.007-53.725c1.322-21.583,3.313-43.126,5.027-64.685
		c0.126-1.579,0.232-3.264,1.962-3.244c0.678,0.008,1.159,0.763,1.191,1.44c0.151,3.35,1.686,6.108,3.537,8.833
		c0.519,0.763,0.144,2.317-0.154,3.419c-0.478,1.767-0.902,3.391,0.93,4.015c0.641,0.216,1.057,0.763,0.89,1.416
		c-0.412,1.6-0.787,3.101-1.229,4.582c-0.477,1.599-0.648,3.031,0.535,3.807c0.566,0.371,1.102,0.995,0.959,1.656
		c-0.661,3.105-2.783,6.071-0.898,9.4c0.335,0.587,0.515,1.53,0.273,2.158c-0.433,1.122-0.93,2.399-1.053,3.709
		c-0.118,1.281,0.783,2.631,1.069,3.986c0.232,1.089,0.392,2.248,0.281,3.346c-0.175,1.767-0.44,3.484,1.485,3.893
		c0.661,0.143,1.02,0.596,0.775,1.228c-0.51,1.318-0.991,2.57-1.481,3.819c-1.228,3.129-0.95,4.202,1.975,4.741
		c0.665,0.123,1.028,0.694,0.8,1.326c-0.306,0.845-0.604,1.665-0.885,2.493c-0.596,1.738-1.311,3.456-1.693,5.243
		c-0.172,0.795,0.163,2.35,0.587,2.477c0.816,0.241,1.873-0.261,2.808-0.522c0.195-0.053,0.367-0.192,0.677-0.281
		c0.388-0.114,0.556,0.432,0.347,1.077c-0.849,2.611-1.664,5.231-2.603,7.81c-0.865,2.378-0.796,3.215,1.428,4.047
		c0.633,0.236,1.004,0.906,0.804,1.554c-0.82,2.667-1.604,5.348-2.521,7.976c-0.648,1.856-1.664,3.586-2.301,5.442
		c-0.217,0.633-0.021,1.742,0.429,2.175c0.42,0.404,1.685,0.539,2.13,0.2c1.737-1.318,3.316-2.848,4.912-4.346
		c0.289-0.269,0.542-0.579,0.845-0.869c0.485-0.461,0.873-0.143,0.71,0.515c-0.551,2.203-1.139,4.402-1.514,6.634
		c-0.099,0.592,0.081,1.232,0.289,1.873c0.208,0.645,0.865,0.971,1.506,0.755c0.612-0.204,1.199-0.433,1.514-0.861
		c4.3-5.806,8.466-11.714,12.668-17.589c0.331-0.461,0.649-0.93,1.073-1.346c0.481-0.473,0.828-0.208,0.624,0.437
		c-0.236,0.763-0.469,1.525-0.542,2.305c-0.037,0.396,0.061,0.804,0.191,1.216c0.208,0.645,0.91,1.024,1.566,0.861
		c0.494-0.123,0.963-0.278,1.31-0.576c0.768-0.665,1.225-1.701,1.775-2.603c4.234-6.968,8.458-13.941,12.819-21.134
		c0.351-0.58,0.779-0.522,0.959,0.13c0.216,0.788,0.424,1.526,0.628,2.265c0.18,0.652,0.146,1.697-0.09,2.33
		c-0.273,0.738-0.555,1.534-0.661,2.354c-0.053,0.408,0.078,0.84,0.249,1.281c0.245,0.628,0.91,0.873,1.485,0.542
		c0.379-0.22,0.722-0.457,0.886-0.788c3.211-6.381,6.315-12.815,9.449-19.237c0.24-0.498,0.477-0.996,0.808-1.473
		c0.388-0.555,0.812-0.351,0.791,0.322c-0.021,0.767-0.036,1.53,0.069,2.281c0.049,0.343,0.213,0.669,0.408,0.992
		c0.311,0.51,0.938,0.685,1.399,0.392c0.311-0.196,0.584-0.408,0.693-0.686c1.628-4.092,3.207-8.205,4.668-12.358
		c0.686-1.946,1.188-3.954,2.032-5.961c0.261-0.624,0.636-0.583,0.791,0.074c0.191,0.808,0.384,1.611,0.575,2.419
		c0.155,0.657,0.519,1.216,0.808,1.244c0.29,0.029,0.747-0.449,1.045-1.057c0.579-1.163,1.199-2.317,1.432-3.545
		c0.865-4.537,1.689-9.082,2.501-13.631c0.119-0.665,0.457-1.693,0.715-2.317c1.228-2.979,1.688-6.173,1.636-9.417
		c-0.013-0.677-0.017-1.383,0.021-1.579c0.021-0.118,0.041-0.237,0.065-0.359c0.392-2.167,0.783-4.333,1.306-6.471
		c0.114-0.465,0.375-0.889,0.693-1.395c0.363-0.571,0.963-0.6,1.362-0.057c0.461,0.628,0.832,1.134,1.204,1.64
		c0.828,1.061,1.652,2.117,2.48,3.178c0.416,0.534,0.734,1.514,0.8,2.187c0.135,1.412,0.677,2.448,2.925,2.358
		c0.4-0.016,0.849,1.228,1.318,2.412c0.249,0.628,0.693,1.044,0.987,0.938c0.294-0.106,0.448,0.273,0.343,0.853
		c-0.106,0.579-0.065,1.105,0.09,1.179c0.154,0.073,0.534-0.359,0.885-0.935c0.4-0.657,0.779-1.314,0.714-1.921
		c-0.289-2.734-1.538-5.121-3.41-7.226c-1.498-1.681-3.22-3.398-2.595-5.879c0.163-0.657,0.987-1.085,1.619-0.84
		c1.954,0.767,2.379,2.558,2.636,4.508c0.09,0.669,0.433,0.747,0.718,0.131c1.062-2.301,0.445-3.48-1.558-5.141
		c-1.024-0.849-3.207-0.958-3.02-3.248c0.021-0.249-2.191-0.946-3.374-0.963c-1.82-0.024-2.705-0.983-3.403-2.411
		c-1.469-2.999-3.929-4.492-7.152-5.279c-3.402-0.833-6.728-2.061-10.004-3.333c-4.933-1.917-9.678-4.402-14.721-5.94
		c-5.609-1.709-7.952-6.067-8.915-10.845c-1.31-6.516-1.46-13.268-2.064-19.918c-0.317-3.505-0.469-7.026-0.84-10.526
		c-0.396-3.709,0.828-4.321,4.398-3.954c2.913,0.298,5.854,2.477,8.943,0.514c0.302-0.192,0.958,0.139,1.439,0.269
		c0.592,0.159,1.229,0.625,1.751,0.51c4.039-0.877,7.846,0.151,11.66,1.228c0.241,0.069,0.547,0.069,0.779-0.017
		c4.762-1.771,9.747-1.31,14.676-1.64c5.418-0.363,10.788-1.795,16.198-1.917c2.696-0.061,5.116-1.975,7.911-0.849
		c0.481,0.192,1.269-0.49,1.941-0.632c0.942-0.204,1.91-0.314,2.868-0.396c0.429-0.037,0.976,0.294,1.285,0.126
		c1.959-1.065,3.717-0.6,5.708,0.106c0.629,0.22,1.562-0.433,2.615-1.073c0.58-0.351,1.481-0.237,1.979,0.216
		c0.641,0.583,1.407,1.252,2.284,1.706c1.583,0.816,2.514,0.208,2.828-1.261c0.139-0.661,0.575-0.922,1.134-0.539
		c0.82,0.563,1.493,1.041,2.235,1.334c0.968,0.379,2.403,0.869,3.048,0.44c0.715-0.477,0.89-1.926,1.053-2.991
		c0.058-0.379-0.016-0.775-0.045-1.22c-0.045-0.673,0.506-0.812,0.979-0.326c2.203,2.276,4.402,4.557,6.613,6.826
		c0.429,0.441,0.882,0.947,1.429,1.163c0.681,0.27,1.705,0.604,2.142,0.294c0.44-0.314,0.616-1.457,0.44-2.109
		c-0.367-1.358-0.885-2.672-1.387-3.994c-0.241-0.633-0.273-1.285-0.082-1.453c0.196-0.167,0.751,0.078,1.24,0.542
		c2.057,1.95,4.117,3.9,6.161,5.859c0.946,0.906,1.75,2.024,2.827,2.717c0.694,0.449,1.853,0.559,2.636,0.302
		c0.343-0.11,0.294-1.51,0.372-2.326c0.02-0.216-0.017-0.441-0.074-0.849c-0.069-0.469,0.294-0.481,0.792-0.024
		c2.33,2.117,4.386,3.966,6.401,5.851c1.987,1.856,3.782,2.22,5.386,0.8c0.506-0.449,1.212-0.526,1.693-0.057
		c2.231,2.174,4.435,4.329,6.646,6.475c2.521,2.448,4.944,5.014,7.625,7.278c1.236,1.044,2.697,2.248,4.713,1.489
		c0.632-0.236,0.795-1.036,0.444-1.616c-2.293-3.762-4.554-7.475-6.813-11.183c-0.351-0.575-0.571-1.126-0.485-1.224
		c0.085-0.098,0.534,0.212,1.012,0.689c0.302,0.302,0.607,0.6,0.926,0.881c2.901,2.542,5.899,4.982,8.711,7.622
		c2.688,2.525,5.092,5.361,7.801,7.858c1.991,1.832,4.231,3.415,6.471,4.945c0.511,0.351,2.04,0.236,2.126-0.008
		c0.281-0.8,0.449-1.95,0.065-2.627c-2.436-4.301-5.022-8.511-7.576-12.746c-0.665-1.102-1.367-2.183-2.31-3.656
		c-0.363-0.571-0.159-0.804,0.465-0.539c1.538,0.649,2.742,1.077,3.741,1.787c2.877,2.04,5.558,4.354,8.405,6.438
		c3.537,2.591,7.087,5.177,10.796,7.503c0.697,0.437,1.688,0.404,2.672,0.383c0.678-0.012,1.09-0.518,0.967-1.183
		c-0.143-0.783-0.298-1.562-0.729-2.125c-3.95-5.194-8.051-10.278-12.09-15.406c-0.15-0.192-0.281-0.404-0.403-0.62
		c-0.204-0.359-0.262-0.783-0.127-0.947c0.135-0.163,0.689,0.017,1.24,0.408c2.33,1.648,4.651,3.309,7.021,4.9
		c1.082,0.726,2.257,1.383,3.484,1.787c0.616,0.204,1.596-0.045,2.109-0.461c0.27-0.22,0.082-1.383-0.253-1.881
		c-1.566-2.342-3.108-4.725-4.933-6.863c-9.526-11.163-20.106-21.265-31.159-30.877c-1.803-1.894-3.639-3.758-5.504-5.59
		c-0.48-0.473-0.322-0.857,0.355-0.857c0.18,0,0.359,0,0.547,0c0.677,0,0.901-0.445,0.53-1.008
		c-0.416-0.632-0.747-1.142-1.195-1.505c-6.401-5.112-12.873-10.139-19.278-15.243c-2.99-2.383-5.688-5.198-8.874-7.263
		c-5.055-3.272-10.298-6.25-15.565-9.323c-0.583-0.343-1.325-0.897-1.692-1.212c-0.363-0.314-0.065-0.987-0.384-1.583
		c-0.6-1.126-3.284-2.542-5.116-2.799c-0.669-0.094-1.702-0.175-2.322-0.449c-3.908-1.726-16.973-7.201-23.513-8.396
		c-1.518-0.277-2.338,0.828-0.408-1.024c1.453-1.396,0.604-0.767-2.57-1.579c-0.652-0.167-0.481-0.355-0.175-0.959
		c0.253-0.502,0.024-1.163-0.478-1.493c-0.73-0.485-1.734-1.057-2.493-0.918c-4.528,0.824-8.707-0.11-12.827-1.958
		c-5.978-2.681-12.143-4.582-18.703-2.264c-5.316,1.876-10.562,3.961-15.818,6.005c-2.301,0.894-4.553,1.906-6.825,2.873
		c-6.161,2.624-12.102,1.191-17.622-1.612c-6.997-3.549-13.884-7.401-20.465-11.668c-4.325-2.807-5.541-7.879-6.197-12.705
		c-0.873-6.43-3.718-12.081-6.414-17.777c-1.302-2.746-3.301-4.814-5.651-6.5c-0.542-0.375-1.354-1.089-1.844-1.554
		c-1.448-1.375-3.215-2.334-5.182-2.705c-0.665-0.126-1.73-0.339-2.379-0.526c-2.762-0.795-5.646-0.996-8.527-0.792
		c-7.381,0.522-14.655,1.815-21.314,5.414c-2.599,1.403-5.251,2.709-7.878,4.068c-0.6,0.31-1.604,0.726-2.244,0.946
		c-5.21,1.771-10.184,4.239-14.757,7.381c-0.714,0.49-1.208,1.118-1.51,1.799c-0.269,0.62-0.457,1.273-0.624,1.396
		c-0.102,0.073-0.2,0.151-0.298,0.224c-1.412,1.106-1.469,2.428,0.008,3.978c2.187,2.297,4.753,3.174,7.785,3.309
		c2.733,0.118,5.459,0.396,8.188,0.596c5.924,0.432,11.265,2.762,16.434,5.39c4.321,2.191,4.243,7.43-0.029,9.845
		c-5.218,2.954-10.53,5.745-15.826,8.56c-3.187,1.697-6.312,3.57-9.653,4.9c-4.325,1.718-8.886,1.579-13.227-0.053
		c-7.34-2.758-14.639-5.643-21.877-8.654c-6.006-2.497-11.983-2.791-18.018-0.367c-0.494,0.196-0.979,0.408-1.464,0.628
		c-0.616,0.277-1.657,0.465-2.33,0.522c-0.738,0.062-1.473,0.221-2.195,0.498c-1.428,0.546-2.848,1.109-4.268,1.681
		c-0.628,0.253-1.396,0.49-1.689,0.6c-0.293,0.11-0.926,0.469-1.473,0.698c-0.547,0.228-1.51,0.184-2.187,0.212
		c-2.052,0.09-4.867,1.897-6.259,3.011c-0.526,0.42-1.351,1.085-1.971,1.363c-4.316,1.946-13.244,5.813-15.953,7.042
		c-1.95,0.885-27.185,13.741-33.305,18.176c-2.297,1.665-3.974,4.166-6.165,6.01c-4.325,3.635-9.033,6.834-13.154,10.677
		c-2.974,2.774-5.21,6.324-7.854,9.466c-1.016,1.208-2.187,2.305-3.39,3.329c-13.248,11.269-24.611,24.284-35.149,38.046
		c-0.648,0.849-0.963,1.95-1.301,3.036c-0.2,0.645,0.147,1.073,0.82,1.008c1.11-0.11,2.228-0.204,3.187-0.649
		c1.652-0.763,3.052-2.068,4.574-3.121c0.53-0.367,1.073-0.722,1.73-0.946c0.641-0.221,0.853,0.188,0.424,0.71
		c-2.163,2.636-4.366,5.243-6.41,7.964c-1.359,1.812-2.538,3.791-3.513,5.831C47.384,165.278,47.682,166.551,48.164,167.228z
		 M291.601,580.038c-0.171,0.021-0.147,0,0.028-0.098c0.176-0.099,0.281-0.159,0.281-0.082S291.772,580.018,291.601,580.038z
		 M280.613,581.091c-0.077-0.307,0.029-0.466,0.241-0.416c0.212,0.049,0.282,0.261,0.151,0.514
		C280.875,581.445,280.691,581.396,280.613,581.091z"/>
</g>
<g>
</g>
<g>
</g>
<g>
</g>
<g>
</g>
<g>
</g>
<g>
</g>
<g>
</g>
<g>
</g>
<g>
</g>
<g>
</g>
<g>
</g>
<g>
</g>
<g>
</g>
<g>
</g>
<g>
</g>
</svg>
