<?xml version="1.0" encoding="iso-8859-1"?>
<!-- Generator: Adobe Illustrator 16.0.0, SVG Export Plug-In . SVG Version: 6.00 Build 0)  -->
<!DOCTYPE svg PUBLIC "-//W3C//DTD SVG 1.1//EN" "http://www.w3.org/Graphics/SVG/1.1/DTD/svg11.dtd">
<svg version="1.1" id="Capa_1" xmlns="http://www.w3.org/2000/svg" xmlns:xlink="http://www.w3.org/1999/xlink" x="0px" y="0px"
	 width="593.943px" height="593.942px" viewBox="0 0 593.943 593.942" style="enable-background:new 0 0 593.943 593.942;"
	 xml:space="preserve">
<g>
	<g>
		<path d="M457.429,325.734c-12.823-40.388-29.702-78.813-56.777-112.061c-7.381-9.065-14.3-18.519-21.224-27.944
			c-13.975-19.013-22.102-40.771-25.455-63.693c-3.276-22.411-8.07-44.068-17.059-64.855c-1.135-2.62-0.983-6.467,0.032-9.205
			c2.521-6.797,9.103-13.799,8.148-19.768c-1.367-8.548,2.011-12.913,6.479-18.278c0.665-0.796,0.91-1.942,1.061-3.167
			c0.225-1.856-1.122-3.729-3.003-4.194c-1.276-0.318-2.497-0.498-3.443-0.074c-16.984,7.618-35.251,13.562-50.192,24.158
			c-10.832,7.679-20.289,11.041-32.015,7.267c-19.56-6.292-38.593-5.333-57.867,1.048c-3.676,1.216-9.009,1.163-12.256-0.657
			c-18.687-10.457-37.03-21.526-55.463-32.432C136.635,0.84,134.379,0,133.359,0s-1.248,1.542-0.567,3.468
			c0.795,2.256,1.612,4.496,2.872,6.455c4.57,7.099,12.693,12.591,8.409,23.179c-0.722,1.787,1.195,5.797,3.076,7.291
			c10.518,8.344,8.05,19.915,5.251,29.376c-5.133,17.34-6.577,34.692-3.66,52.02c2.289,13.599-0.987,25.219-5.431,37.585
			c-3.672,10.212-5.957,21.306-6.577,32.143c-0.983,17.217-1.037,34.619,0.31,51.804c1.436,18.299,4.422,36.532,7.723,54.611
			c3.354,18.393,8.258,36.504,11.799,54.867c1.844,9.564-0.229,20.641,3.889,28.809c4.729,9.385,4.871,18.08,4.341,27.516
			c-1.146,20.535,1.232,40.662,14.737,56.773c12.301,14.676,21.71,31.967,39.013,42.518c10.926,6.658,9.988,15.826-1.636,21.984
			c-7.752,4.104-16.622,6.176-25.092,8.832c-10.331,3.24-16.781,12.221-16.092,23.016c0.49,7.666,4.529,11.963,13.766,14.324
			c1.979,0.506,2.583-0.518,1.383-2.17c-6.916-9.572-7.152-14.578-0.677-19.281c1.652-1.201,3.398-0.34,3.892,1.643
			c1.706,6.83,3.982,7.055,12.742,4.064c3.109-1.061,6.226-2.105,8.984-3.027c1.938-0.648,4.382,0.232,5.455,1.967
			c1.546,2.496,2.946,4.758,4.3,6.936c1.077,1.734,2.391,2.945,2.938,2.705s0.991-2.094,0.991-4.133v-9.988
			c0-2.043,0.857-2.281,1.914-0.533c0.987,1.631,1.836,3.031,2.726,4.508c1.057,1.746,3.084,1.994,4.529,0.551
			c3.199-3.199,6.03-6.047,8.898-8.854c2.599-2.547,5.23-5.064,7.862-7.58c1.477-1.412,2.521-0.887,1.824,1.031
			c-0.453,1.24-1.008,2.387-1.506,3.559c-7.299,17.18-2.134,35.047,13.301,45.553c0.555,0.379,1.33,0.436,2.15,0.424
			c1.232-0.02,1.159-1.301-0.057-2.941c-4.565-6.148-7.54-12.779-5.471-21.307c0.481-1.986,2.179-2.211,3.9-1.113
			c4.713,3.016,7.928-0.637,10.787-4.65c3.566-5.002,6.863-10.221,9.964-15.525c3.884-6.643,9.18-11.656,17.1-9.869
			c9.106,2.057,18.919,4.182,21.697,15.619c1.718,7.07,5.63,12.121,13.174,13.887c1.294,0.303,2.493,1.008,3.966,1.906
			c1.742,1.064,1.881,2.889,0.281,4.158c-1.762,1.398-3.166,2.512-4.65,3.512c-1.335,0.898-2.738,1.686-4.378,2.6
			c-1.787,0.99-1.571,1.934,0.469,2.008c14.558,0.518,17.883-3.072,19.087-17.891c0.477-5.904,0.248-11.865,0.143-17.182
			c-0.041-2.041,1.008-2.42,2.309-0.846c7.822,9.451,16.646,19.812,24.925,30.598c4.893,6.373,10.865,10.057,18.626,10.357
			c8.592,0.332,17.205,0.148,26.658,0.1c2.04-0.01,3.473-1.648,3.194-3.672c-2.382-17.488-4.361-32.828-6.683-48.117
			c-1.229-8.082-0.836-15.344,2.917-23.121c5.312-11.016,9.511-22.717,12.868-34.496c9.548-33.469,11.245-67.777,10.249-102.338
			c-0.057-2.041,1.171-2.844,2.754-1.787s2.628,0.273,2.33-1.75c-1.057-7.197-2.008-13.686-2.995-20.418
			c-0.298-2.02,0.674-2.529,2.167-1.137c0.204,0.191,0.403,0.375,0.6,0.559c1.493,1.395,3.179,2.326,3.766,2.08
			c0.588-0.244,0.8-2.076,0.53-4.104C460.375,341.189,459.792,333.182,457.429,325.734z"/>
	</g>
</g>
<g>
</g>
<g>
</g>
<g>
</g>
<g>
</g>
<g>
</g>
<g>
</g>
<g>
</g>
<g>
</g>
<g>
</g>
<g>
</g>
<g>
</g>
<g>
</g>
<g>
</g>
<g>
</g>
<g>
</g>
</svg>
