<?xml version="1.0" encoding="iso-8859-1"?>
<!-- Generator: Adobe Illustrator 16.0.0, SVG Export Plug-In . SVG Version: 6.00 Build 0)  -->
<!DOCTYPE svg PUBLIC "-//W3C//DTD SVG 1.1//EN" "http://www.w3.org/Graphics/SVG/1.1/DTD/svg11.dtd">
<svg version="1.1" id="Capa_1" xmlns="http://www.w3.org/2000/svg" xmlns:xlink="http://www.w3.org/1999/xlink" x="0px" y="0px"
	 width="563.784px" height="563.784px" viewBox="0 0 563.784 563.784" style="enable-background:new 0 0 563.784 563.784;"
	 xml:space="preserve">
<g>
	<g>
		<path d="M504.997,93.179c7.805-2.448,15.609-4.892,23.42-7.34c-25.918,2.795-50.381,10.755-73.408,22.387
			c-24.795,12.525-48.314,27.642-73.398,39.506c-20.119,9.519-36.66,22.718-51.637,38.589c-7.59,8.042-16.158,15.296-22.848,24.003
			c-5.428,7.062-8.891,15.683-12.869,23.786c-1.941,3.954-3.061,8.311-5.312,14.619c-1.836-4.839-3.867-7.581-3.691-10.18
			c0.828-12.35-4.999-22.566-10.36-32.709c-9.135-17.279-18.911-34.231-28.858-51.057c-2.685-4.545-7.209-7.96-10.449-12.232
			c-5.304-6.998-9.225-15.377-15.553-21.188c-12.22-11.22-21.865-24.199-30.784-37.944c-3.962-6.108-5.626-6.349-16.181-3.656
			c-6.23-5.839-10.192-11.685-8.266-21.555c2.407-12.358-9.343-24.431-22.604-26.52c-2.383-0.375-4.276-3.664-6.471-5.516
			c-5.451-4.594-9.111-12.779-18.617-9.372c-0.412,0.147-1.338-0.065-1.465-0.355c-4.406-10.041-13.831-3.431-20.461-6.087
			c-0.498-0.2-1.62,1.167-2.946,2.187C89.228-2.252,79.073,6.189,72.21,6.426c0,4.888,1.146,10.6-0.445,15.398
			c-0.906,2.729-6.291,3.974-11.53,6.948C70.868,15.904,66.168,4.904,48.11,0c1.665,8.127,2.64,15.369,4.708,22.277
			c1.946,6.495,0.975,10.792-5.928,12.771c3.276-11.22-2.62-22.885-15.794-29.405c0.265,3.187,0.253,5.716,0.714,8.16
			c5.182,27.552,18.083,51.334,35.928,72.6c9.013,10.738,18.368,21.188,27.507,31.82c0.824,0.963,1.506,2.24,1.763,3.472
			c3.978,19.217,15.989,32.905,29.739,46.063c21.453,20.535,42.481,41.587,62.559,63.456c13.97,15.21,18.984,35.203,21.815,55.064
			c1.367,9.596-1.424,19.784-2.411,30.519c-3.562-7.634-6.793-14.893-10.326-22c-2.036-4.092-4.215-8.196-6.932-11.848
			c-6.414-8.617-13.848-15.166-25.904-11.049c-11.877,4.051-21.163,11.448-22.726,23.994c-1.351,10.833-5.875,19.535-11.693,28.01
			c-13.705,19.963-25.696,40.747-31.359,64.569c-1.057,4.447-1.138,9.132-1.669,13.705c0.829,0.188,1.657,0.375,2.485,0.563
			c0.918-2.596,2.179-5.125,2.705-7.797c6.153-31.196,24.904-54.154,48.658-73.566c9.938-8.128,16.295-6.871,23.056,4.174
			c14.386,23.488,34.011,38.915,61.237,45.699c7.038,1.755,13.758,9.678,18.095,16.398c9.76,15.116,13.395,32.007,10.433,50.266
			c-5.646,34.79-18.992,66.283-39.103,95.067c-1.036,1.485-1.669,3.252-1.114,5.933c6.659-9.106,13.313-18.217,20.71-28.34
			c2.187,14.309,4.104,26.867,6.022,39.421c0.637-0.062,1.273-0.118,1.91-0.18c-0.963-13.288-1.93-26.573-2.893-39.861
			c1.326-0.122,2.647-0.245,3.974-0.363c1.085,10.225,2.236,20.44,3.203,30.674c0.241,2.533,6.728,15.663,9.25,18.593
			c0.979,1.138,1.146,2.974,1.665,4.496c0,0,4.819,5.418-4.117-22.208c0,0-7.311-34.937,0.812-11.375
			c8.124,23.562,16.81,27.626,16.81,27.626s0.661-0.812-3.807-8.939s-11.375-23.154-10.155-28.842
			c1.22-5.688,11.779-21.529,10.967,3.656s1.93,3.252,2.995,2.031c1.065-1.22,0-17.874,12.481-57.323
			c3.904-12.343,9.902-23.934,14.395-36.071c1.256-3.399,1.953-7.646,1.117-11.065c-3.918-16.01-2.469-31.388,3.969-46.271
			c9.455,1.249,18.977,2.774,28.561,3.681c6.818,0.645,8.65-1.775,5.324-7.793c-5.479-9.927-12.027-19.258-17.805-29.029
			c-4.627-7.821-4.848-16.626-3.043-25.116c1.41-6.63,4.125-12.856,0.314-19.515c-0.719-1.253-0.977-3.187-0.602-4.578
			c4.631-17.209,7.402-35.337,14.963-51.167c4.125-8.637,8.016-17.654,12.447-26.279c3.406-6.634,7.842-12.807,10.652-19.662
			c5.354-13.048,17.01-19.054,27.586-26.336c14.014-9.653,29.389-17.752,41.93-29.021c14.006-12.587,30.008-20.526,46.949-27.168
			c14.305-5.61,29.07-10.033,43.602-15.068c2.746-0.951,5.354-2.301,7.949-3.431c-9.172,0-18.123,0-27.076,0
			C505.401,93.791,505.2,93.485,504.997,93.179z M298.92,430.265c-4.285,12.31-5.219,25.745-8.977,38.282
			c-3.338,11.146-8.543,21.73-12.913,32.53c-3.66-3.211-5.753-6.618-7.895-6.65c-8.739-0.127-9.323-6.23-8.233-11.727
			c3.562-17.943,7.585-35.826,12.26-53.513c2.265-8.568,2.599-15.839-2.338-23.848c-4.794-7.772-7.658-16.736-11.991-26.589
			c9.894-0.453,17.442-1.485,24.891-1c16.754,1.089,18.947,4.015,19.777,20.89C304.036,409.555,302.575,419.75,298.92,430.265z"/>
	</g>
</g>
<g>
</g>
<g>
</g>
<g>
</g>
<g>
</g>
<g>
</g>
<g>
</g>
<g>
</g>
<g>
</g>
<g>
</g>
<g>
</g>
<g>
</g>
<g>
</g>
<g>
</g>
<g>
</g>
<g>
</g>
</svg>
