<?xml version="1.0" encoding="iso-8859-1"?>
<!-- Generator: Adobe Illustrator 16.0.0, SVG Export Plug-In . SVG Version: 6.00 Build 0)  -->
<!DOCTYPE svg PUBLIC "-//W3C//DTD SVG 1.1//EN" "http://www.w3.org/Graphics/SVG/1.1/DTD/svg11.dtd">
<svg version="1.1" id="Capa_1" xmlns="http://www.w3.org/2000/svg" xmlns:xlink="http://www.w3.org/1999/xlink" x="0px" y="0px"
	 width="587.962px" height="587.962px" viewBox="0 0 587.962 587.962" style="enable-background:new 0 0 587.962 587.962;"
	 xml:space="preserve">
<g>
	<path d="M569.756,76.33c-1.224-2.142-4.59-3.978-5.508-6.12c-4.896-9.792-13.158-15.912-16.523-27.54
		c-0.612-2.448-2.754-5.508-4.896-6.732c-14.994-9.792-20.808-29.07-43.452-31.518c-2.447-0.306-3.366-3.366-5.813-4.284
		c-0.307,0-0.307,0-0.612,0c-2.448-0.612-5.813,0.918-6.426,3.06c-0.612,2.142-4.284,2.448-6.732,2.754
		c-14.076,1.836-21.113,10.404-29.069,18.36c-1.837,1.836-4.284,5.202-5.202,7.344c-3.979,9.486-6.732,20.196-5.508,34.884
		c0.918,11.934,7.956,28.152,12.852,41.004c9.792,24.174,22.032,47.124,24.48,79.254c0.611,6.12,0.611,13.77-1.837,19.89
		c-0.918,2.448-4.283,3.366-6.119,1.836c-3.366-3.06-4.896-7.65-7.65-11.322c-7.344-9.18-18.36-17.748-29.376-26.01
		c-14.076-11.016-26.316-20.196-43.146-27.234c-6.731-2.754-11.628-2.142-20.502-3.366c-11.628-1.53-24.479-6.426-38.25-8.874
		c-10.71-1.836-24.785-3.06-35.496-3.366c-9.18-0.306-24.174,3.978-31.518,0.612c-3.978-1.836-3.672-7.344-6.12-13.77
		c-2.448-6.732-8.568-19.278-11.628-24.48c-3.06-5.814-8.262-12.852-12.852-19.89c-8.568-12.24-18.666-24.174-29.376-34.884
		c-5.508-5.508-10.404-12.546-15.606-16.524c-2.142-1.53-10.098-6.12-13.77-6.12c-9.792,0-13.158,7.65-17.748,14.688
		c-1.53,2.142-4.59,3.06-7.344,3.06c-8.568-0.918-17.442,2.448-22.95,7.65c-3.366,3.366-4.896,9.486-8.874,12.852
		c-2.142,1.836-5.202,1.836-7.65,3.366c-9.486,6.732-11.322,17.748-16.218,26.928c-1.224,2.142-4.284,3.978-7.038,4.59
		c-6.12,1.224-10.404,4.284-13.77,7.956c-1.53,1.836-3.366,5.813-3.978,7.956c-3.672,10.098-11.016,17.136-10.098,30.6
		c0.306,2.448-1.224,5.814-3.06,7.344c-10.404,7.956-18.054,17.442-18.972,32.742c-0.306,4.59,2.448,9.18,2.142,13.77
		c0,1.224-0.306,2.754-0.918,3.978c-0.612,2.142-3.366,4.896-5.202,6.426c-8.568,7.956-14.076,18.36-14.382,31.824
		c0.306,12.852,6.426,23.562,14.994,32.436c1.836,1.836,1.836,4.59,0.306,6.426c-9.486,12.546-8.262,32.742,3.672,43.452
		c1.836,1.529,3.672,4.283,3.978,6.119c0.306,1.837,0.612,3.673,0.612,3.979s0,0.612,0,0.612c0,0.306,0,0.611,0.306,0.611
		c0,0.307,0.918,2.754,1.836,4.896c0.306,0.918,0.918,1.836,1.53,2.448c1.224,2.142,1.53,5.201,0.306,7.649
		c-6.426,12.24-4.896,28.764,5.202,38.557c1.836,1.836,3.672,3.06,3.672,3.365c0,0.307-0.612,2.448-0.918,4.896v0.306
		c-0.306,2.448-0.612,5.508-0.612,6.732c0,0.611,0,1.529,0,2.142c0.306,1.224,0.306,2.448,0.612,3.672
		c0.612,1.836,1.836,5.202,3.06,7.65c2.142,4.284,5.508,7.956,9.792,10.71c2.142,1.224,3.978,4.284,4.59,6.731
		c0,0.612,0.306,0.918,0.306,1.53c0.612,2.448,1.53,5.202,1.836,6.426c0.306,0.612,0.612,1.225,0.918,1.836c0,0,0,0.307,0.306,0.307
		c0,0,1.224,2.142,2.754,3.978c3.06,3.672,6.732,6.732,11.628,8.568c2.448,0.918,4.896,3.366,6.12,5.508
		c4.59,8.874,13.158,15.3,26.01,15.3c0.306,0,0.612,0,0.918,0c0.612,0,2.142,1.836,3.672,3.672
		c4.896,5.814,12.24,9.792,22.338,9.792c3.978,0,7.344-0.611,10.404-1.836c2.448-0.918,5.814-1.836,7.344-1.836
		c1.224,0,2.142,0,3.366,0c2.448,0.307,5.202,3.061,3.366,4.896l-0.306,0.306c-1.836,1.836-1.224,5.508,0.612,6.732
		c2.142,1.224,1.53,4.59-0.306,6.731c-4.284,4.896-8.874,9.181-11.016,15.912c-0.918,2.448,0,6.732,2.142,7.65
		c2.754,0.918,6.426,0,10.098,0c2.448,0,4.59,2.754,3.06,4.896c-3.978,6.12-15.3,7.038-13.464,15.606
		c0.612,3.366,4.896,5.202,8.874,5.508c3.978,0.306,7.65-2.754,11.016-2.754c3.06,0,4.284,2.754,7.65,3.979
		c1.53,0.611,3.672,0,4.896,0.611c3.06,1.53,5.202,5.508,8.874,6.12c9.792,1.836,16.83-7.956,24.48-11.628
		c2.142-1.224,4.896,0.918,3.366,3.06c-0.918,1.53-2.448,2.448-3.672,3.673c-1.836,1.836,0.306,6.119,2.754,6.731
		c3.366,0.612,7.344-0.918,10.098-1.836c6.732-2.448,12.546-7.65,18.36-10.098c6.426-2.754,14.382-0.918,21.114-3.061
		c2.448-0.612,6.426-0.918,6.732,1.836c0,1.53-0.306,3.061-0.612,4.59c-0.918,2.448-1.53,6.427,0.306,7.956
		c1.836,1.225,3.978,2.143,4.59,4.896c0.918,3.06-0.612,6.426-0.612,9.792c0,2.448,2.448,5.813,4.589,7.038
		c7.038,3.672,18.055,6.426,29.07,7.038c6.12,0.306,12.853-0.918,15.912,2.142c1.836,1.836,3.979,3.979,6.426,3.979h9.181
		c2.447,0,4.59-1.836,4.59-3.979c0-2.142,1.224-6.12,3.366-6.731c2.142-0.612,4.896-0.918,6.119-2.755
		c0.919-1.224,0.612-2.447,0.307-3.672c-0.307-2.142,2.448-4.59,4.896-4.896c4.59-0.612,9.181,0.306,14.076,0
		c6.426-0.306,12.546-3.061,18.36-2.142c7.649,1.224,12.852,10.098,20.808,11.934c2.448,0.612,6.12-1.225,6.426-3.672
		c0.307-2.448,0.612-5.202,2.143-6.12c1.836-1.53,5.202-0.612,7.956-0.306c2.448,0.306,3.978-3.061,2.754-5.202
		c-2.448-3.672-7.038-6.732-10.71-7.956c-14.994-5.202-41.311-0.918-53.244-11.017c-11.934-10.098-14.382-35.189-12.852-55.998
		c0.306-4.283,1.529-8.874,3.672-12.546c1.529-2.142,5.202-3.366,7.649-3.06c29.376,0.611,48.96-3.672,74.664-7.038
		c9.486-1.225,19.278-6.12,27.234-11.017c7.956-4.896,14.076-12.546,21.113-16.523c6.427-3.366,15.301-5.814,19.891-9.486
		c15.912-13.158,21.42-36.414,29.376-58.14c4.896-13.158,9.486-18.972,10.098-37.026c0.918-21.726,1.225-48.042-1.224-68.237
		c-0.918-6.732-3.979-12.24-4.896-18.36s0.612-11.628,0-16.524c-0.918-7.956-3.978-16.83-6.731-23.868
		c-0.918-2.448-3.672-4.284-4.896-6.732c-1.224-2.448-0.918-5.814-2.142-8.262c-1.53-3.366-5.202-6.12-5.508-10.098
		c-0.307-4.59,4.283-6.732,6.12-13.77c1.224-4.284,0-9.792,0.611-13.77c0.612-3.06,3.061-5.814,3.366-8.262
		c1.836-12.546-7.038-24.48-8.874-37.026c-1.53-10.71-2.142-29.376,8.262-31.518c6.427-1.224,11.322,3.06,16.219,5.508
		c2.142,1.224,5.202-0.918,4.283-3.06V76.33z M359.534,561.34c-4.59,2.142-7.344,0-13.77,0c-5.202,0-10.404,2.142-14.383,2.142
		c-7.037-0.306-19.277-4.59-22.644-7.65c-3.978-3.365-10.403-18.666-8.263-27.233c0.919-3.672,7.039-6.12,10.099-9.486
		c9.486-10.098,16.218-20.196,23.256-30.294c1.53-2.142,3.061-3.672,3.672-3.672c0.612,0,2.143,1.836,3.366,3.978
		c9.18,14.688,20.809,29.376,22.032,50.185c0.306,2.448,1.836,5.813,2.754,8.262C368.103,552.159,364.431,559.197,359.534,561.34z"
		/>
</g>
<g>
</g>
<g>
</g>
<g>
</g>
<g>
</g>
<g>
</g>
<g>
</g>
<g>
</g>
<g>
</g>
<g>
</g>
<g>
</g>
<g>
</g>
<g>
</g>
<g>
</g>
<g>
</g>
<g>
</g>
</svg>
