<?xml version="1.0" encoding="iso-8859-1"?>
<!-- Generator: Adobe Illustrator 16.0.0, SVG Export Plug-In . SVG Version: 6.00 Build 0)  -->
<!DOCTYPE svg PUBLIC "-//W3C//DTD SVG 1.1//EN" "http://www.w3.org/Graphics/SVG/1.1/DTD/svg11.dtd">
<svg version="1.1" id="Capa_1" xmlns="http://www.w3.org/2000/svg" xmlns:xlink="http://www.w3.org/1999/xlink" x="0px" y="0px"
	 width="568.038px" height="568.039px" viewBox="0 0 568.038 568.039" style="enable-background:new 0 0 568.038 568.039;"
	 xml:space="preserve">
<g>
	<g>
		<path d="M9.017,224.641c1.542-5.459,4.439-5.928,10.065-5.508c6.573,0.489,14.108-0.902,19.927-3.962
			c9.176-4.827,17.213-5.716,26.292-0.404c14.072,8.233,28.992,5.769,44.007,2.942c4.333-0.816,9.217-0.078,13.599,0.979
			c9.641,2.317,19.062,5.565,28.711,7.846c3.166,0.747,6.76-0.314,10.996-0.608c-0.012-0.033-0.021-0.065-0.033-0.098
			c2.264,0.367,4.533,0.604,6.805,0.702c1.375,2.26,2.832,4.492,4.378,6.691c8.148,11.579,17.377,22.419,26.479,33.289
			c5.72,6.83,11.265,14.316,18.433,19.273c6.385,4.42,5.916,11.936,11.041,16.582c9.87,8.943,16.618,19.246,9.947,33.342
			c-0.322,0.678-0.204,1.604-0.159,2.406c1.098,20.164,0.249,40.658,9.527,59.496c4.879,9.906,9.669,19.873,14.99,29.543
			c5.141,9.352,12.946,17.816,7.128,29.791c-1.02,2.105-1.526,4.635-1.616,6.994c-0.212,5.752-3.958,6.43-8.352,6.238
			c-13.709-0.604-27.422-1.877-41.126-1.779c-15.051,0.111-30.127,1.135-45.121,2.521c-3.125,0.289-7.352,3.248-8.646,6.084
			c-4.659,10.211,0.796,22.102,12.22,27.576c-1.624-4.643-3.093-8.838-4.721-13.492c7.393-2.562,10.249-12.502,21.816-10.217
			c-2.509,0.992-3.644,1.072-4.006,1.645c-2.432,3.822-5.451,7.523-6.728,11.734c-0.73,2.402,0.686,6.396,2.518,8.424
			c2.933,3.252,6.805,5.836,10.669,8.014c3.913,2.207,8.299,3.586,12.477,5.328c0.31-0.574,0.62-1.154,0.935-1.729
			c-2.403-3.713-4.802-7.43-8.025-12.412c5.896-2.551,10.571-5.838,15.602-6.516c18.576-2.496,37.271-4.145,55.924-6.062
			c1.326-0.135,2.962-0.307,3.999,0.305c12.325,7.295,26.373,6.57,39.788,8.846c9.829,1.67,11.934,5.998,8.282,15.275
			c-0.514,1.307-0.648,2.768-1.285,5.604c4.284-3.033,7.046-6.24,10.408-7.104c6.903-1.775,8.311-6.557,6.132-11.568
			c-2.606-5.988-7.123-11.15-10.392-16.037c1.877,0.578,6.609,0.592,8.724,2.949c7.837,8.756,17.271,8.498,27.441,6.871
			c3.439-0.551,7.026-0.506,10.522-0.314c9.021,0.494,15.749,5.699,20.461,12.566c1.567,2.281-1.134,7.486-1.93,11.596
			c7.911,1.922,10.082-5.293,13.754-10.102c5.761-7.549,3.427-16.803-5.545-19.531c-12.599-3.836-25.414-7.035-38.25-9.992
			c-9.738-2.244-10.991-4.047-7.209-13.607c5.785,1.033,11.559,2.428,17.413,3.008c5.594,0.555,8.348-2.064,6.026-7.879
			c-1.677-4.207-3.655-8.295-5.814-13.15c9.45,2.146,6.1-5.557,7.304-9.094c6.862,1.967,13.228,5.197,19.653,5.328
			c12.097,0.244,17.817,7.078,21.367,17.039c8.091,22.729,22.374,41.256,39.951,57.139c7.589,6.855,17.128,11.547,25.785,17.223
			h8.111c-0.163-2.105,0.384-4.656-0.612-6.234c-3.59-5.691-7.703-11.053-11.619-16.537c0.71-0.484,1.415-0.975,2.125-1.459
			c2.154,2.016,4.354,3.977,6.451,6.055c6.716,6.646,14.047,12.012,24.202,10.521c2.979-0.436,5.822-1.783,8.728-2.713
			c-1.135-2.855-1.82-6.014-3.484-8.516c-5.374-8.062-11.114-15.879-16.712-23.795c0.661-0.533,1.322-1.072,1.987-1.607
			c2.312,2.045,4.386,4.48,6.984,6.064c7.63,4.646,15.186,9.611,23.362,13.055c3.08,1.299,7.776-1.232,11.738-2.02
			c-0.946-3.664-0.897-8.082-3.011-10.861c-11.008-14.471-22.53-28.547-34.02-42.908c0.938-0.906,1.208-2.232,0.938-3.496
			c2.595-0.441,5.202-0.98,7.817-1.67c4.056-1.064,7.923-2.859,11.877-4.316c-18.356-6.07-36.447-9.783-53.938-15.002
			c0.424-0.562,0.779-1.172,1.077-1.816c4.264,0.225,8.567,0.205,12.917-0.154c0.53-0.045,1.004-0.168,1.489-0.273
			c22.175,4.994,45.414,5.369,69.846,0.607v-3.242c-12.081-3.623-23.941-8.699-36.288-10.572
			c-28.764-4.361-51.065-20.621-73.518-36.994c-0.064-0.045,0.188-0.533,0.474-1.178c0.212-0.014,0.424-0.021,0.633-0.037
			c32.391,20.367,64.142,43.232,108.928,30.258c-5.435-4.326-8.977-7.904-13.179-10.332c-10.266-5.932-20.951-11.143-31.212-17.082
			c-2.587-1.498-5.312-4.328-6.12-7.092c-7.218-24.77-16.708-48.926-17.74-75.275c-2.056-52.554-26.01-94.676-63.606-129.985
			c-17.487-16.426-34.84-32.999-52.474-49.266c-19.987-18.438-39.743-37.173-60.506-54.709
			c-14.966-12.64-30.918-25.479-52.604-21.82c-13.089,2.211-26.1,5.692-38.634,10.065c-1.591,0.555-2.725,1.257-3.456,2.064
			c-2.513,0.343-4.994,0.979-7.381,1.983c-0.114,0.049-0.224,0.106-0.334,0.155c-7.046-8.201-14.517-16.059-24.492-21.155h-9.735
			c-19.637,4.814-27.63,19.086-29.478,37.556c-1.979,19.784-3.99,39.642-4.264,59.491c-0.147,10.481,1.082,20.975,2,31.469
			c-5.182,3.99-9.87,8.568-13.974,13.644c-6.418,7.005-13.203,7.638-20.559,0.665c-11.971-11.342-24.966-12.876-40.278-8.054
			c-18.352,5.781-37.107,10.281-55.725,15.214C14.508,185.95,5.357,189.377,0,198.839v17.846c1.795,3.786,3.59,7.573,5.851,12.338
			C7.36,226.982,8.649,225.942,9.017,224.641z M304.054,481.546c0.114-0.094,0.245-0.172,0.347-0.273
			c0.787-0.217,1.575-0.428,2.366-0.645c0.522-0.143,0.951-0.367,1.326-0.633c3.317,1.033,6.638,2.064,9.955,3.102
			C313.217,483.162,308.509,482.701,304.054,481.546z M290.026,446.218c9.898,2.68,18.405,5.152,27.014,7.209
			c2.518,0.604,5.32,0.023,7.989-0.014c-0.526-3.031-0.172-6.682-1.771-8.963c-3.215-4.594-7.494-8.445-11.338-12.604
			c0.502-0.543,1.004-1.084,1.501-1.623c9.454,9.326,19.597,18.094,27.924,28.336c2.33,2.863-0.094,10.26-1.648,15.164
			c-0.399,1.262-5.81,1.412-8.878,1.262c-7.634-0.367-15.247-1.102-22.872-1.592c-0.854-0.648-1.991-0.951-3.342-0.584
			c-0.384,0.107-0.768,0.209-1.146,0.314c-0.024,0-0.049-0.004-0.077-0.004c-2.493-0.117-5.043,0.955-7.569,1.486
			c0.021,0.195,0.037,0.391,0.054,0.586c-0.314,0.086-0.629,0.172-0.938,0.258c-0.832,0.229-1.555,0.73-2.085,1.391
			c-3.179-2.08-5.61-4.973-5.524-9.518C287.439,460.472,289.011,453.656,290.026,446.218z"/>
	</g>
</g>
<g>
</g>
<g>
</g>
<g>
</g>
<g>
</g>
<g>
</g>
<g>
</g>
<g>
</g>
<g>
</g>
<g>
</g>
<g>
</g>
<g>
</g>
<g>
</g>
<g>
</g>
<g>
</g>
<g>
</g>
</svg>
