<?xml version="1.0" encoding="utf-8"?>
<!-- Generator: Adobe Illustrator 23.0.1, SVG Export Plug-In . SVG Version: 6.00 Build 0)  -->
<svg version="1.1" id="Layer_1" xmlns="http://www.w3.org/2000/svg" xmlns:xlink="http://www.w3.org/1999/xlink" x="0px" y="0px"
	 viewBox="0 0 512 512" style="enable-background:new 0 0 512 512;">
<style type="text/css">
	.st0{fill:#FFFFFF;}
</style>
<g>
	<path class="st0" d="M75.3,230.6l17.8,0l0,42.1l-17.8,0L75.3,230.6z"/>
	<path class="st0" d="M57.8,230.7c-11.6,0-21,9.4-21.1,21c0,11.7,9.4,21.1,21,21.1l8.5,0l0-42.1L57.8,230.7z"/>
	<path class="st0" d="M162.7,221.8l0,25.5l243.8,0.1c2.5-0.1,4.5,2,4.6,4.5c0.1,2.5-2,4.5-4.5,4.6c0,0,0,0-0.1,0l-243.8-0.1l0,25.5
		l257.8,0.1l54.5-29.9L420.6,222L162.7,221.8z"/>
	<path class="st0" d="M128.3,230.7l-26.1,0l0,42.1l26.1,0l0-21L128.3,230.7z"/>
	<path class="st0" d="M153.7,192.8c0-4.6-3.7-8.2-8.2-8.2l0,0c-4.6,0-8.2,3.7-8.2,8.2l0,33.4l0,25.6l0,58.9c0,4.6,3.7,8.2,8.2,8.2
		l0,0c4.6,0,8.2-3.7,8.2-8.2L153.7,192.8z"/>
</g>
</svg>
