<?xml version="1.0" encoding="utf-8"?>
<!-- Generator: Adobe Illustrator 23.0.1, SVG Export Plug-In . SVG Version: 6.00 Build 0)  -->
<svg version="1.1" xmlns="http://www.w3.org/2000/svg" xmlns:xlink="http://www.w3.org/1999/xlink" x="0px" y="0px"
	 viewBox="0 0 512 512" style="enable-background:new 0 0 512 512;" xml:space="preserve">
<style type="text/css">
	.st0{fill:#CCCCCC;stroke:#000000;stroke-miterlimit:10;}
</style>
<g id="Vrstva_2">
	<polygon class="st0" points="14,191 109,191 109,166 398.4,162.7 407,184.1 432.3,194.1 507.4,194.1 504.3,321.3 407.8,321.3 
		404,341 376.4,347.3 113.6,347.3 106,319 8.7,320.5 8.7,202.5 	"/>
</g>
<g id="Layer_2">
	<title>BELT</title>
	<path d="M505,185h-92.6v-5c0-12.7-10.3-23-23-23H122.6c-12.7,0-23,10.3-23,23v5H7c-3.9,0-7,3.1-7,7c0,0,0,0,0,0v128
		c0,3.9,3.1,7,7,7c0,0,0,0,0,0h92.6v5c0,12.7,10.3,23,23,23h266.8c12.7,0,23-10.3,23-23v-5H505c3.9,0,7-3.1,7-7c0,0,0,0,0,0V192
		C512,188.1,508.9,185,505,185C505,185,505,185,505,185z M358.4,232.8h-53.1c-3.9,0-7,3.1-7,7c0,0,0,0,0,0v32c0,3.9,3.1,7,7,7
		c0,0,0,0,0,0h53.1V301H153.6v-90h204.8V232.8z M365.4,264.8h-53.1v-18h86.1v18H365.4z M14,313V199h85.6v114H14z M398.4,332
		c0,5-4,9-9,9H122.6c-5,0-9-4-9-9V180c0-5,4-9,9-9h266.8c5,0,9,4,9,9v52.8h-26V204c0-3.9-3.1-7-7-7c0,0,0,0,0,0H146.6
		c-3.9,0-7,3.1-7,7v104c0,3.9,3.1,7,7,7c0,0,0,0,0,0h218.8c3.9,0,7-3.1,7-7v-29.2h26V332z M412.4,313V199H429c19.3,0,35,15.7,35,35
		v44c0,19.3-15.7,35-35,35H412.4z M498,313h-34.8c9.4-9.2,14.8-21.8,14.8-35v-44c0-13.2-5.3-25.8-14.8-35H498V313z"/>
	<circle cx="272.2" cy="256" r="11"/>
	<circle cx="226" cy="256" r="11"/>
	<circle cx="179.8" cy="256" r="11"/>
	<circle cx="56.8" cy="256" r="11"/>
</g>
</svg>
