<?xml version="1.0" encoding="utf-8"?>
<!-- Generator: Adobe Illustrator 23.0.1, SVG Export Plug-In . SVG Version: 6.00 Build 0)  -->
<svg version="1.1" xmlns="http://www.w3.org/2000/svg" xmlns:xlink="http://www.w3.org/1999/xlink" x="0px" y="0px"
	 viewBox="0 0 425.5 425.5" style="enable-background:new 0 0 425.5 425.5;" xml:space="preserve">
<style type="text/css">
	.st0{fill:#CCCCCC;stroke:#000000;stroke-miterlimit:10;}
</style>
<g id="Vrstva_2">
	<polygon class="st0" points="212.7,350 177.9,383.7 209.9,425 249.4,386 	"/>
</g>
<g id="Capa_1">
	<g>
		<g>
			<path d="M219.1,349.1c-0.4-0.4-0.8-0.7-1.2-1c10.3-31,75.4-227.6,75.4-267.5c0-44.5-36.2-80.6-80.6-80.6
				c-44.5,0-80.6,36.2-80.6,80.6c0,39.9,65.1,236.5,75.4,267.5c-0.4,0.3-0.8,0.6-1.2,1l-30.5,30.5c-3.5,3.5-3.5,9.3,0,12.8
				l30.5,30.5c1.7,1.7,4,2.6,6.4,2.6c2.4,0,4.7-0.9,6.4-2.6l30.5-30.5c3.5-3.5,3.5-9.3,0-12.8L219.1,349.1z M212.7,8.4
				c39.9,0,72.3,32.4,72.3,72.3c0,35.6-56.6,209.4-72.3,256.8c-15.7-47.4-72.3-221.2-72.3-256.8C140.5,40.8,172.9,8.4,212.7,8.4z
				 M243.7,386.5l-30.5,30.5c-0.2,0.2-0.4,0.2-0.5,0.2s-0.3,0-0.5-0.2l-30.5-30.5c-0.3-0.3-0.3-0.7,0-1l30.5-30.5
				c0.2-0.2,0.4-0.2,0.5-0.2s0.3,0,0.5,0.2l30.5,30.5C244,385.8,244,386.2,243.7,386.5z"/>
			<path d="M217.3,367.3c-1.2-1.2-2.8-1.9-4.5-1.9c-1.7,0-3.3,0.7-4.6,1.9L194,381.4c-2.5,2.5-2.5,6.6,0,9.1l14.2,14.2
				c1.2,1.2,2.8,1.9,4.6,1.9c1.7,0,3.3-0.7,4.6-1.9l14.2-14.2c2.5-2.5,2.5-6.6,0-9.1L217.3,367.3z M212.7,397.5L201.3,386l11.5-11.5
				l11.5,11.5L212.7,397.5z"/>
		</g>
	</g>
</g>
</svg>
