<svg id="Capa_1" enable-background="new 0 0 512 512" height="512" viewBox="0 0 512 512" width="512" xmlns="http://www.w3.org/2000/svg"><g><path d="m512 0h-106.134l-278.115 278.115c-13.171-22.295-22.707-46.68-28.174-72.354l-29.342 6.248c8.827 41.457 27.095 79.92 53.347 112.734l-67.314 67.314c-31.354 1.954-56.268 28.07-56.268 59.907 0 33.104 26.932 60.036 60.036 60.036 31.838 0 57.953-24.914 59.906-56.268l67.314-67.314c32.813 26.252 71.278 44.52 112.735 53.347l6.248-29.342c-25.675-5.467-50.059-15.003-72.354-28.174l278.115-278.115zm-93.708 30h42.495l-295.94 295.94c-7.137-7.139-13.784-14.679-19.921-22.574zm-358.256 452c-16.561 0-30.036-13.474-30.036-30.036s13.475-30.036 30.036-30.036 30.036 13.474 30.036 30.036-13.474 30.036-30.036 30.036zm51.706-60.494c-5.173-8.749-12.499-16.074-21.248-21.248l53.123-53.123c.014.014.027.027.04.041l21.166 21.166c.014.014.028.027.041.041zm96.892-54.432c-7.895-6.137-15.436-12.784-22.574-19.921l295.94-295.94v42.495z"/></g></svg>