<?xml version="1.0" encoding="iso-8859-1"?>
<!-- Generator: Adobe Illustrator 19.0.0, SVG Export Plug-In . SVG Version: 6.00 Build 0)  -->
<svg version="1.1" id="Layer_1" xmlns="http://www.w3.org/2000/svg" xmlns:xlink="http://www.w3.org/1999/xlink" x="0px" y="0px"
	 viewBox="0 0 511.989 511.989" style="enable-background:new 0 0 511.989 511.989;" xml:space="preserve">
<g>
	<g>
		<path d="M508.865,3.126c-2.594-2.602-6.359-3.68-9.938-2.852l-78.404,18.062c-1.953,0.453-3.734,1.438-5.156,2.852
			L148.256,288.307l-30.171-30.172c-2-1.999-4.71-3.124-7.539-3.124c-2.829,0-5.539,1.125-7.539,3.124L80.375,280.76
			c-4.164,4.172-4.164,10.922,0,15.078l45.257,45.264L39.985,426.74c-10.39,0.656-20.062,4.984-27.492,12.406
			c-8.054,8.062-12.492,18.781-12.492,30.172s4.438,22.107,12.492,30.171c8.062,8.062,18.773,12.5,30.171,12.5
			s22.109-4.438,30.171-12.5c7.632-7.625,11.75-17.452,12.382-27.468l47.952-47.953c0,0,0,0,0.008-0.016l30.163-30.154l7.539-7.531
			l45.257,45.248c2,2,4.71,3.125,7.546,3.125c2.828,0,5.539-1.125,7.539-3.125l22.625-22.625c4.172-4.17,4.172-10.936,0-15.092
			l-30.164-30.172l267.12-267.111c1.405-1.414,2.405-3.203,2.843-5.148l18.062-78.405C512.552,9.477,511.459,5.72,508.865,3.126z
			 M57.75,484.396c-4.031,4.031-9.382,6.25-15.085,6.25c-5.695,0-11.055-2.219-15.085-6.25c-4.023-4.016-6.25-9.375-6.25-15.078
			s2.227-11.047,6.25-15.078c4.031-4.031,9.39-6.25,15.085-6.25c5.703,0,11.054,2.219,15.085,6.25
			C66.07,462.553,66.07,476.084,57.75,484.396z M79.422,447.646c-1.79-3.031-3.985-5.89-6.586-8.5
			c-2.578-2.578-5.438-4.781-8.492-6.594l5.367-5.359h30.171L79.422,447.646z M121.209,405.867H91.046l8.835-8.844h30.164
			L121.209,405.867z M151.381,375.68H121.21l19.507-19.5l15.086,15.094L151.381,375.68z M231.222,401.445l-7.539,7.545
			l-45.257-45.264l-75.42-75.42l7.539-7.547l30.171,30.172l60.334,60.342c0,0,0,0,0.008,0L231.222,401.445z M473.554,83.694
			L208.598,348.648l-15.085-15.094l185.699-185.682c4.156-4.164,4.156-10.922,0-15.085c-4.188-4.164-10.938-4.164-15.094,0
			L178.427,318.478L163.342,303.4L428.305,38.437l58.796-13.546L473.554,83.694z"/>
	</g>
</g>
<g>
	<g>
		<path d="M42.664,458.646c-5.891,0-10.664,4.781-10.664,10.672s4.773,10.672,10.664,10.672s10.671-4.781,10.671-10.672
			S48.555,458.646,42.664,458.646z"/>
	</g>
</g>
<g>
</g>
<g>
</g>
<g>
</g>
<g>
</g>
<g>
</g>
<g>
</g>
<g>
</g>
<g>
</g>
<g>
</g>
<g>
</g>
<g>
</g>
<g>
</g>
<g>
</g>
<g>
</g>
<g>
</g>
</svg>
