<?xml version="1.0" encoding="iso-8859-1"?>
<!-- Generator: Adobe Illustrator 19.0.0, SVG Export Plug-In . SVG Version: 6.00 Build 0)  -->
<svg version="1.1" id="Capa_1" xmlns="http://www.w3.org/2000/svg" xmlns:xlink="http://www.w3.org/1999/xlink" x="0px" y="0px"
	 viewBox="0 0 512.001 512.001" style="enable-background:new 0 0 512.001 512.001;" xml:space="preserve">
<g>
	<g>
		<g>
			<path d="M18.286,474.536c-7.396,0-14.064,4.456-16.894,11.289c-2.83,6.833-1.265,14.699,3.966,19.928
				c7.234,6.911,18.623,6.911,25.857,0c5.23-5.229,6.796-13.095,3.966-19.928C32.35,478.991,25.682,474.536,18.286,474.536z"/>
			<path d="M36.685,461.494c2.724,1.475,5.234,3.317,7.458,5.473c2.156,2.216,4.022,4.697,5.554,7.383l53.513-53.517l-12.929-12.929
				L36.685,461.494z"/>
			<path d="M154.931,420.833h-0.001l-31.753-31.754l-0.086-0.058l-0.057-0.087l-0.427-0.426l-38.788-38.791
				c-3.573-3.552-9.347-3.543-12.91,0.019c-3.563,3.562-3.574,9.335-0.023,12.91l77.58,77.58c3.573,3.567,9.36,3.567,12.933,0
				c3.559-3.575,3.557-9.355-0.004-12.929L154.931,420.833z"/>
			<polygon points="191.265,242.554 243.048,190.917 57.867,6.262 0.961,1.074 6.152,57.967 			"/>
			<path d="M408.791,420.833l53.513,53.518c1.531-2.687,3.397-5.168,5.554-7.384c2.225-2.156,4.734-3.998,7.458-5.473
				l-53.597-53.589L408.791,420.833z"/>
			<path d="M510.609,485.825c-2.83-6.833-9.498-11.289-16.894-11.289s-14.064,4.456-16.894,11.289
				c-2.83,6.833-1.265,14.699,3.966,19.928c7.234,6.911,18.623,6.911,25.857,0C511.874,500.523,513.439,492.658,510.609,485.825z"/>
			<path d="M314.26,249.012l0.037-0.024L505.876,57.949l5.17-56.884l-56.902,5.17L262.498,197.342l-0.024,0.036l-0.037,0.025
				l-64.682,64.5l-0.013,0.02l-0.021,0.013l-88.037,87.791l19.886,19.886l83.395-83.395c3.579-3.515,9.322-3.489,12.87,0.058
				c3.547,3.547,3.573,9.29,0.058,12.87l-83.395,83.396l18.906,18.906l88.107-87.858l0.016-0.023l0.024-0.016l64.684-64.502
				L314.26,249.012z"/>
			<path d="M441.115,349.715c-3.571-3.57-9.361-3.569-12.931,0.002l-6.388,6.388l-0.063,0.094l-32.817,32.815l-0.005,0.007
				l-0.007,0.005l-31.81,31.808l-0.08,0.054l-6.411,6.411c-3.559,3.573-3.552,9.353,0.014,12.919s9.346,3.57,12.919,0.01
				l77.581-77.58C444.687,359.074,444.686,353.285,441.115,349.715z"/>
			<path d="M369.502,382.539l-37.68-37.68c-3.515-3.579-3.489-9.322,0.058-12.87c3.547-3.547,9.29-3.573,12.87-0.058l37.68,37.679
				l19.884-19.883l-81.575-81.344l-51.787,51.641l81.654,81.408L369.502,382.539z"/>
		</g>
	</g>
</g>
<g>
</g>
<g>
</g>
<g>
</g>
<g>
</g>
<g>
</g>
<g>
</g>
<g>
</g>
<g>
</g>
<g>
</g>
<g>
</g>
<g>
</g>
<g>
</g>
<g>
</g>
<g>
</g>
<g>
</g>
</svg>
