<?xml version="1.0" encoding="utf-8"?>
<!-- Generator: Adobe Illustrator 23.0.1, SVG Export Plug-In . SVG Version: 6.00 Build 0)  -->
<svg version="1.1" xmlns="http://www.w3.org/2000/svg" xmlns:xlink="http://www.w3.org/1999/xlink" x="0px" y="0px"
	 viewBox="0 0 496 496" style="enable-background:new 0 0 496 496;" xml:space="preserve">
<style type="text/css">
	.st0{fill:#CCCCCC;stroke:#000000;stroke-miterlimit:10;}
</style>
<g id="Vrstva_2">
	<polygon class="st0" points="145,9 384,9 384,75.3 360,96 352,293 376,416 376,487 285,487 274,457 248,456 215.6,487 8,487 8,396 
		39,359 135,349 174,311 175,87 152,84 143,48 	"/>
	<path class="st0" d="M432,217c0,0,124,37,0,97C432,314,317,258,432,217z"/>
</g>
<g id="Vrstva_1">
	<path d="M248,144h16v16h-16V144z"/>
	<path d="M296,144h16v16h-16V144z"/>
	<path d="M248,240h16v16h-16V240z"/>
	<path d="M296,240h16v16h-16V240z"/>
	<path d="M496,272v-16h-8.6c-0.6-4.4-1.8-8.7-3.4-12.8l7.5-4.3l-8-13.9l-7.5,4.3c-2.7-3.5-5.9-6.6-9.3-9.3l4.3-7.5l-13.9-8l-4.3,7.5
		c-4-1.6-8.3-2.8-12.8-3.4V200h-16v8.6c-4.4,0.6-8.7,1.8-12.8,3.4l-4.3-7.5l-13.9,8l4.3,7.5c-3.5,2.7-6.6,5.9-9.3,9.3l-7.5-4.3
		l-8,13.9l7.5,4.3c-1.6,4-2.8,8.3-3.4,12.8H368v16h8.6c0.8,5.6,2.5,11,4.8,16h-20.6c-0.6-8.5-0.9-17-0.9-25.5V96h8
		c13.2,0,24-10.8,24-24V0H136v72c0,13.2,10.8,24,24,24h8v194.4c0,16.4-7.3,31.6-20.1,41.9c-9.5,7.6-21.4,11.7-33.5,11.7H69.6
		C31.2,344,0,375.2,0,413.6V480c0,8.8,7.2,16,16,16h196.7c4.2,0,8.3-1.7,11.3-4.7l27.3-27.3l16.2,0l5,19.9
		c1.8,7.1,8.2,12.1,15.5,12.1h80c8.8,0,16-7.2,16-16v-22.5c0-33.5-4.1-66.9-12.2-99.4c-4.4-17.8-7.5-35.9-9.4-54.1h30.5
		c8.3,8.1,19.1,13.6,31.1,15.4v8.6h16v-8.6c4.4-0.6,8.7-1.8,12.8-3.4l4.3,7.5l13.9-8l-4.3-7.5c3.5-2.7,6.6-5.9,9.3-9.3l7.5,4.3
		l8-13.9l-7.5-4.3c1.6-4,2.8-8.3,3.4-12.8H496z M344.3,272h-109l-19.7-19.7c0.3-1.4,0.4-2.8,0.4-4.3s-0.2-2.9-0.4-4.3l19.7-19.7H344
		v38.5C344,265.7,344.2,268.8,344.3,272z M344,208H228.7l-21.5,21.5c-4.2-3.4-9.4-5.5-15.2-5.5c-2.8,0-5.5,0.6-8,1.5v-51
		c2.5,0.9,5.2,1.5,8,1.5c5.8,0,11-2.1,15.2-5.5l21.5,21.5H344V208z M200,248c0,4.4-3.6,8-8,8s-8-3.6-8-8s3.6-8,8-8
		S200,243.6,200,248z M184,152c0-4.4,3.6-8,8-8s8,3.6,8,8s-3.6,8-8,8S184,156.4,184,152z M344,176H235.3l-19.7-19.7
		c0.3-1.4,0.4-2.8,0.4-4.3s-0.2-2.9-0.4-4.3l19.7-19.7H344V176z M152,72V16h224v56c0,4.4-3.6,8-8,8h-36.7L304,52.7L276.7,80H160
		C155.6,80,152,76.4,152,72z M283.3,96L304,75.3L324.7,96H344v16H228.7l-21.5,21.5c-4.2-3.4-9.4-5.5-15.2-5.5c-2.8,0-5.5,0.6-8,1.5
		V96H283.3z M69.6,360h44.8c15.8,0,31.2-5.4,43.5-15.2c16.6-13.3,26.1-33.1,26.1-54.4v-19.9c2.5,0.9,5.2,1.5,8,1.5
		c5.8,0,11-2.1,15.2-5.5l21.5,21.5h116.1c1.3,21.5,4.6,42.9,9.3,64h-90.5c-27.7,0-53.7,10.8-73.3,30.3
		c-16.5,16.5-38.5,25.7-61.9,25.7H88v16h40.4c27.7,0,53.7-10.8,73.3-30.3c16.5-16.5,38.5-25.7,61.9-25.7h94c2.5,10.6,4.5,21.3,6,32
		H259.9c-15,0-29,5.8-39.6,16.4L196.7,440H16v-16h56v-16H16.3C19.1,381.1,41.9,360,69.6,360z M368,480h-16v-24h-16v24h-16v-24h-16
		v24h-16l-5-19.9c-1.8-7.1-8.2-12.1-15.5-12.1h-16.2c-4.2,0-8.3,1.7-11.3,4.7L212.7,480H16v-24h187.3l28.3-28.3
		c7.6-7.6,17.6-11.7,28.3-11.7h105.8c1.5,13.8,2.3,27.6,2.3,41.5V480z M424,264c0-4.4,3.6-8,8-8s8,3.6,8,8s-3.6,8-8,8
		S424,268.4,424,264z M421.7,285.6c3.1,1.5,6.6,2.4,10.3,2.4c13.2,0,24-10.8,24-24s-10.8-24-24-24s-24,10.8-24,24
		c0,3.7,0.9,7.2,2.4,10.3L398.7,286c-4.2-6.3-6.7-13.9-6.7-22c0-22.1,17.9-40,40-40s40,17.9,40,40s-17.9,40-40,40
		c-8.1,0-15.7-2.5-22-6.7L421.7,285.6z"/>
</g>
</svg>
