<?xml version="1.0" encoding="utf-8"?>
<!-- Generator: Adobe Illustrator 23.0.1, SVG Export Plug-In . SVG Version: 6.00 Build 0)  -->
<svg version="1.1" xmlns="http://www.w3.org/2000/svg" xmlns:xlink="http://www.w3.org/1999/xlink" x="0px" y="0px"
	 viewBox="0 0 512 512" style="enable-background:new 0 0 512 512;" xml:space="preserve">
<style type="text/css">
	.st0{fill:#CCCCCC;stroke:#000000;stroke-miterlimit:10;}
</style>
<g id="Vrstva_2">
	<polygon class="st0" points="157.3,31 168.8,8.7 190,11.8 197.2,31 185.7,47 165,40 	"/>
	<polygon class="st0" points="312,142.8 299.8,147.4 296,165.8 269.2,165.8 264.6,191 283,197.9 281.4,237.2 279.1,316.7 
		264.6,316.7 264.6,336 288.3,342.7 295.2,351 297.5,367.2 332.2,367.2 332.2,344.2 358,336 358,316.7 341.2,314.4 345,203.5 
		358,195.6 358,166.5 332.7,168.1 324.3,142.8 	"/>
	<path class="st0" d="M52.4,191l39.8,4.6l21.4,37.9c0,0,6.1,5,9.2,7.3c3.1,2.3,283.4,0,283.4,0l21.4-24.4l72,38.6l-67.2,38.5
		l-30.9-26.6l-288.8,7.9l-15.3,33.7l-68.2,8.2H15l19-46.7l-25.3-1.5v-26l21.4-0.8l-18.4-38.1l10.7-9.4L52.4,191z"/>
</g>
<g id="Capa_1">
	<path d="M510.3,260.7c2.9-3.6,1.8-9.2-2.3-11.4l-71.5-37.7c-5.1-2.7-11.4-1.6-15.2,2.8l-16.9,19H352v-27.7c8.5-1.2,15-8.5,15-17.3
		v-10c0-9.6-7.9-17.5-17.5-17.5h-15v-7.5c0-8.8-6.5-16.1-15-17.3C318.8,83,275.4,40,222,40h-20c1.9-3.8,3-8,3-12.5
		C205,12.3,192.7,0,177.5,0S150,12.3,150,27.5V70c0,4.1,3.4,7.5,7.5,7.5s7.5-3.4,7.5-7.5V52c3.8,1.9,8,3,12.5,3c0.1,0,0.2,0,0.3,0
		c0.1,0,0.1,0,0.2,0h44c45.1,0,81.8,36.3,82.5,81.2c-8.5,1.2-15,8.5-15,17.3v7.5h-15c-9.6,0-17.5,7.9-17.5,17.5v10
		c0,8.8,6.5,16.1,15,17.3v27.7H165V105c0-4.1-3.4-7.5-7.5-7.5s-7.5,3.4-7.5,7.5v128.5h-26.8l-13.1-26.8
		c-5.4-11.1-16.9-18.2-29.2-18.2H18.5c-4.3,0-8.3,2.2-10.6,5.9c-2.3,3.7-2.5,8.2-0.6,12.1l13.2,27h-3C7.9,233.5,0,241.4,0,251v10
		c0,9.6,7.9,17.5,17.5,17.5h3l-13.2,27c-1.9,3.9-1.7,8.4,0.6,12.1c2.3,3.7,6.3,5.9,10.6,5.9h62.4c12.3,0,23.8-7.2,29.2-18.2
		l13.1-26.8H150v206c0,15.2,12.3,27.5,27.5,27.5s27.5-12.3,27.5-27.5c0-4.5-1.1-8.7-3-12.5h20c53.3,0,96.8-43,97.5-96.2
		c8.5-1.2,15-8.5,15-17.3V351h15c9.6,0,17.5-7.9,17.5-17.5v-10c0-8.8-6.5-16.1-15-17.3v-27.7h52.4l16.9,19c2.4,2.8,5.9,4.2,9.3,4.2
		c2,0,4-0.5,5.8-1.4l71.5-37.7C508.9,262.2,509.7,261.5,510.3,260.7C510.4,260.7,510.2,261,510.3,260.7z M165,27.5
		c0-6.9,5.6-12.5,12.5-12.5S190,20.6,190,27.5S184.4,40,177.5,40S165,34.4,165,27.5z M431.2,225.9l43,22.6h-63L431.2,225.9z
		 M304.5,153.5c0-1.4,1.1-2.5,2.5-2.5h10c1.4,0,2.5,1.1,2.5,2.5v7.5h-15V153.5z M272,178.5c0-1.4,1.1-2.5,2.5-2.5h75
		c1.4,0,2.5,1.1,2.5,2.5v10c0,1.4-1.1,2.5-2.5,2.5h-75c-1.4,0-2.5-1.1-2.5-2.5V178.5z M287,206h50v27.5h-50V206z M96.6,213.3
		l9.9,20.2H80.2l-14.7-30h15.4C87.6,203.5,93.7,207.4,96.6,213.3z M22.5,203.5h26.3l14.7,30H37.2L22.5,203.5z M37.2,278.5h26.3
		l-14.7,30H22.5L37.2,278.5z M96.6,298.7c-2.9,6-9.1,9.8-15.7,9.8H65.5l14.7-30h26.3L96.6,298.7z M177.5,497
		c-6.9,0-12.5-5.6-12.5-12.5s5.6-12.5,12.5-12.5s12.5,5.6,12.5,12.5S184.4,497,177.5,497z M222,457h-44c-0.1,0-0.1,0-0.2,0
		c-0.1,0-0.2,0-0.3,0c-4.5,0-8.7,1.1-12.5,3V278.5h79.5c4.1,0,7.5-3.4,7.5-7.5s-3.4-7.5-7.5-7.5h-227c-1.4,0-2.5-1.1-2.5-2.5v-10
		c0-1.4,1.1-2.5,2.5-2.5h373.7c-3.3,4.4-3.3,10.6,0,15H279.5c-4.1,0-7.5,3.4-7.5,7.5v35.2c-8.5,1.2-15,8.5-15,17.3v10
		c0,9.6,7.9,17.5,17.5,17.5h15v7.5c0,8.8,6.5,16.1,15,17.3C303.8,420.7,267.1,457,222,457L222,457z M319.5,358.5
		c0,1.4-1.1,2.5-2.5,2.5h-10c-1.4,0-2.5-1.1-2.5-2.5V351h15V358.5z M352,333.5c0,1.4-1.1,2.5-2.5,2.5H327h-30h-22.5
		c-1.4,0-2.5-1.1-2.5-2.5v-10c0-1.4,1.1-2.5,2.5-2.5h75c1.4,0,2.5,1.1,2.5,2.5V333.5z M337,306h-50v-27.5h50V306z M432.5,287.6
		L432.5,287.6C432.5,287.6,432.5,287.6,432.5,287.6z M431.2,286.1l-20-22.6h63L431.2,286.1z"/>
	<polygon points="244.5,263.5 292.1,263.5 292.1,278.5 239.3,278.5 	"/>
</g>
</svg>
