<?xml version="1.0" encoding="utf-8"?>
<!-- Generator: Adobe Illustrator 23.0.1, SVG Export Plug-In . SVG Version: 6.00 Build 0)  -->
<svg version="1.1" xmlns="http://www.w3.org/2000/svg" xmlns:xlink="http://www.w3.org/1999/xlink" x="0px" y="0px"
	 viewBox="0 0 512 512" style="enable-background:new 0 0 512 512;" xml:space="preserve">
<style type="text/css">
	.st0{fill:#CCCCCC;stroke:#000000;stroke-miterlimit:10;}
</style>
<g id="Vrstva_2">
	<path class="st0" d="M88,64l107.7-30L216,84l-38.2,21.4c0,0,93.3,28.8,130.8-8.3L293,87l15.5-53l121.1,40.6V92l73.4,62l-15.7,17
		c0,0,19.7,78.2,15.7,86.6c0,0-42.4-2.4-43.1-16.6l-47.1-47L397,224.6l18.9,42.1L354.6,483H157.4L96.1,266.7
		c0,0,25.7-37.8,11.8-53.2L96.1,197L72,231l-55,27.5L8,241l23-70L8,160c0,0,46.4-76.3,88.1-71C96.1,89,66.3,70,88,64z"/>
</g>
<g id="Layer_1">
	<g>
		<g>
			<path d="M509.8,227.7c-2.7-22.6-7.5-40.8-14.5-54.4l9.3-3.1c5.4-1.8,8.4-7.5,6.9-13c-6.3-22.6-24-43.3-52.3-61.5
				c-6.6-4.2-13-7.8-18.6-10.7l1.4-0.7c3.6-1.8,5.9-5.5,5.9-9.5s-2.3-7.7-5.9-9.5c-3.2-1.6-78.1-38.7-132-43.7
				c-5.3-0.5-10.2,3-11.4,8.3l-12.7,56.2c-1.1,4.7,1.2,9.6,5.5,11.8l1.8,0.9c-11.9,4.7-24.9,8.1-38,8.1c-12.8,0-25.4-3.2-36.9-7.8
				l2.3-1.2c4.3-2.2,6.5-7.1,5.5-11.8l-12.7-56.2c-1.2-5.2-6-8.8-11.4-8.3c-53.9,5-128.9,42.2-132,43.7c-3.6,1.8-5.9,5.5-5.9,9.5
				s2.3,7.7,5.9,9.5l1.4,0.7c-5.6,2.9-12,6.5-18.6,10.7c-28.4,18.2-46,38.9-52.3,61.5c-1.5,5.5,1.5,11.2,6.9,13l9.3,3.1
				c-6.9,13.6-11.8,31.9-14.5,54.4C-0.4,248.9,0,266.2,0,266.9c0.1,3.9,2.3,7.4,5.7,9.2c1.6,0.8,3.3,1.2,5,1.2c2,0,4-0.6,5.8-1.7
				L79.6,235c1.2-0.8,2.2-1.7,3-2.9l15.4-22c3.4,8.3,3.7,17.3,0.9,27.3c-3.5,13-11,22.5-11.1,22.6c-2.3,2.8-3,6.6-1.8,10
				c42,128.3,63.5,211.8,63.7,212.6c1.2,4.7,5.5,8,10.3,8h192c4.9,0,9.1-3.3,10.3-8c0.2-0.8,21.7-84.3,63.7-212.6
				c1.1-3.4,0.4-7.2-1.8-10c-0.1-0.1-7.3-9.3-10.9-22c-2.9-10.1-2.6-19.4,0.8-27.8l15.4,22c0.8,1.1,1.8,2.1,3,2.9l63.1,40.7
				c1.8,1.1,3.8,1.7,5.8,1.7c1.7,0,3.4-0.4,5-1.2c3.4-1.8,5.6-5.3,5.7-9.2C512,266.2,512.4,248.9,509.8,227.7z M317.3,43.8
				c32.6,5.1,72.1,21,95.4,31.2l-60.6,30.3l-43.6-22.8L317.3,43.8z M245.3,127.5V160c0,5.9,4.8,10.7,10.7,10.7
				c5.9,0,10.7-4.8,10.7-10.7v-32.7c18.4-2,35.8-8.7,50.4-16.3l17.1,9l-11.1,11.1c-3.6,3.6-4.2,9.2-1.3,13.5l5.4,8.1L263,224.6
				c-2.3-0.4-4.6-0.6-7-0.6c-2.4,0-4.7,0.2-7,0.6l-64.2-71.9l5.4-8.1c2.8-4.2,2.3-9.9-1.3-13.5l-11.1-11.1l16.7-8.7
				C209.1,119,226.7,125.7,245.3,127.5z M339.4,171l9.9,14.9l-56.2,59.7c-2.5-4.5-5.9-8.5-9.8-11.8L339.4,171z M277.3,266.7
				c0,11.8-9.6,21.3-21.3,21.3c-11.8,0-21.3-9.6-21.3-21.3c0-11.8,9.6-21.3,21.3-21.3C267.8,245.3,277.3,254.9,277.3,266.7z
				 M228.7,233.9c-4,3.3-7.3,7.3-9.8,11.8l-56.2-59.7l9.9-14.9L228.7,233.9z M194.7,43.8l8.8,38.8l-43.6,22.8L99.3,75
				C122.5,64.8,162.1,48.9,194.7,43.8z M66.3,218.2l-44.4,28.6c1.3-20.8,5.3-49.3,15.3-66.7l45.2,15.1L66.3,218.2z M24.6,153.4
				c15.2-30.8,57.6-50.6,71-56.3l58,29l14,13.9l-4.8,7.2c-0.3,0.3-0.5,0.7-0.7,1l-21.7,32.5c-0.2,0.3-0.4,0.5-0.5,0.8l-5.6,8.4
				L24.6,153.4z M107.9,268.4c3.3-5.1,8.3-13.9,11.3-24.6c3.6-12.8,3.7-25,0.4-36.2l15.7,5.2c1.1,0.4,2.3,0.5,3.4,0.5
				c3.5,0,6.9-1.7,8.9-4.8l3-4.4l56.3,59.8L121.6,311C117.3,297.5,112.7,283.3,107.9,268.4z M128.1,331.8l88.5-48.9
				c2,5,5,9.5,8.7,13.3L133.7,350C131.9,344.1,130,338,128.1,331.8z M343.7,469.3H168.2c-0.8-2.8-1.7-6.4-2.9-10.7h181.3
				C345.5,462.9,344.5,466.5,343.7,469.3z M352.5,437.3H159.4c-4.8-17.3-11.3-39.6-19.3-66.4l106.7-62.6c3,0.6,6,1,9.2,1
				c3.1,0,6.2-0.4,9.2-1l106.7,62.6C363.8,397.7,357.4,420.1,352.5,437.3z M378.3,350l-91.6-53.7c3.7-3.8,6.7-8.3,8.7-13.3
				l88.5,48.9C381.9,338,380.1,344.1,378.3,350z M390.4,311L305.2,264l56.3-59.8l3,4.4c2,3,5.4,4.8,8.9,4.8c1.1,0,2.3-0.2,3.4-0.5
				l15.6-5.2c-3.3,11.3-3.2,23.5,0.4,36.2c3.1,10.7,8,19.5,11.4,24.6C399.2,283.3,394.7,297.5,390.4,311z M377.7,190L344.4,140
				l14-13.9l58-29c6.2,2.6,18.4,8.1,31.4,16.5c22.7,14.5,34,28.7,39.6,39.9L377.7,190z M445.7,218.2l-16.1-23l45.2-15.1
				c10,17.4,14,45.9,15.3,66.7L445.7,218.2z"/>
		</g>
	</g>
	<g>
		<g>
			<path d="M256,256c-5.9,0-10.7,4.8-10.7,10.7s4.8,10.7,10.7,10.7c5.9,0,10.7-4.8,10.7-10.7S261.9,256,256,256z"/>
		</g>
	</g>
</g>
</svg>
