<?xml version="1.0" encoding="iso-8859-1"?>
<!-- Generator: Adobe Illustrator 19.0.0, SVG Export Plug-In . SVG Version: 6.00 Build 0)  -->
<svg version="1.1" id="Capa_1" xmlns="http://www.w3.org/2000/svg" xmlns:xlink="http://www.w3.org/1999/xlink" x="0px" y="0px"
	 viewBox="0 0 469.333 469.333" style="enable-background:new 0 0 469.333 469.333;" xml:space="preserve">
<g>
	<g>
		<g>
			<path d="M192,138.09c0,35.071,69.76,53.426,138.667,53.426s138.667-18.355,138.667-53.426C469.333,67.947,192,67.947,192,138.09z
				"/>
			<path d="M464.188,189.836c-3.177-1.92-7.167-2.056-10.469-0.323c-28.729,15.068-72.427,23.374-123.052,23.374
				s-94.323-8.306-123.052-23.374c-3.302-1.732-7.292-1.597-10.469,0.323c-3.198,1.93-5.146,5.405-5.146,9.141v3.224
				c0,35.071,69.76,53.426,138.667,53.426s138.667-18.355,138.667-53.426v-3.224C469.333,195.241,467.385,191.766,464.188,189.836z"
				/>
			<path d="M64,351.795c0,35.072,69.76,53.426,138.667,53.426s138.667-18.355,138.667-53.426C341.333,281.652,64,281.652,64,351.795
				z"/>
			<path d="M336.188,403.542c-3.188-1.91-7.167-2.056-10.469-0.323c-28.729,15.068-72.427,23.374-123.052,23.374
				s-94.323-8.306-123.052-23.374c-3.302-1.732-7.292-1.586-10.469,0.323c-3.198,1.93-5.146,5.405-5.146,9.141v3.224
				c0,35.072,69.76,53.426,138.667,53.426s138.667-18.355,138.667-53.426v-3.224C341.333,408.947,339.385,405.472,336.188,403.542z"
				/>
			<path d="M138.667,106.034c14.406,0,28.813-0.814,42.823-2.431c2.281-0.261,4.417-1.252,6.094-2.828
				c16.156-15.235,43.76-26.473,79.823-32.494c3.813-0.637,6.99-3.287,8.292-6.939c1.104-3.078,1.635-5.937,1.635-8.734
				C277.333-17.536,0-17.536,0,52.607C0,87.679,69.76,106.034,138.667,106.034z"/>
			<path d="M138.667,170.145c8.833,0,17.448-0.303,25.792-0.856c3.365-0.23,6.417-2.024,8.25-4.863
				c1.823-2.828,2.208-6.365,1.042-9.527c-2.073-5.583-3.083-11.082-3.031-17.384c0-2.922-1.198-5.718-3.313-7.732
				c-2.104-2.014-5.073-3.235-7.865-2.943c-6.969,0.334-13.938,0.563-20.875,0.563c-50.625,0-94.323-8.306-123.052-23.374
				c-3.302-1.732-7.292-1.596-10.469,0.323C1.948,106.284,0,109.759,0,113.495v3.224C0,151.791,69.76,170.145,138.667,170.145z"/>
			<path d="M138.667,234.257c8.833,0,17.448-0.303,25.792-0.856c3.365-0.23,6.417-2.024,8.25-4.863
				c1.823-2.828,2.208-6.365,1.042-9.527c-2.073-5.583-3.083-11.082-3.083-17.384c0-2.922-1.198-5.718-3.313-7.732
				c-2.104-2.014-5.021-3.162-7.865-2.943c-6.948,0.334-13.896,0.563-20.823,0.563c-50.625,0-94.323-8.306-123.052-23.374
				c-3.302-1.732-7.292-1.596-10.469,0.323C1.948,170.396,0,173.871,0,177.606v3.224C0,215.902,69.76,234.257,138.667,234.257z"/>
			<path d="M464.188,318.059c-3.198-1.951-7.167-2.056-10.469-0.323c-20.073,10.529-48.313,17.885-81.656,21.256
				c-5.625,0.574-9.635,7.148-9.396,12.804c0,5.416-0.875,10.591-2.667,15.798c-1.188,3.454-0.531,7.284,1.74,10.143
				c2.042,2.557,5.115,4.028,8.344,4.028c0.375,0,0.76-0.021,1.146-0.063c61.427-6.637,98.104-25.805,98.104-51.277V327.2
				C469.333,323.465,467.385,319.99,464.188,318.059z"/>
			<path d="M202.667,276.998l7.073,0.125c0.063,0,0.125,0,0.188,0c4.979,0,9.302-3.454,10.406-8.327
				c1.115-4.946-1.385-9.986-5.99-12.084l-2.281-1.023c-1.521-0.668-3.052-1.336-4.469-2.077c-3.323-1.743-7.26-1.586-10.458,0.344
				c-3.188,1.93-5.135,5.395-5.135,9.13v3.224C192,272.219,196.771,276.998,202.667,276.998z"/>
			<path d="M464.188,253.948c-3.177-1.92-7.167-2.056-10.469-0.323c-28.729,15.068-72.427,23.374-123.052,23.374l-7.042-0.136
				c-4.302-0.365-9.448,3.423-10.542,8.358c-1.104,4.936,1.396,9.965,5.99,12.052c11.552,5.259,20.99,11.51,28.042,18.574
				c2.01,2.004,4.719,3.12,7.542,3.12c0.219,0,0.448-0.01,0.677-0.021c52.583-3.339,114-19.127,114-52.633v-3.224
				C469.333,259.353,467.385,255.878,464.188,253.948z"/>
			<path d="M89.208,295.051c1.333,0,2.667-0.25,3.927-0.751c18.792-7.44,41.708-12.564,68.125-15.224
				c5.625-0.563,9.646-7.68,9.406-13.336c0-2.922-1.198-5.718-3.313-7.732c-2.104-2.014-5.021-3.089-7.865-2.943
				c-6.948,0.334-13.896,0.563-20.823,0.563c-50.625,0-94.323-8.306-123.052-23.374c-3.302-1.732-7.292-1.596-10.469,0.323
				C1.948,234.508,0,237.982,0,241.718v3.224c0,23.614,32.792,42.313,87.729,50.004C88.219,295.019,88.719,295.051,89.208,295.051z"
				/>
		</g>
	</g>
</g>
<g>
</g>
<g>
</g>
<g>
</g>
<g>
</g>
<g>
</g>
<g>
</g>
<g>
</g>
<g>
</g>
<g>
</g>
<g>
</g>
<g>
</g>
<g>
</g>
<g>
</g>
<g>
</g>
<g>
</g>
</svg>
