<?xml version="1.0" encoding="utf-8"?>
<!-- Generator: Adobe Illustrator 23.0.1, SVG Export Plug-In . SVG Version: 6.00 Build 0)  -->
<svg version="1.1" xmlns="http://www.w3.org/2000/svg" xmlns:xlink="http://www.w3.org/1999/xlink" x="0px" y="0px"
	 viewBox="0 0 512 512" style="enable-background:new 0 0 512 512;" xml:space="preserve">
<style type="text/css">
	.st0{fill:#CCCCCC;stroke:#000000;stroke-miterlimit:10;}
</style>
<g id="Vrstva_2">
	<polygon class="st0" points="135.9,109.9 110.9,119.5 102.2,148.1 119.1,179.2 158.9,170.7 172.7,139 162.1,115.2 	"/>
	<polygon class="st0" points="373.4,144.5 348.3,154.1 339.6,182.8 356.5,213.9 396.3,205.3 410.1,173.6 399.5,149.9 	"/>
	<path class="st0" d="M135.9,186.4l-60.6,82l-40.6,85l9.1,53.6l33,45.2l41.4,16.1l74.3-10.1l39.8-55.1l6.9-53.6
		c0,0-28.3-63.8-32.9-68.6C201.8,276.1,135.9,186.4,135.9,186.4z"/>
	<path class="st0" d="M374.3,223.2l-60.6,82l-40.6,85l9.1,53.6l33,45.2l41.4,16.1l74.3-10.1l39.8-55.1l6.9-53.6
		c0,0-28.3-63.8-32.9-68.6C440.1,312.8,374.3,223.2,374.3,223.2z"/>
</g>
<g id="Vrstva_1">
	<path d="M136.2,477.9c60.6,0.7,110.3-47.7,111.2-108.3c0-48.5-71.6-150.8-96.3-184.6c17.9-6.5,29.3-24.2,27.9-43.2
		c-1.4-19-15.3-34.8-34-38.6V70.5l6.4-11.2c7.1-12.3,7-27.4-0.1-39.6C144.2,7.5,131.1-0.1,117,0C99.5,0.1,84.1,11.5,79,28.3
		c-0.1,0.3-0.2,0.7-0.2,1.1l-6.8,41.4c-2.1,13.2-7.1,25.7-14.5,36.8l-21.9,32.8c-2.6,3.9-1.6,9.2,2.4,11.8c3.9,2.6,9.2,1.6,11.8-2.4
		L71.6,117c8.8-13.1,14.6-28,17.2-43.5l6.7-40.8c3.1-9.3,11.7-15.6,21.5-15.6c8.1,0,15.5,4.3,19.5,11.2c4,7,4.1,15.6,0.1,22.6
		L129.1,64c-0.7,1.3-1.1,2.8-1.1,4.3v35c-18.6,3.8-32.5,19.4-34,38.3c-1.5,18.9,9.7,36.6,27.5,43.3
		c-21.5,29.5-79.3,111.8-93.3,164.4c0,0.1,0,0.1-0.1,0.2c-1.9,6.6-2.9,13.3-3.1,20.1C25.9,430.2,75.6,478.6,136.2,477.9z
		 M135.8,418.1c-24.2-0.9-43.1-21-42.5-45.2c0-12.9,17.2-49.8,42.7-92c25.5,42.2,42.7,79.1,42.7,92c0.6,24.2-18.4,44.4-42.6,45.2
		H135.8z M143.2,260c-1.7-2.4-4.4-3.8-7.2-3.8c-2.9,0-5.6,1.4-7.3,3.8c-8.8,14-52.5,85.4-52.5,112.8c0,10.3,2.4,20.5,7.2,29.7
		c-18.6-12.1-32.1-30.5-38-51.9c13.2-45.3,63.6-120.1,90.8-157.2c27.2,37.1,77.6,111.8,90.8,157.1c-6,21.7-19.9,40.4-38.9,52.5
		c5-9.3,7.6-19.7,7.5-30.2C195.7,345.4,151.9,274,143.2,260L143.2,260z M136.2,460.8c-44.3,0.4-82.8-30.2-92.3-73.5
		c20.8,29.8,54.8,47.7,91.1,47.8c0.3,0,0.6,0.1,0.9,0.1h0.3c36.8,0.2,71.3-17.7,92.3-47.9C219,430.6,180.5,461.2,136.2,460.8z
		 M110.9,145.1c0-14.1,11.5-25.6,25.6-25.6c14.1,0,25.6,11.5,25.6,25.6c0,14.1-11.5,25.6-25.6,25.6
		C122.3,170.7,110.9,159.2,110.9,145.1z"/>
	<path d="M375.1,512c60.6,0.7,110.3-47.7,111.2-108.3c0-48.5-71.6-150.8-96.3-184.6c17.9-6.5,29.3-24.2,27.9-43.2
		c-1.4-19-15.3-34.8-34-38.6v-32.7l6.4-11.2c7-12.3,7-27.4-0.1-39.6c-7.1-12.2-20.2-19.8-34.3-19.8c-17.5,0.1-32.9,11.5-38,28.3
		c-0.1,0.3-0.2,0.7-0.2,1.1l-6.8,41.4c-2.1,13.2-7.1,25.7-14.5,36.8l-21.9,32.8c-2.6,3.9-1.6,9.2,2.4,11.8c3.9,2.6,9.2,1.6,11.8-2.4
		l21.9-32.8c8.8-13.1,14.6-28,17.2-43.5l6.7-40.8c3.1-9.3,11.7-15.6,21.5-15.6c8.1,0,15.5,4.3,19.5,11.2s4.1,15.6,0.1,22.6L368,98.1
		c-0.7,1.3-1.1,2.8-1.1,4.3v35c-18.6,3.8-32.5,19.4-34,38.3s9.7,36.6,27.5,43.3c-21.5,29.5-79.3,111.8-93.3,164.4
		c0,0.1,0,0.1-0.1,0.2c-1.9,6.6-2.9,13.3-3.1,20.1C264.8,464.3,314.6,512.7,375.1,512z M374.7,452.3c-24.2-0.9-43.1-21-42.5-45.2
		c0-12.9,17.2-49.8,42.7-92c25.5,42.2,42.7,79.1,42.7,92c0.6,24.2-18.4,44.4-42.6,45.2H374.7z M382.1,294.2
		c-1.7-2.3-4.4-3.7-7.2-3.7c-2.9,0-5.6,1.4-7.2,3.7c-8.8,14-52.5,85.4-52.5,112.8c0,10.3,2.4,20.5,7.2,29.7
		c-18.6-12.1-32.1-30.5-38-51.9c13.2-45.3,63.6-120.1,90.8-157.2c27.2,37.1,77.6,111.8,90.8,157.1c-6,21.7-19.9,40.4-38.9,52.5
		c5-9.3,7.6-19.7,7.5-30.3C434.6,379.6,390.9,308.2,382.1,294.2L382.1,294.2z M375.1,494.9c-44.3,0.4-82.8-30.2-92.3-73.5
		c20.8,29.8,54.8,47.7,91.1,47.8c0.3,0,0.6,0.1,0.9,0.1h0.3c36.8,0.2,71.3-17.7,92.3-47.9C458,464.7,419.4,495.4,375.1,494.9z
		 M349.8,179.2c0-14.1,11.5-25.6,25.6-25.6c14.1,0,25.6,11.5,25.6,25.6c0,14.1-11.5,25.6-25.6,25.6
		C361.3,204.8,349.8,193.3,349.8,179.2z"/>
</g>
</svg>
