<?xml version="1.0" encoding="utf-8"?>
<!-- Generator: Adobe Illustrator 23.0.1, SVG Export Plug-In . SVG Version: 6.00 Build 0)  -->
<svg version="1.1" xmlns="http://www.w3.org/2000/svg" xmlns:xlink="http://www.w3.org/1999/xlink" x="0px" y="0px"
	 viewBox="0 0 512 512" style="enable-background:new 0 0 512 512;" xml:space="preserve">
<style type="text/css">
	.st0{fill:#CCCCCC;stroke:#000000;stroke-miterlimit:10;}
	.st1{stroke:#000000;stroke-miterlimit:10;}
</style>
<g id="Vrstva_2_kopie">
	<polygon class="st0" points="189,204 168,39.7 135.5,31 123,37 116.6,7.4 89,7.4 79,25 50,36 40,59 45,97 20,92 5,105.7 41,307 
		56,332 47,426.4 56,440 234,411 234,372 203,312 264,176 256,152 236,153 215,185 197,214 	"/>
</g>
<g id="Vrstva_2">
	<polygon class="st0" points="311.1,256.7 350,95.7 383.2,90.6 395,97.9 404.5,69.1 432,72.2 440,90.8 467.7,104.9 475.1,128.8 
		466,166.1 491.3,163.8 504.8,179.1 447,375.2 429.3,398.5 427.9,493.2 417.5,505.8 243.7,457.5 248,418.7 285.4,362.5 239.6,220.6 
		250.2,197.7 270,200.8 287.3,234.9 302.1,265.7 	"/>
	<polyline class="st1" points="477,311 490.6,262.2 477,256 462.6,307 477,311 	"/>
</g>
<g id="Capa_1">
	<g>
		<path d="M491.6,154.7c-4.5-1.3-9-1.3-13.3-0.4l7.1-25.4c5.6-19.9-12.8-39.4-33.1-34.7c2.1-17-12.3-32.3-29.4-31.3
			c-15.4,0.9-23.1,12.5-26.9,26c-15-14.1-40.5-6.9-46,12.9L307.3,255c-0.3,1-1.7,1-2,0l-15.2-47.9c-3.5-11-13.3-18.4-24.1-19.3
			l2.4-5.1c6.4-14,0.2-30.6-13.8-37c-13.9-6.3-30.7,0-37,13.8l-20.8,45.7c-0.4,0.9-1.8,0.8-2-0.3L170.6,47.8
			c-3.1-20.3-27.6-30.5-44.2-18.3c-2.1-13.8-8.2-26.2-23.4-29.1C86.1-2.7,69.8,10.8,69.9,28c-19.6-7-40.1,10.1-37,30.6l4,26
			C17.4,78-2.8,95,0.3,115.4l23.6,153c3.5,22.7,10.8,44.3,21.9,64.4l-4,96.5c-0.4,10.8,9.4,19.7,20.1,18l169.3-26.1
			c10.9-1.7,17.7-13.5,13.6-23.8l-35.1-87.1L242,240l38,117.8l-45.2,82.3c-5.3,9.7,0,22.3,10.6,25.3l165,46
			c10.4,2.9,21.3-4.7,22.1-15.5l7.5-96.2c13.3-18.6,23.2-39.2,29.3-61.3L477,311c2.6-9.3-11.9-13.3-14.5-4l-7.6,27.3
			c-5.9,21-15.4,40.6-28.3,58.2c-0.8,1.1-1.3,2.5-1.4,3.9l-4.6,59.4l-153.8-42.8l27.8-50.7c1-1.8,1.2-4,0.6-5.9l-44.1-136.7
			c-5-15.8,19.6-23.8,24.7-7.9l15.2,47.9c4.7,14.9,26.6,14.5,30.8-0.5l42.6-153.2c4.4-15.8,29.5-9.4,24.9,6.9l-36.7,131.6
			c-2.6,9.3,11.9,13.3,14.5,4l36.7-131.6v0l8.2-29.5c4.4-15.8,29.5-9.4,24.9,6.9l-44.9,161.1c-2.7,9.6,11.9,13.2,14.5,4l39.4-141.4
			c4.5-16.1,29.4-9.1,24.9,6.9l-13.7,49.2c0,0,0,0,0,0l-25.7,92.2c-2.6,9.3,11.9,13.3,14.5,4l25.7-92.2c4.5-16.1,29.4-9.1,24.9,7
			L475.1,262c-2.6,9.3,11.9,13.3,14.5,4l21.4-76.9C515.1,174.3,506.4,158.8,491.6,154.7L491.6,154.7z M419.5,471l-1.8,23.7
			c-0.1,1.6-1.7,2.6-3.2,2.2l-165-46c-1.5-0.4-2.3-2.2-1.5-3.6l11.5-21L419.5,471z M194.5,312.9l21.6,53.6l-24.3,3.7
			c-9.5,1.5-7.3,16.3,2.3,14.8l27.8-4.3l8.9,22.2c0.6,1.5-0.4,3.2-1.9,3.4L59.6,432.4c-1.5,0.2-2.9-1-2.9-2.6l1-23.8l90.4-13.9
			c9.5-1.5,7.2-16.3-2.3-14.8l-87.5,13.5l2.5-59.5c0.1-1.4-0.3-2.8-1-4c-10.7-19-17.8-39.6-21.1-61.2L15.1,113.1
			c-2.5-16.5,23-20.4,25.6-3.9l14.6,94.6c1.4,9.1,16.4,8,14.8-2.3l-14.6-94.6c0,0,0,0,0,0l-7.8-50.5c-2.5-16.5,23-20.4,25.6-3.9
			l22.3,145.1c1.4,9.1,16.4,8,14.8-2.3L85.1,29.9c-2.5-16.5,23-20.4,25.6-3.9l25.4,165.3c1.5,9.5,16.3,7.3,14.8-2.3L130.2,54
			c-2.5-16.5,23-20.4,25.6-3.9l24.2,157.2c2.4,15.4,24,18.4,30.5,4.2l20.8-45.7c6.9-15.2,30.5-4.5,23.6,10.7
			c-2.3,4.9-6.3,10.8-7.1,16.2c-8.1,5.6-12.7,15.3-11.9,25.2l-41,89C193.8,308.8,193.7,311,194.5,312.9L194.5,312.9z"/>
	</g>
</g>
</svg>
