<?xml version="1.0" encoding="utf-8"?>
<!-- Generator: Adobe Illustrator 23.0.1, SVG Export Plug-In . SVG Version: 6.00 Build 0)  -->
<svg version="1.1" xmlns="http://www.w3.org/2000/svg" xmlns:xlink="http://www.w3.org/1999/xlink" x="0px" y="0px"
	 viewBox="0 0 512 512" style="enable-background:new 0 0 512 512;" xml:space="preserve">
<style type="text/css">
	.st0{fill:#CCCCCC;}
</style>
<g id="Vrstva_2">
	<polygon class="st0" points="220,93 140,131 96.2,194 86,256 96.2,466.7 173,501 176,472 335,472 335,501 415.8,474 427,222.1 
		383.6,145 319,106.6 287.2,93 302,45 278,20 243,9 220,28 216,67 	"/>
</g>
<g id="Capa_1">
	<g>
		<g>
			<path d="M394.4,143.4c-24.8-28.8-58.5-48.6-95.6-56.1l5.7-20.3c5.1-15.7,2.6-32.4-7.1-45.8C287.7,7.7,272.6,0,256,0
				s-31.7,7.7-41.5,21.2c-9.7,13.4-12.3,30.1-7.1,45.8l5.7,20.3c-36.9,7.5-70.4,27.1-95.3,55.7c-26.8,31-41.6,70.7-41.6,111.8
				c0,0.1,0,0.3,0,0.4l4,87.7l5.8,127.5c0.2,7.8,7.6,12.7,15.6,16.8c6.1,3.1,14.4,6.6,24.6,10.3c16.9,6.2,37.6,12.4,46.1,13.9
				c0,0,0,0,0,0c0.9,0.2,2.3,0.4,3.8,0.4c2.4,0,5.2-0.6,7.6-2.8c2-1.9,3.2-4.6,3.2-7.4v-19.9h138.3v19.9c0,2.8,1.1,5.5,3.2,7.4
				c3.9,3.7,8.9,2.9,11.4,2.4c0,0,0,0,0,0c8.5-1.5,29.2-7.8,46.1-13.9c10.2-3.7,18.5-7.2,24.6-10.3c8-4.1,15.5-8.9,15.6-16.8
				l5.8-127.5l4-87.7c0-0.1,0-0.3,0-0.4C435.8,213.9,421.1,174.4,394.4,143.4z M230.7,32.9C236.7,24.7,245.9,20,256,20
				c10.1,0,19.3,4.7,25.3,12.9c5.9,8.2,7.5,18.4,4.3,28c0,0.1-0.1,0.3-0.1,0.4l-17.6,62.5h-23.6l-17.6-62.5c0-0.1-0.1-0.3-0.1-0.4
				C223.3,51.4,224.8,41.1,230.7,32.9z M105.8,466.8l-3.6-80l52.3,99.4C135.8,480.3,112.7,471.6,105.8,466.8z M336.4,340.4
				c-6.6,3.7-10.5,6-11.2,11.5c0,0.4-0.1,0.8-0.1,1.2v108.7H186.9V353.1c0-0.4,0-0.8-0.1-1.2c-0.7-5.5-4.7-7.8-10.8-11.3
				c-3.1-1.8-7.5-4.1-12.9-7c-5.9-3.2-11.9-6.3-15.4-8v-45.9c15.4-0.9,50-0.9,65.1,0l2.3,97.3c-0.1,3.2,0.8,6.4,2.6,9l25.7,44.8
				c0.2,0.4,0.5,0.8,0.8,1.2c2.8,3.6,7.1,5.7,11.7,5.7s8.8-2.1,11.7-5.7c0.3-0.4,0.6-0.8,0.8-1.2l25.7-44.8c1.8-2.6,2.8-5.8,2.6-9
				l2.3-97.3c15.1-0.9,49.7-0.9,65.1,0v45.8c-3.8,2-9,4.7-14.2,7.5C344.3,336,339.7,338.5,336.4,340.4z M406.2,466.8
				c-6.9,4.8-30,13.5-48.7,19.4l52.3-99.4L406.2,466.8z M411.9,339.9l-66.8,126.8V358.5c6.7-3.9,21.1-11.5,33.7-18
				c3.3-1.7,5.4-5.1,5.4-8.9v-60.4c0-3.7-2.1-7.2-5.4-9c-2.1-1.1-5.6-3-47.2-3.1c-0.5,0-1,0-1.5,0c-40.7,0-43.6,1.9-46.1,3.5
				c-2.9,1.9-4.6,5.1-4.7,8.5l-2.5,105L256,412.3L235.1,376l-2.5-105c0-3.4-1.8-6.6-4.7-8.5c-2.5-1.7-5.4-3.5-47.5-3.5
				c-41.6,0-45.1,1.9-47.2,3.1c-3.4,1.8-5.4,5.3-5.4,9v57.6c0,5.3,2.9,10.3,7.5,12.9c0.1,0.1,0.3,0.2,0.4,0.2
				c11.6,5.9,24.9,12.9,31.2,16.6v108.2l-66.8-126.8l-3.8-85.3c0.1-71.9,52.3-134.5,122.3-148L224,126
				c-52.5,9.4-95.2,50.4-105.5,104.2c-1,5.4,2.5,10.7,7.9,11.7c0.6,0.1,1.3,0.2,1.9,0.2c4.7,0,8.9-3.3,9.8-8.1
				c10-52.2,55.8-90.1,109-90.1h17.7c41.8,0,79.7,23.2,98.8,60.5c2.5,4.9,8.5,6.9,13.5,4.3c4.9-2.5,6.9-8.5,4.3-13.5
				c-19-37-53.6-62.2-93.4-69.3l5.5-19.3c71.1,13.6,122.2,75.1,122.3,148L411.9,339.9z"/>
		</g>
	</g>
	<g>
		<g>
			<path d="M383.6,222.1L383.6,222.1c-5.5,0-10,4.5-10,10s4.5,10,10,10c5.5,0,10-4.5,10-10S389.2,222.1,383.6,222.1z"/>
		</g>
	</g>
</g>
</svg>
