<?xml version="1.0" encoding="utf-8"?>
<!-- Generator: Adobe Illustrator 23.0.1, SVG Export Plug-In . SVG Version: 6.00 Build 0)  -->
<svg version="1.1" xmlns="http://www.w3.org/2000/svg" xmlns:xlink="http://www.w3.org/1999/xlink" x="0px" y="0px"
	 viewBox="0 0 512 512" style="enable-background:new 0 0 512 512;" xml:space="preserve">
<style type="text/css">
	.st0{fill:#CCCCCC;stroke:#000000;stroke-miterlimit:10;}
</style>
<g id="Vrstva_2">
	<path class="st0" d="M36,10l143.2,46c0,0,66.4-102.5,153.6-4.7l90.9-17.1L473,9l21.5,8.1L506,34.2L487,65l-17,11l36,141l-29,46
		l29,88l-11.1,79.9c0,0-38.2,13.1-75.6-5.9L385,479h-23l-51-36l-46,56h-13l-49-53l-73,33l-37.4-60L27,437l-14-6.1L6,360l31-92.4
		L6,220L37,74L6,55V28L36,10z"/>
</g>
<g id="Vrstva_1">
	<path d="M256,153.6c33,0,59.7-26.7,59.7-59.7c0-33-26.7-59.7-59.7-59.7c-33,0-59.7,26.7-59.7,59.7C196.3,126.9,223,153.6,256,153.6
		z M256,51.3c23.6,0,42.7,19.1,42.7,42.7c0,23.6-19.1,42.7-42.7,42.7c-23.6,0-42.7-19.1-42.7-42.7C213.4,70.4,232.5,51.3,256,51.3z"
		/>
	<path d="M3.8,233.3l19.6,37.5l-8.9,29.6c0,0.1-0.1,0.1-0.1,0.2c0,0.1,0,0.2,0,0.3L2.2,341.2c-1.5,5.2-2.1,10.6-1.6,16l6.1,67.4
		c0.7,7.5,4.6,14.2,10.7,18.6c6.1,4.3,13.8,5.8,21.1,4l53.6-13.4l20.2,40.5c3.1,6.3,8.7,11,15.4,13c2.5,0.8,5,1.2,7.6,1.2
		c4.3,0,8.6-1.1,12.4-3.2l54.2-30.1l33.5,46.3c4.7,6.6,12.4,10.6,20.6,10.6s15.8-3.9,20.6-10.6l33.5-46.3l54.2,30.1
		c6.1,3.4,13.3,4.1,20,2.1c6.7-2.1,12.2-6.8,15.3-13l20.2-40.5l53.6,13.4c2.1,0.5,4.2,0.8,6.3,0.8c13.2,0,24.3-10.1,25.4-23.3
		l6.1-67.3c0.5-5.4,0-10.9-1.6-16.2l-12.1-40.3c0-0.1,0-0.2,0-0.2c0-0.1-0.1-0.1-0.1-0.2l-8.9-29.6l19.5-37.4
		c3.5-6.6,4.6-14.2,3.3-21.5L482.1,78.3c5-2.8,9.9-5.8,14.5-9.2c8.2-6.1,13.6-15.2,15-25.3c1.4-10.1-1.2-20.3-7.3-28.5
		C491.7-1.4,468-4.9,451,7.4c-1.6,1.1-38.3,25.9-115,37.7c-17-28-47.3-45-80-45c-32.7,0-63,17.1-80,45C99.3,33.3,62.6,8.5,61.2,7.5
		c-12.5-9.2-29.2-10-42.5-2C5.4,13.4-1.8,28.6,0.4,43.9C1.8,54,7.2,63.1,15.4,69.1c4.7,3.4,9.5,6.4,14.6,9.2L0.5,212.2
		C-0.8,219.4,0.4,226.8,3.8,233.3z M34.4,430.6c-2.4,0.6-5,0.2-7.1-1.3s-3.3-3.7-3.5-6.2l-6.1-67.5c-0.3-3.2,0-6.5,1-9.6l9.6-31.8
		l28.9,9.7c2.9,1.1,6.2,0.5,8.5-1.6c2.3-2,3.4-5.2,2.7-8.2c-0.7-3-2.9-5.5-5.9-6.4l-29.4-9.8l38.5-128.4l28.1,9.4
		c0.9,0.3,1.8,0.4,2.7,0.4c4.2,0,7.8-3,8.4-7.2c0.7-4.1-1.8-8.1-5.7-9.5l-28.6-9.5l14.7-48.9c22.2,7,44.9,12.3,67.9,15.9l-33,112
		l-29.6-9.8c-2.9-1-6.2-0.4-8.5,1.6c-2.3,2-3.4,5.2-2.7,8.2c0.6,3,2.9,5.5,5.8,6.4l30.1,10L79.1,392.2c-1.8,6.2-1.2,12.9,1.7,18.7
		l3.6,7.2L34.4,430.6z M139.5,470.3c-2,1.1-4.4,1.4-6.7,0.7c-2.2-0.7-4.1-2.3-5.1-4.3L96,403.3c-1-1.9-1.2-4.2-0.6-6.2l28.4-96.4
		l18.6,6.2c4.5,1.5,9.3-0.9,10.8-5.4c1.5-4.5-0.9-9.3-5.4-10.8l-19.2-6.4l11.3-38.4l0.1-0.1c0-0.1,0-0.1,0-0.2l14.7-49.9l21.4,8.5
		c2.8,1.1,6.1,0.7,8.4-1.2c2.4-1.9,3.6-4.9,3.2-7.9c-0.4-3-2.4-5.6-5.3-6.7l-22.9-9.1l12.7-43.3c9.8,19.4,25.9,34.8,45.8,43.7
		l-43.1,208.2c-1.1,5.4-1.4,10.9-0.8,16.4l-25.7-11c-4.3-1.9-9.3,0.2-11.2,4.5c-1.9,4.3,0.2,9.4,4.5,11.2l39.3,16.8
		c0.9,1.6,1.9,3.1,2.9,4.6l7.9,10.9L139.5,470.3z M262.7,491.4c-1.6,2.1-4.1,3.4-6.7,3.4c-2.7,0-5.1-1.3-6.7-3.4l-36.6-50.5
		c-0.1-0.4-0.2-0.8-0.4-1.3c-0.6-1.1-1.5-2-2.5-2.7l-12-16.6c-6-8.4-8.3-18.9-6.1-29l10.3-49.9h37c4.7,0,8.5-3.8,8.5-8.5
		c0-4.7-3.8-8.5-8.5-8.5h-33.5l14.1-68.3h19.3c4.7,0,8.5-3.8,8.5-8.5c0-4.7-3.8-8.5-8.5-8.5h-15.8l11.1-53.8
		c14.3,3.5,29.2,3.5,43.5,0l18.2,88h-14.3c-4.7,0-8.5,3.8-8.5,8.5c0,4.7,3.8,8.5,8.5,8.5h17.9l20.9,101.1c1.2,6.1,0.8,12.4-1,18.4
		h-37.7c-4.7,0-8.5,3.8-8.5,8.5c0,4.7,3.8,8.5,8.5,8.5h28l-7.4,10.2c-1,0.7-1.9,1.6-2.5,2.7c-0.2,0.4-0.3,0.8-0.4,1.2L262.7,491.4z
		 M384.3,466.7c-1,2.1-2.9,3.6-5.1,4.3s-4.6,0.4-6.7-0.7l-52.4-29.1l7.9-10.9c1.1-1.5,2-3,2.9-4.6l39.3-16.8
		c2.8-1.2,4.7-3.8,5.1-6.8c0.4-3-0.9-6-3.4-7.8c-2.4-1.8-5.7-2.2-8.5-1l-25.7,11c0.6-5.5,0.3-11-0.8-16.4L294,179.7
		c19.8-8.9,36-24.3,45.8-43.7l12.7,43.3l-22.9,9.1c-2.8,1.1-4.8,3.7-5.3,6.7c-0.4,3,0.8,6,3.2,7.9c2.4,1.9,5.6,2.4,8.4,1.2l21.4-8.5
		l14.7,49.9c0,0.1,0,0.1,0,0.2l0.1,0.1l11.3,38.4l-19.2,6.4c-2.9,1-5.1,3.4-5.7,6.4c-0.6,3,0.4,6.1,2.7,8.1c2.3,2,5.5,2.7,8.4,1.7
		l18.6-6.2l28.4,96.4c0.6,2.1,0.4,4.3-0.6,6.2L384.3,466.7z M488.2,423.1c-0.2,2.5-1.5,4.8-3.5,6.2c-2,1.4-4.6,1.9-7,1.3l-50-12.5
		l3.6-7.2c2.9-5.8,3.5-12.5,1.7-18.7l-42.3-143.7l30.1-10c3-0.9,5.2-3.4,5.8-6.4c0.6-3-0.4-6.2-2.7-8.2c-2.3-2-5.6-2.7-8.5-1.6
		l-29.6,9.8l-32.9-112c23-3.7,45.7-9,67.9-15.9l14.7,48.9l-28.6,9.5c-4,1.3-6.4,5.3-5.7,9.5c0.7,4.1,4.2,7.2,8.4,7.2
		c0.9,0,1.8-0.2,2.7-0.4l28.1-9.4l38.5,128.4l-29.4,9.8c-3,0.9-5.2,3.3-5.9,6.4c-0.7,3,0.4,6.2,2.7,8.2s5.6,2.6,8.5,1.6l28.9-9.7
		l9.5,31.7c0.9,3.2,1.3,6.5,1,9.8L488.2,423.1z M494.7,215.2c0.6,3.5,0,7.1-1.6,10.2l-11.5,22L437,98.7c11.5-4.2,21.3-8.4,29.4-12.3
		L494.7,215.2z M460.9,21.3c6.9-5.1,16.2-5.5,23.6-1.1c7.4,4.4,11.4,12.8,10.2,21.3c-0.8,5.6-3.8,10.7-8.4,14.1
		c-0.4,0.3-44.5,32.9-137,47.9c0.3-3.2,0.5-6.4,0.5-9.5c0-11.2-2.1-22.3-6-32.8C419.4,48.7,456.6,24.3,460.9,21.3z M256,17.1
		c42.4,0,76.8,34.4,76.8,76.8s-34.4,76.8-76.8,76.8c-42.4,0-76.8-34.4-76.8-76.8C179.3,51.5,213.6,17.2,256,17.1z M17.3,41.5
		c-1.2-8.6,2.9-17,10.3-21.4c7.4-4.4,16.8-3.9,23.7,1.3c4.1,2.9,41.3,27.2,116.8,39.7c-4,10.5-6,21.6-6,32.8c0,3.2,0.2,6.4,0.5,9.5
		c-92.5-15-136.5-47.6-137-47.9C21.1,52.1,18.1,47.1,17.3,41.5z M45.6,86.5c8.1,3.9,17.9,8.1,29.4,12.3L30.4,247.4l-11.5-22.1
		c-1.6-3-2.2-6.4-1.7-9.8L45.6,86.5z"/>
</g>
</svg>
