<?xml version="1.0" encoding="utf-8"?>
<!-- Generator: Adobe Illustrator 23.0.1, SVG Export Plug-In . SVG Version: 6.00 Build 0)  -->
<svg version="1.1" xmlns="http://www.w3.org/2000/svg" xmlns:xlink="http://www.w3.org/1999/xlink" x="0px" y="0px"
	 viewBox="0 0 402.9 402.9" style="enable-background:new 0 0 402.9 402.9;" xml:space="preserve">
<style type="text/css">
	.st0{fill:#CCCCCC;stroke:#000000;stroke-miterlimit:10;}
</style>
<g id="Vrstva_2">
	<path class="st0" d="M319.1,122.5c13.4,26.3,26.9,52.6,40.3,79l-5.2,88.5l-50.5,68.9l-67.9,35.7l-76.6-4.6l-63.8-30.6l-46.6-73.5
		c0,0-13.2-86.8-6.5-86l28.6-61.5l44.4-39.8l22-14.8l28.1,30.6l-44.9,29.1l-30.1,35.7l-11.2,57.3l9.7,46.4l37.8,51.1l68.9,22
		l74.8-16.3l49.3-62.8l2.6-73l-28.1-54.6c-19.2-11.7-38.5-23.5-57.7-35.2c9.9-8.9,19.7-17.7,29.6-26.6
		C283.7,99,301.4,110.8,319.1,122.5z"/>
	<polygon class="st0" points="123,54.6 159.3,9.7 243.6,8.1 287.4,60.2 205.2,140.4 119.4,64.3 	"/>
</g>
<g id="Capa_1">
	<g>
		<g>
			<path d="M352.8,159.9c-16.5-33.5-43.6-60.6-77.1-77.1l-0.1-0.1c0,0,12.9-13.3,17.4-17.4c1.5-1.5,2.3-3.6,2.3-5.7
				c-0.2-1.8-0.8-3.6-1.8-5.1l-43-51.7C249,1.1,246.7,0,244.3,0h-85.9c-2.4,0.1-4.6,1.1-6.2,2.9l-43,51.5c-1.1,1.5-1.7,3.3-1.8,5.1
				c0.1,2.1,0.9,4.1,2.3,5.7l17.4,17.7C43.5,123.9,9,225,50.1,308.6s142.1,118.1,225.7,77.1C359.4,344.6,393.9,243.5,352.8,159.9z
				 M247.7,24.4l22.6,27h-31L247.7,24.4z M268.3,67.4l-49.5,50.4l15.6-50.4H268.3z M195.7,152.6c1.5,1.5,3.6,2.3,5.7,2.4
				c2.1-0.2,4.1-1,5.7-2.4l28.4-28.9c60.9,18.8,94.9,83.5,76.1,144.3s-83.5,94.9-144.3,76.1s-94.9-83.5-76.1-144.3
				c11.3-36.4,39.7-64.8,76.1-76.1L195.7,152.6z M185.4,67.4h32l-16,52.4L185.4,67.4z M233.4,15.9l-7,22.6L214.6,16L233.4,15.9z
				 M215.1,51.4h-27.5l13.8-26.1L215.1,51.4z M188.2,16l-11.9,22.6L169.4,16H188.2z M184,117.9l-37.5-38.2l-12-12.2h33.9L184,117.9z
				 M155.1,24.4l8,27h-30.6L155.1,24.4z M201.4,386.7c-84.3,0-152.5-68.3-152.5-152.6C48.9,174,84.2,119.6,139,95l16,16
				C87.2,136.7,53,212.5,78.7,280.4s101.6,102,169.4,76.3s102-101.6,76.3-169.4c-13.3-35.2-41.1-62.9-76.3-76.3l16-16
				c76.9,34.5,111.2,124.8,76.8,201.6C316.2,351.5,261.6,386.8,201.4,386.7z"/>
		</g>
	</g>
</g>
</svg>
