<?xml version="1.0" encoding="utf-8"?>
<!-- Generator: Adobe Illustrator 23.0.1, SVG Export Plug-In . SVG Version: 6.00 Build 0)  -->
<svg version="1.1" xmlns="http://www.w3.org/2000/svg" xmlns:xlink="http://www.w3.org/1999/xlink" x="0px" y="0px"
	 viewBox="0 0 512 512" style="enable-background:new 0 0 512 512;" xml:space="preserve">
<style type="text/css">
	.st0{fill:#CCCCCC;stroke:#000000;stroke-miterlimit:10;}
</style>
<g id="Vrstva_2">
	<polygon class="st0" points="184.5,260 310,107 343,93 334.5,71 381,9 488.3,25 503,128 438,174.2 421,194 385.8,244 256,322.9 
		237,340.9 318,401.2 295,447.7 250,469.4 196,407.5 175,401.2 70.9,500 22.6,491 9,447.7 116,327.8 85,296.7 35,264.9 58,221 
		106.7,196 134.3,243 174,274 	"/>
</g>
<g id="Capa_1">
	<g>
		<g>
			<path d="M510.1,131.8c0.1-0.8,0.1-1.7,0-2.5L497.2,21.7c-0.5-4.5-4.2-8.2-8.7-8.7L380.8,0.1c-3.7-0.4-7.3,1.2-9.4,4.2l-44.6,63.4
				c-2.4,3.5-2.4,8.1,0.1,11.6l5,6.9l-19.4,5.7c-2.2,0.6-4.1,2-5.4,3.8l-24.9,35.5L223,187.6c-0.5,0.5-1,1.1-1.4,1.6L171.3,264
				l-31.7-29.4l-22-45.7c-1.2-2.4-3.3-4.3-5.9-5.2c-2.6-0.9-5.4-0.6-7.8,0.6l-48.1,25.3c-1.8,1-3.3,2.5-4.3,4.3l-23.3,46.1
				c-2.3,4.6-0.7,10.3,3.7,13l38.3,23.5l30.5,33.2l-19.5,23.7l-1.2-0.9c-4.4-3.4-10.7-2.6-14,1.8c-3.4,4.4-2.6,10.6,1.8,14l0.7,0.6
				l-12.5,15.2l-3.2-3c-4-3.8-10.4-3.6-14.1,0.5c-3.8,4-3.6,10.4,0.5,14.1l4.2,3.9L26,420.9l-1-0.7c-4.6-3.1-10.8-1.9-13.9,2.7
				c-3,4.4-2,10.3,2.2,13.5l-9.1,11.1c-1.9,2.3-2.7,5.4-2.1,8.3l7.5,38c0.8,3.8,3.6,6.8,7.4,7.8l40.5,10.1c0.8,0.2,1.6,0.3,2.4,0.3
				c2.4,0,4.8-0.9,6.6-2.5l23.8-21.1l4.9,3.3c4.5,3,10.8,1.8,13.9-2.7c3.1-4.6,1.9-10.8-2.7-13.9l-0.6-0.4l9.2-8.2l2.7,2.5
				c4,3.7,10.4,3.5,14.1-0.5c3.8-4,3.6-10.4-0.5-14.1l-1.3-1.2l22.1-19.7l3.8,3c4.3,3.3,10.7,2.5,14-1.8c3.4-4.4,2.6-10.6-1.8-14
				l-0.8-0.6l10.8-9.6l39.2,30.9L242,477c2.9,4.2,8.8,5.6,13.2,3l45.1-26.2c1.6-0.9,2.8-2.2,3.7-3.8l23.9-42.8
				c2.7-4.8,0.9-11-3.9-13.6l-38.3-21.1L252.2,339l94.3-72.5l50.5-29c1.2-0.7,2.3-1.6,3.1-2.8l35.9-49.1l39.5-19.9
				c0.8-0.4,1.6-0.9,2.2-1.5l29-26.4C508.6,136.3,509.8,134.1,510.1,131.8L510.1,131.8z M164.3,343l2,32.7l-17.6-13.9l-14.5-20.9
				L164.3,343z M82,280.3l-31.7-19.4l17.7-35l36.1-19l18.3,38c0.5,1.1,1.3,2.1,2.2,3l36.1,33.5c-0.1,0.7,2.4,41.5,2.4,41.5
				l-44.2-3.1l-34.7-37.7C83.5,281.4,82.8,280.8,82,280.3L82,280.3z M57.3,491L28,483.7l-5.4-27.1l7.3-8.9l43.3,29.2L57.3,491z
				 M88.7,463.1l-46-31l15.4-18.8l42.2,39.4L88.7,463.1z M115.3,439.5l-44.5-41.5l13.7-16.7l51.5,39.8L115.3,439.5z M97.3,365.8
				l16.2-19.7l19.7,28.4c0.6,0.8,1.3,1.5,2,2.2l27,21.2l-10.9,9.7L97.3,365.8z M272.6,387.7c0.7,0.7,1.4,1.2,2.3,1.7l30.7,16.9
				l-17.6,31.6L253.2,458L233,428.7c-0.6-0.8-1.3-1.6-2-2.2l-43.5-34.2l-3-47.9l48.2,3.4L272.6,387.7z M465.4,148.6l-40.5,20.3
				c-1.4,0.7-2.6,1.8-3.6,3l-36.1,49.3L336,249.5c-0.4,0.2-0.8,0.5-1.1,0.7L234,327.8l-50.8-3.5l-2.4-38.6c0.2-0.3,0.4-0.5,0.6-0.8
				l56.2-83.5l59.1-56.4c0.5-0.5,0.9-0.9,1.3-1.5l23.5-33.4l29.6-8.7c3.1-0.9,5.6-3.3,6.6-6.4c1.1-3.1,0.5-6.5-1.3-9.1l-9.1-12.6
				l37-52.7l81.2,9.7l-228,228c-3.9,3.9-3.9,10.2,0,14.1c3.9,3.9,10.3,3.9,14.1,0l228-228l8.5,71.1l-18.9-6.8
				c-2.1-0.7-4.3-0.8-6.4-0.1l-19.5,6.1c-5.3,1.7-8.2,7.3-6.5,12.5c1.7,5.3,7.3,8.2,12.5,6.5l16.3-5.1l15.3,5.5L465.4,148.6z"/>
			<path d="M225.4,292.9c-1.6-3.9-5.7-6.5-10-6.1c-4.2,0.3-7.8,3.3-8.9,7.3c-2.4,8.5,7.2,15.8,14.8,11.2
				C225.5,302.8,227.2,297.4,225.4,292.9L225.4,292.9z"/>
		</g>
	</g>
</g>
</svg>
