<svg id="Layer_1" height="512" viewBox="0 0 512 512" width="512" xmlns="http://www.w3.org/2000/svg" data-name="Layer 1"><path d="m219.269 452.785-1.209 12.863 3.328 1.469 1.878-6.061a80.854 80.854 0 0 1 -3.997-8.271z"/><path d="m246.769 476.236a86.335 86.335 0 0 0 32.048 19.482c-21.575-17.026-33.574-41.482-39.834-58.945l-1.831 11.8a4.755 4.755 0 0 1 -4.81 4.011l-2.8-.076a83.46 83.46 0 0 0 17.227 23.728z"/><path d="m106.258 190.56c18.435 31.385 26.6 57.829 27.645 61.35q3.957 1.121 7.567 2.262c-2.819-8.552-9.84-29.457-14.9-41.159a4.738 4.738 0 1 1 8.7-3.759c6.613 15.3 16.065 44.582 16.464 45.822a4.706 4.706 0 0 1 .073 2.6 166.32 166.32 0 0 1 25.282 11.352c2.3-.413 6.552-1.087 12.076-1.573-10.992-30.315 1.347-55.015 7.432-64.557-35.217-24.78-48.343-55.893-53.122-78a125.034 125.034 0 0 1 -2.256-39.521c-39.519-6.446-65.051-20.026-75.909-40.392a49.287 49.287 0 0 1 -4.366-33.985c-19.513 6.741-33.694 17.616-42.221 32.4-12.948 22.455-9.2 47.639-7.712 54.952 26.369 12.348 63.572 38.281 95.247 92.208zm-56.566-137.499c-16.541 16.509-7.925 39.446-7.837 39.676a4.738 4.738 0 1 1 -8.837 3.421c-.454-1.173-10.887-28.979 9.98-49.8a4.738 4.738 0 0 1 6.694 6.708zm6.688 43.009a4.737 4.737 0 0 1 2.828-6.07c29.439-10.729 66.157 8.476 67.705 9.3a4.738 4.738 0 1 1 -4.446 8.369c-.5-.263-34.623-18.017-60.013-8.763a4.738 4.738 0 0 1 -6.074-2.836z"/><path d="m192.684 371.152c-2.49-1.737-5.527-3.828-9.1-6.191l-11.243 32.452a6.583 6.583 0 0 0 1.06 6.266l8 10.13a6.578 6.578 0 0 0 5.193 2.516 16.053 16.053 0 0 1 14.848 9.889l.563 1.348 4.956-.763a12.439 12.439 0 0 0 -6.9-7.476l-.384-.164a22.015 22.015 0 0 1 -13.115-17.367l-1.433-11.192a21.961 21.961 0 0 1 7.555-19.448z"/><path d="m412.443 114.261c-31.635-2.472-61.235 1.839-70.827 3.465-4.033 22.454-21.573 60.927-79.663 120.864-3.149 3.248-6.339 9.471-9.425 15.488-6.567 12.8-14.009 27.319-26.791 24.582-23.979-5.131-48.287-.051-48.532 0a4.734 4.734 0 0 1 -3.534-.636c-.181-.115-19.088-11.906-55.18-20.3a81.2 81.2 0 0 0 -22.29-2.193 97.319 97.319 0 0 1 -5.862 13.855 4.739 4.739 0 0 1 -8.229-4.7c2.526-4.418 5.942-14.28 8.279-21.594-19.8 4.618-20.157 29.773-20.163 30.947a4.742 4.742 0 0 1 -4.738 4.724h-.01a4.734 4.734 0 0 1 -4.728-4.733 55.975 55.975 0 0 1 4.332-20.084 35.98 35.98 0 0 1 10.154-13.867 71.073 71.073 0 0 0 .113-15.436c-19.9 17.71-22.946 56.18-23.068 57.869l-1.2 32.043a1.374 1.374 0 0 0 1.134 1.388l10.875 1.977 6.864-10.788a4.741 4.741 0 0 1 2.337-1.893c.14-.053 13.043-5.107 18.237-16.741-3.621.45-5.764.946-5.86.969a4.738 4.738 0 0 1 -2.249-9.206c2.04-.5 50.361-11.824 86.733 23.952a4.738 4.738 0 0 1 -6.645 6.757 78.384 78.384 0 0 0 -8.109-6.959c3.432 14.929 11.453 38.3 29.249 49.685 7.488 4.793 13.256 8.839 17.072 11.517l1.648 1.154c.071-.015.137-.038.208-.053l18.055-3.61a21.948 21.948 0 0 1 19.378 5.582l11.482 10.878a4.738 4.738 0 1 1 -6.517 6.879l-11.482-10.878a12.464 12.464 0 0 0 -11-3.169l-18.055 3.604a12.49 12.49 0 0 0 -9.906 13.79l1.435 11.194a12.5 12.5 0 0 0 7.444 9.859l.382.164a21.9 21.9 0 0 1 13.294 20.154 4.738 4.738 0 0 1 -4.017 4.683l-12.153 1.87a9.836 9.836 0 0 0 -8.385 9.773v9.69l3.22.885.069-.282a19.459 19.459 0 0 1 19.326-14.738l13.281.356 6.414-41.339a4.739 4.739 0 0 1 9.366 1.453l-1.761 11.35c1.36 6.567 12.562 55.341 49.065 78.674 3.368 1.559 47.342 20.989 81.694-7.766.094-.077.189-.151.288-.222l16.708-11.929 5.6-5.374a43.088 43.088 0 0 0 13.273-29.222l.564-12.158-10.045 9.14a43.184 43.184 0 0 0 -13.95 27.85l-.771 8a4.739 4.739 0 0 1 -1.128 2.639c-23.352 27.087-65.542 18.48-67.326 18.1-36.971-8.531-41.169-48.234-41.207-48.634a4.617 4.617 0 0 1 -.022-.5c.8-77.031-16.091-93.582-17.211-94.589a4.414 4.414 0 0 1 -2.015-3.068 4.63 4.63 0 0 1 1.054-3.693c14.742-18.9 37.347-30 65.371-32.1a139.582 139.582 0 0 1 33.083 1.548c9.555-47.178 33.592-70.7 52.391-82.18a97.066 97.066 0 0 1 36.718-13.391c1.787-18.741 8.585-32.937 20.238-42.238 12.905-10.3 28.5-11.943 37.835-11.816-13.429-27.749-43.729-43.639-90.209-47.272zm-351.612 185.818a5.265 5.265 0 1 1 5.265-5.265 5.271 5.271 0 0 1 -5.265 5.265zm287.953-3.771a4.739 4.739 0 0 1 -9-2.986c.16-.48 15.71-48.391.165-83.538a4.738 4.738 0 1 1 8.666-3.833c17.048 38.53.866 88.259.169 90.357zm9.784-165.625c-2.812 21.869-19.008 61.189-80.2 124.324a4.738 4.738 0 1 1 -6.805-6.595c26.831-27.684 72.591-79.947 77.6-118.937a4.738 4.738 0 1 1 9.4 1.208zm73.71 80.688a4.736 4.736 0 0 1 -5.71-3.5c-.437-1.785-11.095-42.995-61.055-51.237a4.739 4.739 0 1 1 1.542-9.351c29.385 4.848 46.492 20.381 55.667 32.558 9.965 13.224 12.938 25.305 13.059 25.813a4.738 4.738 0 0 1 -3.503 5.717z"/><path d="m393.388 319.771a169.857 169.857 0 0 0 -7.225 27.729 4.738 4.738 0 0 0 3.845 5.488 4.853 4.853 0 0 0 .826.072 4.739 4.739 0 0 0 4.661-3.918 160.45 160.45 0 0 1 6.815-26.178 4.738 4.738 0 1 0 -8.922-3.193z"/><path d="m419.05 291.591a4.738 4.738 0 1 0 -7.523-5.761c-1.563 2.04-3.088 4.184-4.532 6.371a4.738 4.738 0 1 0 7.907 5.223c1.323-2.005 2.72-3.966 4.148-5.833z"/><path d="m480.423 246.76a79.843 79.843 0 0 0 -20.03 4.129 100.233 100.233 0 0 0 -34.438 19.557 4.738 4.738 0 1 0 6.213 7.155 90.8 90.8 0 0 1 31.181-17.708 72.127 72.127 0 0 1 17.434-3.663 4.738 4.738 0 0 0 -.36-9.47z"/><path d="m232.216 195.116a4.738 4.738 0 1 0 5.211-7.915 130.042 130.042 0 0 1 -33.327-31.038 4.739 4.739 0 0 0 -7.62 5.636 139.506 139.506 0 0 0 35.736 33.317z"/><path d="m178.924 110a4.74 4.74 0 0 0 -3.572 5.671 124.511 124.511 0 0 0 8.564 25.048 4.738 4.738 0 1 0 8.586-4.011 114.858 114.858 0 0 1 -7.907-23.137 4.74 4.74 0 0 0 -5.671-3.571z"/><path d="m176.8 87.8h.173a4.738 4.738 0 0 0 4.732-4.569 79.9 79.9 0 0 1 1.109-11.411 4.739 4.739 0 0 0 -9.291-1.873 87.363 87.363 0 0 0 -1.288 12.945 4.738 4.738 0 0 0 4.565 4.908z"/></svg>