<?xml version="1.0" encoding="iso-8859-1"?>
<!-- Generator: Adobe Illustrator 19.0.0, SVG Export Plug-In . SVG Version: 6.00 Build 0)  -->
<svg version="1.1" id="Capa_1" xmlns="http://www.w3.org/2000/svg" xmlns:xlink="http://www.w3.org/1999/xlink" x="0px" y="0px"
	 viewBox="0 0 512 512" style="enable-background:new 0 0 512 512;" xml:space="preserve">
<g>
	<g>
		<path d="M447.2,240C439.337,146.69,365.31,72.663,272,64.8V0h-32v64.8C146.69,72.663,72.663,146.69,64.8,240H0v32h64.8
			c7.863,93.31,81.89,167.337,175.2,175.2V512h32v-64.8c93.31-7.863,167.337-81.89,175.2-175.2H512v-32H447.2z M240,415.2
			c-75.712-7.609-135.591-67.488-143.2-143.2h32c7.377,58.027,53.152,103.67,111.2,110.88V415.2z M240,351.2
			c-40.412-6.916-71.972-38.733-78.56-79.2H240V351.2z M240,240h-78.56c6.835-40.219,38.341-71.725,78.56-78.56V240z M240,129.12
			c-57.923,7.345-103.535,52.957-110.88,110.88h-32c7.582-75.605,67.292-135.449,142.88-143.2V129.12z M272,161.12
			c40.315,6.875,71.849,38.537,78.56,78.88H272V161.12z M272,272h78.56c-6.835,40.219-38.341,71.725-78.56,78.56V272z M272,415.2
			v-32c58.027-7.377,103.67-53.152,110.88-111.2h32C407.298,347.605,347.588,407.449,272,415.2z M382.88,240
			c-7.345-57.923-52.957-103.535-110.88-110.88v-32c75.605,7.582,135.449,67.292,143.2,142.88H382.88z"/>
	</g>
</g>
<g>
</g>
<g>
</g>
<g>
</g>
<g>
</g>
<g>
</g>
<g>
</g>
<g>
</g>
<g>
</g>
<g>
</g>
<g>
</g>
<g>
</g>
<g>
</g>
<g>
</g>
<g>
</g>
<g>
</g>
</svg>
