<?xml version="1.0" encoding="iso-8859-1"?>
<!-- Generator: Adobe Illustrator 16.0.0, SVG Export Plug-In . SVG Version: 6.00 Build 0)  -->
<!DOCTYPE svg PUBLIC "-//W3C//DTD SVG 1.1//EN" "http://www.w3.org/Graphics/SVG/1.1/DTD/svg11.dtd">
<svg version="1.1" id="Capa_1" xmlns="http://www.w3.org/2000/svg" xmlns:xlink="http://www.w3.org/1999/xlink" x="0px" y="0px"
	 width="593.688px" height="593.688px" viewBox="0 0 593.688 593.688" style="enable-background:new 0 0 593.688 593.688;"
	 xml:space="preserve">
<g>
	<path d="M583.328,339.321c-6.12-1.109-12.207-2.407-18.34-3.419c-2.966-0.641-5.977-1.023-9.004-1.146
		c-16.496-1.342-33.171-0.253-49.842-0.995c-17.674-0.787-35.296-2.456-52.901-4.125c-12.954-1.228-26.124-2.484-38.449-6.924
		c-13.183-4.749-26.247-9.511-39.728-13.436c-1.448-0.583-2.9-1.158-4.365-1.705c-0.6-0.225-1.199-0.44-1.8-0.657
		c-0.212-0.077-0.53-0.244-0.722-0.363c-0.225-0.143-0.457-0.265-0.693-0.367c-9.837-4.186-19.891-7.649-30.368-9.866
		c-8.979-1.897-18.14-3.101-27.315-3.521c-3.027-0.318-6.062-0.563-9.103-0.727c-2.778-0.146-5.548-0.347-8.315-0.583
		c-7.943-1.135-15.912-2.109-23.892-2.93c-0.759-0.11-1.522-0.225-2.281-0.331c-0.225-0.032-0.575-0.122-0.792-0.191
		c-0.926-0.298-1.901-0.481-2.913-0.534c0,0-0.11-0.004-0.245-0.013c-0.134-0.008-0.412-0.077-0.624-0.155
		c-3.64-1.358-7.466-2.089-11.412-2.142c-0.135,0-0.266,0-0.396,0.004c-0.22,0.009-0.575-0.021-0.792-0.073
		c-1.656-0.408-3.264-0.894-4.892-1.31c-0.604-0.155-1.208-0.302-1.815-0.444c-0.22-0.054-0.555-0.192-0.747-0.307
		c-0.62-0.359-1.285-0.665-2.056-0.877c-0.841-0.232-1.661-0.322-2.469-0.314c-0.224,0.004-0.583-0.045-0.795-0.114
		c-0.649-0.216-1.297-0.448-1.942-0.681c-0.212-0.078-0.53-0.241-0.722-0.363c-0.171-0.114-0.342-0.229-0.514-0.339
		c-1.249-0.723-2.575-1.159-3.982-1.302c-0.224-0.024-0.522-0.073-0.661-0.118c-0.086-0.028-0.167-0.057-0.253-0.082
		c-2.105-0.64-4.219-1.297-6.369-1.754c-1.554-0.33-3.19-0.273-4.77-0.514c-1.375-0.213-2.729-0.563-4.088-0.861
		c-0.221-0.049-0.555-0.18-0.755-0.285c-0.628-0.335-1.297-0.604-1.987-0.792c-1.6-0.429-3.199-0.469-4.798-0.114
		c-0.22,0.049-0.575,0.09-0.8,0.077c-2.028-0.102-4.023-0.362-5.969-1.105c-0.208-0.077-0.437-0.146-0.665-0.175
		c-0.225-0.033-0.567-0.086-0.779-0.164c-0.261-0.098-0.522-0.184-0.792-0.257c-1.53-0.412-3.064-0.461-4.594-0.155
		c-0.22,0.045-0.457,0.058-0.522,0.024c-0.041-0.02-0.082-0.04-0.123-0.057c-2.244-1.016-2.787-1.317-5.316-1.428
		c-1.003-0.045-2.048,0.09-3.003,0.403c-0.106,0.029-0.212,0.062-0.314,0.094c-0.171,0.054-0.473,0.024-0.686-0.057
		c-2.081-0.845-4.137-0.767-6.446-0.404c-0.628,0.099-1.261,0.192-1.889,0.286c-0.224,0.032-0.583,0.065-0.808,0.065
		c-2.252,0.021-4.513-0.159-6.765-0.11c-1.738,0.036-3.484,0.229-5.198,0.534c-0.963,0.172-1.93,0.339-2.896,0.485
		c-0.225,0.033-0.49-0.098-0.625-0.277c-0.775-1.012-4.892,0.196-5.573,0.624c-0.192,0.119-0.4,0.217-0.469,0.217
		s-0.306-0.033-0.53-0.062c-0.449-0.061-0.902-0.09-1.354-0.086c-0.225,0-0.587-0.008-0.808-0.036
		c-0.975-0.127-1.95-0.318-2.917-0.596c-2.746-0.796-5.369-2.257-7.813-3.79c-2.538-1.596-5.132-3.35-7.083-5.578
		c-0.318-0.367-0.628-0.738-0.935-1.117c-0.143-0.176-0.355-0.474-0.473-0.665l-6.858-10.768
		c-2.995-5.374-5.769-10.873-9.037-16.071c-4.137-6.585-8.601-12.999-13.358-19.147c-1.269-1.644-2.566-3.268-3.876-4.879
		c-0.143-0.175-0.351-0.478-0.474-0.665c-0.306-0.473-0.653-0.922-1.04-1.347c-0.151-0.167-0.347-0.342-0.42-0.404
		c-0.074-0.061-0.257-0.249-0.4-0.42c-3.24-3.876-6.573-7.683-9.935-11.453c-4.839-5.431-10.058-10.522-15.027-15.834
		c-4.284-4.578-9.045-8.56-14.21-12.101c-4.35-2.982-9.253-4.476-14.301-5.573c-3.084-0.669-6.209-1.15-9.331-1.648
		c-0.225-0.037-0.474-0.118-0.567-0.184c-0.057-0.041-0.11-0.082-0.167-0.122c-0.612-0.441-1.293-0.526-1.934-0.376
		c-0.22,0.054-0.551,0.033-0.763-0.049c-0.44-0.171-0.93-0.236-1.432-0.2c-0.224,0.017-0.583,0.029-0.808,0
		c-2.416-0.322-4.692-0.665-6.973-1.007c-3.872-0.588-6.818,0.611-8.719,4.23c-0.958,1.828-2.183,3.541-3.464,5.165
		c-0.53,0.674-1.473,1.163-2.326,1.412c-1.163,0.343-1.954,0.954-2.309,2.068c-0.596,1.868-1.779,3.562-1.51,5.688
		c0.119,0.926,0.225,1.714,1.167,1.787c0.225,0.017,0.449,0.176,0.6,0.339c0.033,0.032,0.065,0.065,0.102,0.098
		c0.167,0.151,0.42,0.404,0.539,0.591c0.4,0.616,1.02,1.391,1.844,1.787c1.13,0.539,0.751-0.135,0.571-1.403
		c-0.033-0.225,0.021-0.47,0.065-0.567s0.106,0,0.281,0.126c0.176,0.126,0.478,0.298,0.637,0.457
		c0.273,0.273,0.579,0.518,0.93,0.686c0.918,0.44,0.836,0.069,0.677-0.763c-0.041-0.22-0.078-0.579-0.073-0.804
		c0-0.057,0-0.11,0.004-0.167c0.012-0.224,0.163-0.257,0.31-0.085c0.355,0.424,0.792,0.836,1.314,1.085
		c1.003,0.481,0.816,0,0.636-1.004c-0.041-0.22,0.045-0.424,0.175-0.478c0.131-0.053,0.335,0.033,0.486,0.2
		c0.326,0.367,0.71,0.71,1.163,0.926c0.763,0.363,0.836,0.175,0.747-0.375c-0.037-0.225,0.114-0.273,0.4-0.44
		c0.163-0.155,0.327-0.249,0.478-0.131c0.09,0.069,0.184,0.135,0.286,0.184c0.681,0.327,0.812,0.204,0.767-0.224
		c-0.025-0.225,0.114-0.425,0.334-0.47c0.11-0.021,0.22-0.045,0.318-0.073c0.216-0.062,0.547-0.217,0.739-0.335
		c0.163-0.102,0.359-0.232,0.514-0.371c0.167-0.151,0.351-0.151,0.44,0.053c0.661,1.522,0.273,3.301-0.706,4.407
		c-0.151,0.167-0.343,0.085-0.531-0.037c-0.151-0.098-0.31,0.029-0.559,0.514c-0.041,0.082-0.065,0.167-0.09,0.257
		c-0.037,0.146-0.229,0.347-0.449,0.469c-0.2,0.106-0.441,0.029-0.543-0.171c-0.314-0.612-0.485-0.82-0.906,0.004
		c-0.118,0.229-0.2,0.473-0.261,0.726c-0.053,0.22-0.236,0.486-0.481,0.608c-0.2,0.102-0.445,0.024-0.551-0.175
		c-0.298-0.571-0.469-0.743-0.877,0.057c-0.098,0.188-0.163,0.392-0.216,0.6c-0.053,0.221-0.245,0.481-0.44,0.583
		s-0.445,0.017-0.547-0.184c-0.392-0.779-0.551-1.138-1.016-0.22c-0.126,0.249-0.216,0.518-0.277,0.792
		c-0.049,0.22-0.245,0.465-0.457,0.542c-0.053,0.021-0.106,0.041-0.159,0.062c-0.212,0.077-0.489-0.021-0.604-0.212
		c-0.682-1.167-0.775-2.011-1.363-0.865c-0.22,0.432-0.314,0.91-0.355,1.383c-0.021,0.225-0.18,0.453-0.371,0.51
		c-0.192,0.057-0.266,0.265-0.155,0.461c0.147,0.257,0.277,0.485,0.408,0.718c0.11,0.196,0.077,0.494-0.053,0.681
		c-0.714,1.048-0.004,1.689,1.008,2.13c0.082,0.037,0.163,0.069,0.249,0.106c0.139,0.057,0.351,0.257,0.501,0.424
		c0.51,0.563,1.22,0.918,2.032,0.853c0.102-0.008,0.208-0.016,0.314-0.028c0.175-0.016,0.49,0.028,0.702,0.102
		c0.188,0.065,0.375,0.126,0.563,0.192c1.126,0.375,2.118,0.077,3.211-0.51c5.479-2.934,11.253-5.059,17.389-6.226
		c3.627-0.689,6.793,0.453,10.008,1.767c2.766,1.13,4.949,2.999,7.075,5.055c5.854,5.671,11.236,11.75,16.148,18.233
		c4.133,5.455,8.254,10.931,12.097,16.589c3.945,5.814,7.589,11.836,11.293,17.809c3.782,6.1,7.507,12.236,11.196,18.393
		c2.15,3.595,4.529,7.018,7.03,10.355c0.591,0.901,1.195,1.795,1.824,2.677c3.256,4.577,6.785,8.976,10.653,13.052
		c1.534,1.896,3.097,3.773,4.725,5.581c3.17,3.522,3.95,7.565,3.093,11.939c-0.012,0.065-0.029,0.13-0.041,0.195
		c-0.024,0.11-0.163,0.331-0.302,0.51c-1.342,1.706-2.154,3.852-2.22,6.165c0,0.049,0,0.103-0.004,0.151
		c0,0.081-0.073,0.318-0.163,0.526c-0.714,1.705-1.273,3.427-1.555,5.182c-0.404,1.587-0.428,3.17-0.065,4.757
		c0.049,0.221,0.127,0.457,0.159,0.539c0.033,0.081,0.106,0.322,0.159,0.538c1.245,4.839,3.297,9.164,6.418,12.885
		c2.607,3.109,5.377,6.088,8.156,9.046c1.028,1.097,1.253,2.366,1.412,3.737c0.812,7.136,1.71,14.259,2.407,21.403
		c0.18,1.828-0.146,3.729-0.428,5.569c-0.804,5.214-1.914,10.392-2.497,15.626c-0.298,2.652-0.073,5.357-0.037,8.05
		c-0.078,1.102-0.139,2.203-0.184,3.305c-0.008,0.225-0.045,0.588-0.09,0.809c-0.191,0.954-0.473,1.905-0.787,2.811
		c-0.677,1.93-0.947,3.721-0.086,5.553c0.094,0.204,0.237,0.543,0.286,0.764c0.392,1.652,0.498,3.378,0.118,5.051
		c-0.224,0.983-0.489,1.962-0.955,2.864c-0.049,0.098-0.102,0.199-0.155,0.298c-0.086,0.167-0.29,0.437-0.433,0.607
		c-1.534,1.82-1.836,4.149-2.518,6.296c-0.334,1.049,0.375,2.146,1.657,2.179c4.157,0.098,8.319,0.105,12.48,0.069
		c0.318-0.004,0.828-0.6,0.918-0.996c0.486-2.125,0.277-4.227-0.498-6.259c-1.232-3.23-1.212-6.482-0.074-9.706
		c0.539-1.53,1.449-2.93,1.967-4.463c0.404-1.196,0.453-2.506,0.669-3.767c0.73-4.275,1.591-8.519,2.709-12.701
		c0.057-0.216,0.171-0.559,0.249-0.771c0.4-1.073,0.743-2.171,0.983-3.309c0.012-0.062,0.024-0.123,0.037-0.184
		c0.021-0.103,0.09-0.352,0.159-0.567c0.171-0.53,0.347-1.057,0.53-1.583c0.604-1.734,1.408-3.403,2.175-5.076
		c0.355-0.774,0.563-1.542,0.653-2.333c0.045-0.2,0.065-0.396,0.073-0.584c0.008-0.225-0.012-0.583-0.016-0.808
		c-0.008-0.347-0.033-0.706-0.069-1.069c-0.294-2.844-0.241-5.744-0.082-8.604c0.229-4.101,0.686-8.192,1.053-12.285
		c0.016-0.167,0.057-0.334,0.126-0.645c0.049-0.22,0.236-0.298,0.428-0.18c0.812,0.507,1.55,0.854,2.036,1.416
		c3.606,4.187,7.185,8.396,10.677,12.681c1.216,1.489,2.199,3.179,3.203,4.831c0.327,0.534,0.575,1.261,0.514,1.86
		c-0.73,7.201-0.4,14.346,0.461,21.478c0.029,0.224,0.041,0.587,0.029,0.812c-0.086,1.832-0.131,3.664-0.131,5.5
		c0,0.873-0.045,1.774-0.008,2.644c0.032,0.8,0.424,1.502,0.514,2.289c0.062,0.543-0.057,1.085-0.11,1.628
		c-0.184,1.853,1.236,2.265,1.954,3.676c0.51,1,1.179,1.481,2.26,1.701c1.75,0.352,3.566,1.277,5.39,0.938
		c0.877-0.163,1.636-0.591,2.55-0.677c1.016-0.094,2.056,0.041,3.007,0.403c0.89,0.339,1.702,0.873,2.375,1.547
		c0.784,0.787,1.285,1.583,2.211,2.228c1.032,0.718,2.118,1.358,3.244,1.913c0.343,0.168,0.698,0.331,1.073,0.384
		c0.93,0.127,1.644-0.645,2.15-1.321c1.73-2.313,3.26-4.799,2.444-7.952c-0.102-0.4-0.073-0.853-0.016-1.27
		c0.139-0.975,0.269-2.121-0.212-3.027c-0.673-1.261-2.387-1.272-3.599-1.252c-1.285,0.021-2.574,0.049-3.859,0.065
		c-0.926,0.012-2.24,0.098-3.089-0.286c-0.559-0.253-1.081-0.506-1.681-0.632c-0.747-0.155-1.583-0.322-2.183-0.824
		c-0.841-0.702-0.71-1.506-0.649-2.493c0.31-5.071,1.036-10.11,1.926-15.108c0.449-2.529,0.942-5.051,1.444-7.568
		c0.208-1.036,0.616-2.113,0.51-3.174c-0.106-1.086-0.612-2.077-1.199-2.975c-1.955-2.995-3.607-6.189-5.422-9.408
		c-0.11-0.196-0.024-0.307,0.192-0.253c14.623,3.749,29.045,7.597,44.141,6.454c0.225-0.017,0.453,0.037,0.514,0.114
		c0.053,0.069,0.09,0.118,0.086,0.163c-0.372,3.542,1.379,6.585,2.219,9.854c0.894,3.46,1.387,7.029,1.893,10.575
		c0.359,2.518,0.592,5.071,0.616,7.613c0.021,2.061-0.587,4.138-0.494,6.189c0.11,2.313,0.542,4.647,1.118,6.899
		c0.494,1.918-0.204,3.484-2.167,3.921c-0.225,0.049-0.498,0.086-0.653,0.229c-0.73,0.693-1.392,1.416-1.967,2.166
		c-0.139,0.18-0.375,0.449-0.53,0.612c-0.457,0.469-0.869,0.979-1.212,1.542c-0.881,1.453-1.236,3.211-0.877,4.762
		c0.049,0.22,0.11,0.571,0.126,0.796c0.037,0.546,0.11,1.109,0.229,1.688c0.049,0.241,0.139,0.47,0.229,0.674
		c0.089,0.208,0.338,0.396,0.563,0.424c0.453,0.058,0.877,0.11,1.371,0.172c0.225,0.028,0.486-0.037,0.587-0.147
		c0.102-0.11,0.245-0.188,0.314-0.176c0.069,0.013,0.143,0.065,0.167,0.123c0.025,0.057,0.216,0.081,0.441,0.061
		c0.449-0.036,0.906-0.053,1.252-0.257c0.547-0.322,0.853-1.044,1.399-1.362c0.535-0.311,1.367-0.637,1.848-0.433
		c3.525,1.493,7.124,2.31,10.898,1.272c1.571-0.432,3.113-1.077,4.549-1.848c1.22-0.657,1.236-1.914,0.856-3.138
		c-0.673-2.162-1.518-4.288-2.015-6.491c-0.547-2.432-0.571-4.99-1.196-7.393c-2.174-8.377-1.73-16.875-1.505-25.378
		c0.098-3.771-0.192-7.552,0.82-11.273c0.62-2.276,1.881-4.096,3.362-5.83c0.147-0.171,0.359-0.326,0.571-0.396
		c2.105-0.693,4.199-1.428,6.333-2.023c1.571-0.438,2.048-0.119,2.468,1.403c1.195,4.365,2.452,8.719,3.558,13.104
		c0.053,0.221,0.049,0.575,0.017,0.8c-0.049,0.363-0.033,0.738,0.057,1.114c0.379,1.546,1.077,2.925,2.023,4.12
		c0.139,0.176,0.363,0.47,0.498,0.649c0.175,0.24,0.359,0.477,0.555,0.714c1.481,1.791,2.681,3.876,3.688,5.985
		c1.934,4.039,3.745,8.14,5.414,12.297c0.037,0.094,0.073,0.191,0.11,0.285c0.061,0.159,0.139,0.466,0.179,0.686
		c0.114,0.629,0.233,1.257,0.347,1.886c0.041,0.22-0.012,0.562-0.085,0.774c-0.232,0.665-0.204,1.44,0.232,2.232
		c0.151,0.273,0.302,0.547,0.449,0.819c0.11,0.196,0.212,0.539,0.229,0.764c0.037,0.542,0.049,0.983,0.049,1.424
		c0.004,1.436,0.477,2.889,0.975,4.316c0.073,0.212,0.163,0.559,0.204,0.783c0.11,0.657,0.216,1.313,0.318,1.971
		c0.037,0.225,0.012,0.584-0.094,0.783c-0.302,0.563-0.877,0.987-1.722,1.229c-0.118,0.032-0.241,0.073-0.359,0.106
		c-2.326,0.615-4.574,1.473-6.752,2.541c-0.853,0.416-1.318,1.314-1.383,2.236c-0.016,0.225-0.09,0.571-0.184,0.775
		c-0.355,0.755-0.583,1.521-0.624,2.215c-0.012,0.225,0.179,0.384,0.404,0.355c0.775-0.103,1.55-0.204,2.317-0.307
		c0.225-0.028,0.583-0.024,0.808-0.02c0.253,0.004,0.51-0.025,0.767-0.082c0.221-0.049,0.543-0.013,0.743,0.09
		c0.926,0.469,1.897,0.478,2.987,0.314c0.849-0.131,1.779,0.452,2.68,0.481c4.582,0.139,9.164,0.212,13.746,0.273
		c0.845,0.012,1.702-0.062,2.534-0.213c1.896-0.334,2.101-0.607,1.469-2.443c-0.445-1.281-1.098-2.501-1.726-3.709
		c-1.633-3.134-2.037-6.536-2.444-9.983c-0.245-2.028-0.942-4.011-1.551-5.978c-1.224-3.97-2.742-7.862-3.745-11.885
		c-1.555-6.227-2.991-12.501-4.06-18.825c-0.518-3.072-0.31-6.324-0.041-9.458c0.653-7.527,1.518-15.038,2.371-22.546
		c0.057-0.489,0.673-1.244,1.118-1.31c2.46-0.384,4.941-0.673,7.426-0.824c1.493-0.09,3.027,0.318,4.496,0.139
		c0.914-0.11,1.987-0.71,2.55-1.432c0.894-1.139,1.938-1.661,3.276-1.995c2.6-0.657,5.178-1.416,7.736-2.216
		c3.61-1.126,7.213-2.216,11.04-2.432c5.186-0.29,10.359-0.95,15.545-1.02c5.141-0.065,10.298,0.338,15.438,0.665
		c2.971,0.188,5.94,0.403,8.906,0.645c1.837,0.236,3.668,0.469,5.504,0.701c19.576,2.489,39.083,5.777,58.871,6.435
		c20.073,0.669,40.146-0.515,60.159-2.003c17.605-1.311,35.194-2.877,52.832-3.697c8.812-0.407,17.634-0.628,26.455-0.534
		c4.41,0.049,8.82,0.171,13.228,0.396c2.223,0.11,9.71,1.901,11.02,0.065c-0.102-0.204-0.375-0.465-0.633-0.437
		C589.673,341.28,586.563,339.905,583.328,339.321z M484.666,345.034c-0.204-0.041-0.184-0.095,0.041-0.09
		c0.317,0.004,0.632,0.012,0.95,0.016c0.225,0.005,0.229,0.045,0.004,0.078c-0.208,0.032-0.416,0.049-0.624,0.045
		C484.931,345.074,484.801,345.059,484.666,345.034z"/>
</g>
<g>
</g>
<g>
</g>
<g>
</g>
<g>
</g>
<g>
</g>
<g>
</g>
<g>
</g>
<g>
</g>
<g>
</g>
<g>
</g>
<g>
</g>
<g>
</g>
<g>
</g>
<g>
</g>
<g>
</g>
</svg>
