<?xml version="1.0" encoding="iso-8859-1"?>
<!-- Generator: Adobe Illustrator 16.0.0, SVG Export Plug-In . SVG Version: 6.00 Build 0)  -->
<!DOCTYPE svg PUBLIC "-//W3C//DTD SVG 1.1//EN" "http://www.w3.org/Graphics/SVG/1.1/DTD/svg11.dtd">
<svg version="1.1" id="Capa_1" xmlns="http://www.w3.org/2000/svg" xmlns:xlink="http://www.w3.org/1999/xlink" x="0px" y="0px"
	 width="583.811px" height="583.811px" viewBox="0 0 583.811 583.811" style="enable-background:new 0 0 583.811 583.811;"
	 xml:space="preserve">
<g>
	<g>
		<path d="M262.934,420.58c0.09-3.175,0.135-6.365,0.514-9.511c0.775-6.463,0.323-12.534-2.737-18.568
			c-2.256-4.447-3.758-9.449-2.036-14.708c1.281-3.913,2.566-7.842,3.529-11.841c0.771-3.198-0.106-4.418-3.419-4.667
			c-7.242-0.543-14.052-2.493-20.628-5.483c-2.497-1.139-4.66-1.302-6.336,1.746c-5.076,9.221-14.305,13.085-23.272,16.887
			c-6.544,2.774-13.684,4.125-20.298,6.761c-4.888,1.946-10.486,3.762-10.918,10.641c-0.053,0.816-0.91,1.669-1.563,2.342
			c-4.357,4.517-4.827,12.269-0.963,17.21c0.449,0.571,0.996,1.257,1.632,1.456c3.35,1.041,6.748,1.905,10.114,2.897
			c1.824,0.538,3.647,1.13,5.402,1.86c1.538,0.641,3.048,1.396,4.447,2.293c2.611,1.677,5.908,2.795,6.769,6.769
			c0.192,0.881-0.53,1.615-1.432,1.62c-1.897,0.008-3.705,0.016-5.512-0.013c-2-0.032-4.305-0.828-5.933-0.09
			c-4.288,1.938-8.576,1.098-12.913,1.024c-4.435-0.078-8.874-0.058-13.305,0.102c-2.689,0.098-5.357,0.588-8.046,0.804
			c-1.889,0.151-3.798,0.065-5.692,0.204c-3.945,0.29-4.773-0.8-5.663-4.59c-0.722-3.085-2.163-6.186-4.007-8.768
			c-1.844-2.587-2.848-4.974-1.709-7.973c0.681-1.791,1.595-3.492,2.321-5.268c2.122-5.193,5.325-10.257,6.042-15.643
			c1.2-9.005,5.186-15.124,13.125-19.318c3.301-1.742,6.977-4.121,8.715-7.206c3.647-6.479,6.336-13.492,9.319-20.322
			c0.359-0.824,0-1.815-0.824-2.183c-2.827-1.265-5.585-2.301-7.862-3.986c-2.848-2.105-5.745-1.783-8.764-1.607
			c-2.411,0.139-4.81,0.498-7.209,0.787c-1.464,0.176-2.966,0.237-4.374,0.629c-12.795,3.558-22.779,12.439-34.403,18.221
			c-5.414,2.693-10.726,5.655-16.32,7.899c-7.964,3.194-16.479,4.549-24.978,4.647c-7.907,0.089-15.994,1.722-23.766-1.371
			c-4.855-1.935-9.633-4.301-14.676-5.468c-9.845-2.272-19.866-3.777-29.784-5.753c-1.632-0.326-3.187-1.02-4.753-1.677
			c-0.833-0.347-1.049-1.171-0.355-1.746c0.726-0.604,1.412-0.946,2.138-1.146c11.126-3.084,22.485-4.562,34.003-5.279
			c10.743-0.669,21.567-1.154,32.159-2.913c11.301-1.877,20.502-7.964,27.413-17.385c7.107-9.682,14.329-19.29,21.792-28.698
			c4.541-5.729,9.682-10.98,14.468-16.521c5.492-6.356,10.767-12.905,16.369-19.164c3.317-3.709,7.018-7.083,10.661-10.482
			c5.108-4.77,9.911-10.021,15.59-13.994c8.262-5.781,16.936-11.11,25.912-15.7c8.98-4.594,18.348-8.511,28.564-9.931
			c6.813-0.946,13.513-2.709,20.31-3.818c10.413-1.698,20.825-3.64,31.318-4.5c5.247-0.428,10.734,1.024,16.006,2.142
			c5.781,1.224,11.518,2.799,17.119,4.688c3.709,1.252,7.137,3.337,10.702,5.022c6.589,3.109,13.782,4.888,19.882,9.078
			c0.783,0.539,1.673,1.049,2.587,1.257c5.684,1.302,11.62,1.893,17.03,3.904c7.711,2.864,15.385,2.652,23.268,1.93
			c3.146-0.29,4.978-1.228,5.908-4.655c1.139-4.203,0.873-7.56-2.285-10.73c-0.885-0.89-1.742-3.301-1.301-3.762
			c2.647-2.774,0.926-5.63,0.754-8.491c-0.081-1.362,0.024-3.664,0.747-3.986c3.072-1.383,2.767-3.529,2.166-6.039
			c-0.272-1.134-0.559-2.375-0.375-3.492c0.38-2.297-0.028-5.394,2.856-6.132c2.228-0.567,1.999-1.498,1.795-3.138
			c-0.526-4.239,2.175-7.589,6.201-8.021c0.217-0.025,0.429-0.086,0.608-0.159c0.322-0.127,0.502-1,0.547-1.901
			c0.24-4.733,0.461-9.099,0.677-13.419c0.045-0.901,0.363-1.689,0.706-1.758s1.04,0.473,1.555,1.212
			c0.562,0.808,1.13,1.616,1.688,2.427c0.89,1.29,1.555,3.399,2.705,3.713c2.338,0.632,4.974,0.563,7.41,0.229
			c0.967-0.135,1.827-1.673,2.565-2.697c3.611-5.014,9.307-6.153,14.023-3.04c0.751,0.498,0.6,1.191-0.273,1.424
			c-0.987,0.261-1.987,0.539-2.885,1.003c-2.758,1.437-2.574,2.179-0.285,4.239c1.889,1.702,3.762,2.672,6.34,3.101
			c3.9,0.653,4.99-0.212,4.108-4.243c-0.126-0.576-0.163-1.175-0.179-1.775c-0.025-0.902,0.171-1.673,0.437-1.73
			c0.265-0.057,0.918,0.485,1.501,1.171c1.856,2.187,3.786,4.149,3.696,8.058c-0.094,3.978-0.367,8.425,2.358,12.436
			c4.5,6.622,3.097,15.447-2.55,21.094c-2.13,2.13-1.62,4.3,1.073,5.61c1.023,0.498,1.808,1.595,2.55,2.538
			c0.498,0.632,0.641,2.056,1.105,2.134c5.398,0.894,4.492,7.205,8.503,9.669c2.374,1.461,3.317,5.402,4.639,8.348
			c0.425,0.947,0.474,2.734-0.118,3.309c-0.543,0.534-1.403,0.747-2.358,0.955c-0.881,0.192-1.575,1.354-0.734,1.685
			c0.771,0.306,1.954-0.073,3.199-0.457c1.105-0.343,2.603-0.869,3.423-0.412c1.856,1.032,3.228,1.122,4.937-0.249
			c1.253-1.008,9.556,2.309,10.429,3.753c0.478,0.792,1.437,1.318,2.224,1.897c1.905,1.396,3.904,2.672,5.712,4.186
			c0.408,0.343,0.53,1.771,0.18,2.159c-2.354,2.619-2.562,5.435-1.289,8.564c2.432,5.969,4.316,7.03,9.901,3.917
			c3.231-1.803,6.271-3.954,9.515-5.74c10.372-5.712,20.894-11.155,31.159-17.051c5.333-3.06,10.314-6.752,15.316-10.355
			c2.86-2.06,5.451-4.504,8.147-6.793c2.591-2.199,5.146-4.435,7.74-6.626c2.632-2.22,5.283-4.415,7.932-6.618
			c0.693-0.575,1.415-0.926,1.611-0.779c0.195,0.147,0.062,0.934-0.273,1.771c-0.498,1.245-0.987,2.493-1.697,3.603
			c-7.531,11.722-16.564,22.244-26.349,32.102c-3.811,3.839-8.233,7.071-12.375,10.58c-5.022,4.251-9.935,8.637-15.1,12.705
			c-2.722,2.142-5.729,3.925-8.564,5.724c-0.759,0.481-0.926,1.469-0.399,2.199c1.085,1.498,1.93,2.762,3.031,3.753
			c1.473,1.326,3.606,1.963,4.961,3.37c1.29,1.338,2.705,3.264,2.759,4.97c0.191,6.381,0.693,12.91-2.828,18.776
			c-0.204,0.339-0.354,0.959-0.184,1.236c1.47,2.399-0.656,4.26-0.889,6.394c-0.078,0.718-0.515,1.428-0.49,2.126
			c0.18,4.459-2.146,7.434-5.569,9.849c-1.04,0.734-2.125,1.514-2.9,2.501c-4.798,6.104-11.457,6.712-18.441,6.324
			c-0.371-0.021-0.73-0.18-1.094-0.371c-0.567-0.302-0.771-0.942-0.461-1.42c0.191-0.294,0.392-0.579,0.633-0.824
			c3.309-3.415,2.582-8.018-1.783-9.453c-3.048-1.004-5.79-2.926-8.45-4.558c-0.767-0.47-0.987-0.229-0.489,0.522
			c0.787,1.183,1.44,2.513,0.489,3.908c-0.506,0.747-0.922,1.84-0.6,2.681c1.257,3.26,3.02,6.1,6.684,7.846
			c0.812,0.388,0.815,0.861-0.045,1.118c-5.116,1.538-9.572,1.767-14.142,1.444c-8.327-0.592-15.757-3.909-21.15-9.801
			c-6.116-6.683-11.967-13.063-20.646-16.593c-4.765-1.938-9.384-3.758-14.447-2.836c-8.462,1.538-16.989,2.832-23.357,9.91
			c-1.628,1.812-2.534,3.032-2.248,5.256c0.648,5.059-0.987,9.38-4.77,12.651c-5.753,4.978-11.399,10.184-17.691,14.402
			c-7.593,5.097-15.854,9.192-23.713,13.913c-1.22,0.734-2.342,2.403-2.615,3.814c-1.252,6.491-2.097,13.064-3.26,19.576
			c-1.004,5.626-2.383,11.191-3.293,16.83c-0.367,2.276,0.47,4.749,0.069,7.014c-0.587,3.333,0.2,6.107,2.746,8.005
			c2.705,2.02,5.736,3.647,8.772,5.157c2.97,1.473,5.369,3.341,6.821,6.218c0.404,0.804-0.086,1.587-0.983,1.681
			c-2.603,0.277-5.038,0.49-7.438,0.922c-4.121,0.747-8.168,1.991-12.31,2.53c-3.464,0.448-7.021,0.073-10.526,0.265
			c-2.061,0.114-4.096,0.886-6.148,0.897c-6.43,0.05-12.86-0.069-19.29-0.253c-1.318-0.036-2.628-0.624-3.93-0.987
			c-0.6-0.167-1.269-0.714-1.746-0.566c-3.545,1.102-5.434-0.343-6.528-3.46c-0.298-0.849-1.183-1.567-2.084-1.571
			c-7.495-0.008-14.954-0.077-22.408,0.045C264.019,424.627,262.856,423.28,262.934,420.58z M287.116,391.604
			c-0.543,5.264,0.799,10.122,4.9,13.819c0.31,0.281,0.747,0.42,1.215,0.521c0.719,0.164,1.474-0.281,1.686-0.987
			c0.135-0.452,0.229-0.897,0.146-1.31c-1.84-9.27-3.773-18.522-5.695-27.776c-0.024-0.127-0.143-0.236-0.551-0.702
			c-0.322-0.371-0.788,0.013-1.114,0.854c-0.388,0.982-0.71,1.767-0.49,2.342C288.928,382.852,287.577,387.173,287.116,391.604z"/>
	</g>
</g>
<g>
</g>
<g>
</g>
<g>
</g>
<g>
</g>
<g>
</g>
<g>
</g>
<g>
</g>
<g>
</g>
<g>
</g>
<g>
</g>
<g>
</g>
<g>
</g>
<g>
</g>
<g>
</g>
<g>
</g>
</svg>
