<?xml version="1.0" encoding="iso-8859-1"?>
<!-- Generator: Adobe Illustrator 16.0.0, SVG Export Plug-In . SVG Version: 6.00 Build 0)  -->
<!DOCTYPE svg PUBLIC "-//W3C//DTD SVG 1.1//EN" "http://www.w3.org/Graphics/SVG/1.1/DTD/svg11.dtd">
<svg version="1.1" id="Capa_1" xmlns="http://www.w3.org/2000/svg" xmlns:xlink="http://www.w3.org/1999/xlink" x="0px" y="0px"
	 width="595.784px" height="595.785px" viewBox="0 0 595.784 595.785" style="enable-background:new 0 0 595.784 595.785;"
	 xml:space="preserve">
<g>
	<path d="M1.697,229.715c-0.061,0.229-0.126,0.461-0.188,0.689c0.632,0.293,1.24,0.673,1.901,0.861
		c4.374,1.232,8.845,2.187,13.121,3.692c4.513,1.587,8.85,3.684,13.33,5.585c-0.11,0.139-0.392,0.486-0.82,1.012
		c6.394,1.971,12.705,3.917,18.825,5.802c-2.342,0.225-5.043,0.478-7.748,0.734c-0.028,0.351-0.057,0.702-0.089,1.053
		c2.692,0.559,5.369,1.236,8.082,1.648c7.136,1.081,14.284,2.089,21.44,3.031c2.762,0.363,5.553,0.637,8.335,0.682
		c6.035,0.098,11.738,1.159,16.953,4.467c1.326,0.845,3.129,0.947,4.725,1.355c10.029,2.546,20.057,5.083,30.102,7.625
		c-7.907,1.375-15.79,2.742-23.668,4.108c0.017,0.367,0.033,0.734,0.045,1.102c4.892,0.355,9.796,1.114,14.667,0.951
		s9.437,0.147,13.766,2.566c1.036,0.579,2.338,0.922,3.525,0.958c4.92,0.139,9.854,0.049,14.774,0.221
		c0.934,0.032,1.815,0.93,2.762,1.33c0.979,0.416,2.04,1.077,3.015,1.004c4.529-0.331,9.033-1.143,13.558-1.273
		c5.006-0.143,10.024,0.277,15.039,0.44c2.37,0.078,4.741,0.099,7.107,0.188c4.206,0.163,8.425,0.64,12.615,0.465
		c4.578-0.196,9.119-1.081,13.692-1.489c6.042-0.539,12.272-1.975,18.111-1.053c6.625,1.049,12.799-1.15,19.167-0.694
		c7.589,0.543,14.982-1.146,22.485-1.559c8.172-0.453,16.32-1.526,24.492-1.66c9.936-0.167,19.834-0.73,29.85,0.575
		c6.357,0.828,11.4,3.835,16.986,5.977c2.193,0.841,2.238,2.473,0.312,3.941c-4.973,3.799-9.914,7.646-15.014,11.269
		c-1.355,0.963-3.244,1.171-5.268,1.853c0.842,0.568,1.379,0.926,2.008,1.351c-2.502,1.109-4.945,2.211-7.4,3.288
		c-4.611,2.016-9.23,4.02-13.934,6.067c0.072,0.163,0.285,0.624,0.656,1.44c-3.26,0.146-6.223,0.277-9.18,0.412
		c0.119,0.249,0.236,0.493,0.355,0.742c-0.625,0.47-1.266,1.354-1.877,1.338c-7.426-0.191-14.844-0.624-22.269-0.763
		c-3.101-0.057-6.214,0.474-9.323,0.653c-0.89,0.053-1.832-0.049-2.685-0.302c-3.162-0.935-6.247-2.212-9.458-2.864
		c-2.028-0.412-4.235,0.049-6.993,0.139c3.582,1.338,6.283,2.346,8.984,3.354l-0.281,0.922c-1.632-0.33-3.264-0.657-4.892-0.987
		c-0.065,0.122-0.13,0.245-0.2,0.367c1.277,0.718,2.55,1.44,4.186,2.362c-1.232,0.143-2.138,0.245-3.619,0.416
		c6.667,3.595,13.46,1.767,19.882,2.664c6.463,0.906,12.979,1.461,19.768,2.203c-3.251,2.922-6.512,5.835-9.751,8.769
		c-0.649,0.587-1.306,1.199-1.82,1.901c-1.465,2.02-3.093,3.586-5.961,2.484c-0.188,0.249-0.375,0.498-0.563,0.747
		c1.228,1.334,2.46,2.668,4.101,4.451c-2.064,2.231-4.312,4.847-6.757,7.263c-3.745,3.7-7.87,7.042-11.395,10.93
		c-5.79,6.386-13.228,6.932-21.012,6.789c-1.612-0.028-3.231,0.249-4.839,0.188c-0.935-0.036-2.056-0.216-2.75-0.763
		c-3.093-2.456-5.418-5.382-4.92-9.714c0.041-0.348-0.282-0.734-1.326-1.33c-0.669,2.113-1.771,4.193-1.926,6.344
		c-0.13,1.832-0.077,3.64,0.135,5.414c-0.171,0.526-0.171,1.146,0.074,1.836c0.13,0.363,0.273,0.719,0.42,1.073
		c0.885,4.048,2.554,7.875,4.733,11.306c1.828,2.885,6.822,4.513,10.649,5.178c4.011,0.697,8.482,0.122,12.501-0.897
		c7.691-1.954,15.304-4.342,22.729-7.132c3.023-1.135,5.614-3.632,8.115-5.83c1.012-0.886,0.975-2.897,1.922-3.941
		c2.064-2.277,4.472-4.239,6.695-6.377c0.412-0.396,0.702-0.968,0.906-1.514c0.567-1.51-0.102-3.893,2.742-3.726
		c0.065,0.004,0.2-0.139,0.2-0.216c-0.008-4.705,5.479-5.99,6.345-10.331c0.383-1.926,0.807-4.753,4.031-4.822
		c0.297-0.009,0.551-1.021,0.869-1.538c2.002-3.239,3.822-6.618,6.074-9.674c2.771-3.758,7.316-4.439,11.441-5.61
		c6.408-1.819,12.818-3.892,19.375-4.859c5.537-0.815,10.559-2.595,15.471-4.981c1.355-0.661,2.535-1.681,3.832-2.469
		c1.09-0.66,2.236-1.224,3.691-1.334c0.498-0.885,0.996-1.771,1.682-2.994c0.791,0.689,1.682,1.126,2.045,1.836
		c2.418,4.7,4.916,9.38,7.01,14.227c2.059,4.77,1.848,4.835-2.229,7.613c-1.539,1.049-3.922,1.485-3.354,4.227
		c-3.652,1.906-3.424,6.104-5.264,9.099c-2.129,3.464-3.129,7.512-3.514,11.628c-0.027,0.29,0.062,0.637-0.068,0.861
		c-2.094,3.644-4.619,7.099-6.242,10.938c-2.746,6.491-8.666,9.433-14.043,13.488c0.934,0.188,1.566,0.311,3.219,0.641
		c-2.668,1.485-4.537,2.664-6.523,3.595c-1.91,0.894-3.15,2.027-3.559,4.264c-0.285,1.562-1.24,3.039-2.049,4.467
		c-3.879,6.867-8.338,13.289-14.74,18.096c-0.877,0.66-1.951,1.121-2.998,1.477c-2.514,0.856-5.068,1.595-8.369,2.615
		c11.24,2.872,18.594-2.954,26.014-8.58c0.184,0.195,0.363,0.392,0.547,0.587c-1.57,1.465-3.047,3.048-4.736,4.357
		c-1.824,1.412-3.852,2.571-5.822,3.86c2.994,1.971,4.158,1.44,17.699-8.123c-0.906,2.056-1.521,3.459-2.551,5.793
		c4.66-1.607,6.402-5.112,8.871-8.743c-0.438,2.313-0.76,3.998-1.232,6.508c1.848-1.285,2.975-2.069,4.271-2.971
		c3.451,5.854,5.703,12.143,7.055,18.724c1.408,6.85,2.383,13.721,1.775,20.824c-0.152,1.791,2.152,4.328,3.965,5.654
		c5.076,3.709,10.498,6.94,15.74,10.421c0.926,0.611,1.615,1.57,2.494,2.269c1.66,1.325,2.744,3.048,5.441,3.271
		c1.334,1.489,2.893,2.754,4.635,3.771c0.396,0.596,0.756,1.191,1.061,1.729c1.086,1.897,1.119,4.402,1.756,7.246
		c1.178-1.701,2.549-3.264,3.436-5.063c0.99-2.023,1.578-4.251,2.279-6.413c0.094-0.29,0.191-0.555,0.295-0.792
		c1.252,0.563,2.508,1.126,3.762,1.689c0.607,1.396,1.998,1.84,3.279,1.57c0.4,0.551,0.801,1.098,1.217,1.628
		c0.428,0.547,0.787,1.146,1.395,2.045c1.604-2.024,2.049-4.113,2.072-6.223c0.094-0.437,0.09-0.881-0.035-1.297
		c-0.127-2.244-0.557-4.501-0.412-6.708c5.258,1.036,8.768,3.827,10.762,9.286c0.449-1.203,1.289-2.419,1.258-3.61
		c-0.055-2.143-0.555-4.288-1.004-6.406c-0.951-4.5-2.334-8.943-2.881-13.488c-0.408-3.398-2.75-4.333-5.088-4.998
		c-9.111-2.599-16.357-8.331-23.896-13.623c-6.508-4.569-11.008-10.901-14.934-17.564c-2.969-5.043-5.137-10.563-7.6-15.899
		c-0.217-0.466-0.176-1.265,0.094-1.693c0.758-1.216,1.889-2.224,2.529-3.484c1.959-3.859,3.623-7.874,5.662-11.689
		c1.479-2.762,2.791-6.589,5.195-7.658c4.316-1.922,3.635-6.01,5.639-8.792c1.256-1.742,2.463-3.64,4.104-4.961
		c5.451-4.383,8.992-10.282,11.734-16.354c2.664-5.899,2.844-12.606,2.15-19.176c-0.445-4.227-1.895-8.846-0.715-12.607
		c1.164-3.712-1.045-6.115-1-9.151c0.055-3.542,0.152-7.087,0.221-10.628c0.008-0.412,0.004-0.828-0.045-1.236
		c-0.488-4.395-0.99-8.788-1.518-13.448c4.705,0.625,9.449,1.252,14.195,1.881c1.33,0.175,2.664,0.514,3.994,0.506
		c2.549-0.016,4.533,0.151,4.805,3.566c0.115,1.444,1.576,2.991,2.787,4.101c2.885,2.647,2.881,6.336,3.986,9.641
		c0.18,0.539,1.326,1.188,1.889,1.081c2.064-0.396,2.693,0.396,3.453,2.318c2.283,5.786,0.008,11.314-0.416,16.94
		c-0.246,3.235-0.756,6.451-0.936,9.69c-0.27,4.855-1.342,5.708-5.781,4.247c0.295,2.407,3.248,4.749,6.305,4.985
		c0.305,0.025,0.709-0.154,0.912-0.016c4.09,2.844,7.623-0.028,11.25-1.195c1.039-0.335,2.309-1.563,2.529-2.587
		c0.885-4.08,1.354-8.25,2.057-12.375c0.672-3.953,0.738-8.217,2.354-11.754c2.004-4.387-0.119-7.863-1.207-11.454
		c-1.191-3.941-3.51-7.544-5.293-11.203h18.393c0.115,0.277,0.229,0.551,0.34,0.828c-1.893,1.212-3.787,2.428-5.83,3.741
		c1.342,2.444,3.803,1.411,6.422,1.689c-1.363,1.836-2.555,3.439-3.746,5.042c0.168,0.323,0.338,0.649,0.506,0.972
		c2.215-0.877,4.432-1.755,6.846-2.709c1.049,3.917,2.514,8.054,3.191,12.318c0.668,4.219,0.535,8.567,0.771,13.153
		c0.775-0.154,1.316-0.265,2.762-0.559c-0.588,3.207-1.117,6.096-1.525,8.319c-2.09,0.208-4.049-0.184-5.012,0.62
		c-2.043,1.701-5.145,3.411-4.287,6.585c0.424,1.575,2.631,3.252,4.365,3.766c3.053,0.902,6.354,0.951,9.551,1.347
		c2.641,0.326,4.256-1.021,5.365-3.26c2.51-5.063,5.051-10.11,7.586-15.166c0.094-0.184,0.338-0.44,0.289-0.525
		c-1.225-2.032,0.543-4.003,0.184-5.876c-0.664-3.479-1.877-6.85-2.721-10.302c-0.576-2.35-0.91-4.753-1.359-7.136
		c-0.355-1.881-0.15-4.178-1.176-5.565c-2.848-3.852,0.273-6.646,1.336-9.674c1.043-2.986,3.111-5.605,4.291-8.56
		c1.105-2.771,1.555-5.798,4.48-7.462c0.367-0.208,0.533-0.836,0.713-1.297c2.146-5.691,4.371-11.354,6.377-17.095
		c0.924-2.631,1.404-5.418,2.094-8.131c1.207-4.749,2.465-9.482,3.6-14.248c0.289-1.211,0.488-2.579,0.236-3.77
		c-1.756-8.25-4.211-16.398-5.252-24.725c-0.578-4.651,1.07-9.6,1.869-14.39c0.127-0.763,1.17-1.33,1.652-2.081
		c0.641-0.992,1.57-2.044,1.641-3.122c0.266-4.145,3.838-7.576,7.939-7.364c3.766,0.192,7.553-0.053,11.326,0.057
		c0.742,0.021,1.852,0.616,2.133,1.24c2.494,5.533,5.227,11.155,4.184,17.41c-0.977,5.83,0.994,11.093,2.631,16.304
		c3.312,10.551,2.51,21.041,1.012,31.665c-0.135,0.963,0.723,2.779,1.498,3.032c3.084,1.007,6.291,1.84,9.51,2.154
		c1.861,0.18,3.635-0.563,3.582-3.435c-0.033-1.816,1.375-3.223,3.656-1.604c0.652,0.465,1.773,0.645,2.578,0.473
		c7.096-1.53,12.469-5.842,16.939-11.257c0.951-1.15,0.947-3.345,0.877-5.035c-0.223-5.373,2.236-9.449,5.68-13.231
		c0.621-0.681,0.918-2.215,0.613-3.097c-2.119-6.12-2.469-12.068,0.652-18.013c0.529-1.012,0.191-2.472,0.297-3.725
		c0.131-1.501,0.123-3.047,0.494-4.492c1.213-4.672,2.615-9.294,3.844-13.962c0.24-0.914,0.033-1.946,0.033-3.778
		c-1.742,1.832-2.779,2.921-3.762,3.954c0.289-4.068,0.611-8.021,0.807-11.979c0.025-0.457-0.652-0.946-1.346-1.881
		c-1.061,1.849-1.941,3.387-3.031,5.292c-1.902-4.867-0.682-10.31-3.814-14.982c-1.07,1.53-1.846,2.64-3.166,4.529
		c-1.176-3.558-27.418-45.329-18.928-18.348c-1.273-0.331-2.443-0.412-3.391-0.918c-4.512-2.416-9.16-3.962-14.283-5.01
		c-7.043-1.44-13.951-0.563-21.254-1.065c0.656,0.947,1.135,1.636,1.934,2.787c-3.557,0.453-6.707,1.191-9.848,1.167
		c-4.363-0.037-6.904,4.076-11.172,3.961c-0.004,0.249-0.008,0.502-0.012,0.751c0.934,0.334,1.873,0.665,3.178,1.13
		c-2.008,0.967-3.729,1.856-5.5,2.64c-2.469,1.097-4.785,2.17-6.818,4.235c-2.928,2.979-6.551,5.275-10.016,7.968
		c1.885,2.036-0.746,2.807-2.375,3.97c-1.994,1.424-2.008,1.408-1.146,2.934c-2.602,2.534-5.344,4.941-7.76,7.638
		c-2.102,2.346-4.99,4.814-5.479,7.593c-0.906,5.108-5.264,7.866-6.807,12.113c-2.182,6.01-6.961,8.898-11.938,11.146
		c-5.324,2.407-11.262,3.456-16.932,5.1c-2.791,0.416-0.58,0.881-0.738,2.477c-6.863-0.743-13.533-1.465-20.299-2.195
		c0.42,0.477,1.045,1.191,1.828,2.084c-6.814,0.608-12.967-1.481-19.654-3.59c0.568,0.975,0.877,1.506,1.209,2.073
		c-0.164,0.053-0.348,0.188-0.475,0.147c-2.473-0.739-4.916-1.575-7.408-2.232c-3.281-0.865-6.529-1.105-9.955-0.232
		c-1.674,0.428-3.68-0.453-5.762-0.078c1.143,0.755,2.289,1.51,3.432,2.265c-0.037,0.155-0.078,0.31-0.115,0.465
		c-3.496-0.942-6.992-1.885-11.186-3.015c1.064,1.404,1.746,2.297,2.646,3.484c-4.977,0.306-9.754,0.596-14.527,0.89
		c-0.045,0.22-0.096,0.44-0.141,0.661c2.049,0.441,4.098,0.886,6.961,1.501c-6.629,1.367-12.533,2.579-18.438,3.794l0.168,1.326
		h8.172c0.053,0.375,0.102,0.755,0.154,1.13c-5.092,1.306-10.184,2.611-15.275,3.917c-0.023,0.175-0.049,0.351-0.072,0.526
		c2.316,0.13,4.635,0.265,6.951,0.396c0.09,0.216,0.176,0.433,0.266,0.649c-6.662,2.016-13.32,4.031-19.984,6.046
		c-0.023,0.159-0.049,0.318-0.076,0.478l6.688,0.408c0.049,0.155,0.098,0.306,0.146,0.461c-4.057,0.975-8.111,1.946-12.367,2.966
		c0.127,0.282,0.42,0.938,1.053,2.358c-5.479,1.645-10.84,3.35-16.262,4.851c-3.873,1.073-8.434,0.938-11.588,3.011
		c-4.855,3.19-10.971,2.538-15.227,5.508c-3.688,2.57-7.36,2.599-11.211,3.68c1.04,0.31,2.081,0.625,3.402,1.016
		c-5.638,1.611-10.93,3.121-16.218,4.635c0.024,0.286,0.053,0.575,0.078,0.861c0.742,0.318,1.489,0.641,2.231,0.959
		c0.021,0.184,0.041,0.363,0.062,0.546c-11.151,1.171-22.301,2.338-34.358,3.607c1.816,0.339,2.754,0.514,3.692,0.686
		c0.017,0.2,0.029,0.396,0.045,0.596c-3.366,0.139-6.732,0.379-10.098,0.383c-3.402,0.004-6.805-0.204-10.208-0.351
		c-3.476-0.151-6.948-0.343-10.902-0.539c0.583,0.885,0.886,1.342,1.489,2.264c-2.64-0.188-4.949-0.347-7.772-0.547
		c0.881,0.722,1.432,1.171,2.628,2.15c-4.725-0.673-8.67-1.236-12.909-1.84c0.146,0.783,0.245,1.293,0.351,1.86
		c-0.302,0.021-0.604,0.102-0.885,0.057c-3.468-0.547-6.919-1.257-10.404-1.583c-1.106-0.102-3.068-1.424-3.566,1.122
		c-0.017,0.073-0.938,0-1.432-0.053c-5.41-0.555-10.841-0.942-16.214-1.734c-4.047-0.596-8.018-1.722-12.028-2.583
		c-0.469-0.102-0.983-0.012-1.657,0.453c1.004,0.502,2.003,1.003,3.007,1.51c-0.028,0.151-0.061,0.298-0.089,0.449
		c-1.946-0.539-3.872-1.163-5.839-1.6c-10.134-2.248-20.286-4.422-30.412-6.703c-1.273-0.286-2.391-1.196-3.656-1.583
		c-6.059-1.877-12.142-3.672-18.213-5.5c-0.775-0.232-1.542-0.506-2.317-0.734c-2.824-0.836-5.667-1.62-8.475-2.505
		c-2.027-0.64-4.076-1.281-6.01-2.154c-3.244-1.461-6.328-2.705-10.106-3.015c-5.337-0.437-10.575-2.334-15.802-3.799
		c-5.855-1.636-11.596-3.692-17.487-5.157c-3.081-0.763-6.377-0.653-9.71-0.567c3.733,1.828,7.466,3.651,11.942,5.843
		c-5.035-0.266-9.298-0.49-13.558-0.714c-0.119,0.375-0.237,0.755-0.359,1.13c2.208,1.212,4.415,2.423,7.193,3.949H1.697V229.715z"
		/>
</g>
<g>
</g>
<g>
</g>
<g>
</g>
<g>
</g>
<g>
</g>
<g>
</g>
<g>
</g>
<g>
</g>
<g>
</g>
<g>
</g>
<g>
</g>
<g>
</g>
<g>
</g>
<g>
</g>
<g>
</g>
</svg>
