<?xml version="1.0" encoding="iso-8859-1"?>
<!-- Generator: Adobe Illustrator 16.0.0, SVG Export Plug-In . SVG Version: 6.00 Build 0)  -->
<!DOCTYPE svg PUBLIC "-//W3C//DTD SVG 1.1//EN" "http://www.w3.org/Graphics/SVG/1.1/DTD/svg11.dtd">
<svg version="1.1" id="Capa_1" xmlns="http://www.w3.org/2000/svg" xmlns:xlink="http://www.w3.org/1999/xlink" x="0px" y="0px"
	 width="568.325px" height="568.326px" viewBox="0 0 568.325 568.326" style="enable-background:new 0 0 568.325 568.326;"
	 xml:space="preserve">
<g>
	<path d="M40.99,73.948c2.412,2.624,4.798,5.267,7.238,7.862c13.701,14.582,27.503,29.079,41.102,43.754
		c12.354,13.334,24.007,27.356,36.912,40.127c7.736,7.654,17.263,13.505,26.014,20.127c4.341,3.284,8.531,6.838,14.635,6.226
		c1.542-0.155,3.194,0.812,4.757,2.142c-2.566,0.204-5.129,0.408-7.695,0.612c-0.102,0.286-0.204,0.571-0.302,0.853
		c1.501,1.073,3.032,2.105,4.5,3.219c17.711,13.443,35.247,27.124,53.199,40.237c7.679,5.61,16.218,10.037,24.37,14.99
		c1.771,1.077,3.562,2.125,5.646,3.37c-1.334,1.073-2.46,1.971-4.5,3.611c2.595,0.347,4.145,0.555,5.875,0.788
		c-1.24,2.179-2.505,4.398-3.77,6.614l0.816,0.861c1.799-1.02,3.586-2.064,5.402-3.056c7.364-4.015,11.966-4.043,17.776,1.603
		c2.195,2.134,2.583,6.34,3.321,9.707c0.963,4.386,1.003,9.017,2.317,13.269c0.885,2.868,3.325,5.251,5.002,7.886
		c4.746,7.463,9.592,14.864,14.084,22.481c1,1.693,1.074,4.19,0.914,6.263c-0.898,11.583,0.254,22.966,2.742,34.276
		c1.08,4.916,2.053,9.877,2.643,14.871c0.16,1.334-1.047,3.048-2.047,4.235c-1.158,1.375-2.678,2.521-4.215,3.488
		c-6.104,3.844-9.955,9.327-12.844,15.875c-3.419,7.761-6.916,15.594-11.408,22.75c-6.206,9.895-16.092,15.921-25.994,21.624
		c-6.908,3.982-13.962,7.716-20.959,11.543c-3.48,1.901-5.659,4.899-5.933,8.73c-0.188,2.66-0.612,5.19-1.293,7.605
		c-0.995,1.057-1.615,2.473-1.615,4.011v0.42c-1.261,2.771-2.946,5.382-5.145,7.854c-1.914,2.154-2.101,5.781-3.354,8.612
		c-0.853,1.926-2.138,3.672-3.317,5.443c-1.824,2.733-4.227,5.214-5.426,8.185c-0.897,2.215-1.538,3.003-4.007,3.651
		c-2.839,0.742-6.055,2.75-7.548,5.165c-1.416,2.293-2.688,3.224-5.043,3.256c-2.815,0.041-5.626,0.008-8.454,0.008
		c2.277,6.414,11.632,11.024,18.221,8.993c8.258-2.542,13.831-8.034,17.507-15.732c1.562-3.272,3.497-6.369,5.014-9.107
		c0,3.068,0.004,6.447-0.008,9.825c0,0.388,0.049,0.93-0.171,1.143c-4.565,4.365-3.101,10.534-4.843,15.724
		c-0.587,1.746-2.264,3.171-3.59,4.606c-0.681,0.743-2.064,1-2.477,1.812c-3.088,6.096-8.821,8.123-15.121,9.968
		c0.608,0.665,0.976,1.375,1.555,1.656c11.506,5.59,23.591,1.836,28.728-9.478c4.667-10.273,7.748-20.828,7.511-32.208
		c-0.008-0.44,0.118-0.881,0.257-1.325l1.518,2.778c0.196,0.358,0.433,0.689,0.698,0.983c0.123,0.95,0.159,1.885-0.008,2.782
		c-0.877,4.745-1.355,9.221,0.889,13.758c0.4,0.804-0.547,2.439-1.155,3.537c-0.799,1.448-2.627,2.705-2.701,4.112
		c-0.298,5.554-3.452,9.127-7.417,12.351c-0.433,0.351-0.616,1.004-1.102,1.836c4.17,1.184,7.789,0.498,11.22-1.188
		c7.026-3.46,12.62-8.56,13.167-16.683c0.379-5.635-1.094-11.392-1.738-17.092c-0.159-1.428-0.612-2.893-0.424-4.271
		c0.8-5.83-1.285-10.942-3.603-16.047c-0.282-0.62-0.282-1.46-0.167-2.162c0.625-3.811,1.489-7.589,1.958-11.416
		c0.645-5.238,4.284-8.576,7.63-11.877c9.172-9.049,20.339-15.259,31.191-21.917c10.568-5.39,19.763-12.95,27.271-22.334
		c4.852-2.64,9.629-5.541,13.912-8.997l-0.424,0.649c1.037-0.906,2.004-1.849,2.941-2.804c3.139-2.848,5.932-6.046,8.18-9.759
		c1.43-2.358,2.543-4.778,3.416-7.267c2.926-6.197,5.088-12.812,6.984-19.576c1.225-0.199,2.424-0.53,3.578-0.983
		c2.562,1.918,4.195,4.224,4.158,7.777c-0.012,1.256,0.432,2.627,1.023,3.766c5.422,10.485,3.566,20.506-1.582,30.465
		c-1.588,3.068-3.293,6.365-3.645,9.698c-0.363,3.415-1.211,6.817,0.641,10.686c2.314,4.831-1.836,8.743-5.482,11.273
		c-3.9,2.705-8.516,4.468-12.975,6.259c-5.998,2.407-7.965,7.229-6.516,13.451c1.432,6.157,1.971,12.583,2.275,18.923
		c0.273,5.655-0.15,11.363-0.586,17.022c-0.197,2.525-1.188,4.989-2.119,8.661c2.682-1.685,4.783-3.007,7.773-4.888
		c0,2.799,0.131,5.052-0.045,7.283c-0.123,1.546-0.479,3.134-1.041,4.577c-2.676,6.847-1.154,12.665,3.627,18.107
		c1.428,1.624,2.102,4.146,2.529,6.365c1.037,5.397,3.955,8.535,9.287,9.481c0.678,0.123,1.676,0.534,1.855,1.049
		c1.596,4.517,5.607,5.214,9.275,4.97c3.5-0.232,4.662,1.501,5.727,3.953c0.768,1.767,1.344,3.615,2.004,5.422
		c0.371,0.054,0.746,0.106,1.119,0.155c0.994-3.063,1.99-6.132,3.051-9.404c3.354,2.195,6.846,2.885,11.053,1.163
		c1.27-0.519,4.1,2.003,5.811,3.578c1.439,1.33,2.289,3.301,3.5,5.145c2.26-3.264,2.27-10.032,0.041-11.595
		c-1.934-1.354-4.26-2.139-6.377-3.244c-0.656-0.343-1.191-0.909-1.547-2.224c1.311,0.221,2.619,0.437,4.26,0.71
		c1.596-2.827,3.971-2.04,6.324-0.367c1.375,0.979,2.668,2.102,3.875,3.28c1.168,1.143,2.184,2.44,3.791,4.264
		c1.521-6.731-0.24-11.664-4.402-15.937c0.012,0.037,0.029,0.078,0.041,0.114c-1.143-1.15-2.443-2.072-3.863-2.733
		c-1.424-1.073-2.84-2.191-4.338-2.301c-5.287-0.396-10.641,0.085-15.965,0.224c-0.625,0.017-1.391,0.331-1.848,0.074
		c-3.656-2.057-7.328-4.101-10.816-6.418c-1.098-0.73-2.174-2.216-2.357-3.484c-1.523-10.689-6.195-20.249-10.463-29.955
		c-2.301-5.231-1.941-10.601-1.598-15.994c0.064-0.114,0.121-0.232,0.174-0.354c0.453-1.086,0.906-2.171,1.359-3.256
		c0.334-0.8-0.217-1.816-0.902-2.22c-0.09-0.053-0.184-0.098-0.281-0.135c1.057-9.547,7.447-14.876,15.646-18.96
		c6.08-3.027,12.053-6.274,18.219-9.114c2.287-1.053,5.033-1.069,7.486-1.841c2.354-0.742,4.516-2.252,6.898-2.696
		c3.072-0.575,6.309-1.045,9.213,1.199c0.693,0.539,2.158,0.082,3.742,0.082c0.184,0.918,0.533,2.138,0.645,3.374
		c0.207,2.342-0.291,4.908,0.498,7.009c3.043,8.14,3.398,16.725,4.475,25.162c0.58,4.541-0.033,9.245-0.252,13.872
		c-0.07,1.411-1.025,2.839-0.887,4.189c0.887,8.715-1.979,16.3-6.205,23.722c-2.277,3.998-5.68,5.108-9.633,5.716
		c-1.094,0.167-2.232,0.024-3.586,0.024c2.986,4.582,10.852,4.505,15.496,1.057c7.914-5.879,9.967-14.275,11.244-23.207
		c0.592-4.137,1.738-8.254,1.82-12.398c0.146-7.426-0.096-14.876-0.596-22.289c-0.43-6.312-1.461-12.579-2.225-18.866l1.131-0.461
		c1.016,2.321,2.379,4.557,2.965,6.984c0.898,3.717,2.146,6.806,5.811,8.78c1.225,0.661,1.893,2.864,2.26,4.488
		c0.82,3.635,1.299,7.353,1.902,11.036c0.064,0.384,0.188,0.824,0.072,1.167c-1.432,4.235-2.566,8.625-4.557,12.583
		c-0.66,1.313-3.549,1.505-5.41,2.207c1.959,2.688,6.148,3.293,9.52,1.489c4.43-2.37,7.139-6.397,7.213-10.991
		c0.109-7.066-0.91-14.174-1.82-21.216c-0.207-1.608-1.697-3.281-3.01-4.468c-3.648-3.301-4.979-7.487-4.525-12.926
		c1.742,1.913,3.492,3.823,5.223,5.749c0.436,0.485,0.686,1.281,1.211,1.521c6.32,2.901,6.529,9.85,9.637,14.835
		c0.734,1.175-0.48,3.803-1.244,5.569c-0.379,0.881-1.762,1.33-2.762,2.02c3.691,2.191,7.768,0.686,9.607-3.366
		c2.768-6.083,0.324-15.034-4.316-19.865c-8.078-8.409-15.643-17.312-23.432-25.998c-0.51-0.567-1.137-1.028-1.627-1.607
		c-0.779-0.926-1.49-1.909-2.184-2.812c-7.393-0.412-15.254-0.853-22.758-1.272c0.809-2.501,1.607-4.966,2.395-7.405
		c2.746-5.328,4.623-10.991,5.5-16.993c0.898-2.771,1.787-5.517,2.668-8.241c3.02,0.179,6.047,0.362,9.58,0.571
		c-0.125,1.473-0.244,2.953-0.387,4.431c-0.25,2.587-1.273,5.41-0.547,7.683c0.652,2.052,2.211,3.61,2.24,6.267
		c0.041,3.64,1.236,7.274,2.027,10.894c0.992,4.545,2.758,8.381,7.801,9.951c1.738,0.543,2.975,2.534,4.646,3.505
		c1.188,0.689,2.719,0.779,4.24,0.73c1.693,1.338,2.863,4.414,5.631,1.171c1.455,0.93,2.75,1.759,4.582,2.93
		c0.42-1.935,0.729-3.338,1.035-4.758c3.773,1.13,7.254,1.934,11.078-0.596c1.398-0.926,4.393,0.563,7.045,1.016
		c-0.076-1.113-0.139-2.003-0.188-2.766c4.611-0.351,6.133,2.488,7.586,6.002c1.32,3.19,3.807,5.887,5.186,9.062
		c1.256,2.893,1.742,6.128,2.518,9.229c0.281,1.13,0.039,2.583,0.668,3.411c4.451,5.843,3.248,12.995,4.836,19.481
		c1.031,4.224,2.729,8.348,4.613,12.281c2.682,5.59,5.945,10.897,8.658,16.471c0.734,1.506,0.334,3.546,0.559,5.329
		c0.518,4.088,1.146,8.159,1.648,12.248c0.51,4.178-2.693,5.148-5.758,6.169c3.326,3.749,8.936,2.497,10.898-2.109
		c3.701-8.687,2.121-17.259-0.812-25.614c-1.496-4.264-3.777-8.352-6.299-12.13c-4.328-6.491-5.586-13.721-6.059-21.216
		c-0.18-2.844-0.029-5.712,0.074-8.675c1.312,9.299,8.66,14.896,13.34,22.154c1.801,2.791,3.068,5.937,4.51,8.952
		c0.787,1.645,1.232,3.48,2.178,5.022c3.338,5.442,3.488,6.389,1.105,11.849c3.852,1.313,7.275-0.779,7.59-5.488
		c0.432-6.467-0.865-12.705-4.545-18.29c-3.51-5.325-6.916-10.719-10.262-16.149c-2.318-3.757-4.875-7.454-6.557-11.497
		c-1.75-4.206-2.574-8.801-4.039-14.08c3.656,1.432,6.078,2.248,6.654,5.802c0.277,1.734,1.742,3.537,3.137,4.777
		c3.113,2.771,4.094,5.655,1.506,9.241c3.82,1.114,6.953-1.562,7.111-6.066c0.236-6.675-2.264-12.615-7.371-16.471
		c-8.08-6.1-13.832-14.093-20.209-21.645c-1.408-1.665-4.006-2.437-6.178-3.317c-2.012-0.82-4.256-1.064-6.271-1.873
		c-4.133-1.652-8.379-1.089-12.646-1.231c-6.484-0.217-12.941-1.163-19.996-1.856c1.42-5.235,2.725-10.033,4.115-15.162
		c0.389-0.081,1.311-0.272,2.285-0.477c-2.979-6.957-2.691-9.466,1.461-10.739c-0.566-1.317-1.102-2.606-1.676-3.88
		c-2.15-4.753-1.861-6.079,2.148-9.551c0.367-0.318,1.008-0.584,1.074-0.951c0.795-4.517,1.541-9.041,2.223-13.574
		c0.588-3.908,1.457-7.825,1.527-11.75c0.125-7.312-0.371-14.631-0.377-21.946c-0.008-13.284,1.85-26.332,5.615-39.082
		c0.623-2.109,1.506-4.187,2.57-6.116c2.885-5.219,4.197-5.655,10.023-4.484c5.252,1.057,10.707,1.367,15.777,2.95
		c5.447,1.706,10.654,4.178,15.949,6.39c1.033,0.607,2.154,1.068,3.35,1.338c2.244,0.815,4.639,1.432,7.59,2.35
		c0.053,0.144,0.121,0.282,0.207,0.408c0.205,0.534,0.6,1.571,1.217,3.187c1.559-1.885,2.889-3.492,4.174-5.047
		c0.664-0.294,1.277-0.648,1.84-1.049c0.484,0.689,1.094,1.555,1.971,2.795c1.041-2.22,1.82-3.884,2.598-5.549
		c0.156,0.204,0.307,0.404,0.463,0.608c0.975-0.686,2.721-1.29,2.807-2.073c0.367-3.375,0.738-6.761,0.723-10.086
		c1.002-4.101,0.252-8.854-1.812-12.244c-0.869-1.424-1.896-2.742-3.012-3.978c0.094-0.967,0.07-1.942-0.076-2.901
		c-0.014-2.95-0.041-5.899,0.109-8.837c0.408-1.554,0.457-3.149,0.266-4.798c-0.008-2.338-0.375-4.521-1.213-6.585
		c-0.008-0.049-0.02-0.098-0.027-0.143c-0.449-2.33-2.098-4.529-4.012-6.059c-1.174-1.709-2.141-3.607-2.855-5.521
		c-0.986-2.648-2.232-4.492-4.744-4.843c-1.049-0.661-2.322-1.053-3.709-1.073c-3.586-0.053-7.205,0.184-10.816,0.461
		c-2.66-0.988-4.973-2.873-6.977-5.688c-1.207-1.702-8.014-2.387-10.07-1.506c-0.297,0.126-0.803,0.139-1.049-0.028
		c-4.074-2.799-8.689,0.971-13.398-2.073c0.502,1.738,0.693,2.403,0.881,3.068c-0.248,0.049-0.496,0.147-0.742,0.135
		c-3.088-0.167-5.65-0.191-8.531,2.301c-4.006,3.468-9.404,5.263-13.883,8.262c-2.914,1.95-5.252,4.765-7.848,7.193l1.086,0.738
		c-0.49,1.302-0.709,2.811-1.521,3.864c-3.125,4.056-7.217,7.422-7.168,13.333c0.016,2.109-1.445,4.207-2.064,6.357
		c-0.678,2.346-1.258,4.732-1.719,7.132c-0.967,5.035-2.693,10.114-2.525,15.125c0.236,6.981-0.779,13.583-2.746,20.147
		c-0.436,1.452-1.195,2.812-2.23,5.186c-2.559-2.28-5.316-3.749-6.521-6.038c-1.896-3.603-4.193-6.071-8.07-7.389
		c-1.137-0.388-1.691-2.261-2.736-3.211c-0.727-0.665-1.828-0.922-3.326-0.6c-0.273-0.571-0.689-1.118-0.799-1.722
		c-0.84-4.561-4.9-6.324-7.773-9.147c-1.182-1.163-1.941-2.75-2.994-4.06c-0.857-1.069-1.869-2.012-3.59-2.575
		c0.35,1.396,0.697,2.795,1.121,4.496c-2.594-1.452-4.924-2.754-7.662-4.284c-0.117,1.249-0.188,2.011-0.266,2.832
		c-0.443-0.033-0.828-0.062-1.211-0.09c-5.957-0.469-11.9-1.139-17.867-1.347c-4.77-0.167-9.623-0.22-14.316,0.49
		c-4.059,0.616-7.988,2.256-11.889,3.672c-2.66,0.963-5.107,2.526-7.775,3.452c-3.184,1.102-5.611-0.546-7.867-5.108
		c-0.75,0.906-1.408,1.697-2.428,2.934c-0.979-2.032-1.848-3.839-2.873-5.957c-0.705,0.457-1.455,0.947-1.979,1.285
		c-2.969-2.289-5.854-4.537-8.787-6.715c-0.277-0.204-0.883-0.041-1.311,0.049c-2.689,0.567-4.133-0.522-4.459-3.313
		c-1.109-9.441-2.248-18.878-3.398-28.499c-0.506,0.294-1.188,0.686-2.171,1.253c0-1.032-0.123-1.693,0.016-2.293
		c3.084-13.321-2.909-25.659-4.137-38.511c-3.79-3.48-0.934-7.65-1.277-11.494c-0.547-6.104-1.701-12.154-2.464-18.242
		c-2.122-16.977-3.631-34.056-6.418-50.922c-2.472-14.974-7.111-29.49-13.382-43.37c-4.467-9.894-11.228-18.262-18.699-26.018
		c-9.164-9.515-18.535-18.825-27.83-28.213c-0.151-0.155-0.477-0.139-1.611-0.428c0.526,1.701,0.641,3.19,1.367,4.268
		c10.689,15.887,17.209,33.627,23.925,51.408c5.875,15.557,9.73,31.62,14.463,47.467c3.582,12.003,7.062,24.035,10.563,36.063
		c0.212,0.73,0.225,1.518,0.331,2.305c-4.533-11.636-9.045-23.223-13.558-34.814c-0.457,0.061-0.91,0.126-1.367,0.188
		c-0.514,1.412-1.028,2.819-1.803,4.961c-0.4-11.143-6.765-18.919-11.489-27.258c-15.5-27.348-36.463-50.315-58.911-72.028
		c-1.024-0.987-1.962-2.064-3.154-3.317c-0.686,0.518-1.408,1.064-2.313,1.754c-0.6-1.518-0.938-3.129-1.815-4.357
		c-0.738-1.036-2.167-1.559-3.17-2.444c-0.946-0.832-1.579-2.105-2.619-2.738c-8.278-5.026-16.642-9.914-26.161-12.313
		c-0.208-0.053-0.469,0.106-1.036,0.245c0.265,0.681,0.322,1.534,0.779,1.901c16.524,13.354,27.201,31.224,37.948,49.045
		c4.32,7.168,8.58,14.374,13.015,21.469c0.681,1.089,2.101,1.787,3.289,2.477c4.786,2.77,9.612,5.467,14.422,8.192
		c-0.126,0.543-0.257,1.085-0.383,1.628c-2.587,0.486-5.202,0.869-7.752,1.501c-1,0.249-1.856,1.057-2.778,1.612
		c0.501,0.779,1.064,1.53,1.485,2.354c0.404,0.788,0.649,1.661,0.983,2.485c1.322,3.256,2.505,6.581,4.006,9.751
		c7.328,15.472,16.757,29.597,27.218,43.13c10.727,13.872,20.286,28.523,26.324,43.305c-8.792-13.472-18.495-28.344-28.772-44.093
		c-1.02,3.105-1.604,4.872-2.183,6.638c-0.298-0.049-0.591-0.102-0.889-0.151c0.232-2.293,0.465-4.59,0.742-7.295
		c-1.252,0.229-2.15,0.392-2.542,0.465c-1.905-8.021-7.793-13.509-12.767-19.18c-10.163-11.587-21.134-22.46-31.836-33.57
		c-0.665-0.694-1.873-0.865-3.207-1.444c0.383-7.564-5.949-11.787-10.641-16.459c-8.976-8.935-18.792-17.026-28.352-25.365
		c-0.84-0.734-2.333-0.722-2.958-1.428c-2.211-2.089-4.113-4.749-6.691-6.169c-13.746-7.568-27.659-14.827-41.522-22.17
		c-0.416-0.22-0.975-0.18-2.595-0.449c1.183,1.713,1.771,2.831,2.599,3.725c5.605,6.035,11.713,11.665,16.772,18.124
		c5.133,6.552,9.458,13.778,13.75,20.938c6.267,10.453,14.659,19.062,23.284,27.438c13.134,12.758,26.508,25.268,39.776,37.887
		c0.935,0.889,1.82,1.832,2.509,3.3c-2.529-0.914-5.059-1.828-8.792-3.174c1.069,1.921,1.44,3.019,2.159,3.811
		c14.721,16.304,29.314,32.726,44.305,48.776c7.487,8.017,16.12,14.965,23.497,23.072c10.09,11.094,19.478,22.828,29.164,34.284
		c-0.278,0.322-0.551,0.649-0.829,0.971c-1.126-0.277-2.252-0.555-3.378-0.833c-0.302,0.294-0.604,0.592-0.906,0.886
		c2.281,2.26,4.562,4.521,6.936,6.871c-4.847-1.008-46.692-31.669-53.281-39.042c-0.502,0.636-0.963,1.224-1.534,1.95
		c-0.331-1.604-0.637-3.088-1.13-5.5c-1.175,1.579-1.876,2.521-2.925,3.929c1.085-4.68-1.701-6.618-4.606-9.225
		c-17.52-15.728-34.696-31.836-52.02-47.785c-13.371-12.31-25.969-25.651-40.38-36.602c-20.078-15.251-41.547-28.67-64.999-38.471
		c-1.155-0.481-2.46-0.612-3.697-0.906C41.394,73.263,41.19,73.605,40.99,73.948z M337.443,374.603
		c0.48,0.004,0.963-0.012,1.443-0.053c-0.061,0.184-0.121,0.371-0.188,0.555C338.279,374.938,337.863,374.771,337.443,374.603z"/>
</g>
<g>
</g>
<g>
</g>
<g>
</g>
<g>
</g>
<g>
</g>
<g>
</g>
<g>
</g>
<g>
</g>
<g>
</g>
<g>
</g>
<g>
</g>
<g>
</g>
<g>
</g>
<g>
</g>
<g>
</g>
</svg>
