<?xml version="1.0" encoding="iso-8859-1"?>
<!-- Generator: Adobe Illustrator 16.0.0, SVG Export Plug-In . SVG Version: 6.00 Build 0)  -->
<!DOCTYPE svg PUBLIC "-//W3C//DTD SVG 1.1//EN" "http://www.w3.org/Graphics/SVG/1.1/DTD/svg11.dtd">
<svg version="1.1" id="Capa_1" xmlns="http://www.w3.org/2000/svg" xmlns:xlink="http://www.w3.org/1999/xlink" x="0px" y="0px"
	 width="566.083px" height="566.083px" viewBox="0 0 566.083 566.083" style="enable-background:new 0 0 566.083 566.083;"
	 xml:space="preserve">
<g>
	<path d="M3.358,86.099c0.379-0.595,0.849-1.591,1.061-2.264c0.755-2.407,2.391-4.072,4.276-5.598
		c2.632-2.134,5.247-4.292,7.797-6.52c3.375-2.95,6.516-6.189,10.049-8.931c4.398-3.411,8.812-6.903,14.271-8.604
		c0.294-0.09,0.522-0.363,0.8-0.526c2.856-1.697,5.737-3.346,8.552-5.108c0.755-0.473,1.55-1.171,1.877-1.954
		c0.404-0.971,0.355-2.134,0.465-3.215c0.379-3.839,1.184-7.552,3.297-10.865c0.498-0.783,1.921-1.795,2.852-2.55
		c0.546-0.445,1.407-0.816,2.097-0.669c2.914,0.612,5.806,1.306,8.744,1.677c2.175,0.278,4.431,0.037,6.638-0.13
		c5.284-0.4,16.401-2.452,20.583-2.436c0.706,0.004,1.322-0.449,1.469-1.139c0.551-2.603,1.881-4.569,2.987-3.558
		c2.04,1.869,9.38,5.063,11.971,4.745c5.7-0.706,7.107-0.481,12.807,0.147c5.773,0.636,10.967,3.076,16.369,4.863
		c4.215,1.395,8.034,3.439,10.225,7.622c0.139,0.265,0.433,0.469,0.689,0.652c6.634,4.688,13.122,9.551,18.886,15.321
		c1.249,1.249,2.95,2.052,4.17,3.325c8.274,8.609,14.043,18.882,19.253,29.49c2.134,4.341,4.088,8.772,6.206,13.386
		c0.293,0.641,1,0.824,1.583,0.429c8.188-5.618,17.111-8.825,26.242-11.433c12.526-3.578,25.345-3.476,38.222-2.644
		c10.747,0.693,21.521,0.979,32.269,1.661c6.271,0.4,12.387-0.049,18.503-1.485c2.844-0.669,5.842-0.844,8.779-0.91
		c7.096-0.155,13.815,1.905,20.543,3.835c2.521,0.722,5.047,1.718,7.622,1.914c8.119,0.616,16.259,0.91,24.39,1.326
		c11.478,0.587,22.628,2.416,33.093,7.605c7.111,3.525,12.832,8.67,18.066,14.415c2.538,2.783,4.644,5.978,6.806,9.082
		c0.849,1.216,1.799,1.653,3.203,1.534c3.578-0.306,7.168-0.51,10.746-0.849c12.521-1.183,25.047-2.317,37.553-3.651
		c6.631-0.706,13.199-2.183,19.842-2.587c6.629-0.404,13.35-0.286,19.971,0.302c6.736,0.595,13.061,3.17,19.318,5.695
		c1.412,0.567,2.893,1.089,4.129,1.942c2.42,1.677,4.529,3.839,7.051,5.316c4.293,2.518,5.346,6.916,6.104,11.004
		c1.131,6.095-1.098,11.987-3.721,17.389c-3.432,7.066-7.809,13.578-14.561,18.07c-0.588,0.392-1.184,0.767-1.783,1.138
		c-0.6,0.375-1.199,0.575-1.338,0.449c-0.139-0.13-0.09-0.779,0.117-1.453c0.127-0.412,0.262-0.82,0.428-1.216
		c2.318-5.553,4.918-11.024,5.84-17.038c0.803-5.234,0.906-6.801-5.414-7.054c-8.393-0.334-16.814-0.963-25.102,1.024
		c-5.602,1.342-11.465,2.199-16.666,4.497c-15.439,6.817-30.616,14.235-45.876,21.457c-0.53,0.253-1.122,0.897-1.228,1.448
		c-0.641,3.342-1.122,6.711-1.702,10.062c-0.995,5.752-1.758,11.562-3.104,17.234c-1.497,6.295-3.492,12.473-5.349,18.678
		c-5.39,18.009-10.584,36.083-16.328,53.983c-3.285,10.24-6.72,20.497-11.979,29.991c-1.117,2.02-2.158,4.093-3.048,6.218
		c-0.958,2.281-1.395,4.655-0.392,7.1c2.024,4.925,3.881,9.923,6.039,14.786c2.599,5.847,4.749,11.791,5.038,18.237
		c0.208,4.61,0.078,9.241,0.298,13.852c0.682,14.292,1.363,28.589,2.248,42.873c0.38,6.1-0.465,11.877-2.872,17.466
		c-3.17,7.369-6.409,14.709-8.233,22.579c-2.623,11.318-5.283,22.632-8.082,33.904c-1.045,4.215-2.407,8.368-3.868,12.461
		c-0.465,1.302-0.596,2.33-0.196,3.631c1.547,5.043,2.975,10.123,1.751,15.488c-0.343,1.501-1,3.035-0.886,4.508
		c0.286,3.766-1.819,6.72-2.986,9.979c-0.624,1.747-2.061,2.722-3.979,2.909c-0.261,0.024-0.518,0.09-0.771,0.168
		c-0.416,0.126-0.931-0.058-1.163-0.404c-0.139-0.208-0.298-0.416-0.485-0.584c-1.665-1.469-2.068-3.354-1.815-5.426
		c0.18-1.461,0.681-2.893,0.75-4.354c0.106-2.179,0.062-4.365,0.041-6.549c-0.004-0.705-0.135-1.293-0.298-1.313
		c-0.159-0.021-0.489,0.498-0.759,1.15c-2.052,4.949-5.116,9.176-9.094,12.812c-2.175,1.987-4.174,4.031-7.516,3.468
		c-0.47-0.077-1.143,0.437-1.571,0.837c-1.893,1.767-4.116,2.958-6.634,2.194c-1.33-0.403-2.497-1.35-3.774-2.272
		c-0.57-0.412-1.395-0.273-1.819,0.29c-0.281,0.371-0.592,0.783-0.938,1.24c-0.424,0.563-0.779,0.44-0.767-0.266
		c0.057-3.5,0.571-6.658,2.011-9.665c0.307-0.637,0.021-1.105-0.685-1.09c-0.89,0.021-1.678,0.037-2.432,0.209
		c-1.159,0.265-2.24,0.844-3.362,1.28c-4.104,1.604-7.69,1.27-9.604-2.121c-0.347-0.616-1.036-0.873-1.652-0.526
		c-1.02,0.575-2.016,1.139-2.982,1.685c-0.616,0.347-1.109,0.054-1.021-0.648c0.453-3.492,2.526-6.63,5.912-8.355
		c2.33-1.188,4.758-2.469,7.279-2.926c5.454-0.991,9.017-4.577,12.709-8.16c4.549-4.41,9.192-8.727,13.774-13.104
		c0.534-0.51,1.146-1.073,1.395-1.734c1.343-3.603,2.591-7.242,3.855-10.873c0.2-0.579,0.376-1.167,0.58-1.84
		c0.199-0.678-0.078-0.861-0.648-0.449c-2.697,1.946-4.239,2.061-6.283,0.396c-0.547-0.444-1.375-0.469-1.897,0
		c-0.535,0.481-1.077,0.968-1.62,1.453c-0.526,0.473-1.163,0.31-1.248-0.392c-0.168-1.339,0.167-2.664,0.991-3.803
		c1.073-1.478,2.395-2.844,3.839-3.966c1.914-1.489,4.052-2.692,6.088-4.022c4.149-2.71,7.874-5.758,8.906-10.992
		c0.049-0.244,0.2-0.469,0.298-0.706c2.546-6.095,5.075-12.183,4.917-19c-0.164-7.046-0.988-13.855-4.517-20.213
		c-3.864-6.956-7.394-14.1-10.919-21.24c-3.582-7.25-7.393-14.427-10.367-21.93c-6.095-15.39-8.869-31.575-10.489-47.997
		c-0.641-6.504-1.318-13.048-2.713-19.413c-1.102-5.019-2.375-9.972-2.738-15.116c-0.065-0.922-0.191-1.844-0.31-2.681
		c-0.099-0.697-0.689-1.016-1.322-0.701c-4.794,2.366-9.412,4.794-14.19,6.862c-4.394,1.901-8.947,3.578-13.941,2.644
		c-0.526-0.098-1.061-0.143-1.774-0.2c-0.702-0.057-0.918,0.339-0.494,0.902c0.653,0.856,1.172,1.546,1.714,2.211
		c2.399,2.922,5.092,5.643,7.169,8.776c3.243,4.888,3.402,10.841,4.618,16.36c1.583,7.193,1.869,14.676,3.509,21.853
		c2.257,9.874,5.174,19.601,7.984,29.336c1.444,4.997,1.041,9.779-0.922,14.459c-1.885,4.492-4.084,8.857-5.94,13.358
		c-2.546,6.164-2.979,12.855-4.528,19.27c-0.629,2.599,0.159,4.333,1.807,6.156c2.354,2.607,4.692,5.26,6.691,8.136
		c1.073,1.547,1.204,3.346,0.604,5.019c-0.241,0.665-0.854,0.669-1.232,0.077c-0.343-0.534-0.682-1.068-1.036-1.623
		c-0.38-0.596-1.077-0.649-1.673-0.27c-1.265,0.808-2.461,0.686-3.603-0.253c-0.771-0.633-1.266-1.592-1.946-2.342
		c-0.314-0.347-0.657-0.669-1.021-1c-0.522-0.473-1.032-0.686-1.138-0.478c-0.114,0.221-0.159,0.298-0.18,0.38
		c-1.604,6.141-3.203,12.28-4.786,18.425c-0.073,0.29-0.041,0.625,0.017,0.923c0.481,2.521,0.885,5.059,1.497,7.548
		c0.906,3.688,0.51,7.258-0.633,10.808c-0.293,0.914-0.836,1.828-0.832,2.742c0.009,4.1-2.864,6.585-5.214,9.285
		c-0.686,0.792-2.272,0.833-3.464,1.135c-0.294,0.073-0.596,0.102-0.897,0.118c-0.502,0.024-1.18-0.465-1.433-1.126
		c-1.351-3.477-0.751-6.965,1.049-10.449c0.216-0.42,0.18-0.971,0.122-1.64c-0.061-0.702-0.444-0.841-0.918-0.318
		c-0.661,0.727-1.224,1.326-1.64,2.016c-2.175,3.606-5.357,6.193-8.601,8.727c-1.514,1.184-3.199,1.465-5.092,0.972
		c-0.629-0.163-1.526-0.062-2.061,0.285c-3.762,2.44-6.843,2.085-9.404-1.289c-0.429-0.563-1.102-0.624-1.571-0.094
		c-0.2,0.225-0.396,0.449-0.592,0.669c-0.469,0.53-0.914,0.922-0.999,0.877c-0.086-0.045-0.078-0.641,0.024-1.342
		c0.188-1.306,0.371-2.624,0.567-3.986c0.098-0.697-0.221-1.171-0.71-1.049c-0.311,0.073-0.601,0.143-0.89,0.2
		c-3.599,0.686-5.451-0.167-7.373-3.187c-0.236-0.371-1.163-0.648-1.583-0.489c-0.816,0.313-1.587,0.746-2.391,1.203
		c-0.612,0.347-1.049,0.058-0.902-0.632c0.625-2.938,2.069-5.32,4.965-6.59c2.264-0.991,4.7-1.681,7.124-2.194
		c4.558-0.968,8.27-3.231,11.354-6.663c2.439-2.718,4.798-5.528,7.442-8.038c1.831-1.737,3.271-3.35,4.055-5.965
		c2.844-9.53,6.104-18.935,9.237-28.376c2.383-7.181,5.075-14.264,5.94-21.869c0.457-4.007-0.069-7.613-2.75-10.815
		c-4.985-5.957-9.914-11.963-14.79-18.014c-5.948-7.385-12.582-14.288-16.295-23.252c-2.722-6.568-5.704-13.035-8.267-19.666
		c-1.302-3.369-2.443-6.703-4.863-9.514c-0.91-1.062-1.367-2.6-1.767-3.995c-0.987-3.451-1.779-6.96-2.754-10.416
		c-0.155-0.551-0.437-1.068-0.734-1.583c-0.355-0.607-0.824-1.044-1.061-0.971c-0.236,0.073-0.338,0.701-0.232,1.399
		c0.265,1.738,0.514,3.48,0.857,5.206c0.375,1.881,1.689,3.749-0.159,5.569c-0.13,0.13-0.098,0.478-0.065,0.71
		c0.535,3.912-0.636,7.507-2.252,10.946c-0.987,2.098-2.717,3.224-5.055,3.558c-0.698,0.098-0.881-0.285-0.383-0.755
		c0.334-0.313,0.612-0.616,0.754-0.971c0.604-1.514,1.224-3.097,1.342-4.692c0.053-0.693-1.114-1.473-1.713-2.219
		c-0.4-0.498-0.84-0.976-1.171-1.522c-1.889-3.142-1.669-6.368-0.282-9.604c0.543-1.269,0.535-2.407,0.176-3.341
		c-0.253-0.661-0.82-0.56-1.049,0.109c-0.542,1.6-1.122,3.252-1.579,4.938c-0.955,3.537-2.595,6.703-5.006,9.429
		c-1.094,1.236-2.436,2.052-3.896,2.317c-0.694,0.126-0.942-0.375-0.53-0.95c0.894-1.245,1.795-2.481,2.583-3.787
		c0.302-0.502,0.383-1.497,0.082-1.941c-2.46-3.647-1.93-7.152,0.334-10.592c1.155-1.751,1.559-3.484,1.126-5.635
		c-0.311-1.53,0.057-3.235,0.322-4.826c0.229-1.375,1.109-2.726,1.04-4.056c-0.184-3.554-0.008-6.985,1.11-10.412
		c0.665-2.044-0.326-3.281-2.391-3.766c-1.498-0.351-3.007-0.677-4.488-1.077c-11.668-3.17-22.803-7.797-33.852-12.627
		c-4.965-2.171-9.556-4.941-13.272-8.993c-0.42-0.457-0.963-0.914-1.538-1.102c-9.812-3.231-18.837-8.115-27.801-13.142
		c-0.281-0.159-0.579-0.286-0.93-0.428c-0.522-0.216-0.787,0.159-0.591,0.836c0.469,1.636,0.873,3.072,1.326,4.496
		c1.224,3.839,0.155,7.181-2.538,9.894c-1.595,1.607-3.55,3.007-5.585,3.999c-3.741,1.828-7.65,3.321-11.514,4.884
		c-1.51,0.612-3.056,1.122-4.676,1.677c-0.669,0.229-1.273,0.983-1.318,1.689c-0.139,2.146-0.004,4.382,1.216,6.508
		c0.947,1.652,1.408,3.452,0.795,5.361c-0.808,2.501-0.089,4.656,1.437,6.655c0.424,0.559,0.824,1.167,1.097,1.808
		c1.412,3.316,1.539,6.561-0.522,9.727c-0.306,0.469-0.392,1.399-0.126,1.86c0.975,1.714,2.052,3.362,3.088,4.97
		c0.384,0.591,0.114,1.04-0.575,0.889c-1.538-0.342-3.027-1.121-3.999-2.517c-2.191-3.138-4.084-6.487-6.034-9.788
		c-0.559-0.942-1.02-1.942-1.489-2.938c-0.302-0.641-0.865-0.669-1.204-0.054c-0.498,0.894-0.934,1.723-1.616,2.229
		c-1.75,1.289-1.46,2.859-1.065,4.455c0.164,0.652,0.478,1.269,0.824,1.926c0.331,0.624,0.012,1.028-0.641,0.767
		c-1.457-0.583-2.513-1.591-3.064-3.125c-0.628-1.742-1.167-3.546-1.489-5.365c-0.269-1.538-0.204-3.138-0.232-4.708
		c-0.024-1.408-0.057-2.827,0.069-4.227c0.11-1.2,0.481-2.375,0.665-3.57c0.392-2.571,0.734-5.149,1.102-7.728
		c0.118-0.82,0.302-1.636,0.375-2.46c0.155-1.787,0.224-3.582,0.392-5.365c0.465-4.945,3.292-8.511,6.895-11.591
		c1.84-1.571,3.713-3.105,5.37-4.468c0.542-0.449,0.726-1.326,0.408-1.954c-2.309-4.537-4.631-8.927-6.752-13.411
		c-4.374-9.233-4.892-18.743-1.824-28.49c0.718-2.289,1.326-4.647,1.636-7.018c0.669-5.072,1.032-10.188,1.706-15.259
		c0.184-1.383,0.004-2.436-0.739-3.574c-6.479-9.939-12.913-19.911-19.413-29.837c-0.277-0.429-1.163-0.747-1.693-0.665
		c-1.836,0.286-3.635,0.799-5.459,1.175c-2.832,0.583-5.377,0.253-7.67-1.82c-3.737-3.378-6.499-7.36-8.348-12.027
		c-0.204-0.514-0.738-1.229-1.167-1.265c-2.681-0.22-5.382-0.437-8.066-0.347c-6.85,0.232-13.696,0.657-20.547,0.942
		c-1.722,0.069-3.48-0.306-5.182-0.118c-4.851,0.526-9.678,1.256-14.521,1.873c-6.744,0.861-13.477,1.865-20.241,2.473
		c-3.868,0.347-7.797-0.11-11.689,0.045c-5.712,0.232-10.098-2.097-13.354-6.602c-2.868-3.945-4.72-8.38-5.92-13.097
		c-0.351-1.387-0.196-3.154-2.256-3.55c-0.293-0.057-0.624-0.693-0.681-1.098c-0.857-6.075-2.995-11.995-2.244-18.27
		c0.037-0.302,0.078-0.836-0.057-0.894c-1.75-0.816-0.665-1.877-0.281-2.86C1.661,91.146,1.91,88.384,3.358,86.099z"/>
</g>
<g>
</g>
<g>
</g>
<g>
</g>
<g>
</g>
<g>
</g>
<g>
</g>
<g>
</g>
<g>
</g>
<g>
</g>
<g>
</g>
<g>
</g>
<g>
</g>
<g>
</g>
<g>
</g>
<g>
</g>
</svg>
