<?xml version="1.0" encoding="iso-8859-1"?>
<!-- Generator: Adobe Illustrator 16.0.0, SVG Export Plug-In . SVG Version: 6.00 Build 0)  -->
<!DOCTYPE svg PUBLIC "-//W3C//DTD SVG 1.1//EN" "http://www.w3.org/Graphics/SVG/1.1/DTD/svg11.dtd">
<svg version="1.1" id="Capa_1" xmlns="http://www.w3.org/2000/svg" xmlns:xlink="http://www.w3.org/1999/xlink" x="0px" y="0px"
	 width="590.254px" height="590.253px" viewBox="0 0 590.254 590.253" style="enable-background:new 0 0 590.254 590.253;"
	 xml:space="preserve">
<g>
	<path d="M55.26,222.861c0.853-0.363,0.796-0.682-0.13-0.694c-4.255-0.049-8.401,0.371-12.481,1.146
		c-4.488,0.857-8.898,2.142-13.325,3.305c-3.794,1-7.568,2.064-11.351,3.113c-0.894,0.249-1.706,0.085-1.815-0.355
		c-0.11-0.445,0.469-1.146,1.301-1.546c13.66-6.564,28.605-8.658,43.334-11.962c0.901-0.204,0.885-0.372-0.041-0.372H44.48
		c-0.926,0-1.693-0.273-1.713-0.612c-0.021-0.339,0.677-0.853,1.571-1.106c7.303-2.081,14.908-2.207,22.411-2.938
		c0.922-0.09,2.15-0.75,2.823-1.383c0.612-0.575,1.236-1.004,1.844-0.975c7.511,0.326,15.035,0.693,22.518,1.448
		c5.773,0.583,11.501,1.616,17.242,2.505c0.914,0.143,1.579-0.02,1.481-0.359c-0.098-0.338,0.506-0.918,1.342-1.322
		c0.661-0.322,1.318-0.587,1.942-0.522c7.744,0.82,15.471,1.799,23.19,2.84c4.696,0.632,9.372,1.408,14.052,2.142
		c0.359,0.057,0.698,0.061,0.987,0.021c0.542-0.074,0.73-0.922,0.273-1.232c-0.245-0.163-0.555-0.314-0.902-0.428
		c-2.525-0.812-5.055-1.624-7.581-2.436c-0.881-0.281-0.853-0.632,0.069-0.71c8.935-0.771,17.083,3.122,26.5,4.509
		c0.918,0.134,1.081-0.257,0.363-0.841c-1.51-1.228-2.746-2.236-3.9-3.178c-0.718-0.583-1.155-1.31-0.979-1.616
		c0.175-0.306,0.992-0.216,1.815,0.208c4.827,2.469,9.649,4.933,14.464,7.397c0.824,0.42,1.681,0.343,1.914-0.175
		c0.232-0.518,1.044-0.522,1.812-0.004c6.609,4.427,13.023,8.76,19.498,12.999c1.461,0.958,3.138,1.624,4.786,2.252
		c2.681,1.02,5.438,1.84,8.119,2.864c0.836,0.318,1.481,1.102,2.285,1.546c3.791,2.105,7.601,4.182,11.387,6.254
		c0.812,0.445,1.587,0.571,1.734,0.265c0.146-0.306,0.889-0.13,1.648,0.404c4.06,2.852,7.895,5.843,12.118,8.12
		c5.724,3.088,9.608,8.511,16.373,10.587c6.21,1.909,11.575,6.593,17.287,10.098c0.955,0.587,1.844,1.285,3.17,2.285
		c0.739,0.559,1.037,0.318,0.657-0.526c-0.159-0.351-0.294-0.657-0.42-0.934c-0.379-0.845-0.539-1.714-0.351-1.938
		c0.188-0.225,0.975-0.013,1.763,0.477c1.787,1.114,3.574,2.228,5.381,3.309c0.922,0.551,2.521,1.62,2.791,1.367
		c2.383-2.236,3.725,0.159,5.39,0.996c1.64,0.828,3.264,1.685,5.002,2.595c0.4,0.212,0.779,0.232,1.065,0.098
		c0.555-0.257,0.538-1.542,1.093-1.807c0.29-0.14,0.674-0.123,1.077,0.077c3.08,1.546,5.985,3.007,8.866,4.451
		c0.828,0.416,1.604,0.588,1.729,0.38c0.127-0.204-0.277-0.923-0.905-1.608c-0.481-0.525-0.967-1.048-1.448-1.574
		c-0.629-0.682-0.996-1.424-0.82-1.656c0.175-0.233,0.975-0.065,1.791,0.375c3.378,1.819,6.761,3.635,10.139,5.455
		c0.298,0.159,0.583,0.281,0.837,0.358c0.481,0.147,0.893-0.493,0.714-1.036c-0.099-0.298-0.232-0.632-0.392-0.954
		c-0.327-0.653-0.649-1.306-0.976-1.959c-0.412-0.828-0.583-1.693-0.384-1.93c0.123-0.146,0.498-0.163,0.963-0.069
		c0.539,0.106,1.616,0.583,2.444,0.935c3.472,1.473,6.944,2.949,10.416,4.423c0.853,0.362,1.62,0.465,1.714,0.232
		s-0.294-1.017-0.869-1.742c-0.559-0.714-1.122-1.424-1.681-2.138c-0.571-0.727-0.865-1.522-0.649-1.775
		c0.217-0.253,1.09-0.184,1.95,0.151c2.566,1.004,5.133,2.003,7.699,3.007c0.861,0.339,1.632,0.474,1.718,0.302
		c0.086-0.171-0.351-0.865-0.971-1.551c-0.392-0.428-0.824-0.909-1.343-1.48c-0.624-0.686-0.412-1.016,0.474-0.738
		c2.701,0.849,4.929,1.55,7.258,2.284c0.886,0.277,1.24-0.154,0.8-0.971c-0.624-1.146-1.207-2.22-1.909-3.509
		c-0.44-0.812-0.062-1.334,0.849-1.167c2.905,0.542,5.373,1.004,8.119,1.514c0.91,0.171,1.15-0.257,0.538-0.951
		c-0.873-0.987-1.607-1.82-2.288-2.591c-0.612-0.693-0.992-1.457-0.841-1.701s1.016-0.372,1.938-0.277
		c1.962,0.2,3.953,0.404,6.079,0.616c0.922,0.094,1.216-0.428,0.656-1.171c-0.298-0.396-0.579-0.767-0.864-1.146
		c-0.56-0.738-0.27-1.465,0.645-1.62c0.085-0.016,0.167-0.029,0.249-0.041c0.913-0.155,1.183-0.869,0.607-1.591
		c-0.106-0.131-0.208-0.257-0.306-0.384c-0.58-0.722-0.396-1.689,0.399-2.162c2.815-1.673,5.32-3.207,7.903-4.594
		c7.233-3.88,14.521-7.658,21.783-11.485c0.338-0.18,0.934-0.477,0.909-0.657c-0.469-3.672,2.098-2.232,3.782-2.297
		c1.232-0.044,2.461-0.114,3.733-0.184c0.926-0.049,1.399-0.792,1.064-1.652c-0.089-0.232-0.184-0.469-0.281-0.718
		c-0.339-0.861,0.118-1.383,1.021-1.163c2.803,0.689,5.32,1.31,7.821,1.926c0.897,0.221,1.583-0.249,1.525-1.048
		c-0.057-0.8,0.633-1.306,1.526-1.057c2.338,0.648,4.831,1.566,5.618,0.779c2.362-2.367,3.61-0.278,5.206,0.232
		c1.313,0.42,2.566,1.016,3.868,1.628c0.84,0.392,1.391-0.033,1.228-0.935c-0.163-0.901,0.408-1.375,1.277-1.057
		c2.407,0.885,4.639,1.706,7.034,2.587c0.868,0.318,1.31-0.126,0.982-0.992c-0.244-0.648-0.477-1.273-0.742-1.979
		c-0.326-0.869,0.127-1.347,1.012-1.069c2.497,0.783,4.676,1.469,6.965,2.183c0.885,0.277,1.31-0.192,0.95-1.044
		c-0.114-0.27-0.229-0.547-0.358-0.849c-0.359-0.853,0.065-1.322,0.95-1.044c5.32,1.668,10.163,3.182,14.921,4.676
		c0.885,0.277,1.224-0.151,0.763-0.951c-0.208-0.363-0.449-0.779-0.73-1.273c-0.461-0.804-0.159-1.126,0.674-0.727
		c1.934,0.93,3.521,1.689,5.038,2.419c0.837,0.4,1.562-0.024,1.624-0.946c0.069-1.049,0.837-1.579,1.722-1.31
		c1.963,0.596,3.807,1.159,5.806,1.771c0.886,0.27,1.143-0.106,0.58-0.836c-0.959-1.24-1.828-2.362-2.722-3.517
		c-0.567-0.734-0.298-1.505,0.6-1.73c1.502-0.371,2.881-0.714,4.361-1.081c0.897-0.224,1.062-0.897,0.363-1.505
		c-0.734-0.641-1.416-1.232-2.228-1.938c-0.697-0.608-0.624-1.489,0.167-1.971c1.339-0.812,2.604-1.579,3.848-2.338
		c0.792-0.481,1.163-1.159,0.832-1.51c-0.33-0.355-1.231-0.64-2.011-0.64s-1.412-0.751-1.388-1.677
		c0.041-1.726,0.106-3.337-0.057-4.924c-0.702-6.957-0.163-13.852-3.729-20.698c-1.979-3.799-3.305-9.935,0.236-14.802
		c0.033-0.045-0.057-0.184-0.171-0.343c-0.127-0.176-0.942-0.106-1.828,0.163c-3.093,0.934-6.197,1.869-9.302,2.807
		c-0.886,0.269-1.759,0.171-1.95-0.212c-0.192-0.383,0.216-1.195,0.909-1.807c3.187-2.819,6.414-5.675,9.979-8.829
		c0.694-0.612,0.506-1.11-0.42-1.11h-9.657c-0.926,0-1.114-0.498-0.384-1.069c7.328-5.782,15.582-7.581,24.337-9.454
		c0.906-0.196,1.082-0.853,0.376-1.453c-6.512-5.544-13.256-9.449-21.012-11.514c-0.894-0.236-0.882-0.498,0.04-0.563
		c15.256-1.102,25.187,8.841,36.129,17.291c0.734,0.567,1.146,0.29,0.918-0.608c-1.122-4.386-2.244-8.772-3.366-13.158
		c-0.229-0.898-0.122-1.734,0.245-1.873c0.363-0.135,1.257,0.208,1.938,0.836c4.517,4.162,6.757,9.972,9.327,15.345
		c2.668,5.573,6.679,6.014,6.81,5.667c0.082-0.216,0.18-0.416,0.306-0.592c0.788-1.11,3.636-1.632,5.17-1.142
		c2.529,0.804,5.353,2.129,6.969,4.117c7.291,8.976,12.439,19.049,14.423,30.62c0.367,2.134,1.424,4.415,2.831,6.055
		c2.982,3.48,4.811,7.353,4.198,11.812c-0.371,2.697-1.489,5.288-2.452,7.903c-0.322,0.869-0.877,1.485-1.269,1.367
		s-0.71-0.963-0.71-1.889v-0.987c0-0.926-0.669-1.338-1.502-0.934c-5.145,2.509-5.553,2.044-10.122-3.162
		c-1.244-1.42-2.55-3.084-4.19-3.811c-7.825-3.468-15.712-6.834-23.717-9.857c-3.357-1.269-5.908,0.824-6.173,4.406
		c-0.151,2.081-0.18,4.19-0.045,6.275c0.575,8.846,1.191,17.687,1.868,26.524c0.682,8.874-2.546,15.834-10.771,19.413
		c-6.182,2.685-8.878,7.503-10.481,12.015c-0.311,0.873-0.074,2.191,0.514,2.905c1.493,1.819,2.844,3.269,3.64,4.97
		c2.333,5.006,6.283,6.12,11.244,5.528c0.959-0.114,2.028-0.188,2.917,0.102c9.078,2.971,17.879,0.596,26.74-1.171
		c3.346-0.665,4.835-2.88,5.749-5.769c1.579-5.003,2.975-10.069,4.684-15.031c2.604-7.54,9.344-10.604,16.899-7.846
		c0.869,0.318,0.845,0.906-0.028,1.208c-2.358,0.808-4.668,1.489-6.671,2.689c-1.913,1.146-4.908,4.219-4.582,4.778
		c1.963,3.358,0.743,6.181-0.583,9.07c-0.388,0.84-0.028,1.171,0.775,0.714c2.456-1.399,4.688-2.812,7.115-3.685
		c3.113-1.122,6.467-1.632,9.747-2.215c6.671-1.188,14.256,1.179,16.973,8.792c0.221,0.616,0.515,1.212,0.824,1.795
		c0.433,0.82,0.779,2.049,0.779,2.742s-0.522,0.718-1.175,0.062c-1.049-1.045-2.105-2.077-2.999-3.24
		c-4.146-5.373-13.562-5.777-18.69-1.154c-0.689,0.62-0.404,1.154,0.522,1.114c13.872-0.612,21.832,5.075,20.094,14.937
		c-0.159,0.914-0.689,0.959-1.073,0.114c-0.963-2.146-1.75-4.072-2.904-5.745c-0.779-1.126-2.444-2.142-3.803-2.28
		c-5.884-0.6-11.836-0.832-16.455,3.88c-1.212,1.24-2.166,2.733-3.509,4.639c-0.534,0.76-0.24,1.489,0.669,1.665
		c2.326,0.44,4.415,0.877,6.524,1.105c5.112,0.555,9.307,2.31,11.942,7.145c2.113,3.88,4.03,7.731,4.186,12.162
		c0.033,0.927-0.452,1.061-0.971,0.294c-1.824-2.697-3.509-5.353-5.487-7.769c-2.396-2.925-5.574-3.529-7.862-1.946
		c-0.764,0.526-1.89,0.829-2.722,0.433c-0.494-0.236-0.987-0.469-1.481-0.705c-0.836-0.4-1.713-0.552-1.962-0.339
		c-0.249,0.212-0.033,1.008,0.481,1.778c7.327,11.028,14.427,22.13,11.559,36.264c-0.184,0.905-0.461,0.889-0.608-0.024
		c-1.95-12.098-8.837-21.118-18.27-28.761c-0.719-0.583-0.837-0.461-0.282,0.278c6.573,8.768,8.405,18.213,4.672,28.939
		c-0.306,0.873-0.751,1.248-0.979,0.864c-0.212-0.347-0.343-0.559-0.31-0.734c1.763-8.939-4.158-14.811-8.675-21.081
		c-3.464-4.811-7.658-9.086-11.444-13.672c-1.452-1.755-2.574-1.33-4.182-0.139c-3.297,2.432-6.728,4.684-10.555,6.507
		c-0.837,0.4-1.11,0.07-0.6-0.701c0.109-0.167,0.224-0.339,0.347-0.522c0.514-0.771,0.229-1.122-0.633-0.783
		c-4.026,1.587-7.719,3.044-11.362,4.479c-0.861,0.339-1.718,0.298-1.914-0.094c-0.195-0.392,0.27-1.126,1.041-1.64
		c0.979-0.657,1.958-1.314,2.941-1.975c0.767-0.519,1.317-1.09,1.228-1.286c-0.09-0.191-0.873-0.105-1.75,0.196
		c-4.814,1.652-9.625,3.309-14.439,4.961c-0.853,0.294-1.982,0.71-2.546,0.71c-0.448,0-0.791-0.126-0.897-0.367
		c-0.171-0.403,0.273-1.203,0.996-1.782c1.379-1.106,2.762-2.216,4.141-3.321c0.723-0.579,1.204-1.232,1.077-1.457
		c-0.126-0.225-0.954-0.208-1.848,0.037c-3.726,1.024-7.455,2.048-11.18,3.072c-0.894,0.245-1.693,0.229-1.787-0.041
		s0.526-0.767,1.383-1.118c2.032-0.832,4.068-1.66,6.1-2.492c0.421-0.172,0.629-0.372,0.62-0.543
		c-0.024-0.481-1.432-0.522-2.325-0.616c-6.463-0.678-13.183,0.42-20.073-3.007c-0.828-0.412-0.727-0.882,0.195-0.979
		c3.398-0.358,6.275-0.665,9.07-0.963c0.922-0.098,1.681-0.379,1.701-0.628c0.012-0.155-0.257-0.388-0.682-0.616
		c-0.461-0.249-1.566-0.608-2.419-0.897c-4.631-1.575-9.278-3.15-13.999-4.753c-0.877-0.298-1.986,0.098-2.477,0.881
		c-3.696,5.903-7.674,12.252-11.542,18.421c-0.245,0.392-0.388,0.918-0.416,1.448c-0.049,0.841,0.566,2.143,0.954,2.958
		c3.419,7.132,6.753,14.089,9.915,20.69c0.399,0.836,1.469,1.42,2.387,1.301c5.386-0.677,10.624-1.338,16.275-2.048
		c0.918-0.114,1.9-0.922,2.276-1.771c0.277-0.628,0.652-1.236,1.183-1.437c5.925-2.228,12.008-4.047,18.034-5.997
		c2.052-0.665,4.251-1.036,6.132-2.028c4.019-2.121,9.515-1.354,12.893,2.416c1.444,1.611,2.624,3.455,3.656,5.45
		c0.424,0.824,0.102,1.106-0.678,0.604c-1.559-1.004-3.112-2.016-4.736-2.905c-0.804-0.437-1.926-0.657-2.812-0.485
		c-0.592,0.114-1.158,0.371-1.718,0.661c-0.824,0.424-1.191,1.465-0.845,2.325c0.277,0.686,0.588,1.33,1.09,1.738
		c2.248,1.812,3.582,3.917,3.859,6.94c0.086,0.922-0.51,1.175-1.199,0.559c-0.792-0.71-1.518-1.358-2.22-1.983
		c-0.24-0.216-0.481-0.407-0.697-0.559c-0.404-0.285-0.841,0.049-0.702,0.539c0.073,0.261,0.176,0.559,0.302,0.864
		c0.335,0.828,0.706,1.746,1.171,2.897c0.347,0.856-0.049,1.231-0.885,0.832c-1.191-0.567-2.179-1.04-3.15-1.502
		c-0.836-0.399-1.971-0.118-2.672,0.486c-3.428,2.941-8.119,2.134-12.306,2.117c-9.363-0.037-17.099,4.374-25.63,7.683
		c-0.865,0.335-1.232,1.261-0.809,2.085c0.327,0.632,0.604,1.183,0.849,1.75c3.02,6.989,5.97,14.015,9.074,20.968
		c0.637,1.428,1.555,2.99,2.791,3.855c11.289,7.923,22.562,15.883,34.108,23.419c3.468,2.265,7.671,4.137,11.722,4.61
		c8.56,1,17.141,1.481,25.146,5.112c0.596,0.27,1.371,0.24,2.052,0.212c6.377-0.289,9.16,1.069,10.535,5.859
		c0.249,0.864,0.473,1.971,0.477,2.452c0.009,0.473-0.081,0.787-0.232,0.787c-0.232,0-0.922-0.559-1.542-1.244
		c-0.849-0.938-1.714-1.897-2.636-2.918c-0.62-0.689-1.534-0.615-2.036,0.164c-0.632,0.979-1.175,1.812-1.681,2.595
		c-0.502,0.779-1.289,1.407-1.75,1.407s-1.583-0.102-2.501-0.232c-5.668-0.796-11.33-1.652-17.014-2.317
		c-10.221-1.195-20.462-2.224-30.69-3.354c-2.651-0.294-5.132-1.645-4.157-4.451c1.102-3.183-0.686-4.293-2.473-5.749
		c-2.056-1.673-4.165-3.276-6.267-4.9c-7.617-5.879-15.234-11.754-22.199-17.128c-0.734-0.566-2.003-0.697-2.836-0.289
		c-3.333,1.628-6.145,2.998-9.245,4.512c-0.832,0.408-1.044,0.144-0.461-0.575c1.244-1.529,2.285-2.754,3.104-4.108
		c0.616-1.016,0.723-2.362,0.968-3.578c1.158-5.789-3.048-9.388-5.933-13.235c-7.642-10.2-16.688-18.042-30.73-17.707
		c-10.494,0.253-11.665,1.648-12.139-7.87c-0.045-0.902-0.061-2.285-0.579-2.759c-0.302-0.277-0.718-0.424-1.167-0.375
		c-0.89,0.098-1.199-0.449-0.673-1.212c0.955-1.387,1.746-2.493,2.387-3.68c1.697-3.146,2.036-5.651-1.134-8.78
		c-3.559-3.513-5.814-8.331-8.752-12.506c-0.832-1.179-2.126-2.02-3.093-3.116c-2.305-2.62-5.092-0.294-7.401-0.796
		c-6.454-1.408-12.717-3.668-19.078-5.513c-1.986-0.575-4.035-1.199-6.079-1.289c-7.507-0.334-15.03-0.326-22.533-0.689
		c-9.735-0.473-19.621-0.281-29.16-1.979c-18.898-3.366-37.826-7.442-54.329-17.952c-18.805-11.975-37.059-24.811-55.843-36.814
		c-10.51-6.715-21.122-13.66-32.546-18.466c-21.616-9.094-44.615-12.726-68.067-12.685c-17.026,0.029-33.893,1.526-49.935,6.916
		c-0.877,0.293-2.199,0.106-3.031-0.306c-0.963-0.481-1.946-0.763-2.828-0.571c-4.741,1.028-9.523,2.097-14.06,3.762
		c-7.034,2.583-13.807,5.879-20.841,8.466c-5.21,1.917-10.82,2.815-14.823,7.217c-0.229,0.249-0.64,0.331-1.093,0.375
		C0.522,256.938,0,256.619,0,256.154c0-0.465,0.416-1.212,0.93-1.673c0.31-0.282,0.612-0.567,0.89-0.877
		c8.743-9.877,18.817-17.642,31.632-21.803C40.89,229.348,48.018,225.929,55.26,222.861z"/>
</g>
<g>
</g>
<g>
</g>
<g>
</g>
<g>
</g>
<g>
</g>
<g>
</g>
<g>
</g>
<g>
</g>
<g>
</g>
<g>
</g>
<g>
</g>
<g>
</g>
<g>
</g>
<g>
</g>
<g>
</g>
</svg>
