<?xml version="1.0" encoding="iso-8859-1"?>
<!-- Generator: Adobe Illustrator 16.0.0, SVG Export Plug-In . SVG Version: 6.00 Build 0)  -->
<!DOCTYPE svg PUBLIC "-//W3C//DTD SVG 1.1//EN" "http://www.w3.org/Graphics/SVG/1.1/DTD/svg11.dtd">
<svg version="1.1" id="Capa_1" xmlns="http://www.w3.org/2000/svg" xmlns:xlink="http://www.w3.org/1999/xlink" x="0px" y="0px"
	 width="586.49px" height="586.49px" viewBox="0 0 586.49 586.49" style="enable-background:new 0 0 586.49 586.49;"
	 xml:space="preserve">
<g>
	<path d="M522.942,269.397c-8.694-1.301-17.732-0.506-26.61-0.306c-10.587,0.237-21.179,0.641-31.742,1.367
		c-12.179,0.836-24.325,2.146-36.495,3.154c-2.575,0.212-5.19,0.008-7.785-0.033c-10.918-0.167-21.853-0.004-32.746-0.616
		c-11.216-0.628-22.473-1.477-33.546-3.252c-7.503-1.199-14.888-3.786-20.918-8.98c-0.567-0.489-1.244-1.032-1.938-1.154
		c-0.05-0.008-0.099-0.021-0.147-0.033c-0.081-0.021-0.146-0.245-0.159-0.506c-0.008-0.159-0.024-0.314-0.045-0.474
		c-0.143-1.085-0.926-1.795-2.056-1.566c-0.82,0.163-1.645,0.33-2.465,0.494c-0.073,0.016-0.146,0.037-0.212,0.057
		c-0.114,0.041-0.522-0.098-0.906-0.335c-3.937-2.436-7.07-6.079-10.881-8.686c-0.371-0.253-0.718-0.816-0.787-1.261
		c-0.649-4.198-2.693-7.324-6.859-9.257c-1.432-0.665-2.231-2.672-3.35-4.035c-1.321-1.612-2.705-3.17-4.011-4.798
		c-0.95-1.187-2.337-2.342-2.61-3.701c-0.588-2.9-1.926-4.549-4.807-5.418c-1.391-0.42-3.101-1.673-3.562-2.946
		c-1.469-4.072-4.521-6.03-8.323-6.973c-2.905-0.722-4.847-2.17-5.773-5.006c-1.004-3.068-3.292-4.676-6.283-5.512
		c-4.223-1.184-7.65-3.346-9.857-7.356c-1.497-2.717-4.3-2.942-6.887-2.179c-4.113,1.212-7.683,0.73-11.379-1.546
		c-3.003-1.848-6.365-1.709-9.539,0.331c-1.02,0.653-2.599,1.293-3.603,0.967c-4.337-1.416-7.401,0.763-10.106,3.431
		c-2.44,2.407-5.141,2.954-8.303,2.546c-3.529-0.457-6.556,0.261-9.11,3.084c-0.792,0.874-2.713,1.122-4.068,1.012
		c-4.598-0.375-8.401,0.465-11.493,4.422c-1.212,1.555-3.921,1.934-5.941,2.864c-2.595,1.196-5.292,2.228-7.76,3.647
		c-4.684,2.693-9.621,4.745-14.921,2.921c-6.63-2.276-13.305-4.733-19.413-8.107c-4.329-2.391-7.907-6.259-11.53-9.771
		c-5.496-5.337-10.363-11.383-16.202-16.295c-5.166-4.345-12.048-5.284-18.638-5.892c-8.192-0.755-16.071,0.788-23.884,3.545
		c-4.574,1.612-9.771,2.86-14.451,2.297c-3.529-0.42-8.609,0.135-10.718-4.72c-0.22-0.506-0.808-0.853-1.383-1.208
		c-0.383-0.236-0.82-0.326-0.991-0.171c-0.171,0.155-0.114,0.588,0.13,0.967c0.257,0.4,0.522,0.816,0.812,1.269
		c0.245,0.379,0.143,0.902-0.204,1.188c-1.95,1.587-3.284,3.533-2.901,6.512c0.143,1.122-0.963,2.432-1.587,3.606
		c-0.294,0.555-0.992,0.943-1.163,1.51c-2.301,7.679-9.38,8.327-15.41,10.396c-2.122,0.726-4.467,0.783-6.703,1.187
		c-4.582,0.833-7.373,4.341-10.355,7.369c-0.669,0.677-0.355,3.19,0.392,4.207c1.175,1.591,2.901,2.778,4.68,4.251
		c0.347,0.285,0.567,0.167,0.498-0.282c-0.11-0.71-0.216-1.399-0.363-2.362c-0.069-0.445,0.143-0.555,0.473-0.249
		c1.999,1.869,3.619,3.391,5.671,5.312c0.331,0.306,0.437,0.228,0.241-0.176c-1.191-2.444-2.134-4.377-3.047-6.254
		c-0.188-0.392-0.118-0.861,0.163-1.044c0.282-0.184,0.73-0.041,1.004,0.318c1.016,1.334,2.036,2.677,3.101,4.08
		c0.273,0.359,0.453,0.286,0.4-0.163c-0.163-1.444-0.322-2.835-0.481-4.219c-0.053-0.449,0.065-0.861,0.257-0.914
		c0.192-0.053,0.551,0.204,0.796,0.583c0.453,0.698,0.918,1.42,1.436,2.228c0.245,0.379,0.587,0.351,0.767-0.062
		c0.106-0.241,0.212-0.477,0.322-0.738c0.18-0.412,0.465-0.408,0.637,0.008c0.53,1.31,0.995,2.46,1.448,3.578
		c0.167,0.416,0.433,0.75,0.587,0.742c0.155-0.008,0.306-0.375,0.334-0.824c0.094-1.347,0.184-2.693,0.277-4.04
		c0.033-0.449,0.233-0.849,0.449-0.885c0.216-0.037,0.596,0.237,0.844,0.612c0.347,0.526,0.702,1.069,1.094,1.661
		c0.249,0.375,0.53,0.327,0.628-0.114c0.065-0.281,0.126-0.559,0.196-0.861c0.102-0.44,0.428-0.526,0.734-0.196
		c0.273,0.298,0.542,0.587,0.828,0.897c0.306,0.331,0.583,0.237,0.62-0.212c0.008-0.114,0.021-0.232,0.028-0.355
		c0.037-0.449,0.343-0.575,0.686-0.282c0.143,0.123,0.282,0.241,0.424,0.367c0.347,0.298,0.747,0.192,0.897-0.232
		c0.07-0.192,0.135-0.388,0.208-0.592c0.151-0.424,0.563-0.546,0.922-0.273c0.27,0.204,0.535,0.408,0.808,0.62
		c0.359,0.273,0.747,0.139,0.865-0.294c0.106-0.375,0.212-0.767,0.338-1.212c0.123-0.432,0.481-0.534,0.812-0.224
		c0.424,0.404,0.808,0.763,1.179,1.11c0.327,0.31,0.686,0.204,0.857-0.216c1.318-3.268,5.161-6.622,8.009-6.92
		c3.048-0.318,3.289,2.032,4.109,3.896c0.184,0.412,0.151,1.012-0.114,1.375c-1.677,2.285-3.158,4.835-5.296,6.589
		c-2.13,1.746-4.949,2.652-8.111,4.121c-0.408,0.192-0.379,0.416,0.065,0.502c2.423,0.461,4.508,0.861,6.691,1.277
		c0.44,0.086,0.6,0.453,0.347,0.829c-1.457,2.15-2.766,4.084-4.329,6.393c-0.253,0.372-0.828,0.649-1.277,0.608
		c-0.31-0.024-0.686-0.057-1.105-0.094c-0.449-0.037-0.58,0.212-0.29,0.559c1.089,1.301,2.069,2.599,0.474,4.06
		c-0.331,0.306-0.959,0.314-1.342,0.085c-0.857-0.514-1.771-1.057-2.881-1.722c-0.388-0.232-0.567-0.073-0.404,0.347
		c0.58,1.498,1.077,2.774,1.559,4.015c0.163,0.42,0.139,0.926-0.057,1.13s-0.665,0.184-1.053-0.049
		c-0.787-0.478-1.595-0.963-2.48-1.498c-0.388-0.232-0.653-0.061-0.592,0.388c0.123,0.926,0.241,1.812,0.355,2.685
		c0.057,0.449-0.028,0.869-0.196,0.947c-0.167,0.077-0.526-0.151-0.804-0.506c-1.081-1.403-2.167-2.807-3.248-4.21
		c-0.273-0.355-0.62-0.62-0.775-0.587c-0.155,0.033-0.22,0.416-0.143,0.861c0.155,0.922,0.318,1.91,0.534,3.19
		c0.074,0.445-0.085,0.51-0.355,0.147c-0.693-0.926-1.252-1.681-1.93-2.586c-0.269-0.363-0.485-0.29-0.453,0.159
		c0.355,5.031,3.084,7.956,6.234,10.429c0.898,0.706,3.187,0.649,4.194-0.021c1.746-1.163,3.256-2.909,4.398-4.708
		c5.863-9.25,13.599-15.969,23.982-19.956c3.966-1.522,7.222-4.92,10.763-7.507c5.63-4.112,11.645-6.059,18.523-3.476
		c6.353,2.387,11.611,6.292,15.61,11.742c4.406,6.01,8.89,11.91,15.479,16.234c0.375,0.249,0.461,0.722,0.2,1.089
		c-3.672,5.218-1.191,9.253,3.007,12.84c2.46,2.101,4.182,4.529,4.998,7.724c0.914,3.57,3.549,5.834,6.605,7.674
		c1.008,0.608,1.946,1.33,3.248,2.269c0.367,0.265,0.334,0.628-0.065,0.844c-5.761,3.113-7.564,8.662-10.498,13.509
		c-1.652,2.729-4.847,5.087-7.871,6.287c-4.806,1.91-10.057,2.382-15.316,1.318c-4.5-0.91-9.029-1.681-13.566-2.371
		c-0.983-0.151-2.077,0.261-3.097,0.514c-0.579,0.143-1.146,0.322-1.689,0.502c-0.428,0.143-1.098,0.094-1.477-0.155
		c-3.37-2.191-4.741-6.332-3.268-10.367c0.175-0.485-0.229-0.8-0.632-0.788c-0.449,0.012-0.665,0.367-0.677,0.253
		s-0.265,0.057-0.559,0.396c-0.453,0.526-0.857,1.053-1.208,1.587c-0.249,0.375-0.816,0.8-1.081,1.163
		c-0.18,0.249-0.273,0.579-0.229,0.991c0.004,0.057,0.016,0.114,0.024,0.171c0.016,0.094-0.102,0.518-0.216,0.955
		c-0.555,2.089-0.388,4.276,0.514,6.663c1.195,4.133,4.341,7.376,8.462,8.706c0.428,0.14,0.799,0.604,0.967,1.021
		c0.461,1.13,1.661,1.493,3.354,1.313c3.431-0.367,6.809-1.248,10.241-1.604c2.317-0.24,4.675-0.094,7.021-0.057
		c0.449,0.008,0.869,0.195,0.938,0.433c0.069,0.236-0.159,0.656-0.485,0.967c-0.649,0.616-1.285,1.293-2.028,1.44
		c-3.289,0.652-6.234,2.893-9.984,1.771c-1.273-0.38-3.207,0.526-4.459,1.396c-0.123,0.085-0.225,0.216-0.31,0.375
		c-0.126,0.241-0.539,0.485-0.987,0.506c-1.314,0.065-2.607,0.037-3.896-0.077c-0.449-0.041-0.906-0.131-1.02-0.188
		c-0.069-0.033-0.139-0.069-0.204-0.103c-0.229-0.114-0.473-0.18-0.718-0.195c-0.412-0.024-1.089,0.045-1.53-0.05
		c-0.318-0.069-0.632-0.143-0.951-0.224c-0.575-0.147-0.987,0.452-0.734,0.954c0.89,1.771,2.407,3.868,4.251,5.533
		c0.334,0.302,0.767,0.714,1.008,0.881c0.139,0.094,0.294,0.191,0.453,0.286c1.269,0.885,2.64,1.514,4.035,1.681
		c0.449,0.053,1.171,0.102,1.62,0.135c2.603,0.204,5.173-0.421,7.303-1.86c1.701-1.151,3.407-2.317,5.218-3.28
		c2.521-1.339,5.116-2.534,7.695-3.771c0.408-0.195,0.889-0.212,1.085-0.037c0.196,0.176,0.119,0.601-0.146,0.968
		c-0.461,0.648-0.91,1.321-1.534,1.677c-1.616,0.914-2.518,1.473-2.742,2.04c-0.167,0.42-0.196,1.016-0.559,1.285
		c-2.105,1.559-4.459,2.521-7.107,2.949c-0.502,0.082-0.596,0.768-0.286,1.086c0.71,0.73,1.481,1.346,2.297,1.848
		c0.383,0.237,1.007,0.62,1.399,0.837c1.391,0.775,2.938,1.081,4.435,0.946c0.449-0.041,1.171-0.143,1.62-0.208
		c1.665-0.249,3.309-0.886,4.831-1.922c0.118-0.081,0.196-0.18,0.241-0.289c0.082-0.196,0.326-0.608,0.661-0.906
		c1.668-1.48,2.954-3.28,3.301-4.9c1.322-6.152,4.818-10.66,10.51-13.431c5.186-2.525,10.367-5.06,15.655-7.642
		c0.404-0.196,0.983-0.094,1.273,0.253c5.075,6.091,3.011,16.209-4.729,20.669c-1.216,0.701-2.468,1.371-3.582,2.215
		c-1.146,0.874-1.216,1.845-0.751,2.648c0.229,0.388,0.392,0.983,0.265,1.411c-0.987,3.346-0.958,6.79,0.086,10.155
		c0.188,0.608,1.073,0.633,1.252,0c0.914-3.219,2.742-5.928,5.365-7.939c0.359-0.273,1.044-0.514,1.42-0.759
		c0.84-0.547,1.179-1.754,1.575-2.934c0.2-0.596,0.571-1.139,0.938-1.681c0.253-0.371,0.718-0.555,1.053-0.392
		s0.494,0.641,0.355,1.068c-0.53,1.637-1.041,3.276-1.62,4.896c-0.412,1.163-0.506,2.056-0.013,2.554
		c0.318,0.318,0.759,0.727,0.865,1.167c0.669,2.868,2.929,5.178,5.904,5.777c0.408,0.082,0.828-0.18,0.824-0.628
		c-0.021-2.032-0.045-4.068-0.065-6.1c-0.004-0.449,0.229-1.102,0.388-1.526c0.265-0.718,0.273-1.62-0.004-2.692
		c-0.179-0.689-0.412-1.363-0.383-2.212c0.016-0.448,0.371-0.562,0.702-0.261c0.604,0.547,1.188,1.073,1.673,1.514
		c0.334,0.302,0.686,0.51,0.792,0.473c0.106-0.036,0.237-0.02,0.31,0.021c0.041,0.024,0.086,0.045,0.135,0.058
		c0.18,0.057,0.347,0.126,0.51,0.204c0.273,0.13,0.514,0.302,0.551,0.347c0.025,0.024,0.045,0.049,0.074,0.073
		c0.139,0.118,0.277,0.232,0.42,0.351c0.232,0.192,0.665,0.633,0.873,1.032c0.334,0.645,0.494,1.392,0.408,2.195
		c-0.065,0.628-0.049,1.122,0.417,1.587c0.885,0.886,2.06-0.444,2.415-1.167c0.041-0.085,0.082-0.171,0.119-0.257
		c0.061-0.143,0.196-0.363,0.273-0.51c0.045-0.086,0.086-0.18,0.119-0.281c0.22-0.71,0.351-1.424,0.408-2.139
		c0.164-1.603-0.106-3.215-0.795-4.675c-0.078-0.184-0.151-0.367-0.241-0.552c-0.041-0.081-0.086-0.154-0.13-0.22
		c-0.082-0.114-0.351-0.502-0.625-0.861c-0.2-0.261-0.416-0.518-0.649-0.763c-0.028-0.028-0.057-0.049-0.085-0.069
		c-0.049-0.032-0.114-0.135-0.151-0.236c-0.024-0.062-0.053-0.123-0.086-0.18c-4.594-7.789-2.778-15.978-2.346-24.668
		c0.024-0.449,0.347-0.624,0.73-0.387c12.706,7.895,24.317,16.932,39.841,18.625c0.449,0.049,0.649,0.403,0.437,0.804
		c-1.762,3.345-3.476,6.267-4.745,9.367c-0.669,1.641-0.991,3.864-0.449,5.483c3.705,11.069,7.866,21.987,11.473,33.085
		c1.379,4.235,2.297,8.633,0.983,13.37c-0.865,3.125-0.412,6.679-0.237,10.024c0.273,5.189-6.451,14.243-11.224,14.9
		c-4.986,0.689-9.992,2.216-15.247,0.632c-4.353-1.313-11.905,2.958-14.312,7.227c-0.22,0.392,0.004,0.697,0.453,0.656
		c2.093-0.191,4.251-0.392,6.417-0.587c0.449-0.041,0.881,0.163,0.963,0.457c0.082,0.293-0.216,0.566-0.657,0.652
		c-3.905,0.727-5.912,3.513-7.629,6.761c-0.212,0.399-0.078,0.506,0.31,0.277c3.623-2.134,6.561-0.547,9.996,1.338
		c2.126,1.167,5.553,0.481,8.246-0.081c2.089-0.437,3.909-1.073,5.81,0.289c0.241,0.172,0.727,0.314,0.926,0.192
		c3.211-1.971,6.94,0.229,9.849-0.816c2.689-0.967,5.288-2.358,7.744-3.962c0.38-0.244,0.735-0.473,0.796-0.514
		c0.037-0.028,0.078-0.057,0.106-0.082c1.208-0.823,2.391-1.681,3.509-2.586c2.473-1.738,5.655-3.599,9.237-4.672
		c4.378-1.313,2.256-2.758-3.427-2.448c-0.449,0.024-0.706-0.13-0.571-0.358c0.082-0.139,0.163-0.273,0.249-0.408
		c0.457-0.71,0.914-1.587,0.93-2.396c0.126-7.527,3.423-14.206,5.361-21.257c1.077-3.916,0.245-8.314,0.767-12.432
		c0.727-5.732,1.738-11.444,2.983-17.087c0.62-2.819,2.023-5.467,3.084-8.185c1.689-4.333,3.459-8.649,1.607-13.676
		c-0.155-0.425,0.065-0.759,0.514-0.763c7.931-0.045,15.222,0.844,22.489,2.513c6.181,1.416,12.48,2.31,18.711,3.518
		c1.003,0.195,2.118,0.587,2.864,1.244c7.05,6.234,14.084,12.488,21.013,18.857c5.813,5.341,6.233,14.007,0.836,19.76
		c-3.153,3.366-7.761,3.37-11.963,4.146c-2.542,0.469-5.137,0.746-7.617,1.436c-0.763,0.213-1.082,1.71-1.865,2.232
		c-1.424,0.95-3.072,1.559-4.565,2.415c-0.665,0.384-1.265,0.881-1.771,1.489c-0.29,0.347-0.118,0.6,0.327,0.53
		c6.259-0.942,6.956-0.82,7.768,2.346c0.114,0.437-0.155,0.897-0.587,1.028c-2.158,0.641-4.316,1.277-6.349,1.881
		c-0.432,0.127-0.444,0.375-0.032,0.559c2.04,0.89,3.953,1.727,5.834,2.538c0.412,0.18,0.543,0.624,0.31,1.008
		c-1.007,1.645-1.889,3.647-1.652,5.406c0.359,2.644,2.179-1.84,7.887-4.762c0.4-0.204,1.098-0.371,1.546-0.388
		c4.965-0.188,9.931-0.379,14.897-0.579c0.538-0.021,1.179,0.045,1.595-0.212c4.578-2.799,9.939-4.451,11.881-10.571
		c1.229-3.872,3.138-7.561,5.137-11.155c1.131-1.746,3.007-3.99,5.847-5.316c2.33-1.089-0.105-1.958-3.884-2.231
		c-0.449-0.032-1.016-0.354-1.306-0.697c-0.163-0.196-0.347-0.392-0.559-0.588c-0.241-0.22-0.462-0.461-0.723-0.657
		c-7.78-5.846-10.461-13.766-10.208-23.28c0.163-6.03-0.588-12.085-0.996-18.303c-0.028-0.448,0.311-0.771,0.759-0.722
		c2.184,0.253,4.896,0.575,7.609,0.877c13.134,1.456,26.309,3.007,39.511,1.689c8.919-0.89,17.847-2.285,26.581-4.284
		c14.966-3.424,29.825-7.345,44.652-11.347c12.317-3.325,24.378-7.707,36.806-10.474c21.334-4.745,42.799-9.172,64.872-8.45
		c12.484,0.408,24.766,2.224,36.679,6.1c4.822,1.571,9.543,3.452,14.346,5.087c1.836,0.625,3.708,1.972,5.65,0.739
		c0.38-0.241,0.384-0.764,0.073-1.094c-1.126-1.211-2.187-2.513-3.505-3.464C564.934,277.125,544.072,272.563,522.942,269.397z
		 M313.523,248.23c0.05-0.053,0.29,0.2,0.539,0.563s0.208,0.412-0.09,0.098C313.675,248.577,313.475,248.283,313.523,248.23z"/>
</g>
<g>
</g>
<g>
</g>
<g>
</g>
<g>
</g>
<g>
</g>
<g>
</g>
<g>
</g>
<g>
</g>
<g>
</g>
<g>
</g>
<g>
</g>
<g>
</g>
<g>
</g>
<g>
</g>
<g>
</g>
</svg>
