<?xml version="1.0" encoding="iso-8859-1"?>
<!-- Generator: Adobe Illustrator 16.0.0, SVG Export Plug-In . SVG Version: 6.00 Build 0)  -->
<!DOCTYPE svg PUBLIC "-//W3C//DTD SVG 1.1//EN" "http://www.w3.org/Graphics/SVG/1.1/DTD/svg11.dtd">
<svg version="1.1" id="Capa_1" xmlns="http://www.w3.org/2000/svg" xmlns:xlink="http://www.w3.org/1999/xlink" x="0px" y="0px"
	 width="558.314px" height="558.314px" viewBox="0 0 558.314 558.314" style="enable-background:new 0 0 558.314 558.314;"
	 xml:space="preserve">
<g>
	<path d="M558.014,250.866c-1.75-5.194-4.602-9.759-8.131-13.925c-1.845-2.174-3.509-4.524-5.492-6.561
		c-2.272-2.338-4.736-4.504-7.254-6.581c-2.574-2.122-5.292-4.068-7.988-6.03c-0.857-0.624-1.828-1.11-2.783-1.587
		c-5.618-2.807-11.171-5.773-16.903-8.328c-4.26-1.897-8.756-3.268-13.158-4.851c-2.134-0.767-4.275-1.505-6.434-2.199
		c-2.032-0.653-4.072-1.277-6.129-1.84c-3.676-1-7.352-2.011-11.061-2.88c-2.533-0.592-5.12-0.947-7.683-1.408
		c-2.958-0.53-5.899-1.208-8.878-1.559c-3.636-0.428-7.304-0.632-10.963-0.853c-2.122-0.126-4.252-0.155-6.377-0.123
		c-2.673,0.045-5.341,0.2-8.01,0.31c-0.134,0.004-0.269,0.037-0.399,0.021c-5.549-0.62-11.045,0.494-16.577,0.567
		c-4.888,0.065-9.771,0.91-14.635,1.604c-4.178,0.596-8.331,1.322-12.469,2.15c-6.295,1.256-12.656,2.064-19.024,2.803
		c-0.393,0.045-0.91,0.221-1.167,0.041c-1.371-0.951-2.481-0.204-3.632,0.424c-0.975,0.534-1.954,0.702-3.08,0.371
		c-0.579-0.167-1.343-0.057-1.918,0.18c-2.129,0.873-4.247,1.163-6.405,0.179c-1.624-0.742-3.011,0.241-4.402,0.714
		c-0.697,0.236-1.199,0.322-1.849,0.073c-0.624-0.237-1.265-0.424-1.917-0.559c-1.18-0.241-2.334-0.481-3.334,0.612
		c-0.244,0.269-0.967,0.245-1.428,0.151c-1.297-0.261-2.509-0.71-3.855,0.09c-0.485,0.29-1.42-0.057-2.109-0.253
		c-0.975-0.278-1.856-0.498-2.889-0.021c-0.607,0.282-1.51,0.282-2.154,0.053c-0.909-0.323-1.566-0.074-2.207,0.432
		c-1.689,1.338-3.48,1.51-5.431,0.641c-0.742-0.331-1.493-0.416-2.301,0.033c-0.396,0.22-1.118,0.273-1.489,0.057
		c-1.689-0.987-3.117-0.257-4.472,0.604c-0.927,0.583-1.849,0.734-2.853,0.546c-0.64-0.118-1.276-0.322-1.876-0.575
		c-1.718-0.734-3.276-0.996-5.125,0.004c-1.729,0.934-3.758,1.203-5.753,0.293c-1.272-0.579-2.606-1.041-3.941-1.46
		c-0.457-0.143-1.048-0.119-1.497,0.053c-0.873,0.327-1.823,0.653-2.493,1.257c-1.162,1.044-2.623,0.792-3.925,1.167
		c-0.493,0.143-1.411-0.065-1.673-0.441c-0.738-1.048-1.946-1.069-2.864-1.656c-0.906-0.58-1.665-0.347-2.477,0.102
		c-0.164,0.09-0.417,0.265-0.563,0.375c-2.901,2.195-5.969,1.714-9.095,0.526c-1.244-0.473-2.505-0.897-3.741-1.338
		c-1.31,1.383-2.97,1.983-4.721,2.391c-0.306,0.073-0.661,0.114-0.958,0.033c-2.354-0.625-4.7-1.293-7.054-1.914
		c-0.355-0.094-0.82-0.123-1.126,0.033c-1.007,0.51-2.084,0.987-2.909,1.73c-1.069,0.963-2.293,1.081-3.321,0.518
		c-1.869-1.028-3.88-1.359-5.896-1.791c-0.392-0.082-0.91-0.102-1.126-0.359c-0.881-1.032-1.738-0.645-2.648-0.11
		c-0.632,0.371-1.322,0.665-1.906,1.098c-1.473,1.089-1.558,1.175-2.954,0.29c-1.093-0.694-2.17-1.216-3.509-1.204
		c-0.649,0.004-1.347-0.184-1.942-0.457c-2.513-1.163-4.643-0.22-6.911,1.24c-0.82-0.473-1.714-1.028-2.648-1.505
		c-0.441-0.225-1.106-0.555-1.42-0.384c-2.052,1.134-3.794,0.017-5.398-0.853c-1.11-0.6-1.954-0.612-2.979-0.163
		c-0.734,0.322-1.526,0.539-2.211,0.938c-1.02,0.591-1.951,0.783-2.97,0.008c-0.29-0.22-0.829-0.392-1.126-0.269
		c-1.383,0.563-2.285-0.253-3.251-0.971c-0.375-0.277-0.788-0.506-1.171-0.779c-1.261-0.894-2.485-1.354-4.06-0.522
		c-1.963,1.036-3.991,0.555-5.994-0.164c-3.032-1.085-6.21-1.436-9.376-1.958c-3.782-0.625-7.613-0.543-11.387-1.253
		c-1.926-0.363-3.999-0.13-5.985,0.057c-1.991,0.188-3.954,0.657-5.928,1c-0.261,0.044-0.575,0.191-0.779,0.102
		c-2.069-0.885-3.664,0.221-5.128,1.347c-3.648,2.803-3.644,1.983-6.646,0.698c-0.734-0.314-1.522-0.502-2.272-0.771
		c-2.734-0.983-4.782,0.216-6.541,2.134c-1.154,1.261-2.566,1.791-4.202,2.093c-1.485,0.273-2.787-0.024-4.035-0.734
		c-1.29-0.734-2.448-0.84-3.631,0.286c-0.714,0.681-1.693,1.085-2.423,1.758c-0.853,0.779-1.824,1.298-2.848,1.677
		c-0.979,0.22-1.954,0.444-2.925,0.677c-0.698-0.053-1.44-0.306-2.154-0.359c-1.656-0.118-3.317-0.245-4.973-0.208
		c-0.514,0.012-1.102,0.469-1.51,0.869c-0.759,0.743-1.436,1.579-2.105,2.407c-0.09,0.11-0.179,0.216-0.269,0.318
		c-1.816,0.583-3.619,1.22-5.402,1.909c-0.045-0.008-0.09-0.016-0.135-0.028c-1.901-0.441-3.333,0.016-4.508,1.652
		c-0.167,0.229-0.379,0.428-0.612,0.612c-1.705,0.8-3.39,1.677-5.03,2.636c-1.567,0.522-3.203,0.861-4.835,1.208
		c-0.547,0.114-1.281,0.388-1.501,0.812c-0.649,1.257-1.607,1.702-2.946,1.942c-2.211,0.396-3.725,1.954-5.137,3.598
		c-1.195,1.388-1.803,1.396-3.011-0.061c-0.799-0.967-1.436-2.068-2.174-3.092c-0.816-1.139-1.783-1.641-3.272-1.122
		c-1.726,0.596-3.57-0.408-4.365-2.138c-0.335-0.726-0.673-1.453-0.971-2.195c-0.571-1.428-1.669-1.987-3.146-2.036
		c-2.738-0.085-3.562-0.657-4.492-3.289c-0.494-1.399-1.224-2.313-2.823-2.387c-1.702-0.078-2.864-0.975-3.46-2.591
		c-0.547-1.489-1.069-2.991-1.677-4.455c-0.221-0.535-0.551-1.118-1.004-1.453c-2.199-1.62-3.443-3.937-4.443-6.332
		c-2.13-5.116-3.635-10.375-4.272-15.961c-0.51-4.476-0.759-8.915-0.592-13.383c0.282-7.646,2.791-14.517,7.809-20.326
		c0.739-0.857,1.53-1.628,2.371-2.313c0.4-0.216,0.808-0.424,1.216-0.624c0.453-0.221,0.91-0.437,1.371-0.641
		c0.11-0.045,0.216-0.09,0.326-0.131c2.081-0.804,4.219-1.452,6.41-1.885c0.592-0.118,1.184-0.229,1.779-0.318
		c0.021-0.004,0.037-0.004,0.053-0.008c0.135-0.016,0.27-0.033,0.404-0.049c1.077-0.11,2.163-0.192,3.244-0.216
		c1.085-0.021,2.171-0.016,3.252,0.053c0.6,0.037,1.199,0.078,1.799,0.143c0.184,0.021,0.367,0.041,0.551,0.062
		c2.117,0.331,4.194,0.82,6.23,1.481c2.057,0.665,4.28-0.318,5.467-2.016c0.253,0.049,0.514,0.082,0.779,0.094
		c3.366,0.167,6.736,0.229,10.106,0.192c-0.041,0.196,4.705-0.114,4.696-0.123c0.073-0.004,0.021,0.024,0.021,0.024
		c0.208,0.298,4.822-0.29,6.45-0.424c1.832-0.151,3.664-0.33,5.492-0.542c1.905-0.225,3.856-0.371,5.729-0.788
		c2.281-0.501,4.3-1.624,5.745-3.235c1.538-0.518,2.64-1.673,3.407-3.317c0.669-1.432,1.334-2.864,2.011-4.292
		c0.082-0.167,0.2-0.367,0.355-0.445c1.604-0.792,1.338-2.081,0.992-3.448c-0.229-0.901-0.481-1.844-0.437-2.754
		c0.2-4.158-3.545-8.181-7.548-9.523c-2.485-0.832-4.896-0.881-7.475-0.6c-2.362,0.257-4.794-0.208-7.181-0.118
		c-2.309,0.09-4.268-0.91-6.336-1.595c-0.188-0.062-0.347-0.29-0.522-0.29c-3.582,0.029-6.83-1.897-10.371-1.864
		c-2.016,0.021-4.113-0.163-6.075,0.677c-0.416,0.175-0.906,0.192-1.367,0.232c-1.853,0.163-3.709,0.314-5.565,0.453
		c-0.914,0.069-1.836,0.065-2.75,0.139c-3.129,0.249-6.112,1.048-9.098,2.023c-3.823,1.249-7.609,2.521-11.167,4.418
		c-4.537,2.42-9,4.921-13.154,8.018c-3.958,2.95-7.283,6.446-10.502,10.123c-2.693,3.072-4.749,6.475-6.61,10.11
		c-1.807,3.533-2.929,7.299-4.439,10.922c-0.75,1.799-0.792,3.888-1.191,5.838c-0.665,3.256-1.204,6.524-1.607,9.8
		c-6.446,18.148-2.611,39.474,4.749,56.834c7.536,17.776,20.237,33.337,36.083,44.366c0.098,0.625,0.008,1.318-0.359,2.122
		c-0.041,0.734-0.078,1.473-0.11,2.208c-0.134,0.449-0.208,0.93-0.208,1.448c0,0.343,0.041,0.686,0.119,1.028
		c-0.139,5.312,0.061,10.608,1.199,15.859c0.062,0.285,0.086,0.588,0.082,0.894c-0.061,0.412-0.122,0.824-0.175,1.236
		c-0.045,0.339-0.085,0.677-0.118,1.016c-0.571,3.423-1.159,6.842-1.771,10.257c-0.281,1.571-0.881,3.113-0.934,4.685
		c-0.135,3.871-1.379,7.475-2.419,11.122c-1.252,4.39-2,8.87-2.55,13.378c-0.432,3.513-0.596,7.059-0.901,10.592
		c-0.053,0.616-0.176,1.224-0.375,1.812c-0.632,1.856-1.473,3.66-1.91,5.557c-1.33,5.729-2.444,11.506-3.745,17.242
		c-2.016,8.862-4.084,17.712-6.21,26.545c-0.563,2.329-1.485,4.537-2.705,6.654c-1.542,2.677-2.125,5.72-2.701,8.743
		c-0.689,3.64-1.869,7.152-3.884,10.249c-1.089,1.673-2.313,3.239-3.072,5.104c-0.171,0.424-0.478,0.864-0.457,1.285
		c0.024,0.51,0.086,1.048,0.163,1.587c-0.596,1.681-1.31,4.354-0.347,5.643c0.632,0.845,1.685,0.453,2.815-0.257
		c0.591,0.566,1.297,1.036,2.158,1.351c0.73,0.265,1.33,0.86,2.044,1.195c0.078,0.036,0.159,0.061,0.237,0.098
		c0.253,1.184,0.677,2.391,1.416,3.076c1.224,1.135,2.265-0.53,3.333-1.864c0.587,0.024,1.183,0.004,1.791-0.073
		c0.571-0.069,1.179,0.195,1.771,0.195c0.428,0,0.856-0.036,1.285-0.057c0.648,1.391,1.799,3.41,3.219,4.026
		c1.885,0.82,2.102-2.28,2.962-3.896l0.29-0.379c0.551-0.008,1.077-0.11,1.571-0.494c0.84-0.652,1.754-1.122,2.693-1.514
		c1.232,1.294,3.187,3.016,4.716,2.767c1.93-0.318,0.824-3.831,0.628-6.051c2.024-2.256,1.893-4.794,1.11-7.462
		c-0.739-2.518-1.118-5.011-0.327-7.65c0.588-1.967,0.433-4.174,1.143-6.075c1.077-2.9,1.016-5.675,0.22-8.56
		c-0.13-0.478-0.037-1.045,0.062-1.547c0.53-2.676,0.987-5.377,1.677-8.013c0.706-2.705,1.514-5.402,2.525-8.005
		c2.366-6.096,4.982-12.093,7.283-18.213c0.881-2.342,1.318-4.884,1.714-7.373c0.465-2.904,1.62-5.386,3.354-7.756
		c1.967-2.681,3.586-5.614,5.406-8.404c2.746-4.219,4.949-8.72,7.038-13.285c0.514,0.168,1.032,0.322,1.554,0.47l2.46,2.023
		c1.681,1.387,3.876,1.877,5.749,0.971c0.135,0.277,0.261,0.58,0.388,0.894c2.941,7.295,6.051,14.525,9.103,21.779
		c0.824,1.958,1.55,3.966,3.129,5.504c0.204,0.2,0.269,0.612,0.286,0.926c0.082,1.991,0.245,3.99,0.163,5.981
		c-0.232,5.472,0.281,10.955-0.51,16.427c-0.428,2.962-0.334,5.997-0.567,8.996c-0.249,3.194-0.587,6.377-0.926,9.563
		c-0.053,0.493-0.2,1.024-0.461,1.437c-1.624,2.537-3.142,5.124-3.855,8.086c-0.857,3.57-1.53,7.185-2.518,10.719
		c-0.767,2.749-1.848,5.418-2.872,8.095c-0.763,1.995-1.914,3.871-2.424,5.92c-0.269,1.093-0.424,2.207-0.428,3.309
		c-0.445,1.032-2.101,5.186-0.828,6.883c0.836,1.118,2.411,0.094,3.929-1.016c1.228,0.628,2.032,1.705,2.934,2.685
		c0.082,0.09,0.204,0.143,0.294,0.229c0.236,1.326,0.673,2.782,1.514,3.565c1.154,1.069,2.146-0.354,3.15-1.64
		c0.901,0.057,1.787,0.004,2.566-0.302c0.894-0.352,1.587-0.237,2.432,0.073c0.645,1.391,1.804,3.468,3.252,4.096
		c1.885,0.82,2.101-2.28,2.962-3.896l0.196-0.258c0.592-0.302,1.167-0.677,1.722-1.171c0.318-0.285,0.787-0.453,1.216-0.559
		c0.494-0.118,0.996-0.217,1.493-0.322c1.236,1.285,3.146,2.934,4.639,2.685c1.828-0.302,0.922-3.484,0.652-5.708
		c0.698-0.657,1.399-1.313,2.102-1.971c1.044-0.976,1.146-2.244,1.016-3.525c-0.179-1.791-0.461-3.574-0.73-5.356
		c-0.519-3.452-0.698-6.863,0.359-10.29c0.971-3.149,1-6.422,0.661-9.69c-0.013-0.13-0.033-0.273-0.086-0.392
		c-1.844-3.949-0.571-7.809,0.351-11.669c0.771-3.235,1.501-6.486,2.387-9.693c1.081-3.913,2.354-7.772,3.439-11.682
		c0.355-1.272,0.392-2.64,0.539-3.966c0.171-1.591,0.286-3.19,0.461-4.781c0.049-0.453,0.135-0.946,0.359-1.33
		c1.392-2.42,1.506-5.112,1.551-7.769c0.037-2.117-0.094-4.28-1.012-6.275c-1.065-2.305-0.673-4.684-0.457-7.07
		c0.29-3.187,0.506-6.377,0.755-9.567c0.021-0.245,0.037-0.494,0.049-0.759c0.967,0.347,1.946,0.669,2.933,0.954
		c0.008,0.037,0.017,0.069,0.021,0.106c0.543,3.158,0.808,6.36,1.334,9.519c1.028,6.165,2.799,12.098,5.854,17.598
		c0.302,0.546,0.555,1.117,0.775,1.701c2.346,6.189,5.369,12.126,7.009,18.58c0.686,2.713,1.273,5.451,1.897,8.127
		c-1.808,1.946-2.734,4.37-3.737,6.744c-1.118,2.641-2.159,5.316-3.317,7.94c-1.375,3.104-3.513,5.609-6.079,7.829
		c-1.134,0.979-1.966,2.346-2.795,3.631c-1.191,1.856-2.362,3.681-3.958,5.26c-0.963,0.95-1.648,2.265-2.219,3.521
		c-0.808,1.783-0.363,2.347,1.571,2.367c0.061,1.375-1.645,2.239-0.938,3.896c0.775,1.812,2.289,1.196,3.644,1.384
		c0.281,1.505-0.535,3.125,0.612,4.521c0.922,0.045,1.726-0.176,2.591-0.628c2.097-1.098,4.635-1.751,7.499-0.453
		c0.033,0.167,0.085,0.358,0.102,0.555c0.22,2.885,1.595,3.505,4.1,1.877c1.106-0.718,2.22-1.424,3.387-2.036
		c0.44-0.232,1.073-0.359,1.542-0.236c1.326,0.347,2.53,0.09,3.644-0.567c2.742-1.611,5.875-1.701,8.866-2.191
		c2.211-0.362,3.66-1.559,4.855-3.142c1.081-1.432,1.775-3.104,1.713-5.022c-0.073-2.337-0.122-4.688,0.024-7.021
		c0.188-2.913,0.759-5.724,2.04-8.445c1.383-2.941,2.322-6.1,3.407-9.176c0.147-0.412,0.037-0.922,0.017-1.384
		c-0.098-2.064-0.18-4.129-0.314-6.193c-0.089-1.391-0.314-2.778-0.383-4.169c-0.171-3.469-0.347-6.937-0.412-10.408
		c-0.094-4.803-0.241-9.612-0.082-14.407c0.135-3.99,0.632-7.972,1.053-11.95c0.453-4.312,0.897-8.616,0.42-12.958
		c-0.057-0.53-0.028-1.073-0.016-1.774c6.079,0.498,12.22,0.277,18.307-0.604c0.265-0.037,0.514-0.106,0.754-0.196
		c0.241,0.935,0.51,1.926,0.682,2.938c0.596,3.497,1.199,6.989,2.525,10.298c0.518,1.298,1.041,2.615,1.734,3.819
		c3.248,5.618,6.243,11.358,8.703,17.368c1.465,3.578,3.011,7.128,4.386,10.743c0.759,1.99,1.265,4.08,1.844,6.136
		c0.526,1.86,1.028,3.729,1.485,5.61c0.273,1.134,0.139,2.195-0.551,3.239c-0.918,1.388-1.787,2.84-2.448,4.361
		c-0.682,1.579-1.257,3.248-1.583,4.938c-1.089,5.626-3.224,10.812-7.022,15.079c-1.889,2.126-3.5,4.121-3.729,7.046
		c-0.045,0.596-0.649,1.143-0.971,1.727c-1.375,2.488-2.366,5.092-2.179,8.001c0.045,0.705-0.028,1.497,0.812,1.9
		c0.906,0.438,1.64,0.204,2.383-0.403c0.628-0.515,1.351-0.914,2.032-1.367c0.171,0.11,0.184,0.123,0.355,0.232
		c-0.159,0.845-0.331,1.686-0.478,2.53c-0.179,1.028-0.179,2.031,0.771,2.713c0.906,0.648,1.84,0.221,2.664-0.171
		c0.894-0.429,1.791-0.951,2.518-1.62c1.444-1.334,3.101-1.681,4.985-1.555c1.281,0.086,2.579-0.028,4.084-0.061
		c0.151,0.652,0.396,1.591,0.587,2.541c0.224,1.11,0.889,1.775,1.962,2.028c1.089,0.253,1.958-0.159,2.64-1.012
		c0.833-1.045,1.624-2.126,2.505-3.13c1.395-1.583,2.101-1.51,3.549,0.037c0.853,0.909,1.775,1.819,2.828,2.464
		c1.232,0.755,1.815,0.421,2.46-0.897c0.159-0.326,0.282-0.669,0.372-1.02c0.722-2.877,2.586-4.721,5.088-6.238
		c1.509-0.918,2.99-2.122,2.995-4.366c0.004-1.212,0.51-2.484,1.02-3.623c0.82-1.84,1.097-3.64,0.632-5.639
		c-0.294-1.265-0.273-2.619-0.277-3.933c-0.008-3.664,0.208-7.304,0.792-10.947c0.449-2.811,0.229-5.654-0.824-8.466
		c-0.755-2.011-0.836-4.304-1.044-6.479c-0.375-3.945-0.645-7.903-0.857-11.86c-0.277-5.112-0.563-10.229-0.616-15.35
		c-0.028-2.651,0.457-5.312,0.689-7.968c0.114-1.322,0.074-2.664,0.29-3.966c0.661-3.986,0.636-7.989,0.428-11.995
		c-0.118-2.261-0.437-4.509-0.645-6.761c-0.151-1.636-0.347-3.272-0.392-4.908c-0.057-2.171-0.653-4.207-1.318-6.242
		c-0.208-0.633-0.4-1.273-0.587-1.914c-0.829-2.827-0.086-4.418,2.354-6.141c1.681-1.183,3.276-2.57,4.626-4.116
		c4.248-4.859,7.467-10.363,9.776-16.401c2.309-6.034,5.414-11.62,9.4-16.643c9.208-7.887,18.532-15.639,27.802-23.456
		c4.83-3.068,9.727-6.026,14.691-8.874c5.663-2.835,11.404-5.524,17.186-8.111c2.9-1.297,5.813-2.575,8.731-3.827
		c1.489-0.641,2.982-1.277,4.476-1.905c0.126-0.053,0.24-0.102,0.294-0.123c0.351-0.147,0.705-0.294,1.057-0.445
		c0.705-0.293,1.407-0.587,2.113-0.881c5.867-2.444,11.759-4.843,17.646-7.238c0.698-0.286,1.318-0.583,1.856-1
		c1.021-0.347,2.04-0.698,3.057-1.049c5.418-1.876,10.808-3.835,16.278-5.544c4.889-1.53,9.854-2.815,14.807-4.129
		c5.859-1.555,11.71-3.146,17.617-4.5c4.215-0.967,8.507-1.595,12.771-2.325c3.746-0.645,7.495-1.249,11.253-1.816
		c1.774-0.269,3.565-0.457,5.357-0.596c4.124-0.322,8.258-0.551,12.383-0.902c6.222-0.534,12.362,0.151,18.474,1.179
		c4.733,0.796,9.49,1.489,14.162,2.542c7.862,1.779,15.695,3.721,23.301,6.397c4.084,1.44,7.992,3.362,11.999,5.031
		c4.782,1.991,9.099,4.802,13.354,7.687c5.672,3.843,10.73,8.364,14.766,13.966c1.163,1.612,2.607,3.015,3.84,4.582
		c0.905,1.15,1.648,2.432,2.521,3.611c0.547,0.734,1.199,1.387,1.941,2.231C558.532,252.874,558.34,251.833,558.014,250.866z"/>
</g>
<g>
</g>
<g>
</g>
<g>
</g>
<g>
</g>
<g>
</g>
<g>
</g>
<g>
</g>
<g>
</g>
<g>
</g>
<g>
</g>
<g>
</g>
<g>
</g>
<g>
</g>
<g>
</g>
<g>
</g>
</svg>
