<?xml version="1.0" encoding="iso-8859-1"?>
<!-- Generator: Adobe Illustrator 16.0.0, SVG Export Plug-In . SVG Version: 6.00 Build 0)  -->
<!DOCTYPE svg PUBLIC "-//W3C//DTD SVG 1.1//EN" "http://www.w3.org/Graphics/SVG/1.1/DTD/svg11.dtd">
<svg version="1.1" id="Capa_1" xmlns="http://www.w3.org/2000/svg" xmlns:xlink="http://www.w3.org/1999/xlink" x="0px" y="0px"
	 width="575.8px" height="575.8px" viewBox="0 0 575.8 575.8" style="enable-background:new 0 0 575.8 575.8;" xml:space="preserve"
	>
<g>
	<path d="M575.669,158.84c-0.359-0.379-1.596,0.225-2.778,1.338c-9.074,8.56-18.605,16.72-26.81,26.046
		c-15.146,17.214-30.519,34.423-39.441,56.133c-0.854,2.077-4.048,4.892-5.745,4.635c-8.548-1.285-17.218-2.754-25.312-5.651
		c-4.247-1.518-7.854-5.716-10.95-9.375c-6.598-7.797-13.497-14.158-24.175-16.622c-11.546-2.664-23.455-5.957-33.655-11.718
		c-14.052-7.932-28.789-15.161-34.541-33.448c-7.688-24.427-20.563-46.594-41.09-62.905c-5.92-4.705-13.893-6.769-20.73-10.408
		c-1.334-0.71-2.366-1.991-3.57-3.468c-1.024-1.256-2.619-1.35-3.496-0.269c-0.535,0.657-1.069,1.306-1.608,1.942
		c-0.081,0.098-0.257,0.114-0.587,0.159c-0.339,0.049-1.412-0.934-2.399-2.219c-0.481-0.621-0.983-1.277-1.525-1.979
		c-0.992-1.285-2.289-1.11-2.901,0.396c-0.367,0.902-0.718,1.771-1.064,2.624c-0.612,1.501-1.645,3.256-2.306,3.917
		s-1.595-0.033-2.097-1.546c-0.302-0.918-0.633-1.824-1.053-2.681c-0.416-0.853-0.927-1.665-1.461-2.46
		c-0.881-1.314-2.081-2.126-2.668-1.824c-0.588,0.302-1.065,1.864-1.065,3.488c0,3.415,0,6.964,0,11.102
		c0,1.624-1.032,2.122-2.305,1.114c-2.926-2.313-5.472-4.325-8.523-6.74c-1.273-1.008-2.093-0.526-1.815,1.073
		c0.596,3.435,1.053,5.847,1.273,8.278c0.082,0.894,0.008,1.799-0.106,2.709c-0.188,1.489-1.444,2.624-2.795,2.521
		c-0.824-0.061-1.636-0.159-2.411-0.392c-1.795-0.535-3.525-1.29-6.349-2.456c-1.501-0.62-2.04,0.02-1.191,1.403
		c2.326,3.786,4.06,6.528,5.634,9.359c3.688,6.63,2.599,9.947-4.386,10.51c-1.616,0.131-2.024,1.028-0.828,2.126
		c1.481,1.362,2.782,2.538,3.325,3.994c1.105,2.966,1.648,6.145,2.236,9.302c0.298,1.595-0.71,3.174-2.26,3.656
		c-2.815,0.881-5.667,1.897-8.12,1.302c-8.033-1.963-15.797-5.108-23.562-8.054c-24.006-9.106-48.682-14.431-74.492-14.243
		c-10.245,0.073-20.498-0.792-30.751-1.016c-2.599-0.057-5.492,0.11-7.785,1.179c-14.182,6.597-28.03,13.619-39.535,24.725
		c-10.71,10.334-23.44,18.8-33.028,30.012c-9.392,10.983-16.593,24.043-23.538,36.851c-6.026,11.114-11.073,22.905-15.169,34.872
		c-2.958,8.65-4.496,18.013-5.177,27.173c-1.494,20.025-1.812,40.144,2.933,59.875c1.526,6.345,4.382,12.354,6.157,18.649
		c3.231,11.44,6.128,22.971,9.123,34.477c1.285,4.933,2.66,9.853,3.668,14.847c1.522,7.553,2.766,15.157,4.104,22.746
		c1.396,7.903,2.726,15.814,4.162,23.709c0.567,3.113,2.354,6.36,1.848,9.241c-1.42,8.078,3.215,9.127,9.241,9.176
		c12.171,0.098,24.37,0.62,36.5,0.028c0.017,0.009,0.065,0.033,0.065,0.033s12-0.51,20.669,0c4.153,0.244,0.844-2.791-4.88-5.736
		c2.403,0.024,4.843,0.085,7.067,0.216c5.716,0.339-2.652-5.521-12.085-8.825c-0.453-0.775-0.931-1.497-1.392-2.072
		c-5.353-6.659-12.338-12.285-13.215-21.93c-0.147-1.616,0.958-2.122,2.231-1.118c5.68,4.487,11.049,8.845,16.602,12.958
		c17.618,13.044,38.087,19.775,58.76,25.826c40.522,11.856,82.004,11.979,123.73,10.127c30.334-1.347,59.744-6.708,88.336-16.789
		c16.81-5.929,33.636-11.816,50.429-17.789c2.012-0.714,3.966-1.583,5.92-2.452c1.481-0.657,2.554-1.624,2.387-2.171
		s-1.57-0.656-3.134-0.22c-7.43,2.064-14.81,4.414-22.366,5.797c-21.587,3.958-43.215,7.789-64.941,10.894
		c-31.277,4.473-61.906-0.905-92.33-7.593c-7.1-1.562-11.489-6.291-15.312-12.99c-0.804-1.407-0.098-2.737,1.514-2.934
		c2.987-0.363,5.732-0.693,8.429-1.021c1.612-0.195,3.081-0.15,3.362-0.02c0.159,0.073,0.338,0.118,0.542,0.13
		c3.75,0.184,7.495,0.367,11.24,0.551c1.2,0.058,1.718-1.269,1.269-2.211c-1.575-3.305-4.692-5.41-8.099-5.993
		c-1.599-0.273-3.574-0.951-4.598-1.706c-0.575-0.424-1.232-0.82-1.97-1.199c-8.744-4.472-12.211-13.338-10.311-22.962
		c3.056-15.46,9.837-29.185,18.972-41.702c1.624-2.224,7.52-3.893,9.771-2.685c16.042,8.584,31.694,17.903,47.373,27.152
		c5.329,3.142,5.88,8.062,2.253,12.493c-4.374,5.341-9.087,10.412-14.076,15.794c-1.102,1.19-3.305,2.039-4.925,1.9
		c-1.722-0.146-3.439-0.298-5.161-0.444c-1.391-0.118-1.787,1.632-1.041,2.509c1.306,1.53,2.869,2.705,4.606,3.514
		c1.473,0.681,3.901,1.628,5.28,2.48c3.113,1.922,6.34,3.773,9.6,3.835c0.155,0.004,0.311,0.008,0.466,0.013
		c0.257,0.012,0.399,0.317,0.521,0.645c0.069,0.184,0.188,0.354,0.372,0.502c0.045,0.036,0.094,0.069,0.143,0.105
		c0.081,0.058-1.105,0.51-2.648,1.016c-2.615,0.857-5.23,1.71-7.846,2.566c-1.293,0.425-1.51,2.526,0,2.832
		c5.635,1.15,11.155,0.612,16.186-1.493c1.497-0.629,3.949-1.049,5.569-1.069c1.938-0.024,3.868-0.367,5.712-1.032
		c1.526-0.551,3.99-1.228,5.59-1.501c3.361-0.58,6.598-2.113,9.604-5.32c3.961-4.228,6.291-10.139,8.775-15.549
		c2.636-5.736,4.243-11.942,6.899-17.663c3.256-7.013,1.575-16.993-3.464-22.383c-10.673-11.407-20.971-23.166-31.396-34.802
		c-2.231-2.489-4.406-5.027-6.589-7.557c-1.062-1.228-0.837-2.966,0.534-3.831c14.153-8.939,29.307-12.705,46.23-5.337
		c6.573,2.86,13.228,2.607,19.845-0.718c17.075-8.58,34.329-10.241,52.266-1.942c8.604,3.982,17.719,2.783,27.242,1.519
		c14.961-1.987,29.637-7.291,45.361-3.999c10.281,2.154,19.584-2.954,27.968-8.841c2.913-2.044,5.672-4.309,8.891-6.867
		c1.269-1.012,3.198-0.849,4.296,0.347c2.55,2.779,5.198,5.663,8.536,9.303c1.097,1.195,1.889,0.853,1.827-0.767
		c-0.188-5.256,0.078-9.515-1.236-13.216c-4.227-11.881-9.547-23.375-14.06-35.162c-1.068-2.787-1.191-6.198-0.849-9.221
		c2.113-18.568,9.78-35.341,18.332-51.539c6.679-12.652,14.777-24.549,22.378-36.712
		C575.628,160.647,576.027,159.219,575.669,158.84z M161.994,426.696c-0.779,0.29-1.11,0.44-1.359,0.355
		c-1.367-0.466-2.746-0.972-4.006-1.669c-22.232-12.248-34.542-32.289-43.53-55.068c-2.203-5.585-0.249-9.094,4.786-9.849
		c9.784-1.465,19.714-2.146,29.608-2.599c3.791-0.176,5.7,2.239,5.937,6.654c0.718,13.59,1.514,27.222,3.37,40.689
		c0.844,6.141,3.415,12.044,5.602,18.233C162.94,424.979,162.732,426.419,161.994,426.696z M285.956,420.846
		c-0.171-0.065-0.131-0.114,0.086-0.094c0.216,0.021,0.351,0.073,0.306,0.122S286.128,420.911,285.956,420.846z M529.854,294.594
		c-13.097,3.489-23.117-2.407-33.272-7.307c-1.461-0.706-1.362-1.485,0.245-1.702c11.456-1.53,22.358,0.065,33.342,6.573
		C531.563,292.986,531.425,294.178,529.854,294.594z"/>
</g>
<g>
</g>
<g>
</g>
<g>
</g>
<g>
</g>
<g>
</g>
<g>
</g>
<g>
</g>
<g>
</g>
<g>
</g>
<g>
</g>
<g>
</g>
<g>
</g>
<g>
</g>
<g>
</g>
<g>
</g>
</svg>
