<?xml version="1.0" encoding="iso-8859-1"?>
<!-- Generator: Adobe Illustrator 16.0.0, SVG Export Plug-In . SVG Version: 6.00 Build 0)  -->
<!DOCTYPE svg PUBLIC "-//W3C//DTD SVG 1.1//EN" "http://www.w3.org/Graphics/SVG/1.1/DTD/svg11.dtd">
<svg version="1.1" id="Capa_1" xmlns="http://www.w3.org/2000/svg" xmlns:xlink="http://www.w3.org/1999/xlink" x="0px" y="0px"
	 width="585.377px" height="585.377px" viewBox="0 0 585.377 585.377" style="enable-background:new 0 0 585.377 585.377;"
	 xml:space="preserve">
<g>
	<g>
		<path d="M10.098,259.793c5.508-0.918,11.016-1.53,16.524-2.448c2.142-0.306,4.284-1.224,6.732-1.836
			c0.918-0.306,1.53-0.612,2.448-0.918c2.754-0.306,5.202-1.53,6.732-3.978c0.306-0.612,0.918-0.918,1.53-1.224
			c0.918-0.612,1.836,0.918,2.754,1.836c0.612,0.612,1.53,0.612,2.754-0.306c1.224-0.918,2.448-1.836,3.366-3.06
			c1.53-1.836,3.366-3.06,5.814-3.366c4.896-0.918,9.792-1.836,14.688-2.754c1.224-0.306,2.142-1.53,2.448-2.448
			c0-0.918,0-1.53,0.306-2.448c0-1.224,0.306-2.142,0.612-2.142c0.306,0,0.612,0.918,0.918,2.142c0,0.612,0.306,0.918,0.306,1.53
			c0.306,1.224,1.53,2.448,2.142,1.836c0.306-0.306,0.612-0.918,0.612-1.53c0-1.224,0-2.448,0.306-3.672
			c0-0.612,0.306-1.53,0.306-2.142c0-1.224,0.306-2.142,0.612-2.142c0.306,0,0.612,0.918,0.612,2.142
			c0.306,1.224,0.612,2.754,0.612,3.978c0.306,1.224,1.53,1.836,2.142,0.918c0.306-0.612,0.612-1.224,0.612-2.142
			c0-1.836,0.306-3.978,0.612-5.814c0-0.612,0-1.224,0.306-1.836c0-0.918,0.306-1.836,0.612-1.836c0.306,0,0.612,0.918,0.918,2.142
			c0.306,1.836,0.918,3.366,1.224,5.202c0.306,1.224,1.53,2.448,2.754,2.448c0.918,0,0.918-0.612,1.53-2.754
			c0.306-1.836,0.612-3.672,0.918-5.508s0.612-3.672,1.224-5.508c0.306-1.224,0.612-2.142,0.918-2.142s0.306,0.918,0.612,2.142
			c0.306,3.672,0.306,7.344,0.612,11.016c0,1.224,1.224,2.448,2.142,2.448s1.224-0.918,1.53-2.448
			c1.53-5.202,3.06-10.404,4.284-15.606c0,0,0-0.306,0.306-0.306c0.306-0.306,0.306-0.306,0.612-0.306
			c0.306,0,0.306,0.918,0.306,2.142c-0.306,3.672-0.612,7.65-0.612,11.322c0,1.224,0.918,2.142,2.142,2.142
			c0.918,0,1.53,0,2.448-0.306c1.224,0,2.448-1.224,2.754-2.142c1.224-4.284,2.754-8.262,3.978-12.546
			c0.306-1.224,0.918-2.142,1.224-2.142c0.306,0,0.306,0.918,0.306,2.142c-0.306,4.284-0.612,8.874-0.612,13.158
			c0,1.224,0.918,2.448,2.142,2.754c1.53,0,1.836-0.306,3.06-2.448c1.836-2.754,3.672-5.814,5.508-8.568l0.306-0.306
			c0.306,0,0.612-0.306,0.612,0c0,0,0,1.224-0.306,2.142c-0.612,2.448-0.918,4.59-1.53,6.732c-0.306,1.224,0,2.448,0.612,3.06
			c0.306,0.306,0.612,0.612,1.224,0.918c0.918,0.612,1.53,0.918,2.142-0.306c1.224-2.448,2.448-4.59,3.672-7.038
			c0-0.306,0.306-0.612,0.306-0.918c0.306-0.306,0.612-0.612,0.612-0.612c0.306,0,0,1.224,0,2.142
			c-0.306,2.142-0.612,3.978-1.224,6.12s-0.612,2.754,0.306,3.06c1.224,0.612,2.448-0.306,3.06-1.53
			c0.612-1.53,1.224-2.754,1.836-4.284c0.612-1.224,0.918-1.836,1.224-1.836c0.306,0-1.53,1.53-1.53,2.754s-0.306,2.448-0.306,3.672
			c0,1.224,0.612,2.142,1.53,2.142s1.836-1.224,1.836-2.448c0.306-1.836,0.306-3.366,0.612-5.202c0-1.224,0.306-2.142,0.612-2.142
			c0.306,0,0.612,0.918,0.918,2.142c0.306,1.224,0.612,2.448,0.918,3.672c0.306,1.224,0.612,2.142,1.224,2.142
			c0.306,0,0.612,0,0.612,0c2.754-0.306,3.366-0.918,3.06-3.672c0-0.612,0-1.224-0.306-1.836c0-1.224,0-2.142,0.306-2.142
			c0.306,0,0.918,0.612,1.53,1.836c0.306,0.306,0.306,0.612,0.612,0.918c0.612,0.918,1.53,0.918,2.142-0.306
			c0.918-1.836,1.836-3.672,2.142-5.508c1.53-7.956,2.754-15.912,4.284-23.868c1.224-7.038,2.448-14.382,3.366-21.42
			c0.918-5.814,2.754-11.322,5.508-16.524c0.306-0.612,0.612-1.224,0.918-1.53c0.612-0.918,0.918-0.612,0.612,0.612
			c-0.612,2.754-1.224,5.202-1.53,8.262c0,1.224,0.612,1.53,1.53,0.918c3.978-2.754,7.344-5.508,10.404-9.18
			c3.366-4.284,7.038-8.568,10.71-12.546c6.732-7.65,14.688-14.076,23.256-19.584c0.918-0.612,1.53-0.918,2.448-1.224
			c1.224-0.612,2.142-0.918,2.142-0.612c0,0-0.612,0.918-1.53,1.53c-3.672,2.754-7.038,6.12-8.874,10.71
			c-0.306,1.224-0.306,2.142,0,2.142s0.306,0,0.612,0c9.18-2.142,18.054-5.202,26.622-8.568c7.956-3.06,16.524-5.202,24.786-6.426
			c0.306,0,0.918,0,1.53,0c0.306,0,0.306,0,0.612,0c0.306,0-0.306,0.306-1.53,0.918c-3.366,1.224-6.12,2.754-9.18,4.59
			c-0.918,0.612-0.918,1.53,0.306,1.836c2.754,0.612,5.202,1.224,7.65,1.836c6.426,1.224,12.546,2.754,18.972,3.366
			c9.18,0.918,18.054,1.836,26.929,4.59c0.305,0,0.611,0.306,0.918,0.306c0.611,0.306,0,0.306-1.225,0.306
			c-3.672-0.306-7.037-0.306-10.711,0.306c-1.223,0.306-1.529,0.918-0.305,1.836c2.754,2.142,5.201,3.978,7.955,6.12
			c4.896,3.672,9.793,7.344,14.383,11.322c3.979,3.366,7.65,6.732,11.322,10.098c0.305,0.306,0.611,0.612,0.918,0.918
			c0.305,0.612,0,0.306-1.225-0.306c-3.672-2.448-7.955-3.366-12.24-4.59c-1.225-0.306-1.529,0.306-0.918,1.224
			c5.203,9.792,10.404,18.972,15.605,28.458c0.613,0.918,0.918,2.142,0.918,2.142s-0.918-0.612-1.836-1.53
			c-1.529-1.836-3.365-3.672-5.508-4.896c-0.918-0.612-1.836,0-1.529,1.224c1.225,5.202,2.143,10.098,4.283,14.688
			c0.613,1.224,0.307,1.224-0.611,0.612s-1.225-0.306-0.611,0.612c1.836,3.672,3.977,6.732,7.648,8.568
			c1.225,0.612,2.449,0,2.756-1.224c0.305-1.224,0.918-2.448,1.529-3.672s0.918-2.448,1.529-3.672
			c0.613-1.224,1.225-1.836,1.225-1.836s0.307,1.224,0,2.142c-0.307,2.754-0.918,5.508-1.225,8.262
			c-0.305,1.224,0.613,2.448,1.836,2.754c0.918,0.306,2.143,0.306,3.061,0.612c1.225,0,1.836-0.306,2.143-1.836
			c0-1.836,0.611-3.672,0.611-5.814c0-0.612,0-0.918,0.307-1.53c0-0.612,0.305-1.53,0.611-1.224c0,0,0.307,0.918,0.611,2.142
			c0.307,1.53,0.307,3.06,0.613,4.284c0.305,1.224,1.223,1.836,2.447,1.836c0.611-0.306,1.529-0.306,2.143-0.612
			c0.611-0.306,1.529-1.53,1.529-2.448c0.307-2.142,0-4.284,0-6.426c0-0.306,0-0.612,0-0.918c0-0.612,0-0.918,0.307-0.918
			c0,0,0.611,0.918,0.918,2.142c0.307,1.224,0.918,2.754,1.225,3.978c0.305,1.224,1.529,1.836,2.754,1.53
			c1.223-0.612,1.223-1.224,1.223-3.366c0-1.224,0-2.448,0.307-3.672c0-1.224,0.307-2.142,0.611-2.142
			c0.307,0,0.613,0.918,0.918,2.142c0.307,0.612,0.613,1.53,0.613,2.142c0.305,1.224,1.529,1.836,2.447,0.918
			c1.836-1.836,1.836-3.978,1.836-6.426c0-1.224,0.307-2.142,0.307-2.142c0.305,0,0.611,0.918,1.223,2.142c0,0,0,0,0,0.306
			c0.307,1.224,1.836,1.836,2.754,1.224c1.225-0.612,1.225-1.53,0.92-3.672c0-1.53-0.307-3.366-0.613-4.896
			c0-0.306,0-0.918-0.307-1.224c0-0.612,0-1.224,0-1.224s0.613,0.918,1.225,1.836c0.613,1.53,1.225,2.754,1.836,4.284
			c0.613,1.224,2.143,2.142,3.061,1.224c0.307-0.612,0.611-1.224,0.611-2.142c-0.305-2.142-0.305-4.284-0.611-6.426
			c0-0.306,0-0.612,0-0.918c0-0.612,0.307-0.918,0.307-0.918s0.611,0.306,0.611,0.918c0.307,0.306,0.307,0.612,0.307,0.918
			c0.611,1.836,1.529,3.672,2.141,5.202c0.307,0.918,1.225,1.224,2.143,0.612c1.529-0.918,3.061-1.836,4.59-2.754
			c0.611-0.612,0.918-1.53,1.225-2.448c0-0.612,0.305-1.53,0.305-2.448c0-1.224,0.307-2.142,0.613-2.142
			c0.305,0,0.611,0.612,0.611,1.224c0,0.306,0.307,0.918,0.307,1.224c0.611,2.448,0.611,2.448,3.061,1.53
			c5.812-2.448,11.32-4.896,17.441-6.426c7.955-2.142,15.605-4.284,23.562-6.426c9.791-2.754,19.584-4.284,29.682-5.202
			c16.523-1.224,32.742,0.306,48.041,5.814c13.771,5.202,27.846,10.404,41.617,15.606c7.955,3.06,15.912,4.896,24.479,3.672
			c0.307,0,0.918,0,1.225-0.306c0.611,0,1.529,0,1.529,0s-0.305,0.306-0.611,0.612s-0.611,0.306-0.918,0.306
			c-2.447,0.612-4.896,1.53-7.65,1.53c-5.201-0.306-10.404-0.612-15.605-1.53c-14.383-2.142-28.764-4.59-43.146-6.732
			c-14.076-2.142-28.152-1.53-42.227,1.224c-20.197,3.978-38.557,12.852-55.998,23.562c-11.936,7.65-22.645,17.136-32.742,27.234
			c-9.793,9.792-19.584,19.89-28.766,30.294c-4.895,5.202-10.709,9.486-17.135,12.852c-7.957,3.979-15.912,7.955-22.951,13.463
			c-0.305,0.307-0.918,0.92-0.918,1.225c0,2.449,0,4.896,0.307,7.039c0.307,3.365,3.061,4.895,5.508,6.426
			c5.203,3.059,9.18,7.344,11.322,12.852c3.365,7.955,6.426,15.912,10.404,23.867c1.836,3.672,2.754,7.039,2.143,10.711
			c-0.613,3.365,0,6.426,0.918,9.791c0.918,2.754,1.223,5.814,1.529,8.875c0,0.611,0,1.225-0.611,1.836
			c-0.613,0.918-1.225,0-1.225-1.225c0-0.611,0-0.918-0.307-1.529c-0.305-1.225-1.223-1.225-1.223-0.611c0,0.611,0,0.918,0,1.223
			c0.611,3.061,1.223,5.814,1.836,8.875c0.918,3.977,1.529,7.955,0.305,11.627c-0.611,2.449-0.611,4.896,0.307,7.039
			c0.918,2.141,1.529,3.977,2.754,5.812c1.836,3.367,3.365,6.732,3.365,10.404c0,3.061,0,6.121-0.305,9.486
			c-0.307,3.061-0.613,6.121-0.918,9.18c0,0.307-0.307,0.613-0.307,0.918c-0.307,0.613-0.611,0-1.225-1.223
			c-0.918-2.449-1.529-4.285-2.141-6.426c-0.918-2.756-1.836-4.896-5.508-3.979c-0.307,0-0.918,0-1.225,0
			c-3.061,0.305-4.59-1.836-5.203-4.285c-0.305-0.611-0.611-1.529-0.611-2.141c-0.307-2.449-0.611-4.896-1.225-7.344
			c-0.305-1.225-0.918-2.449-1.836-3.672c-0.611-0.92-1.223-1.838-1.529-1.838s-0.918,0.918-1.225,2.143
			c-0.305,0.613-0.611,1.225-0.611,2.143c-0.611,3.672-1.225,7.344-1.836,11.016c-0.611,3.979-2.143,5.814-6.119,6.121
			c-3.674,0.305-4.896,2.141-5.814,4.895c0,0.307-0.307,0.918-0.307,1.225c-0.611,1.836-0.918,3.672-1.529,5.508
			c-0.307,1.225-0.613,1.836-0.918,1.836l-0.307-0.307c-0.307-0.305-0.307-0.918-0.611-1.223c-1.225-3.672-1.836-7.039-1.531-11.016
			c0-1.531,0-3.061-0.918-4.592c-0.611-0.611-0.611-1.836-0.305-2.754c0.611-4.283,2.141-8.262,4.59-11.934
			c0.611-0.918,0.918-1.836,1.223-2.754c0.307-1.223,0.613-2.143,0.307-2.143c0,0-0.918,0.613-1.836,1.531
			c-1.836,1.836-3.365,4.283-4.59,7.037c-2.143,6.121-2.754,6.426-9.18,5.508c-1.225-0.305-2.143,0.307-2.754,1.225
			c-1.836,3.061-3.367,5.814-4.285,9.18c-0.306,1.225-0.612,1.531-1.224,0.918c-0.306-0.305-0.306-0.918-0.612-1.223
			c-1.224-5.51-0.918-11.018,0.612-16.219c0.306-1.225,0.306-2.447,0.612-3.365c0.612-2.754,1.225-5.203,3.979-7.039
			c2.141-1.225,3.672-3.365,5.508-4.896c1.225-1.529,2.447-3.059,3.672-4.59c0.918-1.223,1.836-2.447,2.447-3.672
			c0.613-1.223,0-1.529-0.611-0.611s-1.225,1.225-1.225,1.225c0-0.307-0.305-0.307,0-0.613c0.613-3.979,1.225-7.65,2.143-11.627
			c0-0.307,0.307-0.307,0.307-0.613c4.59-6.426,6.119-13.463,4.283-21.113c-0.307-1.225-0.307-2.754-0.611-3.979
			c-0.307-0.918-0.307-2.141-0.918-2.754c-2.449-2.143-4.896-3.979-7.344-5.814c-3.367-2.447-7.039-4.59-10.1-7.344
			c-2.141-1.836-3.365-4.59-5.201-6.732c-1.836-1.836-3.978-3.059-5.508-4.895c-5.508-5.508-8.568-12.852-12.546-19.279
			c-1.836-3.059-3.366-6.73-4.896-9.791c-0.612-1.225-1.224-2.447-3.06-2.143c-3.978,0-8.262,0.307-12.24,0.307
			c-1.53,0-3.366,0-4.59,0.307c-1.224,0-1.836,1.223-1.53,2.141c0.918,3.367,1.836,6.121,2.142,9.18
			c0.306,6.732,1.836,12.854,4.284,18.973c1.53,3.979,1.836,8.262,0.918,12.547c-0.612,3.059-1.224,6.426-0.918,9.791
			c0,3.672,0.918,7.344,0,11.016c-0.918,2.754-1.836,5.814-2.754,8.568c-0.306,0.611-0.612,1.529-0.612,2.143
			c-0.306,3.979-0.612,7.955-0.306,11.934c0.306,5.508-2.142,9.18-7.038,11.322c-0.612,0.307-1.224,0.611-1.836,0.918
			c-7.956,3.061-15.912,5.814-22.95,10.404c-0.612,0.305-1.53,0.611-2.142,0.918c-2.448,0.918-6.12,0-8.262-1.836
			c-0.918-0.918-2.448-1.836-3.672-1.531c-2.448,0.613-4.59,2.143-6.426,4.285c-0.918,0.918-1.53,0.611-1.53-0.613
			c0.306-2.141,0.918-3.977,1.836-5.508c0.612-1.223,0.306-2.447-0.918-3.059c-0.612-0.307-0.918-0.613-1.224-0.918
			c-0.918-0.613-2.448-0.918-3.06-0.613c-0.306,0.307-0.918,0.307-1.224,0.613c-3.366,0.918-6.12,2.447-7.956,5.812
			c-3.366,6.121-9.18,9.486-15.606,11.936c0,0-0.306,0-0.612,0c-0.306,0,0.306-0.613,1.224-1.531
			c1.836-1.529,3.366-2.754,4.896-3.979c1.836-1.223,3.06-3.059,3.978-4.895c0.612-0.918,0-1.836-1.224-1.531
			c-1.53,0.307-3.06,0.613-4.59,0.918c-1.224,0.307-2.754,0.307-3.978,0.307s-2.142,0-2.142,0s0.918-0.611,2.142-0.918
			c0.306,0,0.306,0,0.612-0.307c1.224-0.305,2.142-0.918,1.836-1.223c0-0.307,0-0.307-0.306-0.613
			c-2.448-6.119-2.142-12.545-0.306-18.666c0.612-2.447,1.836-4.895,2.754-7.344c0.918-2.447,2.448-4.59,3.366-6.732
			c0.612-2.141,1.836-4.283,3.366-5.812c1.836-2.143,3.366-4.896,5.202-7.346c0.918-1.223,1.836-2.447,2.754-3.365
			c0.918-0.918,2.448-1.836,3.06-3.061c1.836-6.73,3.672-13.463,4.896-20.502c0.612-3.672,1.224-7.037,3.06-10.404
			c0.306-0.611,0.612-1.223,0.918-1.529c0.306-0.918,0-2.143-1.224-2.754c-2.142-0.918-3.978-1.836-5.814-2.754
			c-1.836-0.918-3.978-2.143-5.814-2.447c-2.448-0.307-5.202-0.613-7.956-0.613c-1.224,0-2.142,0-2.448,0.307v0.307
			c-0.918,3.365-1.224,7.037-2.754,10.098c-1.836,4.283-4.59,8.262-6.732,12.24c-0.918,1.836-2.142,3.977-2.448,6.119
			c-0.612,6.121-2.142,12.24-3.672,18.055c-1.224,4.59-1.53,9.18-2.448,13.77c-0.306,1.836-0.306,3.979-0.918,5.508
			c-2.142,6.732-3.06,13.465-2.142,20.195c0,0.307,0,0.307,0,0.613s0,0.611-0.306,0.611c0,0-0.612-0.918-0.918-2.143
			c-0.306-0.611-0.612-1.223-0.612-1.529c-0.612-1.225-0.918-2.143-1.224-1.836c0,0,0,0.918,0,2.143c0,0.305,0,0.611,0,0.918
			c0.306,1.223-0.306,1.529-1.224,0.611c-0.918-1.225-1.53-2.447-2.142-3.672c-1.836-4.896-3.366-9.791-4.896-14.688
			c-0.306-0.918,0-1.836,0-2.754c0-2.754,0.306-5.508,0.306-8.262c0-0.307,0-0.613-0.306-0.613
			c-0.306-0.305-0.306-0.611-0.612-0.611l-0.306,0.307c-1.53,3.672-4.284,7.037-3.366,11.32c0,0.613,0,1.225-0.306,1.531
			c-1.836,3.672-0.612,7.344,0.918,10.709c0.918,2.143,2.448,3.979,3.672,5.814c0.612,0.918,0.306,1.529-0.918,0.918
			c-3.672-1.836-7.344-6.119-8.874-11.016c-0.612-1.836-0.918-3.979-1.836-5.508c-1.224-2.754-1.53-5.508-0.306-8.262
			c1.224-3.061,2.448-6.121,3.672-9.18c2.448-6.121,4.59-12.24,6.732-18.055c1.224-2.754,3.06-5.508,3.672-8.262
			c1.224-4.59,1.836-9.486,2.142-14.076c0.306-4.59,1.224-8.875,4.284-12.547c0.918-0.918,1.224-1.529,0.918-1.836
			c-0.306,0-0.306,0-0.612,0c-6.12-1.529-9.792-5.508-10.098-11.627c0-1.836-0.306-3.672-0.306-5.203
			c0-1.223-0.612-2.141-1.53-2.754c-2.142-0.918-3.978-2.141-6.12-3.059c-0.918-0.307-2.142-0.613-3.366-0.918
			c-1.224-0.307-2.142,0.611-1.836,1.836v0.305c0.306,1.225-0.306,1.836-0.918,0.918c-0.306-0.305-0.612-0.918-1.224-1.223
			c-0.918-1.225-1.53-0.613-2.448-0.307c-0.918,0.611-0.918,1.225-0.612,2.143c0.306,0.611,0.612,1.223,0.918,1.836
			c0.612,1.223,0.306,1.529-0.612,0.918c-0.306-0.307-0.918-0.918-1.224-1.225c-1.224-1.529-2.754-2.143-4.284-1.225
			c-0.918,0.613-0.918,2.143-0.306,3.061c0.612,0.611,0.918,0.918,1.53,1.529c0.918,0.918,0.918,1.836,0.612,1.531
			c-0.306,0-0.612-0.307-0.918-0.307c-1.53-0.918-3.06-1.836-4.59-2.447c-0.306-0.307-0.918,0-1.224,0
			c-0.612,0-1.224,0.611-0.918,1.223c0.306,0.307,0.306,0.613,0.612,0.918c0.918,0.613,1.53,1.531,2.448,2.143
			s0.918,1.225-0.306,0.611c-1.53-0.611-3.06-1.223-4.59-1.529c-1.53-0.307-3.366-1.225-5.202-0.611
			c-1.224,0.305-1.224,1.836-0.306,2.754c0.918,1.223,1.836,2.447,2.754,3.672c0.612,0.918,1.224,1.836,0.918,1.836
			s-0.306,0-0.612-0.307c-2.142-1.836-4.284-3.672-6.732-5.201c-0.306-0.307-0.918-0.307-1.224-0.307
			c-0.612,0-1.224,0.307-1.224,1.225c0,0.305,0,0.918,0.306,1.223c0.918,1.531,1.836,3.061,2.448,4.285
			c0.612,0.918,0.612,1.836,0.306,1.529c-0.306-0.305-0.612-0.305-0.918-0.611c-2.448-1.836-4.896-3.979-7.344-5.814
			c-1.224-0.918-2.754-1.225-4.59-1.225c-1.224,0.307-1.53,1.531-0.918,2.449c1.53,2.141,2.754,4.283,3.978,6.426
			c0.612,0.918,0.612,1.529,0,1.225c-0.306-0.307-0.612-0.613-0.918-0.918c-2.754-3.061-5.814-5.814-8.568-8.875
			c-0.918-0.918-1.836-1.529-3.06-1.836c-1.224-0.307-1.836,0.611-1.53,1.836c0.306,1.225,0.918,2.447,1.224,3.672
			s0.612,2.143,0.612,2.143s-0.918-0.611-1.53-1.531c-0.918-1.223-2.142-2.754-2.754-3.977c-2.448-3.979-6.426-5.508-10.404-7.039
			c-3.366-1.223-6.732,0-9.792,0.613c-6.426,1.529-13.158,2.754-19.584,4.59c-3.06,0.918-6.12,2.754-9.18,3.977
			c-7.956,3.674-16.524-1.223-17.442-8.873c0,0,0,0,0-0.307h0.306c0,0,0-0.611,0-1.529c0-0.611,0-1.225,0-1.836
			c0-3.978,0.306-2.447,2.142,0.611c0.612,0.918,1.224,1.531,1.224,1.531c0-0.307,0.306,0.305,0.918,1.223
			c0.612,0.918,1.224,1.531,1.224,1.836c0,0.307,0.306,0,0.306,0s0-0.918-0.306-2.141c-0.306-1.531-0.306-3.061,0-5.203
			c0.612-4.589,0.612-1.529,2.448,2.143c0.612,1.225,0.918,0.918,0.612-0.307c0-1.223,0-2.447,0.306-3.671
			c0.918-4.896,0.612-1.224,3.06,3.06c0.612,1.225,1.836,1.225,2.754,0.307c1.53-1.531,3.06-3.061,4.284-4.285
			c0.918-0.918,1.53-2.142,1.53-3.366c0-0.918-0.306-1.836-0.306-1.836c-3.06-0.918-6.12-1.836-8.874-3.06
			c-0.306,0-0.306,0-0.612-0.306c-0.306,0-0.612-0.306-0.612-0.306c0-0.306,0.612-0.612,1.53-0.612c0.612,0,1.224-0.306,1.53-0.306
			c1.53,0,2.754,0.306,4.284,0.612c7.956,1.836,15.606,1.836,22.95-2.448c1.224-0.918,2.754-1.224,3.978-2.142
			c0.612-0.306,1.224-0.612,1.224-1.224c0.612-1.53,1.836-3.366,1.53-4.284c-0.612-1.53,0-3.06-1.224-4.284c0,0,0,0-0.306,0
			c-0.306,0-0.612,0.306-0.918,0.918c-0.306,0.612-0.918,0.612-0.918,0.306c0-0.306-0.612-0.306-0.918,0
			c-0.306,0.306-0.918,0.612-1.224,0.306c-0.306-0.306-0.918,0-0.918,0c-0.306,0.306-0.918,0.306-1.224,0s-0.612,0.306-0.918,1.53
			c0,1.224-0.306,2.448-0.918,3.978c-1.53,3.978-0.918,1.836-1.836-2.142c-0.306-1.224-0.612-1.224-0.918,0
			c-0.306,1.224-0.612,2.142-1.224,3.672c-0.918,2.448-1.224,2.754-1.53,1.53c-0.306-1.224-0.612-2.142-0.612-2.142
			s-0.306-0.918-0.612-2.142c-0.306-0.918-0.918-0.918-1.224,0c0,0.612-0.306,1.224-0.612,1.836
			c-1.53,4.896-0.918,0.612-2.754-4.284c-0.306-1.224-0.918-0.918-0.918,0.306s-0.306,2.448-0.918,3.978
			c-1.53,4.59-0.918,1.224-2.142-3.06c-0.306-1.224-0.918-1.224-0.918-0.306s-0.306,1.836-0.612,1.836s-0.306-0.918-0.612-2.142
			c0-0.612-0.306-1.224-0.306-1.836c-0.306-1.224-0.612-2.142-0.612-2.142s0,1.224,0.306,2.448c0,1.836,0,3.672-0.918,6.12
			c-1.53,3.978-0.918,1.836-1.836-2.142c-0.306-1.224-0.612-1.224-0.918,0c0,0.918-0.306,2.142-0.918,3.06
			c-1.53,3.978-0.918,1.836-1.836-2.142c-0.306-1.224-0.612-1.224-0.918,0c0,0.918-0.306,1.836-0.612,2.754
			c-1.53,4.284-0.918,1.53-2.142-2.448c-0.306-1.224-0.612-1.224-0.918-0.306c0,0.612-0.306,1.224-0.612,1.836
			c-1.224,3.366-1.224,2.448-1.53,0c-0.306-1.224-0.612-1.53-0.612-0.612c0,0.612-0.306,0.918-0.306,1.53
			c-1.53,4.284-0.918,1.53-2.142-2.754c-0.306-1.224-0.918-2.142-0.918-2.142s-0.612,0.612-0.918,1.224
			c-0.306,0.612-0.612,0.612-0.918,0c-0.306-0.612-1.224,0-1.836,1.224c-2.142,5.202-1.224,10.098-2.754,4.896
			c-0.612-1.836-0.918-3.366-0.918-4.896c0-1.224,0-2.142-0.306-2.142H1.836c0,0-0.306,0.306-0.612,0.612
			c-0.306,0.306-0.612-0.306-0.918-1.53C0,272.952,0,272.034,0,271.421c0-1.836,0.306-3.978,0.612-5.814
			C3.978,262.548,6.12,260.406,10.098,259.793z"/>
		<path d="M220.932,336.293c-0.306,1.836-0.612,3.367-0.918,4.896c-0.612,2.143-1.224,4.283-2.448,6.121
			c-2.754,4.895-5.814,9.791-8.568,14.992c-0.612,0.918-0.918,2.143-1.224,3.367c-2.142,7.344-3.978,14.688-6.12,21.727
			c0,0.305,0,0.611-0.306,0.611c-1.836,2.143-2.142,4.896-2.754,7.65c-0.306,1.223,0.612,2.447,1.836,2.447
			c1.53,0,3.06,0,4.896-0.918c1.53-0.918,3.366-1.529,5.202-2.143c3.672-1.223,5.508-4.283,7.65-7.037
			c3.06-3.979,4.59-8.875,5.202-13.77c0.612-4.896,2.142-9.793,3.06-14.689c1.224-4.59,1.53-9.484,0.918-14.381
			c-0.306-2.143-1.836-4.59-2.754-6.732c-0.612-0.918-1.224-1.836-2.142-3.061C221.85,335.07,220.932,335.07,220.932,336.293z"/>
	</g>
</g>
<g>
</g>
<g>
</g>
<g>
</g>
<g>
</g>
<g>
</g>
<g>
</g>
<g>
</g>
<g>
</g>
<g>
</g>
<g>
</g>
<g>
</g>
<g>
</g>
<g>
</g>
<g>
</g>
<g>
</g>
</svg>
