<?xml version="1.0" encoding="iso-8859-1"?>
<!-- Generator: Adobe Illustrator 16.0.0, SVG Export Plug-In . SVG Version: 6.00 Build 0)  -->
<!DOCTYPE svg PUBLIC "-//W3C//DTD SVG 1.1//EN" "http://www.w3.org/Graphics/SVG/1.1/DTD/svg11.dtd">
<svg version="1.1" id="Capa_1" xmlns="http://www.w3.org/2000/svg" xmlns:xlink="http://www.w3.org/1999/xlink" x="0px" y="0px"
	 width="581.047px" height="581.047px" viewBox="0 0 581.047 581.047" style="enable-background:new 0 0 581.047 581.047;"
	 xml:space="preserve">
<g>
	<g>
		<path d="M579.535,249.843c-2.873-7.217-6.251-13.994-14.591-16.348c-0.371-0.106-0.652-0.502-1.02-0.657
			c-1.081-0.453-2.175-1.171-3.289-1.216c-2.635-0.102-5.304,0.379-7.919,0.155c-3.357-0.29-6.683-1.028-10.017-1.591
			c-2.407-0.404-4.802-0.897-7.213-1.24c-3.741-0.53-7.491-1.257-11.249-1.334c-2.036-0.041-3.814-0.11-5.549-1.224
			c-1.158-0.743-1.489-1.457-1.008-2.856c0.453-1.314,0.392-2.803,0.56-4.215c-0.208-0.053-0.412-0.11-0.62-0.163
			c-0.612,0.938-1.053,2.093-1.89,2.75c-0.885,0.698-2.342,1.526-3.202,1.244c-3.032-0.996-5.174-2.982-5.423-6.52
			c-0.069-1-0.775-1.95-1.188-2.926c-0.636,0.457-0.856,0.759-0.853,1.061c0.069,4.325-1.493,5.259-5.663,5.198
			c-0.611-0.008-1.228,0.041-1.844,0.049c-2.102,0.024-3.705-1.457-4.292-3.505c-0.392-1.367-1.225-2.607-1.861-3.905
			c-0.188,0.094-0.375,0.192-0.562,0.286c0.069,1.354,0.318,2.734,0.155,4.06c-0.123,0.992-0.53,2.252-1.257,2.803
			c-1.313,0.996-2.958,1.55-4.578,2.346c-0.562-1.966-1.126-3.921-1.685-5.875c-0.213,0.021-0.429,0.037-0.641,0.057
			c-0.253,1.518-0.689,3.031-0.71,4.549c-0.024,1.917-0.706,3.251-2.424,4.076c-2.138,1.032-4.227,2.195-6.434,3.04
			c-0.633,0.241-1.771-0.22-2.399-0.714c-1.298-1.028-2.411-2.293-3.599-3.464c-0.171,0.098-0.339,0.2-0.51,0.298
			c0.379,1.624,0.783,3.239,1.113,4.872c0.099,0.473,0.123,1.358-0.064,1.432c-2.184,0.856-4.374,1.864-6.655,2.224
			c-0.897,0.139-2.052-1.22-3.056-1.946c-0.514-0.372-0.955-0.853-1.432-1.281c-0.155,0.073-0.311,0.151-0.466,0.225
			c0.135,0.734,0.258,1.473,0.4,2.207c0.322,1.657-0.396,2.542-2.057,2.611c-2.762,0.118-5.386-0.171-6.87-2.183
			c-0.959,0.869-1.73,2.142-2.44,2.105c-2.701-0.13-5.508-0.31-8.046-1.155c-4.3-1.428-8.393-3.476-12.644-5.071
			c-2.737-1.024-4.741-2.285-3.799-5.667c0.024-0.086-0.126-0.22-0.069-0.131c-1.827,0.363-3.558,0.91-5.312,1.016
			c-3.782,0.229-6.479-3.48-5.157-6.899c0.171-0.444,0.452-0.877,0.497-1.334c0.18-1.791,0.678-3.627-0.534-5.349
			c-0.534,0.698-0.73,1.457-1.064,2.15c-2.158,4.447-4.603,5.757-9.091,3.55c-2.031-1-3.211-3.839-3.048-6.042
			c0.103-1.359-0.277-2.754-0.437-4.133c-0.261,0-0.518-0.004-0.779-0.004c-0.302,0.645-0.6,1.293-0.909,1.934
			c-1.216,2.526-4.158,4.088-6.671,3.448c-2.828-0.718-4.599-1.783-4.704-5.879c-0.017-0.677-0.408-1.35-0.625-2.023
			c-0.175-0.021-0.351-0.037-0.526-0.053c-0.95,3.631-3.239,5.382-6.883,5.092c-3.505-0.277-5.283-2.705-6.646-5.634
			c-1.265,2.807-5.688,3.713-7.906,2.664c-1.257-0.591-2.697-1.032-4.072-1.089c-2.089-0.082-4.186,0.278-6.287,0.367
			c-6.924,0.294-13.692-0.808-20.453-2.187c-14.101-2.885-28.192-5.843-42.362-8.335c-5.316-0.935-10.844-0.894-16.275-0.873
			c-3.644,0.012-4.541-1.208-5.639-4.019c-0.563-1.44-1.738-2.644-2.636-3.954c-0.236,0.114-0.473,0.229-0.71,0.343
			c0,1.281,0.049,2.566-0.024,3.843c-0.028,0.494-0.204,1.126-0.551,1.432c-3.158,2.807-8.103,1.11-9.176-2.999
			c-0.677-2.587-2.416-4.415-4.762-5.704c-0.171,0.27-0.302,0.379-0.306,0.498c-0.069,1.566-0.131,3.133-0.184,4.7
			c-0.057,1.726-2.807,4.052-4.488,3.681c-0.383-0.086-0.787-0.616-0.955-1.033c-1.008-2.505-1.836-5.083-2.954-7.536
			c-0.641-1.412-1.608-2.738-3.46-3.439c0,2.677,0.241,5.08-0.098,7.397c-0.179,1.22-1.375,2.289-2.113,3.427
			c-0.836-0.673-1.677-1.334-2.497-2.028c-0.139-0.118-0.143-0.383-0.261-0.542c-1.077-1.396-2.167-2.778-3.251-4.17
			c-0.204,0.106-0.408,0.208-0.616,0.314c-0.082,0.853,0.106,1.881-0.302,2.525c-1.065,1.677-2.134,3.57-3.705,4.635
			c-1.196,0.812-3.027-1.159-3.754-3.643c-0.057-0.196-0.171-0.384-0.196-0.58c-0.257-2.276-2.105-3.264-3.566-4.594
			c-0.085,0.563,0.041,1.02,0.074,1.481c0.155,2.448,0.432,4.904-1.253,7.046c-0.897,1.138-1.774,1.188-2.64,0.078
			c-0.494-0.637-0.808-1.408-1.256-2.085c-0.8-1.216-1.641-2.403-2.46-3.603c-0.175,0.061-0.351,0.118-0.526,0.18
			c-0.082,1.057-0.326,2.129-0.208,3.162c0.293,2.53-1.559,3.456-3.231,4.382c-1.228,0.682-2.416,0.225-3.031-1.138
			c-0.363-0.804-0.522-1.709-0.951-2.468c-0.82-1.457-1.767-2.844-2.66-4.26c-0.363,1.632-0.42,2.995-0.347,4.345
			c0.102,1.873-1.024,3.746-2.64,4.215c-1.693,0.494-3.023-0.49-4.117-2.477c-1.048-1.897-2.44-3.603-3.68-5.394
			c-0.22,0.094-0.44,0.191-0.661,0.285c0,1.191-0.094,2.395,0.024,3.574c0.159,1.62-0.384,2.913-1.816,3.538
			c-1.489,0.648-2.607-0.441-3.549-1.408c-0.429-0.44-0.514-1.208-0.792-1.808c-0.571-1.228-1.167-2.448-1.795-3.753
			c-0.449,0.363-0.624,0.433-0.641,0.53c-0.167,1.004-0.31,2.016-0.457,3.023c-0.253,1.75-1.804,3.464-3.33,3.468
			c-1.82,0.004-2.624-1.281-3.329-2.77c-0.441-0.926-1.232-1.681-1.869-2.514c-0.453,0.755-0.58,1.232-0.506,1.681
			c0.306,1.824-0.457,3.248-2.093,3.684c-2.383,0.637-4.884,0.836-7.336,1.2c-1.326,0.196-2.101-0.424-2.75-1.595
			c-0.567-1.02-1.509-1.828-2.652-3.154c-0.151,1.057-0.22,1.379-0.236,1.701c-0.139,2.824-0.375,3.048-3.289,3.064
			c-0.408,0-0.824-0.037-1.228,0.008c-1.444,0.159-2.224-0.367-2.636-1.869c-0.253-0.93-1.151-1.685-1.759-2.517
			c-0.191,0.102-0.379,0.208-0.571,0.31c-0.045,0.73,0.045,1.505-0.176,2.179c-0.212,0.653-0.681,1.64-1.154,1.709
			c-1.604,0.236-3.276,0.293-4.88,0.082c-0.604-0.082-1.073-1.094-1.624-1.657c-0.542-0.551-1.109-1.077-1.987-1.921
			c-0.078,1.632-0.13,2.754-0.192,4.015c-1.477,0.334-2.909,0.726-4.37,0.971c-2.913,0.489-6.01,1.681-8.103-1.747
			c-0.11-0.184-0.424-0.241-0.849-0.461c-0.098,1.302-0.18,2.407-0.266,3.583c-1.163,0.212-2.248,0.314-3.28,0.616
			c-2.272,0.657-4.349,0.82-5.83-1.526c-0.151-0.241-0.596-0.298-1.044-0.506c0.795,2.974,0.616,3.28-2.375,3.55
			c-2.301,0.204-4.778,0.958-6.614-1.428c0.192,0.669,0.379,1.338,0.628,2.211c-1.82,0.485-3.546,0.828-5.186,1.412
			c-1.595,0.571-3.003,0.596-4.329-0.547c-0.057-0.049-0.216,0.021-0.388,0.041c0.094,0.518,0.188,1.02,0.298,1.607
			c-2.46,0.649-4.863,1.143-7.165,1.938c-1.852,0.641-3.407,0.608-4.843-0.795c-0.11-0.11-0.339-0.102-0.739-0.208
			c0.322,0.62,0.547,1.044,0.808,1.542c-0.526,0.196-0.902,0.347-1.281,0.478c-12.199,4.284-24.382,8.604-35.447,15.463
			c-9.841,6.104-18.997,13.081-26.528,21.951c-3.505,4.125-7.059,8.16-9.433,13.244c-4.108,8.801-6.292,17.928-6.65,27.552
			c-0.355,9.503,1.681,18.666,4.19,27.74c0.42,1.526,1.342,2.913,2.036,4.366c0.237-0.069,0.478-0.144,0.714-0.213
			c0.069-1.391,0.225-2.782,0.192-4.165c-0.253-10.466-1.432-20.951,1.412-31.307c1.477-5.377,3.297-10.645,6.924-14.843
			c5.802-6.712,13.566-10.856,21.359-14.822c6.609-3.366,13.778-5.027,20.996-6.357c6.34-1.167,12.729-2.199,19.139-2.815
			c6.304-0.608,12.661-0.69,18.997-0.865c4.158-0.114,8.356-0.326,12.473,0.106c8.188,0.861,16.295,2.477,24.586,2.293
			c1.424-0.033,2.93-0.065,4.26,0.339c7.07,2.154,14.104,4.296,21.363,5.879c8.547,1.864,16.687,5.255,24.537,9.266
			c5.504,2.812,11.277,5.092,16.858,7.756c5.806,2.774,11.261,6.116,15.537,11.053c2.313,2.668,4.672,5.264,7.699,6.471
			c-3.933,4.129-7.944,8.213-11.808,12.432c-2.799,3.057-6.312,4.9-9.979,6.581c-1.975,0.906-3.872,1.979-5.867,2.832
			c-1.265,0.538-2.636,1.105-3.974,1.146c-3.264,0.102-6.381,0.62-9.098,2.488c-2.734,1.881-5.353,3.921-8.03,5.888
			c-2.272,1.669-3.762,3.88-4.578,6.569c-2.595,8.576-5.132,17.168-7.833,25.708c-1.799,5.691-4.459,10.991-8.462,15.476
			c-2.864,3.206-3.023,7.009-2.807,10.909c0.078,1.457,0.351,3.044,1.028,4.305c3.06,5.704,6.152,11.399,9.51,16.932
			c2.55,4.203,5.949,7.422,11.363,7.577c1.747,0.049,3.476,0.6,5.223,0.864c1.497,0.229,3.121,0.743,3.758-1.358
			c6.675,0.453,13.207,0.894,19.771,1.339c-0.061-3.244-3.843-7.047-6.704-7.405c-1.057-0.131-2.089-0.714-3.052-1.236
			c-0.788-0.429-1.383-1.326-2.199-1.571c-2.072-0.624-4.264-0.849-6.32-1.501c-3.484-1.102-4.235-2.396-3.929-6.055
			c0.465-5.533,0.253-11.024-0.901-16.467c-0.09-0.433-0.037-0.91,0.016-1.359c0.31-2.603,0.971-5.214,0.877-7.801
			c-0.119-3.305,0.906-6.25,2.142-9.123c0.958-2.224,2.432-4.227,3.7-6.312c1.591-2.615,2.881-5.5,4.868-7.772
			c8.086-9.253,18.148-14.223,30.698-14.569c11.012-0.306,22.085-0.624,32.95-2.812c5.157-1.036,10.6-1.183,15.202-4.194
			c2.215-1.448,4.121-0.774,6.434,0.005c10.947,3.68,21.68,8.184,33.676,9.457c-1.286,1.253-2.396,2.514-3.681,3.55
			c-2.975,2.398-5.512,5.092-6.598,8.861c-0.787,2.742-1.351,5.553-2.239,8.258c-1.673,5.097-0.661,9.552,2.525,13.782
			c3.316,4.411,6.446,8.964,9.567,13.521c2.199,3.211,4.153,6.573,4.549,10.575c0.213,2.167,0.168,4.378,0.584,6.504
			c0.343,1.763,1.134,3.455,1.856,5.124c0.15,0.352,0.856,0.633,1.297,0.62c0.266-0.008,0.674-0.616,0.739-0.999
			c0.171-1,0.208-2.028,0.269-3.044c0.118-1.877,1.335-3.383,2.815-3.407c-0.526,1.195-1.094,2.354-1.559,3.55
			c-0.86,2.216-0.135,5.06,1.575,6.63c3.745,3.432,8.604,4.256,13.228,4.696c6.907,0.657,13.908,0.326,20.869,0.42
			c2.228,0.029,4.455,0.11,6.679,0.103c0.416,0,1.139-0.236,1.195-0.485c0.318-1.375,1.379-1.188,2.261-1.102
			c3.271,0.33,6.531,0.75,9.89,1.15c0,0.008,0.081-0.282-0.013-0.49c-1.656-3.721-4.41-6.095-8.445-6.973
			c-0.894-0.191-1.893-0.521-2.538-1.117c-2.093-1.946-4.361-2.036-7.025-1.474c-3.647,0.775-7.201,0.416-10.11-2.342
			c-1.514-1.436-3.003-2.9-4.521-4.328c-1.881-1.771-3.966-3.362-5.639-5.312c-2.443-2.848-4.781-5.74-8.213-7.499
			c-0.559-0.286-1.061-0.882-1.354-1.457c-2.941-5.753-5.773-11.562-8.768-17.287c-1.396-2.664-1.519-5.32-0.633-8.082
			c1.918-5.973,5.145-10.771,11.016-13.745c7.267-3.681,13.93-8.308,19.515-14.35c0.355-0.384,1.285-0.416,1.91-0.331
			c4.77,0.678,9.506,1.652,14.296,2.081c3.79,0.339,7.638,0,11.461,0.053c0.632,0.009,1.493,0.323,1.84,0.796
			c1.199,1.645,2.187,3.443,3.309,5.146c1.979,3.002,3.269,6.14,1.95,10.184c1.27,0.322,2.656,1.134,3.411,0.738
			s1.057-1.971,1.22-3.076c0.2-1.354,0.045-2.759,0.045-4.142c0.808,0.184,1.204,0.543,1.502,0.971
			c0.265,0.384,0.42,0.845,0.62,1.273c0.485-0.416,1.248-0.751,1.403-1.269c0.522-1.718-0.522-2.783-1.856-3.668
			c-1.298-0.861-2.717-1.633-3.782-2.734c-0.661-0.685-0.983-1.913-0.987-2.896c0-0.31,1.546-0.938,2.354-0.885
			c4.043,0.265,8.078,0.705,11.644,1.04c-0.265,2.692-0.392,5.006-0.746,7.287c-0.326,2.093-1.257,3.985-3.823,4.239
			c-0.987,0.098-1.941,0.48-2.913,0.729c0.028,0.225,0.062,0.449,0.09,0.674c1.199,0.098,2.416,0.105,3.587,0.334
			c0.481,0.094,1.235,0.686,1.22,1.021c-0.024,0.567-0.433,1.399-0.91,1.619c-2.321,1.077-4.721,1.983-7.083,2.971
			c-0.375,0.155-0.697,0.433-1.48,0.93c2.109,0.629,3.77,1.604,5.373,1.515c5.77-0.318,9.955-3.729,9.38-10.062
			c-0.077-0.841-0.057-1.8,0.273-2.55c0.633-1.449,1.518-2.783,2.379-4.305c4.243,1.856,8.372,0.669,11.958-2.591
			c2.012-1.828,3.852-3.872,5.59-5.969c3.239-3.905,6.34-7.928,9.519-11.886c0.849-1.057,1.615-2.264,2.681-3.052
			c5.39-3.974,11.555-6.107,18.087-7.287c0.31-0.057,0.652,0.054,0.975,0.11c3.329,0.608,6.634,1.506,9.988,1.771
			c6.111,0.481,12.252,0.67,18.384,0.792c1.747,0.037,2.645,0.648,3.493,2.097c1.228,2.094,2.439,4.391,4.238,5.921
			c4.13,3.517,9.009,5.817,14.28,7.205c8.291,2.183,16.202,5.1,22.819,10.856c2.461,2.143,5.211,3.958,7.871,5.863
			c2.293,1.645,5.022,2.954,7.653,1.881c3.986-1.628,7.712-3.925,11.461-6.088c0.567-0.326,1.077-1.554,0.918-2.187
			c-0.358-1.428,0.099-2.574,0.478-3.855c0.261-0.882,0.151-1.926-0.021-2.852c-0.098-0.519-0.828-0.902-0.983-1.429
			c-0.229-0.771-0.199-1.615-0.33-2.97c-0.73,1.46-1.199,2.395-1.812,3.619c-0.217-1.037-0.355-1.714-0.555-2.685
			c-0.719,1.023-1.253,1.787-1.787,2.554c-0.09-0.151-0.18-0.306-0.266-0.457c0.212-2.9,0.429-5.802,0.645-8.702
			c-0.15-0.021-0.302-0.041-0.452-0.062c-0.506,1.171-1.008,2.338-1.51,3.509c-0.106-0.033-0.217-0.062-0.322-0.094
			c0-0.857,0-1.714,0-2.473c-0.996,1.232-1.987,2.456-2.979,3.68c-0.159-0.13-0.318-0.257-0.478-0.387
			c2.269-2.8,2.986-5.921,1.909-8.274c-2.586,5.242-3.153,5.806-4.781,4.953c0.673-1.543,1.285-3.097,2.036-4.586
			c0.392-0.779,0.881-1.677,1.578-2.094c1.245-0.746,1.604-1.514,0.788-2.934c-1.567-0.13-3.256-0.032-4.786-0.477
			c-1.392-0.404-2.84-1.167-3.855-2.179c-2.497-2.481-2.272-5.643-1.686-8.821c0.747-4.043,1.677-7.919,4.99-10.853
			c1.905-1.689,3.496-3.758,5.079-5.773c0.768-0.979,1.188-2.228,1.686-3.19c3.565-0.103,2.027,3.068,3.276,5.096
			c0.746-1.481,1.265-2.509,1.909-3.782c1.236,0.326,2.619,0.693,4.382,1.159c-0.971,1.737-1.733,3.112-2.501,4.487
			c0.094,0.147,0.191,0.29,0.285,0.437c1.457-0.828,2.918-1.66,4.647-2.644c-0.126,1.648-0.244,3.121-0.358,4.599
			c0.163,0.085,0.33,0.171,0.493,0.257c1.253-1.812,2.501-3.623,3.754-5.435c0.146,0.065,0.298,0.13,0.444,0.195
			c-0.518,2.064-1.032,4.129-1.595,6.373c3.316-1.611,3.419-5.152,5.059-7.601c0.225,0.065,0.453,0.13,0.682,0.195
			c0.273,1.318,0.551,2.632,0.824,3.95c0.229,0.028,0.457,0.061,0.689,0.089c0.396-1.66,0.796-3.32,1.191-4.981
			c0.159,0.013,0.318,0.024,0.478,0.037c-0.135,1.954-0.27,3.912-0.416,6.071c2.072-2.306,3.614-4.623,3.533-7.777
			c0.306,0.641,0.607,1.281,0.922,1.938c0.191-0.135,0.384-0.196,0.399-0.294c0.543-2.721,3.644-4.219,3.501-7.295
			c-0.013-0.298,0.399-0.682,0.702-0.922c2.293-1.832,2.941-3.644,2.166-6.369C580.388,252.275,580.008,251.039,579.535,249.843z"/>
	</g>
</g>
<g>
</g>
<g>
</g>
<g>
</g>
<g>
</g>
<g>
</g>
<g>
</g>
<g>
</g>
<g>
</g>
<g>
</g>
<g>
</g>
<g>
</g>
<g>
</g>
<g>
</g>
<g>
</g>
<g>
</g>
</svg>
