<svg height="512pt" viewBox="0 -78 512 511" width="512pt" xmlns="http://www.w3.org/2000/svg"><path d="m257 .5c-140.832031 0-257 47.011719-257 105 0 25.929688 22.941406 49.621094 60.773438 67.941406 7.820312-46.398437 93.695312-82.941406 196.226562-82.941406s186.40625 36.542969 194.226562 82.941406c37.832032-18.320312 60.773438-42.011718 60.773438-67.941406 0-57.988281-114.167969-105-255-105zm0 0"/><path d="m403.898438 221.234375c18.820312 5.539063 37.113281 12.90625 54.253906 22.664063 11.742187 6.671874 21.234375 16.265624 27.9375 27.492187 16.429687-13.878906 25.910156-29.410156 25.910156-45.890625v-90c0 35.445312-42.777344 66.722656-108.101562 85.734375zm0 0"/><path d="m167.832031 323.71875c-.378906-2.710938-.832031-5.402344-.832031-8.21875v-60c0-7.523438 1.550781-14.652344 4.085938-21.292969-98.488282-14.523437-171.085938-53.152343-171.085938-98.707031v90c0 45.050781 71.046875 83.328125 167.832031 98.21875zm0 0"/><path d="m343.910156 333.585938c19.140625 3.21875 37.878906 8.890624 55.253906 17.4375 15.816407 7.773437 33.0625 6.398437 46.582032-2.023438 13.316406-8.261719 21.253906-22.660156 21.253906-38.511719 0-16.683593-9.066406-32.210937-23.6875-40.515625-30.027344-17.101562-63.753906-26.585937-98.175781-28.617187 1.109375 4.554687 1.863281 9.25 1.863281 14.144531v60c0 6.34375-1.257812 12.34375-3.089844 18.085938zm0 0"/><path d="m242 300.5h-45v15c0 16.566406 13.429688 30 30 30h60c16.570312 0 30-13.433594 30-30v-60c0-16.570312-13.429688-30-30-30h-60c-16.570312 0-30 13.429688-30 30v15h45c8.289062 0 15 6.710938 15 15s-6.710938 15-15 15zm0 0"/></svg>