<svg id="Layer_3" enable-background="new 0 0 64 64" height="512" viewBox="0 0 64 64" width="512" xmlns="http://www.w3.org/2000/svg"><path d="m49.975 43.895.614-.307c1.672-.836 2.918-2.273 3.51-4.048l.901-2.703v-7.837l.042-.49-2.563 1.122c-7.402 3.238-12.92 9.551-15.139 17.318l-.215.753c2.405 1.147 4.376 3.062 5.572 5.453l.894 1.788c.47-.017.94-.026 1.41-.055v-2.945c-.001-3.431 1.905-6.516 4.974-8.049z"/><path d="m55.997 40.173c-.76 2.28-2.363 4.129-4.513 5.204l-.614.307c-2.388 1.192-3.87 3.591-3.87 6.26v2.774c2.351-.231 4.689-.596 6.989-1.128l5.011-1.155v-4.738c0-.985-.203-1.941-.604-2.843l-2.263-5.092z"/><path d="m60.188 54.214-5.75 1.326c-4.196.969-8.509 1.46-12.816 1.46h-12.402c-8.506 0-17.023-1.943-24.692-5.626l-1.255 3.139c7.547 3.665 15.619 5.758 24.008 6.224l4.347.241c1.434-1.279 3.264-1.978 5.201-1.978h5.755c1.082 0 2.164.256 3.131.739l2.419 1.209 12.723-2.726z"/><path d="m43 3h4v12h-4z"/><path d="m41.382 55-.475-.949c-1.056-2.113-2.833-3.789-5.004-4.719l-.267-.114c-2.209-.947-3.636-3.112-3.636-5.515v-.318c0-1.087.295-2.154.855-3.087l2.005-3.342-1.545-3.091-1.344 5.377c-.083.332-.33.599-.654.706l-15 5c-.103.034-.21.052-.317.052h-7c-1.654 0-3 1.346-3 3v1.832c7.244 3.371 15.232 5.168 23.22 5.168z"/><path d="m41 17h8v4h-8z"/><path d="m36.895 36.553c.153.306.139.669-.037.962l-2.288 3.812c-.373.621-.57 1.333-.57 2.058v.318c0 1.16.504 2.231 1.337 2.977l.08-.278c2.384-8.344 8.311-15.124 16.26-18.602l3.562-1.558 1.671-19.242h-7.91v8h1c.552 0 1 .448 1 1v6c0 .552-.448 1-1 1h-10c-.552 0-1-.448-1-1v-6c0-.552.448-1 1-1h1v-8h-11.78l4.734 23.672z"/></svg>