<svg height="512" viewBox="0 0 44 56" width="512" xmlns="http://www.w3.org/2000/svg"><g id="Page-1" fill="none" fill-rule="evenodd"><g id="022---Pirate-Boot" fill="rgb(0,0,0)" fill-rule="nonzero"><path id="Shape" d="m29.552 18.662c-2.984-.514-7.445-1.577-10.552-3.6v2.359c3.3902748 1.8947289 7.1270704 3.0880685 10.988 3.509z"/><path id="Shape" d="m17 2.557v-1.557c0-.55228475-.4477153-1-1-1h-2c-.5522847 0-1 .44771525-1 1v1.556c1.2300938-.74203142 2.7699062-.74203142 4 0z"/><path id="Shape" d="m16 20v18h9v-15.976c-2.2857668-.6145809-4.4915173-1.4952701-6.572-2.624-.3753713.3847399-.8904807.6011724-1.428.6z"/><path id="Shape" d="m17 10v-4c0-1.1045695-.8954305-2-2-2s-2 .8954305-2 2v4l2 2z"/><path id="Shape" d="m26.586 3.258c-.1698831-.85107989-.864171-1.49867946-1.725-1.609-1.2-.163-3.32-.45-5.861-.6v11.507c2.5 2.234 7.208 3.438 10.146 4z"/><path id="Shape" d="m31.163 48.056c-.5658069-.3405405-1.1132358-.7107226-1.64-1.109-.3.511-.613 1-.91 1.454l1.7 1.02c.268-.421.56-.893.85-1.365z"/><path id="Shape" d="m17 12.827-.587.587c-.7809997.7807639-2.0470003.7807639-2.828 0l-.585-.586v5.172h4z"/><path id="Shape" d="m25.439 50.697 3.258 1.955.889-1.334-3.283-1.97z"/><path id="Shape" d="m23.439 54.614c.667.23 1.405.447 2.2.641.434-.447.852-.9 1.249-1.354l-1.741-1.044c-.647.729-1.226 1.308-1.708 1.757z"/><path id="Rectangle-path" d="m10 44h4v8h-4z"/><rect id="Rectangle-path" height="2" rx="1" width="7" x="10" y="54"/><path id="Shape" d="m23.462 51.121c-.1183335-.5335672-.0147414-1.0923149.287-1.548l.89-1.334c.4845473-.7233799 1.383259-1.0475321 2.218-.8.291-.436.682-1.047 1.122-1.8-.5289178-.5098394-1.0198906-1.0576301-1.469-1.639h-10.51v8h1.362c.5894814-.0020062 1.1661274.1721019 1.656.5.7457404.4873815 1.5280755.9163285 2.34 1.283.8082014-.6840166 1.5658465-1.4256198 2.267-2.219-.0718923-.1406-.1266184-.2893341-.163-.443z"/><path id="Shape" d="m41.6 51c-3.002831-.0210828-5.9643419-.7018036-8.675-1.994l-.034.055c-.463.751-.935 1.512-1.324 2.089.0407944.4494665-.0716304.899518-.319 1.277l-.89 1.334c-.3312102.4927288-.8659516.8109312-1.457.867-.306.364-.612.728-.93 1.078 1.3340201.1962426 2.680623.2945056 4.029.294h11c.5522847 0 1-.4477153 1-1v-1.6c0-1.3254834-1.0745166-2.4-2.4-2.4z"/><path id="Shape" d="m11 15.06c-3.11 2.028-7.578 3.09-10.562 3.6l-.438 2.271c3.86524934-.4203657 7.60627242-1.6147723 11-3.512z"/><path id="Shape" d="m11 1.051c-2.541.148-4.658.435-5.861.6-.86084866.11103423-1.55493115.75884455-1.725 1.61l-2.568 13.3c2.937-.561 7.654-1.768 10.154-4.005z"/><path id="Shape" d="m14 38v-18h-1c-.5375193.0011724-1.0526287-.2152601-1.428-.6-1.65890218.9039861-3.40008862 1.6480084-5.2 2.222l3.439 16.378z"/><rect id="Rectangle-path" height="2" rx="1" width="18.001" x="9" y="40"/></g></g></svg>