<svg height="512pt" viewBox="0 -2 512.00914 512" width="512pt" xmlns="http://www.w3.org/2000/svg"><path d="m169.398438 16.679688c1.1875 3.59375 2.605468 7.078124 4.113281 10.46875.277343.613281.539062 1.234374.824219 1.828124 1.507812 3.246094 3.144531 6.402344 4.882812 9.417969.347656.605469.695312 1.191407 1.050781 1.828125 1.828125 3.046875 3.65625 6 5.605469 8.816406.210938.300782.429688.582032.640625.914063.785156 1.125 1.609375 2.148437 2.414063 3.226563 15.402343-9.132813 36.304687-11.117188 66.988281-11.117188 30.683593 0 51.582031 1.984375 66.988281 11.054688.804688-1.082032 1.628906-2.105469 2.414062-3.230469.210938-.300781.429688-.582031.640626-.914063 1.949218-2.816406 3.8125-5.769531 5.605468-8.8125.355469-.59375.703125-1.179687 1.050782-1.828125 1.738281-3.035156 3.375-6.171875 4.882812-9.417969.28125-.601562.546875-1.226562.824219-1.828124 1.507812-3.390626 2.921875-6.875 4.113281-10.46875.082031-.246094.136719-.511719.21875-.769532 1.128906-3.53125 2.0625-7.125 2.796875-10.757812.074219-.367188.15625-.722656.230469-1.089844-28.019532 13.367188-58.726563 20.132812-89.765625 19.777344-31.035157.375-61.742188-6.367188-89.765625-19.714844.074218.367188.15625.722656.230468 1.089844.734376 3.636718 1.667969 7.226562 2.796876 10.761718.082031.253907.136718.546876.21875.765626zm0 0"/><path d="m381.074219 177.84375-23.46875-43.046875h-.121094c-3.820313.230469-7.503906.640625-11.089844 1.160156l-.640625.101563-1.425781.21875c-3.574219.585937-7.058594 1.28125-10.359375 2.167968-7.542969 2.046876-15.605469.789063-22.167969-3.457031-2.714843-1.722656-5.097656-3.917969-7.042969-6.480469l-9.140624-12.234374c-5.144532-6.828126-6.792969-15.667969-4.453126-23.890626 1.40625-4.945312 4.167969-9.402343 7.972657-12.863281 4.148437-3.816406 8.113281-7.777343 11.886719-11.886719l.144531-.152343c-11.96875-5.871094-29.585938-7.132813-55.25-7.132813-25.664063 0-43.28125 1.261719-55.230469 7.105469l.144531.152344c3.777344 4.121093 7.742188 8.082031 11.886719 11.886719 10.515625 9.492187 12.042969 25.441406 3.519531 36.753906l-9.144531 12.234375c-1.328125 1.734375-2.863281 3.300781-4.570312 4.664062-6.886719 5.65625-16.089844 7.625-24.6875 5.273438-3.289063-.914063-6.765626-1.570313-10.328126-2.15625l-1.519531-.238281-.601562-.09375c-3.605469-.519532-7.316407-.914063-11.136719-1.167969l-23.480469 43.042969c-5.769531 10.691406-3.867187 23.898437 4.683594 32.53125l23.074219 23.078124 75.101562-57.773437c13.144532-10.117187 31.449219-10.117187 44.597656 0l75.097657 57.761719 23.078125-23.074219c8.523437-8.628906 10.421875-21.808594 4.671875-32.484375zm-225.726563 28.789062c-5.050781 0-9.144531-4.09375-9.144531-9.140624 0-5.050782 4.09375-9.144532 9.144531-9.144532 5.046875 0 9.140625 4.09375 9.140625 9.144532 0 5.046874-4.09375 9.140624-9.140625 9.140624zm201.140625 0c-5.046875 0-9.140625-4.09375-9.140625-9.140624 0-5.050782 4.09375-9.144532 9.140625-9.144532 5.050781 0 9.144531 4.09375 9.144531 9.144532 0 5.046874-4.09375 9.140624-9.144531 9.140624zm0 0"/><path d="m303.835938 347.898438c-4.222657-.667969-8.367188-1.242188-12.460938-1.746094-1.828125-.226563-3.703125-.4375-5.585938-.640625-3.457031-.375-6.851562-.65625-10.203124-.914063-1.683594-.125-3.347657-.28125-5.039063-.375-4.992187-.28125-9.894531-.457031-14.628906-.457031s-9.636719.175781-14.628907.457031c-1.691406.09375-3.355468.25-5.039062.375-3.355469.25-6.746094.53125-10.203125.914063-1.882813.203125-3.738281.414062-5.585937.640625-4.09375.503906-8.226563 1.078125-12.460938 1.746094-.914062.136718-1.828125.265624-2.742188.414062-5.523437.914062-11.144531 1.96875-16.871093 3.160156-8.800781 1.832032-16.546875 3.660156-22.371094 5.214844-2.394531.621094-4.425781 2.214844-5.59375 4.394531-1.242187 2.238281-1.492187 4.890625-.6875 7.316407 6.363281 18.53125 14.386719 36.449218 23.980469 53.53125h.339844c1.015624 0 2.027343.0625 3.035156.183593 15.953125 1.964844 32.96875 3.199219 50.753906 3.65625 5.953125.195313 11.980469.292969 18.074219.292969 22.988281.078125 45.960937-1.238281 68.789062-3.941406 1.125-.136719 2.242188-.15625 3.382813-.183594 9.59375-17.082031 17.621094-35 23.984375-53.53125.804687-2.425781.554687-5.078125-.6875-7.3125-1.171875-2.183594-3.199219-3.777344-5.59375-4.398438-5.824219-1.527343-13.570313-3.390624-22.375-5.210937-5.722657-1.21875-11.34375-2.273437-16.867188-3.164063-.878906-.15625-1.820312-.285156-2.714843-.421874zm-102.773438 59.878906c-5.050781 0-9.144531-4.09375-9.144531-9.144532 0-5.050781 4.09375-9.140624 9.144531-9.140624 5.046875 0 9.140625 4.089843 9.140625 9.140624 0 5.050782-4.09375 9.144532-9.140625 9.144532zm118.855469-9.144532c0 5.050782-4.09375 9.144532-9.144531 9.144532-5.046876 0-9.140626-4.09375-9.140626-9.144532 0-5.050781 4.09375-9.140624 9.140626-9.140624 5.050781 0 9.144531 4.089843 9.144531 9.140624zm0 0"/><path d="m380.003906 116.730469c11.660156.882812 23.226563 2.753906 34.570313 5.585937l28.1875-84.550781c1.566406-4.699219-.894531-9.792969-5.550781-11.484375l-72.347657-26.27734375c-.117187.99609375-.320312 1.95703175-.464843 2.93359375-.164063 1.152344-.328126 2.296875-.53125 3.429688-.300782 1.664062-.65625 3.308593-1.03125 4.957031-.238282 1.058593-.46875 2.121093-.734376 3.171875-.4375 1.71875-.914062 3.402344-1.453124 5.082031-.28125.914063-.539063 1.828125-.839844 2.746094-.640625 1.945312-1.355469 3.855469-2.085938 5.75-.226562.601562-.429687 1.214843-.667968 1.828125-1.003907 2.503906-2.078126 4.960937-3.21875 7.367187-.082032.183594-.179688.367188-.273438.558594-1.054688 2.183594-2.144531 4.316406-3.273438 6.402344-.375.703125-.777343 1.371093-1.167968 2.0625-.914063 1.566406-1.746094 3.109375-2.660156 4.574219-.484376.792968-.980469 1.5625-1.472657 2.339843-.859375 1.363281-1.710937 2.742188-2.597656 4.03125-.53125.796875-1.070313 1.5625-1.609375 2.339844-.867188 1.253906-1.738281 2.496094-2.625 3.660156-.554688.757813-1.113281 1.496094-1.671875 2.238281-.914063 1.179688-1.828125 2.339844-2.679687 3.472657l-1.671876 2.078125-.210937.265625c-.832031 1.011719-1.664063 1.992187-2.496094 2.96875-.539062.632812-1.078125 1.273437-1.617187 1.882812-.914063 1.082031-1.828125 2.105469-2.742188 3.128907-.511718.546874-1.007812 1.113281-1.511718 1.644531-.5.53125-.914063.914062-1.316407 1.398437l-.125.136719-1.4375 1.492187-1.316406 1.363282c-1.042969 1.050781-2.046875 2.046875-3.054687 3.023437-.320313.3125-.648438.652344-.96875.914063-1.269532 1.226562-2.511719 2.386718-3.703126 3.484375l-.089843.082031c-2.578125 2.328125-3.636719 5.898438-2.742188 9.253906.300781 1.105469.8125 2.144532 1.5 3.0625l9.140625 12.222656c2.332032 2.992188 6.246094 4.273438 9.894532 3.238282 3.300781-.914063 6.609374-1.601563 9.917968-2.203125 1.289063-.238281 2.578125-.382813 3.867188-.585938l1.261718-.183593c.523438-.082032 1.035157-.171876 1.566407-.238282 1.066406-.144531 2.136719-.300781 3.207031-.417968 1.445312-.15625 2.871094-.246094 4.304688-.367188 1.832031-.144531 3.703124-.300781 5.535156-.382812 1.25-.054688 2.484375-.082032 3.726562-.101563h.414063c1.105469 0 2.25-.089844 3.34375-.089844.851562 0 1.664062.042969 2.507812.054688.839844.007812 1.746094 0 2.613281.054687 2.589844.070313 5.117188.195313 7.582032.375zm-32.65625-10.667969c-5.050781 0-9.144531-4.09375-9.144531-9.144531 0-5.046875 4.09375-9.140625 9.144531-9.140625 5.046875 0 9.140625 4.09375 9.140625 9.140625 0 5.050781-4.09375 9.144531-9.140625 9.144531zm18.285156-54.859375c0-5.046875 4.09375-9.140625 9.140626-9.140625 5.050781 0 9.144531 4.09375 9.144531 9.140625 0 5.050781-4.09375 9.144531-9.144531 9.144531-5.046876 0-9.140626-4.09375-9.140626-9.144531zm0 0"/><path d="m356.289062 258.8125-89.226562-68.636719c-6.570312-5.050781-15.71875-5.050781-22.289062 0l-89.226563 68.644531c-3.675781 2.828126-4.648437 7.960938-2.265625 11.941407l36.992188 61.660156c5.484374-1.070313 11.207031-2.058594 17.132812-2.964844l.914062-.125c4.675782-.695312 9.441407-1.304687 14.300782-1.832031l3.261718-.355469c3.976563-.402343 7.996094-.726562 12.070313-.976562 1.125-.074219 2.285156-.175781 3.398437-.238281 4.847657-.246094 9.71875-.410157 14.628907-.410157 4.910156 0 9.765625.164063 14.628906.410157 1.117187.0625 2.277344.164062 3.402344.238281 4.070312.253906 8.09375.582031 12.066406.976562l3.257813.355469c4.875.542969 9.648437 1.152344 14.316406 1.832031l.859375.125c5.925781.914063 11.65625 1.894531 17.132812 2.953125l36.992188-61.648437c2.371093-4 1.359375-9.144531-2.347657-11.949219zm-155.226562 48.390625c-5.050781 0-9.144531-4.09375-9.144531-9.140625 0-5.050781 4.09375-9.144531 9.144531-9.144531 5.046875 0 9.140625 4.09375 9.140625 9.144531 0 5.046875-4.09375 9.140625-9.140625 9.140625zm54.855469-82.285156c-5.050781 0-9.144531-4.09375-9.144531-9.140625 0-5.050782 4.09375-9.144532 9.144531-9.144532s9.144531 4.09375 9.144531 9.144532c0 5.046875-4.09375 9.140625-9.144531 9.140625zm54.855469 82.285156c-5.046876 0-9.140626-4.09375-9.140626-9.140625 0-5.050781 4.09375-9.144531 9.140626-9.144531 5.050781 0 9.144531 4.09375 9.144531 9.144531 0 5.046875-4.09375 9.140625-9.144531 9.140625zm0 0"/><path d="m162.714844 46.3125c-.390625-.695312-.792969-1.363281-1.167969-2.066406-1.136719-2.101563-2.226563-4.234375-3.273437-6.398438-.09375-.191406-.195313-.375-.277344-.558594-1.136719-2.402343-2.210938-4.859374-3.214844-7.367187-.238281-.597656-.441406-1.207031-.667969-1.832031-.734375-1.890625-1.445312-3.800782-2.085937-5.75-.300782-.914063-.558594-1.828125-.839844-2.742188-.511719-1.683594-1.015625-3.363281-1.453125-5.082031-.265625-1.054687-.496094-2.113281-.734375-3.175781-.375-1.644532-.730469-3.289063-1.03125-4.953125-.203125-1.132813-.367188-2.277344-.53125-3.429688-.144531-.976562-.347656-1.9375-.464844-2.9335935l-72.347656 26.2578125c-4.65625 1.691406-7.117188 6.785156-5.550781 11.484375l28.1875 84.550781c2.695312-.675781 6.109375-1.425781 9.800781-2.164062h.121094c2.285156-.457032 4.660156-.914063 7.3125-1.316406.476562-.082032.988281-.140626 1.460937-.222657 2.746094-.429687 5.644531-.8125 8.707031-1.160156 2.523438-.28125 5.101563-.546875 7.769532-.738281 1.144531-.085938 2.332031-.113282 3.503906-.167969 2.441406-.136719 4.898438-.234375 7.433594-.273437h3.847656 1.984375c1.890625 0 3.792969.128906 5.703125.238281 1.328125.082031 2.632812.164062 3.96875.273437 2.203125.183594 4.40625.441406 6.628906.722656l2.101563.285157c1.042969.144531 2.078125.273437 3.117187.445312 3.960938.660157 7.917969 1.464844 11.886719 2.515625 2.191406.554688 4.507813.328125 6.546875-.640625 1.308594-.582031 2.457031-1.472656 3.347656-2.59375l5.484375-7.316406 3.65625-4.890625c2.0625-2.769531 2.390625-6.464844.84375-9.554688-.523437-1.035156-1.230469-1.964843-2.085937-2.742187-1.214844-1.117187-2.488282-2.3125-3.792969-3.566406-.320313-.300781-.652344-.640625-.96875-.914063-1.007813-.980468-2.011719-1.976562-3.054687-3.027344l-1.316407-1.363281c-.484375-.492187-.914062-.984375-1.445312-1.496093l-.117188-.121094-1.320312-1.40625c-.5-.53125-.996094-1.097656-1.507813-1.648438-.914062-1.023437-1.828125-2.046875-2.789062-3.125-.539063-.613281-1.078125-1.253906-1.617188-1.882812-.832031-.980469-1.664062-1.957032-2.496094-2.972656l-.210937-.265626-1.671875-2.074218c-.914062-1.132813-1.828125-2.296875-2.679688-3.476563-.558593-.738281-1.113281-1.480469-1.671874-2.238281-.914063-1.207031-1.757813-2.449219-2.625-3.65625-.539063-.777344-1.078126-1.546875-1.609376-2.339844-.914062-1.316406-1.738281-2.671875-2.597656-4.035156-.492187-.777344-.984375-1.542969-1.46875-2.339844-.953125-1.644531-1.867187-3.191406-2.726562-4.753906zm-25.652344 14.035156c-5.050781 0-9.144531-4.09375-9.144531-9.144531 0-5.046875 4.09375-9.140625 9.144531-9.140625 5.046875 0 9.140625 4.09375 9.140625 9.140625 0 5.050781-4.09375 9.144531-9.140625 9.144531zm36.570312 36.570313c0 5.050781-4.09375 9.144531-9.144531 9.144531-5.046875 0-9.140625-4.09375-9.140625-9.144531 0-5.046875 4.09375-9.140625 9.140625-9.140625 5.050781 0 9.144531 4.09375 9.144531 9.140625zm0 0"/><path d="m162.175781 432.40625c1.25-1.527344 2.664063-2.917969 4.214844-4.140625-9.582031-17.328125-17.621094-35.46875-24.019531-54.207031-2.328125-7.222656-1.59375-15.078125 2.03125-21.742188 3.5625-6.605468 9.71875-11.429687 16.988281-13.304687 3.125-.832031 6.492187-1.671875 10.011719-2.511719l-33.828125-56.339844c-7.015625-11.738281-4.308594-26.851562 6.34375-35.429687l-21.429688-21.429688c-14.253906-14.378906-17.425781-36.390625-7.808593-54.207031l18.597656-34.09375h-.3125c-1.828125.136719-3.558594.28125-5.277344.464844l-1.234375.148437c-3.855469.429688-7.503906.914063-10.839844 1.523438-5.679687 15.207031-12.34375 31.085937-19.871093 47.222656-16.746094 36.035156-20.964844 76.632813-11.984376 115.339844 4.910157 20.425781 7.457032 41.351562 7.589844 62.363281 0 11.554688 1.746094 35.65625 5.035156 69.578125 2.277344 23.519531 17.328126 43.871094 39.152344 52.933594 12.089844 5.007812 24.492188 9.222656 37.128906 12.628906l-14.527343-38.144531c-3.460938-8.972656-1.925781-19.105469 4.039062-26.652344zm0 0"/><path d="m55.050781 53.519531-55.050781 31.320313 19.527344 53.222656c.882812 2.390625 2.722656 4.300781 5.078125 5.277344 2.351562.976562 5.007812.925781 7.320312-.140625 15.261719-7.046875 31.191407-12.5625 47.542969-16.457031zm0 0"/><path d="m396.207031 137.148438c-5.25-.914063-11.238281-1.691407-17.664062-2.167969l18.585937 34.074219c9.617188 17.820312 6.445313 39.828124-7.808594 54.210937l-21.429687 21.429687c10.652344 8.574219 13.355469 23.6875 6.34375 35.429688l-33.828125 56.335938c3.519531.84375 6.894531 1.683593 10.011719 2.515624 7.296875 1.871094 13.476562 6.707032 17.042969 13.339844 3.625 6.664063 4.359374 14.519532 2.03125 21.742188-6.398438 18.738281-14.4375 36.878906-24.019532 54.207031 9.289063 7.300781 12.640625 19.859375 8.226563 30.820313l-14.527344 38.144531c12.636719-3.414063 25.039063-7.640625 37.128906-12.65625 21.832031-9.066407 36.882813-29.433594 39.152344-52.960938 3.289063-33.894531 5.035156-57.996093 5.035156-69.550781.132813-21.011719 2.679688-41.9375 7.589844-62.363281 8.964844-38.703125 4.738281-79.289063-12.015625-115.3125-7.523438-16.152344-14.1875-32.007813-19.855469-47.238281zm0 0"/><path d="m330.945312 440.691406c-.128906 0-.265624 0-.394531 0-1.167969-.363281-2.394531-.5-3.613281-.402344-16.511719 2.027344-34.082031 3.308594-52.421875 3.820313-6.121094.160156-12.320313.238281-18.597656.238281-23.738281.078125-47.457031-1.28125-71.03125-4.078125-1.214844-.105469-2.441407.03125-3.601563.402344-.128906 0-.265625 0-.402344 0-1.691406.574219-3.1875 1.609375-4.324218 2.988281-1.996094 2.515625-2.507813 5.898438-1.335938 8.886719l18.890625 49.601563c.984375.191406 1.945313.402343 2.941407.585937 3.007812.566406 6.019531 1.085937 9.042968 1.5625 2.441406.382813 4.9375.742187 7.460938 1.089844 2.851562.375 5.707031.738281 8.566406 1.039062 2.863281.304688 5.769531.550781 8.695312.777344 2.742188.210937 5.414063.449219 8.128907.597656 4.011719.21875 8.136719.308594 12.296875.371094 3.117187.046875 6.226562.046875 9.34375 0 4.160156-.0625 8.285156-.152344 12.296875-.371094 2.742187-.148437 5.414062-.386719 8.128906-.597656 2.925781-.226563 5.851563-.464844 8.695313-.777344 2.84375-.308593 5.714843-.664062 8.566406-1.039062 2.523437-.347657 5.019531-.707031 7.460937-1.089844 3.046875-.476563 6.0625-.996094 9.042969-1.5625.996094-.183594 1.953125-.394531 2.941406-.585937l18.890625-49.574219c1.167969-2.988281.660157-6.371094-1.335937-8.886719-1.140625-1.378906-2.640625-2.414062-4.332032-2.996094zm-120.742187 49.371094c-5.050781 0-9.140625-4.09375-9.140625-9.144531 0-5.046875 4.089844-9.140625 9.140625-9.140625s9.144531 4.09375 9.144531 9.140625c0 5.050781-4.09375 9.144531-9.144531 9.144531zm91.429687 0c-5.050781 0-9.144531-4.09375-9.144531-9.144531 0-5.046875 4.09375-9.140625 9.144531-9.140625 5.046876 0 9.140626 4.09375 9.140626 9.140625 0 5.050781-4.09375 9.144531-9.140626 9.144531zm0 0"/><path d="m432.375 126.753906c16.355469 3.894532 32.28125 9.40625 47.542969 16.457032 2.3125 1.074218 4.96875 1.128906 7.324219.152343 2.355468-.976562 4.191406-2.894531 5.0625-5.292969l19.703124-53.449218-55.210937-31.148438zm0 0"/></svg>