<svg height="480pt" viewBox="-80 0 480 480" width="480pt" xmlns="http://www.w3.org/2000/svg"><path d="m306.238281 332.488281c-12.496093-16.0625-26.695312-30.710937-42.238281-43.808593v87.320312h-16v-145.472656c2.511719.898437 5.183594 1.472656 8 1.472656s5.488281-.574219 8-1.472656v37.648437c20.488281 15.792969 38.976562 34.046875 54.863281 54.480469l.625.800781c-2.441406-37.097656-15.503906-72.808593-37.921875-102.695312l-3.199218-4.265625c1.015624-2.648438 1.632812-5.496094 1.632812-8.496094 0-7.816406-3.808594-14.695312-9.609375-19.078125l36.921875-36.921875-43.3125-43.3125v-33.503906c10.199219-11.414063 16-26.464844 16-41.808594v-1.375c0-17.648438-14.351562-32-32-32s-32 14.351562-32 32v8h16v-8c0-8.824219 7.175781-16 16-16s16 7.175781 16 16v1.375c0 12.273438-4.976562 24.289062-13.65625 32.96875l-2.34375 2.34375v40l-43.3125 43.3125 36.921875 36.921875c-5.800781 4.382813-9.609375 11.261719-9.609375 19.078125 0 2.601562.519531 5.0625 1.289062 7.40625-26.425781 29.875-41.289062 68.363281-41.289062 108.472656v12.121094l24-16v2.335938c0 35.289062 8.214844 70.097656 24 101.664062l24 56 25.960938-40.792969c17.191406-27.015625 27.320312-57.847656 29.558593-89.648437zm-58.238281-188.488281h16v16h-16zm8 56c4.414062 0 8 3.585938 8 8s-3.585938 8-8 8-8-3.585938-8-8 3.585938-8 8-8zm-24 88h-16v-16h16zm56 120h-16v-16h16zm0 0"/><path d="m72 288.679688v87.320312h-16v-145.472656c2.511719.898437 5.183594 1.472656 8 1.472656s5.488281-.574219 8-1.472656v37.648437c20.488281 15.792969 38.976562 34.046875 54.863281 54.480469l.625.800781c-2.441406-37.097656-15.503906-72.808593-37.921875-102.695312l-3.199218-4.265625c1.015624-2.648438 1.632812-5.496094 1.632812-8.496094 0-7.816406-3.808594-14.695312-9.609375-19.078125l36.921875-36.921875-43.3125-43.3125v-33.503906c10.199219-11.414063 16-26.464844 16-41.808594v-1.375c0-17.648438-14.351562-32-32-32s-32 14.351562-32 32v8h16v-8c0-8.824219 7.175781-16 16-16s16 7.175781 16 16v1.375c0 12.273438-4.976562 24.289062-13.65625 32.96875l-2.34375 2.34375v40l-43.3125 43.3125 36.921875 36.921875c-5.800781 4.382813-9.609375 11.261719-9.609375 19.078125 0 2.601562.519531 5.0625 1.289062 7.40625-26.425781 29.875-41.289062 68.363281-41.289062 108.472656v12.121094l24-16v2.335938c0 35.289062 8.214844 70.097656 24 101.664062l24 56 25.960938-40.792969c17.191406-27.015625 27.320312-57.847656 29.558593-89.648437l-13.28125-17.070313c-12.496093-16.074219-26.695312-30.710937-42.238281-43.808593zm-16-144.679688h16v16h-16zm8 56c4.414062 0 8 3.585938 8 8s-3.585938 8-8 8-8-3.585938-8-8 3.585938-8 8-8zm-24 88h-16v-16h16zm56 120h-16v-16h16zm0 0"/></svg>