<svg id="Layer_5" enable-background="new 0 0 64 64" height="512" viewBox="0 0 64 64" width="512" xmlns="http://www.w3.org/2000/svg"><g><path d="m26 55c-3.288 0-6.337-1.054-8.575-2.111-.288.538-.703 1.02-1.246 1.391-1.235.843-2.844.945-4.179.308-.575.274-1.2.411-1.825.411-.826 0-1.65-.239-2.354-.719-.14-.095-.269-.2-.392-.309l-.319 3.029h21.779l-.312-2.966c-.698.594-1.591.966-2.577.966z"/><path d="m9.801 61h16.398c1.264 0 2.323-.848 2.67-2h-21.738c.347 1.152 1.406 2 2.67 2z"/><path d="m26 47c.687 0 1.324.19 1.889.496l-.789-7.496h-18.199l-.417 3.96c.713-1.195 2.039-1.96 3.516-1.96 1.52 0 2.884.805 3.582 2.06 1.485.228 2.732 1.217 3.213 2.607.484 1.399.098 2.901-.96 3.927.014.094.014.187.021.28 2.067 1.028 5.003 2.126 8.144 2.126 1.103 0 2-.897 2-2s-.897-2-2-2-2 .897-2 2h-2c0-2.206 1.794-4 4-4z"/><path d="m19 23v-14-4c0-1.103-.897-2-2-2s-2 .897-2 2v4 14.016c.079-.004.156-.016.236-.016z"/><path d="m7.907 49.434.573.391-.253.725c-.268.767.021 1.602.721 2.079.739.505 1.738.498 2.485-.015l.567-.389.566.389c.747.513 1.746.52 2.485.015.699-.478.988-1.313.721-2.079l-.253-.726.636-.432c.71-.482 1.012-1.314.749-2.071-.271-.785-1.065-1.311-1.979-1.311-.002 0-.004 0-.007 0l-.717.002-.232-.678c-.274-.798-1.065-1.334-1.969-1.334s-1.695.536-1.969 1.334l-.232.678-.717-.002c-.3-.005-.573.069-.833.174zm4.093-2.434c1.105 0 2 .895 2 2s-.895 2-2 2-2-.895-2-2 .895-2 2-2z"/><path d="m49 23.016v-14.016-4c0-1.103-.897-2-2-2s-2 .897-2 2v4 14h3.764c.08 0 .157.012.236.016z"/><path d="m43 23v-14c0-1.103-.897-2-2-2s-2 .897-2 2v5 9.016c.079-.004.156-.016.236-.016z"/><path d="m25 23.016v-9.016-5c0-1.103-.897-2-2-2s-2 .897-2 2v14h3.764c.08 0 .157.012.236.016z"/><path d="m60 17c-1.654 0-3 1.346-3 3v7 .414l-2.121 2.122c-.559.558-.879 1.331-.879 2.121v2.343h-2v-2.343c0-1.335.521-2.591 1.465-3.535l1.535-1.536v-6.586-11c0-1.103-.897-2-2-2s-2 .897-2 2v14.584c.798.442 1.466 1.113 1.895 1.969l-1.789.895c-.447-.893-1.344-1.448-2.342-1.448h-9.527c-.998 0-1.896.555-2.342 1.447l-1.789-.895c.428-.856 1.096-1.527 1.895-1.969v-9.583c0-1.103-.897-2-2-2s-2 .897-2 2v15.344c0 1.564.41 3.108 1.186 4.465l2.393 4.191h18.96l3.294-3.842c1.396-1.63 2.166-3.71 2.166-5.857v-10.301c0-.551-.448-1-1-1z"/><path d="m56.179 54.28c-1.235.843-2.843.945-4.179.308-.575.274-1.2.411-1.825.411-.826 0-1.65-.239-2.354-.719-.543-.371-.959-.853-1.246-1.391-2.238 1.057-5.287 2.111-8.575 2.111-.987 0-1.879-.372-2.578-.967l-.312 2.967h21.779l-.319-3.028c-.123.108-.252.213-.391.308z"/><path d="m55.749 46.167c-.27-.109-.56-.174-.831-.158l-.717.002-.232-.678c-.274-.797-1.065-1.333-1.969-1.333s-1.695.536-1.969 1.334l-.232.678-.717-.002c-.949-.029-1.716.523-1.986 1.31-.263.758.039 1.59.749 2.072l.636.432-.253.726c-.268.767.021 1.602.721 2.079.739.505 1.738.498 2.485-.015l.566-.389.566.389c.747.513 1.747.52 2.485.015.699-.478.988-1.313.721-2.079l-.253-.725.573-.39zm-3.749 4.833c-1.105 0-2-.895-2-2s.895-2 2-2 2 .895 2 2-.895 2-2 2z"/><path d="m38 49c-1.103 0-2 .897-2 2s.897 2 2 2c3.141 0 6.077-1.098 8.144-2.126.007-.094.007-.187.021-.28-1.058-1.025-1.444-2.527-.96-3.928.48-1.39 1.728-2.379 3.213-2.606.698-1.255 2.062-2.06 3.582-2.06 1.477 0 2.802.765 3.516 1.959l-.417-3.959h-18.199l-.789 7.496c.565-.306 1.202-.496 1.889-.496 2.206 0 4 1.794 4 4h-2c0-1.103-.897-2-2-2z"/><path d="m29 12c-1.103 0-2 .897-2 2v9.584c.798.442 1.466 1.113 1.895 1.969l-1.789.895c-.447-.893-1.344-1.448-2.342-1.448h-9.527c-.998 0-1.896.555-2.342 1.447l-1.789-.895c.428-.856 1.096-1.527 1.895-1.969v-14.583c0-1.103-.897-2-2-2s-2.001.897-2.001 2v11 6.586l1.535 1.536c.944.944 1.465 2.2 1.465 3.535v2.343h-2v-2.343c0-.79-.32-1.563-.879-2.121l-2.121-2.122v-.414-7c0-1.654-1.346-3-3-3-.552 0-1 .449-1 1v10.301c0 2.147.77 4.227 2.166 5.857l3.294 3.842h18.96l2.395-4.19c.775-1.358 1.185-2.902 1.185-4.466v-15.344c0-1.103-.897-2-2-2z"/><path d="m37.801 61h16.398c1.264 0 2.323-.848 2.67-2h-21.738c.347 1.152 1.406 2 2.67 2z"/></g></svg>