<svg height="512" viewBox="0 0 56 56" width="512" xmlns="http://www.w3.org/2000/svg"><g id="021---Samurai-Helmet" transform="translate(-1)"><path id="Shape" d="m12.62 30.86c1.89-7.48-.78-13.06-8.84-14.86 0 .11.18-.3-2.81 5.41 4.42400697 2.4178467 8.37153773 5.619921 11.65 9.45zm-3.62-8.86c.55228475 0 1 .4477153 1 1s-.44771525 1-1 1-1-.4477153-1-1 .44771525-1 1-1z"/><path id="Shape" d="m22.09 13.1c-.1653752-1.0955112-.0764127-2.2143863.26-3.27-4.8119764-1.48631884-9.3291434-3.79734883-13.35-6.83 2 4.69 7 8.45 13.09 10.1z"/><path id="Shape" d="m29 17c2.7614237 0 5-2.2385763 5-5 0-2.76142375-2.2385763-5-5-5s-5 2.23857625-5 5c0 2.7614237 2.2385763 5 5 5z"/><path id="Shape" d="m34.78 8.06c2.3932371-.69967973 4.7138596-1.62725899 6.93-2.77-3.3604467-3.37146849-7.9248108-5.26646905-12.685-5.26646905s-9.3245533 1.89500056-12.685 5.26646905c2.2235233 1.10273002 4.5389573 2.0094968 6.92 2.71 1.3167485-1.88572901 3.4758159-3.00431287 5.7757413-2.99233409 2.2999255.01197878 4.4472241 1.15299163 5.7442587 3.05233409z"/><path id="Shape" d="m49 3c-3.9799728 3.09631706-8.4949062 5.43513388-13.32 6.9.3110775 1.0229294.3930187 2.1018227.24 3.16 6-1.67 11-5.42 13.07-10z"/><path id="Shape" d="m13.36 19.82c.6951685 1.0671953 1.1867839 2.253853 1.45 3.5l12.61 6.32c1.0628855.490125 2.2871145.490125 3.35 0l12.42-6.31c.2647527-1.2456704.7562549-2.432055 1.45-3.5-15.93 5.44-14.92 5.17-15.64 5.17s.35.29-15.64-5.18z"/><path id="Shape" d="m45.38 30.87c3.2815689-3.8392126 7.2152976-7.068797 11.62-9.54-2.86-5.42-2.76-5.22-2.81-5.33-8.04 1.8-10.71 7.41-8.81 14.87zm3.62-8.87c.5522847 0 1 .4477153 1 1s-.4477153 1-1 1-1-.4477153-1-1 .4477153-1 1-1z"/><path id="Shape" d="m46.14 33.16 2.2 5.62 8.66-6.37-4.27-5.81c-2.4786496 1.8838408-4.6948695 4.0899717-6.59 6.56zm3.86.84c-.5522847 0-1-.4477153-1-1s.4477153-1 1-1 1 .4477153 1 1-.4477153 1-1 1z"/><path id="Shape" d="m45.36 10.55c-3.0064995 2.3208816-6.49004 3.9465338-10.2 4.76-1.2219574 2.2639624-3.5873155 3.6751842-6.16 3.6751842s-4.9380426-1.4112218-6.16-3.6751842c-3.7198089-.7818516-7.2181983-2.3841413-10.24-4.69-.91625 1.9802036-1.4586906 4.1126731-1.6 6.29l17.66 6c.45.15-1 .56 18.28-6-.1370674-2.1982049-.6724301-4.3532093-1.58-6.36z"/><path id="Shape" d="m43.87 32.86c-.7564257-2.2944377-1.095123-4.7059628-1-7.12l-11.2 5.69c-1.612602.7553269-3.477398.7553269-5.09 0l-11.42-5.7c.1078566 2.4146586-.2311622 4.8284726-1 7.12.03.15-5.82 14.65-6.16 15.64 9.63-6.55 32.32-6.56 42 0-.06-.13.5 1.32-6.13-15.63z"/><path id="Shape" d="m1 54.21 2.49 1.78 2.45-7.56-1.29-.99z"/><path id="Shape" d="m54 44.43 3-2.29-3.63-4.53-4.27 3.1 2.25 5.75 2.65-2.05zm-2-1.43c-.5522847 0-1-.4477153-1-1s.4477153-1 1-1 1 .4477153 1 1-.4477153 1-1 1z"/><path id="Shape" d="m53.35 47.44-1.29.99 2.45 7.59 2.51-1.83z"/><path id="Shape" d="m4.64 37.61-3.64 4.52 3 2.3 2.65 2.05 2.25-5.75zm1.36 5.39c-.55228475 0-1-.4477153-1-1s.44771525-1 1-1 1 .4477153 1 1-.44771525 1-1 1z"/><path id="Shape" d="m11.86 33.16c-1.89241393-2.4724147-4.10897649-4.6788867-6.59-6.56l-4.27 5.85 8.69 6.34zm-3.86.84c-.55228475 0-1-.4477153-1-1s.44771525-1 1-1 1 .4477153 1 1-.44771525 1-1 1z"/></g></svg>