<svg height="493pt" viewBox="0 -8 493.568 493" width="493pt" xmlns="http://www.w3.org/2000/svg"><path d="m259.910156 197.539062-13.125-18.949218-13.128906 18.949218c4.304688-.589843 8.664062-1.007812 13.128906-1.007812 4.460938 0 8.824219.417969 13.125 1.007812zm0 0"/><path d="m209.960938 203.644531 20.710937-29.90625c-21.023437 2.839844-40.304687 11.128907-56.425781 23.417969zm0 0"/><path d="m262.785156 292.53125c0 8.835938-7.164062 16-16 16-8.835937 0-16-7.164062-16-16s7.164063-16 16-16c8.835938 0 16 7.164062 16 16zm0 0"/><path d="m182.921875 172.53125h-88.058594c.703125 37 6.375 73.273438 16.527344 108.089844 4.089844-46.847656 31.976563-86.953125 71.53125-108.089844zm-56.136719 32h-16v-16h16zm0 0"/><path d="m151.40625 365.058594 6.488281-35.710938-29.902343-20.703125c2.847656 21.023438 11.128906 40.296875 23.414062 56.414063zm0 0"/><path d="m132.839844 292.53125 18.953125 13.121094c-.59375-4.296875-1.007813-8.65625-1.007813-13.121094s.414063-8.824219 1.007813-13.121094zm0 0"/><path d="m319.320312 387.90625-35.710937-6.484375-20.714844 29.902344c21.027344-2.847657 40.304688-11.128907 56.425781-23.417969zm0 0"/><path d="m166.785156 292.53125c0 44.113281 35.886719 80 80 80 44.109375 0 80-35.886719 80-80 0-44.109375-35.890625-80-80-80-44.113281 0-80 35.890625-80 80zm88 64h-16v-16h16zm40-72h16v16h-16zm-56-56h16v16h-16zm8 32c17.648438 0 32 14.351562 32 32s-14.351562 32-32 32c-17.648437 0-32-14.351562-32-32s14.351563-32 32-32zm-48 40h-16v-16h16zm0 0"/><path d="m230.671875 411.324219-20.710937-29.902344-35.714844 6.484375c16.121094 12.289062 35.402344 20.570312 56.425781 23.417969zm0 0"/><path d="m188.945312 216.09375-22.730468-4.128906 4.128906 22.726562c5.328125-7.023437 11.585938-13.269531 18.601562-18.597656zm0 0"/><path d="m233.65625 387.523438 13.128906 18.953124 13.125-18.953124c-4.300781.59375-8.664062 1.007812-13.125 1.007812-4.464844 0-8.824218-.414062-13.128906-1.007812zm0 0"/><path d="m262.894531 173.738281 20.714844 29.90625 35.710937-6.488281c-16.121093-12.289062-35.398437-20.566406-56.425781-23.417969zm0 0"/><path d="m335.671875 255.714844 29.902344 20.707031c-2.839844-21.027344-11.117188-40.296875-23.414063-56.417969zm0 0"/><path d="m360.726562 292.53125-18.949218-13.121094c.589844 4.296875 1.007812 8.65625 1.007812 13.121094s-.417968 8.824219-1.007812 13.121094zm0 0"/><path d="m342.160156 365.058594c12.289063-16.117188 20.566406-35.390625 23.414063-56.414063l-29.902344 20.703125zm0 0"/><path d="m382.183594 280.621094c10.152344-34.816406 15.824218-71.089844 16.527344-108.089844h-88.0625c39.550781 21.136719 67.441406 61.242188 71.535156 108.089844zm-15.398438-92.089844h16v16h-16zm0 0"/><path d="m173.078125 406.660156c10.683594 14.761719 22.347656 28.917969 35.050781 42.335938l17.464844 18.425781c5.484375 5.78125 13.214844 9.109375 21.191406 9.109375 7.976563 0 15.703125-3.328125 21.191406-9.109375l17.464844-18.433594c12.703125-13.410156 24.367188-27.566406 35.046875-42.328125-21.265625 13.785156-46.535156 21.871094-73.703125 21.871094-27.167968 0-52.449218-8.09375-73.707031-21.871094zm81.707031 53.871094h-16v-16h16zm0 0"/><path d="m127.992188 276.421875 29.902343-20.707031-6.488281-35.710938c-12.285156 16.121094-20.566406 35.390625-23.414062 56.417969zm0 0"/><path d="m170.34375 350.371094-4.128906 22.730468 22.730468-4.128906c-7.015624-5.328125-13.273437-11.578125-18.601562-18.601562zm0 0"/><path d="m304.625 368.972656 22.726562 4.128906-4.128906-22.730468c-5.328125 7.023437-11.582031 13.273437-18.597656 18.601562zm0 0"/><path d="m323.222656 234.691406 4.128906-22.726562-22.726562 4.128906c7.015625 5.328125 13.269531 11.574219 18.597656 18.597656zm0 0"/><path d="m480 .292969c-.6875 1.09375-69.96875 109.589843-205.457031 122.886719-1.648438.160156-3.296875.25-4.949219.375l5.644531-15.023438h-56.902343l5.632812 15.015625c-1.816406-.144531-3.632812-.238281-5.441406-.414063-134.878906-13.480468-204.269532-121.753906-204.960938-122.847656l-13.566406 8.488282c2.953125 4.726562 74.03125 116 216.9375 130.285156 4.414062.433594 8.816406.761718 13.214844 1.007812l6.175781 16.464844h20.910156l6.167969-16.457031c4.242188-.230469 8.472656-.550781 12.707031-.964844 143.238281-14.066406 214.496094-125.59375 217.453125-130.335937zm-225.214844 140.238281h-16v-16h16zm0 0"/></svg>