<svg id="Layer_3" enable-background="new 0 0 64 64" height="512" viewBox="0 0 64 64" width="512" xmlns="http://www.w3.org/2000/svg"><path d="m48.961 42h-.607c-1.688 0-3.206-.938-3.96-2.447-1.094-2.192-3.297-3.553-5.748-3.553h-1.349l-.946-6.62 3.048-1.741c2.221-1.27 3.601-3.649 3.601-6.207 0-2.22 1.415-4.183 3.521-4.885l1.127-.376.578 6.357c.513 5.652.774 11.396.774 17.071 0 .801-.016 1.601-.039 2.401zm-30.961-39h28v2h-28zm-2.226 19.528.578-6.357 1.127.376c2.106.702 3.521 2.665 3.521 4.885 0 2.559 1.38 4.938 3.602 6.207l3.048 1.741-.946 6.62h-1.349c-2.451 0-4.654 1.361-5.749 3.553-.754 1.509-2.272 2.447-3.96 2.447h-.607c-.023-.8-.039-1.6-.039-2.401 0-5.675.261-11.419.774-17.071zm7.359 38.472h-5.365c-1.463-5.563-2.341-11.261-2.642-17h.52c2.451 0 4.654-1.361 5.749-3.553.754-1.51 2.271-2.447 3.96-2.447h1.064zm11.867-46c0 2.206-1.346 4-3 4s-3-1.794-3-4h-2c0 2.207 1.001 4.135 2.484 5.177-.393.462-.667 1.029-.758 1.661l-.773 5.413-2.36-1.348c-1.599-.916-2.593-2.629-2.593-4.471 0-3.082-1.964-5.808-4.888-6.781l-1.574-.525.136-1.495c.181-1.984.841-3.904 1.899-5.631h26.857c1.049 1.705 1.714 3.635 1.896 5.631l.136 1.495-1.574.525c-2.924.973-4.888 3.699-4.888 6.781 0 1.843-.994 3.556-2.594 4.471l-2.36 1.348-.773-5.414c-.091-.632-.365-1.199-.758-1.66 1.484-1.042 2.485-2.97 2.485-5.177zm11.232 46h-5.365l-3.285-23h1.063c1.688 0 3.206.938 3.96 2.447 1.095 2.192 3.298 3.553 5.749 3.553h.52c-.3 5.739-1.178 11.437-2.642 17z"/></svg>