<svg height="512pt" viewBox="-53 0 512 512.02017" width="512pt" xmlns="http://www.w3.org/2000/svg"><path d="m357.988281 89.421875c-2.933593-6.105469-9.113281-9.984375-15.886719-9.972656h-278.421874c-6.78125-.027344-12.96875 3.859375-15.890626 9.972656-25.9375 64.664063-41.949218 132.878906-47.492187 202.328125-6.003906 116.4375 83.15625 218.574219 199.679687 220.25 54.347657.765625 106.730469-20.285156 145.4375-58.445312 38.707032-38.15625 60.5-90.238282 60.507813-144.589844 0-85.714844-34.691406-192.085938-47.933594-219.542969zm-155.097656 378.441406c-87.757813 0-158.898437-71.140625-158.898437-158.898437 0-87.753906 71.140624-158.894532 158.898437-158.894532 87.753906 0 158.894531 71.140626 158.894531 158.894532-.101562 87.714844-71.183594 158.796875-158.894531 158.898437zm88.273437-361.933593h39.285157c3.644531-.003907 6.910156 2.246093 8.207031 5.652343 2.914062 7.324219 6.179688 16.683594 9.445312 27.011719.722657 2.222656.523438 4.644531-.554687 6.71875s-2.945313 3.628906-5.183594 4.316406c-.84375.316406-1.742187.464844-2.644531.441406-3.875.023438-7.3125-2.484374-8.476562-6.179687-2.292969-7.417969-4.679688-14.390625-6.886719-20.304687h-33.191407c-4.875 0-8.828124-3.953126-8.828124-8.828126s3.953124-8.828124 8.828124-8.828124zm-233.488281 32.664062c3.265625-10.328125 6.53125-19.6875 9.445313-27.011719 1.296875-3.40625 4.566406-5.65625 8.210937-5.652343h39.28125c4.875 0 8.828125 3.953124 8.828125 8.828124s-3.953125 8.828126-8.828125 8.828126h-33.191406c-2.207031 5.914062-4.589844 12.886718-6.886719 20.304687-1.160156 3.695313-4.597656 6.203125-8.472656 6.179687-.902344.023438-1.804688-.125-2.648438-.441406-2.234374-.6875-4.101562-2.242187-5.183593-4.316406-1.078125-2.074219-1.277344-4.496094-.554688-6.71875zm0 0"/><path d="m107.109375 61.792969h234.992187c3.316407-.019531 6.621094.457031 9.796876 1.414062 4.582031-12.726562 1.574218-26.945312-7.769532-36.722656-8.382812-8.386719-32.570312-16.6875-42.636718 12.445313-20.039063-23.214844-56.671876-38.929688-98.601563-38.929688-41.933594 0-78.566406 15.714844-98.605469 38.929688-10.0625-29.132813-34.25-20.832032-42.636718-12.445313-9.34375 9.777344-12.351563 23.996094-7.769532 36.722656 3.179688-.957031 6.480469-1.433593 9.800782-1.414062zm105.226563-34.957031c6.351562.4375 12.664062 1.320312 18.890624 2.648437 4.460938.90625 7.503907 5.054687 7.023438 9.582031s-4.324219 7.949219-8.878906 7.894532c-.625 0-1.25-.089844-1.851563-.261719-5.417969-1.128907-10.902343-1.898438-16.421875-2.296875-2.335937-.136719-4.519531-1.203125-6.0625-2.960938-1.542968-1.757812-2.316406-4.0625-2.144531-6.394531.390625-4.851563 4.585937-8.5 9.445313-8.210937zm-58.703126 9.179687c6.757813-2.808594 13.761719-4.996094 20.921876-6.53125 3.171874-.929687 6.597656-.007813 8.878906 2.390625 2.277344 2.398438 3.023437 5.867188 1.933594 8.988281-1.089844 3.125-3.832032 5.375-7.105469 5.835938-6.066407 1.332031-12.003907 3.195312-17.746094 5.558593-1.09375.445313-2.261719.6875-3.441406.707032-4.191407-.007813-7.800781-2.960938-8.632813-7.070313-.835937-4.105469 1.332032-8.234375 5.191406-9.878906zm0 0"/></svg>