<?xml version="1.0" encoding="iso-8859-1"?>
<!-- Generator: Adobe Illustrator 16.0.0, SVG Export Plug-In . SVG Version: 6.00 Build 0)  -->
<!DOCTYPE svg PUBLIC "-//W3C//DTD SVG 1.1//EN" "http://www.w3.org/Graphics/SVG/1.1/DTD/svg11.dtd">
<svg version="1.1" id="Capa_1" xmlns="http://www.w3.org/2000/svg" xmlns:xlink="http://www.w3.org/1999/xlink" x="0px" y="0px"
	 width="316.695px" height="316.695px" viewBox="0 0 316.695 316.695" style="enable-background:new 0 0 316.695 316.695;"
	 xml:space="preserve">
<g>
	<g>
		<path d="M259.683,9.114c-9.952,0-14.706,7.257-6.136,21.984c25.896,44.464-19.356,52.61-55.971,52.61
			c-19.31,0-36.221-2.263-39.017-2.662v-0.057c0,0-0.135,0.021-0.208,0.031c-0.077-0.01-0.207-0.031-0.207-0.031v0.057
			c-2.801,0.394-19.713,2.662-39.022,2.662c-36.615,0-81.861-8.14-55.97-52.61c8.564-14.721,3.811-21.984-6.136-21.984
			c-37.401,0-148.136,102.664,100.741,297.524v0.942c0.207-0.16,0.394-0.311,0.595-0.476c0.202,0.165,0.389,0.315,0.591,0.476
			v-0.942C407.798,111.794,297.095,9.114,259.683,9.114z M158.352,279.992C55.292,196.345,6.731,118.194,24.808,64.295
			c2.61-7.772,6.323-14.001,10.325-18.892c-2.335,13.23,0.787,23.242,4.749,30.124c11.376,19.778,37.293,29.396,79.246,29.396
			c17.258,0,32.679-1.675,39.229-2.501c6.545,0.826,21.966,2.501,39.219,2.501c41.948,0,67.87-9.613,79.241-29.396
			c3.956-6.882,7.078-16.894,4.748-30.118c3.997,4.891,7.71,11.114,10.32,18.887C309.968,118.189,261.407,196.345,158.352,279.992z"
			/>
		<path d="M158.352,115.294C61.878,137.83,33.445,93.422,33.445,93.422c37.78,101.411,124.906,159.737,124.906,159.737
			s87.122-58.326,124.901-159.737C283.253,93.422,254.82,137.83,158.352,115.294z"/>
	</g>
</g>
<g>
</g>
<g>
</g>
<g>
</g>
<g>
</g>
<g>
</g>
<g>
</g>
<g>
</g>
<g>
</g>
<g>
</g>
<g>
</g>
<g>
</g>
<g>
</g>
<g>
</g>
<g>
</g>
<g>
</g>
</svg>
