<?xml version="1.0" encoding="iso-8859-1"?>
<!-- Generator: Adobe Illustrator 18.1.1, SVG Export Plug-In . SVG Version: 6.00 Build 0)  -->
<svg version="1.1" id="Capa_1" xmlns="http://www.w3.org/2000/svg" xmlns:xlink="http://www.w3.org/1999/xlink" x="0px" y="0px"
	 viewBox="0 0 326.164 326.164" style="enable-background:new 0 0 326.164 326.164;" xml:space="preserve">
<g>
	<g>
		<path style="fill:#010002;" d="M244.491,77.974c-1.806,0.005-3.595,0.076-5.368,0.207c-2.959,0.218,0.713,1.218,7.566,3.987
			c13.005,5.26,22.85,15.36,29.714,28.022c-11.15-7.794-24.693-14.397-39.944-19.483c-11.003-33.004-29.191-57.872-50.872-68.206
			L163.085,0l-22.501,22.501c-21.68,10.329-39.868,35.202-50.877,68.2c-15.251,5.086-28.794,11.689-39.944,19.483
			c6.87-12.657,16.709-22.762,29.714-28.022c6.853-2.768,10.525-3.769,7.566-3.987c-1.773-0.131-3.563-0.201-5.368-0.207
			c-42.321-0.076-65.356,41.761-65.443,84.088c0,0.386,0.033,0.783,0.038,1.169c-0.005,0.283-0.038,0.566-0.038,0.854
			c0,1.501,0.071,2.991,0.207,4.471c2.132,40.374,24.731,81.553,64.899,81.635c1.806,0.005,3.595-0.06,5.368-0.185
			c2.959-0.207-0.723-1.224-7.511-4.161c-11.977-5.189-21.245-14.881-27.968-26.891c10.867,7.364,23.872,13.636,38.476,18.509
			c11.602,34.777,31.177,60.52,54.407,69.734l18.971,18.971l18.971-18.971c23.23-9.214,42.805-34.962,54.407-69.734
			c14.604-4.873,27.609-11.145,38.476-18.509c-6.723,12.009-15.991,21.707-27.962,26.891c-6.783,2.937-10.47,3.954-7.511,4.161
			c1.773,0.125,3.563,0.185,5.368,0.185c40.173-0.082,62.772-41.261,64.899-81.635c0.136-1.479,0.207-2.97,0.207-4.471
			c0-0.283-0.033-0.566-0.038-0.848c0.005-0.392,0.038-0.783,0.038-1.175C309.858,119.73,286.818,77.893,244.491,77.974z"/>
	</g>
</g>
<g>
</g>
<g>
</g>
<g>
</g>
<g>
</g>
<g>
</g>
<g>
</g>
<g>
</g>
<g>
</g>
<g>
</g>
<g>
</g>
<g>
</g>
<g>
</g>
<g>
</g>
<g>
</g>
<g>
</g>
</svg>
