<svg height="512" viewBox="0 0 58 58" width="512" xmlns="http://www.w3.org/2000/svg"><g id="024----Throwing-Star" transform="translate(-1 -1)"><path id="Shape" d="m1.47 23.85 2.1 1.15h16.81c-.6529659-.5651215-1.1055125-1.3263821-1.29-2.17-.0836274-.4850758-.5078203-.8371559-1-.83h-16.09c-.44740943-.0014432-.84133283.2944782-.96455332.7245874-.1232205.4301093.054251.8897276.43455332 1.1254126z"/><path id="Shape" d="m33.35 20.38c.3608077-.8020023.9758621-1.4627465 1.75-1.88.4291382-.2167064.6433401-.7081108.51-1.17l-4.61-15.65c-.1348836-.41037454-.5180268-.6877501-.95-.6877501s-.8151164.27737556-.95.6877501l-.83 2.62z"/><path id="Shape" d="m21.57 37.67c-.7711666.3362703-1.6297223.4168694-2.45.23-.4669088-.1302547-.9600019.0931123-1.17.53l-8.86 19.16c-.18968249.4282959-.05664607.9308672.3200956 1.2092241.37674166.2783569.8962202.2578986 1.2499044-.0492241l2.34-2.13z"/><path id="Shape" d="m58 22h-1.85l-15.22 8.12c.806203.2013 1.5297023.6486812 2.07 1.28.3011006.3811993.8325986.4908735 1.26.26l14.25-7.81c.3772839-.2336836.5554204-.6880666.4374773-1.1158992-.117943-.4278325-.5037463-.726751-.9474773-.7341008z"/><path id="Shape" d="m40.75 37.93c-1.6976322.3229791-3.410732-.4807472-4.2474524-1.9927557-.8367205-1.5120084-.6078533-3.3903871.5674524-4.6572443-.1922495-.2300381-.2711499-.5341938-.2149654-.8286776.0561844-.2944839.2415256-.548225.5049654-.6913224l14.54-7.76h-10c-.4921797-.0071559-.9163726.3449242-1 .83-.3207898 1.5366222-1.5107208 2.7435734-3.0426325 3.0861528s-3.1226022-.242545-4.0673675-1.4961528c-.2594609.1468881-.5709327.1703388-.8494623.063956-.2785297-.1063829-.4950618-.3315017-.5905377-.613956l-5.1-16.15-2.86 9.61c-.1333401.4618892.0808618.9532936.51 1.17 1.4387155.7851187 2.2528968 2.3684811 2.0544889 3.9954255s-1.3692535 2.9682303-2.9544889 3.3845745v.12c0 .5522847-.4477153 1-1 1h-15.78l8.51 4.66c.4274481.2388288.9649629.1330188 1.27-.25 1.1032766-1.2510686 2.8670839-1.6861573 4.4256093-1.0916912 1.5585255.5944662 2.5845377 2.0936718 2.5743907 3.7616912.3082126.045547.5775863.2321455.72856.5046826.1509738.272537.1662956.5998693.04144.8853174l-8 17.7 9.63-8.87c.3691912-.3332515.437366-.8871722.16-1.3-.8953726-1.5630168-.6355576-3.5316947.6346529-4.8089101 1.2702105-1.2772153 3.2374298-1.5478532 4.8053471-.6610899.1719108-.2346933.4375031-.3828886.7275084-.4059354.2900054-.0230468.5756705.08134.7824916.2859354l13.86 14.13-5.48-13c-.1797765-.4546839-.6619734-.7127015-1.14-.61zm-10.75-5.93c-1.1045695 0-2-.8954305-2-2s.8954305-2 2-2 2 .8954305 2 2-.8954305 2-2 2z"/><path id="Shape" d="m49.46 56.52c-17.22-17.52-15.46-15.82-15.46-15.52.0035717.7473269-.2082046 1.4798645-.61 2.11-.281611.4012837-.230796.9475449.12 1.29l14.81 14.34c.3456121.3174572.8654829.3518802 1.2499348.082764.3844518-.2691163.5300504-.769368.3500652-1.202764z"/></g></svg>