<?xml version="1.0" encoding="iso-8859-1"?>
<!-- Generator: Adobe Illustrator 19.0.0, SVG Export Plug-In . SVG Version: 6.00 Build 0)  -->
<svg version="1.1" id="Capa_1" xmlns="http://www.w3.org/2000/svg" xmlns:xlink="http://www.w3.org/1999/xlink" x="0px" y="0px"
	 viewBox="0 0 513.83 513.83" style="enable-background:new 0 0 513.83 513.83;" xml:space="preserve">
<g>
	<g>
		<path d="M100.439,463.214l-6.144-5.973l-5.973-5.973l-24.149-23.893l-6.059-5.973l-6.059-6.059l-12.715,12.8
			c-8.708-5.4-19.964-4.243-27.392,2.816l-4.523,4.437c-0.025,0.025-0.051,0.051-0.076,0.076
			c-8.677,8.719-8.643,22.821,0.076,31.497l40.704,40.363c8.774,8.665,22.884,8.665,31.659,0l4.523-4.523
			c4.236-4.156,6.607-9.852,6.571-15.787c0.019-4.041-1.105-8.005-3.243-11.435L100.439,463.214z"/>
	</g>
</g>
<g>
	<g>
		<polygon points="118.274,433.347 112.215,427.289 88.151,403.481 82.093,397.422 75.949,391.449 64.002,403.31 70.061,409.283 
			76.119,415.342 100.183,439.15 106.242,445.208 112.301,451.182 124.333,439.321 		"/>
	</g>
</g>
<g>
	<g>
		<path d="M505.687,0.11c-4.713-0.754-9.145,2.455-9.899,7.168c-12.746,38.902-44.26,68.748-83.797,79.36
			c-19.834,6.238-40.571,9.122-61.355,8.533c-2.657-0.178-5.245,0.895-6.997,2.901l-207.36,233.899l-8.533-8.533
			c-8.793-8.619-22.866-8.619-31.659,0l-4.523,4.437c-0.025,0.025-0.051,0.051-0.076,0.076c-8.677,8.719-8.643,22.821,0.076,31.497
			l8.533,8.107l-12.032,11.861l6.059,6.059l6.059,5.973l23.808,23.125l6.144,6.059l6.059,5.973l11.947-11.861l8.533,8.533
			c8.83,8.529,22.829,8.529,31.659,0l4.523-4.523c0.025-0.025,0.051-0.051,0.076-0.076c8.677-8.719,8.643-22.821-0.076-31.497
			l-9.045-8.533c21.163-19.627,97.963-87.467,238.933-156.16c95.147-46.421,90.112-205.995,90.112-212.48
			C513.609,5.296,510.4,0.864,505.687,0.11z"/>
	</g>
</g>
<g>
</g>
<g>
</g>
<g>
</g>
<g>
</g>
<g>
</g>
<g>
</g>
<g>
</g>
<g>
</g>
<g>
</g>
<g>
</g>
<g>
</g>
<g>
</g>
<g>
</g>
<g>
</g>
<g>
</g>
</svg>
