<svg height="512" viewBox="0 0 56 56" width="512" xmlns="http://www.w3.org/2000/svg"><g id="Page-1" fill="none" fill-rule="evenodd"><g id="013---Scimitar" fill="rgb(0,0,0)" fill-rule="nonzero"><path id="Shape" d="m40.955 43.568c-21.472-11.895-23.764-30.93-23.955-36.645-.0224226-.52513905-.4475614-.94328681-.973-.957-9.2-.332-13.789-3-16-5.125.36713569 7.34402526 2.38370428 14.5110468 5.9 20.969 6.483 11.9 17.546 20.335 32.882 25.084 1.0709641-.8340013 1.8274854-2.0065037 2.146-3.326zm-31.728-36.338c1.3718264.26600397 2.7567603.45927386 4.149.579.9512568.07774822 1.7150266.81681272 1.824 1.765.6525545 5.9499079 2.4885655 11.7092026 5.4 16.939.1814793.3126457.1800929.6988967-.0036263 1.0102315-.1837191.3113348-.5211648.4992768-.8825821.4915584-.3614174-.0077185-.6905317-.2098955-.8607916-.5287899-3.0434104-5.4646526-4.9637021-11.4825639-5.648-17.7-1.4666301-.11301353-2.9254334-.31134934-4.369-.594-.35473594-.06481522-.64710008-.31560013-.76515524-.65633695-.11805515-.34073682-.04351393-.71864351.19508416-.98903129.23859808-.27038779.60429284-.39137209.95707108-.31663176zm-6.19-.23c0-.55228475.44771525-1 1-1s1 .44771525 1 1-.44771525 1-1 1-1-.44771525-1-1zm29.637 34.458c-.2272258.5028793-.8188579.7266433-1.322.5-14.852-6.658-23.852-17.604-27.583-30.684-.11207004-.3476646-.02565893-.7287743.22539888-.9941049.25105782-.2653307.62681261-.37266124.98013683-.27996629.35332423.09269499.62799495.37066529.71646429.72507119 3.571 12.5 12.162 22.984 26.48 29.411.2420417.10857.4310264.3088635.5253623.5567998.0943358.2479362.0862916.5231961-.0223623.7652002z"/><path id="Shape" d="m55.925 50.274c-.0437263-.2238606-.1701031-.4230648-.354-.558-.4516371-.133543-.9400323-.037955-1.308.256l.294.2c.4595009.306518.583518.9274991.277 1.387s-.9274991.583518-1.387.277l-7.176-4.785c-.4131404 1.0427913-.9607768 2.0271247-1.629 2.928l7.733 3.1c.5047883.2247799.7317799.8162117.507 1.321s-.8162117.7317799-1.321.507c-.0254797.3877665.1299665.7654896.421 1.023.574.328 2.1-.4 3.192-2.292.6494774-.9933769.9163331-2.1887199.751-3.364z"/><path id="Shape" d="m41.436 41.529c.162.092.314.188.479.279.7521935.4110252 1.1588328 1.2556765 1.011 2.1-.4042766 1.8106953-1.4216562 3.4261388-2.88 4.573-.949.756-1.871.3-2.792 0-.395 3.87 2.412 3.977 5.008 1.222 1.1848143-1.2628122 2.0454459-2.7943109 2.508-4.463.907-3.354-.37-5.611-3.334-3.711z"/></g></g></svg>