<svg height="512" viewBox="0 0 512 512" width="512" xmlns="http://www.w3.org/2000/svg"><g id="solid_fill" data-name="solid fill"><path d="m335.8 267.59 97.563-32.675a83.95 83.95 0 0 0 55.663-96.067l-3.367-16.848a83.951 83.951 0 0 0 -92.538-66.867l-60.947 7.467a497.665 497.665 0 0 1 -151.151-4.6l-4.855-.9a149.331 149.331 0 0 0 -110.527 22.715 90.124 90.124 0 0 0 -37.362 96.64 83.665 83.665 0 0 0 54.121 59.022l92.478 31.823a102.686 102.686 0 0 1 62.229 59.809 8 8 0 0 0 -4.933 7.388v31.017l-8.07 32.277a79.847 79.847 0 0 0 11 63.531 56.537 56.537 0 0 0 89.59 5.867l1.376-1.573a105.312 105.312 0 0 0 17.453-110.27 8 8 0 0 0 -14.214-.965l-24 40a8 8 0 0 0 1.2 9.773l3.418 3.417-9.288 14.289a12.424 12.424 0 0 1 -4.4 4.1l-3.173 1.752a12 12 0 0 1 -14.245-1.83l-.285-.287a16.922 16.922 0 0 1 -4.695-14.217l6.25-43.749c.007-.048.007-.095.012-.142.019-.154.031-.31.041-.466.009-.13.018-.259.02-.389 0-.045.007-.089.007-.135v-32a8 8 0 0 0 -6.962-7.925 102.563 102.563 0 0 1 62.591-58.982zm-87.626 90.91v-16h13.838.028.024 2.11v16zm7.991-32h-2.265a118.7 118.7 0 0 0 -73.816-74.326l-92.473-31.826a67.719 67.719 0 0 1 -43.811-47.774 74.089 74.089 0 0 1 30.716-79.446 133.324 133.324 0 0 1 74.157-22.548 135.161 135.161 0 0 1 24.587 2.263l4.855.9a513.542 513.542 0 0 0 156.006 4.742l60.947-7.472a67.953 67.953 0 0 1 74.9 54.123l3.37 16.851a67.951 67.951 0 0 1 -45.055 77.759l-97.564 32.675a118.561 118.561 0 0 0 -74.554 74.079z"/></g></svg>