<svg height="463pt" viewBox="0 0 463.112 463" width="463pt" xmlns="http://www.w3.org/2000/svg"><path d="m101.257812 186.558594-29.289062 153.777344 55.191406 36.769531-.046875-185.53125c-8.847656-.644531-17.511719-2.34375-25.855469-5.015625zm0 0"/><path d="m135.113281 48.054688c-13.234375 0-24 10.769531-24 24v48c0 13.234374 10.765625 24 24 24 13.230469 0 24-10.765626 24-24v-48c0-13.230469-10.769531-24-24-24zm0 0"/><path d="m210.792969 138.726562-24.039063-98.140624c-5.84375-23.867188-27.082031-40.5312505-51.640625-40.5312505-24.5625 0-45.800781 16.6640625-51.640625 40.5312505l-24.039062 98.140624c18.167968 23.378907 46.132812 37.328126 75.679687 37.328126 29.542969 0 57.503907-13.949219 75.679688-37.328126zm-35.679688-18.671874c0 22.058593-17.945312 40-40 40-22.058593 0-40-17.941407-40-40v-48c0-22.054688 17.941407-40 40-40 22.054688 0 40 17.945312 40 40zm0 0"/><path d="m269.289062 190.558594c-1.816406-5.726563-3.289062-11.597656-4.28125-17.648438l-25.375 16.3125 6.101563 24.890625zm0 0"/><path d="m214.390625 339.519531 55.832031 41.871094-54.773437-223.636719c-9.121094 9.414063-19.722657 17.109375-31.335938 22.804688zm0 0"/><path d="m259.902344 271.953125 35.402344-35.402344c-7.855469-8.894531-14.503907-18.863281-19.664063-29.710937l-25.457031 25.457031zm0 0"/><path d="m54.777344 157.753906-54.777344 223.636719 55.832031-41.871094 30.28125-158.960937c-11.617187-5.695313-22.21875-13.390625-31.335937-22.804688zm0 0"/><path d="m397.175781 120.054688c-6.929687 0-13.449219 2.699218-18.34375 7.59375l-44.128906 44.128906c-4.894531 4.894531-7.589844 11.414062-7.589844 18.34375 0 14.304687 11.628907 25.933594 25.933594 25.933594 6.929687 0 13.449219-2.695313 18.34375-7.589844l44.128906-44.128906c4.894531-4.894532 7.59375-11.414063 7.59375-18.34375 0-14.304688-11.632812-25.9375-25.9375-25.9375zm0 0"/><path d="m328.136719 293.320312-12.046875-10.527343 15.484375-17.695313c-9.015625-4.761718-17.382813-10.539062-24.957031-17.226562l-42.265626 42.265625 9.914063 40.464843 27.832031-31.808593 12.046875 10.527343-35.222656 40.253907 9.046875 36.945312-16.097656 16.097657-23.765625-17.832032-57.859375 66.136719 61.097656 12.214844 118.921875-184.984375c-8.097656-1.328125-15.914063-3.441406-23.417969-6.207032zm0 0"/><path d="m421.640625 80.054688c-7.96875 0-15.730469 2.28125-22.425781 6.585937l-119.277344 76.679687c5.300781 52.785157 47.125 94.601563 99.902344 99.902344l76.679687-119.277344c4.3125-6.699218 6.59375-14.449218 6.59375-22.417968 0-22.871094-18.601562-41.472656-41.472656-41.472656zm5.191406 95.59375-44.128906 44.128906c-7.917969 7.917968-18.445313 12.277344-29.65625 12.277344-23.117187 0-41.933594-18.816407-41.933594-41.933594 0-11.199219 4.359375-21.738282 12.277344-29.65625l44.128906-44.128906c7.921875-7.921876 18.457031-12.28125 29.65625-12.28125 23.121094 0 41.9375 18.816406 41.9375 41.9375 0 11.207031-4.359375 21.734374-12.28125 29.65625zm0 0"/><path d="m206.839844 353.855469-31.34375 20.914062 5.832031 62.03125 53.9375-61.632812zm0 0"/><path d="m168.96875 186.558594c-8.351562 2.671875-17 4.363281-25.855469 5.007812l.039063 185.53125 55.113281-36.761718zm0 0"/></svg>