<?xml version="1.0" encoding="iso-8859-1"?>
<!-- Generator: Adobe Illustrator 19.0.0, SVG Export Plug-In . SVG Version: 6.00 Build 0)  -->
<svg version="1.1" id="Capa_1" xmlns="http://www.w3.org/2000/svg" xmlns:xlink="http://www.w3.org/1999/xlink" x="0px" y="0px"
	 viewBox="0 0 510.437 510.437" style="enable-background:new 0 0 510.437 510.437;" xml:space="preserve">
<g>
	<g>
		<g>
			<path d="M230.122,267.474l-12.935-12.935l-0.005-0.008c-3.556-3.548-9.309-3.561-12.881-0.029
				c-3.572,3.532-3.624,9.285-0.117,12.881l0.083,0.067l38.812,38.808l0.079,0.097c3.58,3.481,9.29,3.45,12.831-0.07
				c1.715-1.715,2.679-4.041,2.679-6.466c0-2.425-0.964-4.752-2.679-6.467L230.122,267.474z"/>
			<path d="M5.348,479.338c-7.131,7.135-7.131,18.699,0,25.835c7.24,6.876,18.597,6.878,25.839,0.004l166.609-166.609
				l-25.837-25.837L5.348,479.338z"/>
			<path d="M230.125,319.213l-38.813-38.808l-0.08-0.099c-3.596-3.51-9.353-3.456-12.883,0.122
				c-3.53,3.578-3.506,9.335,0.053,12.883l38.813,38.817c3.616,3.459,9.315,3.457,12.929-0.004c3.526-3.537,3.561-9.249,0.08-12.83
				L230.125,319.213z"/>
			<path d="M417.785,209.142c-26.551,26.596-67.72,31.888-100.134,12.871c-2.444-1.431-4.086-3.915-4.447-6.724
				c-0.36-2.809,0.603-5.627,2.607-7.628L469.41,54.07c1.714-1.715,4.04-2.679,6.464-2.679s4.75,0.964,6.464,2.679l2.982,2.982
				L505.223,5.32l-51.741,19.897l2.982,2.987c1.715,1.714,2.679,4.039,2.679,6.464c0,2.425-0.964,4.75-2.679,6.464L302.875,194.722
				c-2.002,2.002-4.818,2.963-7.626,2.603s-5.291-2-6.723-4.442c-18.998-32.352-13.766-73.449,12.732-100.009l96.59-92.768h-58.679
				l10.259,10.259c1.758,1.756,2.726,4.153,2.678,6.638c-0.047,2.485-1.105,4.843-2.928,6.531l-61.107,56.643
				c-39.045,39.39-38.849,102.948,0.438,142.097s102.845,39.121,142.098-0.062l56.402-60.853c1.69-1.824,4.05-2.881,6.536-2.929
				c2.477-0.009,4.858,0.952,6.634,2.679l10.259,10.259v-58.683L417.785,209.142z"/>
			<path d="M263.553,221.101l-26.97,26.97l19.401,19.408l6.47,6.47l26.973-26.973C279.398,239.881,270.648,231.131,263.553,221.101z
				"/>
		</g>
	</g>
</g>
<g>
</g>
<g>
</g>
<g>
</g>
<g>
</g>
<g>
</g>
<g>
</g>
<g>
</g>
<g>
</g>
<g>
</g>
<g>
</g>
<g>
</g>
<g>
</g>
<g>
</g>
<g>
</g>
<g>
</g>
</svg>
