<?xml version="1.0" encoding="iso-8859-1"?>
<!-- Generator: Adobe Illustrator 22.1.0, SVG Export Plug-In . SVG Version: 6.00 Build 0)  -->
<svg xmlns="http://www.w3.org/2000/svg" xmlns:xlink="http://www.w3.org/1999/xlink" version="1.1" id="Layer_1_1_" x="0px" y="0px" viewBox="0 0 64 64" style="enable-background:new 0 0 64 64;" xml:space="preserve" width="512" height="512">
<g>
	<rect x="30.257" y="32.379" transform="matrix(0.7071 -0.7071 0.7071 0.7071 -13.8762 33.5)" width="6.485" height="2.243"/>
	<polygon points="31.586,27 28.414,27 11.1,9.686 17,8 3,3 7,17 9.576,10.99 27,28.414 27,31.586 29,33.586 33.586,29  "/>
	<rect x="39.007" y="32.997" transform="matrix(0.7071 -0.7071 0.7071 0.7071 -17.5005 42.25)" width="6.485" height="18.506"/>
	<rect x="47.757" y="49.879" transform="matrix(0.7071 -0.7071 0.7071 0.7071 -21.1249 51)" width="6.485" height="2.243"/>
	<path d="M60.051,55.465L58.5,53.914L53.914,58.5l1.551,1.551C56.077,60.663,56.892,61,57.758,61C59.546,61,61,59.546,61,57.758   C61,56.892,60.663,56.077,60.051,55.465z"/>
	<rect x="50.757" y="52.879" transform="matrix(0.7071 -0.7071 0.7071 0.7071 -22.3675 54)" width="6.485" height="2.243"/>
	<path d="M31,22c3.309,0,6,2.691,6,6c0,0.483-0.061,0.955-0.172,1.414l2.767,2.767C41.283,31.409,43.125,31,45,31   c7.168,0,13,5.832,13,13c0,1.87-0.423,3.707-1.193,5.393l1.507,1.507C59.415,48.777,60,46.408,60,44c0-8.271-6.729-15-15-15   c-2.218,0-4.396,0.497-6.385,1.434C38.866,29.651,39,28.837,39,28c0-4.411-3.589-8-8-8c-1.842,0-3.592,0.655-4.989,1.769   l1.426,1.426C28.455,22.443,29.695,22,31,22z"/>
</g>
</svg>
