<?xml version="1.0" encoding="iso-8859-1"?>
<!-- Generator: Adobe Illustrator 16.0.0, SVG Export Plug-In . SVG Version: 6.00 Build 0)  -->
<!DOCTYPE svg PUBLIC "-//W3C//DTD SVG 1.1//EN" "http://www.w3.org/Graphics/SVG/1.1/DTD/svg11.dtd">
<svg version="1.1" id="Capa_1" xmlns="http://www.w3.org/2000/svg" xmlns:xlink="http://www.w3.org/1999/xlink" x="0px" y="0px"
	 width="203.611px" height="203.61px" viewBox="0 0 203.611 203.61" style="enable-background:new 0 0 203.611 203.61;"
	 xml:space="preserve">
<g>
	<g>
		<path d="M192.147,96.245l-12.04-2.408c-15.279-3.059-18.205-13.982-6.49-24.273l9.209-8.109
			c11.727-10.291,9.221-14.624-5.557-9.628l-11.632,3.934c-14.765,4.997-22.774-3.003-17.779-17.777l3.931-11.621
			c4.994-14.777,0.662-17.274-9.629-5.562l-8.104,9.212c-10.297,11.718-21.226,8.787-24.287-6.508l-2.4-12.031
			c-3.062-15.297-8.068-15.297-11.13,0l-2.396,12.031c-3.065,15.294-13.988,18.226-24.285,6.508L61.454,20.8
			c-10.291-11.712-14.629-9.215-9.623,5.562l3.928,11.621c4.997,14.774-3.009,22.768-17.777,17.777l-11.626-3.934
			c-14.762-4.995-17.274-0.662-5.556,9.628l9.218,8.109c11.73,10.296,8.787,21.214-6.496,24.273l-12.049,2.408
			c-15.291,3.062-15.291,8.062,0,11.118l12.037,2.399c15.283,3.062,18.226,13.985,6.508,24.282l-9.227,8.109
			c-11.709,10.296-9.218,14.629,5.565,9.628l11.621-3.941c14.768-5.001,22.774,3.014,17.783,17.773l-3.94,11.638
			c-4.995,14.777-0.656,17.271,9.635,5.557l8.104-9.221c10.296-11.716,21.22-8.79,24.279,6.501l2.414,12.053
			c3.05,15.291,8.057,15.291,11.112,0l2.418-12.053c3.05-15.291,13.973-18.217,24.275-6.501l8.104,9.227
			c10.297,11.709,14.623,9.215,9.629-5.562l-3.931-11.638c-4.995-14.76,3.002-22.774,17.779-17.773l11.632,3.941
			c14.777,5.001,17.271,0.668,5.568-9.628l-9.221-8.109c-11.715-10.297-8.777-21.22,6.502-24.282l12.028-2.399
			C207.426,104.313,207.426,99.307,192.147,96.245z M101.819,137.372c-19.647,0-35.571-15.918-35.571-35.559
			c0-19.647,15.924-35.56,35.571-35.56c19.642,0,35.553,15.918,35.553,35.56C137.372,121.454,121.46,137.372,101.819,137.372z"/>
	</g>
</g>
<g>
</g>
<g>
</g>
<g>
</g>
<g>
</g>
<g>
</g>
<g>
</g>
<g>
</g>
<g>
</g>
<g>
</g>
<g>
</g>
<g>
</g>
<g>
</g>
<g>
</g>
<g>
</g>
<g>
</g>
</svg>
