<svg id="_x33_0" enable-background="new 0 0 64 64" height="512" viewBox="0 0 64 64" width="512" xmlns="http://www.w3.org/2000/svg"><g><path d="m25.281 12.313c.309-.118.231-.088.54-.206l-1.569-7.842c-.146-.736-.792-1.265-1.542-1.265h-.137c-.869 0-1.573.704-1.573 1.573 0 .279.074.554.216.795z"/><path d="m27 24c2.757 0 5-2.243 5-5s-2.243-5-5-5-5 2.243-5 5 2.243 5 5 5zm0-7c1.105 0 2 .895 2 2s-.895 2-2 2-2-.895-2-2 .895-2 2-2z"/><path d="m20.484 21.54c-1.365.86-2.511 2.041-3.324 3.436 1.249-.485 2.837-1.026 4.535-1.421-.51-.594-.921-1.274-1.211-2.015z"/><path d="m32 6.269v-.168c0-.608-.493-1.101-1.101-1.101-.523 0-.974.368-1.079.88l-1.29 6.293c.377.085.743.199 1.095.342l2.299-5.843c.05-.128.076-.265.076-.403z"/><path d="m35.55 36.192 2.787 6.23c2.637 1.007 4.849 2.342 6.46 3.49-.952-2.025-2.427-3.796-4.351-5.079l-1.881-1.254 3.624-.906c-1.846-.898-4.466-2.037-6.639-2.481z"/><path d="m32.43 29.216 2.156 4.82c2.547.217 5.849 1.58 8.154 2.679l-2.481-4.961c-.993-.464-4.394-1.972-7.829-2.538z"/><path d="m32.825 22.875c-.585.876-1.364 1.608-2.272 2.146l.921 2.059c2.706.26 5.463 1.153 7.394 1.906-1.336-2.61-3.459-4.746-6.043-6.111z"/><path d="m23.569 25.22c-3.446.566-6.841 2.071-7.828 2.534l-2.481 4.961c2.305-1.099 5.607-2.463 8.154-2.679z"/><path d="m12.328 55.247 4.261-2.841c.461-.307.905-.634 1.344-.967-.103-1.598-.365-3.996-1.014-6.455z"/><path d="m32.285 49.446c1.129 1.608 2.436 3.094 3.904 4.432.217-2.139.686-4.975 1.662-7.645l-2.298-5.137c-1.907 2.715-2.869 6.416-3.268 8.35z"/><path d="m20.45 32.192c-2.174.444-4.793 1.584-6.639 2.48l3.624.906-1.881 1.254c-1.924 1.283-3.399 3.053-4.351 5.077 1.606-1.144 3.813-2.476 6.458-3.486z"/><path d="m31.797 32.701-2.108-4.712c-1.159 1.718-2.201 4.058-2.579 4.945l.443 3.988c.066.597.158 1.188.263 1.774.939-2.11 2.262-4.444 3.981-5.995z"/><path d="m38.067 55.444c.438.332.884.654 1.345.961l4.261 2.841-4.592-10.264c-.65 2.463-.911 4.864-1.014 6.462z"/><path d="m39.548 45.129 5.832 13.036.569-5.656c.033-.366.051-.743.051-1.12v-.178c0-.653-.068-1.294-.167-1.927-.937-.839-3.17-2.654-6.285-4.155z"/><path d="m32.665 34.641c-1.945 2.037-3.296 5.317-4.02 7.417.548 1.744 1.268 3.42 2.149 5.005.683-2.542 1.879-5.684 3.843-8.015z"/><path d="m10.167 45.283c-.099.633-.167 1.275-.167 1.928v.178c0 .377.018.753.052 1.129l.568 5.648 5.837-13.047c-3.117 1.502-5.373 3.348-6.29 4.164z"/><path d="m18.149 42.233c.976 2.67 1.445 5.506 1.662 7.645 1.462-1.333 2.767-2.822 3.9-4.44-.403-1.936-1.368-5.627-3.265-8.34z"/><path d="m24.543 27.942-3.18 7.108c1.955 2.329 3.151 5.462 3.835 8 .38-.684.737-1.383 1.058-2.102-.309-1.244-.547-2.512-.691-3.805z"/><path d="m28.702 25.782c-.546.137-1.114.218-1.702.218-.224 0-.445-.013-.664-.034l.354 3.184c.6-1.14 1.315-2.338 2.064-3.253z"/><path d="m56 16c0-1.654-1.346-3-3-3s-3 1.346-3 3c0 1.302.839 2.402 2 2.816v2.624c0 1.963-1.598 3.56-3.561 3.56-1.581 0-2.988-1.062-3.423-2.582l-1.741-6.097c-.895-3.133-3.796-5.321-7.054-5.321-.387 0-.768.037-1.146.097l1.866-2.252c.971-1.172 2.403-1.845 3.926-1.845 1.836 0 3.473 1.058 4.255 2.68-.679.55-1.122 1.38-1.122 2.32 0 1.654 1.346 3 3 3s3-1.346 3-3-1.346-3-3-3h-.001c-1.073-2.411-3.45-4-6.132-4-2.121 0-4.114.937-5.466 2.569l-1.146 1.383.007.048h-.046l-1.508 1.819-1.027 2.054-.328.655c.269.215.516.455.751.707l2.134-.854c.633-.253 1.3-.381 1.982-.381 2.37 0 4.48 1.592 5.131 3.87l1.741 6.097c.679 2.375 2.879 4.033 5.347 4.033 3.067 0 5.561-2.494 5.561-5.56v-2.624c1.161-.414 2-1.514 2-2.816z"/></g></svg>