<svg id="_x33_0" enable-background="new 0 0 64 64" height="512" viewBox="0 0 64 64" width="512" xmlns="http://www.w3.org/2000/svg"><g><path d="m41 39.414-1.586 1.586 1.586 1.586z"/><path d="m39 55h.72c.427 0 .853-.031 1.28-.042v-1.544l-2-2z"/><path d="m39 43.414v3.172l1.586-1.586z"/><path d="m41 31.414-1.586 1.586 1.586 1.586z"/><path d="m35 55h2v-3.586l-2 2z"/><path d="m41 47.414-1.586 1.586 1.586 1.586z"/><path d="m43 8c0-1.074.251-2.089.685-3h-22.685v6h22.685c-.434-.911-.685-1.926-.685-3z"/><path d="m42.315 26.301c-.86-1.31-1.315-2.83-1.315-4.397 0-.304.024-.605.061-.903h-2.061v6h3.775z"/><path d="m43 13h-4v6h2.608c.336-.777.802-1.496 1.392-2.12z"/><path d="m39 29v1.586l1.586-1.586z"/><path d="m39 35.414v3.172l1.586-1.586z"/><circle cx="50" cy="8" r="1"/><path d="m51 10.816v2.083c1.956-.399 3.5-1.943 3.899-3.899h-2.083c-.302.847-.969 1.514-1.816 1.816z"/><path d="m49.54 16.316c-.354 2.907-.54 5.845-.54 8.767v.681l.781 1.561c.798-1.633 1.219-3.429 1.219-5.274 0-1.872-.421-3.658-1.219-5.253z"/><path d="m52.816 7h2.083c-.399-1.956-1.943-3.5-3.899-3.899v2.083c.847.302 1.514.969 1.816 1.816z"/><path d="m49 5.184v-2.083c-1.956.399-3.5 1.943-3.899 3.899h2.083c.302-.847.969-1.514 1.816-1.816z"/><path d="m43.284 23.713c.165-.664.397-1.312.703-1.923l.118-.236 1.789.895-.118.236c-.507 1.014-.776 2.151-.776 3.287 0 .326.026.652.07.976l1.93-1.448v-.417c0-3.198.221-6.416.633-9.594l-2.779 2.381c-1.178 1.01-1.854 2.481-1.854 4.033 0 .62.1 1.227.284 1.81z"/><path d="m45.111 13h-.111v2.111l1.345-1.153c-.446-.274-.862-.593-1.234-.958z"/><path d="m46.422 32.564 2.138-3.207-.918-1.838-2.09 1.567z"/><path d="m49 12.899v-2.083c-.847-.302-1.514-.969-1.816-1.816h-2.083c.399 1.956 1.943 3.5 3.899 3.899z"/><path d="m54.069 13.685c-.346.248-.715.464-1.104.647l4.665 7.775 3.013.602c-.851-3.751-3.202-7.024-6.574-9.024z"/><path d="m27 21h4v6h-4z"/><path d="m25 27v-6h-2.117l-.75 6z"/><path d="m33 55v-26h-8v7.509c0 2.487-1.859 4.617-4.324 4.954l-9.892 1.349c-4.438.604-7.784 4.438-7.784 8.917v.536c5.66 1.808 11.537 2.735 17.487 2.735z"/><path d="m25 13h-2.117l-.75 6h2.867z"/><path d="m20.487 57c-5.944 0-11.817-.896-17.487-2.642v3.115c0 .45.303.847.737.965 6.237 1.7 12.676 2.562 19.137 2.562h12.297c.267 0 .519-.104.708-.293l2.121-2.121 2.121 2.121c.189.189.441.293.708.293h7.817c.411 0 .776-.247.929-.629l1.887-4.717c-3.851.876-7.788 1.346-11.742 1.346z"/><path d="m60.96 24.812-2.96-.592v3.623c.27.158.543.31.825.451l2.175 1.088v-3.533c0-.348-.015-.694-.04-1.037z"/><path d="m35 50.586 1.586-1.586-1.586-1.586z"/><path d="m51.57 15.903c.935 1.871 1.43 3.967 1.43 6.059 0 .289-.014.575-.031.86.81 1.372 1.832 2.585 3.031 3.601v-3.146l-4.461-7.435z"/><path d="m51.913 43.663c-.606-3.029-.913-6.131-.913-9.218v-5.186c-.114.19-.225.382-.349.567l-5.073 7.609-2.109-8.435h-.469v25.893c3.16-.204 6.293-.714 9.361-1.499.422-1.08.639-2.214.639-3.375 0-.61-.061-1.224-.18-1.821zm-4.913 7.337h-2v-2h2zm0-4h-2v-2h2zm0-4h-2v-2h2z"/><path d="m35 39.414v3.172l1.586-1.586z"/><path d="m37 35.414-1.586 1.586 1.586 1.586z"/><path d="m35 31.414v3.172l1.586-1.586z"/><path d="m27 13h4v6h-4z"/><path d="m37 43.414-1.586 1.586 1.586 1.586z"/><path d="m33 13h4v6h-4z"/><path d="m37 29h-1.586l1.586 1.586z"/><path d="m33 21h4v6h-4z"/></g></svg>