<svg id="_x33_0" enable-background="new 0 0 64 64" height="512" viewBox="0 0 64 64" width="512" xmlns="http://www.w3.org/2000/svg"><g><path d="m27.636 44.509c-.196.128-.411.227-.636.307v6.184h-2v-6.184c-.225-.08-.44-.178-.636-.307l-.128.255c-.808 1.617-1.236 3.427-1.236 5.236s.428 3.619 1.236 5.236l1.764 3.528 1.764-3.528c.808-1.617 1.236-3.427 1.236-5.236s-.428-3.619-1.236-5.236z"/><path d="m15 46h3v3h-3z"/><path d="m20 47.586 1.586-1.586h-1.586z"/><path d="m20 44h1.586l-1.586-1.586z"/><path d="m18 44v-1.586l-1.586 1.586z"/><path d="m13 52.586v-1.586h-1.586z"/><path d="m15 52.586 1.586-1.586h-1.586z"/><circle cx="26" cy="42" r="1"/><path d="m23.068 42.627c-.043-.202-.068-.412-.068-.627 0-.462.113-.894.301-1.285l-1.801-1.801-1.086 1.086 2.645 2.645z"/><path d="m26 39c.23 0 .451.031.666.081l-2.666-2.667-1.086 1.086 1.801 1.801c.391-.188.823-.301 1.285-.301z"/><path d="m6.982 53.714h1.536v5.071h-1.536z" transform="matrix(.707 -.707 .707 .707 -37.505 21.955)"/><path d="m9.482 51.214h1.536v5.071h-1.536z" transform="matrix(.707 -.707 .707 .707 -35.005 22.991)"/><path d="m3.414 57c-.268.267-.414.622-.414 1s.146.733.414 1l1.586 1.586c.535.534 1.465.535 2 0l.586-.586-3.586-3.586z"/><path d="m13 49v-1.586l-1.586 1.586z"/><path d="m39.17 21.244c1.413.314 2.71.931 3.83 1.775v-2.019h-3.586z"/><path d="m37 23c-4.411 0-8 3.589-8 8 0 3.3 2.035 6.233 5.043 7.43-.02-.142-.043-.283-.043-.43 0-.579.172-1.115.457-1.573-2.039-.96-3.457-3.028-3.457-5.427 0-3.309 2.691-6 6-6s6 2.691 6 6c0 2.399-1.418 4.467-3.457 5.427.285.458.457.994.457 1.573 0 .147-.023.288-.043.43 3.008-1.197 5.043-4.13 5.043-7.43 0-4.411-3.589-8-8-8z"/><path d="m43 17.414-1.586 1.586h1.586z"/><path d="m38.782 13.632-2.368 2.368 2.586 2.586 4.488-4.489 4.818-1.205 2.801 2.801-1.204 4.818-4.489 4.489 2.586 2.586 2.368-2.368c5.953-5.953 9.666-13.769 10.532-22.118-8.349.867-16.166 4.58-22.118 10.532z"/><path d="m33 31c0 .964.357 1.838.927 2.529l1.455-2.003-2.358-.766c-.005.081-.024.158-.024.24z"/><path d="m45 22.586 1.586-1.586h-1.586z"/><path d="m48.893 16.307-1.2-1.2-2.693.674v3.219h3.219z"/><path d="m38 27.142v2.482l2.365-.768c-.537-.84-1.376-1.457-2.365-1.714z"/><path d="m25.414 35 3.586 3.586.731-.731c-1.222-1.298-2.089-2.913-2.485-4.688z"/><path d="m41 31c0-.082-.019-.159-.024-.24l-2.358.766 1.455 2.003c.57-.691.927-1.565.927-2.529z"/><path d="m38.636 40.509c-.196.128-.411.227-.636.307v6.184h-2v-6.184c-.225-.08-.44-.178-.636-.307l-.128.255c-.808 1.617-1.236 3.427-1.236 5.236s.428 3.619 1.236 5.236l1.764 3.528 1.764-3.528c.808-1.617 1.236-3.427 1.236-5.236s-.428-3.619-1.236-5.236z"/><path d="m35.537 34.714c.455.18.946.286 1.463.286s1.008-.106 1.463-.286l-1.463-2.013z"/><path d="m33.635 28.855 2.365.769v-2.482c-.989.257-1.828.874-2.365 1.713z"/><circle cx="37" cy="38" r="1"/></g></svg>