<svg id="_x33_0" enable-background="new 0 0 64 64" height="512" viewBox="0 0 64 64" width="512" xmlns="http://www.w3.org/2000/svg"><g><path d="m3.67 17.106-.665-.38c.004.399.024.797.055 1.194z"/><g><path d="m8.952 45.538c-.176-1.617-.87-3.137-1.952-4.341v-9.381c1.161-.414 2-1.514 2-2.816 0-.109-.021-.212-.032-.318l3.032-.822v-2.955l-3.191-.319-.562 2.448c-.462-.527-1.099-.887-1.824-.991l.38-1.657-2.084-.208c.055.117.105.236.163.352l.098.196c.223.445.474.879.736 1.304-1.519.144-2.716 1.413-2.716 2.97 0 1.302.839 2.402 2 2.816v9.381c-1.082 1.204-1.776 2.724-1.952 4.341l1.952-1.952v2.828l-1.764 1.764c.134.552.318 1.089.572 1.601l1.192-1.193v2.828l-.113.113 1.113 1.67 1.113-1.67-.113-.113v-2.828l.85.85c.217-.49.462-.967.756-1.416l-1.606-1.606v-2.828z"/><path d="m56.663 16.898.708-.404-.52-.693c-.051.37-.109.737-.188 1.097z"/><path d="m56.942 12.589 2.178 2.905 1.792-1.024c-.475-4.534-3.071-9.053-8.184-10.823l.867 1.012c1.919 2.237 3.083 5.015 3.347 7.93z"/><path d="m54.74 22.621-.188-.82c-.213.313-.442.613-.679.907z"/><path d="m60.995 16.726-.665.38.61.814c.031-.397.051-.795.055-1.194z"/><path d="m39.749 32.519 1.382-1.759c-1.31-1.295-2.898-2.302-4.659-2.951.328.665.528 1.402.528 2.191 0 .101-.024.196-.03.296z"/><path d="m6.629 16.494.708.404c-.079-.36-.137-.728-.188-1.097z"/><path d="m56.746 22.42 3.366-.337c.15-.462.288-.928.4-1.401l-1.932-2.577-2.496 1.426z"/><path d="m3.488 20.683c.113.473.25.939.401 1.401l3.366.337.662-2.888-2.497-1.427z"/><path d="m22.869 30.76 1.382 1.759 2.779-2.223c-.006-.1-.03-.195-.03-.296 0-.789.2-1.526.527-2.191-1.761.649-3.348 1.656-4.658 2.951z"/><path d="m27.425 36.559 1.67-2.506c-.61-.438-1.105-1.014-1.467-1.676l-2.143 1.714z"/><path d="m32 33c1.654 0 3-1.346 3-3s-1.346-3-3-3-3 1.346-3 3 1.346 3 3 3zm0-4c.552 0 1 .448 1 1s-.448 1-1 1-1-.448-1-1 .448-1 1-1z"/><path d="m36.575 36.559 1.939-2.468-2.143-1.714c-.362.662-.857 1.238-1.467 1.676z"/><path d="m50 26.044c-.523.308-1.06.595-1.624.834l1.624.44z"/><path d="m15 34c0-.322-.064-.627-.159-.919l2.266-4.533-3.107.843v2.39c-.532-.48-1.229-.78-2-.78v-1.068l-2.221.602c.333.255.686.482 1.037.711-1.066.459-1.816 1.52-1.816 2.754 0 1.302.839 2.402 2 2.816v11.381c-1.082 1.204-1.776 2.724-1.952 4.341l1.952-1.952v2.828l-1.764 1.764c.134.552.318 1.089.572 1.601l1.192-1.193v2.828l-.113.113 1.113 1.67 1.113-1.67-.113-.113v-2.828l1.192 1.192c.253-.511.438-1.048.572-1.6l-1.764-1.764v-2.828l1.952 1.952c-.176-1.617-.87-3.137-1.952-4.341v-11.381c1.161-.414 2-1.514 2-2.816z"/><path d="m14 26.045v1.274l1.623-.44c-.563-.24-1.1-.527-1.623-.834z"/><path d="m33 61h.417c.998 0 1.83-.716 1.978-1.703l.386-2.575-2.781-1.853z"/><path d="m33 52.465 3.109 2.072.49-3.269-3.599-2.399z"/><path d="m33.054 34.883c-.341.074-.692.117-1.054.117s-.713-.043-1.054-.117l-2.221 3.331 3.275 4.168 3.274-4.167z"/><path d="m19 40v.842c0 2.073 1.304 3.954 3.244 4.682l2.409.903-.247-1.65c-.209-1.392-1-2.638-2.172-3.419l-.788-.525 1.109-1.664.789.525c1.64 1.094 2.748 2.839 3.04 4.786l.69 4.603 3.926-2.618v-2.119l-9.457-12.036c-1.591 2.156-2.543 4.811-2.543 7.69z"/><path d="m42.86 28h-1.899c2.04 1.527 3.68 3.553 4.731 5.905.514-.052 1.025-.121 1.531-.22l-2.882-5.764c-.486.051-.98.079-1.481.079z"/><path d="m33 44.345v2.119l3.927 2.618.69-4.603c.292-1.947 1.4-3.692 3.039-4.786l.789-.525 1.109 1.664-.789.525c-1.171.781-1.962 2.027-2.171 3.419l-.247 1.65 2.409-.903c1.94-.727 3.244-2.608 3.244-4.681v-.842c0-2.879-.952-5.534-2.543-7.691z"/><path d="m27.891 54.537 3.109-2.072v-3.596l-3.599 2.399z"/><path d="m7.058 12.589c.264-2.915 1.428-5.693 3.346-7.93l.867-1.012c-5.113 1.77-7.709 6.289-8.184 10.823l1.792 1.024z"/><path d="m10.126 22.707c-.237-.294-.466-.594-.678-.907l-.188.82z"/><path d="m23.038 28h-1.899c-.501 0-.995-.028-1.482-.079l-2.882 5.764c.506.099 1.018.168 1.531.22 1.052-2.352 2.693-4.378 4.732-5.905z"/><path d="m28.605 59.297c.148.987.98 1.703 1.978 1.703h.417v-6.131l-2.781 1.853z"/><path d="m60.952 45.538c-.176-1.617-.87-3.137-1.952-4.341v-9.381c1.161-.414 2-1.514 2-2.816 0-1.557-1.197-2.826-2.716-2.971.262-.426.514-.86.737-1.307l.098-.195c.057-.115.107-.233.162-.349l-2.085.208.38 1.657c-.726.104-1.363.464-1.824.991l-.562-2.448-3.19.319v2.955l3.032.821c-.011.107-.032.21-.032.319 0 1.302.839 2.402 2 2.816v9.381c-1.082 1.204-1.776 2.724-1.952 4.341l1.952-1.952v2.828l-1.606 1.606c.294.449.539.926.756 1.416l.85-.85v2.828l-.114.114 1.114 1.669 1.113-1.67-.113-.113v-2.828l1.192 1.192c.253-.511.438-1.048.572-1.601l-1.764-1.763v-2.828z"/><path d="m55 34c0-1.234-.75-2.295-1.817-2.755.351-.23.705-.456 1.037-.711l-2.22-.602v1.068c-.771 0-1.468.301-2 .78v-2.39l-3.107-.842 2.266 4.533c-.095.292-.159.597-.159.919 0 1.302.839 2.402 2 2.816v11.381c-1.082 1.204-1.776 2.724-1.952 4.341l1.952-1.952v2.828l-1.764 1.764c.134.552.318 1.089.572 1.601l1.192-1.193v2.828l-.113.113 1.113 1.67 1.113-1.67-.113-.113v-2.828l1.192 1.192c.253-.511.438-1.048.572-1.601l-1.764-1.763v-2.828l1.952 1.952c-.176-1.617-.87-3.137-1.952-4.341v-11.381c1.161-.414 2-1.514 2-2.816z"/></g></g></svg>