<svg id="_x33_0" enable-background="new 0 0 64 64" height="512" viewBox="0 0 64 64" width="512" xmlns="http://www.w3.org/2000/svg"><g><path d="m9.463 28.387-6.453 3.226c-.002.13-.01.257-.01.387 0 1.25.12 2.485.332 3.696l6.68-5.196c-.222-.691-.399-1.398-.549-2.113z"/><path d="m19.414 48 5.375 5.375 5.469-9.375h-6.844z"/><path d="m10.758 32.455-6.938 5.397c.347 1.228.799 2.42 1.352 3.562l6.708-6.708c-.42-.725-.788-1.48-1.122-2.251z"/><path d="m9.35 20.246-4.111.587c-.378.902-.709 1.827-.995 2.772l4.844-1.384c.056-.676.145-1.333.262-1.975z"/><path d="m9.01 24.323-5.347 1.527c-.246 1.133-.425 2.29-.534 3.467l6.007-3.003c-.072-.658-.118-1.322-.126-1.991z"/><path d="m10.66 16h-2.83c-.57.858-1.092 1.749-1.57 2.667l3.59-.513c.226-.745.494-1.465.81-2.154z"/><path d="m39.211 53.375 5.375-5.375-4-4h-6.844z"/><path d="m54.915 22.222 4.841 1.383c-.286-.945-.618-1.87-.995-2.772l-4.103-.586c.115.642.203 1.299.257 1.975z"/><path d="m54.859 26.311 6.013 3.006c-.109-1.178-.288-2.334-.534-3.467l-5.35-1.528c-.011.669-.057 1.332-.129 1.989z"/><path d="m54.161 18.156 3.579.511c-.478-.918-1-1.809-1.57-2.667h-2.815c.316.689.58 1.411.806 2.156z"/><path d="m29 5.122v6.878h2v-6.978c.333-.008.661-.022 1-.022s.667.014 1 .022v18.978h2v-18.878c8.014.627 14.006 3.79 17.252 8.878h2.461c-5.318-6.695-13.52-11-22.713-11s-17.395 4.305-22.712 11h2.476c3.248-5.094 9.234-8.252 17.236-8.878z"/><path d="m26.742 54h10.517l-5.259-9.015zm6.258-3c0 .552-.448 1-1 1s-1-.448-1-1 .448-1 1-1 1 .448 1 1z"/><path d="m42.75 43.336 7.41 7.41.107-.059c3.147-1.835 5.718-4.422 7.559-7.447l-6.824-6.824c-2.092 2.936-4.911 5.348-8.252 6.92zm6.25 2.664c-.552 0-1-.448-1-1s.448-1 1-1 1 .448 1 1-.448 1-1 1zm3-5c.552 0 1 .448 1 1s-.448 1-1 1-1-.448-1-1 .448-1 1-1z"/><path d="m37.771 57.643 10.572-5.886-2.343-2.343z"/><path d="m60.99 31.613-6.46-3.23c-.151.715-.329 1.421-.55 2.111l6.688 5.202c.212-1.211.332-2.446.332-3.696 0-.13-.008-.257-.01-.387z"/><path d="m52.115 34.701 6.713 6.712c.553-1.142 1.005-2.335 1.352-3.562l-6.945-5.402c-.333.772-.7 1.527-1.12 2.252z"/><path d="m15.644 51.77 10.601 5.889-8.245-8.245z"/><path d="m32 60.586 4.586-4.586h-9.172z"/><path d="m12.995 36.419-6.82 6.82c1.841 3.026 4.412 5.612 7.559 7.447l.105.061 7.412-7.412c-3.344-1.572-6.164-3.984-8.256-6.916zm-.995 6.581c-.552 0-1-.448-1-1s.448-1 1-1 1 .448 1 1-.448 1-1 1zm3 3c-.552 0-1-.448-1-1s.448-1 1-1 1 .448 1 1-.448 1-1 1z"/></g></svg>