<svg id="_x33_0" enable-background="new 0 0 64 64" height="512" viewBox="0 0 64 64" width="512" xmlns="http://www.w3.org/2000/svg"><g><path d="m35 14.008 2.121-3.008h-2.121z"/><path d="m33.523 31c-.408-1.188-.95-2.329-1.63-3.395-.852 1.029-1.521 2.174-2.004 3.395z"/><path d="m16.374 17.758 1.626 2.439 1.626-2.439c.899-1.348 1.374-2.918 1.374-4.538 0-1.85-.637-3.665-1.792-5.11l-.208-.259v5.149h-2v-5.149l-.208.259c-1.155 1.445-1.792 3.26-1.792 5.11 0 1.62.475 3.19 1.374 4.538z"/><path d="m23 13.22c0 2.016-.591 3.969-1.71 5.647l-3.29 4.936-3.29-4.935c-.585-.877-1.017-1.832-1.304-2.83-.429.225-.865.436-1.314.619.174 1.94.634 3.831 1.403 5.626.999 2.329 1.505 4.797 1.505 7.333v1.384h12.767c.537-1.607 1.348-3.112 2.419-4.455-1.291-.665-2.186-1.996-2.186-3.545 0-1.61.961-2.992 2.335-3.626l-9.764-13.852c-.121.203-.258.395-.422.563l.62.775c1.439 1.799 2.231 4.057 2.231 6.36z"/><path d="m29 11h-2.121l2.121 3.008z"/><circle cx="18" cy="4" r="1"/><path d="m38.531 9 3.773-5.352c-1.554-.43-3.154-.648-4.776-.648h-11.056c-1.622 0-3.223.218-4.776.648l3.773 5.352z"/><path d="m34.94 43.203-.582-8.144c-.05-.695-.15-1.382-.288-2.059h-1.07v4h-2v-4h-1.715c-.184.864-.285 1.752-.285 2.657v3.528c1.161.414 2 1.514 2 2.816 0 .771-.301 1.468-.78 2 .48.532.78 1.229.78 2 0 1.654-1.346 3-3 3s-3-1.346-3-3c0-.771.301-1.468.78-2-.48-.532-.78-1.229-.78-2 0-1.302.839-2.402 2-2.816v-3.528c0-.902.09-1.788.248-2.657h-4.248v8h-2v-8h-2v4h-2v-4h-2v8.155c0 3.287-.207 6.578-.604 9.845h18.789c-.113-.314-.185-.648-.185-1 0-.771.301-1.468.78-2-.48-.532-.78-1.229-.78-2 0-1.28.809-2.367 1.94-2.797z"/><path d="m33 16.846v-5.846h-2v5.846l1 1.418z"/><circle cx="36" cy="46" r="1"/><path d="m49.604 51c-.397-3.267-.604-6.557-.604-9.845v-8.155h-2v4h-2v-4h-2v8h-2v-8h-4.898c.114.632.206 1.27.252 1.916l.589 8.251c1.191.397 2.057 1.51 2.057 2.833 0 .771-.301 1.468-.78 2 .48.532.78 1.229.78 2 0 .352-.072.686-.184 1z"/><circle cx="32" cy="23" r="2"/><circle cx="28" cy="46" r="1"/><circle cx="28" cy="42" r="1"/><circle cx="36" cy="50" r="1"/><path d="m33.766 61h8.468l-4.234-7.056zm5.234-3c0 .552-.448 1-1 1s-1-.448-1-1 .448-1 1-1 1 .448 1 1z"/><path d="m49.328 7.639 4.312 3.593-1.28 1.536-1.505-1.255c.096.562.145 1.133.145 1.707 0 .238-.036.471-.052.707.795.471 1.627.877 2.503 1.169l1.549.516v-2.125c0-3.449-2.198-6.499-5.47-7.589l-.985-.328c-.115.185-.245.36-.396.516l.62.775c.2.25.385.511.559.778z"/><path d="m27.766 53 4.234 7.056 4.234-7.056zm4.234 4c-.552 0-1-.448-1-1s.448-1 1-1 1 .448 1 1-.448 1-1 1z"/><circle cx="46" cy="4" r="1"/><path d="m39.766 53 4.234 7.056 4.234-7.056zm4.234 4c-.552 0-1-.448-1-1s.448-1 1-1 1 .448 1 1-.448 1-1 1z"/><path d="m59.251 14.768c-.427-2.278-1.609-4.275-3.295-5.727.671 1.351 1.044 2.864 1.044 4.446v4.901l-3.15-1.05c-.226 1.974-.721 3.899-1.507 5.733-.891 2.079-1.343 4.281-1.343 6.545v11.54c0 1.586.052 3.172.147 4.756 1.044-.176 2.018-.624 2.827-1.322l-.972-16.531 1.996-.117.59 10.022c1.243-.088 2.413-.544 3.36-1.351l-1.94-16.496 1.986-.233.584 4.964c.564-.184 1.049-.531 1.373-1.024z"/><path d="m50.012 53.924-4.246 7.076h3.682c.835 0 1.546-.639 1.552-1.395v-.23c0-.176-.02-.352-.058-.523-.362-1.632-.669-3.276-.93-4.928z"/><path d="m21.766 61h8.468l-4.234-7.056zm5.234-3c0 .552-.448 1-1 1s-1-.448-1-1 .448-1 1-1 1 .448 1 1z"/><path d="m36 23c0 1.619-.971 3.009-2.357 3.638.857 1.364 1.525 2.829 1.987 4.362h13.37v-1.384c0-2.536.506-5.003 1.505-7.333.769-1.795 1.228-3.686 1.403-5.626-.449-.183-.885-.393-1.314-.619-.287.997-.719 1.952-1.304 2.83l-3.29 4.935-3.29-4.935c-1.119-1.679-1.71-3.632-1.71-5.648 0-2.303.792-4.561 2.231-6.359l.62-.775c-.164-.169-.301-.36-.422-.564l-9.765 13.852c1.375.634 2.336 2.016 2.336 3.626z"/><path d="m13.058 58.851c-.038.172-.058.348-.058.524v.211c.006.775.717 1.414 1.552 1.414h3.682l-4.246-7.076c-.261 1.652-.568 3.296-.93 4.927z"/><path d="m13 29.616c0-2.264-.452-4.466-1.343-6.545-.786-1.834-1.281-3.76-1.507-5.733l-3.15 1.05v-4.901c0-1.582.373-3.095 1.043-4.446-1.685 1.452-2.867 3.449-3.295 5.727l-1.698 9.056c.328.499.816.85 1.372 1.032l.585-4.972 1.986.233-1.94 16.496c.947.807 2.117 1.263 3.36 1.351l.59-10.022 1.996.117-.972 16.531c.809.698 1.783 1.147 2.827 1.322.094-1.585.146-3.171.146-4.757z"/><path d="m15.766 53 4.234 7.056 4.234-7.056zm4.234 4c-.552 0-1-.448-1-1s.448-1 1-1 1 .448 1 1-.448 1-1 1z"/><path d="m13.052 13.927c-.016-.236-.052-.469-.052-.707 0-.574.049-1.145.146-1.707l-1.505 1.255-1.28-1.536 4.312-3.593c.175-.267.359-.528.559-.778l.62-.775c-.152-.156-.282-.331-.397-.517l-.985.328c-3.272 1.091-5.47 4.141-5.47 7.59v2.125l1.548-.516c.877-.292 1.709-.698 2.504-1.169z"/><path d="m44.374 17.758 1.626 2.439 1.626-2.439c.899-1.348 1.374-2.918 1.374-4.538 0-1.85-.637-3.665-1.792-5.11l-.208-.259v5.149h-2v-5.149l-.208.259c-1.155 1.445-1.792 3.26-1.792 5.11 0 1.62.475 3.19 1.374 4.538z"/></g></svg>