<?xml version="1.0" encoding="iso-8859-1"?>
<!-- Generator: Adobe Illustrator 16.0.0, SVG Export Plug-In . SVG Version: 6.00 Build 0)  -->
<!DOCTYPE svg PUBLIC "-//W3C//DTD SVG 1.1//EN" "http://www.w3.org/Graphics/SVG/1.1/DTD/svg11.dtd">
<svg version="1.1" id="Capa_1" xmlns="http://www.w3.org/2000/svg" xmlns:xlink="http://www.w3.org/1999/xlink" x="0px" y="0px"
	 width="368.069px" height="368.069px" viewBox="0 0 368.069 368.069" style="enable-background:new 0 0 368.069 368.069;"
	 xml:space="preserve">
<g>
	<g>
		<polygon points="343.69,142.932 365.193,130.634 321.442,54.154 299.633,66.623 275.956,25.616 228.086,25.616 228.086,0 
			139.975,0 139.975,25.616 92.107,25.616 68.274,66.887 46.002,54.154 2.258,130.634 24.223,143.196 0.18,184.839 23.521,225.275 
			2.258,237.441 46.002,313.919 67.578,301.585 92.107,344.062 139.975,344.062 139.975,368.069 228.086,368.069 228.086,344.062 
			275.956,344.062 300.336,301.849 321.442,313.919 365.193,237.441 344.387,225.54 367.89,184.839 		"/>
	</g>
</g>
<g>
</g>
<g>
</g>
<g>
</g>
<g>
</g>
<g>
</g>
<g>
</g>
<g>
</g>
<g>
</g>
<g>
</g>
<g>
</g>
<g>
</g>
<g>
</g>
<g>
</g>
<g>
</g>
<g>
</g>
</svg>
