<svg height="464pt" viewBox="0 0 464 464" width="464pt" xmlns="http://www.w3.org/2000/svg"><path d="m328 80h-19.3125l-20.6875-20.6875-20.6875 20.6875h-99.3125v33.472656c2.511719-.898437 5.183594-1.472656 8-1.472656 5.777344 0 11 2.128906 15.152344 5.535156l21.535156-21.535156h115.3125zm0 0"/><path d="m184 136c0 4.417969-3.582031 8-8 8s-8-3.582031-8-8 3.582031-8 8-8 8 3.582031 8 8zm0 0"/><path d="m219.3125 256h108.976562c-.074218-3.160156-.289062-6.3125-.289062-9.472656v-38.519532h-108.6875l-19.746094 19.746094c.25 1.375.433594 2.789063.433594 4.246094s-.183594 2.871094-.433594 4.257812zm60.6875-32h16v16h-16zm-48 0h16v16h-16zm0 0"/><path d="m219.3125 160h108.6875v-48h-108.6875l-19.746094 19.742188c.25 1.386718.433594 2.800781.433594 4.257812s-.183594 2.871094-.433594 4.257812zm60.6875-32h16v16h-16zm-48 0h16v16h-16zm0 0"/><path d="m144 64h116.6875l27.3125-27.3125 27.3125 27.3125h36.6875c4.414062 0 8-3.585938 8-8v-56h-224v56c0 4.414062 3.585938 8 8 8zm0 0"/><path d="m243.878906 400c-10.6875 0-20.734375 4.167969-28.285156 11.71875l-28.28125 28.28125h-187.3125v24h196.6875l27.3125-27.3125c2.976562-2.976562 7.105469-4.6875 11.3125-4.6875h16.191406c7.351563 0 13.734375 4.984375 15.511719 12.128906l4.984375 19.863282h16v-23.992188h16v23.992188h16v-24h16v24h16v-22.519532c0-13.855468-.878906-27.695312-2.34375-41.480468h-105.777344zm0 0"/><path d="m184 232c0 4.417969-3.582031 8-8 8s-8-3.582031-8-8 3.582031-8 8-8 8 3.582031 8 8zm0 0"/><path d="m212.6875 192h115.3125v-16h-115.3125l-21.535156-21.535156c-4.144532 3.40625-9.375 5.535156-15.152344 5.535156-2.816406 0-5.488281-.574219-8-1.472656v50.953125c2.511719-.894531 5.183594-1.472657 8-1.472657 5.777344 0 11 2.128907 15.152344 5.535157zm0 0"/><path d="m464 256v-16h-8.640625c-.640625-4.441406-1.773437-8.71875-3.398437-12.761719l7.453124-4.300781-8-13.859375-7.484374 4.320313c-2.738282-3.460938-5.867188-6.589844-9.328126-9.328126l4.320313-7.484374-13.859375-8-4.300781 7.453124c-4.042969-1.625-8.320313-2.757812-12.761719-3.398437v-8.640625h-16v8.640625c-4.441406.640625-8.71875 1.773437-12.761719 3.398437l-4.300781-7.453124-13.859375 8 4.320313 7.484374c-3.460938 2.738282-6.589844 5.867188-9.328126 9.328126l-7.484374-4.320313-8 13.859375 7.453124 4.300781c-1.625 4.042969-2.757812 8.320313-3.398437 12.761719h-8.640625v16h8.640625c.816406 5.648438 2.464844 11.023438 4.839844 16h-136.792969l-21.535156-21.535156c-4.144532 3.40625-9.375 5.535156-15.152344 5.535156-2.816406 0-5.488281-.574219-8-1.472656v19.863281c0 21.257813-9.519531 41.074219-26.128906 54.363281-12.285156 9.832032-27.734375 15.246094-43.488282 15.246094h-44.773437c-27.664063 0-50.496094 21.0625-53.3125 48h55.703125v16h-56v16h180.6875l23.59375-23.59375c10.574219-10.574219 24.640625-16.40625 39.597656-16.40625h103.722656c-1.585937-10.742188-3.578124-21.414062-6.042968-32h-93.957032c-23.402343 0-45.402343 9.113281-61.945312 25.65625-19.566406 19.566406-45.585938 30.34375-73.257812 30.34375h-40.398438v-16h40.398438c23.402343 0 45.402343-9.113281 61.945312-25.65625 19.566406-19.566406 45.585938-30.34375 73.257812-30.34375h90.476563c-3.542969-15.839844-6.238281-31.871094-7.925781-48h30.734375c8.296875 8.113281 19.097656 13.632812 31.113281 15.359375v8.640625h16v-8.640625c4.441406-.640625 8.71875-1.773437 12.761719-3.398437l4.300781 7.453124 13.859375-8-4.320313-7.484374c3.460938-2.738282 6.589844-5.867188 9.328126-9.328126l7.484374 4.320313 8-13.859375-7.453124-4.300781c1.625-4.042969 2.757812-8.320313 3.398437-12.761719zm-72-8c0-4.414062 3.585938-8 8-8s8 3.585938 8 8-3.585938 8-8 8-8-3.585938-8-8zm-2.28125 21.601562c3.128906 1.496094 6.59375 2.40625 10.28125 2.40625 13.230469 0 24-10.769531 24-24 0-13.230468-10.769531-24-24-24s-24 10.769532-24 24c0 3.695313.902344 7.152344 2.40625 10.28125l-11.742188 11.742188c-4.191406-6.328125-6.664062-13.886719-6.664062-22.03125 0-22.054688 17.945312-40 40-40s40 17.945312 40 40-17.945312 40-40 40c-8.136719 0-15.695312-2.472656-22.023438-6.664062zm0 0"/></svg>