<svg id="_x33_0" enable-background="new 0 0 64 64" height="512" viewBox="0 0 64 64" width="512" xmlns="http://www.w3.org/2000/svg"><g><path d="m15.947 23.562 1.101-1.284c1.019-1.189 2.426-1.954 3.952-2.191v-4.027c-2.184.218-4.236 1.176-5.798 2.738-2.665 2.665-6.273 4.169-10.041 4.191-1.731.011-3.161.011-3.161.011.588 2.351 2.7 4 5.123 4h1.349c2.874 0 5.604-1.256 7.475-3.438z"/><path d="m58.84 22.99c-3.768-.023-7.377-1.527-10.041-4.191-1.562-1.562-3.614-2.521-5.798-2.738v4.026c1.526.237 2.933 1.002 3.952 2.191l1.101 1.284c1.87 2.182 4.6 3.438 7.474 3.438h1.349c2.423 0 4.535-1.649 5.123-4 0 0-1.43 0-3.16-.01z"/><path d="m38.718 41.35-.248 2.969 16.42-15.353c-.852-.046-1.686-.182-2.496-.404z"/><path d="m11.606 28.562c-.81.222-1.644.358-2.496.404l16.42 15.354-.247-2.969z"/><path d="m31 16.618-2.211 1.105c-.361.181-.767.277-1.171.277-1.443 0-2.618-1.174-2.618-2.618 0-.129.019-.255.035-.382h-2.035v6h5.257l-2.788 12.084c-.312 1.348-.469 2.731-.469 4.113 0 .508.021 1.015.063 1.521l.219 2.633 5.718 5.345z"/><path d="m27 15.382c0 .437.508.751.895.553l4.105-2.053 4.105 2.053c.387.195.895-.117.895-.553 0-.129-.024-.258-.071-.382l-4.503-11.708c-.135-.349-.716-.35-.853.001l-4.503 11.709c-.046.122-.07.25-.07.38z"/><path d="m20.631 15.125.369-.035v-.09c0-1.103.897-2 2-2h2.697l2.308-6h-7.769c-.381 0-.724.212-.895.553l-1.076 2.153c-.173.347-.265.735-.265 1.123 0 .541.179 1.076.502 1.507z"/><path d="m41 13c1.103 0 2 .897 2 2v.087l.373.034 2.13-2.791c.318-.425.497-.96.497-1.501 0-.388-.092-.776-.266-1.123l-1.076-2.153c-.171-.341-.513-.553-.894-.553h-7.769l2.308 6z"/><path d="m30.081 55h3.838c-.126-.775-.398-1.522-.806-2.2l-1.113-1.856-1.113 1.856c-.408.678-.68 1.425-.806 2.2z"/><path d="m34.828 51.771c.767 1.276 1.172 2.739 1.172 4.229v1h-8v-1c0-1.49.405-2.953 1.172-4.229l1.555-2.592-5.197-4.859 1.314 15.764c.044.522.471.916.996.916h8.32c.524 0 .952-.394.995-.917l1.315-15.764-5.197 4.859z"/><path d="m39 37.197c0-1.382-.157-2.766-.469-4.113l-2.788-12.084h5.257v-6h-2.035c.016.127.035.253.035.382 0 1.444-1.175 2.618-2.618 2.618-.404 0-.81-.096-1.171-.276l-2.211-1.106v30.078l5.718-5.346.22-2.633c.041-.505.062-1.012.062-1.52z"/></g></svg>