<?xml version="1.0" encoding="iso-8859-1"?>
<!-- Generator: Adobe Illustrator 19.0.0, SVG Export Plug-In . SVG Version: 6.00 Build 0)  -->
<svg version="1.1" id="Capa_1" xmlns="http://www.w3.org/2000/svg" xmlns:xlink="http://www.w3.org/1999/xlink" x="0px" y="0px"
	 viewBox="0 0 508.216 508.216" style="enable-background:new 0 0 508.216 508.216;" xml:space="preserve">
<g>
	<g>
		<g>
			<polygon points="16.047,452.514 70.618,477.318 89.696,458.24 35.128,433.432 			"/>
			<polygon points="0.032,468.528 39.72,508.216 56.813,491.123 2.242,466.319 			"/>
			<path d="M335.689,136.796c-2.509,0-4.915,0.997-6.688,2.772l-39.469,39.46c-3.691,3.696-3.691,9.683,0,13.38l26.308,26.308
				c3.746,3.569,9.634,3.569,13.38,0l39.46-39.464c1.775-1.774,2.772-4.18,2.772-6.69c0-2.509-0.997-4.916-2.772-6.69
				l-26.304-26.304C340.603,137.793,338.197,136.796,335.689,136.796z"/>
			<path d="M250.184,130.537c2.425,0.001,4.75,0.964,6.464,2.679l26.42,26.42l13.268-13.266l13.267-13.266L283.18,106.68
				c-1.715-1.714-2.678-4.039-2.679-6.464c0-41.022,62.67-62.442,94.978-70.754c-55.61-43.287-134.754-38.376-184.587,11.454
				c-49.832,49.83-54.747,128.974-11.463,184.586C187.747,193.189,209.162,130.537,250.184,130.537z"/>
			
				<rect x="106.887" y="284.777" transform="matrix(0.7071 -0.7071 0.7071 0.7071 -145.3755 237.5084)" width="214.247" height="18.921"/>
			<path d="M478.782,132.782c-8.313,32.313-29.732,94.964-70.75,94.964c-2.423-0.014-4.745-0.977-6.467-2.681l-26.419-26.419
				l-26.534,26.533l26.417,26.417c1.705,1.722,2.667,4.044,2.681,6.467c0,41.022-62.652,62.438-94.964,70.754
				c55.639,43.195,134.714,38.291,184.589-11.447C517.08,267.499,521.984,188.419,478.782,132.782z"/>
			<path d="M112.18,369.76c-3.745-3.571-9.635-3.571-13.38,0l-16.981,16.981l54.571,24.804l2.098-2.098
				c3.69-3.696,3.69-9.683,0-13.379L112.18,369.76z"/>
			<polygon points="48.936,419.625 103.503,444.432 122.585,425.351 68.014,400.546 			"/>
		</g>
	</g>
</g>
<g>
</g>
<g>
</g>
<g>
</g>
<g>
</g>
<g>
</g>
<g>
</g>
<g>
</g>
<g>
</g>
<g>
</g>
<g>
</g>
<g>
</g>
<g>
</g>
<g>
</g>
<g>
</g>
<g>
</g>
</svg>
