<?xml version="1.0" encoding="iso-8859-1"?>
<!-- Generator: Adobe Illustrator 16.0.0, SVG Export Plug-In . SVG Version: 6.00 Build 0)  -->
<!DOCTYPE svg PUBLIC "-//W3C//DTD SVG 1.1//EN" "http://www.w3.org/Graphics/SVG/1.1/DTD/svg11.dtd">
<svg version="1.1" id="Capa_1" xmlns="http://www.w3.org/2000/svg" xmlns:xlink="http://www.w3.org/1999/xlink" x="0px" y="0px"
	 width="30.688px" height="30.688px" viewBox="0 0 30.688 30.688" style="enable-background:new 0 0 30.688 30.688;"
	 xml:space="preserve">
<g>
	<path d="M28.824,3.773c-1.451-0.987-3.631-3.55-3.631-3.55s-2.008,1.259-4.744,1.259C17.715,1.482,15.342,0,15.342,0
		s-2.369,1.482-5.104,1.482S5.494,0.224,5.494,0.224s-2.18,2.562-3.631,3.55c0.596,0.854,3.816,5.861,1.58,12.444
		c-2.135,6.292-1.752,7.864,1.281,10.2c3.328,2.562,6.451,0.676,10.617,4.27c4.168-3.594,7.292-1.705,10.622-4.27
		c3.032-2.336,3.418-3.908,1.28-10.2C25.008,9.635,28.227,4.627,28.824,3.773z M17.596,5.686l0.363-0.822
		c-0.014-0.029-0.035-0.054-0.035-0.087c0-0.12,0.099-0.221,0.219-0.221c0.121,0,0.221,0.101,0.221,0.221
		c0,0.098-0.073,0.168-0.162,0.195l-0.363,0.821c-0.021,0.049-0.07,0.079-0.119,0.079c-0.02,0-0.037-0.003-0.055-0.012
		C17.596,5.83,17.566,5.753,17.596,5.686z M16.531,8.09l0.71-1.603c0.028-0.067,0.104-0.1,0.175-0.067
		c0.065,0.03,0.096,0.107,0.065,0.174l-0.709,1.604c-0.021,0.049-0.069,0.079-0.12,0.079c-0.018,0-0.036-0.004-0.053-0.013
		C16.532,8.235,16.502,8.157,16.531,8.09z M13.272,6.421c0.066-0.033,0.145,0,0.174,0.066l0.71,1.603
		c0.028,0.067-0.002,0.146-0.067,0.175c-0.018,0.009-0.037,0.012-0.054,0.012c-0.051,0-0.1-0.029-0.12-0.078l-0.71-1.604
		C13.174,6.529,13.205,6.45,13.272,6.421z M12.542,4.555c0.122,0,0.221,0.1,0.221,0.22c0,0.033-0.022,0.059-0.036,0.088l0.364,0.822
		c0.028,0.067-0.002,0.145-0.068,0.175c-0.018,0.009-0.036,0.012-0.053,0.012c-0.051,0-0.1-0.029-0.12-0.079L12.486,4.97
		c-0.089-0.026-0.163-0.098-0.163-0.195C12.323,4.654,12.422,4.555,12.542,4.555z M24.82,19.389
		c-0.045,0.094-0.139,0.146-0.234,0.146c-0.039,0-0.08-0.01-0.117-0.027l-0.83-0.414c-0.502-0.25-1.172-0.852-1.53-1.367
		l-1.124-1.619c-0.312-0.451-0.758-0.754-0.912-0.754h-0.512v2.826h0.512c0.479,0,0.9,0.605,1.072,1.205l0.688,2.379
		c0.143,0.488,0.594,1.066,0.988,1.266l0.829,0.416c0.132,0.064,0.184,0.223,0.118,0.354c-0.047,0.092-0.139,0.145-0.235,0.145
		c-0.04,0-0.08-0.008-0.117-0.027l-0.832-0.414c-0.522-0.264-1.075-0.963-1.257-1.592l-0.688-2.379
		c-0.154-0.535-0.472-0.822-0.566-0.822h-0.512v1.002c0,0.58-0.354,1.371-0.782,1.758l-2.649,2.373
		c-0.431,0.387-1.137,0.387-1.569,0l-2.648-2.373c-0.431-0.387-0.783-1.178-0.783-1.758v-1.002h-0.51
		c-0.096,0-0.412,0.289-0.566,0.822L9.365,21.91c-0.182,0.631-0.733,1.328-1.259,1.592l-0.83,0.414
		c-0.037,0.02-0.077,0.027-0.117,0.027c-0.097,0-0.189-0.053-0.236-0.145c-0.065-0.131-0.012-0.289,0.119-0.354l0.828-0.416
		c0.396-0.199,0.848-0.775,0.989-1.266l0.687-2.379c0.173-0.6,0.596-1.205,1.073-1.205h0.51v-2.826h-0.51
		c-0.155,0-0.599,0.303-0.912,0.754l-1.124,1.619c-0.358,0.516-1.03,1.117-1.531,1.367l-0.829,0.414
		c-0.038,0.02-0.078,0.027-0.118,0.027c-0.097,0-0.189-0.053-0.235-0.146c-0.064-0.129-0.013-0.287,0.119-0.354l0.828-0.414
		c0.418-0.209,1.028-0.758,1.334-1.195l1.124-1.62c0.329-0.475,0.913-0.979,1.345-0.979h0.484c-0.055-0.513-0.256-1.043-0.502-1.265
		c-0.29-0.26-0.118-0.712,0.382-1.006l1.306-0.765l-0.502-0.604c-0.239-0.29-0.853-0.446-1.313-0.331l-0.688,0.168
		c-0.622,0.151-1.478,0.106-1.945-0.101l-0.753-0.336c-0.135-0.059-0.192-0.215-0.135-0.347c0.061-0.134,0.221-0.193,0.349-0.134
		l0.754,0.336c0.355,0.159,1.105,0.19,1.604,0.068l0.684-0.169c0.669-0.165,1.477,0.062,1.847,0.509l0.555,0.672l0.634-0.372
		c0.466-0.274,1.05-0.774,1.363-1.158c-0.017-0.013-0.039-0.012-0.048-0.031l-0.428-0.964c-0.03-0.067,0-0.146,0.067-0.174
		c0.069-0.029,0.144,0,0.174,0.066l0.411,0.926c0.256-0.243,0.589-0.243,0.846,0l0.412-0.926c0.028-0.066,0.104-0.096,0.174-0.066
		c0.066,0.029,0.097,0.106,0.066,0.174L15.99,9.962c-0.008,0.02-0.031,0.019-0.048,0.031c0.313,0.383,0.897,0.883,1.362,1.158
		l0.636,0.372l0.555-0.672c0.369-0.447,1.177-0.672,1.847-0.509l0.688,0.169c0.498,0.123,1.248,0.091,1.605-0.068l0.752-0.336
		c0.129-0.06,0.287,0,0.349,0.134c0.058,0.132,0,0.288-0.134,0.347l-0.754,0.336c-0.469,0.207-1.323,0.25-1.944,0.101l-0.688-0.168
		c-0.459-0.115-1.074,0.041-1.312,0.332L18.4,11.792l1.307,0.765c0.498,0.294,0.672,0.746,0.381,1.007
		c-0.246,0.221-0.445,0.751-0.502,1.264h0.485c0.433,0,1.017,0.504,1.345,0.979l1.124,1.62c0.306,0.438,0.915,0.986,1.333,1.195
		l0.83,0.414C24.833,19.102,24.885,19.26,24.82,19.389z"/>
</g>
<g>
</g>
<g>
</g>
<g>
</g>
<g>
</g>
<g>
</g>
<g>
</g>
<g>
</g>
<g>
</g>
<g>
</g>
<g>
</g>
<g>
</g>
<g>
</g>
<g>
</g>
<g>
</g>
<g>
</g>
</svg>
