<?xml version="1.0" encoding="iso-8859-1"?>
<!-- Generator: Adobe Illustrator 19.0.0, SVG Export Plug-In . SVG Version: 6.00 Build 0)  -->
<svg version="1.1" id="Capa_1" xmlns="http://www.w3.org/2000/svg" xmlns:xlink="http://www.w3.org/1999/xlink" x="0px" y="0px"
	 viewBox="0 0 440 440" style="enable-background:new 0 0 440 440;" xml:space="preserve">
<g>
	<g>
		<path d="M304.204,323.523c-1.914,3.982-6.694,5.659-10.676,3.745s-5.659-6.694-3.745-10.676l32-67.954
			c-1.78-7.007-4.204-13.834-7.241-20.395c-3.674-8.017-3.381-17.291,0.791-25.06c11.32-20.991,20.187-64.992,20.187-100.173
			c0-28.264-5.854-54.767-16.485-74.627C309.237,10.08,296.798,0,284.01,0h-128c-12.792,0-25.235,10.076-35.036,28.371
			c-10.636,19.856-16.494,46.356-16.494,74.619c0,35.118,8.837,79.035,20.12,99.981c4.191,7.848,4.447,17.21,0.692,25.275
			c-3.013,6.416-5.453,13.085-7.292,19.931l32.223,68.406c1.83,3.967,0.138,8.668-3.799,10.561
			c-3.982,1.914-8.762,0.237-10.676-3.745l-21.454-45.554c0.207,22.378,6.433,59.43,14.061,83.4c1.764,5.543,2.808,11.29,3.107,17.1
			l3.18,61.655h41.8l3.138-60.816c0.339-6.362,1.561-12.646,3.63-18.672c7.77-22.753,14.092-60.293,14.092-83.683
			c0.01-15.937-3.286-31.702-9.679-46.3c-3.888-8.855-4.599-18.781-2.012-28.1c2.958-10.466,5.762-26.96,8.235-41.513
			c1.711-10.074,3.33-19.595,4.811-25.974c1.892-8.135,8.245-14.486,16.381-16.376c11.786-2.738,23.559,4.597,26.297,16.382
			c1.48,6.372,3.093,15.879,4.8,25.944c2.462,14.51,5.253,30.957,8.2,41.419c2.595,9.419,1.837,19.447-2.145,28.368
			c-6.532,14.465-9.909,30.155-9.906,46.027c0,22.239,6.312,60.16,14.071,84.539c1.764,5.543,2.808,11.29,3.107,17.1l3.18,61.655
			h41.8l3.136-60.785c0.339-6.362,1.561-12.647,3.63-18.673v0c7.567-22.155,13.758-58.319,14.078-81.785l-21.028,44.651
			C304.24,323.447,304.222,323.485,304.204,323.523z"/>
	</g>
</g>
<g>
</g>
<g>
</g>
<g>
</g>
<g>
</g>
<g>
</g>
<g>
</g>
<g>
</g>
<g>
</g>
<g>
</g>
<g>
</g>
<g>
</g>
<g>
</g>
<g>
</g>
<g>
</g>
<g>
</g>
</svg>
