<svg id="_x33_0" enable-background="new 0 0 64 64" height="512" viewBox="0 0 64 64" width="512" xmlns="http://www.w3.org/2000/svg"><g><path d="m21.102 49.474c-2.191-.874-3.958-2.613-4.851-4.845-.151-.38-.519-.629-.928-.629h-5.323c-1.105 0-2 .895-2 2s.895 2 2 2h2c-1.105 0-2 .895-2 2s.895 2 2 2h2c-1.105 0-2 .895-2 2s.895 2 2 2h2c-1.105 0-2 .895-2 2s.895 2 2 2h.615c2.79 0 5.333-1.462 6.764-3.783-1.503-1.437-2.379-3.452-2.379-5.55 0-.407.041-.803.102-1.193z"/><path d="m54 44h-5.323c-.409 0-.777.249-.929.629-.893 2.232-2.66 3.972-4.851 4.845.062.39.103.786.103 1.193 0 2.098-.876 4.113-2.379 5.549 1.431 2.322 3.974 3.784 6.764 3.784h.615c1.105 0 2-.895 2-2s-.895-2-2-2h2c1.105 0 2-.895 2-2s-.895-2-2-2h2c1.105 0 2-.895 2-2s-.895-2-2-2h2c1.105 0 2-.895 2-2s-.895-2-2-2z"/><path d="m37.846 43.432c-.013-.017-.029-.033-.042-.051-.01.008-.019.017-.03.024.025.009.048.018.072.027z"/><path d="m26.154 43.432c.024-.008.047-.018.071-.026-.01-.008-.019-.017-.03-.024-.013.017-.028.032-.041.05z"/><path d="m35.333 45h-1.333v-4-1c0-1.105-.895-2-2-2s-2 .895-2 2v1 4h-1.098c-2.082 0-4.086 1.031-5.13 2.832-1.516 2.614-.684 5.734 1.495 7.368l1.733 1.3v3.5c0 .552.448 1 1 1s1-.448 1-1v-2c0-.552.448-1 1-1s1 .448 1 1v2c0 .552.448 1 1 1s1-.448 1-1v-2c0-.552.448-1 1-1s1 .448 1 1v2c0 .552.448 1 1 1s1-.448 1-1v-3.5l1.604-1.204c1.184-.889 2.058-2.169 2.309-3.628.614-3.564-2.127-6.668-5.58-6.668zm-7.333 9c-1.105 0-2-.895-2-2s.895-2 2-2 2 .895 2 2-.895 2-2 2zm8 0c-1.105 0-2-.895-2-2s.895-2 2-2 2 .895 2 2-.895 2-2 2z"/><circle cx="23" cy="41" r="3"/><circle cx="14" cy="36" r="3"/><circle cx="8" cy="28" r="3"/><circle cx="5" cy="19" r="3"/><circle cx="10" cy="10" r="3"/><circle cx="21" cy="6" r="3"/><circle cx="32" cy="5" r="3"/><circle cx="18" cy="39" r="2"/><circle cx="28" cy="41" r="2"/><circle cx="11" cy="32" r="2"/><circle cx="5" cy="24" r="2"/><circle cx="15" cy="7" r="2"/><circle cx="26" cy="5" r="2"/><circle cx="7" cy="14" r="2"/><circle cx="41" cy="41" r="3"/><circle cx="50" cy="36" r="3"/><circle cx="56" cy="28" r="3"/><circle cx="59" cy="19" r="3"/><circle cx="54" cy="10" r="3"/><circle cx="43" cy="6" r="3"/><circle cx="46" cy="39" r="2"/><circle cx="36" cy="41" r="2"/><circle cx="53" cy="32" r="2"/><circle cx="59" cy="24" r="2"/><circle cx="49" cy="7" r="2"/><circle cx="38" cy="5" r="2"/><circle cx="57" cy="14" r="2"/></g></svg>