<svg height="464pt" viewBox="-24 0 464 464" width="464pt" xmlns="http://www.w3.org/2000/svg"><path d="m357.175781 24.976562 5.335938.886719c20.136719 3.359375 37.601562 16.257813 46.726562 34.511719 2.160157 4.320312 3.808594 8.90625 4.945313 13.609375l-63.917969 14.207031 3.46875 15.625 62.265625-13.839844v15.246094l-80.257812 13.378906c.058593-1.691406.257812-3.363281.257812-5.058593v-6.621094c0-16.898437 3.007812-33.488281 8.945312-49.304687zm-74.007812-15.695312 2.785156-9.28125h23.382813c5.160156 0 10.273437 1.703125 14.398437 4.800781l18.671875 14.007813-12.445312 33.183594c-6.609376 17.617187-9.960938 36.105468-9.960938 54.929687v6.621094c0 10.28125-1.191406 20.394531-3.382812 30.296875-25.777344-1.679688-47.121094-22.265625-49.289063-48.304688l-3.25-39c7.777344-15.101562 14.195313-30.925781 19.089844-47.253906zm-51.167969 69.398438v-46.679688h25.910156c-7 16.40625-15.734375 32.039062-25.910156 46.679688zm-24 29.832031c-2.753906-2.9375-5.382812-5.976563-8-9.03125v-67.480469h16v67.472656c-2.617188 3.0625-5.246094 6.101563-8 9.039063zm-24-76.511719v46.679688c-10.175781-14.648438-18.910156-30.273438-25.910156-46.679688zm-184 80.640625v-15.703125l63.121094 7.015625 1.765625-15.90625-64.328125-7.144531c.921875-7.117188 2.992187-14.101563 6.203125-20.527344 9.125-18.253906 26.589843-31.160156 46.726562-34.511719l5.335938-.886719 12.230469 32.648438c5.9375 15.808594 8.945312 32.390625 8.945312 49.296875v6.621094c0 1.945312.222656 3.855469.289062 5.792969zm86.039062-60.640625-12.445312-33.191406 18.679688-14.007813c4.117187-3.097656 9.230468-4.800781 14.390624-4.800781h23.382813l2.785156 9.28125c4.894531 16.320312 11.3125 32.144531 19.105469 47.253906l-3.25 39c-2.167969 26.039063-23.519531 46.625-49.289062 48.304688-2.207032-9.910156-3.398438-20.023438-3.398438-30.296875v-6.621094c0-18.824219-3.351562-37.3125-9.960938-54.921875zm17.960938 252h56v16h-56zm202.816406 83.601562-13.328125 4c-35.601562 10.6875-63.382812 37.511719-75.351562 72.398438h-20.265625c-11.96875-34.878906-39.75-61.710938-75.351563-72.398438l-13.328125-4c-3.054687-.914062-5.191406-3.777343-5.191406-6.976562 0-1.441406.425781-2.832031 1.34375-4.21875 8.097656-12.148438 12.929688-25.980469 14.25-40.40625h42.628906c2.777344 4.761719 7.882813 8 13.777344 8h64c5.894531 0 11-3.238281 13.777344-8h42.628906c1.320312 14.425781 6.167969 28.289062 14.371094 40.59375.796875 1.199219 1.222656 2.597656 1.222656 4.03125 0 3.199219-2.136719 6.0625-5.183594 6.976562zm-130.816406-59.601562v-32h64l.015625 32zm80-24h56v16h-56zm52.648438-135.144531c-8.390626 19.585937-12.648438 40.320312-12.648438 61.609375v57.535156h-42.222656c-2.777344-4.761719-7.882813-8-13.777344-8h-64c-5.894531 0-11 3.238281-13.777344 8h-42.222656v-57.535156c0-21.289063-4.257812-42.023438-12.648438-61.609375-1.320312-3.078125-2.375-6.222657-3.464843-9.359375 32-3.742188 58.007812-29.878906 60.730469-62.632813l1.359374-16.34375c10.527344 16.222657 22.648438 31.433594 36.359376 45.144531l5.664062 5.648438 5.65625-5.65625c13.710938-13.710938 25.832031-28.921875 36.359375-45.144531l1.359375 16.34375c2.730469 32.753906 28.730469 58.886719 60.730469 62.632812-1.082031 3.144531-2.136719 6.289063-3.457031 9.367188zm0 0"/><path d="m216 168v-8h-16v8c0 13.230469-10.769531 24-24 24h-24v16h24c13.128906 0 24.703125-6.449219 32-16.246094 7.296875 9.796875 18.871094 16.246094 32 16.246094h24v-16h-24c-13.230469 0-24-10.761719-24-24zm0 0"/><path d="m216 224v-8h-16v8c0 13.230469-10.769531 24-24 24h-24v16h24c13.128906 0 24.703125-6.449219 32-16.246094 7.296875 9.796875 18.871094 16.246094 32 16.246094h24v-16h-24c-13.230469 0-24-10.761719-24-24zm0 0"/></svg>