<?xml version="1.0" encoding="iso-8859-1"?>
<!-- Generator: Adobe Illustrator 16.0.0, SVG Export Plug-In . SVG Version: 6.00 Build 0)  -->
<!DOCTYPE svg PUBLIC "-//W3C//DTD SVG 1.1//EN" "http://www.w3.org/Graphics/SVG/1.1/DTD/svg11.dtd">
<svg version="1.1" id="Capa_1" xmlns="http://www.w3.org/2000/svg" xmlns:xlink="http://www.w3.org/1999/xlink" x="0px" y="0px"
	 width="255.495px" height="255.496px" viewBox="0 0 255.495 255.496" style="enable-background:new 0 0 255.495 255.496;"
	 xml:space="preserve">
<g>
	<g>
		<path style="fill:#1D1D1B;" d="M83.663,37.364c4.958,1.189,9.436,2.942,13.304,6.097c2.21,1.8,1.452,3.622-1.236,3.622
			c-0.112,0-0.225-0.005-0.343-0.01c-2.985-0.16-5.925-0.36-8.891-0.36c-0.795,0-1.598,0.017-2.393,0.048
			c-2.967,0.126-3.355,1.916-0.786,3.398c4.733,2.724,9.56,4.795,14.704,6.095c2.879,0.727,4.838,2.564,4.299,4.446
			c-0.333,1.161-0.666,2.278-1.071,3.375c-0.514,1.415-0.107,2.124,1.189,2.575c1.94,0.676,3.827,1.532,5.812,2.042
			c6.6,1.711,13.283,2.564,20.018,2.564c2.818,0,5.638-0.15,8.467-0.446c5.938-0.622,11.801-1.617,17.35-3.993
			c1.521-0.651,2.085-1.349,1.434-3.04c-0.399-1.052-0.73-2.134-1.045-3.247c-0.519-1.811,1.465-3.59,4.351-4.304
			c5.178-1.284,9.985-3.333,14.637-6.037c2.561-1.493,2.173-3.35-0.798-3.446c-0.446-0.016-0.893-0.021-1.334-0.021
			c-3.38,0-6.709,0.393-10.1,0.811c-0.278,0.034-0.546,0.055-0.787,0.055c-2.288,0-2.792-1.491-0.746-3.23
			c3.779-3.21,7.991-5.304,12.541-6.769c2.83-0.908,3.34-2.929,1.003-4.761c-2.872-2.252-5.769-4.407-8.698-6.515
			c-0.137-0.097-0.342-0.142-0.578-0.142c-0.462,0-1.034,0.163-1.396,0.378c-4.762,2.806-9.424,5.767-14.221,8.494
			c-1.259,0.714-1.544,1.344-1.249,2.632c0.209,0.927,0.377,1.856,0.546,2.841c0.252,1.574-1.722,3.176-4.42,3.58
			c-0.815,0.123-1.48,0.176-1.974,0.176c-1.146,0-1.351-0.284-0.305-0.667c0.912-0.333,1.837-0.59,2.776-0.774
			c1.863-0.37,2.179-1.37,1.795-3.042c-0.21-0.924-0.372-1.858-0.52-2.806c-0.252-1.554,1.864-3.53,4.589-4.709
			c2.865-1.235,5.575-2.687,8.188-4.312c2.519-1.561,2.552-4.469-0.062-5.874c-3.927-2.103-8.641-3.887-11.832-4.354
			c-2.143-0.313-4.284-0.627-6.427-0.94c-2.939-0.43-7.727-0.779-10.702-0.779c-0.386,0-0.775,0-1.161,0
			c-2.968,0-7.499,0.312-10.107,0.693c-1.575,0.23-3.15,0.446-4.73,0.625c-5.134,0.57-9.75,2.365-14.449,4.939
			c-2.606,1.423-2.499,3.854,0.129,5.239c3.06,1.614,6.042,3.189,9.036,4.769c2.622,1.388,4.554,3.806,4.284,5.396
			c-0.155,0.927-0.323,1.903-0.509,2.872c-0.215,1.107,0.074,1.729,1.208,2.031c1.018,0.271,2.028,0.564,3.04,0.861
			c1.494,0.44,1.541,0.897,0.22,0.897c-0.157,0-0.327-0.005-0.527-0.023c-1.108-0.074-2.21-0.218-3.302-0.418
			c-3.191-0.579-3.176-0.646-2.585-3.774c0.2-1.042,0.457-2.092,0.496-3.144c0.021-0.517-0.254-1.302-0.646-1.533
			c-4.021-2.354-8.068-4.669-12.289-7.083c-1.118-0.641-2.499-0.951-3.903-0.951c-1.832,0-3.693,0.53-5.026,1.553
			c-1.693,1.3-3.449,2.649-5.273,4.054C80.303,34.843,80.777,36.676,83.663,37.364L83.663,37.364z M130.952,62.65
			c-0.578,0.887-1.418,1.48-2.389,1.564c-0.092,0.01-0.176,0.01-0.268,0.01c-0.947,0-1.774-0.478-2.399-1.38
			c-0.606-0.876-0.407-1.066,0.368-1.066c0.483,0,1.187,0.077,2.058,0.103c0.112,0.008,0.226,0.008,0.333,0.008
			c0.921,0,1.65-0.11,2.098-0.11C131.298,61.773,131.414,61.937,130.952,62.65z M127.5,59.324c0.047,0,0.098,0,0.149,0
			c0.194,0,0.405,0,0.62,0c0.771-0.008,1.429-0.049,1.896-0.049c0.735,0,0.997,0.103,0.473,0.619
			c-0.526,0.504-1.207,0.751-1.978,0.832c-0.148,0.017-0.293,0.022-0.436,0.022c-0.78,0-1.412-0.236-1.923-0.654
			C125.372,59.34,126.018,59.324,127.5,59.324z M128.312,58.618c-0.031,0-0.066,0-0.098,0c-1.81-0.047-3.493-1.38-3.482-2.755
			c0.016-1.748,1.935-3.677,3.616-3.677c0.04,0,0.071,0,0.108,0c1.619,0.081,3.488,2.058,3.515,3.713
			C131.991,57.232,130.106,58.618,128.312,58.618z M132.885,36.526c-0.504,1.092-1.255,2.076-2.148,2.698
			c-0.771,0.539-1.564,0.812-2.378,0.812c-0.658,0-1.331-0.182-2.009-0.546c-0.988-0.538-1.833-1.517-2.409-2.666
			c-0.43-0.861-0.307-1.168,0.253-1.168c0.613,0,1.743,0.37,3.235,0.791c0.359,0.103,0.713,0.152,1.062,0.152
			c0.299,0,0.604-0.039,0.902-0.113c1.685-0.425,2.861-0.938,3.391-0.938C133.157,35.537,133.209,35.794,132.885,36.526z
			 M126.183,22.959c0.731-0.441,1.477-0.657,2.215-0.657c0.957,0,1.887,0.365,2.723,1.087c0.901,0.767,1.621,1.632,2.057,2.617
			c0.745,1.698,0.557,5.284-0.83,7c-0.829,1.021-2.026,1.74-3.39,1.918c-0.227,0.026-0.452,0.042-0.678,0.042
			c-1.242,0-2.37-0.456-3.273-1.322c-1.152-1.1-1.178-1.688-0.47-1.688c0.349,0,0.871,0.142,1.528,0.425
			c0.544,0.236,1.112,0.323,1.687,0.36c0.103,0.005,0.2,0.066,0.303,0.066c0.601,0,1.218-0.113,1.847-0.344
			c0.725-0.265,1.339-0.801,1.937-1.409c0.343-0.344,0.494-0.483,0.463-0.483c-0.058,0-0.709,0.425-1.989,0.902
			c-0.608,0.226-1.239,0.354-1.919,0.354c-0.251,0-0.533-0.097-0.795-0.134c-0.361-0.049-0.706-0.061-1.091-0.184
			c-1.694-0.564-3.334-1.478-3.432-3.349C122.962,25.925,124.249,24.114,126.183,22.959z"/>
		<path style="fill:#1D1D1B;" d="M128.28,57.936l0.031,0.682v-0.687L128.28,57.936z"/>
		<path style="fill:#1D1D1B;" d="M246.702,165.749c-0.693,0.441-0.553,1.815,0.325,3.07c0.545,0.772,1.064,1.523,1.579,2.274
			c1.202,1.731,0.257,6.739-1.574,7.757c-8.625,4.773-17.265,9.523-25.928,14.216c-0.649,0.353-1.354,0.52-2.057,0.52
			c-1.532,0-3.077-0.787-4.063-2.114c-0.588-0.787-1.164-1.576-1.754-2.357c-0.504-0.684-1.563-1.019-2.844-1.019
			c-1.171,0-2.526,0.278-3.833,0.808c-0.566,0.231-1.149,0.431-1.742,0.563c-2.908,0.618-4.158,1.238-2.93,3.937
			c1.376,3.013,2.646,5.81,3.922,8.609c0.929,2.046,4.079,3.6,6.677,3.6c0.766,0,1.485-0.136,2.09-0.439
			c6.093-3.041,12.172-6.095,18.221-9.208c7.076-3.639,14.163-7.261,19.475-13.46c0.504-0.587,1.04-1.153,1.586-1.712
			c0.901-0.922,1.644-2.908,1.644-4.43c0-1.527-1.581-4.578-3.539-6.814c-0.153-0.178-0.31-0.351-0.457-0.524
			c-1.722-1.964-3.584-3.333-4.482-3.333C246.89,165.675,246.785,165.697,246.702,165.749z"/>
		<path style="fill:#1D1D1B;" d="M2.236,181.372c3.973,4.184,8.123,8.104,13.36,10.744c7.588,3.838,15.189,7.671,22.63,11.79
			c1.784,0.986,3.493,1.555,5.223,1.555c1.231,0,2.467-0.288,3.749-0.908c0.858-0.421,1.812-1.112,2.208-1.933
			c1.974-4.005,3.779-8.089,5.625-12.156c0.073-0.169,0.139-0.348,0.186-0.504c0.087-0.272-1.144-0.537-2.729-0.584
			c-0.979-0.031-1.929-0.099-2.837-0.33c-0.963-0.241-1.893-0.631-2.824-1.072c-0.478-0.219-1.006-0.33-1.525-0.33
			c-1.134,0-2.268,0.499-2.924,1.392c-0.582,0.787-1.157,1.564-1.732,2.352c-1.021,1.392-2.504,2.152-4.053,2.152
			c-0.8,0-1.622-0.21-2.406-0.629c-8.473-4.609-16.929-9.239-25.368-13.911c-0.619-0.348-1.23-0.992-1.493-1.644
			c-1.2-2.93-1.667-5.8,1.042-8.315c0.365-0.341,0.661-0.761,0.945-1.224c0.451-0.725,0.25-1.646-0.452-2.067
			c-0.079-0.047-0.181-0.073-0.299-0.073c-0.898,0-2.785,1.364-4.522,3.333c-0.161,0.184-0.318,0.362-0.478,0.54
			C1.591,171.774,0,174.82,0,176.347s0.507,3.27,1.124,3.89C1.501,180.614,1.872,180.993,2.236,181.372z"/>
		<path style="fill:#1D1D1B;" d="M123.223,149.895c0,0.524,0,1.051,0,1.565c0,1.512-0.158,2.277-0.416,2.277
			c-0.247,0-0.58-0.703-0.958-2.101c-0.461-1.727-0.944-3.49-1.467-5.243c-0.191-0.642-0.984-1.434-1.611-1.543
			c-0.974-0.174-1.958-0.257-3.021-0.332c-0.082,0-0.158,0-0.226,0c-1.452,0-1.446,1.003,0.062,2.321
			c1.588,1.381,0.775,2.861-1.805,3.307c-1.596,0.272-3.134,0.535-4.67,0.799c-3.784,0.624-7.569,1.133-11.349,1.133
			c-3.105,0-6.213-0.346-9.315-1.244c-0.188-0.058-0.462-0.099-0.677-0.099c-0.155,0-0.279,0.021-0.318,0.083
			c-0.96,1.579-1.935,3.171-2.617,4.872c-0.071,0.179,1.725,1.111,2.671,1.67c0.108,0.062,0.236,0.094,0.37,0.114
			c0.21,0.042,0.017,0.21-0.456,0.241c-0.092,0.011-0.179,0.011-0.268,0.011c-0.2,0-0.394-0.011-0.593-0.042
			c-0.128-0.01-0.258-0.021-0.387-0.021c-1.763,0-3.323,1.617-3.676,3.833c-0.381,2.36,1.499,2.146,2.719,2.215
			c1.226,0.073,2.451,0.094,3.682,0.094c0.22,0,0.44,0,0.661,0c0.092,0,0.179,0,0.268,0c2.281,0,4.093,0.147,4.103,0.368
			c0.01,0.219-2.181,0.557-4.903,0.754c-1.639,0.117-3.279,0.243-4.924,0.379c-0.554,0.042-1.263,0.104-1.628,0.358
			c-0.044,0.213-0.107,0.429-0.22,0.576c-2.744,3.538-2.227,7.581-1.266,11.412l0.082,0.326c0.59,2.361,1.205,4.797,2.076,7.054
			c0.543,1.407,1.047,3.498-0.851,5.456c-0.796,0.812-0.979,1.254,0.286,2.607c1.042,1.124,1.981,2.285,2.756,3.276
			c0.209,0.263,0.368,0.557,0.512,0.855c0.764,0.482,1.596,0.825,2.467,0.825c1.082,0,2.092-0.483,2.842-1.397
			c1.061-1.532,1.727-3.37,2.092-5.386c0.092-1.521-0.241-2.609-0.625-2.609c-0.021,0-0.042,0.005-0.057,0.011
			c-0.043,0.01-0.082,0.016-0.118,0.016c-0.441,0-0.242-0.954,1.021-1.501c0.473-0.204,0.984-0.294,1.564-0.294
			c0.278,0,0.586,0.031,0.903,0.073c0.391-0.037,0.764-0.047,1.026-0.047c1.037,0,2.281,0.101,3.591,0.299l2.629,0.384l6.483,0.95
			c0.57,0.083,1.113,0.263,1.632,0.482c3.199,0.383,6.402,0.767,9.612,1.003c0.273-0.031,0.543-0.147,0.811-0.147h12.618
			c0.473,0,0.933,0.158,1.4,0.246c2.725-0.146,5.433-0.355,8.144-0.66c0.766-0.462,1.615-0.794,2.524-0.929l5.848-0.857l3.207-0.472
			c1.465-0.221,2.87-0.336,3.953-0.336c0.309,0,0.698,0.016,1.096,0.062c0.158-0.01,0.338-0.052,0.488-0.052
			c0.626,0,1.166,0.116,1.665,0.348c1.376,0.623,1.664,1.605,1.275,1.605c-0.042,0-0.089-0.011-0.142-0.031
			c-0.031-0.011-0.063-0.021-0.095-0.021c-0.414,0-0.896,1.133-0.829,2.729c0.405,1.964,1.145,3.758,2.215,5.276
			c0.818,0.881,1.849,1.38,2.883,1.38c0.782,0,1.475-0.278,2.083-0.678c0.348-0.582,0.704-1.117,0.966-1.438
			c1.019-1.28,2.016-2.524,3.046-3.732c0.283-0.335,0.403-0.514,0.413-0.667c0-0.01-0.005-0.021-0.005-0.031
			c0-0.141-0.094-0.252-0.263-0.434c-2.383-2.553-1.722-5.225-1.018-7.015c0.893-2.277,1.459-4.766,2.005-7.181l0.185-0.81
			c0.52-2.241,0.646-4.093,0.399-5.664c-0.091-0.571-0.033-0.981-0.06-1.485c-0.304-0.876-0.725-1.742-1.374-2.582
			c-0.683-0.883-1.176-1.218-2.342-1.233c-1.637-0.026-3.275-0.132-4.913-0.252c-2.709-0.205-4.903-0.562-4.883-0.781
			c0.011-0.211,1.786-0.358,4.002-0.358c0.072,0,0.141,0,0.208,0c0.189,0,0.379,0,0.568,0c1.207,0,2.415-0.016,3.615-0.083
			c1.025-0.053,2.872-0.693,2.872-1.083c0.021-1.249-0.483-2.598-1.097-3.737c-0.436-0.808-1.108-1.438-2.043-1.438
			c-0.283,0-0.603,0.062-0.943,0.2c-0.189,0.067-0.39,0.089-0.589,0.089c-0.084,0-0.163-0.006-0.241-0.011
			c-0.463-0.026-0.646-0.198-0.377-0.299c0.166-0.058,0.335-0.094,0.503-0.136c3.139-0.898,3.579-1.98,1.637-4.677
			c-0.551-0.773-1.763-1.75-2.519-1.75c-0.062,0-0.12,0.006-0.18,0.022c-3.08,0.813-6.157,1.133-9.227,1.133
			c-3.958,0-7.912-0.529-11.876-1.218c-1.464-0.252-2.929-0.504-4.472-0.756c-2.467-0.42-3.049-1.968-1.312-3.47
			c1.637-1.407,1.847-2.456,0.556-2.456c-0.083,0-0.179,0.005-0.272,0.016c-0.809,0.073-1.561,0.136-2.311,0.136
			c-0.188,0-0.383-0.004-0.577-0.011c-0.073-0.011-0.136-0.011-0.21-0.011c-1.396,0-1.942,0.662-2.268,1.953
			c-0.446,1.76-0.925,3.508-1.418,5.328c-0.377,1.402-0.725,2.096-0.981,2.096c-0.268,0-0.437-0.761-0.437-2.279
			c0-0.377,0-0.751,0-1.122c0-2.966-1.615-2.751-4.57-2.981c-0.164-0.011-0.329-0.033-0.492-0.064
			c-0.763-0.141-1.435-0.229-2.016-0.229C124.125,146.986,123.223,147.695,123.223,149.895L123.223,149.895z M103.82,176.29
			c-0.005,0-0.005,0-0.01,0c-0.225,0-1.16-1.104-2.118-2.488c-0.407-0.594-1.113-0.882-1.961-0.882
			c-1.189,0-2.667,0.561-4.032,1.627c-0.188,0.146-0.37,0.289-0.559,0.432c-2.205,1.732-4.129,3.033-4.462,3.033
			c-0.021,0-0.031-0.005-0.042-0.016c-0.152-0.163,1.53-1.896,3.755-3.864c2.189-1.942,4.381-3.879,6.57-5.816
			c2.14-1.894,4.047-3.343,4.392-3.343c0.016,0,0.026,0,0.031,0.005c0.221,0.12-1.833,1.654-2.812,4.451
			c-0.215,0.613-0.328,1.244-0.333,1.886C102.219,174.294,104.025,176.248,103.82,176.29z M118.141,178.094
			c-0.299,0-1.005-0.21-1.79-0.54c-0.601-0.252-1.21-0.488-1.832-0.662c-1.189-0.33-2.463-0.361-3.672-0.634
			c-0.247-0.058-0.478-0.189-0.704-0.337c-0.365-0.236-0.447-0.697-0.179-1.019c0.174-0.21,0.354-0.388,0.575-0.482
			c0.179-0.073,0.398-0.115,0.619-0.115c0.29,0,0.585,0.062,0.817,0.179c1.086,0.525,2.16,1.065,3.23,1.616
			c1.775,0.919,3.155,1.784,3.082,1.942C118.274,178.074,118.222,178.094,118.141,178.094z M153.473,169.129
			c-0.589-1.586-0.883-2.321-0.589-2.321c0.221,0,0.771,0.416,1.784,1.188c2.877,2.204,5.586,4.552,8.053,7.148
			c1.166,1.229,1.522,1.896,1.192,1.896c-0.252,0-0.896-0.379-1.896-1.182c-0.541-0.432-1.081-0.86-1.616-1.297
			c-1.334-1.071-2.799-1.633-3.989-1.633c-0.883,0-1.607,0.305-2.038,0.925c-1.002,1.459-1.983,2.636-2.194,2.636l0,0
			c-0.199-0.011,1.556-1.938,1.681-4.903C153.901,170.74,153.767,169.921,153.473,169.129z M140.39,176.363
			c1.052-0.566,2.122-1.135,3.213-1.659c0.395-0.198,0.877-0.263,1.365-0.263c0.294,0,0.593,0.033,0.872,0.064
			c0.283,0.031,0.64,0.681,0.671,1.08c0.011,0.263-0.441,0.751-0.756,0.813c-1.418,0.299-2.834,0.584-4.257,0.861
			c-0.656,0.131-1.171,0.185-1.521,0.185C139.031,177.456,139.12,177.05,140.39,176.363L140.39,176.363z M121.34,163.235
			c0.048,0,0.098,0.005,0.149,0.01c0.791,0.1,1.168,0.829,0.851,1.632c-0.146,0.379-0.367,0.562-0.603,0.562
			c-0.274,0-0.575-0.246-0.827-0.729C120.469,163.864,120.668,163.235,121.34,163.235z M134.552,163.25
			c0.055-0.011,0.106-0.011,0.158-0.011c0.662,0,0.894,0.714,0.51,1.686c-0.221,0.556-0.51,0.844-0.782,0.844
			c-0.231,0-0.452-0.21-0.631-0.63C133.44,164.216,133.775,163.371,134.552,163.25z M128.024,181.666
			c0.888,0,1.783-0.631,3.074-1.912c1.066-1.06,2.038-2.22,2.96-3.375c0.589-0.751,1.062-1.086,1.313-1.086
			c0.408,0,0.263,0.875-0.805,2.361c-1.742,2.445-4.14,4.804-5.892,5.281c-0.139,0.042-0.293,0.052-0.456,0.052
			c-0.447,0-0.94-0.13-1.328-0.314c-1.785-0.828-3.73-2.724-5.213-4.851c-1.071-1.532-1.236-2.436-0.851-2.436
			c0.231,0,0.661,0.314,1.216,1.018c0.908,1.14,1.832,2.254,2.855,3.277C126.214,181.003,127.118,181.666,128.024,181.666z"/>
		<path style="fill:#1D1D1B;" d="M102.29,99.128c6.669,0.892,13.342,1.843,19.969,2.984c0.343,0.058,0.656,0.092,0.934,0.092
			c1.323,0,1.953-0.68,2.478-2.097c0.395-1.05,0.862-2.071,1.378-3.145c0.364-0.764,0.853-1.142,1.359-1.142
			c0.622,0,1.284,0.572,1.799,1.671c0.582,1.26,1.144,2.436,1.753,3.588c0.294,0.541,1.155,1.192,1.706,1.192
			c0.031,0,0.058,0,0.089-0.005c7.087-1.016,14.152-2.165,21.224-3.257c1.092-0.166,1.554-0.596,1.486-1.816
			c-0.185-3.614-0.117-7.236-0.358-10.843c-0.114-1.794,0.294-2.596,2.189-3.025c8.447-1.898,16.279-5.329,23.606-9.924
			c0.331-0.21,0.651-0.441,0.976-0.656c1.503-1.203,3.01-2.386,4.42-3.751c0.211-0.205,0.39-0.447,0.568-0.693
			c0.367-0.527,0.956-1.247,1.349-1.619c0.321-0.304,0.75-0.473,1.187-0.473c0.078,0,0.147,0.066,0.221,0.076
			c0.005-0.05,0.026-0.097,0.026-0.144c0-0.357-0.021-0.706-0.095-1.04c-0.856-3.585-2.09-7.11-2.572-10.74
			c-0.483-3.688-2.636-5.208-5.815-6.022c-0.39-0.094-0.773-0.335-1.145-0.335c-0.026,0-0.048,0-0.073,0.005
			c-0.769,0.073-1.712,0.073-2.254,0.509c-5.422,4.396-11.543,7.427-18.173,9.499c-0.74,0.231-1.491,0.441-2.252,0.651
			c-1.254,0.344-1.773,1.848-1.176,3.375c0.368,0.945,0.703,1.867,0.976,2.806c0.216,0.759,0.064,1.765-0.262,2.505
			c-1.826,4.173-5.228,6.123-9.58,7.144c-6.609,1.553-13.208,2.333-19.819,2.333c-5.763,0-11.524-0.591-17.304-1.785
			c-4.885-1.005-9.854-2.076-11.943-7.53c-0.338-0.881-0.548-1.994-0.317-2.866c0.247-0.924,0.579-1.822,0.944-2.725
			c0.599-1.478,0.544-2.816-0.128-2.994c-0.43-0.113-0.826-0.216-1.225-0.323c-6.854-1.832-13.326-4.575-18.81-9.1
			c-1.226-1.016-2.305-1.426-3.443-1.426c-0.83,0-1.69,0.215-2.656,0.57c-2.963,1.087-4.724,2.738-5.392,6.037
			c-1.424,7.074-2.913,14.182-5.081,21.05c-1.499,4.77,0.195,7.735,3.59,10.423c1.389,1.097,2.835,2.145,4.36,3.032
			c4.656,2.692,9.724,4.292,14.997,5.168c2.328,0.386,4.672,0.677,7.069,0.961c0.25,0.026,0.496,0.042,0.732,0.042
			c2.601,0,4.616-1.683,4.622-4.016c0-1.585-0.016-3.094-0.086-4.598c-0.021-0.47-0.874-1.164-1.452-1.297
			c-11.224-2.58-20.812-8.074-28.971-16.141c-0.21-0.21-0.394-0.441-0.646-0.765c-0.275-0.349-0.349-0.559-0.22-0.559
			c0.031,0,0.081,0.016,0.139,0.042c0.296,0.142,0.425,0.2,0.533,0.28c9.433,7.473,20.039,12.53,31.73,15.3
			c1.205,0.283,1.383,0.787,1.329,1.896c-0.182,3.753-0.195,7.517-0.365,11.267C100.353,98.214,100.671,98.913,102.29,99.128z
			 M130.589,90.157c-0.488,0.651-1.181,1.091-2.235,1.112c-0.021,0-0.047,0-0.068,0c-0.995,0-1.671-0.419-2.154-1.065
			c-0.507-0.672-0.513-1.241-0.271-1.515c0.097-0.107,0.221-0.184,0.389-0.184c0.124,0,0.263,0.034,0.406,0.108
			c0.506,0.257,0.994,0.445,1.478,0.467c0.034,0,0.065,0.016,0.097,0.016c0.011,0,0.03,0,0.04,0c0.564-0.01,1.123-0.236,1.706-0.525
			c0.156-0.081,0.31-0.118,0.441-0.118C131.02,88.464,131.298,89.223,130.589,90.157z M125.322,82.69
			c0.275-0.775,0.851-1.397,1.716-1.791c0.277-0.123,0.643-0.181,1.032-0.181c0.79,0,1.675,0.247,2.116,0.662
			c0.745,0.714,1.428,2.704,1.013,3.187c-0.762,0.897-2.308,1.312-3.592,1.527c-0.056,0.01-0.103,0.01-0.156,0.01
			c-0.301,0-0.629-0.147-0.96-0.317c-0.016-0.011-0.035-0.005-0.05-0.016c-0.062-0.034-0.118-0.051-0.16-0.051
			c-0.128,0-0.107,0.164-0.005,0.35c0.047,0.092,0.113,0.173,0.221,0.275c0.277,0.257,0.734,0.515,1.456,0.565
			c0.052,0.005,0.092,0.005,0.139,0.01c1.675,0.113,2.693,0.124,1.844,0.812c-0.348,0.281-0.763,0.399-1.248,0.419
			c-0.036,0-0.058,0.032-0.094,0.032c-0.185,0-0.379-0.017-0.589-0.053c-0.783-0.142-1.487-0.394-1.976-0.851
			c-0.168-0.16-0.261-0.391-0.374-0.606c-0.037-0.071-0.096-0.128-0.123-0.205c-0.021-0.055-0.068-0.086-0.086-0.144
			c-0.123-0.425-0.365-1.404-0.333-2.415C125.141,83.495,125.188,83.078,125.322,82.69z"/>
		<path style="fill:#1D1D1B;" d="M167.058,44.826c0.083,0,0.158,0,0.246-0.005c1.527-0.042,3.039-0.086,4.542-0.086
			c1.94,0,3.862,0.071,5.769,0.296c11.722,1.392,19.04,8.644,21.107,20.109c2.163,12.037-2.005,20.803-12.818,26.541
			c-7.791,4.132-16.285,5.695-24.998,6.147c-1.532,0.082-2.205,0.457-2.457,2.092c-1.113,7.129-3.423,13.885-6.708,20.302
			c-4.264,8.319-9.995,15.246-17.534,20.588c-2.415,1.711-4.326,2.877-4.11,2.877c0.143-0.005,0.278-0.016,0.415-0.047
			c1.382-0.306,2.782-0.566,4.137-0.966c15.549-4.672,26.552-14.801,34.221-28.809c0.83-1.512,1.706-2.05,3.359-2.05
			c0.021,0,0.047,0,0.068,0c0.137,0,0.272,0,0.41,0c6.151,0,12.158-1.089,17.963-3.105c14.782-5.129,23.938-15.068,25.764-30.953
			c1.104-9.628-0.441-19.066-2.324-28.5c-0.735-3.688-0.945-7.606-0.615-11.36c0.379-4.38,2.179-8.427,6.037-11.034
			c0.33-0.226,0.684-0.419,1.045-0.603c0.031-0.016,0.057-0.037,0.088-0.048c0.584-0.291,1.197-0.543,1.817-0.784l0.011-0.005
			c0,0,0,0,0.011,0c0.482-0.194,0.368-0.533-0.164-0.855c-0.067,0.102-0.057,0.23-0.141,0.312c-0.246,0.236-0.589,0.365-0.935,0.365
			c-0.016,0-0.031,0-0.047,0l-0.729-0.026l-1.476-0.052l-0.708-0.014c-6.205,0-10.1,3-12.273,5.518l-0.263,0.299
			c-1.597,1.851-1.597,1.851-2.21,1.851c-0.199,0-0.373-0.082-0.54-0.163c-0.316,0.538-0.626,1.082-0.883,1.65
			c-0.823,1.806-1.376,3.749-1.638,5.746c-0.268,2.087-1.148,3.22-2.572,3.22c-0.589,0-1.27-0.191-2.036-0.585
			c-4.599-2.365-9.449-3.827-14.698-4.005c-0.357-0.01-0.703-0.016-1.051-0.016c-4.883,0-9.406,1.165-13.647,3.397
			C163.923,43.405,164.307,44.826,167.058,44.826z"/>
		<path style="fill:#1D1D1B;" d="M213.82,24.395c0.241-0.06,0.482-0.113,0.724-0.167c-0.253,0.055-0.5,0.107-0.747,0.167
			c-0.964,0.242-1.898,0.554-2.771,0.94c-0.109,0.05-0.221,0.087-0.33,0.129c0.099-0.042,0.21-0.079,0.309-0.124
			C211.898,24.954,212.844,24.641,213.82,24.395z"/>
		<path style="fill:#1D1D1B;" d="M218.292,23.814c0.156,0,0.325,0.006,0.488,0.011c0.089,0,0.174,0,0.268,0.005
			c1.485,0.052,2.23,0.084,2.23,0.084s-0.74-0.027-2.22-0.084C218.801,23.82,218.544,23.814,218.292,23.814
			c-0.011,0-0.021,0-0.021,0c-1.25,0-2.421,0.155-3.555,0.376c-0.006,0-0.006,0-0.016,0c-0.053,0.01-0.095,0.026-0.151,0.037
			c0.057-0.011,0.099-0.026,0.151-0.037C215.846,23.97,217.032,23.814,218.292,23.814z"/>
		<path style="fill:#1D1D1B;" d="M203.547,31.479c0,0,0.393-0.462,1.191-1.38C203.939,31.017,203.547,31.479,203.547,31.479z"/>
		<path style="fill:#1D1D1B;" d="M205.001,29.796c-0.096,0.107-0.179,0.205-0.263,0.302
			C204.822,30.001,204.905,29.899,205.001,29.796z"/>
		<path style="fill:#1D1D1B;" d="M207.876,27.169c0.856-0.63,1.766-1.2,2.752-1.67c0.021-0.01,0.053-0.021,0.073-0.031
			c-0.031,0.011-0.052,0.016-0.073,0.031h-0.01C209.636,25.97,208.732,26.54,207.876,27.169c-0.219,0.16-0.419,0.331-0.629,0.504
			c-0.011,0-0.011,0.005-0.011,0.005c-0.562,0.452-1.071,0.956-1.564,1.478c0.503-0.522,1.013-1.026,1.575-1.482
			C207.457,27.5,207.657,27.329,207.876,27.169z"/>
		<path style="fill:#1D1D1B;" d="M37.176,27.059c3.606,2.297,5.371,5.354,6.052,10.53c0.486,3.646,0.35,7.554-0.422,11.145
			c-1.922,8.923-3.328,17.869-2.696,26.99c0.938,13.438,7.092,23.727,19.208,30.082c7.677,4.026,15.948,5.838,24.564,5.993
			c2.071,0.039,3.236,0.563,4.268,2.488c5.091,9.5,12.117,17.264,21.388,22.874c3.903,2.362,7.995,4.222,12.344,5.401
			c1.139,0.312,2.068,0.441,2.708,0.441c0.955,0,1.242-0.299,0.569-0.729c-0.677-0.431-1.36-0.855-2.021-1.307
			c-14.444-9.858-21.604-24.168-24.798-40.843c-0.305-1.609-0.75-2.241-2.494-2.307c-6.766-0.242-13.383-1.452-19.753-3.795
			c-12.047-4.433-20.438-12.777-18.26-27.591c1.5-10.202,6.634-17.41,16.717-20.394c3.284-0.974,6.816-1.312,10.257-1.494
			c0.542-0.028,1.079-0.044,1.628-0.044c1.144,0,2.296,0.055,3.478,0.128c0.184,0.013,0.349,0.018,0.512,0.018
			c2.338,0,2.462-1.183-0.016-2.446c-4.703-2.403-9.349-3.511-13.956-3.511c-5.187,0-10.32,1.409-15.444,3.968
			c-0.753,0.375-1.435,0.56-2.031,0.56c-1.518,0-2.499-1.163-2.79-3.268c-1.419-10.268-9.284-16.115-17.932-16.115
			c-0.21,0-0.42,0.005-0.63,0.01C34.656,23.938,34.673,25.468,37.176,27.059z"/>
		<path style="fill:#1D1D1B;" d="M95.054,215.734c4.785,3.537,9.756,6.855,14.31,10.677c4.714,3.952,9.982,6.157,16.024,6.562
			c1.006,0.062,2.01,0.1,3.005,0.1c5.494,0,10.769-1.117,15.42-4.488c6.032-4.357,11.938-8.892,17.906-13.333
			c0.179-0.132,0.389-0.241,0.614-0.362c0.042-0.026,0.084-0.058,0.126-0.089c0.299-0.179-0.967-0.725-2.898-1.496
			c-4.184-1.345-8.24-3.791-11.574-7.029c-0.167-0.158-0.31-0.352-0.479-0.52c-1.174-1.197-2.226-2.493-3.181-3.859
			c-0.094-0.141-0.188-0.272-0.283-0.408c-1.102-1.633-2.089-3.339-2.782-5.139c-0.031-0.075-0.005-0.153-0.031-0.227
			c-0.986-2.21-3.103-4.048-5.45-4.63c-0.476-0.116-0.943-0.268-1.426-0.268c-4.217,0-8.402,0-12.617,0
			c-0.274,0-0.531,0.109-0.807,0.151c-2.667,0.379-5.176,2.457-6.187,4.951c0,0,0,0,0,0.006c-0.641,1.668-1.512,3.243-2.478,4.755
			c-0.231,0.372-0.473,0.725-0.722,1.081c-0.869,1.238-1.822,2.425-2.874,3.523c-0.157,0.151-0.281,0.341-0.441,0.493
			c-3.184,3.171-7.062,5.563-11.166,6.944c-2.021,0.872-3.338,1.559-2.924,1.891C94.463,215.283,94.757,215.502,95.054,215.734z
			 M130.963,226.374c-0.756,0.992-1.774,1.595-2.924,1.595c-0.046,0-0.082,0-0.127,0c-1.105-0.041-2.078-0.634-2.787-1.573
			c-0.748-0.982-0.578-1.779-0.055-2.036c0.107-0.053,0.209-0.122,0.348-0.122c0.179,0,0.374,0.052,0.581,0.153
			c0.189,0.099,0.379,0.163,0.564,0.246c0.501,0.21,1.006,0.379,1.507,0.379c0.031,0,0.071,0,0.103,0
			c0.719-0.027,1.435-0.357,2.112-0.758c0.205-0.119,0.395-0.177,0.571-0.177C131.592,224.081,131.929,225.098,130.963,226.374z
			 M130.847,220.521c-0.787,0.558-1.605,0.841-2.493,0.841c-0.314,0-0.638-0.044-0.972-0.111c-0.27-0.058-0.506-0.078-0.705-0.078
			c-1.274,0-1.11,1.007,1.131,1.007c0.067,0,0.139,0,0.207,0c0.604,0,1.136-0.01,1.582-0.01c1.366,0,1.87,0.104,0.862,0.924
			c-0.662,0.53-1.46,0.818-2.348,0.818c-0.221,0-0.446-0.016-0.678-0.052c-0.016,0-0.031-0.011-0.047-0.011
			c-0.241-0.041-0.473-0.096-0.692-0.174c-0.706-0.246-1.296-0.672-1.737-1.223c-0.145-0.179-0.216-0.41-0.323-0.62
			c-0.118-0.225-0.273-0.424-0.349-0.671c-0.016-0.042-0.026-0.147-0.042-0.2c-0.142-0.545-0.265-1.532-0.184-2.625
			c0.056-0.714,0.174-1.449,0.501-2.104c0.551-1.104,1.483-1.948,2.621-2.243c0.303-0.073,0.597-0.115,0.889-0.115
			c1.653,0,3.145,1.219,3.973,3.233C132.705,218.684,132.043,219.681,130.847,220.521z M128.193,205.875
			c2.816,0.042,2.601,1.764,0.016,1.764c-2.559,0-2.827-1.764-0.113-1.764C128.122,205.864,128.157,205.864,128.193,205.875z
			 M118.721,199.386c0.055,0,0.118,0,0.194,0.011c0.688,0.089,1.354,0.21,1.948,0.493c2.417,1.15,4.808,1.732,7.202,1.732
			c2.363,0,4.725-0.571,7.108-1.742c0.451-0.227,0.95-0.374,1.454-0.504c0.34-0.084,0.662-0.12,0.93-0.12
			c0.366,0,0.623,0.078,0.649,0.236c0.054,0.261-2.236,1.122-5.102,1.889c-1.796,0.488-3.591,0.872-5.379,0.872
			c-0.071,0-0.144,0-0.215,0c-1.866-0.036-3.725-0.504-5.575-1.135C119.319,200.215,117.997,199.386,118.721,199.386z"/>
		<path style="fill:#1D1D1B;" d="M51.686,214.737c-2.913,1.416-5.729,3.254-8.995,3.254c-0.874,0-1.782-0.137-2.729-0.441
			c-0.344-0.114-0.709-0.163-1.097-0.199c-0.021,0-0.037-0.006-0.058-0.006c-0.614,0-1.452,0.93-1.908,2.127
			c-0.467,1.238,1.16,3.57,3.858,4.817c11.946,5.514,35.431,11.151,48.83,11.728c0.247,0.011,0.491,0.016,0.727,0.016
			c2.633,0,4.735-0.613,4.827-1.117c0.058-0.326,0.118-0.661,0.16-1.002c0.491-3.796,0.8-7.627,1.511-11.387
			c0.436-2.283,0-3.784-2.081-4.86c-1.601-0.83-3.084-2.541-4.683-2.625c-8.729-0.451-15.737-4.331-21.861-10.18
			c-1.166-1.111-2.21-2.425-3.016-3.82c-1.01-1.758,0.147-3.633,2.066-3.633c0.128,0,0.257,0.011,0.391,0.026
			c1.076,0.137,2.103,0.745,3.108,1.228c0.359,0.174,0.703,0.379,1.026,0.577c0.037,0.028,0.077,0.038,0.113,0.038
			c0.452,0,0.506-1.994,0.118-4.726c-0.262-1.826-0.509-3.642-0.704-5.464c-0.57-5.254-0.908-10.541-3.968-15.146
			c-0.192-0.288-0.213-0.691-0.418-0.971c-0.209-0.283-0.435-0.546-0.661-0.808c-0.2-0.227-0.457-0.336-0.711-0.336
			c-0.231,0-0.462,0.094-0.632,0.289c-0.221,0.252-0.425,0.514-0.548,0.803c-2.339,5.522-4.247,11.265-7.017,16.557
			c-3.785,7.223-5.95,14.613-4.96,22.793c0.047,0.419,0.087,0.876-0.021,1.271C52.229,213.979,52.029,214.568,51.686,214.737z"/>
		<path style="fill:#1D1D1B;" d="M203.32,213.002c-0.137-3.395,0.031-6.807-0.105-10.203c-0.062-1.438-0.388-2.945-0.961-4.263
			c-2.756-6.341-5.675-12.62-8.445-18.956c-1.023-2.33-1.774-4.782-2.735-7.145c-0.173-0.431-0.688-0.808-1.14-1.003
			c-0.016-0.005-0.031-0.01-0.052-0.01c-0.221,0-0.745,0.371-0.829,0.646c-1.145,3.578-3.653,6.555-3.957,10.571
			c-0.091,1.208-0.244,2.415-0.374,3.623c-0.005,0.403-0.021,0.776-0.058,1.091c-0.262,2.872-0.573,5.47-1.113,8.043
			c-0.221,2.142,0,3.611,0.589,3.611c0.083,0,0.172-0.032,0.272-0.096c0.504-0.324,1.029-0.651,1.574-0.924
			c0.74-0.366,1.512-0.66,2.247-0.66c0.714,0,1.401,0.272,2.015,1.013c1.235,1.485,0.39,2.839-0.598,4.005
			c-0.473,0.556-0.966,1.06-1.459,1.586c-0.146,0.183-0.257,0.367-0.421,0.546c-0.701,0.761-1.521,1.496-2.387,2.21
			c-5.339,4.739-11.607,7.742-19.22,8.23c-3.243,0.21-4.996,2.955-7.453,4.505c-0.158,0.099-0.179,0.53-0.143,0.792
			c0.452,3.517,0.914,7.024,1.381,10.588c0.374,2.83,2.898,5.077,5.722,5.077c0.116,0,0.231,0,0.348-0.011
			c17.008-1.113,33.207-4.966,48.783-11.696c2.724-1.177,4.492-3.275,3.999-4.566c-0.482-1.267-3.134-1.812-6.017-1.812
			c-0.073,0-0.151,0-0.231,0c-0.041,0-0.083,0-0.13,0c-2.415,0-3.822-0.72-7.79-2.766
			C203.988,214.706,203.347,213.707,203.32,213.002z"/>
		<path style="fill:#1D1D1B;" d="M203.521,103.907c-0.179,0-0.285,0.069-0.306,0.226c-0.053,0.417,0.054,0.919,0.179,1.451
			c1.155,4.89,2.278,9.788,3.334,14.701c0.162,0.764,0.1,1.709-0.21,2.413c-3.602,8.099-3.617,8.088-12.058,10.599
			c-0.343,0.104-0.683,0.208-1.019,0.31c-3.555,1.002-7.103,2.005-10.714,3.028c-2.856,0.804-4.163,3.643-2.909,6.331
			c0.479,1.028,0.961,2.057,1.444,3.087c1.013,2.183,3.392,3.59,5.773,3.59c0.516,0,1.035-0.084,1.534-0.221
			c0.072-0.021,0.125-0.042,0.205-0.068c0.272-0.078,0.551-0.152,0.823-0.236c1.553-0.467,3.106-0.935,4.63-1.443
			c0.551-0.189,1.045-0.288,1.501-0.288c0.865,0,1.601,0.363,2.361,1.229c1.886,2.121,4.033,3.994,5.96,6.068
			c0.52,0.556,0.971,0.808,1.479,0.808c0.372,0,0.771-0.136,1.255-0.382c5.542-2.856,11.086-5.718,16.734-8.343
			c2.194-1.023,2.553-2.551,2.363-4.582c-0.053-0.562-0.062-1.155-0.252-1.675c-1.114-3.145,0.114-4.955,3.07-6.194
			c1.979-0.83,2.503-4.562,0.939-6.11c-7.149-7.098-14.351-14.15-21.658-21.326C206.266,105.196,204.266,103.907,203.521,103.907
			L203.521,103.907z"/>
		<path style="fill:#1D1D1B;" d="M29.819,141.685c-0.239,0.767-0.215,1.738,0.026,2.499c0.242,0.766,0.751,1.717,1.413,2.057
			c5.918,3.062,11.88,6.038,17.875,8.936c0.165,0.084,0.394,0.12,0.635,0.12c0.535,0,1.165-0.185,1.483-0.478
			c2.288-2.109,4.488-4.335,6.643-6.594c0.575-0.598,1.107-0.917,1.79-0.917c0.296,0,0.62,0.057,0.99,0.184
			c1.338,0.439,2.692,0.84,4.047,1.249c0.731,0.221,1.456,0.409,2.199,0.64c0.026,0,0.042,0.021,0.062,0.031
			c0.48,0.122,0.963,0.21,1.452,0.21c2.383,0,4.759-1.407,5.774-3.589c0.425-0.914,0.843-1.828,1.268-2.736
			c1.247-2.693,1.711-5.064,1.04-5.307c-0.436-0.147-0.83-0.283-1.226-0.399c-4.893-1.438-9.72-3.223-14.704-4.188
			c-5.966-1.161-9.717-4.315-11.402-10.074c-0.037-0.134-0.16-0.252-0.175-0.38c-0.098-0.948-0.416-1.953-0.226-2.84
			c1.073-5.059,2.283-10.09,3.406-15.137c0.087-0.375,0.107-0.769,0.113-1.165c0.01-0.646-0.128-1.21-0.304-1.271l0,0
			c-0.018-0.005-0.039-0.01-0.066-0.01c-0.209,0-0.611,0.21-0.958,0.512c-0.23,0.199-0.461,0.407-0.682,0.622
			c-2.751,2.769-5.483,5.548-8.233,8.317c-5.247,5.284-10.504,10.557-15.745,15.845c-1.581,1.592-1.746,5.466-0.087,6.105
			C30.103,135.396,30.953,137.98,29.819,141.685z"/>
		<path style="fill:#1D1D1B;" d="M229.101,136.326c-1.104,0.551-1.717,1.938-1.371,3.087c0.216,0.707,0.421,1.4,0.62,2.089
			c0.84,2.835-0.041,4.913-2.609,6.209c-6.015,3.035-12.078,5.976-18.01,9.167c-0.914,0.488-1.686,0.767-2.399,0.767
			c-0.914,0-1.737-0.452-2.646-1.502c-1.947-2.235-4.23-4.188-6.398-6.227c-0.398-0.372-1.023-0.892-1.444-0.892
			c-0.036,0-0.078,0.006-0.109,0.016c-1.597,0.437-3.181,0.902-4.768,1.375c-0.268,0.079-0.54,0.152-0.808,0.236
			c-0.073,0.021-0.132,0.041-0.2,0.063c-2.739,0.84-4.882,1.701-4.817,1.941c0.052,0.199,0.083,0.326,0.136,0.446
			c1.387,3.644,2.783,7.281,4.157,10.93c1.665,4.384,2.321,6,4.661,6c1.125,0,2.631-0.367,4.82-0.987
			c1.291-0.366,2.446-0.556,3.475-0.556c2.688,0,4.589,1.322,6.142,4.44c0.808,1.623,2.094,2.384,3.607,2.384
			c0.896,0,1.867-0.268,2.859-0.787c6.594-3.464,13.166-6.962,19.738-10.468c1.868-0.997,2.678-3.706,1.764-5.633
			c-0.404-0.867-0.808-1.727-1.223-2.604c-0.678-1.441,0.277-3.358,2.126-4.293c1.133-0.571,2.236-1.129,3.327-1.695
			c1.728-0.894,2.194-2.698,0.903-4.152c-1.932-2.163-3.895-4.283-5.879-6.42c-1.711-1.839-3.78-3.066-5.051-3.066
			C229.473,136.194,229.269,136.237,229.101,136.326L229.101,136.326z"/>
		<path style="fill:#1D1D1B;" d="M15.891,149.864c1.096,0.567,2.193,1.124,3.328,1.69c1.837,0.924,2.773,2.841,2.073,4.277
			c-0.428,0.893-0.842,1.75-1.242,2.615c-0.908,1.958-0.083,4.614,1.812,5.627c6.564,3.512,13.139,7.009,19.735,10.463
			c0.951,0.504,1.843,0.745,2.672,0.745c1.493,0,2.788-0.798,3.858-2.342c0.851-1.229,1.759-2.415,2.533-3.686
			c0.499-0.818,1.042-1.127,1.832-1.127c0.242,0,0.512,0.025,0.805,0.078c3.329,0.603,6.699,0.971,10.053,1.423
			c0.139,0.021,0.269,0.025,0.392,0.025c1.023,0,1.538-0.625,1.897-1.69c0.83-2.415,1.824-4.766,2.727-7.149
			c0.543-1.428,1.079-2.855,1.623-4.3c0.882-2.346-0.646-4.939-3.402-5.815c-0.026-0.01-0.045-0.027-0.077-0.038
			c-0.735-0.226-1.462-0.418-2.191-0.634c-0.974-0.283-1.948-0.584-2.918-0.836c-0.098-0.031-0.205-0.041-0.313-0.041
			c-0.564,0-1.28,0.306-1.677,0.661c-2.462,2.257-4.876,4.558-7.196,6.95c-0.662,0.672-1.25,1.013-1.932,1.013
			c-0.457,0-0.956-0.156-1.544-0.462c-6.283-3.286-12.63-6.44-18.963-9.633c-2.58-1.301-3.436-3.223-2.627-6.02
			c0.21-0.72,0.431-1.444,0.656-2.169c0.37-1.191-0.233-2.614-1.344-3.17c-0.174-0.084-0.378-0.127-0.614-0.127
			c-1.273,0-3.344,1.223-5.052,3.061c-1.985,2.138-3.951,4.268-5.877,6.441C13.709,147.087,14.239,149.019,15.891,149.864z"/>
		<path style="fill:#1D1D1B;" d="M114.841,142.503c-12.654-5.638-21.869-14.929-28.656-26.851c-0.416-0.727-1.575-1.414-2.426-1.458
			c-6.987-0.347-13.809-1.489-20.318-4.084c-1.553-0.62-3.071-1.328-4.601-2.068c-0.641-0.312-1.281-0.456-1.888-0.456
			c-1.769,0-3.267,1.252-3.708,3.341c-0.359,1.706-0.763,3.393-1.323,5.021c-1.328,3.876-0.732,7.201,1.289,10.638
			c0.921,1.564,1.851,2.585,3.608,3.173c14.342,4.734,28.883,8.694,43.754,11.351c3.145,0.566,6.307,1.018,9.472,1.47
			c2.462,0.346,4.549,0.587,5.181,0.587c0.124,0,0.194-0.01,0.2-0.031c0.031-0.111-0.087-0.309-0.257-0.431
			C115.062,142.625,114.954,142.556,114.841,142.503z M72.3,127.748c-0.666,0.611-1.404,0.924-2.16,0.924
			c-0.205,0-0.41-0.022-0.609-0.071c-1.037-0.231-1.78-0.969-2.171-2.241c-0.236-0.765-0.21-1.032,0.087-1.032
			c0.375,0,1.191,0.441,2.454,0.883C72.161,126.99,73.531,126.62,72.3,127.748z M72.46,124.898
			c-0.559,0.167-1.113,0.296-1.648,0.296c-0.126,0-0.244-0.005-0.362-0.021c-0.987-0.118-1.667-0.635-2.11-1.462
			c-0.307-0.572-0.318-0.793-0.066-0.793c0.323,0,1.082,0.363,2.205,0.814c0.617,0.247,1.222,0.328,1.757,0.328
			c0.979,0,1.737-0.265,2-0.265c0.061,0,0.092,0.01,0.098,0.044C74.379,124.092,73.546,124.569,72.46,124.898z M72.245,123.338
			c-0.042,0-0.084,0-0.128,0c-1.903,0-4.011-1.656-4.016-3.197c-0.005-1.404,2.027-3.205,3.672-3.247c0.026,0,0.056,0,0.082,0
			c1.821,0,3.272,1.657,3.338,3.827C75.234,122.21,74.041,123.271,72.245,123.338z"/>
		<path style="fill:#1D1D1B;" d="M72.117,122.671v0.672l0.039-0.678L72.117,122.671z"/>
		<path style="fill:#1D1D1B;" d="M203.3,124.268c0.335-1.197,1.343-2.444,1.144-3.51c-0.557-3.047-1.25-6.074-1.958-9.121
			c-0.661-2.834-1.391-5.066-1.652-5.066c-0.006,0-0.011,0-0.021,0.006c-0.168,0.065-0.315,0.12-0.441,0.194
			c-8.294,4.779-17.312,6.935-26.787,7.289c-1.749,0.065-2.609,0.677-3.428,2.134c-5.996,10.611-14.122,19.087-25.019,24.767
			c-0.399,0.199-0.789,0.408-1.187,0.618c-0.657,0.337-1.166,0.683-1.14,0.776c0.016,0.049,0.205,0.075,0.482,0.075
			c0.216,0,0.488-0.016,0.782-0.047c0.41-0.042,0.814-0.091,1.218-0.153c17.218-2.446,33.996-6.772,50.668-11.643
			C199.561,129.527,202.254,128.042,203.3,124.268z M180.244,120.851c-0.052-2.134,1.48-3.929,3.296-3.951c0.011,0,0.021,0,0.021,0
			c1.633,0,3.705,1.71,3.77,3.124c0.042,0.858-0.562,1.767-1.475,2.417c-0.704,0.501-1.732,0.727-2.683,0.727
			c-0.841,0-1.618-0.173-2.069-0.485C180.611,122.333,180.266,121.784,180.244,120.851z M184.717,123.927
			c1.08-0.352,1.874-0.641,2.241-0.641c0.293,0,0.319,0.186,0,0.692c-0.421,0.667-1.061,1.124-1.989,1.215
			c-0.104,0.011-0.205,0.016-0.305,0.016c-0.578,0-1.166-0.154-1.748-0.398C181.834,124.371,182.759,124.554,184.717,123.927z
			 M188.045,126.499c-0.378,1.134-1.087,1.84-2.068,2.087c-0.231,0.06-0.452,0.087-0.684,0.087c-0.703,0-1.4-0.282-2.025-0.796
			c-1.233-1.026,0.111-0.926,2.236-1.625c1.155-0.38,1.968-0.745,2.383-0.745C188.233,125.501,188.303,125.764,188.045,126.499
			L188.045,126.499z"/>
		<path style="fill:#1D1D1B;" d="M9.037,163.575c0.569,0.356,1.139,0.709,1.748,1.083c0.961,0.592,1.047,2.413,0.191,4.077
			c-0.519,1.014-1.026,2.011-1.509,3.013c-0.937,1.938-0.257,3.98,1.611,5.015c7.633,4.22,15.274,8.44,22.917,12.635
			c1.031,0.573,1.863,0.861,2.611,0.861c1.087,0,1.985-0.626,3.027-1.932c0.887-1.108,1.876-2.147,2.635-3.335
			c0.51-0.808,1.053-1.122,1.704-1.122c0.397,0,0.837,0.115,1.333,0.314c2.585,1.039,5.145,2.153,7.93,2.153
			c0.887,0,1.796-0.117,2.74-0.379c1.161-0.33,1.851-0.65,2.258-1.795c1.163-3.275,2.425-6.51,3.629-9.77
			c0.146-0.393,0.279-0.792,0.402-1.176c0.209-0.65-0.801-1.344-2.268-1.549c-0.913-0.125-1.78-0.252-2.645-0.42
			c-1.495-0.294-2.494-0.488-3.258-0.488c-1.554,0-2.118,0.814-3.837,3.313c-0.646,0.939-1.269,1.89-1.956,2.786
			c-0.276,0.363-0.727,0.867-1.066,0.867c-0.011,0-0.016,0-0.026,0c-2.297-0.185-4.877,0.104-6.806-0.877
			c-6.89-3.491-13.577-7.392-20.275-11.239c-0.872-0.504-1.499-1.554-2.048-2.462c-1.548-2.557-1.054-4.945,0.764-7.197
			c0.253-0.314,0.452-0.661,0.644-1.049c0.312-0.61-0.488-1.68-1.801-2.384c-0.8-0.431-1.59-0.841-2.401-1.208
			c-0.092-0.036-0.205-0.057-0.333-0.057c-0.426,0-0.99,0.205-1.21,0.473c-1.979,2.409-3.913,4.866-5.745,7.391
			C6.811,160.751,7.308,162.5,9.037,163.575z"/>
		<path style="fill:#1D1D1B;" d="M240.318,151.543c-2.96,0.179-4.3,3.202-3.705,4.236c0.366,0.63,0.723,1.254,1.08,1.874
			c1.397,2.404,0.231,6.646-2.226,8.017c-6.436,3.595-12.935,7.091-19.287,10.819c-2.057,1.202-4.157,1.111-6.32,1.353
			c-0.156,0.011-0.314,0.021-0.466,0.021c-2.589,0-2.841-2.582-4.173-3.963c-0.441-0.452-0.82-1.003-1.093-1.569
			c-0.577-1.254-1.387-1.695-2.446-1.695c-0.421,0-0.881,0.067-1.375,0.189c-1.218,0.288-2.456,0.498-3.718,0.701
			c-2.067,0.332-2.896,2.836-1.857,5.612c0.987,2.625,1.984,5.276,3.008,7.917c0.121,0.325,0.604,0.687,0.95,0.715
			c1.548,0.135,3.064,0.455,4.614,0.455c1.014,0,2.047-0.141,3.112-0.572c2.248-0.919,3.602-1.443,4.661-1.443
			c1.597,0,2.531,1.187,4.81,4.027c1.103,1.369,1.983,2.021,3.076,2.021c0.756,0,1.611-0.312,2.714-0.919
			c7.448-4.105,14.892-8.215,22.347-12.325c2.593-1.438,3.138-3.277,1.764-5.937c-0.452-0.889-0.914-1.781-1.365-2.683
			c-0.756-1.48-0.598-3.15,0.337-3.728c0.576-0.353,1.133-0.692,1.69-1.04c2.088-1.291,2.382-2.883,0.881-4.893
			c-0.892-1.19-1.815-2.351-2.734-3.527c-1.958-2.519-2.862-3.675-4.132-3.675C240.402,151.543,240.36,151.543,240.318,151.543z"/>
		<path style="fill:#1D1D1B;" d="M103.102,208.6c1.37-0.888,2.585-1.911,3.734-2.988c0.48-0.462,0.918-0.956,1.373-1.442
			c0.756-0.825,1.478-1.685,2.129-2.609c0.304-0.42,0.59-0.861,0.869-1.301c0.892-1.418,1.698-2.878,2.291-4.41
			c0-0.005,0-0.005,0-0.012c0.887-2.341-0.543-4.587-2.764-5.517c-0.41-0.174-0.795-0.384-1.247-0.452
			c-3.026-0.446-6.058-0.891-9.111-1.337c-1.286-0.189-2.467-0.278-3.398-0.278c-0.371,0-0.611,0.042-0.888,0.067
			c-0.612,0.062-1.068,0.174-1.078,0.379c-0.017,0.335-0.035,0.64-0.056,0.938c-0.042,0.604-0.247,1.113-0.344,1.686
			c-0.047,0.745-0.226,1.532-0.446,2.304c-0.048,0.184-0.077,0.373-0.14,0.552c-0.016,0.042-0.042,0.073-0.055,0.109
			c-0.44,1.208-1.063,2.29-1.776,3.293c-1.749,2.457-4.226,4.324-7.431,5.321c-0.612,0.185-1.215,0.306-1.817,0.421
			c-0.118,0.031-0.199,0.116-0.322,0.137c-0.735,0.115-1.479,0.167-2.22,0.167c-0.032,0-0.069-0.01-0.103-0.01
			c-0.113,0-0.226,0.031-0.333,0.031c-3.428,0-6.68-1.164-9.783-3.202c-0.517-0.341-1.082-0.619-1.724-0.912
			c-0.092-0.042-0.178-0.06-0.254-0.06c-0.751,0-0.785,1.896,1.01,3.9c4.538,5.066,14.095,9.723,20.809,9.723
			c0.247,0,0.496-0.005,0.738-0.021c2.01-0.111,4.011-0.582,5.966-1.255c2.199-0.75,4.312-1.827,6.294-3.171
			C103.046,208.636,103.075,208.621,103.102,208.6z"/>
		<path style="fill:#1D1D1B;" d="M145.121,200.657c0.141,0.205,0.277,0.415,0.424,0.62c0.766,1.122,1.659,2.143,2.583,3.129
			c0.452,0.477,0.902,0.938,1.385,1.385c1.124,1.023,2.296,1.995,3.617,2.846c0.08,0.053,0.164,0.104,0.247,0.156
			c1.68,1.114,3.443,1.975,5.261,2.678l0,0l0.183,0.08c0.379,0.141,0.751,0.33,1.129,0.455c1.928,0.626,3.875,1.062,5.802,1.108
			c0.12,0.005,0.236,0.005,0.356,0.005c5.643,0,13.402-3.401,18.389-7.453c0.839-0.693,1.628-1.387,2.288-2.101
			c0.152-0.158,0.215-0.31,0.337-0.467c1.485-1.868,1.532-3.628,0.901-3.628c-0.041,0-0.094,0.01-0.146,0.025
			c-0.524,0.189-1.008,0.374-1.47,0.6c-1.712,0.834-3.309,1.969-5.082,2.598c-0.619,0.221-1.229,0.337-1.837,0.483
			c-0.158,0.069-0.373,0.085-0.542,0.137c-0.299,0.062-0.603,0.106-0.896,0.158c-0.415,0.062-0.74,0.209-1.229,0.209
			c-0.21,0-0.473-0.031-0.692-0.042c-0.11,0-0.221,0.027-0.336,0.027c-4.51,0-8.521-2.032-11.208-5.382
			c-1.465-1.837-2.524-4.062-3.028-6.623c-0.143-0.747-0.295-1.503-0.342-2.296c-0.016-0.257-0.058-0.519-0.1-0.802
			c-0.021-0.133-0.272-0.211-0.641-0.268c-0.283-0.042-0.608-0.068-1.039-0.068c-0.987,0-2.31,0.104-3.758,0.314
			c-3.025,0.441-6.038,0.887-9.056,1.327c-0.836,0.122-1.602,0.452-2.264,0.904c-1.574,1.075-2.478,2.913-1.909,4.804
			c0.031,0.094,0.031,0.198,0.072,0.294C143.163,197.517,144.085,199.114,145.121,200.657z"/>
		<path style="fill:#1D1D1B;" d="M190.139,67.655c-0.283,0.262-0.803,0.897-1.171,1.415c-0.189,0.268-0.397,0.52-0.624,0.75
			c-0.036,0.044-0.062,0.092-0.11,0.131c-1.434,1.391-2.972,2.601-4.493,3.832c-7.004,5.638-14.898,9.637-23.879,11.674
			c-0.51,0.118-1.324,0.625-1.34,0.979c-0.052,1.531-0.073,3.068-0.073,4.627c0,2.404,2.143,4.333,4.861,4.333
			c0.167,0,0.341-0.005,0.515-0.023c6.256-0.562,12.205-1.858,17.942-4.208c4.251-1.743,8.063-4.149,11.055-7.729
			c1.075-1.287,1.501-2.504,1.008-4.252c-0.924-3.268-1.506-6.632-2.299-9.945c-0.069-0.297-0.189-0.575-0.321-0.858
			c-0.025-0.066-0.047-0.131-0.067-0.194c-0.089-0.184-0.2-0.322-0.314-0.43c-0.138-0.128-0.278-0.21-0.421-0.21
			C190.312,67.547,190.217,67.585,190.139,67.655z"/>
		<path style="fill:#1D1D1B;" d="M254.512,190.08c0.054-1.023,0.069-2.047,0.064-3.119c-0.011-1.642-0.194-2.896-0.421-2.896
			c-0.01,0-0.021,0.006-0.031,0.011c-0.21,0.115-0.324,0.172-0.426,0.257c-11.302,10.398-24.645,17.317-38.84,22.778
			c-0.62,0.235-1.354,0.439-2.015,0.439c-0.221,0-0.432-0.021-0.631-0.068c-1.213-0.293-2.41-0.651-3.633-1.033
			c-0.388-0.122-0.756-0.174-1.102-0.174c-1.46,0-2.521,1.008-2.526,2.594c0,1.182,0.016,2.361,0.059,3.553
			c0.011,0.441,0.44,1.034,0.85,1.265c2.384,1.413,4.856,2.405,7.487,2.405c1.111,0,2.262-0.179,3.443-0.577
			c2.478-0.846,5.038-1.517,7.401-2.609c11.144-5.155,20.536-12.809,29.527-20.997C254.155,191.481,254.48,190.705,254.512,190.08z"
			/>
		<path style="fill:#1D1D1B;" d="M49.116,205.791c-0.106,0-0.214,0.021-0.322,0.062c-0.63,0.221-1.215,0.421-1.811,0.604
			c-1.144,0.367-2.292,0.771-3.467,0.992c-0.271,0.047-0.549,0.073-0.84,0.073c-0.483,0-0.977-0.073-1.407-0.231
			c-12.289-4.565-23.866-10.45-34.242-18.54c-0.969-0.755-1.913-1.549-2.848-2.352c-1.475-1.26-2.754-2.216-2.953-2.216
			c-0.011,0-0.016,0-0.021,0.006c-0.071,0.078-0.124,0.142-0.128,0.21c-0.038,1.412-0.21,2.851-0.022,4.235
			c0.171,1.233,0.381,2.878,1.208,3.539c7.011,5.628,14.032,11.245,21.326,16.488c4.483,3.218,9.602,5.37,15.003,6.851
			c1.231,0.335,2.417,0.493,3.564,0.493c2.671,0,5.15-0.861,7.556-2.331c0.431-0.263,0.824-0.961,0.845-1.47
			c0.042-1.166,0.052-2.33,0.052-3.496C50.615,206.999,49.964,205.791,49.116,205.791z"/>
		<path style="fill:#1D1D1B;" d="M120.839,136.635c0.743,0.589,1.378,0.861,1.861,0.861c1.032,0,1.359-1.208,0.509-3.046
			c-1.939-4.204-3.878-8.409-5.874-12.724c-1.139-2.467-1.58-4.247-1.086-4.247c0.049,0,0.103,0.016,0.163,0.048
			c0.063,0.034,0.128,0.049,0.205,0.049c0.795,0,2.223-1.784,3.364-4.251c0.57-1.237,1.139-2.473,1.709-3.709
			c1.241-2.698-0.129-5.231-3.063-5.667c-4.091-0.606-8.139-1.205-12.181-1.801c-0.265-0.037-0.522-0.06-0.769-0.06
			c-2.564,0-4.462,1.958-3.796,4.575C104.466,116.766,113.211,130.588,120.839,136.635z"/>
		<path style="fill:#1D1D1B;" d="M133.807,134.246c-0.803,1.739-0.66,2.731,0.169,2.731c0.451,0,1.124-0.311,1.947-0.961
			c9.658-7.646,15.302-17.807,18.703-29.55c0.751-2.577-0.693-4.44-3.14-4.44c-0.262,0-0.535,0.021-0.818,0.063
			c-4.146,0.646-8.229,1.275-12.33,1.911c-2.935,0.457-4.311,3.003-3.062,5.696c0.548,1.189,1.099,2.373,1.639,3.549
			c1.155,2.503,2.615,4.349,3.392,4.349c0.058,0,0.109-0.01,0.168-0.031c0.042-0.023,0.094-0.034,0.131-0.034
			c0.52,0,0.067,1.85-1.086,4.349C137.577,126.087,135.687,130.178,133.807,134.246z"/>
		<path style="fill:#1D1D1B;" d="M68.468,164.404c-1.974,6.157,0.611,11.271,4.971,15.996c1.64,1.774,2.425,2.818,1.918,2.818
			c-0.118,0-0.299-0.058-0.554-0.169c-0.171-0.072-0.333-0.114-0.488-0.114c-1.087,0-1.727,1.784-1.473,4.368
			c0.247,2.55,0.504,5.012,0.882,7.453c0.293,1.911,1.123,3.786,1.945,5.565c0.339,0.734,1.226,1.573,1.979,1.711
			c0.887,0.156,1.761,0.241,2.644,0.241c0.034,0,0.07,0.011,0.102,0.011c0.672,0,1.344-0.042,2.011-0.153
			c0.118-0.021,0.183-0.099,0.291-0.13c1.929-0.488,2.617-2.259,2.026-3.854c-0.118-0.325-0.205-0.662-0.436-0.956
			c-0.866-1.102-1.743-2.179-2.688-3.191c-1.436-1.543-1.837-2.841-0.263-4.462c1.149-1.187,1.176-2.44,0.56-4.043
			c-0.942-2.425-1.57-4.986-2.21-7.526c-1.097-4.367-1.512-8.673,1.504-12.568c0.034-0.041,0.016-0.114-0.005-0.198
			c-0.01-0.048-0.038-0.074-0.063-0.074c-0.034,0-0.076,0.036-0.118,0.105c0,0.006-0.01,0.006-0.018,0.006
			c-0.005,0-0.005,0.005-0.011,0.005c-0.257,0-2.31-1.07-4.746-2.498c-0.252-0.147-0.512-0.296-0.764-0.446
			c-0.861-0.504-1.832-0.751-2.773-0.751C70.833,161.554,69.069,162.521,68.468,164.404z"/>
		<path style="fill:#1D1D1B;" d="M128.44,138.751c0.806,0,1.613-0.673,2.239-2.011c1.574-3.412,3.106-6.726,4.63-10.011
			c1.249-2.693,2.141-4.939,1.995-5.019c-0.006,0-0.011-0.005-0.016-0.005c-0.227,0-1.928,1.443-2.983,3.863
			c-0.64,1.462-1.19,2.2-1.432,2.2c-0.169,0-0.189-0.354,0.031-1.065c0.397-1.312,0.189-2.108-0.452-2.108
			c-0.199,0-0.451,0.082-0.74,0.255c-0.766,0.457-1.464,0.858-2.179,1.212c-0.34,0.168-0.818,0.292-1.238,0.292
			c-0.236,0-0.462-0.037-0.631-0.134c-1.348-0.749-2.682-1.533-4.002-2.328c-2.194-1.318-2.897-4.548-1.578-7.202
			c0.27-0.538,0.533-1.077,0.804-1.609c1.305-2.628,2.467-4.72,2.611-4.72h0.005c0.124,0.056-0.59,2.354-1.59,5.149
			c-0.157,0.437-0.312,0.866-0.468,1.302c-1,2.795-1.049,5.402-0.106,5.827c0.579,0.257,1.139,0.504,1.708,0.735
			c0.975,0.394,2.102,1.189,2.979,1.189c0.123,0,0.241-0.016,0.349-0.047c1.692-0.528,3.352-1.163,5.021-1.846
			c2.74-1.112,3.947-4.226,2.703-6.924c-1.796-3.89-3.575-7.745-5.381-11.669c-0.625-1.35-1.438-2.021-2.255-2.021
			s-1.626,0.672-2.251,2.021c-2.457,5.322-4.821,10.451-7.165,15.583c-0.145,0.323-0.113,0.835,0.034,1.168
			c2.326,5.217,4.675,10.43,7.126,15.88C126.822,138.068,127.629,138.751,128.44,138.751L128.44,138.751z"/>
		<path style="fill:#1D1D1B;" d="M186.47,164.279c-0.593-1.517-2.016-2.353-3.654-2.353c-0.87,0-1.805,0.241-2.719,0.735
			c-0.179,0.095-0.356,0.189-0.535,0.293c-2.036,1.114-2.636,3.193-2.594,5.45c0.011,0.624,0.064,1.271,0.163,1.91
			c0.31,1.952,0.067,4.053-0.42,6.175c-0.635,2.761-1.224,5.558-2.258,8.183c-0.85,2.168-0.834,3.911,0.751,5.606
			c0.956,1.014,0.792,1.886-0.104,2.93c-1.028,1.202-2.016,2.431-3.024,3.69c-0.398,0.504-0.723,0.997-0.981,1.464
			c-0.824,1.465-0.972,2.688-0.252,2.987c0.615,0.252,1.187,0.462,1.775,0.551c1.411,0.21,2.529,0.332,3.512,0.384
			c0.22,0.011,0.472,0.042,0.672,0.042c0.901,0,1.616-0.143,2.215-0.426c1.46-0.691,2.216-2.356,3.028-5.769
			c0.058-0.252,0.089-0.52,0.143-0.776c0.566-2.631,0.871-5.329,1.133-8.138c0.021-0.247,0-0.44,0.011-0.671
			c0.069-2.185-0.504-3.659-1.485-3.659c-0.162,0-0.33,0.036-0.509,0.12c-0.619,0.277-1.107,0.41-1.408,0.41
			c-0.366,0-0.439-0.211-0.099-0.584c0.374-0.414,0.792-0.792,1.233-1.117c2.82-2.08,4.493-4.861,5.753-7.895
			c0.033-0.068,0.054-0.133,0.085-0.2c0.408-1.003,0.782-2.025,1.135-3.064c0.208-0.631,0.229-1.46,0.01-2.069
			C187.552,167.071,187.005,165.655,186.47,164.279z"/>
		<path style="fill:#1D1D1B;" d="M149.724,227.288c-0.715,0-1.518,0.299-2.372,0.896c-6.474,4.599-12.894,6.884-19.303,6.884
			c-6.564,0-13.11-2.399-19.69-7.156c-0.934-0.676-1.8-1.008-2.527-1.008c-1.14,0-1.924,0.825-2.058,2.436
			c-0.134,1.649-0.286,3.223-0.506,4.778c-0.215,1.543,0.157,2.119,1.671,2.467c7.975,1.821,15.988,2.896,24.056,2.896
			c4.078,0,8.173-0.272,12.278-0.865c2.143-0.31,4.267-0.74,6.404-1.202c2.897-0.629,4.966-3.527,4.62-6.478
			c-0.026-0.241-0.058-0.493-0.086-0.74C151.98,228.291,151.026,227.292,149.724,227.288z"/>
		<path style="fill:#1D1D1B;" d="M73.342,152.824c-0.391,0.972-0.795,1.984-1.166,3.019c-0.147,0.404,0.047,1.223,0.37,1.459
			c1.194,0.856,2.41,1.686,3.606,2.5c0.969,0.655,1.948,0.977,2.764,0.977c0.882,0,1.575-0.373,1.855-1.119
			c0.438-1.149-0.265-3.165-1.583-4.955c-0.461-0.226-0.902-0.535-1.283-0.945c-0.365-0.387-0.699-0.839-1.031-1.285
			c-0.688-0.431-1.354-0.725-1.932-0.725C74.214,151.749,73.633,152.099,73.342,152.824z"/>
		<path style="fill:#1D1D1B;" d="M76.568,149.476c0.446,0.87,1.032,1.579,1.596,2.309c0.254,0.336,0.441,0.746,0.722,1.05
			c0.349,0.379,0.729,0.6,1.113,0.74c0.268,0.101,0.541,0.184,0.806,0.184c1.005,0,1.897-0.703,2.187-1.825
			c0.474-1.849-1.197-4.594-2.618-7.046c-0.743-1.28-1.452-1.974-2.118-1.974c-0.601,0-1.166,0.566-1.688,1.774
			C75.943,146.142,75.639,147.659,76.568,149.476z"/>
		<path style="fill:#1D1D1B;" d="M177.562,143.423c-0.761,0-1.695,0.667-2.536,1.927c-1.438,2.168-2.257,5.264-1.837,6.929
			c0.252,1.002,1.065,1.617,2.005,1.617c0.252,0,0.515-0.074,0.767-0.163c0.268-0.32,0.52-0.673,0.81-0.95
			c0.294-0.273,0.613-0.421,0.923-0.631c0.578-0.713,1.176-1.396,1.586-2.268c0.356-0.734,0.829-1.69,0.629-2.361
			c-0.314-1.051-0.691-2.085-1.081-3.066C178.564,143.758,178.103,143.423,177.562,143.423z"/>
		<path style="fill:#1D1D1B;" d="M180.611,152.351c-0.588,0-1.271,0.305-1.958,0.746c-0.32,0.205-0.64,0.368-0.951,0.672
			c-0.366,0.346-0.67,0.735-0.971,1.124c-1.255,1.632-1.884,3.527-1.405,4.667c0.351,0.834,1.153,1.285,2.104,1.285
			c0.646,0,1.365-0.21,2.049-0.63c1.023-0.629,2.046-1.281,3.049-1.964c0.478-0.324,1.023-1.238,0.888-1.67
			c-0.326-1.038-0.698-2.067-1.077-3.043C182.023,152.741,181.393,152.351,180.611,152.351z"/>
		<path style="fill:#1D1D1B;" d="M94.085,143.085c1.189-0.566-0.026-1.122-2.914-1.81c-1.719-0.41-3.444-0.818-5.202-1.239
			c-1.307-0.314-2.489-0.462-3.381-0.462c-1.082,0-1.737,0.221-1.688,0.651c0.058,0.556,0.344,0.883,0.699,0.883
			c0.154,0,0.323-0.064,0.493-0.189c0.399-0.301,0.748-0.537,1.061-0.537c0.026,0,0.058,0,0.087,0.007
			c2.123,0.31,4.284,0.707,6.268,1.485c1.574,0.619,2.401,2.151,1.483,3.857c-0.586,1.088-1.491,1.501-2.507,1.501
			c-0.509,0-1.047-0.099-1.585-0.288c-0.473-0.151-0.929-0.361-1.445-0.613c-0.084-0.049-0.15-0.069-0.187-0.069
			c-0.322,0,0.833,1.261,3.279,2.248c0.939,0.372,1.929,0.681,2.918,0.891c0.656,0.143,1.21,0.211,1.661,0.211
			c1.549,0,1.871-0.756,0.764-1.665c-1.034-0.844-1.281-1.716-1.081-2.976C92.967,143.921,93.448,143.386,94.085,143.085z"/>
		<path style="fill:#1D1D1B;" d="M162.721,149.528c0.452,0,1.051-0.059,1.786-0.184c0.74-0.122,1.47-0.289,2.183-0.509
			c2.599-0.809,3.801-2.221,3.391-2.221c-0.031,0-0.083,0.01-0.141,0.031c-0.457,0.179-0.914,0.355-1.381,0.451
			c-0.341,0.078-0.683,0.109-1.008,0.109c-1.091,0-2.047-0.44-2.615-1.604c-0.724-1.502-0.021-2.615,1.146-3.465
			c0.058-0.042,0.099-0.096,0.169-0.138c0.449-0.309,0.922-0.587,1.395-0.859h0.011c0.011-0.011,0.021-0.021,0.033-0.021
			c0.346-0.199,0.299-0.295-0.055-0.295c-0.335,0-1.028,0.116-1.847,0.272c-0.368,0.075-0.698,0.133-1.135,0.231
			c-2.492,0.578-3.81,1.47-2.939,2.018c0.589,0.361,1.108,0.766,1.28,1.28c0.52,1.568,0.127,2.581-0.686,3.332
			C161.193,148.983,161.336,149.528,162.721,149.528z"/>
		<path style="fill:#1D1D1B;" d="M142.229,147.879c0.161-0.052,0.304-0.094,0.436-0.153c0.928-0.371,1.821-0.681,2.676-0.681
			c0.971,0,1.896,0.393,2.799,1.522c0.33,0.415,0.892,0.654,1.496,0.854c0.132,0.043,0.226,0.064,0.288,0.064
			c0.431,0-0.156-0.8-0.199-2.363c-0.042-1.434-0.604-2.709-2.205-2.709c-0.435,0-0.945,0.095-1.543,0.305
			c-0.016,0-0.031,0.01-0.042,0.01c-2.75,0.987-3.916,3.15-3.716,3.15C142.218,147.879,142.223,147.879,142.229,147.879z"/>
		<path style="fill:#1D1D1B;" d="M108.535,148.111c0.936-0.437,1.963-0.873,2.963-0.914c0.026,0,0.052,0,0.087,0
			c0.461,0,0.934,0.158,1.499,0.368c0.071,0.031,0.128,0.042,0.178,0.042c0.499,0-0.491-1.496-2.913-2.729
			c-0.137-0.068-0.271-0.127-0.399-0.189c-0.591-0.258-1.097-0.368-1.514-0.368c-1.517,0-2.016,1.455-2.128,2.866
			c-0.113,1.392-0.518,2.08-0.2,2.08c0.092,0,0.252-0.064,0.493-0.18C107.271,148.751,107.892,148.404,108.535,148.111z"/>
		<path style="fill:#1D1D1B;" d="M96.978,146.404c0.574-0.888,1.871-0.519,1.979-0.714c0.107-0.194-0.318-0.662-0.958-1.033
			c-0.391-0.227-0.78-0.41-1.15-0.41c-0.031,0-0.07,0-0.102,0.011c-0.617,0.059-1.601,1.113-1.596,1.716
			c0,0.399,0.236,0.805,0.532,1.202c0.134,0.18,0.252,0.263,0.37,0.263C96.321,147.438,96.581,147.019,96.978,146.404z"/>
		<path style="fill:#1D1D1B;" d="M159.121,144.247c-0.374,0-0.756,0.199-1.146,0.441c-0.609,0.389-1.07,0.854-1.028,1.039
			c0.011,0.048,0.094,0.062,0.226,0.062c0.079,0,0.173-0.011,0.283-0.011c0.41,0,0.992,0.054,1.455,0.493
			c0.582,0.563,0.761,1.114,1.022,1.114c0.089,0,0.189-0.068,0.32-0.221c0.353-0.41,0.6-0.829,0.578-1.244
			c-0.022-0.613-1.009-1.633-1.628-1.675C159.173,144.247,159.142,144.247,159.121,144.247L159.121,144.247z"/>
		<path style="fill:#1D1D1B;" d="M174.375,141.307c0.094,0.11,0.189,0.163,0.268,0.163c0.221,0,0.405-0.374,0.494-1.044
			c0.099-0.684-0.551-1.083-1.554-1.083c-0.049,0-0.111,0.021-0.163,0.021c-0.314,0.01-0.651,0.041-1.023,0.132
			c-1.581,0.393-1.989,0.808-0.961,0.808c0.042,0,0.084,0,0.131,0c0.025,0,0.048,0,0.079,0c0.073,0,0.146-0.005,0.221-0.005
			c0.604,0,1.202,0.072,1.753,0.389c0.011,0,0.021,0,0.031,0.011C173.902,140.839,174.145,141.04,174.375,141.307z"/>
	</g>
</g>
<g>
</g>
<g>
</g>
<g>
</g>
<g>
</g>
<g>
</g>
<g>
</g>
<g>
</g>
<g>
</g>
<g>
</g>
<g>
</g>
<g>
</g>
<g>
</g>
<g>
</g>
<g>
</g>
<g>
</g>
</svg>
