<?xml version="1.0" encoding="iso-8859-1"?>
<!-- Generator: Adobe Illustrator 19.0.0, SVG Export Plug-In . SVG Version: 6.00 Build 0)  -->
<svg version="1.1" id="Capa_1" xmlns="http://www.w3.org/2000/svg" xmlns:xlink="http://www.w3.org/1999/xlink" x="0px" y="0px"
	 viewBox="0 0 508.215 508.215" style="enable-background:new 0 0 508.215 508.215;" xml:space="preserve">
<g>
	<g>
		<g>
			<path d="M290.679,19.359v126.926H418.38C413.097,45.539,321.306,23.797,290.679,19.359z"/>
			<rect x="135.25" y="219.429" width="82.286" height="36.571"/>
			<polygon points="235.822,489.929 254.107,508.215 272.393,489.929 272.393,219.429 235.822,219.429 			"/>
			<rect x="290.679" y="219.429" width="82.286" height="36.571"/>
			<path d="M281.536,164.571c-2.425,0.001-4.752-0.961-6.466-2.676s-2.678-4.041-2.676-6.466V0h-36.571v155.429
				c0.001,2.425-0.961,4.752-2.676,6.466c-1.715,1.715-4.041,2.678-6.466,2.676H71.25v36.571h365.714v-36.571H281.536z"/>
			<path d="M217.536,19.383C186.9,23.89,95.131,45.801,89.836,146.286h127.7V19.383z"/>
			<path d="M391.25,256c-0.013,10.094-8.192,18.273-18.286,18.286h-82.286v203.801l128-71.998V219.429H391.25V256z M324.599,417.891
				c-0.874,0.827-1.898,1.479-3.018,1.92c-1.085,0.51-2.275,0.761-3.474,0.732c-2.432,0.024-4.771-0.932-6.491-2.652
				c-1.72-1.72-2.675-4.059-2.652-6.491c0.036-2.42,0.982-4.738,2.651-6.491c0.875-0.825,1.899-1.477,3.018-1.92
				c3.404-1.438,7.338-0.679,9.964,1.92c1.672,1.751,2.62,4.07,2.651,6.491C327.274,413.832,326.319,416.171,324.599,417.891z
				 M324.599,381.328L324.599,381.328c-0.874,0.827-1.898,1.479-3.018,1.92c-1.085,0.51-2.275,0.761-3.474,0.732
				c-2.432,0.024-4.771-0.932-6.491-2.652c-1.72-1.72-2.675-4.059-2.652-6.491c0.036-2.42,0.982-4.738,2.651-6.491
				c0.875-0.825,1.899-1.477,3.018-1.92c3.404-1.438,7.338-0.679,9.964,1.92c1.672,1.751,2.62,4.07,2.651,6.491
				C327.274,377.269,326.319,379.609,324.599,381.328z M324.599,344.768L324.599,344.768c-0.874,0.827-1.898,1.479-3.018,1.92
				c-1.085,0.51-2.275,0.761-3.474,0.731c-2.432,0.024-4.771-0.932-6.491-2.652c-1.72-1.72-2.675-4.059-2.652-6.491
				c0.036-2.42,0.983-4.738,2.651-6.491c0.875-0.825,1.899-1.477,3.018-1.92c3.404-1.438,7.338-0.679,9.964,1.92
				c1.672,1.751,2.62,4.07,2.651,6.491C327.275,340.709,326.319,343.049,324.599,344.768z M324.599,308.206L324.599,308.206
				c-0.874,0.827-1.898,1.479-3.018,1.92c-1.085,0.51-2.275,0.761-3.474,0.731c-2.432,0.024-4.771-0.932-6.491-2.652
				c-1.72-1.72-2.675-4.059-2.652-6.491c0.036-2.42,0.982-4.738,2.651-6.491c0.875-0.825,1.899-1.477,3.018-1.92
				c3.404-1.438,7.338-0.679,9.964,1.92c1.673,1.751,2.62,4.07,2.652,6.491C327.275,304.147,326.319,306.486,324.599,308.206z
				 M361.17,417.891L361.17,417.891c-0.874,0.828-1.898,1.479-3.018,1.92c-1.085,0.51-2.275,0.761-3.474,0.731
				c-2.432,0.024-4.771-0.932-6.491-2.652c-1.72-1.72-2.675-4.059-2.652-6.491c0.036-2.42,0.982-4.738,2.651-6.491
				c0.875-0.825,1.899-1.477,3.018-1.92c3.404-1.438,7.338-0.679,9.964,1.92c1.672,1.751,2.62,4.07,2.651,6.491
				C363.846,413.832,362.891,416.171,361.17,417.891z M361.17,381.328L361.17,381.328c-0.874,0.828-1.898,1.48-3.018,1.921
				c-1.085,0.51-2.275,0.76-3.474,0.731c-2.432,0.024-4.771-0.932-6.491-2.652c-1.72-1.72-2.675-4.059-2.652-6.491
				c0.036-2.42,0.983-4.738,2.651-6.491c0.875-0.825,1.899-1.477,3.018-1.92c3.404-1.438,7.338-0.679,9.964,1.92
				c1.672,1.751,2.62,4.07,2.651,6.491C363.846,377.269,362.891,379.609,361.17,381.328z M361.17,344.768L361.17,344.768
				c-0.874,0.828-1.898,1.479-3.018,1.921c-1.085,0.51-2.275,0.76-3.474,0.731c-2.432,0.024-4.771-0.932-6.491-2.652
				s-2.675-4.059-2.652-6.491c0.036-2.42,0.983-4.738,2.651-6.491c0.875-0.825,1.899-1.477,3.018-1.92
				c3.404-1.438,7.338-0.679,9.964,1.92c1.672,1.751,2.62,4.07,2.651,6.491C363.846,340.709,362.891,343.049,361.17,344.768z
				 M361.17,308.206L361.17,308.206c-0.874,0.828-1.898,1.479-3.018,1.921c-1.085,0.51-2.275,0.76-3.474,0.731
				c-2.432,0.024-4.771-0.932-6.491-2.652c-1.72-1.72-2.675-4.059-2.652-6.491c0.036-2.42,0.982-4.738,2.651-6.491
				c0.875-0.825,1.899-1.477,3.018-1.92c3.404-1.438,7.338-0.679,9.964,1.92c1.673,1.751,2.62,4.07,2.652,6.491
				C363.847,304.147,362.891,306.486,361.17,308.206z M397.742,381.328L397.742,381.328c-0.874,0.828-1.898,1.48-3.018,1.921
				c-1.085,0.51-2.275,0.76-3.474,0.731c-2.432,0.024-4.771-0.932-6.491-2.652c-1.72-1.72-2.675-4.059-2.652-6.491
				c0.036-2.42,0.983-4.738,2.651-6.491c0.875-0.825,1.899-1.477,3.018-1.92c3.404-1.438,7.338-0.679,9.964,1.92
				c1.672,1.751,2.62,4.07,2.651,6.491C400.417,377.269,399.462,379.609,397.742,381.328z M397.742,344.768L397.742,344.768
				c-0.874,0.828-1.898,1.48-3.018,1.921c-1.085,0.51-2.275,0.76-3.474,0.731c-2.432,0.024-4.771-0.932-6.491-2.652
				s-2.675-4.059-2.652-6.491c0.036-2.42,0.983-4.738,2.651-6.491c0.875-0.825,1.899-1.477,3.018-1.92
				c3.404-1.438,7.338-0.679,9.964,1.92c1.672,1.751,2.62,4.07,2.651,6.491C400.417,340.709,399.462,343.049,397.742,344.768z
				 M397.741,295.223c1.673,1.751,2.62,4.07,2.652,6.491c0.025,2.432-0.931,4.772-2.651,6.491c-0.874,0.827-1.898,1.479-3.018,1.92
				c-1.085,0.51-2.275,0.761-3.474,0.731c-2.432,0.024-4.771-0.932-6.491-2.652c-1.72-1.72-2.675-4.059-2.652-6.491
				c0.036-2.42,0.982-4.738,2.651-6.491c0.875-0.825,1.899-1.477,3.018-1.92C391.18,291.865,395.115,292.623,397.741,295.223z"/>
			<path d="M116.965,256v-36.571H89.536V406.08l128,72.004V274.286H135.25C125.157,274.273,116.978,266.094,116.965,256z
				 M123.456,381.328c-1.722,1.717-4.06,2.672-6.491,2.651c-1.199,0.029-2.388-0.222-3.473-0.732
				c-1.12-0.441-2.144-1.093-3.018-1.92c-1.721-1.719-2.676-4.059-2.651-6.491c0.032-2.421,0.979-4.74,2.651-6.491
				c2.626-2.599,6.561-3.358,9.964-1.92c1.118,0.443,2.143,1.095,3.018,1.92c1.669,1.753,2.616,4.071,2.651,6.491
				C126.128,377.268,125.173,379.606,123.456,381.328z M123.456,344.768L123.456,344.768c-1.722,1.717-4.06,2.672-6.491,2.651
				c-1.199,0.029-2.388-0.222-3.473-0.732c-1.12-0.441-2.144-1.093-3.018-1.92c-1.721-1.719-2.676-4.059-2.651-6.491
				c0.032-2.421,0.979-4.74,2.651-6.491c2.626-2.599,6.561-3.358,9.964-1.92c1.118,0.443,2.143,1.095,3.018,1.92
				c1.669,1.753,2.616,4.071,2.651,6.491C126.128,340.707,125.173,343.046,123.456,344.768z M123.456,308.206L123.456,308.206
				c-1.722,1.717-4.06,2.672-6.491,2.651c-1.199,0.029-2.388-0.222-3.473-0.732c-1.12-0.441-2.144-1.093-3.018-1.92
				c-1.721-1.719-2.676-4.059-2.652-6.491c0.032-2.421,0.979-4.74,2.651-6.491c2.626-2.599,6.561-3.358,9.964-1.92
				c1.118,0.443,2.143,1.095,3.018,1.92c1.669,1.753,2.616,4.071,2.652,6.491C126.128,304.146,125.173,306.484,123.456,308.206z
				 M183.616,295.223c2.626-2.599,6.561-3.358,9.964-1.92c1.118,0.443,2.143,1.095,3.018,1.92c1.669,1.753,2.616,4.071,2.652,6.491
				c0.024,2.432-0.932,4.771-2.652,6.491c-1.72,1.72-4.059,2.675-6.491,2.652c-1.199,0.029-2.388-0.222-3.473-0.732
				c-1.12-0.441-2.144-1.093-3.018-1.92c-1.721-1.719-2.676-4.059-2.652-6.491C180.996,299.293,181.944,296.974,183.616,295.223z
				 M183.616,331.786L183.616,331.786c2.626-2.6,6.561-3.358,9.964-1.921c1.118,0.443,2.142,1.095,3.018,1.92
				c1.669,1.753,2.616,4.071,2.651,6.491c0.024,2.432-0.932,4.771-2.652,6.491c-1.72,1.72-4.059,2.675-6.491,2.652
				c-1.199,0.029-2.388-0.222-3.473-0.732c-1.12-0.441-2.144-1.093-3.018-1.92c-1.721-1.719-2.676-4.059-2.651-6.491
				C180.996,335.855,181.944,333.536,183.616,331.786z M183.616,368.346L183.616,368.346c2.626-2.6,6.561-3.358,9.964-1.921
				c1.118,0.443,2.142,1.095,3.018,1.92c1.669,1.753,2.616,4.071,2.651,6.491c0.024,2.432-0.932,4.771-2.652,6.491
				c-1.72,1.72-4.059,2.675-6.491,2.652c-1.199,0.029-2.388-0.222-3.473-0.732c-1.12-0.441-2.144-1.093-3.018-1.92
				c-1.721-1.719-2.676-4.059-2.651-6.491C180.996,372.415,181.944,370.097,183.616,368.346z M183.616,404.909L183.616,404.909
				c2.626-2.6,6.561-3.358,9.964-1.921c1.118,0.443,2.142,1.095,3.018,1.92c1.669,1.753,2.616,4.071,2.651,6.491
				c0.024,2.432-0.932,4.771-2.652,6.491c-1.72,1.72-4.059,2.675-6.491,2.652c-1.199,0.029-2.388-0.222-3.473-0.732
				c-1.119-0.441-2.144-1.093-3.018-1.92c-1.721-1.719-2.676-4.059-2.651-6.491C180.996,408.978,181.944,406.659,183.616,404.909z
				 M147.045,295.223c2.626-2.599,6.561-3.358,9.964-1.92c1.118,0.443,2.143,1.095,3.018,1.92c1.669,1.753,2.616,4.071,2.652,6.491
				c0.024,2.432-0.932,4.771-2.652,6.491c-1.72,1.72-4.059,2.675-6.491,2.652c-1.199,0.029-2.388-0.222-3.473-0.732
				c-1.12-0.441-2.144-1.093-3.018-1.92c-1.721-1.719-2.676-4.059-2.652-6.491C144.425,299.293,145.372,296.974,147.045,295.223z
				 M147.045,331.786L147.045,331.786c2.626-2.6,6.561-3.358,9.964-1.921c1.118,0.443,2.143,1.095,3.018,1.92
				c1.669,1.753,2.616,4.071,2.651,6.491c0.024,2.432-0.932,4.771-2.652,6.491c-1.72,1.72-4.059,2.675-6.491,2.652
				c-1.199,0.029-2.388-0.222-3.473-0.732c-1.12-0.441-2.144-1.093-3.018-1.92c-1.721-1.719-2.676-4.059-2.651-6.491
				C144.425,335.855,145.372,333.536,147.045,331.786z M147.045,368.346L147.045,368.346c2.626-2.6,6.561-3.358,9.964-1.921
				c1.118,0.443,2.143,1.095,3.018,1.92c1.669,1.753,2.616,4.071,2.651,6.491c0.024,2.432-0.932,4.771-2.652,6.491
				c-1.72,1.72-4.059,2.675-6.491,2.652c-1.199,0.029-2.388-0.222-3.473-0.732c-1.12-0.441-2.144-1.093-3.018-1.92
				c-1.721-1.719-2.676-4.059-2.651-6.491C144.425,372.415,145.372,370.097,147.045,368.346z M147.045,404.909L147.045,404.909
				c2.626-2.6,6.561-3.358,9.964-1.921c1.118,0.443,2.143,1.095,3.018,1.92c1.669,1.753,2.616,4.071,2.651,6.491
				c0.024,2.432-0.932,4.771-2.652,6.491c-1.72,1.72-4.059,2.675-6.491,2.652c-1.199,0.029-2.388-0.222-3.473-0.732
				c-1.12-0.441-2.144-1.093-3.018-1.92c-1.721-1.719-2.676-4.059-2.651-6.491C144.425,408.978,145.372,406.659,147.045,404.909z"/>
		</g>
	</g>
</g>
<g>
</g>
<g>
</g>
<g>
</g>
<g>
</g>
<g>
</g>
<g>
</g>
<g>
</g>
<g>
</g>
<g>
</g>
<g>
</g>
<g>
</g>
<g>
</g>
<g>
</g>
<g>
</g>
<g>
</g>
</svg>
