<?xml version="1.0" encoding="iso-8859-1"?>
<!-- Generator: Adobe Illustrator 19.0.0, SVG Export Plug-In . SVG Version: 6.00 Build 0)  -->
<svg version="1.1" id="Capa_1" xmlns="http://www.w3.org/2000/svg" xmlns:xlink="http://www.w3.org/1999/xlink" x="0px" y="0px"
	 viewBox="0 0 512 512" style="enable-background:new 0 0 512 512;" xml:space="preserve">
<g>
	<g>
		<path d="M498.814,13.181c-17.549-17.549-46.085-17.549-63.663,0c-4.911,4.922-8.095,10.193-10.252,16.356
			c-0.119-0.002-0.227-0.066-0.346-0.066H323.451c-22.5,0-41.701,17.081-44.701,39.282l-14.577,102.79
			c-14.421-3.069-29.941,0.167-41.136,11.343c-13.79,13.79-16.34,34.198-8.459,50.897l-72.287,72.287l63.634,63.634l72.287-72.287
			c19.21,9.056,38.349,4.081,50.912-8.459c11.118-11.146,14.365-26.581,11.367-40.949l102.962-14.852
			c21.899-3.001,39.001-22.202,39.001-44.402V87.353c0-0.084-0.046-0.165-0.048-0.249c6.191-2.159,11.471-5.345,16.407-10.274
			C516.359,59.285,516.432,30.798,498.814,13.181z M307.897,267.747c-5.859,5.845-15.366,5.874-21.226,0l-42.423-42.423
			c-5.845-5.859-5.845-15.366,0-21.211c5.83-5.859,15.366-5.859,21.211-0.015c0,0,42.08,42.249,42.39,42.558
			c0.066,0.06,0.152,0.079,0.22,0.137C313.686,252.654,313.665,261.978,307.897,267.747z M326.75,95.454l-28.201,45.602
			l9.901-68.102c0.899-7.5,7.5-13.481,15-13.481h51.6L341.45,80.453C335.449,84.053,330.35,89.453,326.75,95.454z M452.453,188.755
			c0,7.5-6.001,13.801-13.201,14.7l-67.801,9.6l45.301-27.599c6-3.9,11.1-9,14.7-15l21.001-33.601V188.755z M477.602,55.59
			c0,0.015,0,0.015,0,0.015c-5.836,5.836-15.278,5.843-21.143,0.055l-0.106-0.106c0,0-0.016-0.013-0.024-0.02
			c-5.782-5.848-5.775-15.317,0.048-21.14c5.872-5.872,15.377-5.848,21.226,0C483.49,40.309,483.447,49.774,477.602,55.59z"/>
	</g>
</g>
<g>
	<g>
		<path d="M121.078,327.283l-69.852,69.852h-6.225C20.186,397.135,0,417.32,0,442.136v24.844c0,24.814,20.186,45.001,45.001,45.001
			h24.858c24.814,0,45.001-20.186,45.001-45.001v-6.211l69.852-69.852L121.078,327.283z M84.961,466.98c0,8.276-6.824,15-15.1,15
			H45.001c-8.276,0-15.055-6.724-15.055-15v-24.844c0-8.276,6.779-15.2,15.055-15.2h6.226l33.734,33.834V466.98z"/>
	</g>
</g>
<g>
</g>
<g>
</g>
<g>
</g>
<g>
</g>
<g>
</g>
<g>
</g>
<g>
</g>
<g>
</g>
<g>
</g>
<g>
</g>
<g>
</g>
<g>
</g>
<g>
</g>
<g>
</g>
<g>
</g>
</svg>
