<svg height="512" viewBox="0 0 56 47" width="512" xmlns="http://www.w3.org/2000/svg"><path id="Shape" d="m50 6.08c-.6149687 1.44904947-1.4442307 2.79744292-2.46 4-1.9850998.2886483-3.4493991 2.0029933-3.4241051 4.0088096.025294 2.0058164 1.5323578 3.6826915 3.5241051 3.9211904h-5l-3.42-6c2.08-3.49 3.37-7.64 2.42-11.59 3.2399364 1.11061769 6.1255371 3.06426604 8.36 5.66zm-2 9.92c-1.1045695 0-2-.8954305-2-2s.8954305-2 2-2 2 .8954305 2 2-.8954305 2-2 2zm-7.25 9-1.75-1.23c.6490162-.4007371 1.1210159-1.0336458 1.32-1.77l.77-2.7c.2938683.327484.6875301.5489188 1.12.63-.0554243 1.7854393-.5573785 3.5285268-1.46 5.07zm-7.84-2.11c-.3283598.0493436-.6616872-.0495557-.91-.27l-3-3v-6.9l4.53-1.51c.52-.17.53-.06 3.75 1.55l2.4 4.2-1.29 4.52c-.1100909.3772234-.4309076.6550037-.82.71-4.84.7-4.57.67-4.66.67zm1.16 17.8-1.07-1.09c.0137274-1.8713827.1272218-3.7407026.34-5.6h2.66v5.12zm-18.82-15.69c-.8914828-1.5207929-1.3930378-3.2384471-1.46-5 .4324699-.0810812.8261317-.302516 1.12-.63l.77 2.7c.2145842.7104292.6848758 1.3161077 1.32 1.7zm3.18-2.78c-.3890924-.0549963-.7099091-.3327766-.82-.71l-1.29-4.51 2.4-4.2c3.28-1.67 3.28-1.8 3.75-1.59l4.53 1.51v6.87l-3 3c-.2385696.237402-.5805581.3388711-.91.27-.09 0 .1.01-4.66-.67zm12.15 1.78c.4688635.4622575 1.0767793.7574305 1.73.84.08.29.16.57.26.84-1.4079537.770167-2.968233 1.2208385-4.57 1.32-1.6022191-.0965454-3.1630588-.5473788-4.57-1.32.1-.28.19-.56.26-.84.6532207-.0825695 1.2611365-.3777425 1.73-.84l2.58-2.59zm-8.79 4.8c.2.86.42 1.93.62 3.2h-2.41c.0020419-.3364611-.0348705-.6720277-.11-1 .7016321-.6714541 1.3378285-1.4081026 1.9-2.2zm-1.79 5.2h2.67c.2092331 1.8561473.3193893 3.7221272.33 5.59l-1.06 1.07-1.94-1.54zm5 5.38c-.0072698-3.8328441-.4603137-7.6518362-1.35-11.38 1.3774385.5941293 2.8513896.9329687 4.35 1 1.4986104-.0670313 2.9725615-.4058707 4.35-1-.8868489 3.7286683-1.3398535 7.5473292-1.35 11.38l-2.56 1.28c-.2830476.1426286-.6169524.1426286-.9 0zm11-7.38h-2.41c.2-1.27.42-2.34.62-3.2.5621715.7918974 1.1983679 1.5285459 1.9 2.2-.0751295.3279723-.1120419.6635389-.11 1zm-15.4-31.87 5 7.53c.5039463.82006008 1.3974719 1.31972416 2.36 1.31972416s1.8560537-.49966408 2.36-1.31972416l5-7.57c1.6197742.90529074 3.1240425 2.00327231 4.48 3.27-.1348523 2.58164426-.9153519 5.08818241-2.27 7.29l-2.42-1.21c-.7105799-.35812578-1.534329-.41927746-2.29-.17l-4.82 1.73-4.9-1.64c-.755671-.24927746-1.5794201-.18812578-2.29.17l-2.42 1.21c-1.3558249-2.20128241-2.1364202-4.70812824-2.27-7.29 1.3531609-1.28426201 2.8575472-2.39911973 4.48-3.32zm-6.18.3c-1 4 .34 8.1 2.42 11.59l-3.42 6h-5.05c2.0711922-.1923198 3.6493102-1.9399877 3.63-4.02-.0100002-2.0120711-1.5130551-3.7035431-3.51-3.95-1.01466816-1.20335353-1.84382373-2.55157396-2.46-4 2.24768226-2.58547895 5.1436898-4.52535528 8.39-5.62zm-6.42 11.57c1.1045695 0 2 .8954305 2 2s-.8954305 2-2 2-2-.8954305-2-2 .8954305-2 2-2zm-7.32 4.63c-.39771293-.1669016-.64360102-.5699969-.61-1 .48808323-3.5955336 1.69907639-7.05502806 3.56-10.17.60868078 1.7886224 1.48533233 3.47449078 2.6 5-1.36318482.6746328-2.225803 2.0640128-2.225803 3.585s.86261818 2.9103672 2.225803 3.585l-.69 1.14zm15.65 10 3.38-2.25 2 .28c-.5926473 1.7806902-1.6244048 3.3833535-3 4.66-.8740648-.8146117-1.670801-1.7084292-2.38-2.67zm23.47 16c0 .1.07 0-4.59 3.83-.82-1.25-1.1-1.88-2.11-2.06-.5454221-.090744-1.1043731.042683-1.55.37l-2.35 1.83c-.7111111.5333333-1.6888889.5333333-2.4 0l-2.36-1.77c-.4406781-.3275463-.9966376-.4595131-1.5375096-.364955-.540872.094558-1.0190811.4073235-1.3224904.864955l-.79 1.19-4.59-3.82 1.23-3.08 3.25 2.6c.7932884.6364579 1.9379049.576215 2.66-.14l.86-.86 2.46 1.23c.8436856.4211982 1.8363144.4211982 2.68 0l2.46-1.23.86.85c.7208199.7251336 1.8724965.7898345 2.67.15l3.24-2.6zm-2.49-13.29c-1.3749315-1.2772023-2.406572-2.8796838-3-4.66l2-.28 3.38 2.25c-.7110502.966232-1.5075948 1.8665282-2.38 2.69zm18-12.71-4.91 2.11-.69-1.14c1.3679525-.6650742 2.2403182-2.0484564 2.250925-3.5694775.0106069-1.5210211-.8423809-2.9164351-2.200925-3.6005225 1.1138802-1.52599763 1.9904671-3.21174177 2.6-5 1.8583923 3.10892709 3.0692986 6.5613705 3.56 10.15.0582684.4449829-.1870477.8742861-.6 1.05z"/></svg>