<svg height="464pt" viewBox="-44 0 464 464" width="464pt" xmlns="http://www.w3.org/2000/svg"><path d="m246.9375 96h-17.664062l-17.632813 41.144531c8.398437 2.09375 18.222656 3.933594 29.503906 5.183594zm0 0"/><path d="m247.167969 159.007812c-5.742188-.464843-11.105469-1.105468-16.222657-1.832031l-13.015624 52.0625c7.054687 1.832031 14.789062 3.417969 23.140624 4.59375zm0 0"/><path d="m177.9375 124.6875c3.847656 2.082031 9.933594 4.96875 18.253906 7.871094l15.679688-36.558594h-22.457032zm0 0"/><path d="m347.832031 132.640625c8.34375-2.914063 14.414063-5.816406 18.238281-7.914063l-11.484374-28.726562h-22.457032zm0 0"/><path d="m362.984375 32.3125c-.511719-.128906-1-.3125-1.535156-.3125h-4.539063c-29.269531 0-58.671875 2.910156-87.375 8.65625-23.445312 4.6875-46.679687 11.320312-69.054687 19.710938l-16.449219 6.167968 5.382812 13.464844h164.027344zm-122.984375 39.6875h-16v-16h16zm40 0h-16v-16h16zm40 0h-16v-16h16zm0 0"/><path d="m272 216c5.191406 0 10.152344-.222656 15-.542969l-6.183594-55.640625c-2.90625.078125-5.777344.183594-8.816406.183594s-5.910156-.105469-8.816406-.183594l-6.183594 55.640625c4.847656.320313 9.808594.542969 15 .542969zm0 0"/><path d="m286.886719 143.609375-5.949219-47.609375h-17.882812l-5.949219 47.601562c4.773437.238282 9.695312.398438 14.894531.398438s10.121094-.160156 14.886719-.390625zm0 0"/><path d="m178.078125 51.679688 16.769531-6.289063c23.175782-8.695313 47.25-15.566406 71.535156-20.421875 29.746094-5.953125 60.191407-8.96875 90.519532-8.96875h4.539062c1.597656 0 3.167969.175781 4.695313.503906l1.726562-8.65625c.097657-.421875.136719-.855468.136719-1.289062 0-3.613282-2.9375-6.558594-6.550781-6.558594h-4.539063c-29.269531 0-58.671875 2.910156-87.375 8.65625-23.445312 4.6875-46.679687 11.320312-69.054687 19.710938l-17.9375 6.730468c-3.917969 1.460938-6.542969 5.246094-6.542969 9.421875 0 1.289063.238281 2.550781.71875 3.746094zm0 0"/><path d="m364.503906 330.808594c-8.296875-22.128906-12.503906-45.335938-12.503906-68.984375v-43.992188c-19.488281 7.441407-46.3125 14.167969-80 14.167969s-60.511719-6.726562-80-14.167969v5.703125c0 22.738282-6.367188 44.953125-18.425781 64.234375-15.742188 25.175781-40.09375 43.664063-68.574219 52.039063l-71.777344 21.101562c-10.132812 2.992188-17.222656 12.457032-17.222656 23.035156v40.054688h164.6875l24-24h171.3125v-5.824219c0-21.71875-3.863281-43.039062-11.496094-63.367187zm0 0"/><path d="m192 200v.496094c3.257812 1.375 6.800781 2.742187 10.617188 4.078125l12.535156-50.140625c-10.769532-2.28125-19.710938-5-27.039063-7.714844l-18.175781 42.417969c4.277344 2.71875 11.351562 6.75 20.917969 10.863281zm0 0"/><path d="m187.3125 440h-187.3125v24h196.6875l24-24h31.59375l16 24h11.71875v-24h16v24h16v-24h16v24h16v-24h16v24h8c4.414062 0 8-3.59375 8-8v-40h-164.6875zm0 0"/><path d="m314.726562 96h-17.664062l5.792969 46.351562c11.320312-1.230468 21.144531-3.0625 29.527343-5.144531zm0 0"/><path d="m352 200.488281v-.488281h1.144531c9.566407-4.121094 16.640625-8.144531 20.925781-10.863281l-18.175781-42.417969c-7.328125 2.714844-16.269531 5.433594-27.039062 7.714844l12.535156 50.132812c3.808594-1.335937 7.351563-2.703125 10.609375-4.078125zm0 0"/><path d="m302.921875 213.824219c8.351563-1.175781 16.085937-2.761719 23.140625-4.59375l-13.015625-52.0625c-5.117187.726562-10.480469 1.367187-16.222656 1.832031zm0 0"/></svg>