<svg id="_x33_0" enable-background="new 0 0 64 64" height="512" viewBox="0 0 64 64" width="512" xmlns="http://www.w3.org/2000/svg"><g><path d="m9.264 47.827.726-5.807-.211-1.268-6.681-1.485c.273 1.821 1.117 3.504 2.44 4.832z"/><path d="m11.791 40.661 3.64-1.285-3.25-5.2c-.643 1.948-.802 4.016-.459 6.07z"/><path d="m6.379 54.671h2.243v3.657h-2.243z" transform="matrix(.707 -.707 .707 .707 -37.755 21.852)"/><path d="m3.414 58c-.263.263-.414.628-.414 1s.151.737.414 1l.586.586c.526.526 1.474.526 2 0l.586-.586-2.586-2.586z"/><path d="m11.72 44.305 7.975 7.975 1.568-.196 5.099-14.446-14.446 5.099zm7.28-1.305c1.105 0 2 .895 2 2s-.895 2-2 2-2-.895-2-2 .895-2 2-2z"/><path d="m27.453 35.133 20.547-20.547v-6.272l-31.245 29.407.608.973z"/><path d="m50 6.738v5.848l8.446-8.446z"/><path d="m23.339 52.209.414.069c2.056.343 4.123.184 6.071-.459l-5.2-3.25z"/><path d="m28.867 36.547-3.561 10.09.973.608 29.407-31.245h-6.272z"/><path d="m51.414 14h5.848l2.598-8.446z"/><path d="m11.405 46.819-.35 2.799 3.327 3.327 2.799-.35z"/><path d="m21.98 54.01-5.806.726 3.728 3.728c1.327 1.322 3.009 2.165 4.831 2.438l-1.485-6.681z"/><path d="m9.376 51.666h2.259v3.657h-2.259z" transform="matrix(.707 -.707 .707 .707 -34.749 23.097)"/></g></svg>