<?xml version="1.0" encoding="iso-8859-1"?>
<!-- Generator: Adobe Illustrator 19.0.0, SVG Export Plug-In . SVG Version: 6.00 Build 0)  -->
<svg version="1.1" id="Capa_1" xmlns="http://www.w3.org/2000/svg" xmlns:xlink="http://www.w3.org/1999/xlink" x="0px" y="0px"
	 viewBox="0 0 512 512" style="enable-background:new 0 0 512 512;" xml:space="preserve">
<g>
	<g>
		<path d="M481,286.001c0-7.954-1.631-15.516-4.453-22.469C498.741,238.561,512,210.355,512,181.001c0-90.981-115.39-165-256-165
			S0,90.02,0,181.001c0,29.39,13.275,57.621,35.506,82.595c-2.805,6.936-4.433,14.474-4.433,22.405l-0.029,7.617
			c-0.205,29.517-0.469,69.946,23.774,118.418l7.837,15.674c2.578,5.171,7.837,8.291,13.418,8.291c1.143,0,2.3-0.132,3.442-0.396
			c6.768-1.597,11.558-7.646,11.558-14.604c0-33.955,14.326-66.621,40.649-90.864c1.32-1.216,2.329-2.682,3.525-4.003
			c14.855,5.138,30.377,9.276,46.47,12.413c0.707,7.033,2.058,13.953,4.702,20.491l0.178,0.408c0.009,0.02,0.004,0.04,0.004,0.04
			l55.644,127.52c0.104,0.24,0.366,0.331,0.482,0.564c1.016,2.054,2.538,3.763,4.426,5.191c0.536,0.401,0.992,0.78,1.573,1.104
			c0.458,0.262,0.775,0.674,1.269,0.89c1.963,0.85,3.999,1.245,5.991,1.245l0.015-0.004l0.015,0.004
			c1.992,0,4.028-0.396,5.991-1.245c0.494-0.216,0.811-0.628,1.269-0.89c0.58-0.324,1.036-0.703,1.573-1.104
			c1.888-1.428,3.409-3.137,4.426-5.191c0.115-0.233,0.377-0.324,0.482-0.564l55.635-127.5c0.013-0.027,0.007-0.057,0.018-0.084
			l0.128-0.297c2.677-6.605,4.034-13.537,4.742-20.577c16.19-3.155,31.776-7.311,46.666-12.479c1.571,1.778,2.95,3.651,4.753,5.312
			C406.674,354.379,421,387.046,421,421.001c0,6.958,4.79,13.008,11.558,14.604c1.143,0.264,2.3,0.396,3.442,0.396
			c5.581,0,10.84-3.12,13.418-8.291l7.837-15.674c24.243-48.472,23.979-88.901,23.774-118.418L481,286.001z M421,226.001
			c-33.091,0-60,26.909-60,60c0,4.479,0.593,8.893,1.599,13.228c-11.377,3.744-23.171,6.862-35.404,9.351
			c-9.6-30.361-37.703-52.579-71.195-52.579s-61.593,22.218-71.193,52.577c-12.184-2.481-23.952-5.59-35.319-9.318
			c0.989-4.33,1.586-8.758,1.586-13.259c0-33.091-26.909-60-60-60c-14.097,0-26.902,5.085-37.152,13.251
			C39.137,221.024,30,201.188,30,181.001c0-74.443,101.928-135,226-135s226,60.557,226,135c0,20.176-9.126,40.001-23.89,58.217
			C447.865,231.073,435.077,226.001,421,226.001z"/>
	</g>
</g>
<g>
</g>
<g>
</g>
<g>
</g>
<g>
</g>
<g>
</g>
<g>
</g>
<g>
</g>
<g>
</g>
<g>
</g>
<g>
</g>
<g>
</g>
<g>
</g>
<g>
</g>
<g>
</g>
<g>
</g>
</svg>
