<?xml version="1.0" encoding="iso-8859-1"?>
<!-- Generator: Adobe Illustrator 16.0.0, SVG Export Plug-In . SVG Version: 6.00 Build 0)  -->
<!DOCTYPE svg PUBLIC "-//W3C//DTD SVG 1.1//EN" "http://www.w3.org/Graphics/SVG/1.1/DTD/svg11.dtd">
<svg version="1.1" id="Capa_1" xmlns="http://www.w3.org/2000/svg" xmlns:xlink="http://www.w3.org/1999/xlink" x="0px" y="0px"
	 width="346.584px" height="346.584px" viewBox="0 0 346.584 346.584" style="enable-background:new 0 0 346.584 346.584;"
	 xml:space="preserve">
<g>
	<g>
		<path d="M297.551,58.943c-11.271-14.171-24.932-26.349-40.406-35.878C243.7,37.626,222.87,48.417,198.388,52.887
			c-8.035,1.469-16.417,2.33-25.098,2.33c-8.68,0-17.062-0.861-25.1-2.33c-23.458-4.284-43.583-14.369-57.049-28.021
			C76.644,34.23,63.805,45.924,53.15,59.441C40.648,40.208,2.803,32.222,17.565,6.143c-39.625,46.141,2.147,84.542,2.147,136.918
			c0,2.141,0.072,4.26,0.159,6.383c-0.087,2.119-0.159,4.242-0.159,6.38h0.564c1.72,21.197,7.668,41.181,17.021,59.129v52.038
			h43.042v30.744h44.105l48.846,48.849l48.847-48.849h44.104v-27.994c1.262-0.907,2.511-1.813,3.747-2.75h45.444v-24.596v-30.643
			c8.419-17.107,13.763-35.987,15.378-55.929h0.571c0-2.138-0.078-4.261-0.162-6.38c0.084-2.123,0.162-4.243,0.162-6.383
			c0-52.377,35.62-96.926-4.006-143.061C342.113,26.04,308.702,38.37,297.551,58.943z"/>
	</g>
</g>
<g>
</g>
<g>
</g>
<g>
</g>
<g>
</g>
<g>
</g>
<g>
</g>
<g>
</g>
<g>
</g>
<g>
</g>
<g>
</g>
<g>
</g>
<g>
</g>
<g>
</g>
<g>
</g>
<g>
</g>
</svg>
