<svg height="502pt" viewBox="0 -6 502.36343 502" width="502pt" xmlns="http://www.w3.org/2000/svg"><path d="m175.230469 236.570312c-15.910157-1.945312-31.519531-5.867187-46.460938-11.675781 6.601563 19.335938 19.589844 51.027344 38.28125 67.382813 5.835938 5.757812 10.414063 12.664062 13.449219 20.277344 7.988281-7.210938 11.109375-18.378907 8.007812-28.6875-4.070312-12-5.601562-24.710938-4.5-37.332032.289063-5.160156-3.617187-9.597656-8.777343-9.964844zm0 0"/><path d="m321.863281 312.554688c3.03125-7.617188 7.601563-14.523438 13.433594-20.285157 18.6875-16.347656 31.679687-48.039062 38.28125-67.375-14.960937 5.808594-30.582031 9.734375-46.511719 11.683594-5.140625.390625-9.015625 4.832031-8.710937 9.976563 1.101562 12.625-.433594 25.339843-4.507813 37.339843-3.09375 10.300781.027344 21.460938 8.015625 28.660157zm0 0"/><path d="m179.28125 162.09375c4.773438.644531 8.226562 4.878906 7.898438 9.683594-.328126 4.804687-4.324219 8.527344-9.140626 8.519531-.417968 0-.835937-.027344-1.253906-.082031-11.660156-1.601563-23.210937-3.9375-34.578125-6.996094-2.804687 11.300781-7.296875 22.113281-13.320312 32.074219 15.363281 6.476562 31.519531 10.875 48.046875 13.074219 15.101562 1.238281 26.386718 14.410156 25.296875 29.523437-.902344 10.117187.296875 20.316406 3.53125 29.949219 5.828125 19.859375-1.558594 41.230468-18.40625 53.25 16.585937 53.464844 21.394531 138.167968 22.023437 150.464844.195313 4.664062 3.777344 8.488281 8.421875 8.984374l12.351563-30.847656c2.203125-5.484375 6.472656-9.882812 11.886718-12.25v-139.144531c0-5.050781 4.09375-9.144531 9.144532-9.144531 5.046875 0 9.140625 4.09375 9.140625 9.144531v139.144531c5.421875 2.386719 9.6875 6.804688 11.886719 12.304688l12.324218 30.785156c8.144532-1.929688 8.421875-7.742188 8.421875-8.519531.628907-12.636719 5.484375-97.425781 22.042969-150.921875-16.851562-12.007813-24.246094-33.367188-18.433594-53.222656 3.25-9.632813 4.457032-19.835938 3.546875-29.960938-1.097656-15.09375 10.152344-28.261719 25.234375-29.53125 16.546875-2.199219 32.726563-6.597656 48.109375-13.082031-6.023437-9.960938-10.515625-20.773438-13.320312-32.074219-11.367188 3.058594-22.914063 5.394531-34.578125 6.996094-.410156.050781-.820313.078125-1.234375.082031-4.8125.003906-8.804688-3.722656-9.132813-8.523437-.324218-4.804688 3.128906-9.035157 7.898438-9.679688 128.851562-17.71875 167.691406-112.082031 179.273437-161.910156-32.914062 35.746094-99.109375 98.511718-164.910156 106.175781-.210937 0-.382813-.054687-.585937-.046875-.199219.007812-.320313.109375-.484376.109375-.574218-.039063-1.144531-.136719-1.699218-.285156-.363282-.03125-.722656-.089844-1.078125-.171875-.867188-.296875-1.683594-.722656-2.421875-1.261719-.167969-.109375-.359375-.15625-.503906-.273437-8.988282-6.929688-34.460938-14.238282-70.355469-15.332032v91.199219c0 5.046875-4.09375 9.140625-9.140625 9.140625-5.050782 0-9.144532-4.09375-9.144532-9.140625v-91.199219c-35.867187 1.09375-61.320312 8.390625-70.328124 15.3125-.984376.789063-2.125 1.363282-3.34375 1.683594-.558594.089844-1.121094.132812-1.683594.125-.585938.109375-1.179688.152344-1.773438.140625h-.09375c-65.773437-7.726563-131.957031-70.449219-164.816406-106.175781 11.585938 49.828125 50.421875 144.191406 179.28125 161.910156zm0 0"/></svg>