<svg viewBox="0 0 512 512" xmlns="http://www.w3.org/2000/svg"><path d="m423.984375 74.351562-17.984375-17.984374-63.632812 63.632812 7.25 7.25c-19.582032 9.644531-41.050782 16.84375-64.105469 20.328125-1.292969-15.375-13.800781-27.578125-29.511719-27.578125-15.703125 0-28.210938 12.199219-29.507812 27.566406-23.023438-3.496094-44.480469-10.707031-64.058594-20.367187l7.199218-7.199219-63.632812-63.632812-17.910156 17.910156c-38.9375-36.894532-61.949219-73.566406-62.367188-74.277344l-25.722656 15.453125c1.855469 3.09375 25.921875 41.394531 66.652344 80.261719l-24.285156 24.285156 63.632812 63.632812 34.097656-34.097656c25.578125 13.710938 54.195313 24.285156 85.902344 28.4375v32.027344h-75v60h210v-60h-75v-32.027344c31.707031-4.152344 60.324219-14.726562 85.902344-28.4375l34.097656 34.097656 63.632812-63.632812-24.285156-24.285156c40.730469-38.867188 64.796875-77.167969 66.652344-80.261719l-25.722656-15.4375c-.425782.710937-23.363282 37.417969-62.292969 74.335937zm0 0"/><path d="m181 300v66.917969c0 28.535156 8.363281 57.160156 24.199219 80.921875 26.777343 40.179687 71.601562 64.160156 119.882812 64.160156h87.128907l-25.605469-25.605469c-35.859375-35.859375-55.605469-84.539062-55.605469-135.253906v-51.140625zm0 0"/></svg>