<svg id="_x33_0" enable-background="new 0 0 64 64" height="512" viewBox="0 0 64 64" width="512" xmlns="http://www.w3.org/2000/svg"><g><path d="m21.831 34.246-3.573 3.659 5.786-1.446z"/><path d="m40.433 12.339 5.184-5.308-3.617-3.617c-.535-.534-1.465-.535-2 0l-.175.174c-.524.525-.825 1.251-.825 1.993 0 .206.022.411.067.611z"/><path d="m6.532 49.447-1.529.918c-.5.3-.917.703-1.244 1.169l4.279 1.426z"/><path d="m46 20.586v-4.586h-4.586z"/><path d="m46 9.502-4.393 4.498h4.393z"/><path d="m55.316 12.376c.44-.49.684-1.123.684-1.782 0-.287-.046-.57-.137-.843l-.426-1.276c-.094-.285-.359-.475-.658-.475h-1.732c-1.028 0-1.951-.571-2.409-1.49-.269-.535-1.068-.663-1.489-.231l-.719.736 6.164 6.164z"/><path d="m48 9.414v4.586h4.586z"/><path d="m3.033 53.398c-.02.166-.033.334-.033.503v3.836c0 .889.597 1.679 1.45 1.923l1.326.379-.661-5.946z"/><path d="m48 16v4.505l4.055-4.505z"/><path d="m9.394 46.98 7.778 7.778 1.266-1.406-7.724-7.724z"/><path d="m29.096 41.51-2.429-2.429-1.049 6.293z"/><path d="m59.826 21.24-5.156-5.156-9.671 10.746c.726 3.296 2.081 6.362 4.048 9.116l1.035 1.449c.438.612 1.355.778 1.979.363 1.438-.958 2.667-2.247 3.556-3.729l.242-.403c.918-1.531 2.108-2.851 3.537-3.923 1.004-.753 1.604-1.952 1.604-3.207v-2.421c0-1.072-.417-2.078-1.174-2.835z"/><path d="m31.464 38.878-7.162-7.162-1.073 1.099 7.206 7.206z"/><path d="m39.126 16.54-1.073 1.098 6.593 6.594 1.029-1.143z"/><path d="m43.306 25.72-6.65-6.651-1.074 1.099 6.695 6.696z"/><path d="m15.595 40.631-3.483 3.567 3.138 3.138 5.043-5.043 1.414 1.414-5.043 5.043 3.114 3.113 3.352-3.725 1.633-9.799z"/><path d="m12.98 59.416 2.853-3.169-7.369-7.369z"/><path d="m7.205 54.789.65 5.844.729.208c.913.261 1.892.179 2.752-.185l-2.245-5.238z"/><path d="m41 41.797v-7.981c1.161-.414 2-1.514 2-2.816 0-1.425-1-2.615-2.334-2.92l-6.481-6.482-1.073 1.099 5.603 5.603c-.619.296-1.118.795-1.414 1.414l-5.586-5.586-6.015 6.158 5.54 5.54c-.154.361-.24.757-.24 1.174 0 .988.486 1.858 1.225 2.405l-1.795 5.183-.59.221c-3.513 1.318-5.84 4.676-5.84 8.428v5.763l3.77-2.356c2.631-1.645 4.23-4.529 4.23-7.632v-2.843l2.141-6.183c1.588-.076 2.859-1.38 2.859-2.986 0-1.111-.614-2.072-1.514-2.59l1.851-2.057c.346.679.941 1.206 1.663 1.466v7.978c-1.892 1.649-3 4.033-3 6.563 0 1.721.51 3.404 1.464 4.837l2.536 3.803 2.536-3.803c.954-1.433 1.464-3.116 1.464-4.837 0-2.53-1.108-4.914-3-6.563zm-7-3.797c-.552 0-1-.448-1-1s.448-1 1-1 1 .448 1 1-.448 1-1 1zm6-6c-.552 0-1-.449-1-1s.448-1 1-1 1 .449 1 1-.448 1-1 1z"/></g></svg>