<svg id="Capa_1" enable-background="new 0 0 511.253 511.253" height="512" viewBox="0 0 511.253 511.253" width="512" xmlns="http://www.w3.org/2000/svg"><g><path d="m422.892 0c-8.602 34.466-29.716 65.774-59.454 88.159-26.933 20.273-58.795 32.195-92.896 34.883v-19.338h-30v19.323c-34.037-2.714-65.838-14.628-92.727-34.868-29.738-22.385-50.853-53.693-59.454-88.159l-29.108 7.264c10.262 41.116 35.306 78.357 70.52 104.864 31.62 23.801 70.475 38.082 110.769 40.951v35.715h-35.188v56.166h101.281v-56.166h-36.093v-35.703c40.355-2.842 79.274-17.129 110.938-40.963 35.214-26.507 60.258-63.748 70.52-104.864z"/><path d="m205.354 294.305c0 57.758-10.054 114.549-29.883 168.795l-10.71 29.295 30.334 18.857 38.638-33.356c46.331-39.996 72.902-98.039 72.902-159.244v-43.692h-101.281z"/></g></svg>