<svg height="512pt" viewBox="0 0 512 512" width="512pt" xmlns="http://www.w3.org/2000/svg"><path d="m0 123.585938h26.484375v88.277343h-26.484375zm0 0"/><path d="m0 353.101562h26.484375v97.105469h-26.484375zm0 0"/><path d="m4.414062 335.449219h24.363282l8.828125-17.65625h-24.363281zm0 0"/><path d="m4.414062 229.515625 17.65625 35.3125h24.449219l-17.652343-35.3125zm0 0"/><path d="m8.828125 467.863281 17.65625 17.652344 30.628906 11.476563-29.128906-29.128907zm0 0"/><path d="m50.230469 282.484375h-25.953125l-4.414063 17.652344h25.953125zm0 0"/><path d="m42.371094 79.449219-31.777344 26.480469h16.507812l31.777344-26.480469zm0 0"/><path d="m80.066406 61.792969 4.589844-3.796875 44.578125-52.082032-23.304687 2.914063-45.371094 52.964844zm0 0"/><path d="m386.03125 9.796875 31.867188 6.359375 16.152343-16.15625h-64.351562zm0 0"/><path d="m476.691406 26.484375-17.65625-26.484375-35.3125 35.308594-44.136718-8.824219-44.136719-26.484375h-114.757813l-70.621094 8.828125-52.96875 61.792969-52.964843 44.136718v105.933594l26.484375 52.964844-8.828125 35.308594-17.65625 35.3125v114.757812l26.484375 26.480469 70.621094 26.484375h291.308593l17.65625-17.65625 35.308594-17.652344 8.828125-44.140625 17.65625-35.308593v-132.414063l-17.65625-26.484375v-35.308594l17.65625-44.136718v-44.140626l-35.308594-44.136718zm-341.71875 37.867187 26.484375-26.480468c.980469-.949219 2.152344-1.671875 3.441407-2.121094l26.484374-8.824219c4.628907-1.5625 9.648438.929688 11.210938 5.558594 1.558594 4.632813-.929688 9.652344-5.5625 11.210937l-24.539062 8.121094-24.984376 25.070313c-3.480468 3.414062-9.054687 3.414062-12.535156 0-3.441406-3.46875-3.441406-9.0625 0-12.535157zm-11.386718 403.511719h-17.65625c-1.730469.003907-3.425782-.519531-4.855469-1.5l-26.480469-17.65625c-2.472656-1.621093-3.964844-4.371093-3.972656-7.328125v-35.308594c0-4.875 3.953125-8.828124 8.828125-8.828124s8.828125 3.953124 8.828125 8.828124v30.542969l20.300781 13.59375h15.007813c4.875 0 8.828124 3.953125 8.828124 8.828125s-3.953124 8.828125-8.828124 8.828125zm70.621093 17.652344h-26.484375c-4.875 0-8.824218-3.949219-8.824218-8.824219 0-4.878906 3.949218-8.828125 8.824218-8.828125h26.484375c4.875 0 8.828125 3.949219 8.828125 8.828125 0 4.875-3.953125 8.824219-8.828125 8.824219zm186.171875-135.238281c-1.707031 8.914062-5.453125 17.316406-10.945312 24.542968l-24.628906 32.75c-12.0625 15.78125-30.804688 25.023438-50.667969 24.980469h-40.960938c-11.070312-.023437-21.949219-2.882812-31.601562-8.296875-7.441407-4.183594-13.9375-9.863281-19.070313-16.683594l-24.628906-32.664062c-5.457031-7.3125-9.199219-15.757812-10.945312-24.714844l-11.742188-60.382812c-2.632812-3.722656-5.585938-7.207032-8.824219-10.414063-7.3125-6.8125-12.390625-15.675781-14.566406-25.425781-.675781-2.792969-1.621094-5.511719-2.824219-8.121094-1.859375-2.710937-4.304687-4.976562-7.152344-6.621094-9.425781-6.0625-17.023437-14.574218-21.980468-24.628906-1.742188-3.359375-2.675782-7.074218-2.738282-10.855468.132813-5.746094 2.253907-11.269532 6.003907-15.625 3.632812-4.261719 7.960937-7.871094 12.800781-10.683594l-3-30.453125c-.335938-3.632813 1.585938-7.097657 4.84375-8.734375 3.253906-1.636719 7.183594-1.113282 9.898438 1.316406l23.304687 21.363281c26.570313-9.445312 36.722656 3.796875 39.898437 10.152344 5.195313 9.84375 7.550782 20.9375 6.796876 32.042969-.488282 3.179687-.152344 6.433594.972656 9.445312 1.347656 2.605469 3.007812 5.035156 4.941406 7.242188 6.488281 7.503906 10.550781 16.796875 11.652344 26.65625.277344 1.910156.691406 3.800781 1.238281 5.652344 6.5625-.8125 12.484375-4.335938 16.332031-9.710938 4.382813-7.253906 5.351563-16.070312 2.648438-24.101562-3.574219-9.269532-4.160156-19.421876-1.679688-29.042969.679688-2.746094 1.0625-5.554688 1.148438-8.382813-.386719-3.214844-1.570313-6.277344-3.441406-8.917968-5.726563-9.539063-8.691407-20.476563-8.5625-31.601563 0-7.238281 3.175781-23.660156 31.335937-26.394531l11.210937-28.867188c1.300782-3.402344 4.566407-5.648437 8.210938-5.648437 3.640625 0 6.90625 2.246093 8.207031 5.648437l11.210938 28.777344c28.160156 2.824219 31.339843 19.246094 31.339843 26.484375.125 11.125-2.839843 22.0625-8.5625 31.601563-1.871093 2.640624-3.054687 5.703124-3.441406 8.917968.082032 2.828125.46875 5.636719 1.144532 8.382813 2.484374 9.648437 1.898437 19.832031-1.675782 29.132812-2.65625 8.007813-1.691406 16.773438 2.648438 24.011719 3.847656 5.375 9.769531 8.898438 16.332031 9.710938.578125-1.8125.992187-3.675782 1.234375-5.5625 1.085938-9.890626 5.152344-19.21875 11.652344-26.746094 1.933594-2.207032 3.59375-4.636719 4.945312-7.242188 1.113282-3.015625 1.476563-6.253906 1.058594-9.445312-.757812-11.09375 1.566406-22.183594 6.707031-32.042969 3.179688-6.355469 13.417969-19.597656 39.902344-10.152344l23.304687-21.363281c2.726563-2.46875 6.699219-2.996094 9.972657-1.324219 2.207031 1.089844 3.820312 3.089844 4.414062 5.476563.339844 1.050781.460938 2.164062.355469 3.265625l-3.003906 30.453125c8.019531 4.113281 14.285156 10.976562 17.65625 19.332031 1.953125 5.910156 1.378906 12.363281-1.589844 17.832031-4.953125 10.054688-12.550781 18.566406-21.980469 24.628906-2.875 1.648438-5.324219 3.945313-7.148437 6.710938-1.230469 2.597656-2.175782 5.320312-2.824219 8.121094-2.207031 9.734375-7.316406 18.566406-14.65625 25.335937-3.160156 3.222657-6.082031 6.671875-8.738281 10.328125zm87.484375 82.273437c-.019531.957031-.167969 1.910157-.441406 2.824219l-8.828125 26.394531c-.140625.429688-.316406.84375-.53125 1.238281-.386719.804688-.890625 1.550782-1.5 2.207032-.585938.546875-1.238281 1.019531-1.941406 1.410156v.089844c-.351563.175781-.792969.351562-1.148438.527344l-44.136718 17.65625c-1.039063.417968-2.148438.628906-3.265626.617187-4.242187.011719-7.894531-2.996094-8.691406-7.164063-.800781-4.167968 1.476563-8.3125 5.425782-9.871093l31.6875-12.710938-17.035157-16.949219c-3.414062-3.480468-3.414062-9.054687 0-12.535156 3.46875-3.445312 9.066407-3.445312 12.535157 0l16.332031 16.417969 3.882812-11.5625v-16.242187c0-4.878907 3.953125-8.828126 8.828125-8.828126s8.828125 3.949219 8.828125 8.828126zm16.152344-304.992187c.984375 1.429687 1.507813 3.121094 1.5 4.855468v8.828126c.007813 4.535156-3.425781 8.335937-7.9375 8.789062-4.511719.457031-8.636719-2.578125-9.539063-7.023438-.105468-.582031-.167968-1.175781-.175781-1.765624v-6.179688l-14.300781-21.539062-1.855469-2.738282c-1.75-2.617187-1.96875-5.972656-.566406-8.792968 1.398437-2.820313 4.199219-4.675782 7.34375-4.867188 3.144531-.1875 6.148437 1.316406 7.878906 3.949219zm0 0"/><path d="m415.25 224.839844c7.101562-4.390625 12.824219-10.691406 16.507812-18.1875v-.085938c.824219-1.253906 1.019532-2.820312.527344-4.238281-3.226562-5.558594-8.28125-9.832031-14.300781-12.09375-3.226563-1.664063-5.113281-5.125-4.765625-8.738281l1.324219-13.332032-10.328125 9.445313c-2.574219 2.386719-6.324219 3.011719-9.535156 1.589844-6.882813-3-18.976563-6.972657-22.507813-.175781-3.796875 7.277343-5.449219 15.480468-4.769531 23.65625.585937 6.125-.417969 12.296874-2.910156 17.921874-1.941407 3.613282-4.246094 7.015626-6.886719 10.152344-4.539063 5.019532-7.351563 11.363282-8.03125 18.097656-.769531 5.894532-2.59375 11.609376-5.386719 16.859376-1.566406 3.0625-4.773438 4.925781-8.210938 4.765624-14.261718.226563-27.730468-6.570312-36.015624-18.183593-7.601563-11.808594-9.359376-26.453125-4.765626-39.726563 2.535157-6.257812 2.910157-13.1875 1.058594-19.683594-.925781-3.9375-1.429687-7.960937-1.5-12.003906.28125-6.160156 2.199219-12.132812 5.5625-17.304687 4.3125-6.96875 6.546875-15.019531 6.441406-23.214844 0-7.0625-10.945312-8.917969-20.125-9.179687-3.554687-.082032-6.703124-2.320313-7.945312-5.652344l-5.03125-12.886719-5.03125 12.886719c-1.242188 3.332031-4.390625 5.570312-7.945312 5.652344-7.503907.261718-20.128907 1.675781-20.128907 9.179687-.101562 8.195313 2.132813 16.246094 6.445313 23.214844 3.359375 5.171875 5.28125 11.144531 5.5625 17.304687-.074219 4.042969-.578125 8.066406-1.503906 12.003906-1.847657 6.496094-1.476563 13.425782 1.0625 19.683594 4.578124 13.265625 2.855468 27.890625-4.679688 39.726563-8.320312 11.574219-21.761719 18.363281-36.015625 18.183593-3.457031.160157-6.695313-1.699218-8.300781-4.765624-2.804688-5.277344-4.628906-11.019532-5.382813-16.949219-.699219-6.703125-3.511719-13.011719-8.035156-18.007813-2.65625-3.15625-4.964844-6.589844-6.882813-10.242187-2.519531-5.582031-3.492187-11.742188-2.824218-17.832031.691406-8.160157-.992188-16.347657-4.855469-23.566407-3.445313-6.886719-15.625-2.914062-22.511719.085938-3.210937 1.421875-6.957031.796875-9.535156-1.589844l-10.328125-9.445313 1.324219 13.332032c.390625 3.621094-1.511719 7.101562-4.765625 8.738281-4.726563 2.15625-8.984375 5.214844-12.535157 9.003906-2.039062 1.910157-2.546874 4.949219-1.234374 7.414063 3.683593 7.496094 9.402343 13.796875 16.507812 18.1875 5.28125 3.195312 9.65625 7.695312 12.710938 13.0625 1.746093 3.675781 3.109374 7.519531 4.058593 11.476562 1.371094 6.742188 4.867188 12.867188 9.976563 17.480469 4.441406 4.410156 8.460937 9.230469 12.003906 14.386719.695312 1 1.148438 2.148437 1.324219 3.355468l12.183593 62.324219c1.191407 6.324219 3.851563 12.28125 7.769532 17.390625l24.539062 32.570313c8.679688 11.40625 22.214844 18.074219 36.546875 18.011719h40.960938c14.332031.0625 27.863281-6.605469 36.542969-18.011719l24.628906-32.660157c3.855468-5.070312 6.480468-10.960937 7.683594-17.214843l12.09375-62.234375c.21875-1.332032.730468-2.597656 1.5-3.707032 3.574218-5.058593 7.558593-9.8125 11.917968-14.210937 5.105469-4.613281 8.601563-10.738281 9.972656-17.480469.9375-3.929687 2.300782-7.75 4.0625-11.386718 3.050782-5.394532 7.425782-9.921876 12.710938-13.152344zm-132.765625 172.402344h-35.3125c-2.773437-.019532-5.382813-1.324219-7.0625-3.53125l-26.480469-35.3125c-.535156-.757813-.949218-1.589844-1.238281-2.46875l-8.828125-26.484376c-1.007812-2.980468-.351562-6.273437 1.726562-8.636718 2.078126-2.363282 5.257813-3.441406 8.34375-2.824219 3.082032.617187 5.605469 2.832031 6.617188 5.8125l8.382812 25.15625 22.953126 30.632813h30.898437c4.875 0 8.824219 3.953124 8.824219 8.828124s-3.949219 8.828126-8.824219 8.828126zm0 0"/></svg>