<?xml version="1.0" encoding="iso-8859-1"?>
<!-- Generator: Adobe Illustrator 19.0.0, SVG Export Plug-In . SVG Version: 6.00 Build 0)  -->
<svg version="1.1" id="Capa_1" xmlns="http://www.w3.org/2000/svg" xmlns:xlink="http://www.w3.org/1999/xlink" x="0px" y="0px"
	 viewBox="0 0 512 512" style="enable-background:new 0 0 512 512;" xml:space="preserve">
<g>
	<g>
		<path d="M271.201,0v118.334c48.915-3.776,94.037-25.798,127.28-61.377C362.312,23.368,317.794,3.541,271.201,0z"/>
	</g>
</g>
<g>
	<g>
		<path d="M93.116,78.84c-19.481,23.223-35.145,52.266-45.853,82.475c53.487,47.547,121.135,75.428,193.738,78.834v-92.013
			C183.605,144.346,131.412,119.042,93.116,78.84z"/>
	</g>
</g>
<g>
	<g>
		<path d="M113.657,56.966c32.844,35.099,77.785,57.393,127.344,61.17V0.117C192.89,3.739,148.826,24.314,113.657,56.966z"/>
	</g>
</g>
<g>
	<g>
		<path d="M419.111,78.691c-38.758,40.807-91.206,65.848-147.91,69.641v91.841c72.178-3.431,139.817-31.437,193.399-78.924
			C454.09,131.499,438.881,102.257,419.111,78.691z"/>
	</g>
</g>
<g>
	<g>
		<path d="M290.987,389.445c-1.498,4.695-3.04,9.443-4.591,14.173c-13.755,41.924-26.748,81.519-5.947,100.283
			c16.95,15.274,44.748,5.922,65.581-3.384c59.835-26.699,104.98-87.675,124.411-162.29
			C414.942,367.255,354.24,384.728,290.987,389.445z"/>
	</g>
</g>
<g>
	<g>
		<path d="M473.821,193.087c-57.261,46.675-127.813,73.843-202.62,77.086v5.605c17.245,10.591,29.8,38.335,29.8,70.228
			c0,3.527-0.602,7.826-1.531,12.535c63.464-6.312,124.03-26.259,178.467-58.77C482.81,263.189,482.142,230.221,473.821,193.087z"/>
	</g>
</g>
<g>
	<g>
		<path d="M225.37,401.669c-1.352-4.092-2.684-8.182-4.002-12.255c-63.058-4.669-124.045-21.848-179.714-50.892
			C61.131,413,106.217,473.855,165.971,500.517c19.922,8.892,48.398,18.926,65.698,3.237
			C252.792,484.652,239.477,444.355,225.37,401.669z"/>
	</g>
</g>
<g>
	<g>
		<path d="M38.195,193.179c-8.168,36.33-9.128,69.131-4.118,106.668c54.567,32.534,115.34,52.549,178.621,58.837
			c-1.005-4.816-1.697-9.214-1.697-12.678c0-31.893,12.755-59.637,30-70.228v-5.629C165.801,266.932,95.317,239.84,38.195,193.179z"
			/>
	</g>
</g>
<g>
</g>
<g>
</g>
<g>
</g>
<g>
</g>
<g>
</g>
<g>
</g>
<g>
</g>
<g>
</g>
<g>
</g>
<g>
</g>
<g>
</g>
<g>
</g>
<g>
</g>
<g>
</g>
<g>
</g>
</svg>
