<?xml version="1.0" encoding="iso-8859-1"?>
<!-- Generator: Adobe Illustrator 19.0.0, SVG Export Plug-In . SVG Version: 6.00 Build 0)  -->
<svg version="1.1" id="Capa_1" xmlns="http://www.w3.org/2000/svg" xmlns:xlink="http://www.w3.org/1999/xlink" x="0px" y="0px"
	 viewBox="0 0 512.001 512.001" style="enable-background:new 0 0 512.001 512.001;" xml:space="preserve">
<g>
	<g>
		<path d="M457.881,178l-40.82-61.245c-3.66-5.505-10.498-7.965-16.823-6.032c-6.325,1.918-10.644,7.745-10.644,14.348
			c0,29.473-4.436,58.976-12.987,87.189c-7.248-20.644-21.04-38.698-39.81-51.202c-33.192-22.137-42.197-65.657-20.058-98.849
			l25.93-38.902c3.075-4.598,3.352-10.513,0.747-15.389C340.809,3.044,335.728,0,330.193,0C223.4,0,135.799,82.216,129.576,187.473
			c-5.496-14.155-7.955-25.128-7.955-40.616l-0.2-58.976c0-6.603-3.719-12.431-10.044-14.348
			c-6.281-1.933-13.163,0.527-16.823,6.032l-20.19,30.294c-37.101,55.636-56.721,120.41-56.721,187.307
			c0,118.464,96.385,214.834,214.848,214.834H255.8c-49.283,0-89.371-40.088-89.371-89.371c0-13.953,3.119-27.306,9.283-39.708
			c0.119-0.242,0.282-0.463,0.405-0.703c0.018-0.033,0.016-0.07,0.035-0.103c2.238-3.885,64.788-112.699,67.263-116.438
			c6.283-9.571,20.055-8.531,25.374,0.683l66.677,115.756c0.02,0.035,0.016,0.075,0.037,0.11c0.126,0.249,0.293,0.474,0.417,0.725
			c6.149,12.401,9.268,25.769,9.268,39.678c0,49.283-40.103,89.371-89.386,89.371h23.324c118.464,0,215.234-96.37,215.234-214.833
			C494.358,254.604,481.484,213.389,457.881,178z"/>
	</g>
</g>
<g>
	<g>
		<path d="M309.068,396.346l-53.266-92.474l-53.269,92.498c-4.057,8.195-6.118,17.023-6.118,26.259
			c0,32.738,26.647,59.386,59.386,59.386c32.753,0,59.401-26.647,59.401-59.386C315.201,413.407,313.144,404.565,309.068,396.346z"
			/>
	</g>
</g>
<g>
</g>
<g>
</g>
<g>
</g>
<g>
</g>
<g>
</g>
<g>
</g>
<g>
</g>
<g>
</g>
<g>
</g>
<g>
</g>
<g>
</g>
<g>
</g>
<g>
</g>
<g>
</g>
<g>
</g>
</svg>
