<?xml version="1.0" encoding="iso-8859-1"?>
<!-- Generator: Adobe Illustrator 18.0.0, SVG Export Plug-In . SVG Version: 6.00 Build 0)  -->
<!DOCTYPE svg PUBLIC "-//W3C//DTD SVG 1.1//EN" "http://www.w3.org/Graphics/SVG/1.1/DTD/svg11.dtd">
<svg version="1.1" id="Capa_1" xmlns="http://www.w3.org/2000/svg" xmlns:xlink="http://www.w3.org/1999/xlink" x="0px" y="0px"
	 viewBox="0 0 479.106 479.106" style="enable-background:new 0 0 479.106 479.106;" xml:space="preserve">
<path d="M421.4,231.489c72.382-63.373,61.265-195.882,47.906-209.268c-7.472-7.47-25.012,28.355-71.725,57.094
	c-4.057,4.011-9.179,25.642-8.931,56.826c0,0-8.787-22.644-8.059-46.891c-10.833,5.844-22.751,11.367-35.506,16.58
	c-40.878,16.702-69.571,54.13-75.085,97.944c-0.534-23.713-14.8-41.322-2.384-71.885c-42.053,12.347-84.8,24.041-117.246,39.517
	c-28.071,13.325-48.724,38.39-56.498,68.479c-3.842,14.899-6.334,33.213-6.173,56.294c-3.272-2.233-15.227-35.818-12.166-71.779
	C30.97,271.425,31.93,343.594,47.869,389.276v0.009C29.706,375.33,0,383.503,0,383.503c22.005,3.033,33.745,20.493,33.745,20.493
	C1.459,414.615,0,457.887,0,457.887c18.216-37.953,67.491-33.861,67.491-33.861c0.39,0.392,0.782,0.614,1.173,0.978
	c-7.987-77.211,39.171-155.065,118.687-180.486c48.831-15.609,158.233-48.742,201.246-77.319
	c-25.065,40.22-159.94,90.261-192.528,102.18c-70.978,24.681-111.857,94.227-109.526,163.23
	c25.864-0.364,58.276-41.945,122.725-74.492c-7.578-8.387-38.887-22.617-73.255-13.616c37.907-20.992,69.038-22.886,94.174-19.008
	c22.041,3.399,44.632,0.151,64.786-9.383c0.018-0.018,0.055-0.027,0.073-0.036c37.57-17.984,78.945-40.931,112.069-70.666
	c-4.483-7.816-24.531-22.992-50.164-13.696C383.848,215.96,404.909,221.652,421.4,231.489z"/>
<g>
</g>
<g>
</g>
<g>
</g>
<g>
</g>
<g>
</g>
<g>
</g>
<g>
</g>
<g>
</g>
<g>
</g>
<g>
</g>
<g>
</g>
<g>
</g>
<g>
</g>
<g>
</g>
<g>
</g>
</svg>
