<svg id="_x33_0" enable-background="new 0 0 64 64" height="512" viewBox="0 0 64 64" width="512" xmlns="http://www.w3.org/2000/svg"><g><ellipse cx="50" cy="41" rx="2" ry="1"/><path d="m38 9c-7.168 0-13 5.832-13 13 0 5.514 4.486 10 10 10s10-4.486 10-10c0-3.309-2.691-6-6-6-3.307 0-5.998 2.69-6 5.997 0 1.069.415 2.075 1.171 2.831s1.76 1.172 2.829 1.172c1.103 0 2-.897 2-2s-.897-2-2-2v-2c2.206 0 4 1.794 4 4s-1.794 4-4 4c-1.568 0-3.041-.601-4.166-1.688l-2.279 1.52-1.109-1.664 2.199-1.466c-.419-.828-.645-1.747-.645-2.702h-2v-2h2.263c.277-1.069.766-2.05 1.425-2.897l-1.396-1.396 1.414-1.414 1.395 1.396c1.106-.86 2.44-1.436 3.898-1.619v-2.07h2v2.069c1.81.227 3.436 1.055 4.663 2.286l1.782-1.188 1.109 1.664-1.67 1.113c.705 1.192 1.117 2.575 1.117 4.056 0 .337-.022.669-.05 1h2.05v2h-2.394c-.336 1.296-.87 2.513-1.59 3.602l1.691 1.691-1.414 1.414-1.531-1.531c-.909.973-1.975 1.793-3.161 2.422l1.231 1.847-1.664 1.109-1.434-2.151c-1.088.357-2.242.565-3.441.593l1.306 2.286c.637 1.114 1.932 1.701 3.222 1.453 7.057-1.341 12.179-7.539 12.179-14.735 0-7.72-6.28-14-14-14z"/><ellipse cx="24" cy="56" rx="2" ry="1"/><ellipse cx="13" cy="22" rx="2" ry="1"/><path d="m46 3h-13.402c-4.328 0-8.352 2.334-10.499 6.092l-1.519 2.658c-1.855 3.247-4.991 5.661-8.604 6.625-5.285 1.409-8.976 6.213-8.976 11.683v10.6c0 5.128 1.915 10.027 5.393 13.795 3.838 4.16 9.287 6.547 14.948 6.547h.011 18.178c6.324 0 11.47-5.146 11.47-11.47 0-2.494.69-4.935 1.998-7.06l4.301-6.988c1.113-1.81 1.701-3.888 1.701-6.012v-11.47c0-8.271-6.729-15-15-15zm-23 8h2v2h-2zm-4 16v2h-2v-2zm-6-8c2.243 0 4 1.318 4 3s-1.757 3-4 3-4-1.318-4-3 1.757-3 4-3zm-6 10h2c3.914 0 5.398 1.484 6.707 2.793 1.185 1.184 2.207 2.207 5.293 2.207v2c-3.914 0-5.398-1.484-6.707-2.793-1.185-1.184-2.207-2.207-5.293-2.207h-2zm1.799 12h-1.799v-2h1.799c2.34 0 4.521 1.048 5.982 2.875 1.079 1.35 2.69 2.125 4.42 2.125h1.799v2h-1.799c-2.34 0-4.521-1.048-5.982-2.875-1.079-1.351-2.691-2.125-4.42-2.125zm15.201 18c-2.243 0-4-1.318-4-3s1.757-3 4-3 4 1.318 4 3-1.757 3-4 3zm15-5h-2v-2h2zm5-6h-2v-2h2zm6-4c-2.243 0-4-1.318-4-3s1.757-3 4-3 4 1.318 4 3-1.757 3-4 3zm-9.807-4.3c-.118.023-.236.019-.355.034l-2.277 4.453c-1.202 2.352-3.59 3.813-6.232 3.813h-4.157c-1.167 0-2.304.412-3.2 1.159l-2.662 2.219c-1.256 1.046-2.848 1.622-4.482 1.622h-3.828v-2h3.828c1.167 0 2.304-.412 3.2-1.159l2.662-2.219c1.256-1.046 2.848-1.622 4.482-1.622h4.157c1.887 0 3.593-1.043 4.451-2.724l1.91-3.735c-1.172-.374-2.195-1.158-2.828-2.266l-.851-1.489-.804 1.207c-1.673 2.509-4.472 4.007-7.488 4.007h-2.719v-2h2.719c2.346 0 4.523-1.165 5.824-3.117l1.359-2.039-.017-.031c-5.612-1.002-9.885-5.918-9.885-11.813 0-8.271 6.729-15 15-15 8.822 0 16 7.178 16 16 0 8.156-5.807 15.179-13.807 16.7zm14.807-27.7h2v2h-2zm4 13h-2v-2h2z"/></g></svg>