<?xml version="1.0" encoding="iso-8859-1"?>
<!-- Generator: Adobe Illustrator 18.0.0, SVG Export Plug-In . SVG Version: 6.00 Build 0)  -->
<!DOCTYPE svg PUBLIC "-//W3C//DTD SVG 1.1//EN" "http://www.w3.org/Graphics/SVG/1.1/DTD/svg11.dtd">
<svg version="1.1" id="Capa_1" xmlns="http://www.w3.org/2000/svg" xmlns:xlink="http://www.w3.org/1999/xlink" x="0px" y="0px"
	 viewBox="0 0 484.42 484.42" style="enable-background:new 0 0 484.42 484.42;" xml:space="preserve">
<g>
	<path d="M384.789,365.354c-0.692-5.075-1.52-9.932-2.466-14.578c-6.469-31.544-21.299-60.817-42.937-84.667
		c6.452,28.411-11.2,46.561-11.419,46.502c3.125-34.128-8.259-68.021-31.366-93.324c-9.325-10.195-18.834-20.642-28.546-31.341
		c-33.834-37.203-61.316-74.913-85.859-106.718c0.592,15.717-4.729,35.851-25.76,60.471c0.237-0.026,9.003-17.094,12.246-45.616
		c2.129-18.706-3.885-37.421-16.485-51.407C121.675,10.859,91.693-8.744,53.231,3.833C13.2,16.736,1.308,59.69,15.901,119.013
		c4.054,16.503,14.358,30.784,28.733,39.846c32.616,20.54,56.703,18.386,56.484,18.641c-31.535,8.461-54.102,0.835-69.169-11.208
		c19.998,47.135,53.68,98.772,97.783,147.216c16.013,17.643,32.921,33.519,50.235,47.607c27.955,22.752,65.943,29.264,99.86,17.044
		l0,0c-0.1-0.213-10.726,23.909-44.592,21.349c2.939,1.714,5.862,3.378,8.766,4.992c18.784,10.388,39.848,16.266,61.282,16.992
		c15.811,0.541,33.749-1.494,52.262-8.546c0.726,0.152-43.224,30.032-9.899,69.854c0.052-17.348,34.745-54.289,47.803-68.41
		c0.389-0.389-18.226,39.348,32.651,70.03c-21.536-26.408-10.051-43.968-2.399-57.049c-31.84-13.547-64.541-30.784-95.299-50.852
		c-59.441-38.478-110.165-87.943-142.512-129.074c-16.435-20.405-28.225-38.807-36.518-51.551
		c-8.091-12.914-12.128-20.65-12.146-20.633c0.017-0.017,5.608,6.68,15.456,18.208c9.662,11.648,24.322,27.533,42.228,46.012
		c35.826,36.984,87.26,82.235,144.977,119.412c29.83,19.526,61.062,37.093,91.399,51.796c4.696-14.687,11.672-33.401,41.232-38.039
		c-47.887-12.12-69.271,22.389-69.373,22.811c3.328-19.035,16.959-67.244,29.982-77.715
		C393.235,316.244,384.3,364.856,384.789,365.354z"/>
</g>
<g>
</g>
<g>
</g>
<g>
</g>
<g>
</g>
<g>
</g>
<g>
</g>
<g>
</g>
<g>
</g>
<g>
</g>
<g>
</g>
<g>
</g>
<g>
</g>
<g>
</g>
<g>
</g>
<g>
</g>
</svg>
