<svg xmlns="http://www.w3.org/2000/svg" height="512pt" version="1.1" viewBox="-61 0 512 512" width="512pt">
<g id="surface1">
<path d="M 195 272 C 153.648438 272 120 298.910156 120 332 C 120 352.785156 133.199219 371.800781 155.289062 382.84375 C 161.953125 386.183594 165.160156 393.890625 162.832031 400.949219 C 160.855469 406.882812 161.601562 411.804688 164.457031 415.773438 C 167.300781 419.730469 171.738281 422 176.617188 422 L 213.382812 422 C 218.261719 422 222.699219 419.730469 225.542969 415.773438 C 228.398438 411.804688 229.144531 406.882812 227.605469 402.253906 C 223.945312 394.855469 227.167969 386.621094 234.550781 382.933594 C 256.742188 371.828125 270 352.785156 270 332 C 270 298.910156 236.351562 272 195 272 Z M 165 362 C 156.714844 362 150 355.285156 150 347 C 150 338.714844 156.714844 332 165 332 C 173.285156 332 180 338.714844 180 347 C 180 355.285156 173.285156 362 165 362 Z M 225 362 C 216.714844 362 210 355.285156 210 347 C 210 338.714844 216.714844 332 225 332 C 233.285156 332 240 338.714844 240 347 C 240 355.285156 233.285156 362 225 362 Z M 225 362 " style=" stroke:none;fill-rule:nonzero;fill:rgb(0%,0%,0%);fill-opacity:1;" />
<path d="M 390 467 L 390 287 C 390 229.109375 342.890625 182 285 182 C 276.722656 182 270 175.277344 270 167 C 270 158.722656 276.722656 152 285 152 L 300 152 C 316.570312 152 330 138.566406 330 122 C 330 105.429688 316.570312 92 300 92 L 90 92 C 73.429688 92 60 105.429688 60 122 C 60 138.566406 73.429688 152 90 152 L 105 152 C 113.277344 152 120 158.722656 120 167 C 120 175.277344 113.277344 182 105 182 C 47.109375 182 0 229.109375 0 287 L 0 467 C 0 491.8125 20.1875 512 45 512 L 345 512 C 369.8125 512 390 491.8125 390 467 Z M 300 332 C 300 357.050781 287.207031 380.375 266.410156 397.199219 L 295.605469 426.394531 C 301.464844 432.253906 301.464844 441.746094 295.605469 447.605469 C 289.746094 453.464844 280.253906 453.464844 274.394531 447.605469 L 253.226562 426.4375 C 252.109375 428.730469 251.414062 431.191406 249.886719 433.308594 C 241.332031 445.1875 228.015625 452 213.382812 452 L 176.613281 452 C 161.980469 452 148.664062 445.1875 140.109375 433.308594 C 138.578125 431.179688 137.898438 428.730469 136.769531 426.4375 L 115.605469 447.605469 C 109.746094 453.464844 100.253906 453.464844 94.394531 447.605469 C 88.535156 441.746094 88.535156 432.253906 94.394531 426.394531 L 123.582031 397.203125 C 102.789062 380.414062 90 357.078125 90 332 C 90 313.261719 96.746094 295.863281 108.226562 281.4375 L 94.394531 267.605469 C 88.535156 261.746094 88.535156 252.253906 94.394531 246.394531 C 100.253906 240.535156 109.746094 240.535156 115.605469 246.394531 L 130.632812 261.421875 C 148.472656 249.441406 170.636719 242 195 242 C 219.363281 242 241.527344 249.441406 259.363281 261.425781 L 274.394531 246.394531 C 280.253906 240.535156 289.746094 240.535156 295.605469 246.394531 C 301.464844 252.253906 301.464844 261.746094 295.605469 267.605469 L 281.773438 281.4375 C 293.253906 295.863281 300 313.261719 300 332 Z M 300 332 " style=" stroke:none;fill-rule:nonzero;fill:rgb(0%,0%,0%);fill-opacity:1;" />
<path d="M 279.273438 62 L 298.417969 21.710938 C 300.746094 17.066406 300.496094 11.542969 297.757812 7.117188 C 295.019531 2.695312 290.199219 0 285 0 L 105 0 C 99.800781 0 94.980469 2.695312 92.242188 7.117188 C 89.503906 11.542969 89.253906 17.066406 91.582031 21.710938 L 110.726562 62 Z M 279.273438 62 " style=" stroke:none;fill-rule:nonzero;fill:rgb(0%,0%,0%);fill-opacity:1;" />
</g>
</svg>