<?xml version="1.0" encoding="iso-8859-1"?>
<!-- Generator: Adobe Illustrator 19.0.0, SVG Export Plug-In . SVG Version: 6.00 Build 0)  -->
<svg version="1.1" id="Capa_1" xmlns="http://www.w3.org/2000/svg" xmlns:xlink="http://www.w3.org/1999/xlink" x="0px" y="0px"
	 viewBox="0 0 447.996 447.996" style="enable-background:new 0 0 447.996 447.996;" xml:space="preserve">
<g>
	<g>
		<rect x="175.99" width="96" height="32"/>
	</g>
</g>
<g>
	<g>
		<path d="M332.894,151.196l-44.896-23.152V79.996h32V48.412h-192v31.584h32v48.048l-44.896,23.152
			c-20.752,10.576-35.104,31.904-35.104,56.8v208c0,17.68,14.32,32,32,32h224c17.68,0,32-14.32,32-32v-208
			C367.998,183.1,353.646,161.772,332.894,151.196z M188.51,279.996c-4.224,3.6-7.936,7.712-10.912,12.416l-6.688-6.688
			c-1.968,1.808-4.544,2.928-7.408,2.928c-6.048,0-11.008-4.944-11.008-11.008c0-6.064,4.944-11.008,11.008-11.008
			c0.416,0,0.8,0.08,1.2,0.128c0.496-4.992,4.688-8.928,9.792-8.928c5.44,0,9.904,4.448,9.904,9.904c0,2.272-0.8,4.352-2.112,6.032
			L188.51,279.996z M174.494,398.668c-6.064,0-11.008-4.944-11.008-11.008c0-0.416,0.08-0.8,0.128-1.2
			c-4.976-0.496-8.928-4.688-8.928-9.808c0-5.44,4.464-9.904,9.904-9.904c2.272,0,4.352,0.8,6.016,2.112l7.696-7.696l7.168,4.864
			v11.296l-2.896,2.928c1.808,1.968,2.928,4.544,2.928,7.408C185.502,393.708,180.558,398.668,174.494,398.668z M251.47,376.652
			h-10.976v-11.008h-11.008v11.008h-10.992v-11.008h-11.008v11.008h-11.008v-16.496c-19.04-12.704-16.496-6.736-16.496-38.496
			c0-24.304,19.696-44,44-44s44,19.696,44,44c0,31.104,2.992,25.504-16.512,38.496V376.652z M284.382,386.46
			c0.048,0.4,0.128,0.784,0.128,1.2c0,6.048-4.944,11.008-11.008,11.008c-6.064,0-11.008-4.944-11.008-11.008
			c0-2.848,1.136-5.44,2.928-7.408l-2.928-2.928v-11.296l7.168-4.864l7.696,7.696c1.68-1.296,3.744-2.112,6.032-2.112
			c5.44,0,9.904,4.448,9.904,9.904C293.294,381.772,289.358,385.964,284.382,386.46z M284.494,288.652
			c-2.848,0-5.44-1.136-7.408-2.928l-6.688,6.688c-2.976-4.704-6.688-8.816-10.912-12.416l6.208-6.208
			c-1.296-1.68-2.112-3.744-2.112-6.032c0-5.44,4.448-9.904,9.904-9.904c5.104,0,9.296,3.936,9.808,8.928
			c0.4-0.048,0.784-0.128,1.2-0.128c6.048,0,11.008,4.944,11.008,11.008C295.502,283.724,290.542,288.652,284.494,288.652z
			 M335.998,224.524h-224v-16.528c0-11.904,6.768-22.752,17.76-28.368l62.24-32.064V80.412h64v67.152l62.352,32.128
			c10.896,5.552,17.648,16.4,17.648,28.304V224.524z"/>
	</g>
</g>
<g>
	<g>
		<circle cx="201.998" cy="332.672" r="11.008"/>
	</g>
</g>
<g>
	<g>
		<path d="M223.998,343.66c-3.04,0-5.504,4.928-5.504,11.008h11.008C229.502,348.588,227.038,343.66,223.998,343.66z"/>
	</g>
</g>
<g>
	<g>
		<circle cx="245.998" cy="332.672" r="11.008"/>
	</g>
</g>
<g>
</g>
<g>
</g>
<g>
</g>
<g>
</g>
<g>
</g>
<g>
</g>
<g>
</g>
<g>
</g>
<g>
</g>
<g>
</g>
<g>
</g>
<g>
</g>
<g>
</g>
<g>
</g>
<g>
</g>
</svg>
