<?xml version="1.0" encoding="iso-8859-1"?>
<!-- Generator: Adobe Illustrator 19.0.0, SVG Export Plug-In . SVG Version: 6.00 Build 0)  -->
<svg version="1.1" id="Capa_1" xmlns="http://www.w3.org/2000/svg" xmlns:xlink="http://www.w3.org/1999/xlink" x="0px" y="0px"
	 viewBox="0 0 512.001 512.001" style="enable-background:new 0 0 512.001 512.001;" xml:space="preserve">
<g>
	<g>
		<path d="M437.545,133.952c-11.281-4.811-35.056-7.001-67.849-1.869c-34.589,5.414-69.924,17.399-98.372,33.215v84.188
			c19.022,6.413,32.763,24.408,32.763,45.566c0,7.728-1.843,15.03-5.097,21.507c13.847,2.365,27.525,5.475,40.977,8.537
			c50.261,11.438,82.66,17.413,103.029-4.637c7.071-29.5,10.946-59.829,10.946-89.457
			C453.942,195.734,448.156,163.019,437.545,133.952z"/>
	</g>
</g>
<g>
	<g>
		<path d="M142.31,132.083c-32.798-5.133-56.576-2.942-67.854,1.869C63.844,163.018,58.059,195.733,58.059,231
			c0,29.625,3.875,59.95,10.944,89.447c20.369,22.063,52.771,16.088,103.04,4.648c13.451-3.061,27.129-6.171,40.977-8.537
			c-3.254-6.477-5.097-13.778-5.097-21.507c0-21.157,13.741-39.153,32.763-45.566v-84.186
			C212.236,149.483,176.9,137.497,142.31,132.083z"/>
	</g>
</g>
<g>
	<g>
		<path d="M209.779,476.046c-12.921-17.668-20.332-42.715-20.332-68.716c0-21.859,4.943-41.768,13.354-57.641
			c-8.028,1.654-16.036,3.476-23.96,5.28c-23.757,5.407-47.901,10.901-70.266,10.901c-9.411,0-18.506-0.973-27.127-3.334
			c21.321,60.322,55.687,113.518,96.682,144.789c6.945,5.298,15.766,6.148,23.595,2.273c7.83-3.875,12.505-11.405,12.505-20.14
			C214.231,484.667,212.692,480.028,209.779,476.046z"/>
	</g>
</g>
<g>
	<g>
		<path d="M256.001,0c-9.096,0-17.994,0.616-26.67,1.808l26.67,34.234l26.669-34.234C273.995,0.616,265.097,0,256.001,0z"/>
	</g>
</g>
<g>
	<g>
		<path d="M196.432,9.43c-44.891,14.863-81.766,46.575-106.127,89.918c41.458-4.183,101.02,7.756,150.38,31.465V66.237L196.432,9.43
			z"/>
	</g>
</g>
<g>
	<g>
		<path d="M403.433,365.87c-22.367,0-46.506-5.493-70.266-10.901c-7.927-1.804-15.938-3.627-23.968-5.283
			c8.411,15.873,13.355,35.782,13.355,57.643c0,26.001-7.41,51.047-20.331,68.716c-2.914,3.983-4.452,8.621-4.452,13.413
			c0,8.736,4.674,16.265,12.504,20.14c7.829,3.873,16.65,3.025,23.595-2.273c40.994-31.271,75.36-84.466,96.68-144.787
			C421.932,364.897,412.839,365.87,403.433,365.87z"/>
	</g>
</g>
<g>
	<g>
		<path d="M315.57,9.43l-44.246,56.796v64.585c49.356-23.708,108.915-35.646,150.372-31.465
			C397.335,56.005,360.461,24.292,315.57,9.43z"/>
	</g>
</g>
<g>
	<g>
		<path d="M256.005,277.607c-9.618,0-17.444,7.826-17.444,17.444s7.826,17.444,17.444,17.444c9.619,0,17.444-7.825,17.444-17.444
			C273.449,285.433,265.624,277.607,256.005,277.607z"/>
	</g>
</g>
<g>
</g>
<g>
</g>
<g>
</g>
<g>
</g>
<g>
</g>
<g>
</g>
<g>
</g>
<g>
</g>
<g>
</g>
<g>
</g>
<g>
</g>
<g>
</g>
<g>
</g>
<g>
</g>
<g>
</g>
</svg>
