<?xml version="1.0" encoding="iso-8859-1"?>
<!-- Generator: Adobe Illustrator 19.0.0, SVG Export Plug-In . SVG Version: 6.00 Build 0)  -->
<svg version="1.1" id="Capa_1" xmlns="http://www.w3.org/2000/svg" xmlns:xlink="http://www.w3.org/1999/xlink" x="0px" y="0px"
	 viewBox="0 0 512.001 512.001" style="enable-background:new 0 0 512.001 512.001;" xml:space="preserve">
<g>
	<g>
		<path d="M312.47,369.975c-10.807,7.864-21.116,8.395-27.276,7.709c-15.68-1.753-29.748-13.574-37.631-31.62
			c-5.29-12.109-8.104-28.372-4.929-45.535c-24.917,13.338-56.887,43.622-56.887,111.224c0,38.738,31.515,70.252,70.252,70.252
			s70.252-31.515,70.252-70.252C326.252,396.618,321.339,381.977,312.47,369.975z"/>
	</g>
</g>
<g>
	<g>
		<path d="M465.097,290.749l-2.262-40.346l-24.63,32.035c-1.961,2.55-6.137,7.061-11.466,11.173
			c2.106-6.978,3.987-14.937,5.23-23.715c4.302-30.4,1.623-77.058-35.558-126.701l-15.601-20.83l-10.222,23.932
			c-11.792,27.606-30.871,41.455-48.603,35.283c-13.651-4.75-24.746-20.373-30.439-42.866c-5.31-20.979-8.396-57.897,7.065-114.636
			L305.169,0l-24.345,5.484c-82.12,18.5-137.457,76.817-160.03,168.647c-9.489,38.602-11.276,75.173-11.01,99.908
			c-19.404-15.687-29.093-29.451-29.346-29.815L61.955,217.07l-8.419,31.794c-4.627,17.475-6.972,35.553-6.972,53.732
			c0,114.62,92.556,208.012,206.852,209.404c-54.105-1.375-97.695-45.816-97.695-100.247c0-70.168,30.144-107.552,55.432-126.557
			c27.593-20.738,55.42-24.423,56.591-24.57l34.73-4.352l-20.784,28.164c-13.097,17.747-12.001,37.262-6.609,49.607
			c3.901,8.929,9.567,13.364,13.45,13.798c4.897,0.557,9.823-5.063,12.321-8.455l9.809-13.326l12.313,11.054
			c21.165,19.004,33.305,46.209,33.305,74.637c0,54.43-43.59,98.871-97.695,100.247c114.296-1.391,206.852-94.784,206.852-209.404
			C465.437,298.762,465.323,294.775,465.097,290.749z"/>
	</g>
</g>
<g>
</g>
<g>
</g>
<g>
</g>
<g>
</g>
<g>
</g>
<g>
</g>
<g>
</g>
<g>
</g>
<g>
</g>
<g>
</g>
<g>
</g>
<g>
</g>
<g>
</g>
<g>
</g>
<g>
</g>
</svg>
