<svg id="Capa_1" enable-background="new 0 0 512 512" height="512" viewBox="0 0 512 512" width="512" xmlns="http://www.w3.org/2000/svg"><g><path d="m408.626 279.287c-30.12-69.785-114.376-190.519-74.377-271.86 2.031-4.131-1.902-8.655-6.242-7.121-34.764 12.29-127.515 56.016-98.742 165.872 0 0-26.651-31.57-50.353-41.509-3.511-1.472-7.317 1.323-7.03 5.12 5.031 66.419-42.202 101.992-69.523 158.087-24.492 50.286-14.005 99.368 11.14 143.133 18.671 32.497 46.679 57.283 79.127 72.109-2.027-1.914-3.988-3.922-5.87-6.033-18.393-20.632-27.098-48.51-23.882-76.484 3.212-27.939 23.062-53.984 42.257-79.172 23.049-30.243 44.82-58.81 34.017-83.711-2.554-5.887-1.136-12.744 3.543-17.135 4.678-4.391 11.611-5.37 17.323-2.447.99.507 24.463 12.741 42.099 40.831 11.797 18.791 22.723 47.651 18.732 87.561.298-.058.6-.107.904-.147 6.545-.862 12.891 2.585 15.723 8.544 17.771 37.397 16.279 82.094-3.799 113.873-5.855 9.266-13.039 17.034-21.315 23.202 98.392-30.36 134.403-144.358 96.268-232.713z"/><path d="m270.773 287.042c-5.672 25.851-24.321 50.32-41.466 72.817-16.704 21.919-33.978 44.584-36.234 64.215-2.227 19.373 3.74 38.611 16.372 52.78 12.484 14.003 29.893 21.715 49.02 21.715 27.339 0 42.015-14.145 49.512-26.012 9.858-15.602 13.36-36.424 10.371-56.913-7.467 5.025-15.331 7.419-20.74 8.046-5.185.601-10.314-1.5-13.587-5.566-3.273-4.065-4.232-9.526-2.539-14.463 20.184-58.877 5.471-95.829-10.709-116.619z"/></g></svg>