<?xml version="1.0" encoding="iso-8859-1"?>
<!-- Generator: Adobe Illustrator 18.0.0, SVG Export Plug-In . SVG Version: 6.00 Build 0)  -->
<!DOCTYPE svg PUBLIC "-//W3C//DTD SVG 1.1//EN" "http://www.w3.org/Graphics/SVG/1.1/DTD/svg11.dtd">
<svg version="1.1" id="Capa_1" xmlns="http://www.w3.org/2000/svg" xmlns:xlink="http://www.w3.org/1999/xlink" x="0px" y="0px"
	 viewBox="0 0 486.999 486.999" style="enable-background:new 0 0 486.999 486.999;" xml:space="preserve">
<path d="M245.998,369.041c-36.206-9.382-82.293-37.023-122.338-85.506c65.484,49.425,102.909,74.005,186.401,79.731
	c-39.577-8.454-89.954-30.714-113.323-87.508c-20.397-49.61-29.629-90.472-39.31-121.77c-3.055,14.121-11.266,27.767-28.827,38.108
	c0,0,7.846-6.81,13.737-22.284c8.196-21.525,4.357-45.778-10.064-63.722c-14.44-17.952-37.308-26.933-60.093-23.527
	c-0.015,0.008-0.05,0.008-0.084,0.017C-5.92,94.313-41.073,240.336,73.302,349.835c70.155,64.992,159.009,61.136,220.168,46.121
	c72.377,8.104,144.22-17.501,193.529-84.838C469.906,325.641,385.343,405.146,245.998,369.041z"/>
<g>
</g>
<g>
</g>
<g>
</g>
<g>
</g>
<g>
</g>
<g>
</g>
<g>
</g>
<g>
</g>
<g>
</g>
<g>
</g>
<g>
</g>
<g>
</g>
<g>
</g>
<g>
</g>
<g>
</g>
</svg>
