<svg id="Capa_1" enable-background="new 0 0 510.012 510.012" height="512" viewBox="0 0 510.012 510.012" width="512" xmlns="http://www.w3.org/2000/svg"><g><path d="m379.802 437.423c-7.965-2.275-12.577-10.578-10.302-18.544 2.277-7.966 10.583-12.575 18.544-10.302l65.045 18.585-30.004-172.524 15.722-125.777c.339-2.708-.068-5.458-1.177-7.952l-30.707-69.092v-36.817c0-8.284-6.716-15-15-15h-230.729l20.146 40.292c3.705 7.409.702 16.42-6.708 20.124-7.408 3.706-16.42.702-20.124-6.708l-21.788-43.575-69.399 48.579c-4.953 3.467-7.34 9.567-6.056 15.475l39.388 181.187-8.668 52.007 61.254-11.138c2.481-.453 5.035-.271 7.427.527l24 8c7.859 2.62 12.106 11.114 9.487 18.974-2.62 7.859-11.115 12.107-18.974 9.487l-20.354-6.785-68.08 12.379-17.618 105.71c-.863 5.181 1.046 10.437 5.034 13.854l56 48c2.731 2.342 6.199 3.611 9.761 3.611 1.294 0-8.446 1.031 143.477-15.85l85.841 15.607c4.199.765 8.524-.298 11.893-2.918l65.99-51.325zm-211.879-349.423h56c8.284 0 15 6.716 15 15s-6.716 15-15 15h-56c-8.284 0-15-6.716-15-15s6.716-15 15-15zm0 64h56c8.284 0 15 6.716 15 15s-6.716 15-15 15h-56c-8.284 0-15-6.716-15-15s6.716-15 15-15zm0 94c-8.284 0-15-6.716-15-15s6.716-15 15-15h56c8.284 0 15 6.716 15 15s-6.716 15-15 15zm120 176c-12.351 0-23.604-4.788-32-12.605-8.396 7.817-19.649 12.605-32 12.605-25.916 0-47-21.084-47-47 0-8.284 6.716-15 15-15s15 6.716 15 15c0 9.374 7.626 17 17 17s17-7.626 17-17c0-8.284 6.716-15 15-15s15 6.716 15 15c0 9.374 7.626 17 17 17s17-7.626 17-17c0-8.284 6.716-15 15-15s15 6.716 15 15c0 25.916-21.084 47-47 47zm56-112h-56c-8.284 0-15-6.716-15-15s6.716-15 15-15h56c8.284 0 15 6.716 15 15s-6.716 15-15 15zm0-64h-56c-8.284 0-15-6.716-15-15s6.716-15 15-15h56c8.284 0 15 6.716 15 15s-6.716 15-15 15zm0-64h-56c-8.284 0-15-6.716-15-15s6.716-15 15-15h56c8.284 0 15 6.716 15 15s-6.716 15-15 15zm0-64h-56c-8.284 0-15-6.716-15-15s6.716-15 15-15h56c8.284 0 15 6.716 15 15s-6.716 15-15 15z"/></g></svg>