<svg height="512" viewBox="0 0 37 58" width="512" xmlns="http://www.w3.org/2000/svg"><path id="Shape" d="m35.1 15h-14.1c-5.5228475 0-10-4.4771525-10-10v-3c0-1.1045695-.8954305-2-2-2h-2.059c-1.06493165.00605098-1.93992118.84242513-1.994 1.906-.393 6.846-2.873 11.619-4.166 12.61-.48563264.3617345-.77450105.9294848-.781 1.535v29.882c0 .3787721.21400238.7250352.55278641.8944272.33878402.169392.74419594.132836 1.04721359-.0944272l1.441-1.081c.23739276-.1800671.54271706-.2448949.83279583-.1768231s.53469292.2619519.66720417.5288231l1.759 3.531c.15263868.3048308.45005499.5109005.78907854.5467257.33902355.0358251.67294151-.1035304.88592146-.3697257l1.876-2.344c.2289803-.2857423.5958232-.4234842.9562822-.3590644s.6568841.3206983.7727178.6680644l1.838 5.512c.1160713.3472173.4126037.6032509.773034.6674571s.7271345-.0736799.955966-.3594571l1.876-2.344c.2131328-.2661175.5471638-.4053078.8862007-.3692788.3390368.036029.6363549.242312.7887993.5472788l.577 1.154c.1548801.3102687.4594472.5181486.8048203.5493239s.6822427-.1188051.8901797-.3963239l1.058-1.411c.207937-.2775188.5448066-.4274992.8901797-.3963239s.6499402.2390552.8048203.5493239l1.552 3.1c.1548801.3102687.4594472.5181486.8048203.5493239s.6822427-.1188051.8901797-.3963239l1.209-1.612c.1911803-.255275.4926584-.4040483.8115668-.4004917.3189085.0035566.6169936.1590165.8024332.4184917l3.241 4.537c.2038609.2853147.5422726.4430029.8918602.4155762.3495876-.0274266.6592676-.2359604.8161398-.5495762 2.315-4.623 2.258-4.412 2.258-4.742v-35.8c0-1.049341-.850659-1.9-1.9-1.9zm-28.1 4c-.55228475 0-1-.4477153-1-1v-1c0-.5522847.44771525-1 1-1s1 .4477153 1 1v1c0 .5522847-.44771525 1-1 1zm8 23c0 .5522847-.4477153 1-1 1s-1-.4477153-1-1v-1c0-.5522847.4477153-1 1-1s1 .4477153 1 1zm.062-12.794-4.862 6.247c-.48467976.6140261-1.32031706.8277693-2.04029786.5218768-.71998079-.3058925-1.14621734-1.055758-1.04070214-1.8308768l1.389-9.719c.0928435-.648619.54415787-1.1891249 1.16580607-1.3961998.62164823-.2070749 1.30693713-.0451787 1.77019393.4181998l3.476 3.473c.6171896.6170915.6780757 1.5972708.142 2.286zm6.938.794v-1c0-.5522847.4477153-1 1-1s1 .4477153 1 1v1c0 .5522847-.4477153 1-1 1s-1-.4477153-1-1zm7.3 16.424-.587.147c-.9801157.2452068-1.9891918-.2790666-2.352-1.222l-2.768-7.2c-.2828727-.7349105-.1081688-1.5674096.4462781-2.1266046s1.3854261-.7409913 2.1227219-.4643954l2.684 1.007c.7056606.2644179 1.2027915.903034 1.286 1.652l.671 6.042c.1125764.9964059-.5301046 1.9221572-1.503 2.165zm-.376-19.14-2.65-4.239c-.2849099-.4560531-.3233274-1.0242401-.1024014-1.5144949.220926-.4902549.672026-.837848 1.2024014-.9265051l2-.333c.4274914-.0714083.8657127.0326669 1.2154474.2886622.3497348.2559954.5814028.6422589.6425526 1.0713378l.653 4.572c.102988.7507675-.3311873 1.471816-1.0429175 1.7320054-.7117302.2601895-1.5085788-.0108295-1.9140825-.6510054z"/></svg>