<?xml version="1.0" encoding="iso-8859-1"?>
<!-- Generator: Adobe Illustrator 18.0.0, SVG Export Plug-In . SVG Version: 6.00 Build 0)  -->
<!DOCTYPE svg PUBLIC "-//W3C//DTD SVG 1.1//EN" "http://www.w3.org/Graphics/SVG/1.1/DTD/svg11.dtd">
<svg version="1.1" id="Capa_1" xmlns="http://www.w3.org/2000/svg" xmlns:xlink="http://www.w3.org/1999/xlink" x="0px" y="0px"
	 viewBox="0 0 492.919 492.919" style="enable-background:new 0 0 492.919 492.919;" xml:space="preserve">
<g id="XMLID_313_">
	<path id="XMLID_319_" d="M246.463,384.296c-6.044,0-10.958,13.046-10.958,19.089c0,6.029,4.914,10.928,10.958,10.928
		c6.044,0,10.958-4.898,10.958-10.928C257.421,397.342,252.507,384.296,246.463,384.296z"/>
	<path id="XMLID_318_" d="M193.401,368.127c0,11.226,9.09,20.315,20.322,20.315c10.221,0,18.611-7.574,20.029-17.419l-29.888-20.541
		C197.659,353.947,193.401,360.5,193.401,368.127z"/>
	<path id="XMLID_317_" d="M289.063,350.483l-29.872,20.529c1.404,9.856,9.795,17.431,20.014,17.431
		c11.227,0,20.324-9.09,20.324-20.315C299.528,360.5,295.265,353.947,289.063,350.483z"/>
	<path id="XMLID_314_" d="M291.374,221.701V60.313h8.965c7.256,0,13.156-5.899,13.156-13.174V13.174
		C313.495,5.9,307.595,0,300.339,0h-107.75c-7.254,0-13.154,5.9-13.154,13.174V47.14c0,7.274,5.9,13.174,13.154,13.174h8.965
		v161.388c-62.636,19.185-108.2,77.445-108.2,146.374c0,40.157,15.503,76.648,40.835,103.94
		c12.374,13.332,29.744,20.904,47.936,20.904h128.672c18.186,0,35.582-7.572,47.944-20.904
		c25.33-27.291,40.824-63.782,40.824-103.94C399.565,299.147,354.001,240.886,291.374,221.701z M296.226,419.236v2.269
		c0,13.763-11.133,24.878-24.867,24.878h-49.775c-13.748,0-24.879-11.115-24.879-24.878v-2.269
		c-18.199,0-32.934-14.352-32.934-32.088c0-10.061,4.85-18.946,12.311-24.815v-17.017c0-38.865,31.517-70.397,70.382-70.397
		c38.868,0,70.384,31.532,70.384,70.397v16.985c7.461,5.9,12.313,14.786,12.313,24.847
		C329.159,404.885,314.419,419.236,296.226,419.236z"/>
</g>
<g>
</g>
<g>
</g>
<g>
</g>
<g>
</g>
<g>
</g>
<g>
</g>
<g>
</g>
<g>
</g>
<g>
</g>
<g>
</g>
<g>
</g>
<g>
</g>
<g>
</g>
<g>
</g>
<g>
</g>
</svg>
