<svg height="464pt" viewBox="-11 0 464 464" width="464pt" xmlns="http://www.w3.org/2000/svg"><path d="m102.761719 89.984375 8.957031 4.480469c12.496094 6.238281 26.472656 9.535156 40.433594 9.535156h29.894531c18.855469 0 36.90625 7.289062 50.496094 19.816406l-3.558594-.710937c-10.273437-2.058594-20.808594-3.105469-31.296875-3.105469h-37.214844c-20.511718 0-41.03125-4.542969-59.703125-13.070312.117188-5.738282.765625-11.410157 1.992188-16.945313zm-34.296875 203.230469c18.75-8.621094 39.382812-13.214844 60.007812-13.214844h37.214844c10.496094 0 21.023438-1.046875 31.296875-3.105469l3.558594-.710937c-13.589844 12.519531-31.640625 19.816406-50.496094 19.816406h-29.894531c-13.960938 0-27.9375 3.296875-40.433594 9.535156l-6.070312 3.03125c-1.3125-5.269531-3.054688-10.398437-5.183594-15.351562zm298.121094 20.617187-17.320313 6.929688c-12.007813 4.804687-24.664063 7.238281-37.609375 7.238281h-37.703125c-31.320313 0-60.769531 12.191406-82.914063 34.34375l-13.65625 13.65625h35.488282c25.898437 0 51.90625 2.574219 77.328125 7.65625l1.871093.375c26.441407 5.289062 53.503907 7.96875 80.457032 7.96875h.992187l20.570313 72h-16.449219l-19.578125-39.152344c-2.71875-5.464844-8.199219-8.847656-14.308594-8.847656h-28.28125c-7.839844 0-14.480468 5.617188-15.785156 13.375l-5.765625 34.625h-34.289063l-6.03125-42.265625c-1.121093-7.832031-7.929687-13.734375-15.839843-13.734375h-34.128907c-7.914062 0-14.730468 5.902344-15.839843 13.734375l-6.03125 42.265625h-34.289063l-5.769531-34.640625c-1.304687-7.742187-7.933594-13.359375-15.78125-13.359375h-28.28125c-6.113281 0-11.59375 3.390625-14.3125 8.839844l-19.574219 39.160156h-16.449218l21.648437-75.777344c5.136719-17.964844 7.742187-36.582031 7.742187-55.285156 0-2.632812-.109374-5.242188-.320312-7.824219l10.496094-5.25c10.28125-5.136719 21.785156-7.847656 33.273437-7.847656h29.894531c31.5625 0 61.265626-16.816406 77.503907-43.878906l9.304687-15.503907-43.015625 8.597657c-9.238281 1.847656-18.710937 2.792969-28.160156 2.792969h-37.214844c-23.21875 0-46.433593 5.234374-67.472656 15.046874-10.496094-16.496093-25.769531-29.925781-44.464844-38.101562l-15.28125-10.183594 22.761719-22.761718-24-24 24-24-22.761719-22.757813 13.867188-9.242187h69.589843c4.738282 0 8.953126-2.101563 11.878907-5.382813 20.082031 8.757813 41.992187 13.382813 63.898437 13.382813h37.214844c9.449219 0 18.914062.9375 28.160156 2.792968l43.015625 8.597656-9.304687-15.503906c-16.238282-27.070312-45.941406-43.878906-77.503906-43.878906h-29.894532c-11.496094 0-22.992187-2.71875-33.273437-7.847656l-11.117188-5.558594c2.09375-4.90625 4.597657-9.648438 7.589844-14.152344 11.335937-17.058594 17.335937-36.863281 17.335937-57.3125v-3.160156h32.9375l6.246094 49.984375c1 7.992187 7.824219 14.015625 15.875 14.015625h65.871094c8.054688 0 14.871094-6.023438 15.871094-14.015625l6.246094-49.984375h32.953124v3.160156c0 20.457032 6 40.253906 17.34375 57.28125 9.585938 14.382813 14.65625 31.125 14.65625 48.40625v3.160156c0 8.824219 7.175782 16 16 16h69.578126l13.863281 9.238282-22.761719 22.761718 24 24-15.261719 15.265626c-20.457031-4.753907-41.410156-7.265626-62.410156-7.265626h-28.488281c-17.078125 0-34.230469-1.695312-50.976563-5.046874l-31.71875-6.34375 9.304688 15.503906c16.238281 27.070312 45.945312 43.878906 77.503906 43.878906h29.894531c11.496094 0 22.992188 2.71875 33.273438 7.847656l5.320312 2.664063c-21.457031 14.914062-36.265625 37.617187-41.230468 63.320312zm2.796874 62.097657c-24.855468-.203126-49.789062-2.707032-74.183593-7.578126l-1.871094-.375c-24.375-4.871093-49.28125-7.527343-74.144531-7.921874 16.183594-10.445313 35.046875-16.046876 54.777344-16.046876h37.703124c14.992188 0 29.648438-2.824218 43.542969-8.382812l9.535157-3.816406c-.007813.375-.046876.742187-.046876 1.128906 0 14.46875 1.601563 28.878906 4.6875 42.992188zm70.761719-145.167969-15.28125 10.183593c-.289062.125-.550781.277344-.839843.40625l.257812-.503906-14.609375-7.304687c-12.496094-6.238281-26.472656-9.535157-40.433594-9.535157h-29.894531c-18.929688 0-37.039062-7.34375-50.648438-19.953124 15.351563 2.625 30.96875 3.953124 46.527344 3.953124h28.488282c20.527343 0 41.023437 2.496094 60.976562 7.3125zm0 0"/><path d="m108.695312 192c-34.832031 0-48.808593-19.65625-49.382812-20.496094l-13.273438 8.929688c.753907 1.125 18.871094 27.558594 62.65625 27.558594 22.871094 0 38.632813-7.304688 52.527344-13.746094 11.867188-5.503906 22.128906-10.253906 35.472656-10.253906v-16c-16.871093 0-29.75 5.96875-42.199218 11.742187-13 6.035156-26.449219 12.265625-45.800782 12.265625zm0 0"/></svg>