<svg height="511pt" viewBox="-113 1 511 511.99901" width="511pt" xmlns="http://www.w3.org/2000/svg"><path d="m252.136719 279.472656c-18.042969-21.832031-42.28125-37.804687-69.191407-45.792968v-155.148438h-80.746093v155.148438c-26.90625 7.988281-51.144531 23.960937-69.1875 45.792968-20.964844 25.367188-32.511719 57.492188-32.511719 90.453125 0 78.339844 63.734375 142.074219 142.074219 142.074219 78.339843 0 142.074219-63.734375 142.074219-142.074219 0-32.960937-11.546876-65.085937-32.511719-90.453125zm-60.703125 57.386719c.363281 8.058594-7.117188 14.921875-14.921875 14.921875-8.363281 0-14.558594-6.839844-14.921875-14.921875-.359375-8.058594 7.117187-14.921875 14.921875-14.921875 8.367187 0 14.5625 6.835938 14.921875 14.921875zm-30.871094-65.433594c8.363281 0 14.558594 6.839844 14.921875 14.925781.359375 8.058594-7.117187 14.921876-14.921875 14.921876-8.367188 0-14.5625-6.839844-14.921875-14.921876-.359375-8.058593 7.117187-14.925781 14.921875-14.925781zm-46.664062 25.066407c8.367187 0 14.5625 6.835937 14.925781 14.921874.359375 8.058594-7.117188 14.921876-14.925781 14.921876-8.363282 0-14.558594-6.835938-14.921876-14.921876-.359374-8.058593 7.117188-14.921874 14.921876-14.921874zm28.671874 173.558593c-56.234374 0-101.980468-45.746093-101.980468-101.980469 0-4.476562 2.007812-8.714843 5.472656-11.550781 1.367188-1.121093 13.929688-11.101562 32.792969-16.261719 18.324219-5.011718 45.902343-6.253906 73.21875 16.304688 13.753906 11.359375 29.042969 14.984375 45.4375 10.773438 13.316406-3.421876 22.640625-10.792969 22.730469-10.867188 4.464843-3.652344 10.597656-4.378906 15.808593-1.910156 5.210938 2.46875 8.503907 7.742187 8.503907 13.511718-.003907 56.234376-45.75 101.980469-101.984376 101.980469zm0 0"/><path d="m133.070312 379.578125c-13.753906-11.359375-29.039062-14.984375-45.4375-10.773437-6.921874 1.777343-12.765624 4.621093-16.792968 6.957031 3.851562 36.171875 34.550781 64.445312 71.730468 64.445312 30.285157 0 56.273438-18.761719 66.949219-45.273437-1.054687.332031-2.132812.648437-3.230469.949218-18.324218 5.011719-45.898437 6.253907-73.21875-16.304687zm0 0"/><path d="m182.945312 48.6875v-33.765625c0-8.242187-6.679687-14.921875-14.921874-14.921875h-50.902344c-8.238282 0-14.921875 6.679688-14.921875 14.921875v33.765625zm0 0"/></svg>