<?xml version="1.0" encoding="iso-8859-1"?>
<!-- Generator: Adobe Illustrator 16.0.0, SVG Export Plug-In . SVG Version: 6.00 Build 0)  -->
<!DOCTYPE svg PUBLIC "-//W3C//DTD SVG 1.1//EN" "http://www.w3.org/Graphics/SVG/1.1/DTD/svg11.dtd">
<svg version="1.1" id="Capa_1" xmlns="http://www.w3.org/2000/svg" xmlns:xlink="http://www.w3.org/1999/xlink" x="0px" y="0px"
	 width="575.706px" height="575.706px" viewBox="0 0 575.706 575.706" style="enable-background:new 0 0 575.706 575.706;"
	 xml:space="preserve">
<g>
	<g>
		<path d="M1.98,294.025c1.706,0.069,3.415,0.069,5.218,0.057c4.717,1.273,9.393,2.693,14.019,4.256
			c5.924,4.186,11.62,8.694,17.055,13.492c0.697,1.379,1.925,2.636,3.227,3.113c0.114,0.041,0.232,0.082,0.355,0.118
			c1.11,1.028,2.203,2.073,3.289,3.125c1.114,1.404,2.215,2.815,3.366,4.19c1.298,1.551,2.746,2.975,4.08,4.492
			c4.651,5.288,9.298,10.584,13.917,15.899c0.551,2.526,1.758,5.108,3.644,6.573c2.546,1.983,5.104,3.949,7.67,5.912
			c0.163,0.265,0.363,0.514,0.575,0.677c4.537,5.904,9.759,11.232,15.521,15.888c4.019,4.088,8.217,7.997,12.603,11.697
			c3.199,2.697,6.475,5.316,9.841,7.806c3.019,2.235,6.185,4.427,9.776,5.643c3.782,1.281,8.042,1.379,11.665-0.021
			c9.266,5.818,18.654,11.44,28.16,16.854c2.077,1.183,4.158,2.358,6.254,3.631c0.045-0.008,0.09-0.012,0.135-0.021
			c5.161,2.885,10.375,5.712,15.667,8.364c-0.188,0.021-0.408,0.045-0.625,0.069c-0.065,0.191-0.126,0.388-0.192,0.584
			c3.823,1.46,7.646,2.921,11.469,4.382c10.816,4.133,21.2,8.221,32.681,10.22c12.122,2.113,24.537,2.407,36.736,0.8
			c2.509,0.759,5.341,0.359,7.544-1.057c1.942,0.763,4.268,0.453,5.944-0.787c18.336-5.847,35.305-15.933,49.198-29.25
			c10.669-16.259,22.949-31.191,33.113-47.895c0.823-0.854,1.644-1.706,2.456-2.562c0.334-0.351,0.232-1.11,0.375-1.901
			c1.771-0.281,3.876-0.118,5.716-1.607c0.845-0.686,5.569-1.555,6.03-1.946h0.425c0.506,0.399,1.134,0.641,1.815,0.641h0.682
			c0.195,0,0.383-0.021,0.566-0.058c1.71,0.119,2.689,1.028,3.464,2.208c-0.032,0.521,0.099,1.085,0.461,1.66
			c0.2,0.314,0.4,0.62,0.608,0.931c2.354,5.646,5.414,10.971,9.095,15.838c0.114,0.208,0.232,0.421,0.44,0.58
			c2.443,3.17,5.153,6.145,8.11,8.874c0.543,0.628,1.163,1.195,1.89,1.677c0.175,0.15,0.347,0.31,0.522,0.457
			c0.403,0.343,0.853,0.465,1.276,0.444c3.22,1.143,7.446,0.551,10.649,0.588c1.619,0.021,2.264-2.032,1.399-3.052
			c0.926-0.502,1.574-1.453,1.746-2.437c0.285,0.094,0.571,0.2,0.86,0.322c1.102,0.453,2.326-0.677,2.302-1.754
			c-0.041-2.089,1.261-3.521,3.276-3.893c1.782-0.326,1.595-2.488,0.362-3.264c-0.281-0.221-0.645-0.363-1.105-0.355
			c-0.534,0.009-1.044-0.045-1.538-0.143c-0.146-0.036-0.294-0.077-0.437-0.114c-0.135-0.098-0.281-0.191-0.444-0.273
			c-1.6-0.804-3.158-1.669-4.676-2.591c-1.555-1.22-3.072-2.533-4.773-3.391c-0.094-0.049-0.196-0.094-0.294-0.139
			c0.012-0.057,0.024-0.118,0.032-0.171c-0.701-0.526-1.534-1.15-2.443-1.832c-0.033,0.037-0.069,0.073-0.106,0.114
			c-0.575-0.478-1.139-0.963-1.697-1.457c-0.004-0.049-0.008-0.098-0.012-0.146c-0.062-0.008-0.123-0.017-0.184-0.024
			c-2.343-2.105-4.541-4.382-6.581-6.826c0.648-0.832,0.894-1.982,0.269-3.182c-1.175-2.261-2.35-4.517-3.529-6.777
			c0.225-0.18,0.445-0.363,0.653-0.559c0.31-0.29,0.424-0.771,0.567-1.24c1.207-0.665,2.423-1.314,3.644-1.959
			c0.546,0.629,1.346,1.032,2.228,1.032h0.681c1.612,0,2.958-1.347,2.958-2.954c0-0.351-0.065-0.686-0.184-0.999
			c0.082-0.041,0.163-0.078,0.241-0.118c0.448,0.779,1.265,1.346,2.439,1.346c2.02,0,2.967-1.656,2.848-3.215
			c0.082-0.041,0.155-0.081,0.221-0.114v-0.718c0.44-0.213,0.886-0.425,1.326-0.637c0.392,0.563,0.975,0.983,1.64,1.167
			c0.804,0.221,1.551,0.065,2.277-0.298c0.452-0.229,0.909-0.453,1.362-0.682c0.628-0.314,1.105-0.987,1.318-1.648
			c1.488-0.036,2.382-0.983,2.672-2.113c0.559-0.032,1.109-0.22,1.583-0.522c0.453,0.367,1.053,0.596,1.804,0.596
			c2.269,0,3.187-2.093,2.754-3.79c6.238-2.945,12.477-5.896,18.719-8.841c3.774-0.298,11.244,0.6,12.158-0.013
			c2.024,0.563,4.064,1.064,6.084,1.628c3.194,1.146,6.393,2.297,9.588,3.443c1.224,0.502,2.48,1.021,3.794,1.538
			c-0.008-0.065-0.017-0.122-0.021-0.184c1.518,0.547,3.036,1.09,4.554,1.637c0.094,0.032,0.188,0.061,0.281,0.094
			c15.076,5.912,30.657,10.388,46.839,10.697c2.982,1.478,6.471,1.824,9.689,0.938c0.779-0.212,1.534-0.51,2.313-0.86
			c0.069,1.42,1.021,2.786,2.852,2.786c2.526,0,3.375-2.591,2.559-4.341c-0.024-0.11-0.045-0.221-0.062-0.326
			c1.375-0.951,2.628-2.028,3.782-3.195c1.343-0.18,2.729-0.143,3.595-0.105c1.109,0.045,2.162-1.208,1.754-2.302
			c-0.485-1.297-0.628-2.692-0.326-4.006c0.641-1,1.253-2.024,1.836-3.061c1.318-1.109,3.085-1.746,3.99-3.264
			c0.927-1.555,1.045-3.248,0.519-4.966c1.081-1.979,2.138-3.974,3.134-5.993c0.591-0.086,1.183-0.266,1.782-0.392
			c-0.171-0.502-0.502-0.938-0.967-1.313c1.004-2.154,1.918-4.346,2.66-6.59c0.191-0.579-0.008-1.362-0.469-1.771
			c-1.498-1.326-1.526-3.823,0.253-4.949c0.718-0.457,1.02-1.228,0.836-2.052c-0.493-2.228-1.24-4.749-1.697-7.299
			c0.343-0.388,0.689-0.774,1.041-1.171c-0.429-0.191-0.861-0.338-1.29-0.461c-0.367-3.088-0.126-6.124,1.714-8.604
			c0.612-0.828,0.106-1.991-0.652-2.489c-2.146-1.415-2.057-3.166-2.057-5.43c0-0.225-0.041-0.466-0.11-0.71
			c0.065-0.184,0.127-0.367,0.196-0.563c-0.127,0.017-0.253,0.033-0.38,0.049c-0.616-1.456-2.052-3.068-2.722-4.145l-3.256-5.239
			c0.188,0.033,0.363,0.065,0.515,0.102c0.053-0.188,0.105-0.375,0.159-0.563c-0.363-0.061-0.727-0.139-1.105-0.237
			c-0.359-0.575-1.824-2.534-2.367-4.072c0.192-0.665,0.384-1.313,0.584-1.958c1.673-0.351,1.615-2.493,0.437-3.325
			c-2.134-1.497-4.264-2.991-6.397-4.488c0.053-0.114,0.105-0.229,0.159-0.351c-0.298-0.028-0.604-0.061-0.906-0.094
			c-0.253-0.094-0.502-0.114-0.734-0.078c-0.905-0.094-1.815-0.188-2.726-0.281c-0.257-0.106-0.53-0.196-0.828-0.265
			c-17.797-4.035-36.459,1.208-53.745,5.438c-15.108,3.696-30.054,8.013-44.815,12.905c-0.236,0.021-0.469,0.037-0.71,0.062
			c0.571-0.327-2.57-1.612-4.382-0.616c-0.094-0.065-0.191-0.123-0.289-0.184c1.138-1.057,2.398-1.853,3.732-2.497
			c7.034-2.17,14.072-4.341,21.106-6.512c1.216-0.245,2.432-0.489,3.635-0.792c1.253-0.318,2.465-0.804,3.701-1.269
			c0.681-0.037,1.33-0.424,1.57-1.273c0.837-2.946,3.432-5.178,6.516-5.406c1.571-0.118,2.085-1.815,1.53-2.852
			c0.759-0.686,1.428-1.934,1.963-2.62c1.465-1.877,1.13-4.268,2.627-6.226c1.408-1.84,3.329-2.901,5.598-3.252
			c2.094-0.322,1.493-3.529-0.481-3.574c-1.261-0.029-2.464-1.428-1.901-2.705c0.502-1.143-0.049-2.848-1.57-2.738
			c-1.51,0.11-3.64,0.453-4.994-0.416c-0.225-0.143-0.51-0.343-0.763-0.583c-0.155-0.208-0.318-0.412-0.481-0.612
			c-0.033-0.069-0.058-0.139-0.077-0.212c0.481-0.167,0.963-0.343,1.439-0.526c0.27,0,0.547-0.004,0.82-0.033
			c1.277-0.122,2.257-1.485,1.652-2.64c-0.09-0.163-0.212-0.318-0.367-0.465c-1.04-0.967-2.542-1.22-3.908-0.914
			c-1.894-0.771-3.244-2.583-3.22-4.843c0.013-1-0.836-1.812-1.819-1.819c-4.578-0.037-9.159-0.053-13.741-0.078
			c-1.534-1.302-3.068-2.603-4.603-3.905c-0.877-0.742-2.235-0.714-2.856,0.368c-1.04,1.815-2.603,2.933-4.3,3.427
			c-1.457-0.02-2.917-0.045-4.374-0.073c-2.488-0.808-4.537-2.934-4.818-6.177c-0.195-2.301-3.655-2.378-3.64,0
			c0.013,2.057-0.836,4.223-2.248,5.847c-2.19-0.094-4.382-0.2-6.621-0.334c0.057-0.139,0.109-0.29,0.171-0.469
			c-0.518,0.13-1.053,0.269-1.591,0.404c-1.261-0.041-2.53-0.037-3.795-0.016c-0.84-0.987-1.469-2.179-1.795-3.525
			c-0.367-1.521-2.574-1.795-3.325-0.437c-0.853,1.546-1.918,2.934-3.149,4.137c-0.335,0-0.67,0.004-0.955-0.073
			c-0.069,0.024-0.139,0.053-0.208,0.077c-2.86,0.004-5.732-0.004-8.576,0.208c-1.566,0.118-3.13,0.322-4.647,0.648
			c-2.203,0.086-4.427,0.645-6.03,1.86c-2.904,2.199-5.997,4.064-9.277,5.61c-1.894,0.71-3.815,1.318-5.786,1.815
			c-0.987,0.249-1.913,0.616-2.782,1.077c-2.109,0.596-4.043,1.734-5.536,3.476c-1.058,1.232-2.159,2.428-3.366,3.517
			c-0.392,0.351-0.788,0.702-1.188,1.041c-1.926,1.334-3.938,2.497-6.038,3.504c-2.302,0.845-4.651,1.485-7.059,1.93
			c-2.729,0.22-5.451,0.179-8.181-0.147c-1.118-0.135-2.301,0.012-3.468,0.343c-1.555-1.424-3.146-2.807-4.777-4.141
			c-5.998-4.888-12.317-9.258-18.915-13.077c-0.037-0.09-0.069-0.175-0.106-0.265c-0.032,0.049-0.069,0.094-0.102,0.143
			c-6.712-3.868-13.709-7.16-20.943-9.837c0.013-0.037,0.024-0.077,0.037-0.114c-2.354-0.779-4.7-1.603-7.07-2.33
			c-2.203-0.673-4.406-1.538-6.667-1.807c-7.026-1.779-14.231-2.999-21.58-3.623c-2.407-0.282-4.818-0.506-7.234-0.665
			c-2.326-0.151-4.655-0.241-6.985-0.273c-1.167-0.347-2.391-0.567-3.652-0.632c-30.339-1.624-61.102,3.309-89.609,14.063
			c-3.411,0.759-6.838,1.444-10.282,2.036c-0.951-0.175-1.897-0.351-2.835-0.526c-1.628-0.539-3.256-1.081-4.884-1.62
			c-1.244-5.553,5.79-12.114,9.156-15.512c6.353-6.406,12.913-12.599,19.71-18.527c1.195-1.041,2.399-2.073,3.606-3.101
			c0.478-0.126,0.942-0.416,1.359-0.922c0.22-0.265,0.449-0.526,0.669-0.795c5.61-4.692,11.354-9.213,17.226-13.57
			c3.782-1.118,7.568-2.24,11.351-3.358c4.427-1.31,9.331-2.211,13.513-4.19c3.374-1.6,5.655-5.341,3.603-8.756
			c-0.123-0.392-0.338-0.783-0.669-1.15c-3.121-3.46-8.274-4.619-12.726-3.464c-5.088,1.318-9.241,4.602-13.297,7.797
			c-8.462,6.667-16.189,14.178-23.105,22.432c-3.178,2.668-6.312,5.386-9.392,8.16c-7.181,6.458-14.606,13.06-20.922,20.383
			c-2.872,3.333-5.402,7.075-5.859,11.563c-0.037,0.359-0.053,0.714-0.065,1.073c-2.272-0.755-4.541-1.506-6.813-2.261
			c-2.778-0.922-5.063,2.983-2.876,4.941c0.967,0.865,1.938,1.73,2.905,2.599c-1.404-0.073-2.803-0.175-4.207-0.322
			c-1.979-0.327-3.945-0.73-5.896-1.216c-1.469-0.367-2.954-0.486-4.402-0.388c-3.55-1.391-7.732-1.273-11.424,0.771
			c-0.514,0.286-0.881,0.649-1.118,1.049c-1.13,0.135-2.154,0.514-3.048,1.069c-2.558,1.399-4.794,4.463-4.623,7.062
			c0.126,1.897,0.506,3.774,0.869,5.655c-10.71,3.472-20.775,8.882-29.588,15.879c-0.241,0.139-0.49,0.265-0.73,0.408
			c-0.518,0.298-0.881,0.677-1.114,1.093c-4.896,4.096-9.38,8.694-13.329,13.729c-2.326,2.962,1.828,7.177,4.182,4.182
			c4.268-5.443,9.139-10.326,14.479-14.59c8.642-4.794,18.046-7.989,27.785-9.433c0.061,0.445,0.122,0.894,0.184,1.342
			c-2.811,0.628-5.5,1.709-8.001,3.26c-1.179,0.73-1.53,1.877-1.347,2.938c-0.779,0.408-1.55,0.828-2.309,1.277
			c-0.171,0.069-0.343,0.155-0.518,0.265c-2.991,1.893-5.985,3.786-8.976,5.675c-2.705,1.714-0.934,6.736,2.277,5.402
			c6.585-2.729,13.464-4.264,20.498-4.565c0.155,3.374,0.306,6.687,0.453,9.992c0.008,0.147-0.106,0.318-0.065,0.445
			c0.318,0.894,0.465,1.681,0.441,2.371l-0.747,0.098c-1.595,0.213-2.958,1.184-2.958,2.954c0,0.062,0.004,0.122,0.012,0.184
			c-0.204,0.033-0.408,0.058-0.628,0.078c0.465,0.342,0.591,0.497,0.722,0.452c0.343,1.24,1.509,2.42,2.852,2.24
			c0.424-0.058,0.849-0.114,1.273-0.172c0.021,0.144,0.041,0.282,0.065,0.441c0.074,0.502,0.143,1.003,0.212,1.51
			c-7.724,1.158-15.202,3.382-22.281,6.679c-0.387,0.11-0.771,0.216-1.159,0.343c-0.596,0.191-1.044,0.506-1.375,0.894
			c-0.771,0.392-1.542,0.795-2.305,1.216c-3.357,1.848-0.396,6.81,2.982,5.104c1.836-0.926,3.721-1.729,5.647-2.428
			c4.019-0.889,8.144-1.097,12.191-0.611l1.2,0.354c-8.507,3.374-16.548,7.862-23.868,13.398c-2.823,2.135-0.383,6.81,2.448,5.435
			c0.685,0.024,1.399-0.179,2.048-0.701c7.564-6.1,16.822-9.764,26.43-10.734c0.102,0.13,0.2,0.27,0.286,0.416
			c0.074,1.146,0.139,2.289,0.208,3.436c-0.057,0.118-0.123,0.236-0.2,0.343c0.11,0.538,0.212,1.032,0.31,1.501
			c0.037,0.624,0.078,1.249,0.114,1.873c-4.271-0.262-8.597,0.135-12.852,1.228c-3.692,0.947-2.125,6.65,1.571,5.7
			c3.803-0.979,7.724-1.322,11.6-1.032c0.383,7.446,0.677,14.9,0.906,22.354h-3.933c-0.935,0-1.779,0.457-2.326,1.15
			c-0.894-0.131-1.832,0.184-2.587,0.812c-1.599,1.339-3.199,2.677-4.802,4.015c-0.519-0.407-1.032-0.828-1.555-1.231
			c1.057-1.167,2.118-2.338,3.174-3.505c1.081-1.191,1.179-2.999,0-4.183c-1.098-1.097-3.097-1.195-4.182,0
			c-1.24,1.371-2.485,2.742-3.725,4.113c-8.519-6.287-17.454-12.004-26.72-17.12c0.955-1.302,0.216-3.292-1.061-4.039
			c-1.501-0.881-3.092-0.232-4.043,1.061c-0.041,0.058-0.086,0.114-0.126,0.176c-1.151-0.596-2.305-1.179-3.464-1.759
			c-0.106-0.122-0.212-0.208-0.327-0.212c-0.045-0.004-0.082-0.008-0.126-0.012c-0.192-0.095-0.383-0.192-0.571-0.286
			c4.309-5.247,9.372-9.857,14.99-13.672c3.125-2.122,0.383-6.976-2.983-5.104c-7.446,4.145-14.81,8.437-22.085,12.876
			c-0.155,0.094-0.29,0.195-0.416,0.302c-0.881-0.461-1.754-0.935-2.644-1.379c-0.918-0.645-1.832-1.289-2.75-1.934
			c-0.049-0.213-0.041-0.429,0-0.649c5.128-5.528,10.808-10.509,16.936-14.859c9.049-4.618,18.103-9.241,27.152-13.859
			c2.905-1.485,1.134-5.427-1.559-5.455c-0.42-0.069-0.894-0.033-1.408,0.155c-9.657,3.464-18.796,8.2-27.156,14.052
			c-7.699,3.929-15.398,7.861-23.097,11.791c-0.702,0.358-1.126,0.856-1.334,1.411c-0.306-0.199-0.612-0.392-0.918-0.587
			c0.604-1.011,1.216-2.043,1.836-3.088c5.23-6.418,11.652-11.763,18.952-15.79c2.795-1.542,1.154-5.373-1.412-5.495
			c-0.437-0.094-0.89-0.078-1.322,0.102c-0.808,0.335-1.603,0.686-2.448,0.979c-0.065,0.057-0.135,0.118-0.2,0.176
			c-8.021,3.655-15.381,8.526-21.783,14.528c5.492-9.221,14.479-16.263,24.778-19.364c1.424-0.428,2.048-1.562,2.068-2.717
			c1.351-1.999-0.225-5.475-3.146-4.573c-8.434,2.603-15.969,7.221-22.089,13.297c-0.073-0.062-0.147-0.123-0.224-0.18
			c-1.163,1.416-2.326,2.831-3.484,4.247c-3.382,4.112-6.189,8.731-8.315,13.814c-3.035,0.69-5.793,2.367-7.817,5.389
			c-0.608,0.906-0.625,1.792-0.29,2.526C-0.231,293.36,0.247,293.956,1.98,294.025z M104.095,332.03
			c0.102-0.086,0.188-0.18,0.273-0.273c0.151,0.024,0.306,0.041,0.461,0.041h3.941c0.053,0,0.106-0.004,0.159-0.008
			c0.021,0.815,0.037,1.628,0.053,2.443c-0.474,1.485-1.089,2.934-1.392,4.451c-0.241,1.212-0.114,2.518,0.029,3.774
			c-0.535-0.485-1.073-0.971-1.612-1.448c0.041-0.27,0.098-0.575,0.167-0.935c-0.18,0.236-0.355,0.444-0.522,0.624
			c-1.934-1.713-3.896-3.398-5.883-5.051C101.214,334.438,102.655,333.234,104.095,332.03z"/>
	</g>
</g>
<g>
</g>
<g>
</g>
<g>
</g>
<g>
</g>
<g>
</g>
<g>
</g>
<g>
</g>
<g>
</g>
<g>
</g>
<g>
</g>
<g>
</g>
<g>
</g>
<g>
</g>
<g>
</g>
<g>
</g>
</svg>
