<?xml version="1.0" encoding="iso-8859-1"?>
<!-- Generator: Adobe Illustrator 16.0.0, SVG Export Plug-In . SVG Version: 6.00 Build 0)  -->
<!DOCTYPE svg PUBLIC "-//W3C//DTD SVG 1.1//EN" "http://www.w3.org/Graphics/SVG/1.1/DTD/svg11.dtd">
<svg version="1.1" id="Capa_1" xmlns="http://www.w3.org/2000/svg" xmlns:xlink="http://www.w3.org/1999/xlink" x="0px" y="0px"
	 width="594.686px" height="594.686px" viewBox="0 0 594.686 594.686" style="enable-background:new 0 0 594.686 594.686;"
	 xml:space="preserve">
<g>
	<g>
		<path d="M592.081,279.48c-7.242-5.573-16.161-11.702-27.381-14.904c-14.183-4.051-26.688-1.779-37.585,6.765
			c-3.072,2.411-6.152,4.806-9.237,7.205c-7.181,5.585-14.606,11.363-21.795,17.206c-4.146,3.357-9.025,2.644-11.355-1.836
			c-1.84-3.542-2.962-6.218-2.423-7.785c0.453-1.33,2.358-2.668,6.577-4.619c1.138-0.526,2.337-0.967,3.528-1.412
			c2.362-0.877,4.803-1.783,6.924-3.309c1.987-1.436,3.313-3.5,4.59-5.504c0.507-0.787,1.008-1.579,1.551-2.309
			c0,0,0.281-0.384,0.633-0.853c0.351-0.469,0.24-1.122-0.245-1.449l-0.873-0.596c-0.221-0.147-0.433-0.347-0.657-0.539
			c-0.767-0.677-1.726-1.518-3.284-1.518c-2.19,0.212-4.333,0.551-6.479,0.885c-1.946,0.306-3.889,0.612-5.852,0.82
			c-2.889,0.31-6.181,0.408-9.363,0.298c-0.102-0.004-0.232-0.037-0.371-0.09c-0.196-0.074-0.273-0.27-0.172-0.404
			c0.074-0.098,0.147-0.175,0.204-0.224c3.518-2.685,7.381-5.488,12.521-9.082c1.832-1.281,4.023-2.762,6.373-4.011
			c4.855-2.583,7.246-6.977,7.304-13.436c0.004-0.71-0.11-1.403-0.339-2.068c-0.384-1.102-0.763-2.02-0.461-2.236
			s0.249-0.277-0.114-0.143c-0.363,0.135-0.751,0.131-0.873-0.004c-0.073-0.082-0.151-0.163-0.232-0.241
			c-2.473-2.497-6.985-3.595-10.241-2.416c-2.419,0.877-4.773,1.938-7.055,2.962c-1.583,0.71-3.157,1.42-4.761,2.072l-1.126,0.461
			c-2.171,0.906-4.228,1.758-6.292,2.068c-0.555,0.078-1.175,0.045-1.733-0.037c-0.951-0.139-2.783-1.905-3.199-4.015
			c-0.351-1.763-0.008-3.17,0.674-3.66c1.615-1.163,3.361-2.142,5.214-3.174c1.641-0.922,3.288-1.84,4.839-2.893
			c1.392-0.934,2.411-2.179,3.402-3.386c0.339-0.416,0.682-0.832,1.041-1.232c0.15-0.171,0.265-0.343,0.351-0.502
			c0.159-0.298,0.534-1.028,0.996-1.571c0.277-0.327,0.555-0.653,0.836-0.979c0,0,0.616-0.718,1.375-1.607
			c0.759-0.889,0.645-1.779-0.253-1.991l-1.624-0.384c-0.42-0.098-0.836-0.232-1.257-0.359c-1.027-0.318-2.134-0.722-3.766-0.669
			c-1.632,0.082-3.215,0.368-4.749,0.641c-0.979,0.18-1.963,0.359-2.954,0.478c-0.15,0.016-0.298,0.028-0.453,0.041
			c-0.248,0.017-0.057-0.494,0.474-1.093c0.331-0.379,0.661-0.726,1.004-1.044l2.762-2.566c5.125-4.765,10.421-9.69,15.884-14.186
			c4.125-3.391,5.81-7.328,5.161-12.028c-0.266-1.958-2.419-3.884-4.166-4.296c-4.149-0.955-8.025,1.11-11.126,2.975
			c-6.821,4.104-14.161,8.25-22.269,9.938c-1.991,0.408-3.859,0.498-5.659,0.253c-2.231-0.302-3.26-2.109-2.264-3.228
			c0.583-0.657,1.216-1.31,1.86-1.975c3.398-3.501,7.625-7.862,5.789-15.488c0,0-0.131-0.542-0.294-1.212
			c-0.163-0.669-1.95-0.44-3.99,0.514l-0.71,0.331c-2.04,0.955-3.166,1.098-2.497,0.331c0.404-0.465,0.809-0.926,1.217-1.383
			c1.13-1.269,2.309-2.489,3.488-3.708c1.812-1.877,3.684-3.819,5.369-5.908c4.292-5.328,3.684-12.97-1.363-17.042
			c-0.987-0.788-2.321-0.955-3.268-0.955c-1.208,0-2.379,0.273-3.207,0.759c-3.089,1.783-6.092,3.708-9.095,5.639
			c-1.791,1.15-3.586,2.301-5.397,3.427c-1.497,0.926-2.982,1.86-4.472,2.803c-4.537,2.868-9.233,5.834-14.039,8.258
			c-0.914,0.465-1.726,0.372-2.293-0.265c-0.519-0.587-0.747-1.509-0.624-2.534c0.343-2.835,1.085-5.169,2.146-6.74
			c5.247-7.772,10.27-14.684,15.345-21.122c2.836-3.594,4.06-7.279,3.741-11.273c-0.154-1.958-1.538-4.194-3.149-5.083
			c-1.624-0.894-4.492,0.22-5.798,1.403c-2.256,2.048-4.455,4.162-6.65,6.275c-4.002,3.848-8.147,7.83-12.529,11.265
			c-3.338,2.611-7.903,4.06-12.313,5.463c0,0-0.106,0.033-0.232,0.074c-0.127,0.041-0.808-0.021-1.465-0.298
			c-0.38-0.159-0.792-0.351-1.179-0.535c-0.09-0.041-0.184-0.085-0.273-0.126c-0.155-0.069-0.065-0.653,0.199-1.301
			c0.163-0.396,0.322-0.788,0.485-1.175c1.294-3.146,2.521-6.12,3.566-9.217c1.109-3.28,1.84-6.687,2.55-9.976l0.245-1.126
			c0.188-0.849-0.106-1.758-0.865-2.701c-0.322-0.396-0.648-0.706-0.983-0.922c-0.628-0.408-1.387-0.383-1.521-0.371
			s-1.322,0.204-2.554,0.706c-0.727,0.298-1.437,0.702-2.008,1.297c-1.783,1.849-3.509,3.742-5.238,5.635
			c-2.208,2.419-4.415,4.843-6.729,7.148c-0.122,0.123-0.363,0.232-0.661,0.331c-0.388,0.126-0.783-0.204-0.808-0.702
			c-0.021-0.343-0.004-0.653,0.065-0.894c0.979-3.313,2.057-6.598,3.129-9.882c1.583-4.847,3.22-9.861,4.533-14.904
			c0.897-3.456,1.171-7.054,1.44-10.53c0.114-1.55,0.236-3.109,0.412-4.66c0,0,0.049-0.428,0.105-0.958
			c0.058-0.53-0.317-1.032-0.844-1.118l-0.951-0.163c-0.812-0.135-1.521-0.241-2.158-0.331c-1.081-0.155-1.93-0.261-2.726-0.51
			c-3.052-0.963-5.206,0.012-6.605,2.774l-1.179,2.33c-2.636,5.21-5.361,10.604-8.307,15.724c-1.71,2.983-3.722,5.904-5.672,8.731
			c-0.253,0.371-0.51,0.738-0.763,1.11c-0.42,0.612-2.391,0.2-3.925-1.453c-2.521-2.713-2.036-5.333-0.686-10.628
			c1.15-4.517,2.603-9.078,4.002-13.48c1.118-3.521,2.24-7.046,3.236-10.604c0.975-3.493,1.403-7.116,1.812-10.625l0.102-0.873
			c0.229-1.861-1.774-3.705-3.215-4.117c-0.616-0.167-1.371-0.266-2.064-0.266c-1.469,0-2.542,0.412-3.195,1.216
			c-2.162,2.677-4.296,5.655-6.711,9.364c-2.102,3.228-4.162,6.483-6.218,9.739c-2.053,3.24-4.101,6.479-6.193,9.69
			c-2.285,3.504-5.925,5.81-11.457,7.238c-0.946,0.249-1.697,0.253-1.901,0.024c-0.098-0.102-0.571-0.759-0.354-3.178
			c0.326-3.66,0.538-7.332,0.754-11.077c0,0,0.099-1.648,0.225-3.676c0.127-2.028-0.313-3.623-0.975-3.554l-1.2,0.126
			c-3.28,0.339-5.72,1.354-6.988,5.194c-1.045,3.17-2.525,6.328-3.958,9.376c-0.648,1.379-1.293,2.758-1.909,4.149
			c-0.445,1.003-0.906,1.53-1.457,1.767c-1.191,0.51-2.269-0.485-2.224-1.041l0.086-1.003c0.249-2.925,0.502-5.916,0.641-8.915
			c0.306-6.401,0.604-13.223,0.641-20.004c0.012-1.893-0.461-3.333-1.403-4.284c-1.478-1.477-3.767-1.567-6.618-0.049
			c-3.133,1.668-4.443,4.104-5.442,7.25c-1.396,4.378-3.003,8.792-4.562,13.064c-1.387,3.811-2.779,7.622-4.043,11.469
			c-0.265,0.804-0.473,0.804-0.677,0.804c-0.175,0-0.379-0.033-0.592-0.078c-0.322-0.069-1.036-0.498-1.428-1.081
			c-0.392-0.583-0.649-1.432-0.608-1.824c0.028-0.245,0.065-0.506,0.094-0.702l0.11-0.828c0.44-4.039,0.906-8.074,1.367-12.113
			c0,0,0.159-1.392,0.355-3.105c0.196-1.714,0.012-3.223-0.412-3.374l-0.767-0.27c-1.008-0.355-1.897-0.526-2.726-0.526
			c-3.827,0-5.083,3.721-5.5,4.945c-1.399,4.149-3.313,8.086-5.492,12.439c-0.082,0.164-0.155,0.302-0.225,0.425
			c-0.13,0.228-0.49,0.191-0.734-0.094c-0.126-0.147-0.269-0.322-0.428-0.534c-3.791-5.027-4.986-10.816-6.157-17.867
			c-1.196-7.193-2.501-14.365-3.815-21.534l-0.828-4.557c-0.119-0.661-0.396-1.163-0.767-1.853c-0.2-0.359-0.449-0.824-0.771-1.464
			c0,0-0.351-0.706-0.784-1.579s-1.224-0.922-1.763-0.11l-0.975,1.465c-0.449,0.677-0.922,1.269-1.351,1.812
			c-1.012,1.273-1.962,2.473-2.211,4.031c-0.628,3.994-1.13,8.005-1.632,12.016c-0.518,4.149-1.036,8.298-1.701,12.423
			c-0.62,3.888-1.546,7.833-2.444,11.645c-0.188,0.804-0.379,1.607-0.551,2.382c-0.294,1.318-1.028,2.995-1.706,3.725
			c-0.677,0.73-1.611,0.963-2.036,0.465c-0.286-0.334-0.519-0.661-0.657-0.987c-1.668-3.852-3.174-7.776-4.72-11.799
			c0,0-0.563-1.453-1.261-3.244c-0.694-1.791-2.722-2.758-4.529-2.158c-1.808,0.6-3.272,1.416-3.272,1.819v0.734
			c0,1.918,0.021,3.799,0.037,5.659c0.037,3.549,0.074,6.96-0.02,10.277c-0.062,2.252-0.506,4.517-1.016,4.953
			c-0.318,0.273-0.669,0.551-0.938,0.767c-0.134,0.106-1.008-3.105-1.008-3.105c-1.016-3.77-2.036-7.54-3.154-11.277
			c-0.865-2.893-1.971-5.737-3.292-8.466c-0.763-1.562-2.97-2.142-4.178-2.142c-0.31,0-0.604,0.032-0.877,0.094
			c-7.054,1.644-7.646,7.756-8.078,12.22l-0.208,2.162c-0.514,5.243-1.048,10.665-1.171,16.042c-0.02,0.857-0.082,3.472-5.141,4.492
			c-1.126,0.22-1.567-0.028-2.366-2.835l-0.155-0.53c-0.485-1.641-0.779-3.346-1.098-5.157c-0.298-1.747-0.604-3.493-1.077-5.186
			c-0.184-0.669-0.812-1.918-1.697-2.946c-1.232-1.432-2.978-1.66-3.113-1.644l-0.245,0.024c-1.563,0.322-4.174,1.518-4.129,5.892
			c0.069,6.434-0.718,13.023-1.412,18.837c-0.122,0.996-1.477,1.138-2.64,0.363c-9.539-6.394-16.369-15.096-20.89-26.602
			c-0.192-0.494-0.286-1.057-0.4-1.624c-0.387-2.007-1.036-5.374-5.186-6.259c-0.714-0.151-1.342-0.229-1.922-0.229
			c-2.048,0-4.524,0.955-4.675,5.496c-0.192,6.026,1.55,11.501,3.239,16.801c1.061,3.329,2.064,6.483,2.62,9.759
			c0.787,4.655,1.265,9.258,1.407,13.68c0.012,0.351,0,0.645-0.016,0.881c-0.037,0.485-0.498,0.795-0.914,0.571
			c-0.204-0.11-0.445-0.257-0.726-0.457c-2.22-1.583-4.37-3.419-6.451-5.19c-1.595-1.358-3.187-2.721-4.843-3.998
			c-1.53-1.191-4.068-2.591-5.985-2.064c-3.35,0.926-3.129,4.08-3.007,5.773l0.049,0.788c0.028,0.734,0.102,1.436,0.22,2.113
			c0.204,1.155-0.139,1.64-1.057,1.347c-0.575-0.184-1.155-0.29-1.713-0.29l-0.641,0.049c-3.179,0.477-3.346,3.472-3.427,4.908
			c-0.021,0.375-0.037,0.759-0.09,1.126c-0.681,4.529,0.902,8.356,2.293,11.73c0.795,1.93,1.55,3.753,1.905,5.639
			c0.123,0.641,0.2,1.204,0.245,1.681c0.094,0.935-0.648,1.804-1.603,1.726c-0.576-0.049-1.196-0.147-1.697-0.334
			c-2.138-0.792-4.19-1.787-6.361-2.836c-1.498-0.73-2.999-1.452-4.529-2.113c-1.057-0.457-2.126-0.469-3.072-0.481
			c-0.318-0.004-0.637-0.008-0.942-0.037c0,0-0.474-0.041-1.061-0.094c-0.587-0.053-1.098,0.661-1.138,1.591l-0.082,1.689
			c-0.037,0.82-0.074,1.636-0.119,2.464c-0.277,4.708,2.668,7.373,5.039,9.51c0.632,0.575,1.273,1.146,1.856,1.767
			c0.069,0.074,0.13,0.151,0.196,0.241c0.102,0.139,0.13,0.261,0.073,0.249c-0.041-0.008-0.077-0.016-0.102-0.029
			c-1.595-0.518-3.194-1.02-4.802-1.521c-5.443-1.709-11.073-3.48-16.271-5.814c-4.545-2.044-8.801-4.582-13.309-7.271
			c-1.979-1.183-3.974-2.37-5.994-3.513c0,0-0.265-0.151-0.596-0.339c-0.326-0.188-0.836-0.151-1.13,0.082l-0.539,0.42
			c-2.044,1.596-3.33,3.864-3.631,6.39c-0.322,2.713,0.539,5.504,2.416,7.858c3.154,3.966,6.63,7.736,9.988,11.387l1.632,1.775
			c5.753,6.267,9.572,12.028,12.016,18.136c0.085,0.22,0.163,0.42,0.224,0.595c0.123,0.331,0.004,0.6-0.236,0.583
			c-0.139-0.008-0.282-0.02-0.433-0.037c-3.411-0.318-6.887-0.894-10.249-1.444c-1.962-0.326-3.933-0.648-5.896-0.93
			c-0.987-0.143-1.999-0.11-3.011-0.078c0,0-1.024,0.008-2.289,0.021c-1.265,0.012-1.914,0.698-1.444,1.53l0.844,1.509
			c0.196,0.355,0.433,0.706,0.678,1.057c0.22,0.323,0.555,0.808,0.591,0.988c0.625,6.377,5.296,8.502,9.045,10.208
			c1.093,0.494,2.183,0.987,3.178,1.587c2.057,1.245,3.337,3.529,3.337,5.978c0.004,2.064-0.951,3.827-2.615,4.834
			c-9.082,5.496-14.447,13.893-19.633,22.016c-0.992,1.551-1.983,3.105-3.003,4.639c-4.104,6.189-3.917,12.419,0.542,18.025
			c2.346,2.95,0.947,7.038-1.342,9.588c-5.851,6.512-10.706,14.366-15.292,24.713c-4.068,9.172-7.564,17.507-9.147,26.65
			c-0.106,0.607-0.167,1.229-0.229,1.844c-0.053,0.584-0.102,1.167-0.22,1.734c-0.392,1.856-0.608,2.231-2.293,2.338
			c-4.027,0.266-7.23,2.782-9.266,7.267c-0.678,1.489-1.298,3.007-1.926,4.524c-2.138,5.202-4.158,10.114-8.246,13.889
			c-2.517,2.329-3.819,3.117-5.141,3.117c-1.085,0-2.521-0.506-4.806-1.697c-1.163-0.604-2.326-0.416-3.154-0.502
			c0,0-0.343-0.033-0.767-0.073c-0.424-0.041-0.894,0.248-1.048,0.645l-0.282,0.718c-3.843,9.878-0.31,19.388,9.955,26.772
			c2.636,1.894,5.133,3.077,7.414,3.518c5.182,0.999,9.458,1.461,13.476,1.461c6.389,0,12.02-1.216,17.213-3.718
			c0.759-0.367,1.461-0.555,2.089-0.555c0.677,0,1.746,0.18,3.244,1.71l5.585,5.704c4.345,4.435,8.694,8.865,12.95,13.325
			c1.555,1.628,2.962,3.292,3.027,3.729s-0.991,2.265-2.358,4.015c-0.828,1.062-1.672,2.114-2.505,3.146
			c-1.371,1.705-2.746,3.406-4.043,5.173c-0.983,1.334-2.122,4.027-1.211,5.978c1.636,3.488,4.908,4.822,7.911,3.183
			c1.652-0.902,3.178-1.976,4.659-3.016c0.747-0.522,1.489-1.049,2.248-1.546c0.641-0.421,1.273-0.861,1.905-1.302
			c1.583-1.105,3.072-2.146,4.664-2.832c0.175-0.073,0.326-0.13,0.449-0.175c0.249-0.094,0.371-0.037,0.314,0.244
			c-0.029,0.144-0.07,0.311-0.135,0.502c-0.596,1.812-1.457,4.134-2.795,5.985c-2.44,3.379-2.256,7.189,0.465,9.707
			c1.362,1.256,3.382,1.403,4.786,1.403c0.881,0,1.787-0.069,2.717-0.143c1.408-0.106,2.53-0.854,3.521-1.51
			c0.302-0.2,0.604-0.404,0.91-0.571c0.751-0.42,1.706-0.902,2.428-0.902c0.298,0,0.669,0.078,1.167,0.616
			c2.219,2.399,2.542,3.48,1.489,5.031c-0.583,0.864-1.151,1.746-1.726,2.623c-1.709,2.628-3.325,5.108-5.259,7.34
			c-4.382,5.051-9.054,9.82-13.856,14.668c-2.705,2.729-2.778,5.944-0.224,9.556c1.485,2.113,3.378,2.554,4.7,2.554
			c1.285,0,2.627-0.412,3.978-1.224c0.747-0.449,1.44-1.017,2.126-1.584c0.743-0.611,1.44-1.195,2.122-1.473l1.795-0.734
			c7.577-3.088,15.415-6.279,23.248-8.943c2.697-0.922,8.552,2.261,9.776,5.312c0.163,0.408,0.073,1.448-0.253,2.007
			c-3.938,6.798-7.638,12.914-11.31,18.69c-2.109,3.313-2.036,9.58,1.216,12.383c3.28,2.836,8.421,2.538,11.542-0.75
			c2.411-2.55,4.667-5.279,6.846-7.92c0.947-1.142,1.897-2.293,2.86-3.427l0.824-0.987c0.58-0.697,1.155-1.396,1.767-2.064
			c2.387-2.611,3.627-3.533,4.737-3.533c1.171,0,2.872,0.894,5.071,2.24c2.399,1.464,4.777,2.982,7.124,4.541
			c5.696,3.79,5.696,3.79,4.439,10.579c-1.33,7.152-3.26,15.472-7.495,22.954c-0.857,1.501-1.42,3.256-1.587,4.94
			c-0.041,0.421-0.334,4.121,1.82,5.341c1.081,0.612,2.309,0.743,3.15,0.743c0.873,0,1.75-0.135,2.529-0.388
			c1.297-0.425,2.175-1.448,2.885-2.277c0.204-0.24,0.408-0.477,0.616-0.693c2-2.02,3.978-4.06,5.957-6.104
			c4.802-4.953,9.771-10.077,14.92-14.781c2.277-2.085,6.063-3.162,8.715-3.795c1.273-0.311,1.95,0.131,2.069,0.27
			c0.396,0.473,0.51,1.448,0.298,2.611l-0.502,2.762c-0.734,3.979-1.489,8.087-2.007,12.188c-0.306,2.432-0.184,5.079,0.355,7.666
			c0.767,3.713,3.594,6.205,7.026,6.205c1.95,0,3.88-0.832,5.442-2.342c1.906-1.84,3.109-4.26,3.787-5.965
			c1.204-3.031,2.252-6.124,3.3-9.221c0.465-1.383,0.935-2.771,1.42-4.149l0.151-0.429c1.077-3.108,1.73-4.386,4.215-4.545
			c3.121,0,4.794,3.068,5.516,4.896c3.603,9.143,5.696,19.343,6.401,31.184c0.025,0.437,0.017,0.905,0.008,1.383
			c-0.033,2.142-0.094,6.605,4.66,7.091l0.265,0.017c2.423,0,4.439-3.864,5.704-7.104c2.603-6.65,5.1-13.337,7.597-20.024
			c1.35-3.619,2.701-7.233,4.067-10.853c0.392-1.037,0.902-1.971,1.469-2.701c1.399-1.795,3.423-2.484,5.275-1.771
			c0.955,0.367,2.211,1.958,2.737,3.476c0.567,1.616,0.804,3.403,1.061,5.296c0.159,1.18,0.322,2.362,0.559,3.525l0.232,1.139
			c0.469,2.366,0.955,4.81,1.995,7.091c0.677,1.477,1.995,2.411,3.162,3.235c0.408,0.285,0.816,0.575,1.179,0.886
			c0,0,0.363,0.31,0.812,0.693c0.449,0.383,1.106,0.318,1.469-0.147l0.657-0.845c0.293-0.383,0.648-0.75,1-1.113
			c0.996-1.049,2.125-2.236,2.473-3.839c0.669-3.077,1.154-6.206,1.624-9.241c0.355-2.298,0.71-4.603,1.146-6.888
			c0.306-1.615,0.935-3.146,1.722-4.198c2.069-2.795,6.381-2.685,7.993,0.253c3.346,6.133,6.202,12.525,8.784,18.527
			c1.024,2.375,1.808,4.822,2.636,7.409c0.502,1.571,1.008,3.138,1.562,4.68c0.135,0.38,0.253,0.792,0.372,1.22
			c0.566,2.016,1.518,5.395,5.165,5.395c0.424,0,0.881-0.054,1.342-0.155c4.215-0.938,5.655-5.292,5.211-9.185
			c-1.388-12.26,1.346-24.341,4.019-34.7c1.175-4.573,6.765-8.417,11.754-7.649c0.67,0.102,1.971,1.13,2.481,2.146
			c1.053,2.089,1.827,4.312,2.651,6.667c0.372,1.057,0.739,2.109,1.131,3.146l0.253,0.674c0.42,1.13,0.844,2.264,1.407,3.32
			c1.934,3.627,5.296,5.182,9.106,4.19c3.456-0.905,5.418-3.819,5.251-7.789c-0.216-5.034-0.596-9.91-1.134-14.476l-0.099-0.808
			c-0.403-3.154-0.379-4.26,1.457-5.264c1.722-0.938,2.999-1.379,4.026-1.379c0.85,0,1.971,0.253,3.844,2.158
			c6.544,6.646,11.004,15.019,15.32,23.117l1.105,2.069c0.123,0.224,0.221,0.477,0.318,0.726c0.311,0.779,0.698,1.755,1.571,2.465
			c1.624,1.313,3.138,1.986,4.843,1.986c1.979-0.159,4.174-2.541,4.174-4.467c0-3.55-0.229-7.296-0.718-11.792
			c-0.359-3.26-0.759-6.52-1.155-9.775c-0.718-5.875-1.456-11.954-1.93-17.932c-0.118-1.57,0.8-3.966,1.942-5.026
			c3.309-3.097,7.25-5.745,11.061-8.307l0.502-0.335c1.199-0.815,2.285-0.339,3.411,1.135c2.28,2.974,4.459,6.025,6.642,9.077
			c0,0,0.515,0.735,1.151,1.641c0.636,0.905,1.207,1.787,1.285,1.958c0.045,0.106,0.098,0.209,0.15,0.307
			c0.816,1.51,2.734,5.047,6.639,5.047c0.673,0,1.383-0.106,2.109-0.322c1.346-0.396,2.562-1.518,3.419-3.158
			c1.183-2.261,1.489-5.071,0.787-7.169c-1.84-5.491-4.011-11.86-6.454-17.996c-1.424-3.574-1.29-5.084,0.583-6.725l1.261-1.134
			c2.75-2.518,5.182-4.603,8.352-2.934c5.721,3.016,9.992,5.834,13.436,8.857c2.403,2.109,4.484,4.558,6.684,7.156
			c1.652,1.95,3.365,3.966,5.227,5.826c1.795,1.792,5.63,2.86,7.633,1.865c1.359-0.665,2.351-1.824,2.795-3.26
			c0.519-1.686,0.253-3.595-0.755-5.361c-0.645-1.146-1.142-2.407-1.668-3.741l-3.64-8.801c-3.411-8.205-6.826-16.41-10.094-24.676
			c-0.502-1.27-0.624-3.126-0.343-5.092c0.502-3.529,4.186-5.504,7.499-3.791c3.097,1.616,5.903,3.754,8.882,6.019
			c1.18,0.901,2.358,1.795,3.558,2.66c1.526,1.105,3.003,1.66,4.395,1.66c1.913,0,4.146-1.195,4.68-4.553
			c0.375-2.375-0.261-5.284-1.587-7.238c-1.983-2.938-4.153-5.789-6.242-8.548c-1.616-2.13-3.235-4.264-4.786-6.442
			c-1.51-2.129-1.579-4.063-0.225-6.462c1.229-2.171,2.212-4.468,3.162-6.688c0.742-1.734,1.485-3.472,2.346-5.141
			c0.151-0.294,0.38-0.604,0.596-0.873c0.363-0.457,1.131-0.543,1.583,0.008c0.262,0.314,0.515,0.689,0.706,1.077
			c1.489,3.064,2.518,5.761,3.142,8.25c3.395,13.509,12.501,22.272,28.67,27.585c4.003,1.313,8.201,1.934,12.293,2.533l0.665,0.049
			c2.298,0,4.709-1.628,6.084-3.239c1.22-1.436,1.746-2.93,1.518-4.316c-0.404-2.505-3.203-4.365-4.635-5.002
			c-3.672-1.628-6.06-5.741-5.431-9.368c3.023-17.507,8.221-32.982,15.879-47.312c10.221-19.144,22.457-36.141,36.361-50.522
			c6.663-6.887,11.481-8.299,17.825-5.598c2.991,1.289,6.019,0.037,7.483-3.097C594.831,284.976,595.695,282.267,592.081,279.48z"/>
	</g>
</g>
<g>
</g>
<g>
</g>
<g>
</g>
<g>
</g>
<g>
</g>
<g>
</g>
<g>
</g>
<g>
</g>
<g>
</g>
<g>
</g>
<g>
</g>
<g>
</g>
<g>
</g>
<g>
</g>
<g>
</g>
</svg>
