<?xml version="1.0" encoding="iso-8859-1"?>
<!-- Generator: Adobe Illustrator 16.0.0, SVG Export Plug-In . SVG Version: 6.00 Build 0)  -->
<!DOCTYPE svg PUBLIC "-//W3C//DTD SVG 1.1//EN" "http://www.w3.org/Graphics/SVG/1.1/DTD/svg11.dtd">
<svg version="1.1" id="Capa_1" xmlns="http://www.w3.org/2000/svg" xmlns:xlink="http://www.w3.org/1999/xlink" x="0px" y="0px"
	 width="595.486px" height="595.487px" viewBox="0 0 595.486 595.487" style="enable-background:new 0 0 595.486 595.487;"
	 xml:space="preserve">
<g>
	<path d="M9.319,507.644c8.923-18.857,86.259-64.361,87.316-75.264c-25.492,18.475-36.789,8.78-44.725,11.865
		c-31,12.224-51.522-8.148-51.91-8.463c2.003-0.6,60.988-16.801,73.742-33.921c121.343-187.826,223.759-119.168,241.939-150.347
		c118.287-283.813,236.855-139.94,242.756-134.987c1.701,1.412,2.678,2.175,2.91,2.281c0.084,0.037,23.842,7.246,24.891,24.688
		l-0.256,1.815c-0.025,0.09,6.988,8.209,9.15,15.027c2.918,9.196-13.064,2.093-18.021-2.962c-3.969-2.722-6.727-3.844-8.289-3.321
		c-0.531,2.477,4.287,18.939,0.979,25.916c-8.176-3.19-21.441-27.556-21.441-27.556c-4.826-7.262-4.875-18.45-5.111-17.96
		c-0.982-0.836-2.783-2.591-5.426-5.259C395.242,23.141,355.842,323.505,333.352,367.1c1.686,4.75,88.268,69.939,26.639,141.303
		c1.824-39.47-82.538-82.171-45.949-124.488c-12.549,11.86-4.01,7.658-37.776,21.938c-1.779-2.929-11.795,55.231-62.836,73.542
		c-4.92,1.481-9.486,3.558-13.696,6.193c-13.219,10.796-39.959,13.276-40.596,12.954c32.208-27.169,58.189-74.456,54.292-71.828
		c-14.619,9.861-30.204,12.126-30.339,12.228c-0.31,0.273-16.001,37.463-44.154,51.571c-12.546,3.403-51.489,28.919-51.885,29.266
		c-1.62-25.528,36.108-68.242,69.588-76.227c-13.774,0.935-16.185,1.302-26.703-0.216C131.495,446.946,83.477,515.16,9.319,507.644z
		"/>
</g>
<g>
</g>
<g>
</g>
<g>
</g>
<g>
</g>
<g>
</g>
<g>
</g>
<g>
</g>
<g>
</g>
<g>
</g>
<g>
</g>
<g>
</g>
<g>
</g>
<g>
</g>
<g>
</g>
<g>
</g>
</svg>
