<?xml version="1.0" encoding="iso-8859-1"?>
<!-- Generator: Adobe Illustrator 16.0.0, SVG Export Plug-In . SVG Version: 6.00 Build 0)  -->
<!DOCTYPE svg PUBLIC "-//W3C//DTD SVG 1.1//EN" "http://www.w3.org/Graphics/SVG/1.1/DTD/svg11.dtd">
<svg version="1.1" id="Capa_1" xmlns="http://www.w3.org/2000/svg" xmlns:xlink="http://www.w3.org/1999/xlink" x="0px" y="0px"
	 width="594.469px" height="594.469px" viewBox="0 0 594.469 594.469" style="enable-background:new 0 0 594.469 594.469;"
	 xml:space="preserve">
<g>
	<g>
		<path d="M579.917,262.131c-6.169,3.036-12.284,6.177-18.4,9.323c-1.028,0.53-2.061,1.057-3.089,1.587
			c5.067-3.284,10.232-6.601,15.394-9.755c3.538-2.159,6.055-3.893,6.279-6.5c0.2-2.338-1.493-4.312-4.483-6.928
			c-3.183-2.782-6.883-4.933-10.461-7.013c-1.049-0.608-2.094-1.216-3.126-1.84c-31.457-18.98-66.084-37.462-106.071-44.092
			c-15.627-2.591-31.727-3.623-47.296-4.623c-6.899-0.441-13.803-0.886-20.682-1.457c-1.375-0.119-2.771-0.086-4.101-0.057h-0.069
			l-3.831-13.986c-0.224-0.816-0.926-1.408-1.767-1.493c-0.824-0.062-1.644,0.359-2.027,1.109l-2.75,5.463l-6.793-12.052
			c-0.352-0.625-1.004-1.016-1.718-1.037c-0.702-0.028-1.388,0.334-1.775,0.938l-6.544,10.2l-8.042-9.601
			c-0.44-0.522-1.126-0.804-1.799-0.714c-0.682,0.082-1.277,0.498-1.587,1.114l-6.193,12.379l-10.943-14.582
			c-0.33-0.445-0.828-0.73-1.379-0.8c-0.538-0.061-1.102,0.09-1.529,0.433l-1.775,1.428c-0.371,0.298-0.624,0.718-0.722,1.187
			l-1.669,8.282l-7.735-8.147c-0.478-0.506-1.18-0.73-1.861-0.6c-0.681,0.13-1.252,0.596-1.509,1.244l-4.325,10.743l-9.759-10.384
			c-0.469-0.501-1.171-0.734-1.84-0.612c-0.677,0.118-1.249,0.571-1.522,1.204l-4.019,9.352l-5.92-5.022
			c-0.645-0.547-1.555-0.641-2.297-0.237l-0.379,0.175c-0.522,0.225-1.501,0.641-1.783,1.779c-2.056,8.079-3.223,8.311-3.35,8.311
			c-0.249,0-1.681-0.281-5.626-5.879c-0.636-0.905-1.452-1.538-2.236-2.154c-0.31-0.241-0.624-0.49-0.934-0.759
			c-0.514-0.453-1.228-0.616-1.889-0.432s-1.191,0.689-1.399,1.342l-2.938,9.172l-7.104-5.843c-0.514-0.424-1.211-0.563-1.856-0.388
			c-0.645,0.184-1.159,0.677-1.371,1.31l-2.766,8.193l-8.515-7.209c-0.49-0.416-1.139-0.579-1.775-0.432
			c-0.624,0.143-1.146,0.575-1.408,1.163l-3.664,8.262c-0.841-0.596-1.661-1.171-2.464-1.734c-2.954-2.068-5.741-4.023-8.283-6.152
			c-11.293-9.474-24.619-12.334-39.792-8.511c-17.707,4.459-34.084,11.624-48.674,21.302c-10.792,7.152-15.623,15.631-15.198,26.679
			c0.265,7.022,3.244,12.032,9.657,16.25c1.873,1.236,3.717,2.473,5.484,3.832c-2.416,0.286-4.541,0.424-6.504,0.424
			c-6.242,0-11.114-1.359-15.336-4.276c-7.674-5.3-15.202-11.134-22.481-16.777c-4.259-3.305-8.523-6.61-12.84-9.833l-2.468-1.853
			c-5.316-3.994-10.812-8.127-16.695-11.489c-10.449-5.977-17.185-5.035-26.137,3.729c-42.705,41.787-33.521,98.304-6.916,133.13
			c1.754,2.293,4.019,4.557,7.136,7.131c5.671,4.686,10.689,6.867,15.802,6.867l0,0c4.822,0,9.661-1.934,15.223-6.078l7.417-5.51
			c9.784-7.25,19.902-14.748,29.507-22.594c12.493-10.201,26.532-12.762,43.534-7.928c4.594,1.305,9.147,2.779,13.696,4.252
			c1.252,0.408,2.509,0.811,3.762,1.211c-0.983,0.248-1.966,0.49-2.958,0.719c-18.368,4.246-27.324,16.404-23.958,32.529
			c3.431,16.447,15.528,27.494,30.106,27.494c2.199,0,4.435-0.256,6.654-0.762c8.058-1.832,15.647-5.748,22.987-9.535l2.603-1.338
			c6.605-3.383,13.109-7.164,19.4-10.824c3.231-1.881,6.462-3.758,9.714-5.594c3.725-2.098,6.822-1.979,10.526,0.371
			c30.494,19.348,64.884,26.883,105.415,23.047c6.716-0.635,13.456-0.904,19.976-1.166c1.746-0.074,3.472-0.143,5.169-0.217
			c-0.538,1.168-1.093,2.338-1.647,3.514c-2.392,5.062-4.868,10.301-6.435,15.826c-2.48,8.744-1.583,18.135,2.599,27.168
			c2.975,6.432,7.92,10.266,13.224,10.266c2.836,0,7.042-1.08,10.991-6.23c9.359-12.199,18.891-25.467,25.178-39.816
			c5.7-13.02,12.257-18.715,25.048-21.762c14.626-3.488,28.972-8.961,42.84-14.248c6.197-2.363,12.391-4.725,18.625-6.924
			c7.046-2.484,14.137-4.83,21.232-7.16c31.13-10.217,55.488-25.92,74.468-48.018c2.326-2.709,3.929-7.062,4.08-11.093
			c0.143-3.782-0.767-6.805-2.628-8.735C589.166,260.005,584.797,259.736,579.917,262.131z"/>
	</g>
</g>
<g>
</g>
<g>
</g>
<g>
</g>
<g>
</g>
<g>
</g>
<g>
</g>
<g>
</g>
<g>
</g>
<g>
</g>
<g>
</g>
<g>
</g>
<g>
</g>
<g>
</g>
<g>
</g>
<g>
</g>
</svg>
