<?xml version="1.0" encoding="iso-8859-1"?>
<!-- Generator: Adobe Illustrator 16.0.0, SVG Export Plug-In . SVG Version: 6.00 Build 0)  -->
<!DOCTYPE svg PUBLIC "-//W3C//DTD SVG 1.1//EN" "http://www.w3.org/Graphics/SVG/1.1/DTD/svg11.dtd">
<svg version="1.1" id="Capa_1" xmlns="http://www.w3.org/2000/svg" xmlns:xlink="http://www.w3.org/1999/xlink" x="0px" y="0px"
	 width="570.652px" height="570.652px" viewBox="0 0 570.652 570.652" style="enable-background:new 0 0 570.652 570.652;"
	 xml:space="preserve">
<g>
	<g>
		<path d="M509.063,146.983c-5.423-2.986-12.028-4.737-18.226-5.182c-9.221-0.669-18.568,0.266-27.858,0.641
			c-7.1,0.285-14.194,0.959-21.294,1.094c-8.213,0.159-14.496-3.473-19.771-9.87c-19.47-23.61-42.881-41.407-72.615-49.535
			c-0.584-0.159-1.326-0.403-1.657-0.551c-0.199-0.09-0.399-0.18-0.6-0.265c-4.305-1.865-8.85-3.595-12.807-6.019
			c-0.519-0.314-0.784-0.571-0.612-0.551c0.171,0.021,0.204-0.448,0.159-1.053c-0.062-0.815,0.012-1.57,0.188-2.28
			c0.147-0.588,0.734-1.343,1.184-1.751c1.158-1.052,2.187-2.297,3.031-3.7c0.11-0.18,0.22-0.359,0.33-0.538
			c0.188-0.294,0.702-0.861,1.15-1.266c0.657-0.596,1.311-1.199,1.922-1.831c2.954-3.053,5.622-6.382,9.046-10.363
			c0.396-0.462,0.616-0.845,0.489-0.861c-0.126-0.017,0.147-0.351,0.612-0.738c2.501-2.068,5.157-3.97,7.956-5.708
			c0.347-0.216,0.677-0.44,0.987-0.673c0.485-0.363,1.313-0.869,1.864-1.118c1.913-0.869,3.786-1.946,5.504-2.95
			c5.903-3.451,5.839-4.749,1.579-10.004c-13.37-16.5-30.976-25.684-51.481-29.939c-2.975-0.616-5.937-1.285-9.025-1.439
			c-0.604-0.029-1.566-0.176-2.158-0.294c-1.885-0.376-3.863-0.311-5.736,0.22c-0.155,0.045-0.294,0.099-0.424,0.159
			c-0.225,0.106-0.89,0.302-1.408,0.62c-1.436,0.882-2.142,2.897-0.437,4.231c0.139,0.105,0.273,0.216,0.408,0.326
			c0.221,0.184,0.478,0.824,0.555,1.424c1.041,7.85-0.526,15.691-4.096,22.506c-0.282,0.534-0.845,1.334-1.249,1.786
			c-3.709,4.187-7.593,8.278-11.864,11.918c-0.918,0.783-1.853,1.547-2.799,2.293c-0.474,0.376-0.922,0.706-0.992,0.747
			c-0.04,0.024-0.085,0.045-0.126,0.069c-0.196,0.098-0.371,0.208-0.519,0.33c-0.265,0.212-0.812,0.738-1.297,1.102
			c-8.67,6.479-18.156,11.991-27.132,18.119c-6.03,4.117-12.081,8.209-17.923,12.579c-8.372,6.259-11.102,14.573-8.396,24.713
			c1.824,6.825,3.549,13.684,5.447,21.109c0.151,0.588,0.293,1.555,0.318,2.158c0.359,8.585,0.718,17.169,1.077,25.749
			c0.024,0.604-0.151,1.135-0.396,1.175c-0.245,0.041-0.449,0.563-0.457,1.167c-0.229,17.54-1.559,35.101-8.988,52.167
			c-0.241,0.555-0.021,1.253,0.502,1.559c20.441,12.003,41.318,21.008,64.705,22.081c0.604,0.028,1.562,0.195,2.138,0.384
			c1.465,0.473,2.93,0.946,4.394,1.424c1.665,0.538,2.779-0.502,3.081-1.82c0.135-0.591,0.334-1.538,0.326-2.142
			c-0.008-0.474-0.18-0.976-0.571-1.469c-2.395-3.031-4.786-6.062-7.181-9.099c-0.375-0.473-0.697-1.04-0.759-1.252
			c-0.037-0.135-0.086-0.258-0.151-0.367c-4.309-7.157-3.492-14.75-1.934-22.367c0.311-1.514,0.526-3.011,0.641-4.5
			c0.045-0.604,0.229-1.555,0.44-2.122c2.016-5.365,4.88-10.433,8.372-15.088c0.363-0.485,1.146-0.771,1.738-0.636
			c11.999,2.701,23.464,7.932,33.044,15.712c3.097,2.514,6.806,5.667,10.155,9.253c0.412,0.445,1.004,1.225,1.326,1.738
			c0.448,0.727,0.894,1.453,1.321,2.191c0.307,0.522,0.734,1.403,0.959,1.967c0.89,2.264,1.604,4.659,2.15,7.172
			c1.819,8.368,2.803,16.74,2.799,25.048c0,0.604-0.425,1.354-0.935,1.677c-0.845,0.526-1.688,1.053-2.529,1.579
			c-0.515,0.322-0.951,0.546-0.979,0.506c-0.024-0.041-0.51,0.094-1.081,0.298c-10.697,3.892-20.877,7.906-31.277,11.224
			c-16.789,5.353-32.117,13.023-44.452,25.892c-8.523,8.891-14.635,19.087-16.385,31.506c-0.191,1.371-0.188,2.767,0.017,4.235
			c0.085,0.6,0.416,0.648,0.71,0.118c2.301-4.133,4.884-7.973,7.723-11.542c0.379-0.474,0.955-0.942,1.249-1.126
			c0.167-0.106,0.331-0.232,0.485-0.388c15.084-14.676,37.83-16.12,54.366-5.092c0.506,0.334,1.199,1.012,1.566,1.497
			c0.719,0.95,1.437,1.901,2.154,2.852c0.363,0.481,0.302,1.212-0.139,1.624c-8.674,8.078-17.833,15.696-27.467,22.493
			c-18.625,13.138-37.78,25.757-57.776,36.639c-13.33,7.254-28.548,11.016-42.86,16.499c-7.973,3.056-15.834,6.401-23.742,9.633
			c-0.559,0.229-0.979,0.873-0.934,1.44s0.571,1.069,1.175,1.126c6.675,0.6,13.35,1.204,20.025,1.804
			c0.604,0.053,0.62,0.229,0.041,0.396c-12.17,3.509-23.562,9.16-33.676,16.618c-0.485,0.358-1.301,0.901-1.824,1.207
			c-27.05,15.863-53.036,33.236-76.251,54.623c-29.217,26.916-54.027,56.97-67.137,95.269c-1.273,3.717-2.938,7.299-4.467,10.931
			c-0.237,0.559-0.082,1.366,0.338,1.799l0.339,0.351c0.42,0.437,1.175,0.522,1.685,0.196c6.711-4.325,13.439-8.613,20.086-13.031
			c0.971-0.649,1.713-1.901,2.162-3.036c8.829-22.236,24.374-39.237,42.46-54.166c16.365-13.509,34.509-23.84,54.933-30.041
			c3.868-1.175,6.32-0.652,8.792,2.688c14.48,19.601,28.058,39.678,35.659,63.158c0.417,1.285,1.012,2.514,1.865,4.48
			c0.241,0.555,0.591,0.543,0.783-0.033c4.688-14.002,7.516-27.209,6.875-40.808c-0.441-9.417-2.244-18.793-3.811-28.124
			c-0.963-5.748-2.835-11.342-3.929-17.074c-3.064-16.047-0.033-25.41,11.571-34.468c0.477-0.371,1.322-0.865,1.877-1.102
			c4.541-1.918,9.266-3.411,14.112-4.443c0.592-0.126,0.784,0.176,0.441,0.673c-0.849,1.225-1.648,2.506-2.399,3.864
			c-0.294,0.53-0.033,1.032,0.563,1.139c1.057,0.191,1.746,0.358,2.403,0.281c12.681-1.502,25.374-2.909,38.001-4.77
			c1.844-0.273,4.121-2.436,4.9-4.276c3.586-8.457,9.792-13.084,18.617-15.32c0.286-0.073,0.571-0.146,0.853-0.224
			c0.469-0.127,1.338-0.298,1.938-0.384c32.207-4.619,64.146-11.91,94.909-22.444c16.463-5.639,33.468-13.391,47.246-24.37
			c0.474-0.379,1.313-0.518,1.881-0.31c20.951,7.597,42.783,9.809,66.186,5.06c0.596-0.119,0.702-0.543,0.27-0.968
			c-0.457-0.448-0.686-0.697-0.955-0.75c-18.661-3.518-33.599-12.689-46.34-25.386c-0.429-0.429-0.53-1.204-0.241-1.734
			c1.358-2.489,2.566-5.08,3.615-7.776c0.22-0.563,0.493-0.91,0.628-0.768c0.131,0.144,0.539-0.13,0.901-0.611
			c26.655-35.031,28.315-73.388,19.033-115.42c-0.13-0.592,0.11-0.726,0.567-0.326c8.312,7.344,13.387,0.494,19.348-2.501
			c24.072-12.093,47.259-8.49,69.123,5.357c7.752,4.912,14.093,12.064,21.045,18.229c1.277,1.134,2.452,2.387,4.431,3.312
			c0.547,0.257,0.882-0.058,0.719-0.637c-0.854-3.023-1.727-6.038-2.534-9.073C556.326,183.405,536.37,162.019,509.063,146.983z"/>
	</g>
</g>
<g>
</g>
<g>
</g>
<g>
</g>
<g>
</g>
<g>
</g>
<g>
</g>
<g>
</g>
<g>
</g>
<g>
</g>
<g>
</g>
<g>
</g>
<g>
</g>
<g>
</g>
<g>
</g>
<g>
</g>
</svg>
