<svg height="511pt" viewBox="0 -42 511.83178 511" width="511pt" xmlns="http://www.w3.org/2000/svg"><path d="m249.183594 320.09375c-2.972656-2.570312-6.816406-3.910156-10.742188-3.746094-1.898437.015625-3.789062.222656-5.640625.625-17.570312 4.820313-30.894531 19.179688-34.390625 37.058594-1.1875 5.75.417969 11.71875 4.328125 16.09375 8.53125 7.867188 26.28125 3.054688 38.859375-10.496094 12.578125-13.550781 16.058594-31.664062 7.585938-39.535156zm0 0"/><path d="m251.933594 158.242188c1.21875-1.707032-.480469-7.722657-6.949219-12.277344-6.464844-4.558594-12.671875-4.148438-13.890625-2.414063-1.21875 1.730469.476562 7.722657 6.9375 12.277344 2.894531 2.15625 6.355469 3.417969 9.957031 3.628906 1.425781.140625 2.84375-.296875 3.945313-1.214843zm0 0"/><path d="m430.535156 150.949219c3.652344 1.066406 11.375-5.410157 14.746094-17.425781 1.660156-5.425782 1.839844-11.199219.519531-16.71875-.90625-3.148438-2.457031-5.382813-4.0625-5.828126-.261719-.074218-.535156-.113281-.808593-.109374-3.882813 0-10.8125 6.347656-13.945313 17.535156-1.652344 5.429687-1.832031 11.199218-.511719 16.71875.929688 3.121094 2.457032 5.375 4.0625 5.828125zm0 0"/><path d="m280.628906 265.933594c5.835938 1.246094 14.96875-8.644532 17.921875-23.160156 1.566407-6.871094 1.273438-14.039063-.855469-20.761719-1.5625-4.316407-3.933593-7.082031-6.5-7.609375-3.539062-.09375-6.894531 1.558594-8.976562 4.417968-9.09375 11.007813-12.136719 25.800782-8.132812 39.503907 1.644531 4.316406 3.984374 7.082031 6.542968 7.609375zm0 0"/><path d="m406.230469 189.613281c2.003906 7.621094 3.441406 15.378907 4.3125 23.210938 16.851562 7.074219 32.300781 17.121093 45.601562 29.660156 6.433594-9.335937 11.992188-19.246094 16.605469-29.601563 18.339844-38.738281 25.324219-81.886718 20.136719-124.433593-2.679688-18.472657-15.4375-79.359375-67.242188-87.246094-4.582031-1.19921875-9.417969-1.027344-13.898437.503906 1.558594 2.039063 3.394531 3.851563 5.449218 5.386719 1.359376 1.125 2.65625 2.226562 3.746094 3.292969 5.085938 4.710937 9.359375 10.222656 12.65625 16.316406 5.53125 11.839844 8.996094 24.539063 10.242188 37.546875 1.214844 9.960938 1.414062 20.019531.59375 30.019531.644531.050781 1.28125.136719 1.914062.253907 8.011719 2.660156 14.035156 9.332031 15.863282 17.570312 2.199218 8.558594 2.03125 17.554688-.496094 26.019531-5.015625 17.921875-17.722656 29.988281-30.4375 29.988281-3.273438.066407-6.496094-.796874-9.292969-2.492187-4.699219 8.347656-9.960937 16.371094-15.753906 24.003906zm0 0"/><path d="m390.796875 327.316406c-.75-.3125-1.554687-.457031-2.367187-.429687-1.832032 3.652343-3.71875 7.253906-5.722657 10.761719-3.414062 5.972656-6.402343 11.640624-9.15625 17.066406.574219 1.636718 1.757813 2.988281 3.308594 3.773437 4.550781 1.996094 12.339844-2.230469 16.410156-11.402343 4.070313-9.171876 1.960938-17.816407-2.472656-19.769532zm0 0"/><path d="m195.296875 222.21875 2.558594.605469c9.226562 2.230469 18.269531 5.171875 27.042969 8.796875l4.863281 1.964844c.308593-3.492188.503906-7.144532.503906-11.09375-.199219-9.175782-3.273437-18.058594-8.789063-25.394532-19.179687.300782-38.246093 2.953125-56.78125 7.890625-8.753906 2.613281-16.207031 8.421875-20.878906 16.273438-3.078125 7.046875-2.980468 15.074219.261719 22.042969 1.960937 5.257812 5.273437 9.902343 9.609375 13.464843.667969.472657 1.414062.824219 2.203125 1.042969.191406-.636719.28125-1.292969.261719-1.957031-.078125-1.832031-.28125-3.65625-.605469-5.460938-2.214844-7.800781-.90625-16.179687 3.578125-22.9375 9.667969-11.679687 26.253906-7.644531 36.171875-5.238281zm0 0"/><path d="m508 388.679688c-1.886719-1.25-4.195312-1.699219-6.414062-1.246094s-4.164063 1.769531-5.414063 3.660156c-.417969.628906-.910156 1.195312-1.355469 1.800781v-57.773437c-16.632812-47.539063-47.128906-85.058594-83.164062-103.0625-.199219 27.105468-5.640625 53.917968-16.019532 78.957031.699219.1875 1.382813.414063 2.058594.675781 14.011719 6.175782 18.917969 24.746094 11.1875 42.308594-4.691406 12.46875-16.191406 21.082031-29.476562 22.082031-3.207032.007813-6.378906-.652343-9.316406-1.9375-1.582032-.703125-3.070313-1.589843-4.4375-2.644531-5.523438 12.335938-9.929688 25.140625-13.160157 38.261719-5.71875-.789063-11.21875-2.738281-16.160156-5.722657 7.007813-26.300781 17.632813-51.503906 31.570313-74.882812 2.355468-4.121094 4.6875-8.617188 6.9375-13.371094 14.378906-29.632812 21.179687-62.367187 19.789062-95.273437-.136719-.65625-.195312-1.328125-.167969-1.996094-.691406-9.21875-2.300781-18.339844-4.796875-27.238281-.410156-.804688-.679687-1.667969-.800781-2.5625-8.996094-28.714844-27.554687-53.476563-52.59375-70.167969l-1.039063-.726563c-1.222656-.847656-2.453124-1.675781-3.6875-2.492187-30.527343-20.003906-65.855468-31.457031-102.3125-33.167969-37.109374-.984375-73.914062 6.953125-107.316406 23.152344-32.207031 14.4375-59.246094 16.273438-82.628906 5.613281 5.511719 6.261719 11.65625 11.933594 18.339844 16.929688 24.746094 19.628906 55.890625 28.945312 95.460937 28.679687h3.132813c19.761718-.195312 42.121094-.425781 60.832031 12.675782 5.277344 3.710937 10.070313 8.070312 14.261719 12.976562.1875.171875.3125.394531.484375.582031 9.6875 10.996094 15.175781 25.0625 15.503906 39.714844 0 46.480469-19.703125 66.148437-63.878906 92.644531-13.265625 7.933594-24.835938 18.402344-34.054688 30.804688-11.515625 15.933594-19.953125 33.878906-24.886719 52.90625 1.890626 1.75 3.9375 3.324218 6.113282 4.703125-7.339844-4.636719-13.089844-11.40625-16.480469-19.394531-1.976563-4.824219-6.664063-7.980469-11.878906-7.996094-1.261719 0-2.519531.1875-3.726563.5625 1.203125-.371094 2.453125-.558594 3.710938-.554688v-.070312c.007812-4.285156-3.164063-7.914063-7.417969-8.476563-4.25-.558593-8.257813 2.121094-9.359375 6.261719-1.105469 4.144531 1.035156 8.464844 5 10.09375 0 .050781-.066406.09375-.09375.144531-2.242188 5.238281-5.511719 9.976563-9.617188 13.933594-9.675781-5.707031-14.488281-17.070313-11.847656-27.988281 2.640625-10.921875 12.105469-18.835938 23.324219-19.492188 11.214844-.65625 21.542969 6.09375 25.441406 16.632813 2.957031-6.828125 6.378907-13.445313 10.238281-19.804688-14.734374-1.414062-28.71875-7.148437-40.207031-16.480469-24.75-24.746093-13.816406-49.492187.160157-70.5 7.335937-13.351562 7.714843-29.4375 1.015624-43.121093-.425781 4.792969-1.679687 9.472656-3.703124 13.832031-4.53125 7.59375-11.503907 13.421875-19.78125 16.53125-2.429688 1.132812-4.789063 2.410156-7.066407 3.824219-26.324219 17.515625-30.011719 54.613281-30.367187 69.714843-.410156 13.203126 1.253906 26.386719 4.921875 39.074219 2.0625 7.011719 4.925781 13.761719 8.535156 20.113281 5.585937 9.925782 11.691406 19.554688 18.285156 28.84375 3.964844-.816406 7.792969-2.195312 11.367188-4.097656-19.351563 10.449219-43.480469 4.351563-55.542969-14.035156-2.660156-3.757812-7.820312-4.726562-11.660156-2.195312-3.84375025 2.53125-4.984375 7.65625-2.582032 11.582031 11.3125 17.089843 30.601563 27.1875 51.09375 26.746093 20.492188-.441406 39.328126-11.359374 49.898438-28.921874 10.796875 17.972656 30.230469 28.964843 51.199219 28.964843s40.398437-10.992187 51.199219-28.964843c10.800781 17.972656 30.234374 28.964843 51.199218 28.964843 20.96875 0 40.402344-10.992187 51.199219-28.964843 10.800781 17.972656 30.234375 28.964843 51.203125 28.964843 20.964844 0 40.398438-10.992187 51.199219-28.964843 10.566406 17.558593 29.402343 28.472656 49.890625 28.914062 20.492187.441406 39.777344-9.652344 51.09375-26.738281 2.578125-3.933594 1.492187-9.210938-2.433594-11.800781zm-431.878906 13.265624c-1.613282 1.175782-3.304688 2.234376-5.0625 3.175782 1.761718-.9375 3.449218-2 5.0625-3.175782zm.050781 0c1.613281-1.175781 3.140625-2.46875 4.574219-3.863281-1.433594 1.378907-2.960938 2.65625-4.574219 3.824219zm287.417969-212.988281c2.101562-.84375 4.453125-.816406 6.53125.078125 2.082031.890625 3.722656 2.570313 4.5625 4.671875 18.167968 45.433594-7.507813 106.371094-8.609375 108.9375-1.855469 4.332031-6.871094 6.34375-11.203125 4.488281-4.335938-1.855468-6.34375-6.871093-4.488282-11.203124.246094-.5625 23.984376-57.054688 8.453126-95.871094-.84375-2.105469-.816407-4.457032.078124-6.539063.890626-2.082031 2.574219-3.722656 4.675782-4.5625zm-56.121094-54.503906c.714844-2.148437 2.25-3.925781 4.277344-4.9375 2.023437-1.011719 4.367187-1.179687 6.515625-.464844 18.332031 6.753907 32.777343 21.203125 39.527343 39.535157 1.496094 4.476562-.917968 9.320312-5.394531 10.820312-4.476562 1.5-9.320312-.914062-10.820312-5.394531-5.085938-13.21875-15.53125-23.667969-28.75-28.765625-4.453125-1.503906-6.851563-6.332032-5.355469-10.792969zm-12.75 63.230469c9.171875 2.382812 16.417969 9.402344 19.097656 18.492187 3.230469 9.6875 3.757813 20.074219 1.527344 30.039063-4.472656 21.683594-18.773438 36.886718-33.679688 36.886718-1.496093.003907-2.984374-.148437-4.449218-.449218-9.167969-2.382813-16.417969-9.402344-19.085938-18.492188-6.21875-19.765625-1.777344-41.335937 11.738282-57.039062 6.046874-7.300782 15.484374-10.882813 24.851562-9.4375zm-66.5625-27.902344c-13.652344-9.632812-18.523438-25.480469-11.089844-36.0625 7.429688-10.582031 24.003906-11.347656 37.679688-1.707031 13.679687 9.644531 18.519531 25.480469 11.050781 36.070312-4.164063 5.558594-10.796875 8.714844-17.738281 8.441407h-.375c-7.019532-.261719-13.804688-2.609376-19.484375-6.742188zm-82.113281 239.726562c2.4375.453126 4.910156.6875 7.390625.707032-2.480469-.019532-4.953125-.253906-7.390625-.707032zm-14.824219-5.625c1.835938 1.125 3.757812 2.101563 5.742188 2.929688-1.984376-.828125-3.90625-1.804688-5.742188-2.929688zm7.550781 3.628907c1.722657.628906 3.484375 1.144531 5.277344 1.542969-1.792969-.394532-3.554687-.910157-5.277344-1.542969zm65.863281-31.371094c-5.128906.023437-9.75 3.089844-11.769531 7.800781-.570312-.453125-1.195312-.800781-1.707031-1.304687-8.105469-8.105469-11.703125-19.679688-9.625-30.949219 4.488281-24.988281 23.125-45.066406 47.710938-51.398438 11.082031-2.90625 22.890624-.179687 31.574218 7.296876 15.777344 14.652343 12.839844 42.605468-6.691406 63.648437-8.921875 10.066406-20.964844 16.847656-34.203125 19.253906-1.308594-2.019531-2.453125-4.144531-3.410156-6.351562-1.980469-4.820313-6.667969-7.976563-11.878907-7.996094zm15.28125 14.355469c1.765626 2.730468 3.835938 5.253906 6.171876 7.515625-2.335938-2.261719-4.40625-4.785157-6.171876-7.515625zm6.886719 8.257812c.855469.804688 1.792969 1.519532 2.707031 2.246094-.929687-.726562-1.84375-1.441406-2.707031-2.246094zm23.109375 11.019532c-.683594-.09375-1.339844-.257813-2.015625-.386719.667969.128906 1.324219.292969 2.015625.386719zm-5.667968-1.214844c-.851563-.230469-1.601563-.511719-2.40625-.792969.785156.28125 1.578124.5625 2.398437.792969zm-5.347657-1.925782c-.855469-.375-1.707031-.777343-2.5625-1.210937.835938.433594 1.691407.835937 2.550781 1.210937zm-4.941406-2.5625c-.855469-.535156-1.777344-1.074218-2.621094-1.703124.835938.628906 1.722657 1.167968 2.613281 1.703124zm84.964844-19.933593c.878906 2.070312 1.917969 4.070312 3.117187 5.976562-1.195312-1.910156-2.238281-3.90625-3.125-5.976562zm3.710937 6.785156c1.035156 1.601563 2.175782 3.132813 3.414063 4.582031-1.242188-1.449218-2.382813-2.980468-3.421875-4.582031zm3.789063 4.949219c1.394531 1.554687 2.898437 3.011718 4.5 4.351562-1.605469-1.339844-3.113281-2.792968-4.507813-4.351562zm9.917969 8.183594c-1.90625-1.132813-3.71875-2.414063-5.417969-3.832032 1.699219 1.414063 3.507812 2.695313 5.410156 3.832032zm151.652343-3.890626c2.554688-2.148437 4.84375-4.589843 6.828125-7.269531-1.980468 2.683594-4.273437 5.121094-6.828125 7.269531zm-22.183593 9.726563c.800781-.09375 1.578124-.28125 2.371093-.425781-.800781.144531-1.578125.332031-2.371093.425781zm4.957031-.910156c1.074219-.265625 2.125-.617188 3.171875-.964844-1.054688.347656-2.097656.707031-3.179688.964844zm4.734375-1.460938c1.238281-.46875 2.441406-1.015625 3.628906-1.585937-1.195312.570312-2.398438 1.125-3.636719 1.585937zm4.464844-1.972656c1.320312-.679687 2.605468-1.433594 3.847656-2.25-1.246094.8125-2.535156 1.566406-3.855469 2.25zm4.179687-2.457031c1.332031-.886719 2.609375-1.851563 3.832031-2.882813-1.226562 1.03125-2.507812 1.992188-3.839844 2.882813zm0 0"/></svg>