<?xml version="1.0" encoding="iso-8859-1"?>
<!-- Generator: Adobe Illustrator 16.0.0, SVG Export Plug-In . SVG Version: 6.00 Build 0)  -->
<!DOCTYPE svg PUBLIC "-//W3C//DTD SVG 1.1//EN" "http://www.w3.org/Graphics/SVG/1.1/DTD/svg11.dtd">
<svg version="1.1" id="Capa_1" xmlns="http://www.w3.org/2000/svg" xmlns:xlink="http://www.w3.org/1999/xlink" x="0px" y="0px"
	 width="574.128px" height="574.128px" viewBox="0 0 574.128 574.128" style="enable-background:new 0 0 574.128 574.128;"
	 xml:space="preserve">
<g>
	<g>
		<path d="M535.006,303.594c-11.105,7.217-21.346,15.769-32.232,24.194c-1.781,1.379-3.961,1.737-4.76,0.734
			c-0.475-0.592-0.914-1.27-1.127-2.016c-0.615-2.158-1.236-4.312-1.852-6.471c-0.621-2.167-1.221-5.153-1.633-6.605
			c-0.411-1.453-1.484-4.301-2.101-6.467c-3.627-12.755-7.197-25.529-10.575-38.348c-1.979-7.507-1.587-15.133,0.008-22.771
			c0.461-2.208-0.881-4.137-3.121-4.382c-2.228-0.245-4.447-0.453-6.65-0.342c-5.141,0.261-8.058-2.518-10.755-6.271
			c-5.23-7.283-10.294-14.729-16.038-21.596c-11.938-14.264-26.989-24.721-43.774-32.301c-20.637-9.323-41.71-17.67-62.592-26.451
			c-13.08-5.5-25.153-12.534-34.153-23.803c-8.964-11.22-12.897-24.345-13.566-38.544c-0.065-1.35-0.069-2.705-0.057-4.06
			c0.021-2.244-0.335-4.275-0.796-4.537s-2.167,0.775-3.828,2.297c-1.383,1.265-2.729,2.554-3.88,4.002
			c-14.961,18.862-27.585,39.254-38.079,60.866c-5.153,10.612-12.277,18.613-21.767,25.655
			c-7.948,5.896-14.753,13.848-20.604,21.946c-13.966,19.331-29.511,37.43-49.597,49.988c-15.892,9.935-34.015,16.41-51.408,23.807
			c-30.608,13.02-61.42,25.553-92.122,38.34c-2.391,0.996-4.745,2.203-6.863,3.676c-0.461,0.322-0.734,0.91-0.967,1.559
			c-0.343,0.972,0.086,2.143,0.955,2.624c0.592,0.326,1.171,0.579,1.697,0.497c4.007-0.615,8.05-1.293,11.914-2.492
			c34.945-10.857,69.846-21.877,104.807-32.677c2.154-0.665,4.594-1.126,5.439-1.241c0.481-0.065,0.979-0.184,1.497-0.363
			c4.958-1.693,9.911-3.411,14.868-5.108c0.596-0.184,1.195-0.371,1.791-0.551c7.148-2.179,14.623-3.289,22.044-4.569
			c2.219-0.384,4.529-0.526,5.104-0.184s0.616,1.167,0.155,1.738c-0.461,0.571-1.697,1.102-2.762,1.183
			c-0.64,0.049-1.285,0.102-1.93,0.151c-1.55,0.122-2.832,1.477-2.362,3.101c0,0,0.229,0.792,0.457,1.579
			c0.253,0.873,0.371,1.701,0.249,1.84c-0.123,0.139-2.203,0.359-3.925,1.812c-0.742,0.625-1.35,1.399-1.783,2.26
			c-1.012,2.011-1.306,4.81-2.122,5.863s-2.444,2.122-3.635,2.392c-0.722,0.159-1.444,0.322-2.163,0.481
			c-1.306,0.289-2.052,1.774-1.709,3.011c0.049,0.18,0.118,0.347,0.2,0.51c0.139,0.27,0.375,0.897,0.477,1.42
			c0.106,0.526,0.004,1.199-0.224,1.506c-0.229,0.306-0.481,0.611-0.567,0.686c-0.085,0.069-0.188,0.094-0.232,0.053
			c-0.024-0.024-0.053-0.049-0.078-0.077c-0.959-0.927-2.509-0.955-3.464,0c-0.437,0.437-0.673,1.023-0.702,1.615
			c-0.045,0.995,0.334,1.849,0.061,2.072c-0.269,0.225-0.49,0.408-0.49,0.408c-0.13,0.11-0.253,0.217-0.371,0.331
			c-0.2,0.188-0.718,0.396-1.175,0.457c-0.273,0.036-0.551,0.073-0.829,0.109c-1.195,0.159-2.619,1-2.448,2.448
			c0.098,0.832,0.265,1.636,0.51,2.407c0.408,1.298-0.008,3.782-1.199,5.691c-0.212,0.339-0.424,0.682-0.632,1.024
			c-1.184,1.918-1.836,3.811-1.506,4.194s2.077,0.204,3.9-0.404c1.102-0.367,2.199-0.751,3.272-1.183
			c1.261-0.506,2.517-1.013,3.778-1.519c2.085-0.84,4.321-1.623,4.949-1.881c0.628-0.253,2.791-1.231,4.88-2.072
			c9.065-3.647,18.127-7.308,27.148-11.065c10.522-4.377,21.273-1.591,31.955-1.493c9.613,0.086,19.229,0.114,28.837-0.045
			c40.645-0.673,81.286-1.452,121.932-2.13c8.563-0.143,8.902-0.053,9.734,8.271c1.959,19.633,7.491,38.356,13.803,56.908
			c0.331,0.971,0.73,1.917,1.31,2.852c0.914,1.478,1.995,0.633,1.995-1.57c0-1.33,0-2.656-0.008-3.986
			c-0.09-14.068,4.712-26.573,12.701-37.858c1.562-2.203,4.732-4.157,7.393-4.517c5.614-0.751,11.384-0.412,17.092-0.44
			c4.5-0.024,6.973,2.517,7.625,6.744c0.494,3.207,0.571,6.479,0.804,9.723c0.073,1.016,0.131,2.031,0.188,3.162
			c0.09,1.746,1.314,2.436,2.726,1.538c0.931-0.592,1.742-1.105,2.562-1.607c9.078-5.517,16.475-5.002,24.777,1.628
			c6.104,4.875,9.531,10.542,8.323,18.959c-2.521,17.589-4.684,35.243-6.45,52.926c-2.403,24.113-2.301,48.189,1.918,72.09
			c0.392,2.22,0.946,2.195,1.183-0.045c2.338-22.012,4.076-44.121,7.695-65.916c4.043-24.342,11.607-47.822,24.74-69.136
			c14.424-23.407,34.199-40.906,58.463-53.53c2.451-1.276,4.916-2.537,7.486-3.855c2.004-1.027,1.803-2.089-0.436-1.881
			C563.076,291.419,545.264,296.927,535.006,303.594z"/>
		<path d="M474.011,489.4c-0.045-0.249-0.131-0.032-0.184,0.485c-0.053,0.519,0.339,0.947,0.412,0.596
			c0.037-0.179-0.094-0.396-0.139-0.632C474.067,489.698,474.039,489.548,474.011,489.4z"/>
	</g>
</g>
<g>
</g>
<g>
</g>
<g>
</g>
<g>
</g>
<g>
</g>
<g>
</g>
<g>
</g>
<g>
</g>
<g>
</g>
<g>
</g>
<g>
</g>
<g>
</g>
<g>
</g>
<g>
</g>
<g>
</g>
</svg>
