<?xml version="1.0" encoding="iso-8859-1"?>
<!-- Generator: Adobe Illustrator 16.0.0, SVG Export Plug-In . SVG Version: 6.00 Build 0)  -->
<!DOCTYPE svg PUBLIC "-//W3C//DTD SVG 1.1//EN" "http://www.w3.org/Graphics/SVG/1.1/DTD/svg11.dtd">
<svg version="1.1" id="Capa_1" xmlns="http://www.w3.org/2000/svg" xmlns:xlink="http://www.w3.org/1999/xlink" x="0px" y="0px"
	 width="556.113px" height="556.113px" viewBox="0 0 556.113 556.113" style="enable-background:new 0 0 556.113 556.113;"
	 xml:space="preserve">
<g>
	<g>
		<path d="M6.218,539.907c15.149,1.995,30.833,6.075,45.565,3.994c57.271-8.083,113.86-20.262,168.691-38.903
			c31.42-10.681,61.971-23.966,92.714-36.561c8.449-3.46,14.99-1.967,21.678,3.484c2.41,1.967,6.58,4.603,8.604,3.75
			c12.061-5.08,21.248,0.64,30.637,6.642c1.947,1.244,4.166,2.061,6.26,3.064c0,0.008,0,0.017,0,0.024
			c10.113,7.992,21.289,13.162,33.863,7.282c4.467-2.089,8.197-7.535,10.102-12.309c0.617-1.543-5.336-6.32-8.877-8.752
			c-4.232-2.905-9.193-4.729-13.574-7.438c-2.045-1.82-4.094-3.636-6.141-5.455c-2.207-3.554-1.113-7.263,3.398-11.53
			c11.717-11.077,23.604-22.023,36.014-32.302c9.234-7.642,22.832-3.933,29.074,7.141c2.334,4.141,3.586,9.009,6.406,12.729
			c2.504,3.305,7.201,8.188,9.686,7.544c4.141-1.073,8.898-5.337,10.562-9.413c6.387-15.658,2.266-30.155-8.094-42.762
			c-4.504-5.483-9.453-10.547-9.535-16.732c0.342-1.469,0.607-2.958,0.791-4.464c0.621-1.722,1.6-3.529,3.094-5.463
			c0.967-1.257,0.506-4.908-0.666-6.304c-1.551-1.852-2.721-3.737-3.607-5.646c-0.488-1.975-1.109-3.941-1.826-5.888
			c-1.045-5.948,0.008-12.162,1.338-18.67c0.596-2.917,1.084-5.863,1.537-8.812c3.049-15.978,6.096-31.959,9.148-47.936
			c6.055-17.585,14.896-34.296,22.293-51.469c14.152-32.852,29.617-65.227,41.869-98.772c9.057-24.798,12.395-51.229,4.287-77.594
			c-1.268-4.121-3.084-8.07-4.414-11.498c-9.775,13.583-18.242,27.41-28.715,39.499c-26.586,30.678-61.453,48.736-99.871,59.119
			c-23.529,6.357-48.041,9.352-72.273,12.713c-13.891,1.926-28.119,1.297-42.162,2.301c-21.277,1.521-41.444-3.443-61.555-9.404
			c-12.709-3.766-25.549-7.1-38.405-10.335c-14.023-3.529-20.812-0.755-28.854,11.191c-6.503,9.658-18.735,13.729-28.119,7.206
			c-15.884-11.037-30.78-23.497-46.015-35.456c-2.228-1.746-4.325-3.66-6.414-5.577c-8.792-12.403-15.749-26.145-20.498-40.792
			c-3.199-16.577-5.532-33.313-8.185-49.719c-5.496,9.127-6.728,20.445-5.512,31.722c4.957,45.888,26.92,80.804,67.907,103.171
			c8.062,4.398,15.737,9.515,23.554,14.357c0.481,0.302,0.645,1.122,0.571,0.987c-4.439,4.818-8.621,9.429-12.884,13.962
			c-1.775,1.885-3.448,4.664-5.635,5.234c-17.185,4.48-19.127,11.073-13.917,31.853c5.353,21.338,13.35,42.028,18.466,63.416
			c6.173,25.806,5.875,52.105,2.497,78.471c-5.561,43.383-22.595,82.212-49.119,116.187c-21.763,27.878-48.744,50.131-85.272,57.132
			c-2.436,0.47-4.468,3.056-6.688,4.655C2.061,535.263,3.876,539.596,6.218,539.907z M419.584,483.036
			c-0.445,0.306-0.895,0.645-1.348,1.003c0.127-0.958,0.1-1.917-0.094-2.844C418.617,481.824,419.09,482.444,419.584,483.036z
			 M471.395,429.171c-1.338-2.514-2.627-5.067-4.018-7.52C469.008,423.924,470.359,426.442,471.395,429.171z M380.203,483.137
			c0.053,0.702,0.102,1.407,0.154,2.109c-1.117-1.759-2.109-3.48-2.986-5.173C378.314,481.093,379.256,482.113,380.203,483.137z"/>
	</g>
</g>
<g>
</g>
<g>
</g>
<g>
</g>
<g>
</g>
<g>
</g>
<g>
</g>
<g>
</g>
<g>
</g>
<g>
</g>
<g>
</g>
<g>
</g>
<g>
</g>
<g>
</g>
<g>
</g>
<g>
</g>
</svg>
