<?xml version="1.0" encoding="iso-8859-1"?>
<!-- Generator: Adobe Illustrator 16.0.0, SVG Export Plug-In . SVG Version: 6.00 Build 0)  -->
<!DOCTYPE svg PUBLIC "-//W3C//DTD SVG 1.1//EN" "http://www.w3.org/Graphics/SVG/1.1/DTD/svg11.dtd">
<svg version="1.1" id="Capa_1" xmlns="http://www.w3.org/2000/svg" xmlns:xlink="http://www.w3.org/1999/xlink" x="0px" y="0px"
	 width="598.307px" height="598.306px" viewBox="0 0 598.307 598.306" style="enable-background:new 0 0 598.307 598.306;"
	 xml:space="preserve">
<g>
	<g>
		<path d="M555.577,298.811c-12.493-11.028-22.102-24.403-30.311-38.797c-0.71-1.24-0.489-3.309-0.094-4.839
			c7.278-27.997,14.663-55.965,21.979-83.954c0.845-3.219,1.433-6.503,2.138-9.755c-0.289-0.208-0.579-0.416-0.864-0.624
			c-5.541,6.654-11.245,13.183-16.594,19.988c-18.829,23.95-37.148,48.279-53.815,73.807c-1.072,1.641-2.284,1.587-3.859,1.416
			c-32.591-3.521-65.187-6.973-97.773-10.519c-29.168-3.174-58.319-6.467-87.488-9.669c-10.738-1.179-17.368-6.748-18.597-17.487
			c-0.91-7.972-0.184-16.124-0.277-24.194c-0.061-5.333-0.273-10.665-0.461-15.994c-0.016-0.465-0.359-0.922-0.677-1.668
			c-7.217,1.358-13.595,4.431-19.376,8.829c-7.058,5.373-12.113,12.415-16.5,20.008c-2.636,4.553-5.227,9.135-7.96,13.631
			c-2.036,3.346-4.835,4.452-9.049,4.606c-19.294,0.702-38.601,1.652-57.838,3.28c-12.579,1.061-25.055,3.399-37.561,5.247
			c-0.396,0.057-0.787,0.139-1.183,0.224c-1.032,0.123-2.06,0.249-3.093,0.372c-3.402,0.408-6.209,1.077-8.719,3.623
			c-0.123,0.126-0.237,0.257-0.351,0.388c-10.881-2.681-22.599-1.922-33.199,1.86c-5.765,0.665-11.518,1.706-17.246,3.068
			c-15.051,3.574-29.911,7.98-44.807,12.174c-4.562,1.285-8.556,3.652-11.11,7.919c-1.159,1.938-1.314,3.68,0.286,5.524
			c1.787,2.064,3.26,4.398,5.083,6.422c2.762,3.064,4.965,6.312,5.459,10.559c0.11,0.955,0.836,2.305,1.636,2.647
			c10.012,4.301,17.781,11.832,26.467,18.059c27.422,19.641,58.267,30.506,91.515,34.921c2.819,0.375,3.758,1.456,4.451,4.084
			c7.001,26.598,16.846,52.008,33.13,74.423c3.864,5.316,8.976,9.841,14.015,14.138c2.631,2.244,6.361,3.202,10,4.937
			c-0.253-6.907-0.722-12.926-0.645-18.932c0.286-22.627,2.371-45.06,8.433-66.961c0.996-3.582,2.526-7.042,4.104-10.42
			c0.412-0.881,1.91-1.701,2.962-1.774c25.022-1.751,50.062-3.338,75.08-5.137c3.007-0.217,4.933,0.379,6.96,2.754
			c9.176,10.734,19.303,20.489,31.417,27.915c3.158,1.934,6.728,3.215,10.159,4.688c2.37,1.017,3.664,0.348,4.639-2.337
			c4.46-12.265,9.16-24.443,13.881-36.61c0.901-2.33,2.288-4.468,3.549-6.879c13.786,5.03,27.512,7.964,42.551,3.831
			c-3.158-2.627-6.508-4.847-9.898-6.924c-0.506-0.93-1.403-1.681-2.766-2.007c-0.327-0.078-0.653-0.155-0.979-0.237
			c-5.643-3.325-11.236-6.512-16.092-10.75c0.086-0.294,0.176-0.584,0.266-0.878c1.827-0.334,3.659-0.632,5.479-1.008
			c19.792-4.051,38.906-10.412,57.842-17.282c13.505-4.896,26.749-10.498,40.2-15.533c1.86-0.698,4.569-0.612,6.349,0.241
			c5.182,2.472,10.281,5.227,15.063,8.4c11.465,7.605,22.55,15.79,34.121,23.224c11.396,7.319,23.685,12.774,37.242,14.852
			c11.375,1.742,22.391,0.521,32.999-4.011c0.873-0.376,1.689-0.886,2.456-1.502C581.02,317.277,567.702,309.516,555.577,298.811z"
			/>
	</g>
</g>
<g>
</g>
<g>
</g>
<g>
</g>
<g>
</g>
<g>
</g>
<g>
</g>
<g>
</g>
<g>
</g>
<g>
</g>
<g>
</g>
<g>
</g>
<g>
</g>
<g>
</g>
<g>
</g>
<g>
</g>
</svg>
