<?xml version="1.0" encoding="iso-8859-1"?>
<!-- Generator: Adobe Illustrator 16.0.0, SVG Export Plug-In . SVG Version: 6.00 Build 0)  -->
<!DOCTYPE svg PUBLIC "-//W3C//DTD SVG 1.1//EN" "http://www.w3.org/Graphics/SVG/1.1/DTD/svg11.dtd">
<svg version="1.1" id="Capa_1" xmlns="http://www.w3.org/2000/svg" xmlns:xlink="http://www.w3.org/1999/xlink" x="0px" y="0px"
	 width="586.514px" height="586.514px" viewBox="0 0 586.514 586.514" style="enable-background:new 0 0 586.514 586.514;"
	 xml:space="preserve">
<g>
	<g>
		<path d="M549.296,259.888c0.376-0.734,0.633-1.546,0.918-2.33c0.163-0.449-0.053-1.187,0.221-1.42
			c2.387-2.056,0.057-3.668-0.661-5.222c-0.257-0.563-2.044-0.563-3.134-0.571c-3.839-0.033-6.895-1.55-9.094-4.664
			c-0.53-0.75-0.694-1.754-1.118-2.893c-3.395,1.297-4.859-1.718-6.757-3.476c-4.329-3.999-7.943-8.915-12.681-12.297
			c-5.744-4.104-10.077-9.555-15.361-14.043c-0.562-0.477-0.607-1.57-1.076-2.9c-0.543,1.265-0.895,2.077-1.281,2.982
			c-13.261-9.535-23.424-21.232-28.021-37.389c-0.584,0.44-0.91,0.616-1.139,0.881c-0.232,0.273-0.367,0.628-0.755,1.322
			c-0.841-1.955-2.044-3.529-2.076-5.125c-0.045-2.317-0.906-3.868-2.399-5.463c-0.824-0.882-1.167-2.269-1.571-3.48
			c-0.424-1.285-0.665-2.636-0.987-3.958c-3.052-0.082-4.605-1.094-5.455-3.917c-0.188-0.62,0.486-1.505,0.779-2.26
			c0.164-0.42,0.49-0.812,0.531-1.236c0.521-5.749,1.036-11.498,1.489-17.254c0.109-1.391,0.236-2.868-0.114-4.182
			c-0.359-1.338-1.008-3.011-2.064-3.631c-0.91-0.535-2.379-0.241-3.864,0.743c-3.044,2.023-4.464,4.28-4.414,7.886
			c0.012,0.979-1.18,2.187-2.109,2.921c-1.399,1.106-3.032,1.938-4.615,2.791c-1.697,0.914-6.25,0.795-7.083,2.709
			c-0.844-0.42-2.949,0.277-3.17,0.282c-0.705,0.008-1.559-0.172-2.097-0.6c-1.604-1.273-3.089-2.693-4.614-4.063
			c-0.335-0.302-0.596-0.804-0.976-0.918c-2.166-0.645-4.406-1.077-6.536-1.82c-2.081-0.722-4.022-1.844-6.104-2.57
			c-1.869-0.653-3.823-1.191-5.781-1.44c-1.787-0.229-5.725,4.039-5.814,5.945c-0.094,1.995,0.693,4.329-1.946,5.418
			c-2.717-1.864-4.108-1.738-6.928,0.637c-0.343,0.29-0.611,0.718-0.999,0.889c-1.204,0.539-2.759-0.657-3.893,1.175
			c-0.465,0.75-2.55,0.501-4.357,0.779c0.686,0.808,1.171,1.383,1.808,2.134c-2.098,0.686-4.084,1.562-6.165,1.962
			c-3.578,0.689-7.536,0.367-10.738,1.803c-3.424,1.534-6.773,1.583-9.927,0.93c-3.048-0.628-6.487-0.343-9.181-2.464
			c-0.229-0.18-0.632-0.135-0.958-0.184c-3.383-0.531-6.802-0.877-10.127-1.648c-2.216-0.514-4.256-1.75-6.45-2.432
			c-0.849-0.266-1.897,0.065-2.849,0.196c-1.317,0.175-2.737,0.844-3.916,0.542c-2.416-0.616-4.709-1.73-7.042-2.656
			c-1.139-0.453-2.261-0.946-3.391-1.424c-0.118,0.212-0.232,0.424-0.352,0.637c0.438,0.551,0.878,1.105,1.555,1.962
			c-4.41,0.991-7.679-2.252-11.815-2.301c0.481,0.91,0.808,1.522,1.134,2.138c-0.098,0.281-0.195,0.567-0.293,0.849
			c-3.677-0.555-7.353-1.114-11.078-1.677c-0.273,0.861-0.514,1.616-0.755,2.371c-3.998-1.183-7.878-1.713-11.84-0.216
			c-0.518,0.196-1.351-0.604-1.987-0.522c-2.142,0.269-4.259,0.73-6.441,1.13c-0.123,1.061-0.217,1.84-0.266,2.289
			c-2.815,0.71-5.378,1.661-8.013,1.942c-3.668,0.396-7.394,0.294-11.09,0.396c-2.452,0.065-4.77-0.216-6.405,2.631
			c-0.67,1.167-3.301,1.359-5.092,1.693c-1.514,0.282-2.975-0.045-3.718,2.02c-0.354,0.987-1.913,1.75-3.084,2.195
			c-1.909,0.726-3.925,1.236-5.94,1.615c-3.447,0.653-7.226,0.474-10.331,1.844c-4.732,2.089-9.645,2.114-14.483,3.068
			c-3.88,0.767-7.752,0.62-11.551,1.334c-3.305,0.625-6.516,1.738-9.775,2.624c-0.232,0.065-0.498,0.017-0.738,0.069
			c-7.442,1.595-15.011,1.322-22.547,1.469c-2.554,0.049-5.107,0.135-7.662,0.102c-3.892-0.053-7.507,0.947-10.967,2.656
			c-0.29,0.143-0.633,0.188-0.955,0.245c-3.007,0.539-6.034,1-9.017,1.645c-1.158,0.253-2.313,0.787-3.312,1.44
			c-3.175,2.073-7.193,2.436-9.992,5.406c-1.44,1.53-3.811,2.146-5.631,3.366c-2.974,1.991-5.989,3.97-8.731,6.263
			c-3.623,3.032-6.895,6.479-10.522,9.507c-1.775,1.481-4.011,2.403-6.03,3.59c-0.428,0.253-0.824,0.559-1.232,0.84
			c0.51,0.241,1.003,0.628,1.534,0.693c0.914,0.114,1.852,0.033,2.896,0.576c-1.077,0.738-2.064,1.889-3.239,2.138
			c-4.035,0.853-6.622,3.803-9.613,6.173c-0.306,0.245-0.604,0.856-0.51,1.187c0.648,2.317-0.73,3.558-2.285,4.827
			c-0.412,0.339-0.718,1.126-0.661,1.669c0.314,3.011-0.902,5.271-2.636,7.699c-1.616,2.256-2.15,5.263-3.301,7.878
			c-1.432,3.26-2.876,6.467-6.512,8.091c-1.497,0.669-2.542,2.285-3.966,3.194c-3.023,1.934-5.541,4.578-9.172,5.7
			c-2.676,0.824-4.985,2.839-7.662,3.7c-2.644,0.853-5.075,1.893-7.283,3.538c-3.974,2.966-8.841,4.757-11.91,8.907
			c-0.877,1.187-1.489,2.566-2.248,3.847c-1.281,2.154-2.579,4.296-3.872,6.446c-0.233,0.384-0.519,0.747-0.682,1.159
			c-0.926,2.338-1.824,4.688-2.729,7.034c-0.028,0.078-0.065,0.154-0.073,0.236c-0.514,5.21-2.093,10.604-1.232,15.578
			c0.841,4.826,0.478,9.583,1.077,14.333c0.4,3.178-0.689,5.911-2.893,8.339c-2.13,2.338-4.06,4.876-5.879,7.467
			c-0.771,1.098-1.559,2.599-1.432,3.823c0.261,2.456,1.146,4.847,1.86,7.584c0.535-0.645,1.008-1.216,1.485-1.791
			c0.225,0.017,0.453,0.037,0.677,0.053c0,0.943,0.375,2.448-0.061,2.738c-2.991,1.999,0.118,3.158,0.575,4.577
			c0.265,0.833,1.175,1.461,2.028,2.452c2.403-2.411,4.969-4.985,7.584-7.608c2.057,1.48,7.964,1.228,10.8-0.294
			c4.533-2.432,6.23-6.442,7.719-11.062c0.988-3.06,0.992-6.042,1.351-9.077c0.057-0.498,0.661-0.947,0.689-1.437
			c0.078-1.31-0.032-2.628-0.041-3.941c-0.008-1.139-0.18-2.325,0.082-3.402c0.551-2.265,1.534-4.439,1.934-6.72
			c0.179-1.017-0.734-2.184-0.935-3.321c-0.22-1.265-0.767-3.02-0.171-3.778c1.812-2.317,1.134-4.852,1.179-7.278
			c0.061-3.269-0.033-6.288,2.644-8.964c2.056-2.061,3.043-5.153,4.965-7.393c3.015-3.521,6.104-7.026,11.008-8.254
			c1.656-0.416,3.28-1.738,4.467-3.052c1.375-1.522,2.934-1.241,4.566-1.379c1.313-0.11,3.015,0.784,3.77-1.22
			c0.057-0.147,0.628-0.232,0.894-0.143c1.053,0.363,2.232,3.362,1.754,4.341c-1.844,3.762-1.869,9.845-0.11,13.578
			c0.2,0.42,0.22,0.988,0.146,1.457c-0.465,2.97,0.845,5.259,2.689,7.385c0.232,0.265,0.302,0.746,0.298,1.126
			c-0.061,3.097,0.983,5.732,2.84,8.217c1.191,1.592,1.677,3.705,2.876,5.288c1.596,2.109,3.672,3.843,5.353,5.896
			c1.804,2.203,3.9,4.382,4.941,6.948c1.44,3.546-0.792,6.622-2.868,9.352c-2.207,2.9-4.704,5.573-7.042,8.372
			c-1.763,2.105-3.607,4.161-5.161,6.418c-1.008,1.46-2.15,3.215-2.203,4.871c-0.147,4.565-2.069,8.295-4.268,12.089
			c-1.02,1.759-1.183,3.999-1.856,5.978c-0.808,2.379-1.718,4.725-2.64,7.062c-0.473,1.191-1.187,2.293-1.591,3.505
			c-1.134,3.406-2.048,6.891-3.269,10.265c-1.489,4.138-2.174,8.572-4.431,12.428c-1.358,2.326-2.84,4.586-4.366,7.038
			c2.02,1.236,2.069,2.195,0.408,4.235c-1.799,2.216-2.252,5.418-1.685,8.449c0.094,0.502,0.722,1.245,1.143,1.277
			c1.052,0.073,2.162-0.086,3.186-0.371c0.812-0.225,1.534-0.771,2.762-1.424c0.082,1.812,0.176,3.011,0.176,4.21
			c-0.004,4.61,2.162,7.797,6.242,9.829c2.525,1.257,4.859,3.134,7.516,3.827c2.517,0.661,5.349,0.143,8.172,0.143
			c0.126-0.845,0.249-1.632,0.404-2.652c1.881,0,3.737,0,5.605,0c1.098-3.99-1.391-6.454-3.243-9.094
			c-2.154-3.072-4.468-6.03-6.659-9.074c-0.253-0.354-0.131-0.967-0.229-1.448c-0.428-2.117-1.044-4.215-1.252-6.353
			c-0.123-1.253,0.371-2.57,0.628-3.852c0.09-0.453,0.372-0.869,0.453-1.322c0.592-3.223,0.824-6.557,1.815-9.648
			c0.951-2.971,1.498-6.369,4.721-8.156c0.665-0.367,1.183-1.154,1.555-1.86c1.934-3.656,5.867-4.794,8.882-7.066
			c2.313-1.742,4.998-2.987,7.369-4.664c0.894-0.628,1.24-1.979,2.064-2.766c1.889-1.8,4.716-2.726,5.088-6.047
			c2.648,0.648,4.663,0.008,5.924-2.452c0.119-0.229,1.245,0.065,2.464,0.155c1.58-2.265,3.869-4.651,7.385-5.182
			c0.91-4.023,1.905-4.839,3.994-3.949c-0.285,1.823-0.551,3.521-0.812,5.218c0.269,0.073,0.538,0.151,0.808,0.225
			c0.253-0.343,0.461-0.73,0.767-1.012c0.262-0.245,0.637-0.367,0.567-0.331c1.11,1.384,2.105,2.538,2.991,3.771
			c0.399,0.559,0.856,1.293,0.812,1.917c-0.196,2.873-0.808,5.737-0.763,8.597c0.024,1.604,0.819,3.31,1.636,4.766
			c1.351,2.407,2.995,4.651,4.031,7.218c0.942,0.403,1.856,0.914,2.835,1.191c2.489,0.706,2.375,2.656,2.873,4.696
			c0.555,2.276,1.913,4.573,3.509,6.332c2.423,2.676,5.112,5.026,6.903,8.303c1.203,2.207,2.721,4.161,2.999,6.789
			c0.069,0.669,0.987,1.208,1.252,1.905c0.648,1.726,1.028,3.554,1.726,5.255c0.988,2.411,2.22,4.725,3.236,7.128
			c0.881,2.077,2.362,4.275,2.215,6.32c-0.204,2.889,1.681,4.834,2.081,7.348c0.212,1.347,1.203,2.688,1.061,3.941
			c-0.379,3.293,1.804,4.847,3.99,6.161c1.244,0.746,3.162,0.844,3.497-1.583c0.049-0.363,0.473-0.678,0.722-1.013
			c0.261,0.225,0.755,0.449,0.759,0.678c0.028,3.297,2.962,3.872,4.957,5.193c5.562,3.681,11.897,3.077,18.095,2.812
			c0.992-0.041,1.931-1.306,2.894-2.003c-0.135-0.27-0.27-0.539-0.404-0.808c1.289,0,2.583,0.053,3.872-0.013
			c1.362-0.069,2.072-0.8,1.362-2.117c-1.905-3.554-4.451-6.688-7.475-9.29c-1.297-1.114-3.451-1.159-5.063-1.987
			c-1.615-0.828-3.174-1.885-4.516-3.101c-2.502-2.265-4.827-4.717-7.218-7.104c-0.212-0.212-0.425-0.481-0.494-0.759
			c-0.555-2.293-0.812-4.696-1.668-6.867c-1.008-2.554-2.534-4.908-3.819-7.355c-0.592-1.122-1.289-2.22-1.689-3.407
			c-0.689-2.04-1.187-4.149-1.763-6.226c-0.897-3.236-2.117-6.427-2.603-9.723c-0.474-3.22-1.016-6.851,0.041-9.723
			c0.693-1.881,0.905-2.726,0.016-4.407c-0.452-0.856,0.322-2.35,0.511-3.562c0.347-2.248,2.615-3.811,2.138-6.422
			c-0.155-0.845,0.637-1.84,0.905-2.791c0.196-0.693,0.535-1.542,0.307-2.125c-1.343-3.444,0.433-6.785,0.191-10.204
			c-0.249-3.521-0.281-7.124,0.172-10.612c0.367-2.815,1.599-5.517,2.443-8.267c0.073-0.232,0.151-0.465,0.196-0.705
			c0.493-2.575,0.979-5.149,1.46-7.703c1.204,0,2,0,2.926,0c0.167,1.383,0.318,2.66,0.489,4.063
			c0.771,0.098,1.518,0.098,2.203,0.298c2.045,0.583,4.072,1.22,6.088,1.889c0.84,0.277,1.624,0.723,2.452,1.041
			c2.342,0.894,4.688,1.782,7.05,2.623c1.751,0.624,3.501,1.273,5.3,1.726c2.555,0.645,5.365,0.678,7.667,1.796
			c2.235,1.085,4.5,0.894,6.679,1.469c2.379,0.624,4.541,2.06,6.817,3.097c0.967,0.44,1.987,1.093,2.979,1.085
			c3.411-0.032,6.287,1.636,9.396,2.562c1.228,0.367,2.607,0.208,3.884,0.448c1.298,0.245,2.542,0.771,3.84,1.017
			c0.722,0.134,1.529,0.057,2.248-0.123c0.795-0.195,1.534-0.62,2.436-1.003c0.314,1.199,0.538,2.044,0.873,3.312
			c2.774-2.093,5.312-4.011,7.866-5.94c1.759,1.856,3.668,1.244,6.397,0.469c3.419-0.975,5.635-4.691,9.865-3.843
			c1.265,0.253,2.893-1.322,4.55-2.158c1.501,0.84,3.227,1.971,5.201-0.221c0.506-0.559,2.036-1.371,2.938,0.543
			c0.542,1.158,2.02,1.877,3.395,3.068c-1.363,0.354-2.318,0.604-3.244,0.844c0.013,1.89,4.247,2.109,1.677,4.835
			c0.633,0.788,1.905,1.571,0.143,2.595c-0.265,0.155-0.506,0.788-0.399,1.069c0.747,2.003,1.566,3.986,2.403,5.953
			c0.551,1.297,1.714,2.582,1.673,3.839c-0.131,3.921,1.158,7.344,2.819,10.734c0.2,0.412,0.122,0.971,0.122,1.465
			c0,5.026-0.094,10.053,0.004,15.08c0.058,2.844-0.853,5.222-2.509,7.474c-0.44,0.601-0.232,1.682-0.335,2.652
			c1.081,0.176,1.946,0.314,2.987,0.481c-0.147,2.22,0.86,4.558-1.29,6.349c-0.094,0.077-0.057,0.314-0.085,0.478
			c-0.567,3.063-0.698,6.304-1.812,9.155c-1.714,4.39-0.359,9.001-1.494,13.235c-0.913,3.423-1.354,6.765-1.436,10.229
			c-0.037,1.543-0.004,3.081-0.004,4.831c2.35,0,4.357,0.294,6.234-0.069c2.66-0.519,3.5,1.184,4.202,2.966
			c0.845,2.15,3.537,4.297,5.777,4.57c2.762,0.334,5.483,1.22,8.241,1.301c2.094,0.062,4.198-0.922,6.332-1.138
			c2.105-0.213,4.252-0.045,6.259-0.045c0.987-3.22-1.852-4.109-2.934-5.839c-1.57-2.525-3.831-4.643-5.903-6.834
			c-0.89-0.938-2.191-1.493-3.035-2.46c-1.437-1.645-3.187-3.297-3.856-5.268c-0.987-2.917-1.717-6.156-1.505-9.184
			c0.261-3.737,1.648-7.39,2.464-11.098c0.629-2.868,1.081-5.777,1.686-8.654c0.881-4.227,2.293-8.221,4.851-11.799
			c1.098-1.538,1.628-3.473,2.489-5.19c1.338-2.668,2.803-5.275,4.08-7.968c0.795-1.677,1.375-3.46,2.003-5.214
			c0.865-2.412,1.677-4.839,2.521-7.259c0.583-1.669,1.069-3.383,1.808-4.978c1.248-2.709,2.672-5.337,3.994-8.013
			c0.208-0.425,0.204-0.955,0.404-1.388c1.146-2.46,2.252-4.945,3.528-7.336c0.694-1.302,1.567-2.574,2.624-3.582
			c0.51-0.489,1.628-0.351,2.473-0.494c-0.58,1.311,3.419,0.927,1.085,3.102c-0.62,0.579-0.771,2.799-0.253,3.247
			c1.343,1.167,1.212,2.448,1.008,3.766c-0.367,2.388,0.208,4.224,2.244,5.7c1.326,0.963,2.301,2.313,2.162,4.17
			c-0.188,2.505,2.175,3.357,3.46,4.749c2.484,2.692,5.341,4.99,7.075,8.372c1.733,3.383,4.019,6.495,5.602,9.935
			c0.999,2.175,1.02,4.773,1.738,7.107c0.641,2.081,1.607,4.06,2.477,6.067c0.542,1.252,1.407,2.415,1.718,3.717
			c0.697,2.921,1.346,5.888,1.628,8.87c0.261,2.774-0.209,5.622,0.064,8.396c0.339,3.464,0.56,7.111,1.856,10.257
			c1.062,2.574,1.298,5.532,3.681,7.765c2.86,2.685,5.161,3.659,7.295,0.759c1.991-2.709,2.66-0.167,3.357,0.396
			c1.82,1.461,3.313,3.325,4.958,5.006c0.216,0.221,0.525,0.4,0.823,0.474c5.537,1.396,11.151,2.211,16.851,1.473
			c1.326-0.171,2.546-1.146,3.876-1.778c1.453-3.668-0.534-6.227-3.215-8.467c-2.831-2.366-5.65-4.77-8.642-6.928
			c-1.877-1.354-4.251-2.044-6.055-3.472c-1.624-1.281-2.786-3.149-4.125-4.782c-0.983-1.195-1.782-2.578-2.917-3.603
			c-1.714-1.55-1.33-3.5-1.525-5.401c-0.099-0.959-0.82-1.849-0.972-2.815c-0.27-1.685-0.232-3.419-0.478-5.108
			c-0.265-1.86-0.542-3.745-1.109-5.524c-0.592-1.848-0.151-6.491,0.991-7.494c-1.559-1.824-1.644-4.998-0.363-7.148
			c0.388-0.648,0.445-1.562,0.457-2.358c0.065-4.365,0.159-8.739,0.033-13.101c-0.033-1.208-0.918-2.366-1.159-3.599
			c-0.188-0.947-1.122-2.203,0.612-2.86c0.31-0.118,0.612-0.727,0.616-1.109c0.041-2.224,0.114-4.456-0.086-6.663
			c-0.073-0.791-1.077-1.465-1.289-2.289c-0.571-2.211-0.335-4.562,1.669-5.781c2.052-1.248,0.864-1.771,0.42-2.537
			c0.257-1.073,0.661-2.139,0.742-3.224c0.135-1.795-0.596-4.011,0.208-5.341c2.628-4.333,0.927-8.87,1.216-13.284
			c0.498-7.572,8.005-12.701,9.34-20.421c0.493,2.232,0.982,4.468,1.477,6.699c1.819,0.209,3.64,0.421,5.459,0.629
			c0.42-3.533,0.841-7.066,1.261-10.596c-0.086,3.704,1.546,7.413,4.337,9.849c2.171-1.342,4.342-2.681,6.508-4.022
			c-1.098-1.542-0.861-3.88,0.519-5.17c0.946,1.318,1.896,2.632,2.848,3.95c0.371,0.518,3.741-5.859,3.937-6.483
			c2.444,0.392,3.477,1.991,5.247,3.852c0.494-1.358,0.033-3.317-0.281-4.582c5.182-0.779,11.795-1.367,11.795-8.278
			c1.049,7.332,33.396-15.255,35.146-6.948c0.755-0.232,1.506-0.469,2.632-0.816c1.484,2.175,2.835,0.641,4.304-0.351
			c47.798,32.502,78.096,6.916,78.096,6.916c-16.858,1.216-29.768-3.252-39.449-9.621c0.139-0.012,0.281-0.024,0.42-0.037
			c0.122-1.722,0.216-3.056,0.33-4.675c2.248,0.579,4.57,1.069,6.813,1.803c0.616,0.204,1.73,0.216,2.845,0.069
			c33.125,5.598,50.094-13.113,50.094-13.113C571.589,265.886,559.235,263.985,549.296,259.888z"/>
	</g>
</g>
<g>
</g>
<g>
</g>
<g>
</g>
<g>
</g>
<g>
</g>
<g>
</g>
<g>
</g>
<g>
</g>
<g>
</g>
<g>
</g>
<g>
</g>
<g>
</g>
<g>
</g>
<g>
</g>
<g>
</g>
</svg>
