<?xml version="1.0" encoding="iso-8859-1"?>
<!-- Generator: Adobe Illustrator 16.0.0, SVG Export Plug-In . SVG Version: 6.00 Build 0)  -->
<!DOCTYPE svg PUBLIC "-//W3C//DTD SVG 1.1//EN" "http://www.w3.org/Graphics/SVG/1.1/DTD/svg11.dtd">
<svg version="1.1" id="Capa_1" xmlns="http://www.w3.org/2000/svg" xmlns:xlink="http://www.w3.org/1999/xlink" x="0px" y="0px"
	 width="588.35px" height="588.35px" viewBox="0 0 588.35 588.35" style="enable-background:new 0 0 588.35 588.35;"
	 xml:space="preserve">
<g>
	<g>
		<path d="M574.465,202.34c-5.293-8.931-9.98-18.262-15.811-26.818c-6.047-8.878-13.174-17.014-19.783-25.512
			c-4.379-5.626-8.389-11.571-13.078-16.924c-6.943-7.924-16.025-12.387-26.348-14.101c-3.158-0.522-6.475-0.057-9.719-0.123
			c-2.08-0.041-3.725-0.698-3.604-3.251c0.066-1.326,0.104-2.652,0.164-3.974c0.232-5.251,0.469-10.502,0.705-15.753
			c-0.506-0.143-1.012-0.286-1.514-0.428c-2.889,6.989-5.846,13.949-8.637,20.975c-1.057,2.664-1.848,5.214-4.721,6.769
			c-4.789,2.591-9.543,5.337-13.965,8.503c-6.516,4.664-13.191,9.27-18.936,14.794c-6.193,5.953-13.146,10.053-21.416,11.314
			c-7.535,1.15-14.881,1.183-20.857-5.729c-5.238-6.062-11.555-11.265-17.777-16.381c-8.262-6.797-18.551-8.482-28.678-8.584
			c-10.604-0.106-21.395,0.698-31.795,2.701c-12.139,2.338-23.991,6.247-35.88,9.772c-8.229,2.44-16.458,5.014-24.427,8.185
			c-15.116,6.01-30.637,9.616-46.94,9.747c-3.395,0.028-6.797,0.379-10.175,0.759c-9.033,1.016-18.054,2.179-27.087,3.182
			c-5.137,0.571-10.306,0.849-15.438,1.428c-6.863,0.771-13.688,1.869-20.559,2.534c-8.638,0.832-17.336,1.114-25.953,2.093
			c-11.767,1.338-22.909,5.145-33.644,10c-8.744,3.954-17.234,8.466-25.929,12.538c-4.827,2.265-9.922,3.954-14.745,6.222
			c-11.546,5.435-16.969,14.786-16.785,27.426c0.11,7.609,0.424,15.218,0.649,22.828c0.012,0.44,0.041,0.885,0.086,1.326
			c0.632,6.333,1.579,12.656,1.815,19.005c0.212,5.753-1.408,11.024-6.467,14.68c-1.02,0.739-2.016,1.897-2.391,3.068
			c-1.975,6.091-6.275,9.531-12.199,11.297c-0.399,0.118-0.901,0.326-1.097,0.648c-0.58,0.967-1.028,2.016-1.53,3.031
			c1.224,0.474,2.456,1.367,3.664,1.335c2.154-0.062,4.276-0.82,6.434-1.041c5.251-0.53,14.533-7.16,14.733-12.122
			c0.229-5.683,1.999-10.897,2.754-16.34c0.788-5.696,0.09-11.583,0.2-17.385c0.147-7.838,0.257-15.684,0.735-23.505
			c0.326-5.324,2.26-10.249,5.622-14.443c0.743-0.926,2.272-1.22,3.439-1.803c0.49,1.354,1.587,2.815,1.367,4.039
			c-0.824,4.603-2.362,9.082-3.097,13.697c-1.175,7.385-1.607,14.806,0.388,22.199c0.958,3.562,1.575,7.234,2.146,10.885
			c0.947,6.055,1.53,12.171,2.652,18.193c0.775,4.153,2.591,8.127,3.264,12.289c1.579,9.809,4.712,19.001,9.208,27.854
			c6.356,12.521,9.784,25.899,10.163,39.967c0.188,6.981,0,13.967,0.025,20.951c0.012,3.782,1.305,6.952,4.006,9.768
			c2.477,2.578,5.357,5.333,6.455,8.556c2.191,6.459,3.472,13.252,4.782,19.976c1.644,8.458,3.044,16.969,4.345,25.488
			c0.767,5.01,1.363,10.069,1.604,15.124c0.123,2.562,0.873,3.767,3.386,4.28c3.929,0.8,5.369,2.885,6.079,6.683
			c0.91,4.876,0.098,10.033,2.999,14.623c1.665,2.632,3.468,4.048,6.552,3.986c3.211-0.065,6.426,0.065,9.641,0.053
			c5.94-0.024,11.877-0.045,17.813-0.191c0.877-0.021,1.738-0.743,2.868-1.265c-0.82-0.927-1.595-1.567-2.04-2.383
			c-0.388-0.706-0.775-1.808-0.478-2.379c0.306-0.588,1.424-0.991,2.211-1.045c2.575-0.167,5.166-0.04,7.736-0.232
			c0.857-0.064,1.669-0.746,2.501-1.146c-0.461-0.824-0.71-2.007-1.408-2.411c-6.834-3.925-10.971-10.424-15.324-16.532
			c-8.193-11.497-12.876-24.627-14.337-38.544c-1.265-12.056-1.061-24.268-1.505-36.409c-0.037-0.996,0.27-2.126-0.094-2.971
			c-1.453-3.357,0.008-6.055,1.946-8.466c1.832-2.28,4.194-4.129,6.107-6.353c2.767-3.215,5.773-6.349,7.862-9.983
			c1.934-3.354,2.778-7.332,4.129-11.024c2.073-5.659,4.21-11.244,8.731-15.569c6.663-6.373,11.876-6.785,19.098-1.313
			c3.668,2.778,7.299,5.605,11.061,8.249c2.023,1.425,3.909,1.2,5.121-1.31c1.003-2.076,2.819-2.391,4.777-1.754
			c1.444,0.469,2.824,1.188,4.149,1.946c4.562,2.611,8.858,5.834,13.668,7.833c12.469,5.19,25.104,10,37.781,14.68
			c7.528,2.779,15.28,4.619,23.485,4.023c8.678-0.629,17.385-0.955,26.083-1.281c4.002-0.151,4.415,0.779,2.84,4.419
			c-0.979,2.264-1.514,4.725-2.248,7.099c0.314,0.147,0.632,0.29,0.951,0.437c2.073-1.236,4.149-2.473,6.222-3.708
			c0.338,0.265,0.681,0.53,1.02,0.791c-0.747,3.235-1.493,6.475-2.289,9.91c1.983,0.804,2.917,2.023,1.64,4.46
			c-0.583,1.109-0.037,2.774-0.184,4.165c-0.184,1.751-0.343,3.554-0.906,5.202c-0.526,1.547-1.567,2.917-2.407,4.415
			c1.616,0.746,2.835,1.068,3.713,1.799c0.657,0.547,1.33,1.701,1.199,2.444c-0.498,2.848-1.317,5.639-2.003,8.389
			c3.542,1.778,3.591,2.149,1.289,5.369c-1.322,1.853-2.664,3.717-3.757,5.708c-1.269,2.309-0.829,3.749,2.248,3.594
			c2.86-0.143,3.942,1.204,3.26,4.121c-0.232,0.996,0.338,2.179,0.709,4.198c1.457-2.056,2.301-3.068,2.941-4.198
			c0.805-1.416,1.625-2.99,3.469-1.722c1.869,1.285,1.889,3.085,0.424,4.855c-0.914,1.105-2.016,2.125-2.643,3.378
			c-1.033,2.048-3.457,3.799-2.025,6.65c5.635-1.396,7.43,0.4,6.377,6.01c-0.227,1.216-0.031,2.514-0.031,3.93
			c4.537-2.105,5.07-1.693,5.223,3.101c0.061,1.864,0.514,3.717,0.893,6.304c0.947-1.151,1.42-1.575,1.709-2.102
			c2.648-4.794,5.199-5.214,8.977-1.199c1.072,1.143,1.922,2.737,2.289,4.268c1.127,4.676,0.607,9.592,3.92,13.921
			c2.15,2.807,4,4.606,7.578,4.398c8.58-0.498,17.168-0.841,25.74-1.412c1.623-0.11,3.195-0.991,4.789-1.518
			c0.201-0.367,0.396-0.734,0.596-1.102c-1.076-0.743-2.268-1.367-3.215-2.252c-4.814-4.509-9.975-8.739-14.227-13.737
			c-4.084-4.807-7.385-10.327-10.629-15.77c-0.82-1.375-0.166-3.668-0.016-5.524c0.016-0.225,1.6-0.6,1.648-0.506
			c0.697,1.399,1.244,2.868,1.852,4.312c0.281,0.669,0.6,1.318,0.906,1.979c0.719-0.403,1.963-0.701,2.068-1.228
			c0.461-2.334,1.203-4.863,0.719-7.075c-0.955-4.361,2.23-7.495,2.623-11.375c0.025-0.257,0.404-0.571,0.689-0.689
			c3.15-1.33,2.447-3.692,1.578-6.026c-0.451-1.224-1.342-2.317-1.643-3.562c-0.393-1.607-1.221-3.668,1.852-3.803
			c0.51-0.024,1.086-0.828,1.453-1.387c2.076-3.121,1.387-6.304,0.432-9.642c-0.318-1.109,0.213-3.239,1.057-3.762
			c2.971-1.827,4.039-4.785,4.746-7.683c0.57-2.35,1.574-2.321,3.219-1.771c0.84,0.281,1.604,0.804,3.189,1.624
			c-0.406-2.465-0.762-4.031-0.881-5.618c-0.045-0.653,0.43-1.338,0.67-2.012c0.664,0.257,1.551,0.335,1.945,0.812
			c0.869,1.061,1.49,2.325,2.211,3.509c0.318-0.009,0.637-0.013,0.955-0.021c0.27-1.86,0.355-3.771,0.873-5.562
			c0.33-1.154,1.293-2.125,1.971-3.178c1.057,0.783,2.391,1.379,3.098,2.402c0.723,1.053,0.832,2.53,1.379,4.395
			c1.102-1.167,1.922-1.754,2.371-2.554c1.166-2.081,2.166-4.256,3.234-6.39c2.012-4.022,3.537-4.811,8.131-4.554
			c0.67,0.037,1.6-0.615,2.049-1.215c2.18-2.922,4.104-6.043,6.377-8.887c2.367-2.958,6.26-2.325,7.969,1.069
			c0.359,0.71,0.852,1.351,1.762,2.766c0.67-2.04,1.322-3.305,1.477-4.627c0.58-5.034,4.26-7.955,9.168-6.417
			c1.375,0.428,3.354-1,5.031-1.637c1.771-0.673,3.496-1.469,5.283-2.101c0.797-0.282,1.779-0.103,2.525-0.453
			c3.543-1.656,6.994-3.513,10.551-5.133c4.223-1.926,5.039-1.587,7.68,2.448c0.359,0.551,0.896,0.987,1.709,1.856
			c0-1.493-0.123-2.399,0.033-3.256c0.162-0.91,0.582-1.775,0.893-2.66c0.869,0.313,1.795,0.522,2.592,0.967
			c1.178,0.657,2.264,1.477,3.395,2.231c0.221-0.146,0.443-0.289,0.668-0.437c-1.648-4.047-3.301-8.095-5.133-12.599
			c2.02,0,3.623,0,5.826,0c-3.891-6.867,4.652-5.288,5.35-9.074c2.787,1.126,5.574,2.256,8.857,3.586
			c-0.619-1.387-1.236-2.562-1.676-3.798c-0.922-2.607-2.982-5.684-0.09-7.797c2.758-2.016,4.965-4.153,6.352-7.222
			c0.172-0.375,0.625-0.914,0.922-0.897c3.807,0.2,4.881-2.224,5.316-5.345c0.041-0.29,0.389-0.522,0.555-0.809
			c3.135-5.308,3.113-5.295,6.072-0.338c0.346,0.583,1.039,1.326,1.574,1.33c0.498,0.004,1.293-0.8,1.457-1.392
			c0.645-2.297,1.346-4.623,1.559-6.985c0.395-4.397,0.656-4.777,4.916-4.447c1.371-4.52,2.338-4.769,5.811-1.26
			c1.5,1.521,2.867,2.121,4.928,0.967c5.582-3.121,9.955-1.547,12.521,4.382c0.861,1.991,1.992,2.909,4.357,2.02
			c1.184-0.445,2.713-0.037,4.076,0.102c3.717,0.376,7.137,2.864,11.232,0.947c1.865-0.873,4.107-0.588,4.297,2.737
			c0.068,1.199,1.75,3.198,2.77,3.243c1.633,0.078,4.166-0.154,3.814-3.256c-0.045-0.392,1.391-1.244,2.211-1.35
			c0.682-0.086,1.465,0.607,2.164,0.938c2.561-3.962,3.482-3.995,5.846-0.453c0.123,0.184,0.184,0.403,0.307,0.583
			c1.436,2.126,4.512,2.726,6.984,1.534c2.68-1.285,1.215-3.08,0.67-4.712c-0.727-2.159-0.393-3.484,2.215-3.448
			c0.641,0.009,1.281-0.094,2.035-0.155c-2.129-4.68-4.264-9.171-6.221-13.741c-1.188-2.77-1.967-5.716-3.195-8.466
			c-0.656-1.477-1.93-2.672-2.82-4.063c-1.541-2.407-1.215-4.26,1.184-6.198c2.971-2.399,5.598-5.247,8.172-8.086
			c0.682-0.751,1.232-2.615,0.797-3.228c-2.66-3.75,0.143-5.104,2.635-6.556c3.908-2.273,7.699-5.141,8.625-9.495
			c1.389-6.52,0.58-13.199-2.807-19.147C581.604,213.588,577.859,208.064,574.465,202.34z"/>
	</g>
</g>
<g>
</g>
<g>
</g>
<g>
</g>
<g>
</g>
<g>
</g>
<g>
</g>
<g>
</g>
<g>
</g>
<g>
</g>
<g>
</g>
<g>
</g>
<g>
</g>
<g>
</g>
<g>
</g>
<g>
</g>
</svg>
