<?xml version="1.0" encoding="iso-8859-1"?>
<!-- Generator: Adobe Illustrator 16.0.0, SVG Export Plug-In . SVG Version: 6.00 Build 0)  -->
<!DOCTYPE svg PUBLIC "-//W3C//DTD SVG 1.1//EN" "http://www.w3.org/Graphics/SVG/1.1/DTD/svg11.dtd">
<svg version="1.1" id="Capa_1" xmlns="http://www.w3.org/2000/svg" xmlns:xlink="http://www.w3.org/1999/xlink" x="0px" y="0px"
	 width="575.756px" height="575.756px" viewBox="0 0 575.756 575.756" style="enable-background:new 0 0 575.756 575.756;"
	 xml:space="preserve">
<g>
	<g>
		<path d="M458.609,24.264c-1.122-3.578-3.089-6.467-7.259-7.531c3.941,7.217,1.995,14.084-1.272,20.383
			c-3.48,6.704-5.684,8.454-12.64,6.81c8.438-16.52,6.051-31.297-7.724-43.925c-0.412,1.579-0.416,3.121-0.045,4.565
			c0.71,2.758,1.673,5.451,2.456,8.193c1.607,5.618,1.191,11.049-1.693,16.198c-2.566,4.573-6.483,5.267-10.424,1.856
			c-1.963-1.697-3.722-3.697-5.867-5.104c-7.707-5.042-15.116-10.4-21.127-17.482c-0.722-0.853-1.709-1.485-2.574-2.216
			c-0.375,0.233-0.751,0.465-1.126,0.698c1.84,4.717,3.681,9.437,5.59,14.337c-1.534-0.351-2.856-0.653-4.174-0.951
			c0.216,1.661,0.815,2.697,1.64,3.497c2.399,2.333,4.803,4.676,7.356,6.838c9.14,7.748,15.398,17.185,16.769,29.291
			c0.543,4.77,0.625,9.641,0.396,14.439c-0.192,4.027-0.277,8.413-1.905,11.955c-5.276,11.464-11.225,22.619-16.965,33.868
			c-0.384,0.755-1.171,1.302-2.514,2.738c0-8.254,0.44-15.438-0.122-22.546c-0.56-7.059-1.551-14.199-5.459-20.441
			c-0.44,0.938-0.494,1.787-0.519,2.636c-0.294,10.155-0.139,20.347-0.987,30.457c-0.935,11.122-3.77,21.75-12.439,29.784
			c-5.618,5.202-11.191,10.453-16.903,15.545c-0.73,0.653-2.175,0.502-3.289,0.726c-0.094-1.036-0.403-2.109-0.245-3.109
			c0.735-4.643,1.906-9.233,2.351-13.9c0.894-9.368,1.424-18.772,2.064-28.16c0.041-0.612-0.245-1.245-0.592-2.856
			c-3.737,8.144-6.602,15.529-7.401,23.473c-1.048,10.379-3.104,20.298-9.363,29.009c-1.163,1.615-1.366,4.076-1.566,6.185
			c-0.302,3.17-1.669,5.235-4.631,6.524c-7.16,3.113-14.436,3.778-22.126,2.293c-3.565-0.689-6.173-1.942-8.062-5.108
			c-2.636-4.415-5.075-9.11-8.511-12.848c-4.643-5.055-8.527-10.237-9.698-17.14c-0.289-1.709-0.697-3.407-1.179-5.071
			c-2.183-7.524-4.411-15.035-6.626-22.546c-0.428,0.086-0.853,0.167-1.281,0.253c-0.094,13.228,1.51,26.329,4.158,40.078
			c-2.224-1.742-3.753-2.97-5.312-4.162c-7.932-6.071-14.615-13.064-17.193-23.117c-1.2-4.68-2.493-9.343-3.611-14.043
			c-1.297-5.451-2.452-10.938-3.672-16.406c-4.149,9.233-0.938,18.646-1.518,28.14c-5.34-9.172-11.065-18.209-15.026-27.96
			c-4.945-12.163-6.275-24.807-0.833-37.626c2.615-6.161,6.916-10.71,11.02-15.651c2.171-2.611,3.248-6.128,5.133-9.861
			c-2.317,0-3.37,0-4.639,0c1.509-7.997,3.814-15.667,3.496-23.791c-1.248,0.612-2.003,1.359-2.562,2.232
			c-4.337,6.793-8.609,13.627-12.962,20.408c-3.35,5.218-6.655,10.469-10.225,15.537c-2.518,3.57-5.292,4.333-8.768,2.758
			c1.077-2.04,2.142-4.055,3.203-6.071c-0.253-0.176-0.506-0.355-0.754-0.53c-1.938,1.407-3.876,2.819-6.018,4.377
			c-3.027-4.737-3.843-9.576-3.113-14.569c1.053-7.234,2.526-14.407,3.705-21.624c0.318-1.95,0.221-3.966,0.314-5.949
			c-0.396-0.098-0.792-0.196-1.188-0.294c-0.689,1.061-1.53,2.052-2.048,3.195c-2.722,5.981-5.206,12.077-8.058,17.993
			c-4.745,9.833-3.791,19.151,1.709,28.368c1.126,1.889,1.232,4.357,2.003,6.487c1.362,3.766,2.762,7.528,4.353,11.204
			c2.485,5.737,5.928,11.073,5.472,17.805c-0.841,12.342,2.423,23.464,11.379,32.297c8.095,7.984,16.369,15.81,24.945,23.268
			c9.535,8.295,19.535,16.059,29.253,24.146c2.338,1.946,4.374,4.255,6.544,6.397c-7.226-1.901-13.701-4.79-20.445-6.736
			c-7.111-2.048-12.876-5.521-16.96-11.73c-0.404-0.616-1.334-0.89-2.015-1.322c-0.433,0.808-1.367,1.734-1.212,2.403
			c0.555,2.371,1.041,4.941,2.342,6.916c5.655,8.568,11.387,17.107,17.516,25.337c2.676,3.594,5.904,7.369,9.763,9.311
			c3.064,1.542,6.422,2.313,8.446,5.324c1.392,2.069,2.48,4.341,3.717,6.512c3.011,5.275,3.464,10.506-0.167,15.716
			c-0.347,0.498-0.62,1.093-0.764,1.681c-2.937,12.265-5.813,24.542-8.812,36.79c-0.302,1.232-1.032,2.624-1.999,3.386
			c-4.945,3.917-10.506,6.483-16.916,6.834c-13.979,0.771-27.957,1.612-41.947,2.195c-2.901,0.123-5.842-0.738-8.764-1.175
			c-2.064-0.311-4.194-1.204-6.165-0.926c-8.046,1.13-16.042,2.615-24.06,3.954c-2.787,0.465-5.847,0.298-8.319,1.428
			c-6.148,2.812-12.428,5.639-17.915,9.507c-6.854,4.834-15.908,6.866-20.176,15.157c-0.204,0.399-0.755,0.628-1.15,0.926
			c-7.732,5.761-11.787,13.908-14.031,22.905c-2.485,9.963,1.102,19.854,1.245,29.812c0,0.118,0.069,0.236,0.098,0.358
			c2.954,13.51,6.614,26.912,8.646,40.556c1.808,12.134,1.962,24.533,2.562,36.826c0.518,10.616,0.653,21.253,0.918,31.885
			c0.037,1.478,0.143,3.064-0.306,4.432c-2.917,8.927-5.182,18.196-9.25,26.585c-3.109,6.418-4.533,12.272-3.974,19.417
			c0.616,7.932-0.779,16.006-1.094,24.026c-0.204,5.166-0.037,10.348-0.037,15.524c-1.501,9.271-0.73,13.812,12.672,11.579
			c13.403-2.235,18.617,6.704,16.752-3.725c-1.864-10.429-12.962-15.704-12.962-15.704c-0.657-0.914-1.971-1.93-1.853-2.726
			c0.42-2.786,1.236-5.532,2.089-8.233c2.635-8.364,5.292-16.724,8.074-25.035c1.84-5.499,3.672-11.023,5.94-16.353
			c6.247-14.684,12.705-29.277,19.115-43.896c3.468-7.915,6.169-16.238,12.33-23.411c3.672,5.312,5.716-1.289,8.421-0.673
			c6.022,4.101,3.378,10.444,4.056,15.74c0.722,5.676,0.624,11.596-2.371,17.03c-5.5,9.976-10.474,20.257-16.267,30.053
			c-3.166,5.357-3.142,9.927-0.445,15.337c5.108,10.258,10.486,20.49,14.239,31.257c1.983,5.691,6.145,9.792,8.062,15.324
			c1.069,2.534-3.382,12.383,3.317,10.919c6.703-1.465,22.354,2.582,22.726,0c0.371-2.583-2.607-13.782-10.425-18.997
			c-7.817-5.214-7.67-22.175-7.67-22.175c-2.509-11.375,1.098-20.931,8.38-29.58c4.203-4.989,8.511-10.004,11.901-15.54
			c3.603-5.884,6.177-12.399,9.213-18.634c0.869-1.783,1.824-3.521,2.685-5.308c1.138-2.367,2.868-3.688,5.606-3.37
			c0.245,0.028,0.518,0.085,0.738,0.012c5.851-1.868,11.587-0.396,17.385,0.416c2.896,0.404,5.912-0.073,8.833,0.241
			c1.163,0.126,2.941,1.098,3.211,2.036c4.733,16.65,10.375,33.08,11.44,50.607c0.241,3.93,2.538,7.703,3.59,11.624
			c0.955,3.558-0.384,7.193-0.061,10.849l0.926,10.429c0,0-4.076,20.796-1.346,21.29c2.729,0.497,9.682-1.241,13.901,0.742
			c4.219,1.987,14.022-0.991,14.022-0.991c1.118-6.704-10.359-15.182-10.359-15.182c-0.109-8.389-0.583-16.802,0.062-25.17
			c0.277-3.623,2.387-7.119,2.604-10.738c0.236-3.966-0.478-8.059-1.253-11.999c-1.497-7.638-3.835-15.138-4.872-22.824
			c-0.946-7.033-0.562-14.243-0.913-21.366c-0.151-3.044,0.999-4.908,3.517-6.725c7.226-5.218,22.448-5.561,29.494,1.551
			c1.036,1.049,3.473,0.71,6.096,0.955c0.375,0.032,0.669,0.33,0.718,0.701c2.66,20.498,5.414,41.682,8.193,63.094
			c0.073,0.551,4.394,16.988,2.297,19.273c-1.143,1.244-0.485,4.137-0.294,7.079c0.041,0.616-4.762,10.18,1.195,17.254
			c5.957,7.075,26.063,6.328,26.063,6.328s-0.743-3.721-2.607-11.913c-1.86-8.193-4.777-8.527-4.777-8.527
			c-2.562-4.142-2.281-7.703,0.869-11.049c-0.078-0.612,0.081-1.502-0.254-1.774c-3.435-2.783-2.243-6.324-2.039-9.891
			c0.261-4.545,0-9.127-0.188-13.685c-0.526-12.729-2.027-25.499-1.432-38.176c0.493-10.474,3.651-20.796,5.198-31.253
			c1.044-7.083,1.505-14.272,1.917-21.429c0.29-5.096,1.547-9.53,5.101-13.447c2.398-2.644,4.243-5.879,5.92-9.069
			c1.42-2.701,1.995-5.843,3.374-8.572c4.337-8.589,8.548-17.132,4.912-27.141c-0.081-0.225-0.049-0.493-0.073-0.738
			c-0.938-9.494-1.873-18.988-2.812-28.482c-0.306-3.08-0.983-6.173-0.853-9.233c0.212-5.034,1.457-10.057,1.347-15.067
			c-0.191-8.646-0.103-17.486-1.942-25.847c-2.093-9.486-5.699-18.735-9.526-27.715c-3.876-9.099-8.405-17.989-13.448-26.5
			c-3.378-5.7-3.007-11.224-1.787-17.038c0.294-1.396,1.543-2.754,2.665-3.786c4.858-4.456,10.433-8.25,12.456-15.092
			c0.542-1.84,1.44-3.741,2.681-5.177c4.651-5.402,9.584-10.567,14.264-15.949c1.848-2.126,3.488-4.492,4.839-6.96
			c0.62-1.13,0.306-2.771,0.416-4.178c-1.448,0.184-2.048,0.465-2.33,0.938c-3.108,5.21-7.902,7.871-13.517,9.792
			c-7.002,2.395-13.786,5.41-20.686,8.119c-0.694,0.273-1.498,0.257-3.24,0.531c1.861-2.395,2.954-4.19,4.415-5.61
			c4.79-4.671,9.641-9.29,14.603-13.778c6.801-6.153,13.823-12.069,20.575-18.274c7.197-6.61,14.011-13.644,21.318-20.119
			c11.195-9.922,16.01-22.154,14.006-36.896c-1.199-8.833,2.967-15.455,8.014-21.824c1.991-2.509,4.182-4.917,6.581-7.03
			c1.33-1.171,3.228-2.142,4.957-2.31c3.46-0.33,3.982-1.183,2.57-4.439c-0.641-1.481-0.836-3.521-0.38-5.051
			C458.544,36.476,460.592,30.576,458.609,24.264z"/>
	</g>
</g>
<g>
</g>
<g>
</g>
<g>
</g>
<g>
</g>
<g>
</g>
<g>
</g>
<g>
</g>
<g>
</g>
<g>
</g>
<g>
</g>
<g>
</g>
<g>
</g>
<g>
</g>
<g>
</g>
<g>
</g>
</svg>
