<?xml version="1.0" encoding="iso-8859-1"?>
<!-- Generator: Adobe Illustrator 16.0.0, SVG Export Plug-In . SVG Version: 6.00 Build 0)  -->
<!DOCTYPE svg PUBLIC "-//W3C//DTD SVG 1.1//EN" "http://www.w3.org/Graphics/SVG/1.1/DTD/svg11.dtd">
<svg version="1.1" id="Capa_1" xmlns="http://www.w3.org/2000/svg" xmlns:xlink="http://www.w3.org/1999/xlink" x="0px" y="0px"
	 width="575.063px" height="575.063px" viewBox="0 0 575.063 575.063" style="enable-background:new 0 0 575.063 575.063;"
	 xml:space="preserve">
<g>
	<g>
		<path d="M26.572,276.817c34.093,5.059,111.861-22.905,131.837-40.751c19.976-17.847,28.499-2.399,25.569,7.724
			c-2.146,7.417,2.717,12.117,5.467,14.096c0.914,0.657,2.457,1.632,3.337,2.334c29.576,23.578,15.3,47.675,7.711,58.14
			c-7.568,10.436,21.906,20.082,45.418,42.783c0.812,0.783,2.367,1.416,3.497,1.412c22.587-0.111,30.751,2.875,33.101,4.066
			c0,0,0.184,0.107,0.408,0.24c0.224,0.131-0.126,0.992-0.543,2.037c-2.729,6.85-1.252,21.689-1.979,27.498
			c-0.8,6.395-6.659,5.061-5.06,10.123c1.6,5.059,17.047,11.719,22.641,14.117c4.288,1.836,12.488-2.273,16.083-4.293
			c0.983-0.551,2.652-0.795,3.774-0.713c2.423,0.184,6.413-0.217,8.376-4.316c2.93-6.125-8.523-6.125-14.917-13.582
			c-4.818-5.623-1.162-12.76,0.931-15.93c0.62-0.938,2.097-1.496,3.215-1.33c30.796,4.664,38.327-3.561,56.581-30.682
			c18.646-27.699,20.241,10.654,40.482-19.711c20.24-30.363,35.157,6.395,31.428-15.98c-3.398-20.383,13.546-18.658,17.394-12.551
			c0.6,0.955,0.864,2.805,0.89,3.93c0.064,3.428-1.037,5.748-2,7.111c-0.648,0.922-0.521,1.158,0.498,0.674
			c21.493-10.195,10.678-26.361,21.041-27.398c10.652-1.064,24.504-9.053,29.298-14.916c4.794-5.859,5.329-20.775,34.093-8.523
			c24.423,10.404,18.891-11.073,16.667-17.788c-0.355-1.069,0.195-2.179,1.199-2.693c9.176-4.721,4.133-18.531,6.639-20.534
			c2.664-2.13,9.053-12.783,2.664-14.292c-6.394-1.51-47.41-10.212-53.269-28.854c-5.859-18.646-44.745-29.829-31.959-21.505
			c12.787,8.323,2.664,8.192-36.222,1.799c-38.887-6.394-9.054,6.393-22.905,5.328c-13.848-1.065-41.017,11.718-23.97,7.989
			c17.046-3.729,17.576,27.169-13.317,9.176c-30.894-17.993-59.658,10.004-47.41,3.077c12.253-6.924,39.417,0,19.711,0
			s-5.328,10.653-9.412,15.447c-2.461,2.889-1.955,5.455-1.167,7.038c0.501,1.008,0.388,2.146-0.629,2.636
			c-5.173,2.509-20.987,8.09-40.11-5.235c-23.439-16.336-86.647-36.222-197.443,29.119c-99.585,58.723-101.645,5.594-101.037-5.777
			c0.061-1.126-0.743-2.183-1.865-2.102C-5.333,226.479-6.231,271.945,26.572,276.817z M314.751,314.104
			c11.188,3.994,2.664,10.123,0,10.652c-2.664,0.535-23.17-7.988-23.705-14.916c-0.534-6.924-4.259-13.316-4.259-13.316
			C292.111,300.788,303.563,310.106,314.751,314.104z M245.766,308.245c2.13-5.857,7.104-9.232,7.104-9.232
			s1.775,11.896-0.89,16.691c-2.664,4.795,1.955,22.016,18.287,20.066c16.336-1.955,31.073,10.832,31.073,10.832
			c-3.904,3.729-7.458,10.477-7.458,10.477s-1.065-16.156-22.371-15.271c-21.306,0.891-30.008-15.627-30.008-15.627
			S243.637,314.104,245.766,308.245z"/>
	</g>
</g>
<g>
</g>
<g>
</g>
<g>
</g>
<g>
</g>
<g>
</g>
<g>
</g>
<g>
</g>
<g>
</g>
<g>
</g>
<g>
</g>
<g>
</g>
<g>
</g>
<g>
</g>
<g>
</g>
<g>
</g>
</svg>
