<?xml version="1.0" encoding="iso-8859-1"?>
<!-- Generator: Adobe Illustrator 16.0.0, SVG Export Plug-In . SVG Version: 6.00 Build 0)  -->
<!DOCTYPE svg PUBLIC "-//W3C//DTD SVG 1.1//EN" "http://www.w3.org/Graphics/SVG/1.1/DTD/svg11.dtd">
<svg version="1.1" id="Capa_1" xmlns="http://www.w3.org/2000/svg" xmlns:xlink="http://www.w3.org/1999/xlink" x="0px" y="0px"
	 width="586.01px" height="586.009px" viewBox="0 0 586.01 586.009" style="enable-background:new 0 0 586.01 586.009;"
	 xml:space="preserve">
<g>
	<g>
		<path d="M581.619,405.712c-4.022-3.97-5.703-8.923-6.552-14.321c-0.29-1.823-0.805-3.627-1.363-5.39
			c-0.575-1.803-1.591-3.28-3.309-4.324c-0.738-0.453-1.367-1.465-1.583-2.338c-1.489-6.026-2.913-12.073-4.252-18.136
			c-1.342-6.071-2.79-12.13-3.777-18.258c-1.53-9.462-2.873-18.96-3.995-28.482c-1.252-10.625-2.272-21.277-3.174-31.938
			c-0.351-4.161-0.082-8.372-0.176-12.559c-0.021-0.905-0.253-1.864-0.611-2.7c-2.538-5.863-5.071-11.73-7.744-17.532
			c-0.918-1.995-2.252-3.794-3.366-5.704c-1.669-2.855-3.268-5.757-4.974-8.588c-1.016-1.686-2.174-3.284-3.292-4.908
			c-1.742-2.534-3.48-5.067-5.26-7.572c-0.566-0.796-1.272-1.494-1.896-2.253c-0.764-0.934-1.514-1.881-2.257-2.831
			c-0.392-0.502-0.673-1.122-1.146-1.526c-3.871-3.325-7.67-6.748-11.697-9.877c-6.548-5.088-13.235-10-19.906-14.929
			c-1.252-0.927-2.721-1.551-4.06-2.362c-8.825-5.354-18.188-9.213-28.421-11.028c-4.725-0.841-9.266-2.697-13.979-3.664
			c-8.805-1.808-17.576-0.927-26.002,1.901c-7.385,2.477-14.655,4.174-22.603,4.104c-8.63-0.073-16.912-1.24-25.031-3.827
			c-5.193-1.652-10.236-3.79-15.365-5.651c-5.022-1.819-10.049-3.627-15.116-5.324c-2.559-0.86-4.684-2.158-6.369-4.324
			c-2.142-2.754-4.558-5.292-6.699-8.046c-3.044-3.913-7.034-5.953-11.877-6.54c-10.33-1.253-20.657-2.526-30.984-3.782
			c-0.518-0.062-1.044-0.069-1.571-0.078c-3.586-0.065-7.177-0.109-10.767-0.171c-3.391-2.383-6.781-4.762-10.171-7.145
			c-1.824-1.276-4.084-1.448-6.153-0.849c-1.232-2.089-3.415-3.619-6.626-3.619c-2.477,0-4.349,0.923-5.659,2.302
			c-1.077-0.579-2.346-0.942-3.86-0.942c-0.706,0-1.354,0.081-1.962,0.22c-1.302-1.737-3.354-2.938-6.198-2.938
			c-0.559,0-1.061,0.078-1.559,0.163c-2.203-0.869-4.406-1.737-6.605-2.611c-1.559-0.615-3.211-0.518-4.725,0.054
			c-2.721-0.698-5.745-0.033-7.837,2.064c-0.453,0.453-0.906,0.905-1.359,1.358c-0.122,0.122-0.212,0.27-0.326,0.4
			c-0.241-0.017-0.457-0.07-0.71-0.07c-1.901,0-3.448,0.547-4.664,1.42c-2.444,0.151-4.268,1.221-5.483,2.734
			c-0.245-0.021-0.469-0.074-0.73-0.074c-4.565,0-7.111,3.077-7.715,6.553c-1.354-0.396-2.787-0.44-4.149,0.103
			c-2.268,0.901-4.537,1.803-6.805,2.705c-2.962,1.179-5.239,3.455-5.831,6.356c-2.081,2.031-2.811,5.182-2.195,8.025
			c-0.971,0.864-1.754,1.624-2.265,2.211c-3.28,3.778-6.336,7.756-9.763,11.392c-4.794,5.088-8.837,10.616-11.607,17.059
			c-0.445,1.036-1.232,1.962-1.991,2.823c-0.979,1.109-1.359,2.301-1.436,3.79c-0.065,1.261-0.404,2.714-1.139,3.701
			c-4.476,6.01-8.857,12.121-13.745,17.792c-4.497,5.219-7.479,10.988-8.98,17.65c-0.453,2.008-1.554,3.709-3.456,4.794
			c-2.073,1.188-4.104,2.436-5.271,4.684c-0.147,0.286-0.894,0.478-1.277,0.38c-0.951-0.236-1.84-0.714-2.783-1
			c-1.269-0.383-2.554-0.754-3.859-0.963c-0.478-0.073-1.424,0.273-1.469,0.539c-0.085,0.534,0.155,1.285,0.535,1.689
			c0.457,0.489,2.766,5.483,5.402,9.146c-1.905,1.367-4.174,2.849-6.822,4.305c-3.276,1.795-7.12,3.55-11.477,4.848
			c-4.353,1.297-9.217,2.174-14.411,2.154c-3.708-0.005-7.584-0.445-11.501-1.396c-4.827-3.542-9.42-7.671-13.692-12.216
			l-0.885-0.938l-0.445-0.469l-0.416-0.457l-1.665-1.836c-1.098-1.257-2.204-2.514-3.256-3.803
			c-2.122-2.566-4.133-5.194-5.994-7.883c-3.713-5.377-6.813-11.032-8.801-16.822c-1.008-2.889-1.66-5.813-2.007-8.702
			c-0.31-2.889-0.269-5.74,0.204-8.454c0.461-2.713,1.342-5.275,2.554-7.593s2.746-4.378,4.451-6.156
			c3.427-3.566,7.466-5.981,11.236-7.593c3.791-1.608,7.34-2.44,10.29-2.885c2.958-0.429,5.325-0.485,6.932-0.457
			c0.404,0.012,0.759,0.021,1.065,0.028c0.306,0.017,0.563,0.033,0.771,0.045c0.416,0.024,0.632,0.037,0.632,0.037
			s-0.212-0.029-0.624-0.09c-0.208-0.028-0.465-0.065-0.767-0.106c-0.306-0.032-0.661-0.069-1.065-0.114
			c-1.607-0.159-3.99-0.289-7.021-0.094c-3.027,0.217-6.716,0.771-10.779,2.126c-4.04,1.362-8.503,3.541-12.55,7.128
			c-2.016,1.791-3.905,3.94-5.479,6.442c-1.571,2.501-2.819,5.353-3.594,8.421c-0.792,3.068-1.098,6.332-1.008,9.637
			c0.126,3.301,0.612,6.65,1.469,9.938c1.693,6.59,4.582,12.983,8.09,19.05c1.759,3.036,3.676,5.998,5.7,8.887
			c0.326,0.469,0.661,0.93,0.995,1.391c-3.447-2.823-6.76-5.937-9.898-9.273l-0.885-0.938l-0.445-0.469l-0.416-0.457l-1.669-1.836
			c-1.097-1.257-2.203-2.514-3.256-3.803c-2.122-2.566-4.133-5.194-5.993-7.883c-3.713-5.378-6.814-11.032-8.801-16.822
			c-1-2.88-1.656-5.806-2.003-8.694c-0.31-2.889-0.269-5.74,0.204-8.453c0.461-2.714,1.342-5.275,2.55-7.593
			c1.211-2.318,2.746-4.378,4.451-6.157c3.427-3.565,7.466-5.981,11.236-7.593c3.79-1.607,7.34-2.439,10.29-2.885
			c2.958-0.429,5.325-0.485,6.932-0.457c0.404,0.013,0.759,0.021,1.065,0.028c0.306,0.017,0.563,0.033,0.771,0.045
			c0.416,0.024,0.632,0.037,0.632,0.037s-0.212-0.028-0.628-0.09c-0.208-0.028-0.465-0.065-0.767-0.106
			c-0.306-0.032-0.661-0.069-1.065-0.114c-1.607-0.158-3.99-0.289-7.021-0.094c-3.027,0.217-6.716,0.771-10.779,2.126
			c-4.039,1.363-8.503,3.542-12.554,7.128c-2.016,1.791-3.905,3.941-5.479,6.442c-1.571,2.501-2.819,5.353-3.594,8.421
			c-0.792,3.068-1.098,6.332-1.008,9.637c0.126,3.301,0.612,6.65,1.469,9.939c1.693,6.589,4.582,12.986,8.09,19.049
			c1.759,3.036,3.676,5.998,5.7,8.887c1.007,1.452,2.064,2.864,3.117,4.284l1.64,2.121l0.412,0.53l0.404,0.502l0.808,1.008
			c4.439,5.545,9.425,10.788,14.933,15.406c5.512,4.606,11.628,8.54,18.124,11.384c2.876,1.272,5.831,2.309,8.805,3.116
			c4.113,2.934,8.495,5.472,13.06,7.475c6.483,2.868,13.358,4.546,19.976,5.08c5.019,0.42,9.874,0.171,14.386-0.498
			c0.004,0.159,0.008,0.314,0,0.474c-0.147,2.986,0.624,5.581,1.632,8.27c0.429,1.151-0.008,2.619,0.4,3.791
			c0.951,2.729,2.342,5.193,2.44,8.322c0.073,2.277,1.763,4.492,2.693,6.753c0.188,0.457,0.4,1.04,0.273,1.469
			c-0.612,2.068-0.306,3.986,0.522,5.937c0.347,0.812,0.265,1.804,0.4,2.709c0.11,0.738,0.086,1.551,0.4,2.191
			c0.641,1.297,1.579,2.468,0.738,4.03c-0.09,0.168-0.041,0.53,0.086,0.67c2.387,2.61,0.184,5.622,0.755,8.367
			c0.473,2.277-0.449,4.477,0.139,6.879c0.465,1.901,0.645,4.146,0.331,6.361c-0.404,2.835,0.008,5.785,0.077,8.687
			c0.008,0.403,0.212,0.86,0.078,1.199c-1.012,2.578-0.167,5.145-0.065,7.719c0.106,2.693-0.008,5.391,0.102,8.083
			c0.074,1.774,0.221,3.574,0.604,5.3c0.604,2.742,1.322,5.467,2.187,8.14c2.06,6.36,5.7,11.473,11.363,15.304
			c7.572,5.129,15.732,7.585,24.851,6.916c2.958-0.216,5.924-0.371,8.891-0.469c2.746-0.095,4.904-1.425,6.74-3.244
			c1.828-1.815,1.191-3.888-1.204-4.753c-0.542-0.196-1.077-0.682-1.395-1.175c-1.29-2.004-2.591-4.007-3.709-6.108
			c-2.085-3.912-7.107-3.578-9.437-0.11c-1.999,2.971-2.664,2.954-5.981,1.62c-4.272-1.722-5.834-5.268-6.667-9.339
			c-0.942-4.603-1.126-9.27-0.388-13.896c1.146-7.181,2.04-14.357,2.46-21.637c0.465-8.058,1.909-16.059,2.558-24.112
			c0.502-6.197,0.498-12.44,0.612-18.666c0.119-6.312,1.253-12.293,4.26-17.964c1.583-2.991,2.448-6.369,3.599-9.584
			c0.449-1.253,0.669-2.6,1.199-3.815c1.257-2.868,1.853-5.806,1.856-8.963c0.004-5.088,3.068-8.214,7.536-9.85
			c4.358-1.6,8.87-2.771,13.338-4.056c0.42-0.122,1.163,0.151,1.477,0.494c1.999,2.183,4.312,4.206,5.785,6.716
			c3.733,6.34,9.714,8.82,16.377,10.024c6.059,1.093,12.228,1.55,18.315,2.501c4.929,0.771,9.874,1.611,14.692,2.885
			c4.019,1.061,6.683,4.157,7.887,8.005c1.783,5.699,3.75,11.48,4.415,17.364c1.326,11.718,1.138,23.476-2.97,34.794
			c-0.62,1.714-1.689,3.28-2.624,4.871c-1.934,3.297-4.1,6.467-5.826,9.866c-1.86,3.659-3.758,7.222-6.907,9.955
			c-0.392,0.343-0.836,0.693-1.073,1.138c-4.231,7.834-9.519,15.231-10.196,24.542c-0.351,4.854,0.693,9.485,2.317,14.011
			c0.665,1.855,1.228,3.798,2.228,5.471c1.143,1.909,2.521,3.778,4.158,5.264c2.701,2.456,5.793,4.472,8.523,6.898
			c1.938,1.727,3.713,3.701,5.251,5.79c1.652,2.24,1.934,4.859,2.044,7.724c0.367,9.429,4.476,16.834,14.782,16.789
			c5.761-0.024,11.53-0.151,17.287,0.049c4.757,0.167,9.499,0.771,14.252,1.122c1.27,0.094,2.562,0.073,3.827-0.069
			c3.721-0.42,6.022-2.167,5.998-5.83c-0.033-5.622,1.945-10.861,2.329-16.353c0.307-4.411,0.208-8.846,0.506-13.256
			c0.567-8.353,1.714-16.643,1.746-25.056c0.017-4.464,1.359-8.919,2.13-13.374c0.106-0.625,0.298-1.257,0.58-1.82
			c2.235-4.451,3.142-9.196,3.37-14.137c0.053-1.163,0.566-2.379,1.134-3.428c1.596-2.966,3.321-5.858,5.015-8.771
			c0.379-0.653,0.714-1.407,1.276-1.856c4.174-3.325,5.464-8.217,7.206-12.896c0.808-2.167,1.823-4.264,2.872-6.328
			c0.596-1.176,1.644-1.612,2.941-0.983c10.645,5.141,22.089,8.172,33.044,12.492c6.104,2.407,12.256,4.688,18.356,7.104
			c3.985,1.579,7.833,3.554,11.901,4.863c3.329,1.069,6.866,1.6,10.354,2.008c1.665,0.195,2.615,0.771,3.447,2.126
			c3.611,5.887,5.496,12.391,6.622,19.103c0.376,2.231,0.135,4.671-0.314,6.915c-1.688,8.434-2.982,17.014-5.573,25.174
			c-2.456,7.728-4.467,15.77-9.322,22.599c-2.75,3.868-6.426,6.598-10.351,8.956c-3.681,2.211-5.035,5.238-4.737,9.318
			c0.184,2.51,2.252,4.982,4.786,5.17c7.458,0.551,14.908,0.273,22.19-1.498c6.026-1.464,12.109-1.505,18.193-1.138
			c4.219,0.253,5.598-0.172,7.074-4.149c1.11-2.986,2.057-6.055,2.812-9.147c0.347-1.42-0.127-3.02,0.094-4.488
			c1.068-7.066,2.179-14.129,3.419-21.167c0.641-3.644,1.481-7.258,2.395-10.845c1.926-7.552,5.32-14.378,10.665-20.102
			c2.212-2.367,5.166-3.525,8.34-4.027c4.239-0.669,8.005-2.317,11.265-5.141c1.351-1.175,2.812-2.224,3.958-3.125
			c2.701,1.366,5.308,2.333,7.516,3.88c4.888,3.419,9.832,6.846,14.21,10.86c1.747,1.604,2.358,4.696,2.942,7.238
			c0.51,2.22,0.926,4.198,2.366,6.177c1.546,2.122,2.464,4.868,3.072,7.479c1.375,5.883,2.627,11.815,3.48,17.792
			c0.763,5.346,0.958,10.771,1.306,16.165c0.057,0.865-0.425,1.767-0.641,2.652c-0.511,2.117-1.253,4.215-1.453,6.365
			c-0.24,2.586,1.081,3.852,3.713,4.035c1.392,0.098,2.791,0.02,4.19,0.032c9.196,0.077,18.389,0.171,27.581,0.229
			c1.158,0.008,2.338-0.049,3.468-0.281c2.701-0.56,3.811-2.971,2.632-5.479c-1.077-2.293-1.289-4.713-1.118-7.214
			c0.065-0.963-0.041-1.991-0.311-2.917c-1.456-4.953-3.182-9.833-4.447-14.835c-1.399-5.541-3.19-11.016-3.545-16.789
			c-0.069-1.146-0.376-2.301-0.714-3.411c-0.942-3.113-1.057-6.193-0.58-9.453c0.502-3.432,0.209-6.969,0.474-10.44
			c1.021-13.122,1.979-26.251,1.351-39.409c-0.351-7.308-1.396-14.582-2.109-21.877c-0.225-2.31-0.384-4.623-0.204-7.005
			c0.804,3.309,1.628,6.609,2.411,9.922c3.518,14.929,7.018,29.861,10.539,44.79c0.199,0.845,0.628,1.645,0.763,2.497
			c0.351,2.199,0.824,4.419,0.841,6.63c0.036,5.133,1.154,9.943,3.961,14.235c2.154,3.293,4.427,6.536,6.957,9.548
			c2.061,2.451,4.777,4.182,7.854,5.34c1.465,0.551,2.767,1.551,4.142,2.351c0.135-0.11,0.273-0.221,0.412-0.331
			c-0.355-0.868-0.588-1.819-1.094-2.595C583.921,408.633,582.929,407.005,581.619,405.712z M111.64,274.385
			c-0.016,0.004-0.033,0.008-0.045,0.017c-3.717,1.109-7.809,1.909-12.163,2.105c3.199-0.987,6.128-2.139,8.772-3.317
			c1.493-0.669,2.893-1.354,4.206-2.036C112.443,272.21,112.031,273.336,111.64,274.385z M271.29,409.547
			c-1.163-0.151-2.333-0.273-3.488-0.469c-0.322-0.054-0.604-0.335-0.902-0.511c-1.595-0.938-3.296-1.746-4.749-2.868
			c-0.934-0.722-1.754-1.812-2.195-2.909c-0.661-1.652-0.886-3.472-1.404-5.186c-0.53-1.746-0.094-3.129,1.408-4.088
			c3.419-2.171,6.883-4.276,10.616-6.589c0.114,1.061,0.245,1.909,0.293,2.762c0.29,5.508,0.592,11.021,0.812,16.532
			C271.718,407.324,271.425,408.438,271.29,409.547z"/>
	</g>
</g>
<g>
</g>
<g>
</g>
<g>
</g>
<g>
</g>
<g>
</g>
<g>
</g>
<g>
</g>
<g>
</g>
<g>
</g>
<g>
</g>
<g>
</g>
<g>
</g>
<g>
</g>
<g>
</g>
<g>
</g>
</svg>
