<?xml version="1.0" encoding="iso-8859-1"?>
<!-- Generator: Adobe Illustrator 16.0.0, SVG Export Plug-In . SVG Version: 6.00 Build 0)  -->
<!DOCTYPE svg PUBLIC "-//W3C//DTD SVG 1.1//EN" "http://www.w3.org/Graphics/SVG/1.1/DTD/svg11.dtd">
<svg version="1.1" id="Capa_1" xmlns="http://www.w3.org/2000/svg" xmlns:xlink="http://www.w3.org/1999/xlink" x="0px" y="0px"
	 width="592.904px" height="592.904px" viewBox="0 0 592.904 592.904" style="enable-background:new 0 0 592.904 592.904;"
	 xml:space="preserve">
<g>
	<g>
		<path d="M566.428,282.319c-1.236-0.873-2.289-2.023-3.562-2.839c-8.936-5.753-14.439-13.619-14.785-25.427
			c-3.008,1.901-5.186,3.517-7.582,4.696c-1.117,0.551-2.893,0.771-3.961,0.269c-14.859-6.973-30.205-11.354-46.875-10.73
			c-3.945,0.147-8.213-1.514-11.914-3.244c-6.359-2.97-12.416-6.602-18.539-10.053c-1.971-1.11-3.77-2.534-5.867-3.961
			c-0.277,0.779-0.543,1.538-0.926,2.627c-1.715-0.751-3.387-1.542-5.104-2.22c-4.031-1.591-7.961-3.725-12.146-4.553
			c-8.262-1.636-16.672-2.542-25.109-3.762c0.771,0.657,1.6,1.363,2.877,2.448c-1.041-0.167-1.574-0.216-2.09-0.343
			c-11.113-2.738-22.391-3.325-33.773-2.64c-3.746,0.225-7.49,0.392-11.35,1.228c1.836,0.657,3.672,1.314,6.363,2.277
			c-1.904,0.09-2.982-0.008-3.986,0.22c-2.484,0.567-5.141-1.509-7.67,1.775c-1.402,1.815-5.65,1.436-9.303,2.187
			c2.441,0.473,4.297,0.832,6.848,1.326c-4.783,1.037-8.809,1.906-12.832,2.779c-0.008,0.11-0.018,0.224-0.025,0.334
			c2.281-0.069,4.562-0.143,6.844-0.212c0.053,0.237,0.105,0.474,0.154,0.71c-3.594,0.792-7.189,1.587-10.783,2.379
			c0,0.184,0,0.371,0.004,0.555c1.893,0.273,3.781,0.547,6.662,0.959c-3.916,0.983-6.906,1.738-9.902,2.489
			c-0.004,0.184-0.008,0.363-0.016,0.547c0.947,0.143,1.893,0.286,3.975,0.604c-3.416,1.175-5.75,1.975-9.07,3.117
			c2.32,0.302,3.695,0.481,6.164,0.808c-3.055,1.546-5.295,2.685-7.775,3.941c0.387,0.232,0.84,0.506,2.283,1.375
			c-3.316,1.86-6.213,3.488-9.334,5.238c1.338,0.041,2.496,0.073,4.842,0.143c-3.189,2.652-5.598,4.655-7.906,6.573
			c0.449,0.032,1.229,0.094,2.689,0.208c-2.771,1.347-4.975,2.42-8.084,3.934c2.033,0.306,3.072,0.465,4.713,0.714
			c-4.504,2.864-8.596,5.467-12.836,8.164c0.752,0.367,1.27,0.62,1.979,0.967c-1.428,0.824-2.83,1.436-4.006,2.346
			c-4.26,3.289-8.408,6.724-12.672,10.004c-0.759,0.584-1.591,1.086-2.452,1.543c-19.853,1.812-39.335-7.107-56.202-16.725
			c-19.939-11.37-38.866-23.9-59.948-33.199c-42.028-18.54-87.912-27.944-133.869-27.05c-12.412,0.241-24.876,1.856-35.884,7.948
			c-10.714,5.933-1.138,22.338,9.588,16.402c8.825-4.888,19.083-5.259,28.939-5.402c11.286-0.164,22.575,0.392,33.803,1.493
			c22.056,2.167,43.848,7.185,64.847,14.203c21.204,7.087,41.237,16.834,60.355,28.376c19.931,12.036,39.658,25.015,62.595,30.547
			c10.433,2.518,21.053,3.121,31.62,1.71c1.75,0.261,3.53,0.71,5.206,1.064c5.428,1.143,10.801,2.579,16.129,4.133
			c2.514,0.735,5.01,1.783,7.262,3.122c11.09,6.576,22.094,13.296,33.232,20.028c-0.33,0.232-0.889,0.633-1.449,1.036
			c-3.492,2.538-3.773,5.174-0.135,7.467c5.227,3.297,10.861,5.94,16.248,8.996c4.621,2.619,9.648,4.852,13.57,8.303
			c4.396,3.876,7.752,8.936,11.871,13.848c0.645-2.75,1.4-5.981,2.266-9.682c2.525,2.966,5.088,5.977,8.049,9.457
			c0.551-2.415,1.041-4.557,1.518-6.65c2.363,1.963,4.803,3.986,7.264,6.03c3.631-4.186,0.795-7.385-1.322-11.212
			c1.109,0.204,2.215,0.404,3.365,0.616c0.041-0.094,0.25-0.33,0.201-0.493c-2.303-8.107-9.168-13.008-17.41-13.926
			c-6.961-0.774-13.863-2.513-20.611-4.447c-2.73-0.783-4.99-3.223-7.729-5.087c7.414,0.216,14.297,1.02,21.057,0.424
			c5.691-0.502,11.303-2.432,16.818-4.149c1.918-0.596,3.863-2.138,5.062-3.778c2.225-3.039,5.113-3.994,8.549-3.867
			c9.355,0.351,18.715,0.71,28.059,1.265c1.926,0.114,4.223,0.592,5.625,1.767c8.723,7.299,17.303,14.777,25.803,22.338
			c5.174,4.603,5.85,11.236,7.273,18.205c1.629-2.387,2.926-4.292,4.619-6.777c1.668,2.534,3.17,4.814,4.908,7.454
			c0.637-2.447,1.301-4.989,1.996-7.653c1.998,1.362,4.141,2.823,6.879,4.691c-0.914-3.639-1.701-6.772-2.555-10.171
			c0.799,0.122,1.676,0.257,2.541,0.392c0.09-0.326,0.266-0.6,0.193-0.747c-2.555-5.178-7.055-7.731-12.307-9.556
			c-3.387-1.175-6.887-2.582-9.66-4.744c-1.543-1.204-2.432-4.207-2.344-6.345c0.217-5.264,2.895-6.63,7.803-4.912
			c4.406,1.542,8.854,3.015,13.377,4.161c5.84,1.478,7.85,6.148,10.07,11.506c0.73-2.036,1.301-3.636,1.949-5.442
			c1.914,2.023,3.754,3.97,5.305,5.609c1.207-0.661,2.537-1.392,4.332-2.379c-2.031-4.133-1.562-10.343-7.195-13.451
			c-1.385-0.763-2.934-1.326-4.477-1.689c-5.863-1.383-10.805-3.953-13.844-9.828c6.26-2.465,12.398-3.027,18.598-2.587
			c11.777,0.836,23.332,2.835,34.316,7.441c4.01,1.682,8.029,2.982,12.443,0.897c1.154-0.546,2.926,0.017,4.361,0.314
			c5.182,1.069,10.143,1.497,15.012-1.57c3.668-2.313,5.486-5.035,3.662-9.05C585.758,306.335,579.834,291.781,566.428,282.319z"/>
	</g>
</g>
<g>
</g>
<g>
</g>
<g>
</g>
<g>
</g>
<g>
</g>
<g>
</g>
<g>
</g>
<g>
</g>
<g>
</g>
<g>
</g>
<g>
</g>
<g>
</g>
<g>
</g>
<g>
</g>
<g>
</g>
</svg>
