<?xml version="1.0" encoding="iso-8859-1"?>
<!-- Generator: Adobe Illustrator 16.0.0, SVG Export Plug-In . SVG Version: 6.00 Build 0)  -->
<!DOCTYPE svg PUBLIC "-//W3C//DTD SVG 1.1//EN" "http://www.w3.org/Graphics/SVG/1.1/DTD/svg11.dtd">
<svg version="1.1" id="Capa_1" xmlns="http://www.w3.org/2000/svg" xmlns:xlink="http://www.w3.org/1999/xlink" x="0px" y="0px"
	 width="581.304px" height="581.304px" viewBox="0 0 581.304 581.304" style="enable-background:new 0 0 581.304 581.304;"
	 xml:space="preserve">
<g>
	<g>
		<path d="M579.122,227.872c-2.749,2.844-5.691,5.406-8.054,8.413c-7.825,9.955-17.156,18.384-26.585,26.712
			c-5.402,4.77-8.887,5.336-15.21,1.412c-1.881-1.167-3.771-2.338-5.558-3.647c-0.689-0.506-1.525-1.375-1.566-2.118
			c-0.191-3.415-0.09-6.846-0.159-10.273c-0.077-3.961,0.032-7.948-0.424-11.869c-0.359-3.097-1.856-5.871-4.342-7.972
			c-0.358,0.269-0.583,0.371-0.706,0.546c-0.216,0.31-0.407,0.649-0.542,1.004c-1.33,3.574-4.011,6.039-6.777,8.478
			c-1.934,1.706-3.651,3.656-5.516,5.447c-0.633,0.608-1.371,1.453-2.13,1.53c-2.815,0.29-5.766,0.453-8.173-1.338
			c-3.092-2.301-6.238-4.631-8.898-7.393c-3.847-3.994-7.633-8.095-9.645-13.493c-2.105-5.643-4.537-11.159-6.688-16.785
			c-0.645-1.693-0.942-3.55-1.154-5.361c-0.077-0.673,0.354-1.836,0.877-2.077c3.194-1.461,4.333-4.541,6.137-7.156
			c3.586-5.21,7.372-10.286,11.122-15.382c1.13-1.538,2.248-2.954,0.775-4.904c-2.358-3.129-7.569-4.928-11.065-3.223
			c-2.893,1.412-5.553,3.387-8.127,5.357c-3.313,2.534-6.39,5.377-9.69,7.927c-0.686,0.53-2.439,0.8-2.786,0.396
			c-0.616-0.71-0.71-2.032-0.702-3.093c0.012-1.795,0.693-3.672,0.351-5.365c-1.611-8.042-6.581-13.395-14.088-16.41
			c-2.941-1.179-5.096,0.184-5.565,3.321c-0.689,4.598-1.195,9.225-1.999,13.803c-0.212,1.216-1.236,2.285-1.889,3.423
			c-1.024-0.694-2.293-1.195-3.032-2.122c-2.093-2.615-3.762-5.59-5.993-8.066c-1.897-2.105-4.141-4.068-6.593-5.463
			c-5.072-2.885-10.775-4.047-16.537-4.378c-3.133-0.18-6.479,0.008-9.449,0.934c-6.038,1.885-11.986,4.149-17.78,6.695
			c-5.377,2.362-10.563,1.816-16.055,0.657c-4.41-0.931-9.025-1.481-13.513-1.298c-6.438,0.261-12.877,1.139-19.258,2.13
			c-6.695,1.041-13.419,2.175-19.955,3.917c-6.54,1.742-12.808,4.496-19.303,6.434c-8.103,2.419-16.23,4.623-24.66,5.944
			c-8.866,1.392-17.654,2.419-26.63,2.195c-13.538-0.339-26.908-1.865-40.233-4.333c-12.073-2.236-24.227-4.329-36.438-5.418
			c-10.461-0.934-21.065-0.188-31.592-0.506c-7.005-0.212-13.986-1.044-20.987-1.505c-2.709-0.18-5.533-0.567-8.136-0.033
			c-4.162,0.853-8.274,2.154-12.244,3.696c-10.768,4.187-19.907,11.2-29.47,17.458c-1.836,1.204-3.672,2.558-5.108,4.19
			c-5.173,5.896-10.526,11.689-15.129,18.017c-3.459,4.757-6.434,10.053-8.629,15.512c-3.444,8.564-4.394,17.736-4.549,26.948
			c-0.094,5.573,0.2,11.167-0.212,16.716c-0.477,6.455-1.412,12.88-2.37,19.286c-0.877,5.866-3.052,11.154-7.752,15.137
			c-2.615,2.215-5.194,4.487-7.638,6.891c-0.657,0.645-1.338,2.31-1.02,2.701c0.832,1.028,2.211,2.256,3.378,2.265
			c6.067,0.041,11.53-1.673,15.626-6.541c1.126-1.338,2.371-2.59,3.66-3.77c0.445-0.408,1.293-0.783,1.775-0.62
			c0.424,0.143,0.783,1.024,0.853,1.62c0.608,5.189-0.897,10.016-3.035,14.598c-2.477,5.305-5.345,10.425-8.001,15.647
			c-1.249,2.447-2.697,4.851-3.521,7.441c-1.191,3.741-2.53,7.617-2.648,11.473c-0.159,5.104,1.86,9.874,5.067,13.946
			c3.043,3.863,5.406,7.801,4.79,13.097c-0.596,5.133-0.445,10.225-4.325,14.528c-2.901,3.22-1.791,8.319,0.902,11.693
			c2.599,3.256,6.259,4.46,9.666,6.148c2.391,1.184,5.169,2.51,7.679,2.338c6.679-0.453,13.325-1.583,19.951-2.644
			c2.586-0.416,3.301-2.117,1.999-4.395c-1.212-2.113-2.733-4.047-4.108-6.066c-3.125-4.603-6.801-9.005-7.426-14.774
			c-0.502-4.61-0.624-9.277-0.6-13.921c0.012-2.562,0.257-5.279,1.134-7.658c2.525-6.866,6.36-12.986,11.44-18.323
			c5.153-5.41,10.106-11.016,15.336-16.356c2.783-2.84,5.957-5.3,9.425-8.34c0.673,2.354,1.155,3.856,1.534,5.382
			c1.044,4.202,2.53,8.364,2.958,12.632c0.775,7.735,0.702,15.553,1.383,23.301c0.461,5.223,2.819,9.511,8.213,11.371
			c1.509,0.522,3.056,0.946,4.574,1.44c5.202,1.701,10.437,3.305,15.577,5.173c2.742,0.996,4.154,3.252,3.68,5.41
			c-0.534,2.452-1.481,4.818-1.93,7.279c-0.469,2.586-0.833,5.255-0.726,7.866c0.073,1.746,1.265,2.893,3.5,2.651
			c1.616-0.175,3.354,0.196,4.965,0.601c4.643,1.166,9.221,2.582,13.88,3.68c1.889,0.444,3.933,0.53,5.875,0.384
			c2.264-0.172,4.484-0.873,6.744-1.167c4.007-0.522,8.05-0.775,12.04-1.399c2.313-0.363,4.284-1.755,2.726-3.599
			c-3.081-3.647-5.953-7.617-9.625-10.571c-3.692-2.966-8.278-4.807-12.415-7.242c-2.999-1.763-6.496-3.007-8.156-6.401
			c-3.994-8.172-6.613-16.826-7.368-25.851c-0.987-11.779,1.122-23.293,4.37-34.599c0.416-1.453,0.971-2.868,1.444-4.243
			c1.424,0,2.762-0.363,3.778,0.061c5.476,2.281,11.032,4.443,16.251,7.234c7.797,4.166,15.961,7.111,24.586,8.85
			c6.924,1.396,13.876,2.647,20.808,3.998c7.397,1.444,14.798,1.897,22.289,0.633c4.517-0.763,9.074-1.339,13.631-1.755
			c8.804-0.804,17.625-1.456,26.442-2.125c2.26-0.172,4.594,0.134,6.789-0.303c6.206-1.231,12.371-2.672,18.515-4.169
			c1.497-0.363,2.158-0.159,2.713,1.342c3.746,10.172,4.741,20.804,5.104,31.485c0.298,8.69-0.057,17.401,0.099,26.1
			c0.064,3.692-1.074,6.843-2.874,9.943c-1.371,2.358-2.574,4.83-3.586,7.36c-0.237,0.587,0.388,2.081,0.971,2.338
			c2.15,0.942,4.403,1.853,6.705,2.203c5.577,0.853,11.195,1.497,16.813,2.016c4.851,0.448,9.727,0.636,14.594,0.869
			c0.976,0.045,1.999-0.123,2.946-0.388c2.603-0.723,3.488-2.518,2.117-4.799c-1.844-3.067-3.941-5.985-5.985-8.931
			c-2.346-3.382-3.044-7.059-2.321-11.098c1.053-5.863,3.321-11.24,6.287-16.353c0.29-0.498,0.775-0.881,1.485-1.669
			c1.444,4.133,2.672,7.948,4.108,11.682c2.154,5.613,4.157,11.317,8.327,15.896c1.693,1.86,2.632,3.863,1.089,6.394
			c-0.575,0.942-0.763,2.162-0.942,3.288c-0.444,2.807-0.51,6.018,1.995,7.54c4.187,2.542,8.988,3.794,13.999,3.011
			c4.357-0.682,8.67-1.648,13.007-2.439c4.333-0.788,8.368-2.313,12.032-4.766c2.468-1.652,2.342-2.763-0.188-4.271
			c-3.138-1.873-6.345-3.705-9.185-5.974c-2.081-1.66-4.149-3.749-5.275-6.1c-1.641-3.432-3.9-7.042-2.815-11.094
			c1.914-7.119,3.215-14.312,3.272-21.677c0.049-6.161-0.103-12.33-0.355-18.49c-0.31-7.471-0.938-14.913,1.461-22.229
			c1.914-5.834,3.113-6.846,9.196-6.377c1.686,0.131,2.795-0.481,3.554-1.905c0.861-1.615,1.787-3.202,2.562-4.859
			c1.004-2.154,2.717-3.268,4.978-3.562c1.587-0.208,3.194-0.273,4.794-0.306c5.06-0.11,11.648-4.256,12.832-8.531
			c0.673-2.444,1.941-3.812,4.268-4.501c3.517-1.04,6.527-2.998,8.959-5.688c2.669-2.953,7.589-3.198,10.27-0.199
			c3.46,3.867,6.798,7.846,10.273,11.697c2.685,2.97,5.618,5.279,9.902,6.062c5.361,0.983,10.665,2.493,15.133,6.107
			c2.403,1.946,5.153,3.636,8.009,4.819c7.229,2.998,14.562,5.772,21.938,8.393c5.765,2.048,11.583,2.945,17.593,0.306
			c1.853-0.812,4.271-0.461,6.43-0.416c3.562,0.073,7.034,0.596,10.204-2.012c5.06-4.157,7.3-9.592,8.254-15.822
			c0.298-1.934,0.506-4.067,1.474-5.671c2.003-3.321,4.516-6.332,6.776-9.498c4.211-5.9,8.274-11.91,12.623-17.707
			c4.068-5.431,8.446-10.628,12.645-15.965c1.607-2.048,4.374-3.244,4.61-6.312c0.146-1.893,0.343-3.791,0.583-5.675
			c0.739-5.81,1.367-11.636,2.347-17.405C581.57,230.189,580.628,229.292,579.122,227.872z"/>
	</g>
</g>
<g>
</g>
<g>
</g>
<g>
</g>
<g>
</g>
<g>
</g>
<g>
</g>
<g>
</g>
<g>
</g>
<g>
</g>
<g>
</g>
<g>
</g>
<g>
</g>
<g>
</g>
<g>
</g>
<g>
</g>
</svg>
