<?xml version="1.0" encoding="iso-8859-1"?>
<!-- Generator: Adobe Illustrator 16.0.0, SVG Export Plug-In . SVG Version: 6.00 Build 0)  -->
<!DOCTYPE svg PUBLIC "-//W3C//DTD SVG 1.1//EN" "http://www.w3.org/Graphics/SVG/1.1/DTD/svg11.dtd">
<svg version="1.1" id="Capa_1" xmlns="http://www.w3.org/2000/svg" xmlns:xlink="http://www.w3.org/1999/xlink" x="0px" y="0px"
	 width="576.729px" height="576.729px" viewBox="0 0 576.729 576.729" style="enable-background:new 0 0 576.729 576.729;"
	 xml:space="preserve">
<g>
	<g>
		<path d="M575.433,358.663c0,0,0.176-5.357-6.858-8.038c-7.034-2.68-7.034-10.049-20.429-1.338c0,0-4.019-8.372-13.06-6.699
			c-9.042,1.673-25.79-8.707-32.485-14.402c0,0-1.673-3.685-32.823-8.372c-31.151-4.688-12.726-45.55,14.402-9.042
			c0,0-5.691,5.357,9.714,6.7c15.406,1.338,22.105-7.369,18.756-14.068c0,0,0-10.384,0-11.722s-6.699-4.251,4.354-5.978
			c11.053-1.726,7.703-6.748,12.391-14.116c0,0-4.688-16.075-11.387-22.105c0,0,2.346-12.726-2.012-15.741
			c-4.354-3.015-14.904-13.9-14.904-13.9s2.012-8.539,2.514-18.589c0.502-10.049-8.038,0.502-18.087,6.03
			c0,0-1.004-4.019-9.041-2.007c-8.038,2.007-24.615-2.819-28.132-8.192l-2.514,5.177c0,0-10.049-5.524-13.06-12.056
			c0,0-3.015,2.513,0,8.539c0,0-29.14,0.502-41.196,9.041c-12.056,8.54-28.633-2.762-28.633-2.762s2.513,7.282,6.03,8.792
			c3.517,1.506-16.577-1.004-28.132,6.03s-25.622,0-46.218-5.524c-20.596-5.524-81.384-5.524-101.984,5.524
			c0,0-15.072-25.12-102.988-19.592c-87.916,5.528-75.863-51.747-49.237-47.729c26.626,4.02-0.502-29.041-30.645-0.203
			c-30.143,28.837,13.06,79.576,80.38,68.021s74.852,16.577,74.852,16.577s-6.03,7.033-8.038,18.588s-20.596,23.109-20.596,23.109
			s6.03,4.02,10.049,0c4.019-4.019-23.109,29.14-23.611,41.196s-28.633,27.128-28.633,27.128s-8.038,14.569-7.536,21.604
			c0,0-24.113,21.604-26.626,22.607c-2.513,1.003-10.049,11.053-6.03,16.075c0,0-10.551,26.626,13.566,14.067
			c0,0,2.007,11.053,9.041,10.551c0,0,2.513,10.082,11.053,0.017s11.053-13.08,12.558-22.122c1.506-9.041,9.543-55.259,77.867-80.38
			l-3.517,6.532c0,0,24.615-5.524,41.698-18.589c17.083-13.063,46.218-20.261,88.083,17.585c0,0-2.681-4.019-1.004-8.706
			c1.677-4.688,10.718,9.714,17.079,14.067c6.364,4.354-0.669-2.346,1.673-7.368c2.346-5.022,7.703,6.03,9.376,8.372
			c1.673,2.346,41.53-5.022,57.271-4.354c0,0,5.022,12.391-0.334,17.079c-5.357,4.688,22.439,2.681,25.12,4.353
			c0,0,19.09,23.444,40.526,31.147s27.797,27.128,29.475,28.805c1.672,1.673,15.405-2.012,26.458,7.034
			c11.053,9.041,18.422,6.364,22.44,4.019s5.695,6.699,13.733,1.673c0,0,8.037,3.35,12.057-5.022c0,0,12.056-3.685,5.356-8.707
			c0,0,5.695-15.071-8.707-12.057c0,0,0.67-8.706-13.395-6.699c-14.067,2.008-32.15-5.022-40.526-14.736
			c-8.372-9.715-19.76-19.091-19.76-19.091s20.095,0,39.854,13.061c19.76,13.06,39.185,11.053,36.17,4.019
			c0,0,21.771,1.338,17.752-15.406C574.939,366.366,578.611,361.343,575.433,358.663z"/>
	</g>
</g>
<g>
</g>
<g>
</g>
<g>
</g>
<g>
</g>
<g>
</g>
<g>
</g>
<g>
</g>
<g>
</g>
<g>
</g>
<g>
</g>
<g>
</g>
<g>
</g>
<g>
</g>
<g>
</g>
<g>
</g>
</svg>
