<?xml version="1.0" encoding="iso-8859-1"?>
<!-- Generator: Adobe Illustrator 16.0.0, SVG Export Plug-In . SVG Version: 6.00 Build 0)  -->
<!DOCTYPE svg PUBLIC "-//W3C//DTD SVG 1.1//EN" "http://www.w3.org/Graphics/SVG/1.1/DTD/svg11.dtd">
<svg version="1.1" id="Capa_1" xmlns="http://www.w3.org/2000/svg" xmlns:xlink="http://www.w3.org/1999/xlink" x="0px" y="0px"
	 width="590.56px" height="590.56px" viewBox="0 0 590.56 590.56" style="enable-background:new 0 0 590.56 590.56;"
	 xml:space="preserve">
<g>
	<g>
		<path d="M458.855,264.236c0-0.596,0-0.596,0.114-0.971l0.081-0.253c0.163-0.461,0.298-0.935,0.351-2.031
			c0.095-1.641,0.221-3.003,0.307-3.366c0.045-0.168,0.114-0.331,0.184-0.506c0.155-0.388,0.347-0.873,0.408-1.448
			c0.064-0.633-0.049-1.396-0.114-1.768c0.24-1.529-0.498-3.594-1.689-4.639c-0.229-0.191-0.42-0.379-0.604-0.559
			c-0.633-0.616-1.29-1.257-2.562-1.399c-0.273-0.028-0.551-0.045-0.804-0.045c-0.388,0-1.562,0-1.987,0.935
			c-0.273,0.6-0.098,1.269,0.53,1.986c1.155,1.289,2.098,1.779,2.954,2.167c0.184,0.085,0.384,0.42,0.526,0.665
			c0.135,0.232,0.273,0.465,0.465,0.641c-0.179-0.095-0.351-0.217-0.521-0.38c-0.641-0.661-1.652-1.444-2.146-1.791
			c-0.51-0.347-1.139-0.579-1.208-0.6c-0.306-0.11-0.66-0.065-0.93,0.126c-0.27,0.192-0.433,0.502-0.433,0.833v0.819
			c0,0.172,0.041,0.335,0.122,0.481c0.114,0.217,0.738,1.322,1.607,1.828c0.213,0.131,0.449,0.261,0.682,0.392
			c0.322,0.18,0.861,0.478,0.976,0.616c0.154,0.2,0.191,0.29,0.216,0.302c-0.045,0.062-0.216,0.257-0.62,0.172
			c-0.322-0.103-0.648-0.176-0.946-0.245c-0.208-0.045-0.494-0.106-0.53-0.118l-0.551-0.359c-0.273-0.18-0.608-0.212-0.918-0.102
			c-0.307,0.114-0.535,0.362-0.625,0.677l-0.199,0.702c-0.054,0.195-0.05,0.403,0.012,0.596c0.073,0.216,0.522,1.342,2.407,2.011
			c0.779,0.29,1.273,0.657,1.669,0.947c-0.028,0.012-0.058,0.028-0.086,0.045c-0.465,0.257-0.652,0.84-0.424,1.326
			c0,0.004,0.191,0.42,0.244,1.089c0.024,0.306,0.013,0.543,0.004,0.723c-0.02,0.354-0.053,0.979,0.478,1.411
			c0.013,0.037,0.024,0.082,0.041,0.139c-0.277,0.008-0.543,0.127-0.734,0.339c-0.082,0.09-0.792,0.922-0.519,1.836
			c-0.04,0.191-0.416,0.637-0.641,0.91c-0.362,0.473-0.6,1.216-0.648,1.362c-0.028,0.094-0.045,0.196-0.045,0.298
			c0,0.18-0.021,0.392-0.012,0.522c-0.563-0.037-1.188,0.146-1.775,0.628c-0.894,0.771-2.521,2.175-3.301,2.946
			c-0.909,0.913-1.162,1.521-1.236,1.901c-0.069,0.024-0.289,0.045-0.611,0.073c-0.078,0.008-0.155,0.024-0.229,0.049
			c-0.873,0.212-1.751,0.701-2.473,1.379c-0.314,0.294-0.751,0.628-1.216,0.991c-1.021,0.792-2.183,1.689-2.84,2.64
			c-0.424,0.612-0.775,1.053-1.036,1.375c-0.232,0.286-0.4,0.506-0.559,0.629l-0.294,0.09c-0.588,0.199-1.448,0.652-2.224,1.673
			c-0.371,0.506-1.424,1.701-2.444,2.855c-0.645,0.73-1.272,1.444-1.722,1.975c-0.562,0.669-1.064,1.326-1.469,1.853
			c-0.339,0.44-0.592,0.783-0.682,0.853c-0.293,0.073-0.844,0.2-1.358,0.804c-0.351,0.404-0.538,0.816-0.686,1.146
			c-0.094,0.213-0.175,0.392-0.416,0.669c-0.126,0.151-0.388,0.462-0.522,0.481c-0.465-0.216-0.697-0.416-1.023-0.693
			c-0.204-0.171-0.416-0.351-0.686-0.542c-0.698-0.486-2.109-1.408-2.93-1.856c-0.388-0.204-0.89-0.429-1.362-0.637
			c-0.441-0.196-0.854-0.371-1.086-0.51c-0.298-0.172-0.562-0.245-0.763-0.298c-0.204-0.058-0.204-0.058-0.249-0.11
			c-0.453-0.608-1.448-1.616-2.48-2.505c-0.714-0.616-2.252-2.09-3.443-3.228l-1.869-1.787c-0.93-0.91-2.085-2.04-3.533-3.048
			c-0.995-0.686-2.016-1.624-2.917-2.456c-0.669-0.616-1.272-1.171-1.746-1.518c-0.567-0.433-1.118-0.824-1.645-1.2
			c-0.485-0.343-0.942-0.669-1.375-0.999c-0.326-0.253-0.791-0.629-1.281-1.028c-0.889-0.723-1.868-1.514-2.362-1.836l-0.362-0.221
			c-0.05-0.028-0.106-0.061-0.164-0.098c0.151-0.139,0.343-0.257,0.563-0.392c0.579-0.351,1.375-0.837,1.641-2.016
			c0.061-0.285,0.105-0.547,0.146-0.796c0.131-0.819,0.176-1.023,0.641-1.313c1.24-0.775,1.767-1.154,2.276-2.64l0.539-1.448
			c0.163-0.437-0.033-0.873-0.416-1.139c-0.159-0.11-0.27-0.163-0.547-0.159c0.081-0.265,0.224-0.596,0.473-0.983
			c0.466-0.746,0.755-1.008,1.612-1.787l0.469-0.428c0.204-0.184,0.354-0.339,0.494-0.481c0.265-0.273,0.411-0.425,0.918-0.694
			c1.126-0.615,1.533-1.207,1.819-1.782l0.343-0.755c0.204-0.453,0.053-0.987-0.363-1.27c-0.216-0.146-0.474-0.199-0.718-0.163
			c0.163-0.611,0.448-1.64,0.84-2.211c0.294-0.425,0.67-0.751,1-1.036c0.294-0.253,0.551-0.478,0.747-0.768
			c0.069-0.105,0.139-0.225,0.208-0.347c0.118-0.212,0.257-0.453,0.354-0.489c0.935-0.314,1.542-1.204,2.02-2.049
			c0.453-0.828,0.478-1.488,0.478-1.611c0-0.51-0.384-0.942-0.89-1.012c-0.11-0.017-0.229-0.008-0.334,0.013
			c0.257-0.829,0.889-2.094,1.138-2.347l0.241-0.229c0.62-0.587,1.66-1.566,1.975-2.855c0.253-1.021,0.375-1.53,1.302-3.016
			c0.42-0.665,1.023-1.559,1.677-2.521c0.987-1.456,2.076-3.072,2.827-4.324c0.787-1.322,2.334-3.383,3.464-4.888
			c0.6-0.8,1.094-1.457,1.33-1.812c0.225-0.335,0.465-0.592,0.682-0.829c0.469-0.51,0.999-1.085,1.134-2.007
			c0.024-0.172,0.037-0.326,0.049-0.494c1-0.253,2.342-1.121,2.885-1.493c0.719-0.469,0.971-0.521,0.963-0.521
			c0.302,0,0.616,0.053,0.637,0.057c0.399,0.069,0.787-0.098,1.012-0.424c0.225-0.331,0.241-0.76,0.041-1.098l-0.331-0.56
			c-0.15-0.257-0.424-0.437-0.722-0.489c0,0-0.742-0.172-2.008,0.18c-1.093,0.334-2.312,1.126-2.844,1.595
			c-0.163,0.147-0.448,0.253-0.755,0.273c0.013-0.024,0.025-0.049,0.033-0.073c0.265-0.607,0.534-1.212,0.727-1.6
			c0.195-0.383,0.456-0.832,0.461-0.836c0.265-0.453,0.143-1.032-0.277-1.343c-0.421-0.31-1.013-0.244-1.359,0.144l-0.922,1.027
			c-0.212-0.885-0.514-1.946-1.064-2.827c-0.457-0.775-1.873-2.28-2.93-2.395c-1.424-0.168-2.542,0.175-3.329,1.13
			c-0.661,0.812-0.976,1.416-1.012,1.485c-0.233,0.452-0.09,1.003,0.326,1.293c0.42,0.294,0.991,0.229,1.334-0.146
			c0.151-0.163,0.559-0.502,1.118-0.466c0.938,0.322,1.399,0.702,1.754,1.444l0.421,0.873c0.212,0.429,0.428,0.874,0.457,1.062
			c0.024,0.163,0.073,0.354,0.126,0.555c0.037,0.143,0.094,0.363,0.146,0.371c-0.424,0.257-0.828,0.637-0.962,1.575
			c-0.155,0.999-0.396,1.926-0.711,2.709c-0.297,0.815-2.003,4.717-2.814,6.206c-0.833,1.505-2.738,4.577-3.419,5.585
			c-0.27,0.408-0.633,1.053-1.008,1.714c-0.241,0.424-0.556,0.987-0.833,1.387c0.078-0.452,0.144-0.877,0.144-1.109
			c0-0.563-0.494-1.094-1.057-1.094c-0.849,0-1.596,1.232-2.085,2.285c-0.449,1.028-0.4,2.464-0.352,3.031
			c0.045,0.6-0.22,2.105-0.575,3.309c-0.175-0.199-0.428-0.343-0.787-0.354c-0.127-0.29-0.384-0.51-0.706-0.588
			c-0.457-0.105-0.938,0.123-1.146,0.547c0,0-0.559,1.159-0.796,1.75c-0.089,0.249-0.199,0.62-0.313,1.024
			c-0.131,0.465-0.273,0.983-0.425,1.354c-0.195,0.485-0.289,1.154-0.379,1.8c-0.045,0.322-0.11,0.808-0.151,0.922
			c-0.053,0.114-0.106,0.253-0.163,0.399c-0.065,0.176-0.188,0.502-0.171,0.53c-0.131,0-0.266-0.021-0.404-0.036
			c-1.154-0.139-1.922,0.298-2.212,0.73c-0.387,0.559-0.392,1.105-0.354,1.546c-0.004,0.004-0.008,0.008-0.008,0.008
			c-0.258,0.217-0.686,0.576-0.775,1.298c-0.045,0.302,0.004,0.592,0.045,0.849c0.008,0.065,0.024,0.146,0.032,0.221
			c-0.836,0.538-0.819,1.428-0.791,1.819c-0.069,0.184-0.144,0.33-0.29,0.624l-0.429,0.886c-0.298,0.637-0.367,1.203-0.424,1.619
			c-0.004,0.029-0.004,0.058-0.008,0.086c-0.282-0.225-0.625-0.289-0.927-0.289c-1.199,0-1.497,0.849-1.685,1.362
			c-0.144,0.33-0.225,0.73-0.302,1.122c-0.037,0.171-0.062,0.339-0.099,0.457c-0.171,0.229-0.273,0.506-0.388,0.815
			c-0.102,0.278-0.216,0.592-0.375,0.829c-0.024,0.04-0.172,0.122-0.281,0.179c-0.412,0.229-1.098,0.612-1.314,1.645
			c-0.094,0.494-0.212,0.628-0.358,0.796c-0.196,0.22-0.519,0.596-0.551,1.289c0,0.069-0.009,0.2-0.021,0.375
			c-0.004-0.032-0.008-0.069-0.013-0.098c-0.154-0.971-0.383-1.575-0.407-1.64c-0.144-0.372-0.49-0.625-0.882-0.653
			c-0.404-0.024-0.771,0.18-0.963,0.526s-0.265,0.734-0.33,1.081c-0.024,0.131-0.024,0.273-0.005,0.232
			c-0.236,0.318-0.269,0.649-0.24,0.935c-0.037,0.037-0.069,0.073-0.09,0.106c-0.126,0.175-0.204,0.383-0.249,0.596
			c-0.191-0.033-0.383-0.065-0.559-0.094l-0.465-0.103c-0.702-0.163-1.767-0.403-3.31-0.403l-0.452,0.004
			c-2.098,0.081-6.23,0.616-8.03,0.983l-1.559,0.326c-2.203,0.457-5.222,1.085-6.115,1.358c-1.804,0.559-2.673,0.71-3.252,0.669
			c-0.302-0.049-0.812-0.289-1.354-0.542c-0.661-0.307-1.481-0.69-2.403-0.963l-0.298-0.086c-1.257-0.367-2.975-0.865-3.464-1.167
			c0-0.004-0.037-0.131,0.073-0.551c0.314-1.236,4.831-14.231,5.618-16.442c0.118-0.335,0.352-0.951,0.674-1.795
			c0.901-2.375,2.574-6.789,4.288-11.828c1.521-4.484,3.365-10.645,3.814-12.444c0.8-3.076,2.036-7.107,3.027-10.343
			c0.457-1.493,0.853-2.786,1.118-3.692c0.808-2.807,3.488-10.8,4.916-14.357l1.322-3.211c1.48-3.582,3.325-8.046,4.23-10.547
			c0.396-1.118,0.91-2.428,1.429-3.749c1.072-2.734,2.089-5.32,2.329-6.83c0.135-0.833,0.221-1.641,0.302-2.396
			c0.123-1.167,0.229-2.17,0.481-2.864c0.159-0.432,0.421-1.003,0.714-1.652c0.596-1.317,1.343-2.953,1.727-4.451
			c0.224-0.877,0.681-2.252,1.199-3.831c0.751-2.272,1.604-4.847,2.175-7.119c0.759-3.016,2.533-10.074,2.741-10.686
			c0.045-0.139,0.118-0.277,0.196-0.445c0.261-0.538,0.661-1.358,0.926-2.855c0.143-0.747,0.253-1.143,0.388-1.616
			c0.208-0.738,0.47-1.652,0.935-4.096c0.845-4.509,1.485-10.563,1.607-11.738c0.077-0.783,0.163-1.232,0.261-1.73
			c0.163-0.824,0.347-1.754,0.547-4.202l0.127-1.411c0.24-2.693,0.289-3.252,0.229-5.39c-0.033-1.196,0.028-1.828,0.114-2.787
			c0.085-0.942,0.199-2.191,0.289-4.504c0.135-2.881,0.11-5.704,0.086-8.442c-0.017-1.786-0.032-3.5,0-5.1
			c0.049-2.917-0.261-4.435-0.469-5.438c-0.078-0.375-0.147-0.682-0.168-0.976c-0.028-0.566-0.028-1.183-0.028-1.827
			c0-0.678,0-1.384-0.032-2.098l-0.021-0.481c-0.045-1.008-0.073-1.673-0.682-6.617l-0.273-2.289
			c-0.522-4.391-0.897-7.564-2.211-13.986c-1.62-7.919-3.415-15.32-5.06-20.833c-1.607-5.414-4.586-14.757-5.77-17.482
			c-1.175-2.692-3.945-6.25-5.062-7.295c-1.021-0.95-3.15-2.938-6.043-4.129c-3.039-1.253-4.578-0.779-4.798-0.718
			c-0.392,0.114-0.678,0.448-0.727,0.853l-0.069,0.551c-0.028,0.212,0.013,0.433,0.118,0.62c0.139,0.249,0.625,0.89,2.126,1.411
			c0.783,0.294,2.044,1.661,2.881,2.566c0.298,0.322,0.571,0.62,0.815,0.865c0.547,0.543,0.779,1.534,0.849,2.053
			c-0.167,0.763,0.478,1.488,0.967,2.044c0.119,0.13,0.221,0.232,0.233,0.229c0.012,0.036,0.024,0.094,0.032,0.159
			c-0.449,0.061-0.894,0.126-0.894,0.126c-0.498,0.077-0.856,0.506-0.856,1.008c0,0.837,0.783,1.257,2.085,1.954
			c0.171,0.09,0.33,0.172,0.448,0.241c0,0.028,0,0.061,0,0.094c-0.077-0.004-0.184-0.013-0.191-0.013
			c-0.706,0-1.021,0.425-1.126,0.604c-0.184,0.318-0.163,0.905,0.021,1.22c0.179,0.31,0.518,0.502,0.877,0.506
			c0.18,0,0.437,0.041,0.469,0.049c0.082,0.065,0.135,0.131,0.196,0.204c0.163,0.184,0.375,0.437,0.783,0.734
			c-0.444,0.037-0.824,0.354-0.922,0.796c-0.106,0.489-0.004,1.142,1.068,1.525c-0.012,0.037-0.032,0.069-0.049,0.098
			c-0.244,0.449-0.118,1.008,0.29,1.311c0.628,0.465,1.6,1.342,1.771,1.758c0.311,0.783,0.408,2.714,0.236,3.02
			c-0.139,0-0.302-0.037-0.444-0.098c-0.2-0.086-0.437-0.253-0.689-0.416c-0.648-0.429-1.318-0.869-2.02-0.869
			c-0.877,0-1.225,0.477-1.351,0.759c-0.384,0.856,0.351,1.685,0.665,2.035l0.347,0.38c0.515,0.547,0.689,0.763,0.689,1.253
			c0,1.261,0.457,1.803,1.216,2.705l0.584,0.701c1.068,1.314,1.55,2.313,2.472,6.026c0.845,3.447,2.069,8.842,2.999,15.871
			c0.914,6.862,1.191,13.379,0.837,19.376c-0.425,7.271-1.53,10.163-2.379,11.302c-0.738,0.975-1.199,1.444-2.518,1.836
			c-0.478,0.146-0.946,0.232-1.387,0.318c-1.057,0.2-2.146,0.412-2.93,1.272c-0.775,0.849-0.783,1.596-0.648,2.073
			c0.208,0.75,0.86,1.293,1.95,1.615c0.225,0.065,0.469,0.123,0.726,0.18c1.146,0.266,2.444,0.571,3.611,2.171
			c1.53,2.149,1.53,7.087,1.53,8.706c0,2.31-1.204,14.631-4.619,23.896c-3.721,10.106-6.939,17.479-9.845,22.538
			c-3.007,5.206-7.536,11.245-9.335,13.121c-1.363,1.44-2.269,2.171-2.722,2.171l0,0l-0.208-0.176
			c-0.221-0.244-0.583-0.648-1.22-0.799c-0.588-0.155-1.686-0.686-2.13-1.444c-0.2-0.348-0.339-0.678-0.47-0.996
			c-0.289-0.686-0.62-1.465-1.428-2.269c-0.938-0.93-1.848-1.922-2.146-2.876c-0.393-1.277-0.739-1.661-1.461-2.371
			c-0.47-0.461-1.371-1.93-1.437-2.293c0-1.142-1.293-2.501-2.301-2.382c0-0.303-0.135-0.592-0.367-0.784
			c0,0-1.791-1.497-2.452-1.986c-0.208-0.151-0.461-0.352-0.734-0.571c-0.575-0.461-1.229-0.987-1.84-1.334l-0.408-0.237
			c-0.628-0.375-1.224-0.729-1.836-0.729c-0.661,0-1.188,0.424-1.334,1.027c-0.331,1.131,0.73,2.379,2.199,4.113l0.628,0.746
			c0.474,0.596,1.285,1.796,2.02,3.207c1.216,2.301,2.317,4.985,2.591,5.835l0.425,1.403c1.052,3.537,2.235,7.426,2.949,8.845
			c0.221,0.453,0.485,1.396,0.768,2.392c0.204,0.714,0.424,1.489,0.669,2.239c0.155,0.481,0.318,0.955,0.473,1.412
			c0.425,1.244,0.91,2.647,0.829,3.203c-0.123,0.913-0.633,2.056-1.176,3.264c-0.493,1.109-1.008,2.256-1.358,3.484
			c-0.555,1.922-1.306,4.35-1.877,6.186l-0.922,2.966c-0.592,1.909-1.485,4.798-2.085,6.014c-0.289,0.571-0.551,0.979-0.767,1.306
			c-0.437,0.678-0.812,1.261-0.727,2.143c-0.032,0.669-1.358,3.908-2.068,5.646c-0.335,0.812-0.629,1.534-0.816,2.031
			c-0.22,0.571-0.551,1.335-0.926,2.191c-0.914,2.102-2.048,4.712-2.518,6.658c-0.208,0.853-0.506,1.587-0.849,2.432
			c-0.682,1.673-1.525,3.75-2.211,7.936c-0.955,5.97-3.027,13.578-4.243,16.39c-1.429,3.301-4.288,7.728-7.65,11.849
			c-3.198,3.925-5.594,5.952-6.043,6.319c-2.072,1.702-3.198,4.966-3.667,6.671c-0.106-0.012-0.221-0.021-0.335-0.021
			c-0.041,0-0.294,0.017-0.339,0.021c-0.396,0.049-0.767,0.241-1.13,0.425c-0.094,0.049-0.221,0.114-0.339,0.167
			c-0.18-0.433-0.384-1.098-0.53-1.575c-0.171-0.566-0.335-1.064-0.461-1.415c-0.013-0.486-0.098-1.057-0.914-1.702
			c-0.229-0.179-0.281-0.261-0.281-0.343c-0.021-0.175-0.049-0.379-0.163-0.767c-0.123-0.478-0.258-1.008-0.927-1.432
			c0.567-0.481,1.195-1.122,1.354-1.281c0.352-0.359,0.388-0.922,0.082-1.326c-0.236-0.306-0.6-0.449-0.983-0.388
			c-0.041-0.159-0.073-0.318-0.09-0.429c-0.077-0.551-0.596-0.845-1.139-0.804c-0.085,0.013-0.167,0.033-0.244,0.065
			c0.244-0.596,0.412-1.171,0.236-1.783c-0.225-0.596-0.538-1.211-0.538-1.211c-0.229-0.438-0.734-0.657-1.208-0.507l-0.465,0.144
			c-0.262-0.723-0.596-1.139-0.645-1.195c-0.266-0.318-0.71-0.441-1.098-0.314c-0.396,0.126-0.678,0.481-0.706,0.897
			c-0.065,0.89-0.155,1.877-0.253,2.705c-0.008-0.017-0.017-0.037-0.028-0.053c-0.327-0.653-1.036-1.751-2.122-1.751
			c-0.534,0-1.285,0.266-1.832,1.53c-0.676,1.566-0.983,3.378-1.182,4.578c-0.004,0.024-0.009,0.049-0.013,0.073
			c-0.045,0-0.09,0.004-0.135,0.012c-0.004-0.028-0.008-0.057-0.012-0.085c-0.2-1.2-0.506-3.012-1.188-4.578
			c-0.543-1.269-1.293-1.53-1.832-1.53c-1.085,0-1.791,1.098-2.113,1.734c-0.012,0.024-0.024,0.045-0.037,0.069
			c-0.094-0.828-0.188-1.815-0.253-2.705c-0.029-0.416-0.31-0.767-0.706-0.897c-0.379-0.123-0.828,0-1.097,0.314
			c-0.049,0.057-0.38,0.469-0.641,1.195l-0.465-0.144c-0.469-0.15-0.979,0.065-1.204,0.506c0,0-0.322,0.621-0.567,1.29
			c-0.147,0.521,0,1.061,0.224,1.619c-0.069-0.024-0.139-0.04-0.216-0.049c-0.522-0.065-1.052,0.322-1.13,0.873
			c-0.017,0.11-0.049,0.27-0.086,0.425c-0.371-0.062-0.75,0.077-0.987,0.392c-0.306,0.399-0.269,0.967,0.082,1.326
			c0.159,0.163,0.808,0.819,1.383,1.306c-0.686,0.362-0.828,0.926-0.983,1.534c-0.082,0.257-0.106,0.461-0.13,0.722
			c0,0.004-0.053,0.082-0.277,0.261c-0.82,0.649-0.906,1.221-0.926,1.812c-0.119,0.249-0.282,0.743-0.453,1.311
			c-0.147,0.473-0.347,1.126-0.534,1.57c-0.119-0.053-0.245-0.118-0.339-0.167c-0.359-0.184-0.734-0.376-1.11-0.425
			c-0.049-0.004-0.306-0.024-0.351-0.024c-0.114,0-0.229,0.009-0.334,0.021c-0.469-1.701-1.6-4.97-3.672-6.671
			c-0.449-0.367-2.839-2.391-6.038-6.324c-3.362-4.112-6.218-8.543-7.65-11.848c-1.211-2.812-3.284-10.417-4.247-16.394
			c-0.681-4.187-1.53-6.267-2.207-7.936c-0.343-0.849-0.641-1.575-0.849-2.428c-0.469-1.954-1.612-4.578-2.526-6.679
			c-0.371-0.854-0.698-1.607-0.918-2.171c-0.192-0.502-0.485-1.22-0.816-2.036c-0.714-1.742-2.04-4.981-2.073-5.594
			c0.09-0.934-0.286-1.521-0.722-2.199c-0.212-0.33-0.473-0.734-0.759-1.297c-0.604-1.225-1.497-4.113-2.089-6.022l-0.865-2.774
			c-0.575-1.856-1.362-4.39-1.938-6.377c-0.351-1.232-0.865-2.379-1.358-3.484c-0.539-1.208-1.049-2.35-1.175-3.276
			c-0.082-0.542,0.4-1.946,0.824-3.182c0.159-0.462,0.322-0.938,0.478-1.42c0.249-0.76,0.469-1.534,0.673-2.253
			c0.281-0.991,0.546-1.93,0.763-2.37c0.718-1.428,1.901-5.316,2.95-8.85l0.42-1.399c0.273-0.853,1.379-3.533,2.599-5.847
			c0.734-1.407,1.546-2.603,2.003-3.187l0.645-0.767c1.469-1.734,2.529-2.982,2.211-4.068c-0.159-0.656-0.686-1.077-1.347-1.077
			c-0.612,0-1.208,0.355-1.84,0.73l-0.412,0.241c-0.6,0.338-1.249,0.86-1.824,1.321c-0.273,0.221-0.526,0.425-0.755,0.592
			c-0.641,0.478-2.436,1.975-2.436,1.975c-0.232,0.192-0.216,0.29-0.216,0.592c-1.241,0.155-2.457,1.433-2.452,2.525
			c-0.069,0.416-0.967,1.881-1.587,2.489c-0.559,0.551-0.918,0.95-1.31,2.22c-0.298,0.963-1.208,1.954-2.146,2.88
			c-0.804,0.8-1.134,1.575-1.424,2.261c-0.135,0.318-0.27,0.648-0.469,0.991c-0.449,0.767-1.546,1.298-2.105,1.444
			c-0.665,0.155-1.028,0.562-1.249,0.804l-0.236,0.176c-0.424,0-1.33-0.73-2.701-2.179c-1.795-1.869-6.32-7.907-9.331-13.113
			c-2.913-5.076-6.132-12.452-9.845-22.542c-3.415-9.266-4.619-21.588-4.619-23.896c0-1.62,0-6.557,1.526-8.699
			c1.175-1.611,2.473-1.913,3.615-2.183c0.257-0.061,0.502-0.118,0.73-0.184c1.081-0.322,1.734-0.865,1.946-1.615
			c0.13-0.478,0.126-1.22-0.649-2.073c-0.788-0.856-1.877-1.068-2.929-1.269c-0.441-0.086-0.91-0.171-1.396-0.322
			c-1.314-0.388-1.775-0.856-2.505-1.819c-0.853-1.151-1.958-4.044-2.382-11.311c-0.363-6.087-0.09-12.423,0.836-19.376
			c0.926-7.009,2.154-12.415,2.999-15.871c0.922-3.708,1.404-4.712,2.477-6.03l0.583-0.701c0.759-0.897,1.216-1.44,1.216-2.701
			c0-0.485,0.175-0.702,0.686-1.248l0.343-0.376c0.314-0.354,1.053-1.183,0.673-2.04c-0.126-0.285-0.473-0.763-1.35-0.763
			c-0.702,0-1.371,0.44-2.02,0.869c-0.253,0.167-0.49,0.33-0.694,0.42c-0.123,0.127-0.29,0.163-0.453,0.262
			c-0.143-0.404-0.045-2.334,0.257-3.105c0.163-0.392,1.048-1.231,1.779-1.774c0.404-0.298,0.526-0.853,0.29-1.302
			c-0.016-0.032-0.033-0.069-0.049-0.105c1.073-0.384,1.175-1.037,1.069-1.526c-0.098-0.44-0.473-0.763-0.922-0.796
			c0.408-0.298,0.624-0.546,0.783-0.734c0.061-0.073,0.114-0.139,0.147-0.171c0.082-0.041,0.338-0.078,0.518-0.082
			c0.359,0,0.689-0.191,0.873-0.502c0.184-0.313,0.208-0.905,0.024-1.22c-0.102-0.18-0.432-0.648-1.318-0.587
			c0-0.037,0-0.069,0-0.099c0.123-0.069,0.282-0.15,0.449-0.24c1.301-0.698,2.089-1.118,2.089-1.954
			c0-0.506-0.363-0.931-0.857-1.008c0,0-0.457-0.069-0.91-0.131c0-0.024,0-0.045,0-0.049c0.057-0.086,0.167-0.204,0.281-0.335
			c0.49-0.555,1.13-1.281,0.967-2.044c0.069-0.518,0.302-1.51,0.856-2.061c0.237-0.24,0.51-0.534,0.808-0.856
			c0.836-0.906,2.097-2.272,2.856-2.559c1.526-0.53,2.011-1.171,2.146-1.42c0.106-0.188,0.147-0.407,0.118-0.62l-0.069-0.551
			c-0.053-0.403-0.338-0.738-0.73-0.853c-0.216-0.061-1.767-0.534-4.794,0.718c-2.901,1.196-5.022,3.179-6.042,4.13
			c-1.114,1.04-3.888,4.598-5.067,7.299c-1.179,2.717-4.158,12.061-5.765,17.479c-1.64,5.521-3.436,12.917-5.055,20.833
			c-1.31,6.413-1.689,9.579-2.208,13.961l-0.277,2.31c-0.612,4.945-0.641,5.61-0.681,6.618l-0.021,0.489
			c-0.033,0.706-0.033,1.412-0.033,2.089c0,0.645,0,1.261-0.028,1.808c-0.021,0.31-0.086,0.62-0.167,0.995
			c-0.204,1.004-0.514,2.521-0.465,5.438c0.033,1.592,0.017,3.301,0,5.084c-0.024,2.738-0.053,5.573,0.082,8.45
			c0.094,2.317,0.208,3.565,0.293,4.508c0.086,0.963,0.147,1.592,0.114,2.787c-0.061,2.142-0.012,2.705,0.229,5.394l0.126,1.403
			c0.204,2.456,0.388,3.391,0.547,4.211c0.098,0.502,0.188,0.946,0.265,1.733c0.073,0.706,0.726,7.055,1.604,11.734
			c0.461,2.44,0.722,3.358,0.934,4.093c0.135,0.473,0.249,0.868,0.388,1.607c0.265,1.505,0.665,2.325,0.926,2.864
			c0.082,0.167,0.151,0.306,0.2,0.461c0.188,0.555,1.771,6.825,2.624,10.199l0.118,0.47c0.576,2.28,1.428,4.863,2.183,7.148
			c0.518,1.566,0.971,2.929,1.191,3.807c0.383,1.493,1.13,3.133,1.73,4.451c0.293,0.648,0.555,1.22,0.714,1.652
			c0.253,0.689,0.359,1.697,0.481,2.86c0.082,0.759,0.167,1.566,0.298,2.391c0.245,1.518,1.256,4.101,2.333,6.838
			c0.519,1.322,1.028,2.628,1.428,3.754c0.889,2.468,2.717,6.879,4.178,10.424l1.367,3.321c1.432,3.554,4.113,11.551,4.921,14.365
			c0.265,0.919,0.673,2.24,1.138,3.763c0.987,3.215,2.215,7.217,3.007,10.265c0.453,1.808,2.293,7.973,3.819,12.452
			c1.709,5.043,3.387,9.462,4.288,11.832c0.322,0.845,0.555,1.457,0.673,1.791c0.816,2.302,5.312,15.235,5.618,16.442
			c0.106,0.421,0.073,0.543-0.017,0.604c-0.396,0.244-2.101,0.742-3.35,1.105l-0.326,0.094c-0.918,0.27-1.738,0.657-2.399,0.963
			c-0.543,0.253-1.053,0.493-1.506,0.547c-0.424,0-1.301-0.118-3.105-0.678c-0.893-0.273-3.913-0.901-6.12-1.358l-1.563-0.326
			c-1.787-0.363-5.924-0.897-8.029-0.979l-0.445-0.004c-1.546,0-2.611,0.245-3.313,0.404l-0.461,0.102
			c-0.175,0.032-0.371,0.065-0.559,0.094c-0.045-0.212-0.122-0.42-0.249-0.596c-0.024-0.037-0.053-0.073-0.086-0.106
			c0.033-0.261,0.017-0.57-0.179-0.819c-0.037-0.094-0.053-0.221-0.078-0.355c-0.065-0.339-0.135-0.726-0.327-1.073
			c-0.191-0.347-0.559-0.559-0.958-0.526c-0.396,0.025-0.743,0.278-0.885,0.649c-0.025,0.065-0.253,0.673-0.412,1.656
			c-0.004,0.024-0.004,0.053-0.008,0.082c-0.012-0.18-0.021-0.314-0.021-0.388c-0.028-0.682-0.355-1.053-0.551-1.273
			c-0.151-0.171-0.265-0.302-0.363-0.82c-0.216-1.008-0.901-1.391-1.313-1.619c-0.106-0.062-0.253-0.143-0.29-0.192
			c-0.151-0.224-0.266-0.534-0.367-0.812c-0.114-0.311-0.216-0.592-0.388-0.82c-0.033-0.118-0.062-0.281-0.094-0.448
			c-0.078-0.396-0.159-0.8-0.38-1.326c-0.11-0.318-0.408-1.167-1.607-1.167c-0.298,0-0.636,0.065-0.926,0.31
			c-0.004-0.036-0.008-0.073-0.012-0.105c-0.053-0.416-0.126-0.983-0.424-1.628l-0.412-0.845c-0.155-0.318-0.232-0.465-0.281-0.706
			c0.004-0.347,0.021-1.231-0.816-1.774c0.008-0.073,0.02-0.155,0.033-0.221c0.041-0.253,0.089-0.542,0.049-0.832
			c-0.094-0.742-0.522-1.102-0.775-1.313c0,0-0.004-0.005-0.012-0.013c0.033-0.343,0.065-0.938-0.347-1.534
			c-0.302-0.444-1.069-0.877-2.215-0.742c-0.135,0.017-0.27,0.036-0.302,0.09c-0.085-0.082-0.204-0.408-0.269-0.584
			c-0.057-0.15-0.11-0.289-0.151-0.379c-0.049-0.135-0.119-0.62-0.164-0.938c-0.089-0.648-0.184-1.318-0.383-1.815
			c-0.151-0.363-0.294-0.886-0.428-1.354c-0.11-0.396-0.216-0.764-0.318-1.037c-0.229-0.57-0.788-1.726-0.788-1.726
			c-0.208-0.424-0.686-0.656-1.146-0.547c-0.322,0.074-0.583,0.298-0.706,0.588c-0.359,0.012-0.612,0.155-0.788,0.354
			c-0.351-1.199-0.62-2.709-0.571-3.309c0.045-0.567,0.098-1.999-0.363-3.056c-0.485-1.032-1.236-2.261-2.077-2.261
			c-0.563,0-1.057,0.526-1.057,1.094c0,0.232,0.065,0.665,0.147,1.126c0.004,0.021,0.004,0.041,0.008,0.062
			c-0.261-0.425-0.592-1.017-0.845-1.461c-0.371-0.661-0.738-1.31-1.016-1.729c-0.665-0.976-2.562-4.04-3.411-5.569
			c-0.783-1.44-2.489-5.305-2.832-6.238c-0.306-0.768-0.547-1.693-0.698-2.673c-0.143-0.967-0.559-1.342-0.93-1.416
			c-0.004-0.098,0.065-0.371,0.11-0.534c0.053-0.204,0.102-0.399,0.126-0.567c0.024-0.179,0.245-0.624,0.457-1.052l0.412-0.857
			c0.363-0.759,0.829-1.138,1.955-1.497c0.347,0,0.775,0.339,0.922,0.493c0.343,0.384,0.918,0.453,1.334,0.159
			c0.424-0.289,0.567-0.849,0.334-1.301c-0.033-0.069-0.347-0.674-1.016-1.489c-0.783-0.942-1.93-1.281-3.317-1.122
			c-1.065,0.114-2.477,1.619-2.929,2.378c-0.555,0.902-0.865,1.987-1.073,2.844l-0.922-1.027c-0.347-0.388-0.935-0.453-1.359-0.144
			c-0.424,0.307-0.547,0.886-0.282,1.339c0.004,0.004,0.266,0.457,0.453,0.824c0.196,0.399,0.469,1.008,0.743,1.628
			c0.008,0.016,0.016,0.036,0.028,0.057c-0.306-0.021-0.596-0.126-0.767-0.281c-0.514-0.457-1.734-1.249-2.856-1.592
			c-1.211-0.338-1.983-0.171-1.983-0.175c-0.293,0.053-0.571,0.232-0.722,0.493l-0.331,0.56c-0.2,0.343-0.184,0.767,0.041,1.098
			c0.229,0.326,0.608,0.493,1.012,0.424c0.021,0,0.334-0.057,0.6-0.057c0.024,0.004,0.273,0.053,0.979,0.514
			c0.53,0.367,1.791,1.188,2.897,1.497c0.008,0.144,0.024,0.311,0.049,0.502c0.135,0.922,0.665,1.498,1.13,2.004
			c0.221,0.236,0.457,0.493,0.682,0.828c0.241,0.354,0.734,1.016,1.334,1.815c1.126,1.506,2.672,3.562,3.464,4.888
			c0.751,1.248,1.84,2.864,2.828,4.325c0.653,0.963,1.261,1.86,1.673,2.513c0.93,1.497,1.053,2.008,1.318,3.076
			c0.302,1.24,1.346,2.22,1.966,2.808l0.233,0.22c0.249,0.253,0.881,1.526,1.138,2.347c-0.11-0.021-0.22-0.024-0.334-0.013
			c-0.51,0.065-0.89,0.502-0.89,1.012c0,0.123,0.021,0.783,0.481,1.624c0.473,0.832,1.081,1.722,2.003,2.032
			c0.11,0.04,0.249,0.281,0.371,0.493l0.216,0.359c0.188,0.273,0.441,0.493,0.734,0.751c0.331,0.285,0.702,0.611,0.996,1.027
			c0.396,0.58,0.681,1.608,0.845,2.22c-0.253-0.036-0.502,0.017-0.718,0.163c-0.416,0.277-0.567,0.812-0.363,1.27l0.359,0.783
			c0.273,0.547,0.681,1.138,1.812,1.759c0.498,0.265,0.645,0.416,0.91,0.689c0.135,0.139,0.286,0.293,0.481,0.469l0.465,0.425
			c0.861,0.783,1.154,1.044,1.627,1.803c0.208,0.326,0.351,0.629,0.437,0.894c-0.196,0.004-0.392,0.065-0.559,0.18
			c-0.384,0.266-0.539,0.759-0.375,1.195l0.535,1.424c0.518,1.514,1.044,1.89,2.289,2.669c0.461,0.285,0.51,0.489,0.637,1.305
			c0.041,0.249,0.082,0.515,0.147,0.805c0.265,1.175,1.061,1.656,1.644,2.011c0.2,0.123,0.383,0.232,0.551,0.4
			c-0.053,0.032-0.106,0.064-0.155,0.09l-0.372,0.224c-0.485,0.318-1.46,1.106-2.35,1.832c-0.494,0.4-0.958,0.775-1.281,1.028
			c-0.428,0.326-0.885,0.653-1.367,0.995c-0.53,0.376-1.085,0.768-1.644,1.196c-0.481,0.354-1.085,0.905-1.754,1.525
			c-0.902,0.832-1.926,1.775-2.93,2.465c-1.444,1.008-2.599,2.134-3.529,3.043L179,285.139c-1.196,1.146-2.774,2.652-3.497,3.28
			c-1.028,0.89-2.032,1.894-2.481,2.497c-0.049,0.065-0.049,0.065-0.253,0.118c-0.196,0.053-0.465,0.127-0.763,0.302
			c-0.229,0.135-0.641,0.314-1.082,0.51c-0.477,0.209-0.979,0.433-1.383,0.646c-0.775,0.424-2.191,1.35-2.917,1.852
			c-0.265,0.188-0.477,0.363-0.681,0.539c-0.314,0.265-0.563,0.478-1.041,0.706c-0.118-0.037-0.379-0.348-0.648-0.661
			c-0.094-0.114-0.18-0.294-0.273-0.506c-0.151-0.335-0.339-0.743-0.682-1.139c-0.522-0.607-1.069-0.742-1.313-0.746
			c-0.143-0.14-0.396-0.478-0.734-0.919c-0.404-0.525-0.906-1.183-1.473-1.855c-0.445-0.526-1.073-1.241-1.713-1.967
			c-1.02-1.163-2.077-2.358-2.456-2.877c-0.767-1.012-1.628-1.46-2.211-1.66l-0.355-0.049c-0.102-0.172-0.273-0.388-0.506-0.678
			c-0.257-0.326-0.612-0.763-1.037-1.375c-0.657-0.946-1.815-1.844-2.839-2.636c-0.465-0.362-0.902-0.697-1.216-0.991
			c-0.747-0.697-1.652-1.195-2.558-1.399l-0.004,0.024c-0.094-0.036-0.196-0.062-0.298-0.069c-0.139-0.012-0.326-0.028-0.318,0.053
			c-0.224-0.53-0.494-1.134-1.375-2.02c-0.771-0.763-2.399-2.166-3.313-2.953c-0.555-0.457-1.122-0.661-1.726-0.612
			c-0.024-0.163-0.041-0.355-0.041-0.522c0-0.098-0.016-0.2-0.045-0.298c-0.045-0.146-0.286-0.89-0.759-1.493
			c-0.118-0.146-0.49-0.588-0.542-0.628c0.281-1.065-0.424-1.894-0.51-1.987c-0.171-0.188-0.453-0.294-0.738-0.314
			c0.012-0.057,0.024-0.105,0.037-0.146c0.539-0.416,0.506-1.061,0.485-1.424c-0.008-0.184-0.024-0.421,0.004-0.738
			c0.053-0.657,0.241-1.073,0.241-1.073c0.236-0.485,0.057-1.069-0.416-1.334c-0.029-0.017-0.057-0.033-0.086-0.045
			c0.396-0.294,0.89-0.657,1.648-0.938c1.897-0.674,2.35-1.796,2.419-2.016c0.061-0.192,0.065-0.404,0.008-0.596l-0.2-0.702
			c-0.09-0.314-0.322-0.562-0.624-0.677c-0.306-0.11-0.641-0.078-0.914,0.102l-0.502,0.33c-0.085,0.041-0.371,0.103-0.579,0.151
			c-0.298,0.065-0.62,0.139-1.028,0.245c-0.257,0-0.485-0.114-0.514-0.114c0-0.033,0.041-0.159,0.196-0.359
			c0.123-0.143,0.661-0.44,0.983-0.62c0.232-0.131,0.469-0.257,0.665-0.379c0.881-0.519,1.505-1.62,1.62-1.837
			c0.082-0.15,0.123-0.313,0.123-0.485v-0.819c0-0.331-0.163-0.641-0.433-0.833c-0.269-0.191-0.612-0.232-0.93-0.13
			c-0.073,0.024-0.706,0.253-1.212,0.604c-0.485,0.339-1.493,1.118-2.113,1.759c-0.188,0.179-0.367,0.31-0.563,0.412
			c0.204-0.18,0.338-0.417,0.478-0.646c0.143-0.244,0.338-0.579,0.518-0.66c0.865-0.392,1.803-0.882,2.97-2.179
			c0.62-0.71,0.795-1.375,0.522-1.979c-0.424-0.934-1.599-0.934-1.987-0.934c-0.253,0-0.526,0.016-0.812,0.045
			c-1.265,0.143-1.917,0.779-2.55,1.399c-0.18,0.175-0.375,0.367-0.616,0.57c-1.183,1.032-1.917,3.097-1.677,4.627
			c-0.069,0.371-0.184,1.139-0.118,1.767c0.057,0.579,0.253,1.065,0.408,1.453c0.069,0.171,0.139,0.338,0.175,0.469
			c0.09,0.388,0.216,1.755,0.314,3.391c0.057,1.109,0.192,1.583,0.351,2.044l0.09,0.29c0.102,0.33,0.102,0.33,0.102,0.926
			c0,0.6,0.22,1.057,0.379,1.392c0.086,0.171,0.155,0.322,0.225,0.424c-0.033,0.045-0.184,0.281-0.208,0.331
			c-0.359,0.689,0.061,1.342,0.551,2.097c0.184,0.286,0.392,0.6,0.542,0.914c0.845,1.648,1.351,2.252,2.011,2.387
			c0.029,0.004,0.078,0.017,0.131,0.028c-0.065,0.665-0.045,1.628,0.788,2.371c0.298,0.253,1.285,0.967,2.272,1.673
			c0.881,0.628,1.758,1.256,2.101,1.534c0.208,0.163,0.449,0.326,0.686,0.489c0.318,0.216,0.849,0.583,0.926,0.686
			c0.269,0.755,0.718,1.02,1.191,1.297c0.143,0.086,0.31,0.184,0.514,0.318c3.101,2.073,6.561,4.541,6.899,4.912
			c0.143,0.637,0.286,1.294,1.188,2.09c0.306,0.277,1.317,1.142,2.436,2.097c1.387,1.184,2.941,2.509,3.48,2.999
			c0.988,0.926,1.934,2.248,2.032,2.636c0.2,0.926,1.179,1.648,2.129,2.35l0.58,0.437c0.453,0.352,0.89,0.511,1.281,0.604
			c0.163,2.428,1.403,2.954,2.439,2.954c0.429,0,0.89-0.094,1.412-0.294c3.182-1.229,4.386-2.979,5.912-5.194l0.347-0.506
			c0.845-1.232,2.265-2.583,3.636-3.889c1.15-1.102,2.346-2.235,3.211-3.316c1.354-1.697,9.69-8.523,13.251-11.44
			c1.122-0.922,1.865-1.53,1.95-1.616c0.171-0.159,0.759-0.469,0.931-0.579l0.126,0.384c0.383,1.171,0.685,2.097,1.342,2.778
			c0.363,0.408,2.032,3.819,2.439,7.507c0.343,3.338,1.714,8.417,2.815,12.502l0.424,1.575c1.216,4.524,2.383,8.812,3.337,11.521
			c0.938,2.656,2.44,7.287,4.239,14.251c0.461,1.763,0.885,3.668,1.31,5.578c0.392,1.771,0.788,3.533,1.208,5.186
			c0.828,3.354,1.779,6.218,2.195,7.475l0.18,0.559c0.62,1.938,1.473,4.59,3.146,5.646c0.151,0.094,0.253,0.168,0.314,0.221
			c0,0.004,0,0.004,0,0.008c-0.085,0.352-0.224,0.935-0.094,1.828c0.384,2.542,2.362,3.497,6.94,4.811
			c1.457,0.424,5.646,1.375,8.658,1.93c5.451,0.987,11.118,1.746,13.174,2.008c0.139,1.252,0.408,3.684,0.608,5.279
			c0.167,1.293-0.249,2.231-0.686,3.219c-0.2,0.457-0.392,0.894-0.518,1.318c-0.212,0.689-0.294,1.342-0.388,2.035
			c-0.106,0.828-0.229,1.767-0.6,3.081c-0.216,0.787-0.404,1.791,0.061,2.566c0.437,0.738,1.191,0.913,1.86,1.068
			c0.245,0.062,0.51,0.118,0.788,0.221c0.449,0.159,0.849,0.334,1.224,0.498c0.938,0.416,1.828,0.799,2.995,0.799
			c0.645,0,1.706-0.109,2.742-0.229c0.783-0.085,1.555-0.171,2.17-0.191c0.037,0.212,0.143,0.408,0.302,0.559
			c0.261,0.245,0.636,0.343,0.975,0.241c0.004,0,0.624-0.212,1.199-0.135c-0.008,0.465-0.212,1.322-0.322,1.774l-0.061,0.241
			c-0.049-0.013-0.098-0.024-0.143-0.032c-0.645-0.147-1.497-0.025-2.191,0.33c-0.22,0.11-0.587,0.294-0.579,0.351
			c-0.836-0.624-2.33-1.302-3.635-1.302l-1.106-0.004c-1.249,0-3.146,0.021-5.243,0.188c-3.684,0.307-5.23,2.686-6.255,4.979
			c-0.718,1.619-0.971,3.3-1.24,5.071c-0.106,0.705-0.216,1.444-0.367,2.228c-0.171,0.028-0.428,0.045-0.612,0.061
			c-0.518,0.037-1.159,0.086-1.795,0.303c-0.567,0.208-1.13,0.351-1.836,0.534c-0.889,0.232-1.991,0.519-3.545,1.024
			c-1.591,0.514-3.342,0.909-4.884,1.256c-1.2,0.27-2.265,0.515-3.036,0.759c-1.815,0.571-2.419,1.021-3.235,1.628
			c-0.885,0.641-1.028,1.204-0.89,1.861c-0.073,0.085-0.412,0.31-0.681,0.489c-0.286,0.184-0.616,0.404-0.987,0.669
			c-1.293,0.906-2.823,3.313-4.549,6.145l-0.245,0.399c-0.58,0.951-1.514,2.73-2.603,4.814c-1.367,2.607-2.917,5.558-4.357,8.021
			c-0.612,1.041-1.542,2.808-2.636,4.884c-1.53,2.905-3.431,6.524-5.202,9.515c-1.95,3.293-3.884,5.74-4.614,6.663l-0.327,0.416
			c-0.779,1.068-0.979,1.6-1.183,2.276c-0.098,0.225-0.702,0.987-1.293,1.645c-0.322,0.354-0.351,0.894-0.069,1.277
			c0.286,0.392,0.8,0.534,1.24,0.334c0,0,0.392-0.176,0.898-0.485l-0.645,1.188c-0.897,1.656-1.971,3.647-2.191,4.035
			c-0.461,0.783-0.522,1.767-0.191,2.909c0.134,0.485,0.085,0.685-0.049,0.889c-0.139,0.2-0.747,0.727-1.191,1.106
			c-0.501,0.428-1.036,0.894-1.457,1.317c-0.979,0.987-1.154,1.51-0.82,2.697c0.155,0.656,0.143,1.109-0.355,1.615
			c-0.53,0.534-1.191,1.061-1.828,1.571c-0.453,0.362-0.893,0.718-1.277,1.061c-0.975,0.881-1.358,1.587-1.358,2.518
			c0,0.118,0.012,0.265,0.028,0.432c0.049,0.515,0.069,0.906-0.18,1.229c-0.351,0.457-1.085,1.081-1.673,1.575
			c-0.342,0.289-0.661,0.559-0.914,0.8c-0.743,0.755-1.665,1.685-1.665,2.848c0,0.661,0,0.86-0.465,1.525
			c-0.331,0.481-1.069,1.677-1.848,2.938c-0.714,1.155-1.461,2.371-1.955,3.126c-0.604,0.926-1.566,2.113-2.337,3.063
			c-0.531,0.657-0.996,1.232-1.261,1.616c-0.327,0.485-1.571,1.975-2.477,3.063c-0.714,0.857-1.318,1.583-1.432,1.755
			c-0.204,0.302-0.261,0.612-0.253,0.897c-0.372,0.151-0.82,0.359-1.334,0.616c-0.184,0.09-0.334,0.184-0.477,0.273
			c-0.053,0.036-0.098,0.065-0.143,0.086c0.053-0.114,0.11-0.233,0.171-0.327l0.971-1.448c0.298-0.444,0.2-1.049-0.229-1.375
			c-0.429-0.33-1.032-0.261-1.387,0.135l-1.032,1.184c-0.694,0.791-1.089,2.705-0.718,3.635c0.404,0.89,1.24,1.294,2.518,1.061
			c0.714-0.15,1.509-0.685,2.26-1.224l0.147-0.106c0.09,0,0.449,0.025,1.33,0.294l-0.086,0.408c-0.196,0.73-0.367,1.66,0.049,3.468
			c0.351,1.555,1.509,1.673,1.852,1.673c1.146,0,2.285-1.044,2.501-1.257c0.082-0.081,0.151-0.171,0.2-0.272l0.93-1.841
			c0.236-0.469,0.078-1.044-0.367-1.321c-0.441-0.273-1.028-0.176-1.354,0.244c-0.318,0.421-0.767,0.987-1.134,1.429
			c-0.033-0.429-0.033-0.959,0.012-1.302c0.082-0.567-0.024-0.942-0.126-1.253c1.387-0.09,1.566-1.514,1.624-1.991
			c0.017-0.143,0.045-0.362,0.082-0.444c0.266-0.637,1.089-2.379,2.003-4.28c1.33-2.778,5.137-8.857,6.789-11.158
			c0.424,0.399,1.044,0.596,1.542,0.502c0.996-0.249,0.987-1.31,0.983-1.95c0-0.314-0.004-0.674,0.057-0.968
			c0.13-0.689,0.844-2.398,1.285-3.312c0.077-0.159,0.175-0.339,0.286-0.534c0.212,0.277,0.693,0.518,1.028,0.518
			c0.461,0,0.942-0.216,1.457-0.437c0.2-0.086,0.396-0.18,0.51-0.212c1.607-0.375,1.358-2.448,1.228-3.484
			c-0.069-0.575-0.049-1.298,0.571-2.705c0.375-0.841,0.734-1.542,1.04-2.085c0,0.339-0.089,0.808-0.175,1.105
			c-0.139,0.462,0.065,0.955,0.481,1.188c0.433,0.229,0.947,0.143,1.261-0.22c0.029-0.033,0.71-0.812,1.289-1.8
			c0.743-1.248,0.526-2.733,0.225-4.794c-0.155-1.073,0.053-1.469,0.396-2.13c0.167-0.314,0.334-0.648,0.489-1.064
			c0.029-0.086,0.062-0.163,0.086-0.225c0.184,0.146,0.334,0.437,0.375,0.562c0.139,0.417,0.522,0.698,0.959,0.702
			c0.004,0,0.004,0,0.008,0c0.432,0,0.82-0.27,0.963-0.682l0.449-1.276c0.037-0.099,0.057-0.208,0.057-0.314
			c0.069-2.832,0.249-6.227,0.42-6.769c0.049-0.147,0.089-0.221,0.102-0.237c0.029,0,0.062,0,0.086,0.005
			c-0.004,0.232-0.029,0.51-0.069,0.763c-0.078,0.518,0.253,1.008,0.763,1.134c0.51,0.127,1.028-0.146,1.208-0.641
			c0.106-0.302,0.379-0.759,0.498-0.828c1.53-0.403,1.865-2.835,1.865-3.733c0.037-0.689,1.522-4.659,2.395-6.687
			c0.575-1.313,2.856-5.806,4.488-8.172c1.648-2.367,6.801-10.355,7.744-11.902c0.995-1.595,2.089-4.361,2.68-5.858
			c0.294-0.763,0.526-1.261,0.714-1.648c0.245-0.518,0.404-0.885,0.51-1.313c0.159-0.62,0.379-0.653,0.592-0.62
			c0.808,0.073,1.138-0.078,1.403-0.176c0.159-0.062,0.261-0.098,0.6-0.098c0.139,0,0.139,0,0.322,0.131
			c0.481,0.351,0.955,0.746,2.407,0.518c1.963-0.281,3.264-0.828,4.643-1.403l0.559-0.236c1.122-0.453,3.542-0.906,5.304-1.236
			l1.412-0.27c0.587-0.114,1.093-0.196,1.51-0.249c-0.437,2.681-1.306,9.221-1.171,17.928c0.184,10.347,1.922,18.911,2.958,24.027
			l0.286,1.407c0.698,3.554,1.334,7.218,1.595,8.764c-1.089,0.51-3.166,1.489-4.296,2.094c-0.914,0.485-2.105,1.183-3.362,1.921
			c-0.901,0.526-1.84,1.077-2.729,1.579c-2.285,1.302-5.173,3.468-6.209,4.333c-1.155,0.963-1.061,1.877-0.971,2.758
			c0.037,0.355,0.082,0.788,0.057,1.354c-0.033,0.657-0.102,0.788-0.123,0.76c-0.216,0.098-0.546,0.248-0.91,0.57
			c-1.334,1.167-1.787,5.623-1.922,7.483c-0.191,2.726-0.281,13.174-0.281,15.973c0,0.972-0.041,3.117-0.086,5.643
			c-0.098,5.288-0.224,11.869-0.102,13.636c0.171,2.375-1.257,10.812-1.51,11.787c-0.196,0.73-0.812,1.946-1.032,2.35
			c-0.151,0.278-0.167,0.612-0.033,0.906s0.392,0.506,0.702,0.575c0.429,0.106,1.077,0.037,1.918-0.682c0,0,0.338-0.143,0.836-0.077
			c-0.057,0.506-0.196,1.257-0.302,1.808l-0.094,0.522c-0.078,0.424-0.27,0.934-0.473,1.484c-0.384,1.057-0.824,2.253-0.824,3.391
			c0,0.996,0.261,1.604,0.783,1.812c-0.073,0.567-0.261,1.399-0.449,1.877c-0.098,0.27-0.363,0.828-0.657,1.465
			c-0.649,1.392-1.122,2.428-1.285,3.011c-0.31,1.041,0.069,1.616,0.318,2.004c0.098,0.15,0.176,0.269,0.237,0.44
			c0.151,0.44-0.269,0.991-0.559,1.317c-0.881,1.065-1.154,1.661-1.416,2.236l-0.155,0.338c-0.09,0.172-0.188,0.331-0.286,0.49
			c-0.338,0.551-0.759,1.232-0.844,2.293c-0.041,0.562,0.085,1.008,0.383,1.321c0.171,0.188,0.473,0.408,0.951,0.433
			c-0.041,0.172-0.102,0.396-0.192,0.686c-0.314,1.045-1.399,3.146-1.926,4.104c-0.273,0.485-0.608,1.212-0.351,1.918
			c0.11,0.298,0.363,0.701,0.759,0.775c0.012,0.024,0.326,0.583-0.078,3.072c-0.485,2.998-1.236,5.732-2.236,8.123
			c-1.032,2.473-1.983,4.096-2.995,5.108c-1.041,1.044-1.048,1.832-0.938,2.929c0.037,0.343,0.037,0.343-0.669,0.963
			c-0.396,0.343-0.971,0.551-1.538,0.551c-0.147,0-0.282-0.016-0.372-0.021c-0.061-0.061-0.143-0.298-0.155-0.465
			c-0.033-0.514-0.445-0.922-0.959-0.946c-0.567-0.09-0.967,0.33-1.061,0.832c0,0-0.114,0.633-0.114,1.384
			c0,1.881,0.987,2.692,1.819,3.043c1.359,0.56,2.628-0.367,3.456-1.122l0.379-0.343c0.338-0.306,0.563-0.313,0.498-0.334
			c0.318,0.094,0.637,0.024,0.89-0.163c0.257-0.192,0.408-0.494,0.412-0.812c0-0.13,0.016-0.281,0.045-0.42
			c0.021,0.017,0.045,0.032,0.069,0.053c-0.017,0.367-0.27,1.191-0.587,1.873c-0.062,0.131-0.094,0.281-0.094,0.429v0.641
			c0,0.432,0.278,0.819,0.686,0.962c0.412,0.135,0.865,0.009,1.134-0.334c0.294-0.38,0.808-1.085,0.922-1.555
			c0.045-0.163,0.114-0.6,0.184-1.102c0.078-0.559,0.155-1.212,0.237-1.444c0.065-0.155,0.196-0.351,0.334-0.579
			c0.261-0.425,0.592-0.951,0.784-1.485c0.257-0.71,1.13-3.183,1.444-5.174c0.146-1.044,0.424-2.235,0.685-3.346
			c0.196-0.84,0.379-1.64,0.502-2.312l0.225-1.266c0.318-1.778,0.714-3.985,0.795-4.884c0.078-0.95,0.6-2.9,0.71-3.133
			c0.571-0.429,0.775-1.265,0.775-1.845c0-0.497-0.131-0.922-0.388-1.228c-0.008-0.343,0.126-1.114,0.208-1.6l0.069-0.408
			c0.049-0.322,0.098-0.628,0.147-0.918c0.021,0.024,0.041,0.049,0.061,0.069c0.42,0.449,1.334,0.788,2.101-0.383
			c0.514-0.768,0.58-2.371,0.396-3.183c-0.094-0.425-0.265-0.747-0.51-0.963c-0.098-0.314-0.249-1.294-0.261-3.313
			c0.012,0.021,0.02,0.037,0.032,0.058c0.229,0.392,0.706,1.199,1.526,1.199c1.036,0,1.269-1.105,1.362-1.574
			c0.021-0.103,0.037-0.208,0.074-0.314c0.147-0.474,0.085-0.991,0.021-1.596c-0.053-0.469-0.123-1.04-0.082-1.669
			c0.049-0.754,0.077-1.799,0.102-2.848c0.021-0.877,0.045-1.758,0.082-2.452c0.236,0.045,0.498,0,0.709-0.13
			c0.323-0.196,0.51-0.551,0.49-0.927l-0.18-3.594c-0.077-1.429-0.326-1.901-0.853-2.338c-0.078-0.241-0.085-1.146-0.094-1.755
			c-0.008-0.632-0.016-1.285-0.073-1.853c0.082,0.009,0.159,0.021,0.228,0.037c0.049,0.277,0.049,0.808,0.049,1.179
			c0,1.408,0.873,1.783,1.387,1.783c0.379,0,0.718-0.167,0.951-0.428c0.024,0.004,0.045,0.008,0.065,0.016
			c0.335,0.078,0.689,0,0.943-0.236c0.253-0.232,0.375-0.579,0.322-0.918c-0.004-0.045-0.718-4.427-1.102-8.209
			c-0.208-2.224-0.196-5.562-0.188-8.511c0.004-2.118,0.012-4.076-0.061-5.41c-0.167-2.979,0.208-7.304,0.347-8.947
			c0.037-0.425,0.102-1.057,0.175-1.727c0.131-1.235,0.273-2.599,0.273-3.142c0-0.188,0.021-0.57,0.049-1.093
			c0.094-1.775,0.269-5.071,0.057-7.72c-0.196-2.46-0.506-3.505-0.73-4.271c-0.082-0.273-0.151-0.502-0.196-0.8
			c-0.4-2.13-0.339-2.99-0.192-3.432c0.049-0.036,0.245-0.09,0.388-0.13c0.253-0.074,0.518-0.151,0.865-0.314
			c0.232-0.131,0.392-0.294,0.51-0.416l0.269-0.078c0.27,0.127,0.828,0.352,1.95,0.033c1.714-0.502,4.753-2.514,4.77-2.525
			c0.702-0.425,7.059-2.321,8.401-2.505l0.249-0.037c0.028,0.11,0.061,0.253,0.102,0.429c0.404,1.713,1.354,5.728,2.733,10.032
			c2.003,6.287,4.08,11.334,6.544,15.884c2.24,4.08,4.488,7.274,7.756,11.023c1.93,2.184,5.157,4.419,7.083,5.753l1.55,1.098
			c2.477,1.763,3.619,2.55,4.137,2.726c0.334,0.114,0.677,0.118,1.003,0.122c0.159-0.008,0.424,0,0.4-0.098
			c0.445,1.273,1.853,1.894,5.178,3.097c1.742,0.633,2.832,0.967,3.774,1.257c0.689,0.212,1.297,0.399,2.04,0.665
			c1.534,0.567,3.696,0.624,4.554,0.624l0.33-0.004c0.281-0.008,0.547-0.135,0.734-0.343c0.053-0.065,0.098-0.127,0.135-0.2
			c0.036,0.073,0.086,0.139,0.139,0.2c0.188,0.212,0.453,0.335,0.734,0.343l0.33,0.004c0.857,0,3.02-0.062,4.554-0.62
			c0.746-0.273,1.354-0.457,2.044-0.669c0.938-0.29,2.027-0.62,3.766-1.257c3.342-1.207,4.745-1.828,5.039-2.958
			c0.086-0.036,0.371-0.041,0.538-0.041c0.331-0.004,0.67-0.008,0.992-0.118c0.526-0.175,1.66-0.963,4.12-2.713l1.579-1.109
			c1.93-1.335,5.157-3.57,7.087-5.758c3.26-3.736,5.508-6.932,7.756-11.023c2.465-4.554,4.541-9.601,6.541-15.88
			c1.387-4.316,2.333-8.335,2.737-10.049c0.041-0.167,0.073-0.306,0.098-0.416l0.249,0.036c1.343,0.184,7.703,2.081,8.393,2.497
			c0.028,0.021,3.068,2.032,4.794,2.538c1.09,0.29,1.665,0.09,1.938-0.037l-0.298-0.982l0,0l0.566,1.061
			c0.114,0.118,0.273,0.281,0.584,0.453c0.273,0.122,0.538,0.203,0.791,0.273c0.144,0.04,0.339,0.094,0.417,0.224
			c0.122,0.347,0.179,1.208-0.225,3.374c-0.041,0.262-0.11,0.486-0.188,0.76c-0.229,0.767-0.535,1.815-0.73,4.279
			c-0.213,2.645-0.037,5.944,0.057,7.72c0.029,0.522,0.049,0.905,0.049,1.093c0,0.543,0.144,1.897,0.277,3.13
			c0.074,0.673,0.144,1.31,0.176,1.738l0.024,0.281c0.123,1.42,0.49,5.725,0.326,8.67c-0.069,1.33-0.064,3.284-0.061,5.394
			c0.008,2.954,0.021,6.296-0.188,8.516c-0.384,3.79-1.098,8.172-1.102,8.217c-0.058,0.339,0.064,0.686,0.322,0.918
			c0.253,0.236,0.607,0.311,0.942,0.236c0.016-0.008,0.041-0.012,0.065-0.016c0.236,0.261,0.575,0.428,0.95,0.428
			c0.514,0,1.388-0.375,1.388-1.782c0-0.372,0-0.902,0.049-1.176c0.065-0.012,0.139-0.021,0.229-0.028
			c-0.054,0.555-0.065,1.204-0.074,1.836c-0.008,0.604-0.02,1.518-0.13,1.734c-0.494,0.465-0.743,0.935-0.82,2.366l-0.18,3.591
			c-0.021,0.375,0.151,0.734,0.474,0.93c0.229,0.139,0.493,0.188,0.73,0.127c0.036,0.697,0.057,1.562,0.077,2.428
			c0.028,1.061,0.053,2.113,0.102,2.872c0.041,0.628-0.024,1.199-0.081,1.669c-0.065,0.6-0.127,1.117,0.028,1.619
			c0.028,0.082,0.045,0.184,0.065,0.286c0.098,0.469,0.326,1.574,1.362,1.574c0.82,0,1.298-0.808,1.53-1.203
			c0.009-0.017,0.021-0.032,0.028-0.049c-0.012,2.016-0.163,2.994-0.261,3.309c-0.245,0.225-0.416,0.547-0.51,0.963
			c-0.184,0.812-0.123,2.42,0.388,3.166c0.783,1.191,1.688,0.845,2.109,0.4c0.021-0.021,0.04-0.045,0.061-0.069
			c0.049,0.281,0.099,0.591,0.151,0.934l0.069,0.412c0.082,0.474,0.212,1.236,0.204,1.575c-0.253,0.306-0.392,0.73-0.388,1.229
			c0,0.583,0.204,1.419,0.645,1.718c0.236,0.362,0.763,2.305,0.841,3.271c0.081,0.89,0.478,3.08,0.791,4.848l0.232,1.297
			c0.119,0.669,0.303,1.461,0.498,2.297c0.257,1.118,0.539,2.31,0.686,3.374c0.298,1.894,1.105,4.235,1.44,5.157
			c0.195,0.531,0.518,1.057,0.783,1.481c0.139,0.229,0.27,0.424,0.326,0.559c0.094,0.262,0.172,0.935,0.249,1.489
			c0.069,0.485,0.135,0.914,0.171,1.045c0.127,0.506,0.633,1.212,0.927,1.587c0.195,0.253,0.498,0.396,0.804,0.396
			c0.11,0,0.225-0.021,0.33-0.057c0.412-0.139,0.689-0.53,0.689-0.963v-0.641c0-0.146-0.032-0.294-0.094-0.429
			c-0.31-0.665-0.566-1.501-0.583-1.872c0.024-0.021,0.045-0.037,0.069-0.054c0.024,0.135,0.041,0.286,0.045,0.421
			c0,0.317,0.11,0.628,0.367,0.819c0.253,0.192,0.538,0.253,0.849,0.176c0.024,0,0.245,0.008,0.604,0.33l0.363,0.327
			c0.832,0.767,2.077,1.685,3.464,1.121c0.828-0.351,1.812-1.162,1.812-3.043c0-0.751-0.114-1.384-0.114-1.384
			c-0.094-0.501-0.559-0.853-1.053-0.828c-0.51,0.024-0.926,0.425-0.967,0.935c-0.017,0.176-0.094,0.416-0.122,0.453
			c-0.596,0.114-1.408-0.049-2.085-0.637c-0.56-0.494-0.56-0.494-0.522-0.845c0.106-1.089,0.094-1.877-0.942-2.921
			c-1.012-1.012-1.959-2.636-2.995-5.108c-1.003-2.395-1.754-5.129-2.235-8.123c-0.363-2.261-0.143-2.93-0.241-2.941
			c0.571-0.229,0.816-0.616,0.923-0.91c0.257-0.706-0.082-1.437-0.348-1.905c-0.53-0.972-1.615-3.085-1.93-4.125
			c-0.09-0.286-0.15-0.506-0.191-0.678c0.478-0.028,0.779-0.248,0.95-0.432c0.298-0.314,0.425-0.764,0.384-1.331
			c-0.086-1.057-0.506-1.737-0.845-2.288c-0.098-0.159-0.195-0.318-0.277-0.47l-0.171-0.367c-0.262-0.575-0.535-1.167-1.444-2.265
			c-0.262-0.285-0.682-0.84-0.53-1.28c0.057-0.172,0.134-0.29,0.232-0.441c0.253-0.388,0.628-0.967,0.322-1.986
			c-0.172-0.6-0.641-1.632-1.285-3.023c-0.298-0.637-0.56-1.199-0.669-1.485c-0.184-0.478-0.38-1.334-0.466-1.853
			c0.535-0.204,0.804-0.812,0.804-1.819c0-1.139-0.437-2.334-0.824-3.391c-0.204-0.555-0.399-1.064-0.473-1.485l-0.094-0.506
			c-0.103-0.559-0.245-1.313-0.303-1.823c0.49-0.062,0.837,0.077,0.837,0.077c0.836,0.718,1.485,0.783,1.913,0.682
			c0.311-0.073,0.571-0.281,0.702-0.575s0.118-0.624-0.032-0.906c-0.221-0.407-0.837-1.615-1.028-2.346
			c-0.253-0.971-1.682-9.388-1.51-11.791c0.122-1.767,0-8.355-0.098-13.647c-0.05-2.518-0.086-4.659-0.086-5.631
			c0-2.795-0.086-13.231-0.281-15.973c-0.135-1.86-0.588-6.312-1.91-7.475c-0.371-0.331-0.697-0.478-0.934-0.522
			c-0.009-0.017-0.078-0.18-0.11-0.808c-0.024-0.567,0.021-1,0.057-1.359c0.09-0.881,0.184-1.791-0.971-2.758
			c-1.036-0.869-3.921-3.027-6.218-4.337c-0.89-0.502-1.828-1.053-2.733-1.583c-1.257-0.734-2.444-1.432-3.354-1.913
			c-1.13-0.601-3.211-1.583-4.3-2.094c0.261-1.55,0.897-5.21,1.595-8.76l0.286-1.411c1.036-5.116,2.774-13.681,2.958-24.031
			c0.139-8.703-0.73-15.239-1.167-17.924c0.416,0.054,0.922,0.131,1.51,0.249l1.407,0.27c1.767,0.326,4.187,0.779,5.3,1.236
			l0.571,0.236c1.375,0.579,2.677,1.118,4.647,1.407c1.424,0.18,1.917-0.171,2.398-0.521c0.18-0.131,0.18-0.131,0.322-0.131
			c0.339,0,0.445,0.041,0.601,0.098c0.216,0.082,0.51,0.196,1.016,0.196c0.11,0,0.24-0.009,0.444-0.024c0.139,0,0.372,0,0.53,0.616
			c0.11,0.437,0.273,0.799,0.515,1.313c0.184,0.396,0.42,0.897,0.718,1.664c0.816,2.064,1.759,4.387,2.669,5.839
			c0.934,1.534,6.079,9.507,7.747,11.909c1.547,2.244,3.815,6.63,4.488,8.177c0.877,2.023,2.362,5.989,2.399,6.679
			c0,0.906,0.334,3.338,1.836,3.729c0.139,0.077,0.399,0.493,0.53,0.845c0.18,0.485,0.714,0.759,1.208,0.636
			c0.51-0.13,0.836-0.62,0.759-1.138c-0.037-0.249-0.062-0.535-0.069-0.768c0.024-0.008,0.045-0.012,0.069-0.021
			c0,0.005,0.057,0.062,0.126,0.262c0.172,0.542,0.347,3.937,0.42,6.769c0,0.106,0.021,0.216,0.058,0.314l0.449,1.276
			c0.143,0.412,0.53,0.682,0.963,0.682c0.004,0,0.008,0,0.012,0c0.437-0.004,0.82-0.285,0.959-0.702
			c0.024-0.081,0.146-0.334,0.375-0.559c0.024,0.065,0.058,0.139,0.086,0.232c0.151,0.404,0.318,0.738,0.481,1.053
			c0.343,0.661,0.551,1.061,0.396,2.13c-0.302,2.061-0.518,3.546,0.221,4.79c0.583,0.991,1.269,1.774,1.297,1.804
			c0.311,0.358,0.837,0.44,1.261,0.22c0.421-0.236,0.62-0.726,0.481-1.188c-0.085-0.285-0.171-0.746-0.171-1.097
			c0.306,0.538,0.665,1.235,1.032,2.072c0.62,1.407,0.641,2.134,0.567,2.754c-0.123,0.996-0.372,3.068,1.207,3.439
			c0.144,0.037,0.335,0.127,0.535,0.217c0.514,0.224,0.999,0.437,1.456,0.437c0.335,0,0.812-0.241,1.024-0.519
			c0.11,0.195,0.208,0.375,0.285,0.53c0.445,0.922,1.155,2.632,1.289,3.342c0.058,0.273,0.058,0.632,0.054,0.946
			c-0.004,0.633-0.013,1.693,0.999,1.95c0.494,0.103,1.11-0.114,1.53-0.506c1.652,2.306,5.459,8.389,6.785,11.155
			c0.91,1.905,1.734,3.647,2.012,4.3c0.028,0.069,0.057,0.285,0.073,0.429c0.062,0.478,0.236,1.901,1.624,1.991
			c-0.103,0.302-0.208,0.685-0.127,1.248c0.049,0.347,0.049,0.886,0.013,1.313c-0.335-0.403-0.808-0.999-1.135-1.432
			c-0.322-0.425-0.914-0.522-1.354-0.249c-0.444,0.277-0.604,0.853-0.367,1.322l0.931,1.84c0.053,0.102,0.118,0.195,0.199,0.273
			c0.217,0.212,1.359,1.257,2.502,1.257c0.347,0,1.505-0.119,1.856-1.669c0.42-1.808,0.244-2.742,0.049-3.473l-0.571,0.017
			c0.016-0.053,0.032-0.102,0.049-0.159l0.555-0.18c0.763-0.354,1.118-0.379,1.122-0.433l0.232,0.164
			c0.755,0.534,1.547,1.072,2.269,1.224c1.236,0.236,2.097-0.155,2.534-1.105c0.347-0.882-0.045-2.795-0.743-3.587l-1.028-1.179
			c-0.354-0.408-0.958-0.465-1.387-0.139s-0.526,0.93-0.229,1.375l0.942,1.411c0.069,0.11,0.135,0.245,0.191,0.372
			c-0.04-0.024-0.085-0.058-0.143-0.09c-0.143-0.09-0.29-0.184-0.457-0.262c-0.522-0.265-0.975-0.478-1.354-0.628
			c0.008-0.277-0.049-0.592-0.253-0.89c-0.118-0.18-0.714-0.901-1.428-1.754c-0.914-1.094-2.162-2.583-2.501-3.093
			c-0.253-0.363-0.71-0.931-1.236-1.583c-0.775-0.955-1.738-2.146-2.346-3.072c-0.502-0.768-1.261-1.991-1.979-3.154
			c-0.771-1.252-1.501-2.432-1.836-2.917c-0.457-0.657-0.457-0.856-0.457-1.518c0-1.159-0.922-2.094-1.688-2.868
			c-0.232-0.225-0.543-0.485-0.886-0.775c-0.592-0.498-1.326-1.114-1.685-1.583c-0.245-0.318-0.229-0.706-0.176-1.22
			c0.017-0.172,0.028-0.318,0.028-0.437c0-0.923-0.396-1.648-1.362-2.521c-0.38-0.339-0.824-0.694-1.277-1.062
			c-0.633-0.506-1.293-1.036-1.815-1.559c-0.506-0.518-0.519-0.95-0.318-1.791c0.294-1.02,0.114-1.542-0.861-2.529
			c-0.424-0.425-0.958-0.894-1.46-1.322c-0.445-0.383-1.053-0.905-1.176-1.081c-0.146-0.225-0.195-0.424-0.061-0.905
			c0.334-1.155,0.27-2.134-0.18-2.901c-0.232-0.416-1.334-2.452-2.24-4.125l-0.6-1.109c0.485,0.298,0.894,0.481,0.894,0.481
			c0.444,0.2,0.959,0.053,1.244-0.331c0.282-0.392,0.253-0.926-0.064-1.28c-0.592-0.657-1.191-1.425-1.322-1.738
			c-0.176-0.588-0.376-1.114-1.159-2.183l-0.313-0.4c-0.73-0.926-2.665-3.37-4.623-6.679c-1.774-2.999-3.68-6.626-5.214-9.539
			c-1.09-2.068-2.012-3.827-2.624-4.855c-1.44-2.464-2.99-5.414-4.357-8.021c-1.085-2.064-2.02-3.847-2.611-4.822l-0.253-0.408
			c-1.718-2.819-3.247-5.23-4.524-6.12c-0.384-0.277-0.714-0.497-1-0.681c-0.269-0.18-0.607-0.404-0.6-0.449
			c0.058-0.697-0.085-1.261-1.089-1.987c-0.698-0.521-1.306-0.971-3.121-1.542c-0.771-0.244-1.836-0.485-3.036-0.759
			c-1.542-0.347-3.292-0.742-4.88-1.252c-1.558-0.511-2.66-0.796-3.549-1.028c-0.702-0.184-1.27-0.327-1.845-0.539
			c-0.624-0.216-1.269-0.261-1.787-0.298c-0.188-0.016-0.444-0.032-0.611-0.061c-0.147-0.768-0.258-1.506-0.367-2.216
			c-0.27-1.779-0.526-3.46-1.245-5.084c-1.02-2.293-2.562-4.671-6.259-4.978c-2.093-0.167-3.99-0.188-5.238-0.188l-1.105,0.004
			c-1.31,0-2.803,0.678-3.493,1.253c-0.134-0.004-0.501-0.188-0.722-0.298c-0.693-0.355-1.546-0.478-2.191-0.331
			c-0.049,0.009-0.098,0.021-0.146,0.033l-0.057-0.241c-0.11-0.448-0.314-1.306-0.323-1.774c0.567-0.082,1.191,0.135,1.2,0.135
			c0.339,0.09,0.689,0.114,0.946-0.127c0.216-0.204,0.314-0.412,0.298-0.673c0.522,0.012,1.351,0.102,2.199,0.195
			c1.036,0.114,2.102,0.229,2.746,0.229c1.167,0,2.056-0.392,2.998-0.799c0.372-0.164,0.771-0.339,1.221-0.498
			c0.277-0.098,0.546-0.159,0.787-0.221c0.669-0.155,1.424-0.33,1.86-1.068c0.461-0.771,0.277-1.779,0.062-2.579
			c-0.371-1.302-0.494-2.244-0.6-3.072c-0.09-0.689-0.176-1.342-0.384-2.023c-0.131-0.433-0.318-0.869-0.519-1.326
			c-0.437-0.991-0.853-1.93-0.689-3.219c0.2-1.596,0.47-4.027,0.608-5.279c2.056-0.262,7.724-1.021,13.174-2.008
			c3.02-0.555,7.205-1.51,8.654-1.93c4.581-1.306,6.557-2.269,6.943-4.814c0.114-0.796,0.013-1.351-0.094-1.836
			c0.065-0.049,0.164-0.118,0.311-0.217c1.669-1.052,2.521-3.696,3.142-5.63l0.184-0.571l0.081-0.245
			c0.355-1.081,1.306-3.949,2.114-7.226c0.424-1.656,0.815-3.423,1.207-5.189c0.425-1.909,0.849-3.819,1.313-5.582
			c1.808-6.997,3.306-11.611,4.239-14.247c0.959-2.733,2.126-7.01,3.338-11.525l0.437-1.628c1.098-4.064,2.46-9.119,2.803-12.433
			c0.408-3.7,2.077-7.107,2.452-7.527c0.645-0.665,0.942-1.583,1.326-2.742v-0.298c0.306,0,0.894,0.311,1.069,0.474
			c0.085,0.086,0.812,0.682,1.917,1.591c3.566,2.922,11.922,9.764,13.28,11.465c0.865,1.086,2.057,2.22,3.211,3.321
			c1.367,1.306,2.787,2.656,3.632,3.893l0.343,0.494c1.525,2.22,2.729,3.97,5.92,5.202c0.514,0.195,0.975,0.289,1.403,0.289
			c1.024,0,2.252-0.514,2.424-2.945c0.351-0.086,0.815-0.241,1.31-0.62l0.566-0.425c0.951-0.702,1.931-1.428,2.13-2.366
			c0.094-0.376,1.045-1.697,2.024-2.611c0.542-0.498,2.101-1.824,3.484-3.007c1.117-0.955,2.129-1.815,2.427-2.085
			c0.833-0.738,1.024-1.347,1.176-1.999c0.596-0.616,3.488-2.714,6.915-5.011c0.204-0.139,0.376-0.236,0.515-0.318
			c0.473-0.277,0.922-0.542,1.162-1.236c0.106-0.167,0.637-0.53,0.955-0.75c0.241-0.163,0.478-0.327,0.71-0.511
			c0.318-0.257,1.188-0.877,2.061-1.505c0.991-0.71,1.991-1.428,2.305-1.697c0.828-0.738,0.837-1.71,0.771-2.354
			c0.053-0.012,0.106-0.021,0.139-0.028c0.661-0.135,1.146-0.714,2.012-2.399c0.146-0.294,0.351-0.607,0.534-0.894
			c0.489-0.755,0.914-1.403,0.575-2.061c-0.081-0.175-0.176-0.298-0.167-0.383c0.008-0.094,0.081-0.245,0.163-0.416
			C458.634,265.294,458.855,264.841,458.855,264.236z M379.723,269.957c0.865,0,1.938,0.139,2.722,0.257
			c-0.069,0.229-0.147,0.457-0.225,0.637c-0.311,0.718-1.257,2.905-1.53,5.316c-0.146,1.162-0.359,3.382-0.575,5.585
			c-0.204,2.143-0.412,4.264-0.547,5.354c-0.232,1.967-1.448,6.401-2.036,8.531l-0.139,0.51c-0.229,0.837-0.836,2.771-1.51,4.933
			c-0.967,3.097-2.068,6.61-2.451,8.136c-0.217,0.865-0.601,2.424-1.049,4.26c-0.89,3.627-2.04,8.335-2.713,10.894
			c-1.037,3.957-1.946,8.307-2.163,10.359c-0.139,1.505-0.028,4.243,0.054,6.238c0.028,0.755,0.057,1.358,0.057,1.673
			c0,0.812-0.306,0.885-0.489,0.93c-0.719,0.163-2.93,0.163-4.117,0.163c-0.229,0-0.738,0.086-1.477,0.229
			c-1.583,0.298-4.231,0.804-7.557,0.918c-3.476,0.131-6.858,0.625-8.482,0.865c-0.375,0.058-0.645,0.094-0.779,0.106
			c-0.024,0.004-0.049,0.008-0.077,0.008c0.29-0.547,0.478-0.967,0.71-1.493c0.159-0.355,0.339-0.759,0.592-1.289
			c0.632-1.354,1.354-3.64,1.444-5.451c0.032-0.637-0.168-6.854-1.86-7.898c-0.519-0.311-0.519-0.363-0.535-0.764
			c0.123-0.31,1.036-0.999,1.474-1.33l0.358-0.269c0.853-0.67,1.021-1.489,1.118-1.983c0.017-0.094,0.028-0.184,0.021-0.2
			c0.098-0.122,0.497-0.42,0.763-0.611c0.44-0.327,0.894-0.665,1.188-1.017c0.424-0.506,0.433-1.008,0.379-1.375
			c0.616-0.461,1.049-0.93,2.681-2.974c1.91-2.399,2.738-3.651,2.604-4.713l-0.135-1.53c0.465-0.33,0.89-0.905,0.959-1.836
			c0.073-0.812-0.009-2.183-0.086-3.513c-0.045-0.755-0.086-1.448-0.086-1.901c0-0.897,0.241-1.346,0.44-1.726
			c0.343-0.645,0.457-1.632-0.057-2.342c-0.082-0.167-0.196-0.922-0.098-1.926c0.024-0.33,0.42-0.592,0.86-0.849
			c0.155-0.09,0.282-0.171,0.384-0.245c0.363-0.277,0.506-0.604,0.6-0.824c0.082-0.179,0.114-0.265,0.367-0.433
			c1.045-0.714,2.188-1.733,2.718-3.908c0.538-2.265-0.225-3.999-0.979-5.712l-0.139-0.318c-0.657-1.469-0.869-2.016-0.648-2.729
			c0.184-0.592,1.269-2.383,2.06-3.692c0.646-1.065,1.253-2.073,1.547-2.669c0.8-1.55,1.285-3.565,1.469-4.908
			c0.065-0.388,0.143-0.489,0.143-0.489c0.045-0.032,0.225-0.082,0.437-0.135c0.232-0.069,1.086-0.257,2.158-0.498
			c1.897-0.424,4.496-1.003,5.741-1.362c1.812-0.514,4.442-0.861,6.115-0.963L379.723,269.957z M211.211,269.965
			c1.677,0.103,4.304,0.449,6.112,0.963c1.249,0.359,3.843,0.938,5.741,1.363c1.077,0.24,1.93,0.428,2.244,0.518
			c0.131,0.033,0.314,0.082,0.351,0.11c0,0,0.082,0.098,0.143,0.47c0.188,1.366,0.678,3.382,1.469,4.92
			c0.302,0.608,0.91,1.616,1.554,2.685c0.792,1.31,1.873,3.097,2.056,3.685c0.221,0.722,0.004,1.265-0.648,2.733l-0.159,0.355
			c-0.738,1.681-1.498,3.414-0.959,5.683c0.531,2.171,1.673,3.19,2.726,3.909c0.245,0.167,0.282,0.249,0.359,0.429
			c0.094,0.216,0.237,0.547,0.608,0.832c0.09,0.069,0.221,0.146,0.372,0.236c0.44,0.258,0.836,0.519,0.865,0.878
			c0.094,0.975-0.021,1.729-0.085,1.872c-0.522,0.734-0.412,1.718-0.041,2.42c0.176,0.33,0.417,0.779,0.417,1.673
			c0,0.448-0.045,1.146-0.086,1.905c-0.082,1.326-0.163,2.696-0.09,3.492c0.074,0.942,0.498,1.522,0.963,1.853l-0.139,1.525
			c-0.135,1.073,0.661,2.273,2.607,4.717c1.632,2.053,2.06,2.514,2.676,2.975c-0.049,0.326-0.057,0.849,0.379,1.375
			c0.294,0.351,0.751,0.689,1.191,1.016c0.265,0.196,0.665,0.494,0.722,0.551c0.033,0.077,0.041,0.167,0.061,0.262
			c0.098,0.489,0.261,1.313,1.122,1.986l0.351,0.266c0.44,0.33,1.354,1.016,1.46,1.228c0,0.502,0,0.56-0.534,0.873
			c-1.677,1.037-1.877,7.251-1.844,7.891c0.089,1.82,0.812,4.104,1.444,5.459c0.249,0.522,0.428,0.927,0.587,1.273
			c0.232,0.522,0.42,0.942,0.714,1.501c-0.024,0-0.053-0.004-0.082-0.008c-0.13-0.012-0.396-0.053-0.767-0.106
			c-1.624-0.24-5.006-0.734-8.49-0.864c-3.321-0.11-5.969-0.616-7.552-0.918c-0.743-0.144-1.252-0.229-1.481-0.229
			c-1.188,0-3.399,0-4.113-0.163c-0.184-0.045-0.49-0.114-0.49-0.931c0-0.314,0.025-0.918,0.057-1.664
			c0.082-2,0.192-4.741,0.049-6.255c-0.212-2.044-1.118-6.394-2.159-10.352c-0.657-2.501-1.771-7.058-2.652-10.652
			c-0.473-1.942-0.881-3.599-1.105-4.5c-0.379-1.522-1.477-5.022-2.444-8.115c-0.682-2.171-1.29-4.117-1.518-4.954l-0.147-0.534
			c-0.583-2.126-1.795-6.544-2.028-8.515c-0.139-1.09-0.347-3.231-0.555-5.39c-0.208-2.188-0.424-4.386-0.567-5.524
			c-0.278-2.424-1.22-4.606-1.539-5.341c-0.073-0.176-0.151-0.399-0.22-0.624c0.784-0.122,1.856-0.257,2.722-0.257L211.211,269.965z
			"/>
	</g>
</g>
<g>
</g>
<g>
</g>
<g>
</g>
<g>
</g>
<g>
</g>
<g>
</g>
<g>
</g>
<g>
</g>
<g>
</g>
<g>
</g>
<g>
</g>
<g>
</g>
<g>
</g>
<g>
</g>
<g>
</g>
</svg>
