<?xml version="1.0" encoding="iso-8859-1"?>
<!-- Generator: Adobe Illustrator 16.0.0, SVG Export Plug-In . SVG Version: 6.00 Build 0)  -->
<!DOCTYPE svg PUBLIC "-//W3C//DTD SVG 1.1//EN" "http://www.w3.org/Graphics/SVG/1.1/DTD/svg11.dtd">
<svg version="1.1" id="Capa_1" xmlns="http://www.w3.org/2000/svg" xmlns:xlink="http://www.w3.org/1999/xlink" x="0px" y="0px"
	 width="579.418px" height="579.419px" viewBox="0 0 579.418 579.419" style="enable-background:new 0 0 579.418 579.419;"
	 xml:space="preserve">
<g>
	<g>
		<path d="M484.194,477.802c0.131,0,0.281,0.017,0.522,0.225c1.105,0.955,2.158,1.881,3.121,2.729
			c4.178,3.688,5.214,4.558,6.479,4.558c0.76,0,1.579-0.485,1.931-1.15c0.71-1.33,0.64-2.109-5.386-11.021
			c-3.325-4.933-8.724-5.969-12.66-5.969c-2.897,0-5.39,0.559-6.655,1.04c-0.452,0.172-1.632,0.375-3.459,0.375
			c-3.109,0-5.578-0.566-6.104-0.967c-2.076-1.55-9.261-4.227-12.949-4.227c-0.551,0-1.021,0.053-1.448,0.171
			c-0.123,0.033-0.604,0.144-1.755,0.144c-3.803,0-8.58-1.086-9.837-2.244c-1.481-1.334-6.022-2.701-16.019-5.496
			c-4.516-1.265-10.591-2.966-12.293-3.79c-6.63-20.649-8.727-37.45-10.579-52.285c-1.403-11.261-2.619-20.983-5.524-30.151
			c-0.2-0.633-0.098-0.959,0.098-1.604c1.273-4.153,0.755-6.459-25.283-21.016c0.783-10.478,1.795-34.595,1.795-46.26
			c0-10.906-2.269-28.103-2.966-33.15c13.305-7.209,26.956-12.946,33.623-15.749c1.024-0.428,1.889-0.795,2.57-1.085
			c1.09,1.134,2.84,4.113,2.338,6.067c-2.407,9.36-3.402,44.33-3.786,64.342c-0.069,3.317,0.669,5.781,2.187,7.332
			c2.098,2.13,5.712,1.823,7.609-0.277c6.206,3.509,12.971,4.602,20.882,3.162c3.586-0.657,5.65-1.118,6.295-2.905
			c4.66-0.086,9.698-1.771,12.437-2.681c0.362-0.118,0.551-0.131,0.645-0.131c0.065,0.024,0.249,0.172,0.383,0.277
			c0.886,0.686,2.812,1.836,6.063,0.854c2.142-0.649,3.888-0.914,5.161-1.11c1.648-0.253,3.203-0.493,3.513-2.15
			c0.311-1.673-1.188-2.533-2.085-3.048c-0.571-0.326-1.171-0.534-1.754-0.673c2.835-1.244,8.796-1.317,13.312,0.751
			c0.429,0.195,0.669,0.384,0.73,0.433c0.392,0.351,0.955,0.616,1.461,0.616c0.004,0,0.008,0,0.012,0
			c0.849-0.005,1.604-0.535,1.897-1.33c0.273-0.734,0.013-1.637-0.53-2.212c-0.139-0.155-1.045-1.199-2.668-4.223
			c-1.526-2.827-3.122-3.929-5.688-3.929l-1.828,0.04c-0.449,0-0.946-0.02-1.51-0.094c-7.059-0.938-8.809,0.804-12.33,3.815
			c-0.347,0.298-0.714,0.611-1.109,0.946c-3.986-0.897-9.805,0.494-15.871,2.089c-7.78,2.044-16.227,3.799-21.065,1.347
			c-0.706-8.87-0.767-35.427,1.624-58.255c0.689-6.54-4.606-13.019-8.857-18.226c-0.906-1.105-1.763-2.15-2.48-3.117
			c-0.976-1.29-2.673-1.918-5.19-1.918c-5.83,0-16.234,3.387-25.414,6.373c-5.206,1.697-10.567,3.439-13.488,3.954
			c-0.44-1.668-0.768-3.187-1.065-4.582c-1.109-5.186-2.003-9.359-7.348-13.178c1.302-3.603,1.257-6.136,0.995-9.78l-1.799-9.694
			c15.047-13.301,23.97-22.742,21.894-38.674c-1.881-14.203-19.527-50.192-25.729-62.159c3.043-1.705,5.499-2.929,7.368-3.855
			c3.382-1.681,4.912-2.444,4.981-4.056c17.394-8.666,17.267-9.551,17.01-11.412c-0.013-0.078-0.024-0.151-0.041-0.22
			c17.242-10.71,18.005-11.506,17.825-13.252c14.651-10.804,16.219-12.016,15.966-13.46c5.748-5.051,10.562-8.258,13.537-10.241
			c3.174-2.118,4.582-3.056,4.316-4.725c6.553-4.941,10.665-7.703,13.211-9.413c3.138-2.101,4.08-2.733,3.896-4.325
			c-0.008-0.078-0.021-0.147-0.036-0.22c7.764-6.948,12.66-9.857,15.083-11.298c1.416-0.84,2.44-1.448,2.689-2.489
			c11.604-4.59,12.774-5.83,12.831-7.401c3.379-2.175,8.083-4.59,11.873-5.541c3.9-0.976,5.753-2.489,5.504-4.504
			c-0.077-0.632-0.686-2.803-4.541-2.489c-3.272,0.241-6.36,1.24-15.149,6.263c-0.338-0.155-0.718-0.237-1.122-0.237
			c-2.606,0-8.584,4.149-12.619,7.414c-0.302-0.126-0.612-0.204-0.886-0.204c-2.357,0-6.229,3.9-7.784,5.569
			c-0.787,0.844-1.477,1.624-2.142,2.375c-2.102,2.371-3.807,4.296-7.613,7.12c-0.229-0.074-0.453-0.114-0.653-0.114
			c-2.248,0-5.467,3.382-6.605,5.1c-0.028,0.041-2.554,3.729-9.996,8.694c-2.709-1.314-5.605,2.681-6.577,4.635
			c-0.991,2.003-2.269,3.056-4.802,5.145c-1.546,1.277-3.562,2.938-6.157,5.369c-2.28-0.461-4.725,2.815-5.561,4.48
			c-0.718,1.428-3.823,3.79-7.409,6.528c-0.918,0.698-1.894,1.444-2.922,2.24c-0.42-0.241-0.905-0.4-1.28-0.4
			c-2.347,0-5.06,3.289-6.002,4.875c-1.424,2.375-3.701,4.019-9.801,8.409l-0.877,0.632c-1.595-0.983-4.084-0.057-5.618,2.244
			c-1.089,1.62-5.703,5.369-10.86,8.878c-0.445-0.359-1.013-0.559-1.62-0.559c-2.362,0-5.643,3.464-6.936,4.953
			c-0.511,0.583-1.375,1.301-2.388,2.064c1.408-11.759,6.12-29.592,8.585-36.063c1.358-1.844,3.329-3.606,4.929-5.035
			c1.199-1.073,2.146-1.921,2.754-2.701c1.521-1.991,2.432-3.333,1.913-4.696c0.935-0.755,1.738-1.342,2.366-1.799
			c1.563-1.134,2.795-2.032,2.358-3.664c-0.126-0.494-0.375-0.857-0.693-1.13c0.779-1.571,1.338-3.472,1.15-5.561
			c-0.473-4.843-4.41-9.38-4.577-9.572c-0.641-0.73-1.702-0.906-2.542-0.424c-0.845,0.481-1.229,1.494-0.931,2.416
			c0.013,0.037,0.918,2.88,0.143,6.671c-0.322-0.147-0.685-0.233-1.089-0.233c-2.008,0-3.089,1.75-4.599,6.169
			c-0.326-0.155-0.681-0.241-1.081-0.241c-1.982,0-2.619,1.864-3.419,4.219c-0.232,0.677-0.502,1.464-0.828,2.346
			c-1.167,3.109-2.036,3.974-2.803,4.737c-1.22,1.22-2.077,2.281-2.648,5.573c-4.937,10.355-7.723,32.424-8.058,44.207
			c-0.004,0.114,0.008,0.224,0.028,0.334c-0.036,0.139-0.069,0.277-0.094,0.42c-0.367-0.196-0.791-0.298-1.252-0.298
			c-2.135,0-5.758,2.729-7.916,4.512c-1.375,1.134-3.994,3.301-7.58,5.027c-0.421-0.273-0.927-0.453-1.354-0.453
			c-1.673,0-4.239,1.559-14.521,8.993c-0.334-0.159-0.697-0.257-1.003-0.257c-2.542,0-6.487,4.61-7.251,5.537
			c-2.766,3.35-5.36,4.207-8.074,4.459c-3.052-0.253-5.655-1.11-8.429-4.463c-0.763-0.926-4.705-5.533-7.263-5.533
			c-0.306,0-0.673,0.098-1.012,0.257c-10.123-7.349-12.819-8.993-14.504-8.993c-0.428,0-0.938,0.175-1.358,0.453
			c-3.607-1.738-6.239-3.933-7.752-5.19c-2.419-1.987-5.72-4.354-7.735-4.354c-0.449,0-0.865,0.098-1.228,0.29
			c-0.106-0.583-0.257-1.11-0.457-1.612c-0.465-12.203-3.228-33.33-8.021-43.346c-0.579-3.285-1.436-4.345-2.656-5.565
			c-0.767-0.763-1.632-1.624-2.791-4.741c-0.322-0.861-0.591-1.632-0.816-2.301c-0.845-2.472-1.457-4.264-3.448-4.264
			c-0.396,0-0.755,0.086-1.081,0.241c-1.526-4.418-2.607-6.169-4.594-6.169c-0.404,0-0.763,0.086-1.085,0.232
			c-0.767-3.79,0.13-6.63,0.143-6.658c0.31-0.922-0.069-1.934-0.91-2.424c-0.849-0.489-1.914-0.318-2.554,0.42
			c-0.171,0.188-4.121,4.729-4.59,9.588c-0.188,2.077,0.371,3.974,1.154,5.541c-0.322,0.273-0.575,0.641-0.706,1.139
			c-0.433,1.632,0.804,2.534,2.366,3.672c0.628,0.457,1.44,1.044,2.371,1.795c-0.514,1.358,0.4,2.705,1.926,4.692
			c0.596,0.775,1.55,1.632,2.758,2.713c1.591,1.428,3.558,3.187,4.908,5.022c2.427,6.3,7.083,23.86,8.547,35.773
			c-0.849-0.652-1.567-1.265-2.016-1.774c-1.297-1.489-4.578-4.953-6.936-4.953c-0.608,0-1.175,0.2-1.62,0.559
			c-5.161-3.5-9.775-7.246-10.861-8.874c-1.538-2.309-4.039-3.231-5.618-2.244l-1.008-0.73c-6.018-4.333-8.266-5.957-9.666-8.311
			c-1.122-1.885-3.746-4.879-6.001-4.879c-0.486,0-0.943,0.13-1.33,0.367c-1.032-0.8-2.016-1.55-2.938-2.252
			c-3.558-2.717-6.634-5.063-7.34-6.479c-0.836-1.668-3.251-4.981-5.582-4.484c-2.574-2.411-4.578-4.068-6.112-5.341
			c-2.546-2.109-3.827-3.166-4.834-5.182c-0.849-1.705-3.35-4.896-5.569-4.896c-0.314,0-0.686,0.102-1.028,0.265
			c-7.491-5.002-9.947-8.646-9.971-8.686c-1.146-1.726-4.366-5.108-6.626-5.108c-0.2,0-0.424,0.041-0.649,0.114
			c-3.762-2.803-5.524-4.777-7.527-7.03c-0.694-0.779-1.416-1.591-2.236-2.456c-1.559-1.677-5.431-5.573-7.777-5.573
			c-0.269,0-0.583,0.078-0.885,0.204c-4.043-3.268-10.029-7.414-12.632-7.414c-0.408,0-0.787,0.082-1.122,0.233
			c-8.784-5.019-11.865-6.018-15.125-6.263c-4.003-0.306-4.476,1.861-4.549,2.493c-0.249,2.015,1.604,3.533,5.496,4.5
			c3.753,0.942,8.466,3.354,11.881,5.533c0.041,1.571,1.208,2.815,12.836,7.413c0.253,1.041,1.273,1.648,2.688,2.489
			c2.424,1.444,7.312,4.35,15.063,11.298c-0.016,0.069-0.028,0.143-0.037,0.22c-0.184,1.591,0.767,2.224,3.9,4.329
			c2.546,1.709,6.663,4.472,13.219,9.412c-0.261,1.661,1.143,2.599,4.309,4.705c2.978,1.983,7.792,5.186,13.549,10.249
			c-0.261,1.453,1.277,2.644,15.957,13.468c-0.175,1.747,0.592,2.542,17.83,13.256c-0.016,0.069-0.028,0.143-0.041,0.216
			c-0.257,1.86-0.384,2.746,17.014,11.412c0.069,1.616,1.599,2.379,4.985,4.064c1.865,0.926,4.321,2.146,7.356,3.852
			c-6.206,11.975-23.86,47.977-25.725,62.159c-2.093,15.916,6.83,25.361,21.881,38.674l-1.848,9.947
			c-0.208,3.447-0.241,5.957,1.064,9.531c-5.336,3.802-6.23,7.96-7.34,13.117c-0.306,1.416-0.636,2.958-1.093,4.659
			c-2.84-0.498-8.246-2.26-13.501-3.97c-9.176-2.987-19.576-6.373-25.398-6.373c-2.517,0-4.214,0.628-5.186,1.922
			c-0.714,0.946-1.562,1.979-2.456,3.076c-4.268,5.214-9.58,11.706-8.903,18.266c2.399,22.779,2.35,49.152,1.652,58.125
			c-1.991,0.787-4.288,1.175-6.98,1.175c-5.076,0-10.6-1.362-15.937-2.681c-6.067-1.497-11.84-2.803-15.818-2.032
			c-0.383-0.347-0.743-0.677-1.077-0.987c-3.386-3.112-5.186-4.944-12.203-4.251c-1,0.098-1.791,0.032-2.473-0.017
			c-3.166-0.236-4.879,0.588-6.671,3.672c-1.701,2.93-2.644,3.95-2.799,4.104c-0.575,0.567-0.877,1.489-0.612,2.24
			c0.286,0.816,1.061,1.363,1.926,1.363c0.004,0,0.008,0,0.008,0c0.469,0,1.02-0.253,1.407-0.571c0.065-0.049,0.306-0.221,0.747-0.4
			c4.585-1.917,10.534-1.615,13.305-0.277c-0.583,0.118-1.188,0.302-1.771,0.604c-0.918,0.49-2.452,1.306-2.195,2.987
			c0.253,1.664,1.791,1.954,3.423,2.269c1.269,0.24,3.003,0.571,5.137,1.297c3.174,1.081,5.189,0.021,6.091-0.637
			c0.139-0.102,0.326-0.24,0.408-0.261c0.065,0,0.253,0.013,0.628,0.155c2.958,1.094,7.756,2.868,12.33,3.121
			c0.583,1.795,2.627,2.33,6.185,3.121l0.473,0.106c2.069,0.457,4.647,1.023,7.752,1.023c5.117,0,10.086-1.562,15.125-4.765
			c1.893,2.039,5.451,2.317,7.519,0.212c1.522-1.547,2.26-4.015,2.199-7.336c-0.383-20.009-1.379-54.975-3.774-64.33
			c-0.506-2.016,1.371-5.116,2.269-6.116c0.677,0.29,1.546,0.657,2.583,1.093c6.667,2.803,20.327,8.543,33.705,15.782
			c-0.71,5.051-3.007,22.248-3.007,33.15c0,12.216,1.094,36.374,1.82,46.26c-26.034,14.557-26.561,16.862-25.292,21.012
			c0.196,0.648,0.294,0.971,0.094,1.604c-2.917,9.232-4.002,18.344-5.263,28.891c-1.787,15.026-3.823,32.052-11.685,54.79
			c-1.844,3.284-10.318,6.026-15.924,7.838c-4.435,1.436-6.805,2.231-7.968,3.305c-1.265,1.171-6.067,2.272-9.89,2.272
			c-1.114,0-1.587-0.106-1.722-0.143c-0.412-0.106-0.869-0.163-1.396-0.163c-3.635,0-10.947,2.745-12.975,4.283
			c-0.53,0.408-3.06,0.992-6.238,0.992c-1.758,0-2.884-0.192-3.317-0.355c-1.326-0.506-3.864-1.012-6.548-1.012
			c-3.974,0-9.404,1.045-12.705,6.014c-6.018,8.968-6.075,9.69-5.357,11.045c0.355,0.665,1.175,1.146,1.93,1.146
			c1.261,0,2.285-0.865,6.414-4.545c0.967-0.861,2.028-1.804,3.146-2.771c0.245-0.212,0.4-0.232,0.534-0.232
			c0.526,0,1.363,0.396,2.167,0.779c0.212,0.098,0.424,0.2,0.645,0.302c-0.849,0.686-1.465,1.44-1.118,2.628
			c0.433,1.473,1.873,1.562,2.64,1.611c0.559,0.036,1.42,0.086,2.546,0.322c1.012,0.212,2.081,0.322,3.166,0.322
			c5.271,0,10.388-2.407,13.693-6.446c0.338-0.421,0.453-0.421,0.628-0.421c0.392,0,1.02,0.147,1.754,0.314
			c0.465,0.106,0.975,0.229,1.534,0.339c3.472,0.689,9.596-0.612,14.667-3.113c2.073-1.02,4.362-1.534,6.797-1.534
			c1.461,0,2.722,0.18,3.656,0.335c3.382,0.567,4.949-0.277,9.764-3.044l1.774-1.02c4.26-2.456,9.086-5.243,14.207-6.81
			c0.477-0.147,0.979-0.253,1.489-0.363c4.492-0.979,8.613-2.722,9.772-13.113c2.154-19.526,8.27-61.62,12.023-73.827
			c2.795-1.657,4.786-3.121,6.716-4.537c1.718-1.261,3.366-2.469,5.524-3.791c6.161,124.832,12.946,140.671,25.173,169.219
			c11.09,25.892,24.586,40.151,38.009,40.151c4.961,0,9.747-1.971,14.251-5.859c4.505,3.889,9.286,5.859,14.24,5.859
			c13.395,0,26.891-14.26,37.997-40.151c12.235-28.54,19.024-44.374,25.165-169.223c2.158,1.318,3.807,2.525,5.517,3.782
			c1.938,1.424,3.933,2.889,6.739,4.55c3.677,12.011,10.735,56.071,13.048,76.924c1.028,9.091,6.373,10.139,10.298,10.139
			c0.592,0,1.176-0.021,1.747-0.045c1.171-0.045,2.264-0.053,2.745,0.09c1.767,0.535,3.399,0.963,4.945,1.371
			c3.66,0.959,6.821,1.787,10.069,3.64c5.002,2.819,6.479,3.562,9.764,2.986c0.946-0.159,2.228-0.339,3.696-0.339
			c2.432,0,4.708,0.51,6.777,1.526c5.051,2.456,11.122,3.766,14.695,3.043c0.547-0.114,1.041-0.232,1.494-0.338
			c0.75-0.18,1.395-0.339,1.787-0.339c0.175,0,0.289,0,0.632,0.42c3.288,3.994,8.396,6.382,13.66,6.382
			c1.105,0,2.187-0.11,3.219-0.331c1.126-0.24,1.983-0.294,2.542-0.334c0.767-0.05,2.207-0.147,2.632-1.62
			c0.343-1.188-0.277-1.938-1.131-2.619c0.225-0.103,0.437-0.208,0.649-0.311C482.835,478.206,483.667,477.802,484.194,477.802z
			 M324.948,123.286c3.904-1.979,7.164-3.439,9.665-4.562c2.261-1.012,3.807-1.701,4.803-2.342
			c1.228,3.411,3.198,7.495,5.793,12.856c3.93,8.119,9.307,19.241,15.08,34.55l0.514,1.367c2.044,5.41,3.518,9.318,3.558,9.926
			c-0.24,0.151-1.212,0.339-1.737,0.437c-6.251,1.204-9.115,4.68-13.448,9.943c-0.697,0.844-1.437,1.742-2.244,2.692
			c-8.458-17.438-22.999-24.063-28.201-25.953c1.286-9.042-0.452-11.583-5.312-17.107c-2.297-2.611-2.562-3.86-2.758-4.77
			c-0.339-1.595-0.874-2.562-2.632-3.549c0.918-1.298,1.962-2.616,2.958-3.48c0.485-0.424,0.804-1.11,0.795-1.767
			c3.673-2.909,7.532-4.305,9.776-5.112c1.954-0.702,3.488-1.261,3.391-3.044C324.952,123.347,324.948,123.319,324.948,123.286z
			 M256.615,126.424c2.24,0.812,6.083,2.207,9.771,5.112c-0.008,0.657,0.306,1.338,0.795,1.763c0.992,0.865,2.036,2.183,2.95,3.477
			c-1.762,0.987-2.297,1.958-2.635,3.558c-0.196,0.91-0.457,2.158-2.889,4.929c-4.721,5.369-6.455,7.903-5.186,16.944
			c-5.194,1.889-19.718,8.527-28.201,25.949c-0.804-0.951-1.542-1.853-2.236-2.693c-4.321-5.263-7.173-8.735-13.419-9.943
			c-0.379-0.069-1-0.188-1.326-0.188c-0.126,0-0.212,0.017-0.22,0.065c-0.18-0.926,1.301-4.835,3.35-10.245l0.514-1.358
			c5.793-15.361,11.187-26.504,15.128-34.635c2.493-5.157,4.504-9.302,5.757-12.762c1,0.641,2.546,1.334,4.806,2.342
			c2.497,1.118,5.753,2.579,9.658,4.558c0,0.033-0.004,0.061-0.004,0.094C253.131,125.159,254.669,125.718,256.615,126.424z"/>
	</g>
</g>
<g>
</g>
<g>
</g>
<g>
</g>
<g>
</g>
<g>
</g>
<g>
</g>
<g>
</g>
<g>
</g>
<g>
</g>
<g>
</g>
<g>
</g>
<g>
</g>
<g>
</g>
<g>
</g>
<g>
</g>
</svg>
