<?xml version="1.0" encoding="iso-8859-1"?>
<!-- Generator: Adobe Illustrator 16.0.0, SVG Export Plug-In . SVG Version: 6.00 Build 0)  -->
<!DOCTYPE svg PUBLIC "-//W3C//DTD SVG 1.1//EN" "http://www.w3.org/Graphics/SVG/1.1/DTD/svg11.dtd">
<svg version="1.1" id="Capa_1" xmlns="http://www.w3.org/2000/svg" xmlns:xlink="http://www.w3.org/1999/xlink" x="0px" y="0px"
	 width="584.183px" height="584.183px" viewBox="0 0 584.183 584.183" style="enable-background:new 0 0 584.183 584.183;"
	 xml:space="preserve">
<g>
	<g>
		<path d="M65.761,183.673c-0.759,1.628,1.387,4.366,2.061,5.165c7.148,8.523,9.694,13.452,11.869,18.148
			c1.852,4.039,7.482,16.324,33.138,40.376c24.565,23.056,84.317,72.057,101.017,84.513c2.693,2.016,5.161,3.852,7.446,5.549
			c14.758,10.972,21.494,15.981,30.458,26.414c4.333,5.043,8.519,10.225,12.566,15.234c9.841,12.191,18.344,22.718,24.203,25.056
			c8.152,3.272,13.375,6.622,16.435,10.547c4.998,6.401,16.483,11.864,22.664,12.122c2.729,0.102,4.876,0.13,6.65,0.154
			c6.695,0.086,7.903,0.103,15.831,4.108c0.6,0.303,1.493,1.135,1.909,1.783c2.909,4.509,6.769,7.838,11.465,9.891
			c4.198,1.84,6.312,2.565,8.181,3.211c0.094,0.032,0.191,0.064,0.285,0.098c-7.291,0.869-15.382,2.493-23.235,4.067
			c-5.985,1.2-11.641,2.334-16.684,3.089c-2.644,0.392-4.357,0.616-5.504,0.767c-2.391,0.318-2.537,0.339-3.346,0.873
			c-0.538,0.359-1.66,1.11-5.892,2.856c-10.102,4.166-32.934,14.859-40.788,18.964c-0.628,0.33-1.767,0.579-2.44,0.478
			c-1.869-0.262-4.162-0.702-6.585-1.176c-5.377-1.04-12.068-2.337-17.931-2.337c-6.716,0-11.224,1.668-13.778,5.1
			c-0.661,0.89-0.428,1.591-0.298,1.853c0.343,0.681,1.187,0.971,2.125,0.686c0.963-0.286,1.828-0.58,2.644-0.849
			c2.338-0.784,4.182-1.404,6.862-1.404c2.762,0,6.324,0.682,11.216,2.143l0.632,0.188c5.23,1.542,10.175,3.003,13.79,3.08
			c0.49,0.009,0.996,0.363,1.171,0.824c0.167,0.433,0.673,1.755,1.909,1.755c0.853,0,1.616-0.641,2.681-1.845
			c0.073,0.069,0.147,0.135,0.192,0.184c0.4,0.392,0.918,0.596,1.489,0.596c1.526,0,3.219-1.469,4.415-3.827
			c0.437-0.849,1.052-1.346,1.293-1.231c0.469,0.652,1.02,0.983,1.636,0.983c1.188,0,2.118-1.139,3.819-3.55
			c0.094-0.131,0.163-0.208,0.184-0.249c0.082,0.041,0.192,0.106,0.282,0.159c0.42,0.249,0.991,0.587,1.779,0.587
			c1.241,0,2.505-0.864,3.978-2.721c0.783-0.976,1.09-1.09,1.041-1c0.253,0.192,0.681,0.519,1.313,0.519
			c0.995,0,1.971-0.759,3.484-2.693c0.318-0.407,0.841-1.072,1.338-1.688c0.237,0.412,0.689,0.75,1.42,0.75
			c0.833,0,2.55-0.42,7.821-4.026c1.538-1.061,3.587-1.632,5.569-2.188c2.432-0.677,4.725-1.317,6.088-2.852
			c0.607-0.686,1.497-0.983,2.966-0.983c0.718,0,1.469,0.069,2.224,0.135c1.31,0.118,2.619,0.225,3.811,0.058
			c1.95-0.27,13.513-1.208,21.935-1.869c-7.304,2.068-12.167,3.284-13.244,3.288c-0.53,0-0.983-0.032-1.403-0.064
			c-1.918-0.135-3.28-0.176-6.993,1.868c-2.941,1.628-3.954,1.853-4.933,2.064c-0.511,0.11-1.008,0.221-1.689,0.474
			c-0.522,0.199-1.049,0.44-1.261,0.975l-0.098,0.58c-0.273,0.188-0.845,0.525-2.032,1.072
			c-9.086,4.174-27.238,20.204-39.703,33.162c-2.991,3.105-3.807,3.183-6.846,3.473c-0.669,0.065-1.432,0.135-2.318,0.249
			c-1.383,0.163-3.362,0.289-5.667,0.433c-6.263,0.396-14.835,0.938-20.649,2.807c-5.263,1.681-5.691,3.035-5.553,3.908
			c0.065,0.408,0.408,1.351,2.24,1.351c0.979,0,2.244-0.265,3.558-0.742c2.917-1.065,10.575-1.277,16.728-1.444
			c3.672-0.102,7.14-0.196,9.245-0.453c3.031-0.375,3.909-0.146,4.843,0.147c0.657,0.204,1.396,0.432,2.836,0.432l0.677-0.008
			c0.677,0,1.24,0.041,1.722,0.077c2.525,0.184,3.423-0.277,4.402-2.664l0.388-0.975c0.889-2.252,1.256-3.183,2.905-3.811
			c2.036-0.8,3.174-2.551,4.558-4.668c0.232-0.359,0.958-0.645,1.685-0.665c2.534-0.069,3.582-2.256,4.276-4.382
			c0.139-0.429,0.738-0.938,1.484-1.269c1.722-0.755,2.828-2.387,3.995-4.117c0.815-1.203,1.656-2.452,2.501-3.329
			c0.057,0.017,0.216,0.102,0.33,0.167c0.29,0.159,0.648,0.355,1.105,0.453l0.326,0.037c1.241,0,2.302-1.216,4.872-5.741
			c0.298,0.188,0.648,0.286,1.028,0.286c1.705,0,3.619-1.881,4.26-4.19c0.555-1.991,2.974-3.415,4.521-3.525
			c0.298,0,0.628,0.049,0.967,0.094c0.775,0.11,1.566,0.172,2.15,0.024c1.705-0.424,4.263-1.183,6.735-2.362
			c0.665-0.318,1.91-0.641,2.799-0.791c8.507-1.473,49.372-12.452,54.697-17.924c1.587-1.636,2.627-2.9,3.39-3.827
			c1.474-1.795,1.738-2.121,3.122-2.121c0.469,0,1.027,0.045,1.722,0.126c0.416,0.045,0.469,0.184,0.506,0.266
			c0.701,1.714-3.036,8.915-11.539,19.359c-6.939,8.56-12.452,18.173-15.12,26.373c-1.338,4.149-1.787,6.21,1.587,11.616
			c1.624,2.627,4.521,9.983,7.319,17.095c2.354,5.981,4.786,12.163,6.749,16.32c0.392,0.836,1.098,1.894,1.57,2.199
			c0.078,0.122,0.192,0.616,0.131,1.216c-1.583,14.786-1.489,21.334,0.351,25.002c0.188,0.563-0.298,3.607-1.881,5.802
			c-0.959,1.334-1.946,1.983-3.198,1.84c-1.057-0.094-1.869-0.143-2.469-0.143c-0.661,0-1.889,0-2.231,0.987
			c-0.371,1.069,0.697,1.91,2.187,3.085c1.077,0.836,2.636,1.016,3.75,1.016c1.542,0,3.063-0.326,3.876-0.832
			c3.202-1.995,5.1-10.824,5.177-14.799c0.024-1.31-0.102-3.569-0.248-6.181c-0.262-4.721-0.625-11.184-0.278-15.757
			c0.033-0.433,0.547-1.036,1.167-1.375c0.849-0.461,1.294-1.069,1.335-1.808c0.057-1.044-0.727-2.052-2.624-3.554
			c0-0.302-0.004-0.763-0.225-1.285c-0.399-0.955-1.428-1.905-2.391-2.647c0.073-0.192,0.135-0.429,0.155-0.723
			c0.062-0.91-0.641-1.971-2.117-3.35c0.069-0.311,0.184-0.832-0.021-1.465c-0.184-0.571-0.657-1.228-1.641-2.252
			c0.775-0.339,1.053-0.861,1.146-1.249c0.277-1.158-0.71-2.235-1.962-3.598c-0.363-0.4-0.755-0.82-1.171-1.326
			c0.004,0,0.004,0,0.008-0.004c0.901-0.229,1.452-0.67,1.632-1.311c0.311-1.102-0.633-2.064-1.726-3.182l-0.563-0.58
			c-0.89-0.926-2.052-2.9-3.398-5.189c-0.983-1.669-2.085-3.541-3.387-5.545c0.09-0.061,0.192-0.126,0.29-0.191
			c1.347-0.882,1.701-2.763,1.347-4.19c-0.302-1.077-0.086-1.272,0.551-1.856c0.967-0.885,2.26-3.162,2.072-4.937
			c-0.086-0.983,0.147-1.444,1.049-2.072c1.265-0.894,2.55-2.216,2.754-5.235c1.461-0.208,3.109-2.203,6.736-6.748
			c1.297-1.628,2.803-3.513,4.496-5.496c-1.971,3.722-4.933,8.605-7.646,13.068c-4.088,6.736-7.621,12.555-8.07,14.692
			c-0.085,0.399-0.167,0.71-0.244,0.946c-0.322,1.016-0.367,1.832-0.131,2.501c0.09,0.266,0.2,0.596,0.331,1.004
			c1.542,4.855,16.928,28.891,23.492,37.234c0.506,0.641,1.317,1.321,2.109,1.55c0.008,0.127,0.008,0.311-0.008,0.567
			c-0.4,5.854,4.088,18.936,6.63,22.122c0.265,0.334,0.559,0.579,0.812,0.791c0.367,0.307,0.51,0.437,0.543,0.625
			c1.032,5.598,0.559,10.579-1.204,12.696c-0.705,0.849-1.611,1.265-2.762,1.265l-0.44-0.012c-0.258,0-0.466,0.032-0.649,0.102
			c-0.457,0.172-0.755,0.584-0.755,1.053c0,1.358,2.583,1.963,3.562,1.963l0.322-0.013c5.353-0.506,7.323-2.354,8.106-7.63
			c1.037-7.38-3.357-18.082-7.233-27.523c-0.816-1.986-1.604-3.9-2.293-5.65c0.013-0.073,0.146-0.27,0.232-0.404
			c0.208-0.322,0.474-0.722,0.588-1.261c0.269-1.231-0.771-2.771-3.656-5.349c0.009-0.017,0.021-0.032,0.029-0.049
			c0.089-0.143,0.188-0.302,0.285-0.481c0.225-0.408,0.253-0.886,0.086-1.351c-0.416-1.158-2.004-2.064-3.203-2.619
			c0.27-0.42,0.371-0.918,0.29-1.437c-0.176-1.098-1.191-2.28-2.714-3.166c-0.126-0.077-0.167-0.151-0.306-0.579
			c-0.098-0.307-0.225-0.689-0.478-1.09c-0.261-0.412-0.669-0.86-1.248-1.574c0.069-0.307,0.171-0.764,0.065-1.326
			c-0.318-1.686-2.828-3.537-3.509-4.125c0.049-0.257,0.118-0.612,0.09-1.049c-0.058-0.946-0.845-1.803-2.388-3.431
			c0.147-0.307,0.343-0.784,0.241-1.433c-0.106-0.686-0.628-1.444-1.701-2.448c0.012-0.021,0.024-0.045,0.041-0.069
			c0.089-0.159,0.191-0.338,0.289-0.547c0.608-1.289-0.828-2.19-2.076-2.917c0.053-0.11,0.118-0.244,0.188-0.388
			c0.371-0.75,0.399-1.681,0.077-2.55c-0.371-1.012-1.167-1.868-2.26-2.452c0.57-0.624,0.95-1.432,1.085-2.313l-1.008-0.154
			l1.22-0.024c0.245-0.144,0.584-0.335,0.922-0.69c0.575-0.607,0.792-1.644,0.747-3.614c0.008,0,0.021-0.004,0.037-0.009
			c0.236-0.077,0.501-0.163,0.787-0.31c1.004-0.51,1.028-1.815,1.04-2.265c0.017-0.049,0.184-0.208,0.277-0.294
			c0.314-0.298,0.743-0.701,0.923-1.391c0.134-0.522,0.102-1.171,0.069-1.987c-0.013-0.245-0.025-0.51-0.029-0.82
			c0.127-0.012,0.253-0.032,0.384-0.061c1.212-0.262,1.611-1.771,1.958-4.644c0.18-1.493,3.864-7.96,6.369-11.171
			c2.619-3.398,3.121-4.206,3.497-9.4c0.379-5.345,4.116-11.742,7.715-17.299c1.085-1.669,1.889-2.559,2.456-3.027
			c-0.069,0.114-0.135,0.236-0.2,0.367c-2.391,4.757-2.415,5.732-2.725,17.711l-0.054,2.061c-0.061,2.448-0.485,4.578-1.02,7.274
			c-0.792,3.994-1.779,8.964-1.987,17.295c-0.294,10.894,0.927,11.877,7.911,12.502c1.693,0.154,3.803,0.342,6.353,0.808
			c3.228,0.587,12.733,3.929,18.074,6.018c0.861,0.335,2.31,0.788,3.31,0.967c3.704,0.657,5.813,0.747,9.188,0.314
			c0.62-0.086,1.73-0.33,2.143-1.061l0.094-0.217c0.131-0.04,0.322-0.085,0.562-0.114l2.064-0.248
			c1.693-0.204,2.049-0.768,2.167-0.983c0.139-0.021,0.33-0.041,0.575-0.041l0.763-0.004c2.293,0,4.631,0.159,6.308,1.411
			c2.004,1.534,5.035,3.855,5.194,5.925c0.053,0.681-0.221,1.325-0.845,1.982c-0.51,0.543-1.016,1.53-0.526,3.138
			c0.302,0.995,1.028,1.347,1.615,1.347c0.641,0,1.253-0.388,1.689-1.062c0.404-0.624,0.849-1.187,1.273-1.718
			c1.697-2.125,3.614-4.528-0.065-8.556l-0.38-0.416c-4.141-4.533-5.691-6.23-12.289-6.598c-1.469-0.077-2.807-0.212-3.953-0.338
			c-0.515-0.058-1.045-0.481-1.143-0.796c-0.379-1.24-1.808-1.791-3.228-1.22c-1.718,0.689-4.153,1.068-6.846,1.068
			c-5.349,0-9.229-1.42-9.474-2.154c-0.135-0.44-0.539-1.778-1.845-1.778c-0.379,0-0.718,0.114-1.077,0.24
			c-0.885,0.298-1.975,0.466-3.558-0.351l-5.609-2.395c-0.601-0.253-1.429-0.27-2.285-0.184c-0.249,0.021-0.481,0.04-0.91,0.036
			c-0.416-0.032-1.04-0.591-1.342-1.191c-0.213-0.428-0.457-0.812-0.771-1.211c-0.306-0.388-0.229-1.155-0.135-1.845
			c0.167-1.199-0.163-2.717-0.89-4.157c-0.065-0.127-0.085-0.167,0.253-0.768l0.258-0.477c0.497-0.979,0.143-2.354-1.212-4.737
			c-2.448-4.301-1.845-9.299-1.478-12.321c0.123-1.146,1.062-3.195,1.963-5.174c0.86-1.893,1.759-3.848,2.121-5.382
			c0.065-0.281,0.119-0.604,0.172-0.946c0.979,2.697,1.999,5.345,3.027,8.018c1.081,2.803,2.171,5.63,3.231,8.571
			c0.579,1.563,2.154,6.68,3.198,10.065c0.556,1.804,0.979,3.175,1.073,3.428c2.465,6.259,4.321,8.809,6.401,8.809
			c0.421,0,0.828-0.11,1.208-0.33c3.619-2.061,8.621-2.338,13.035-2.338c1.946,0,3.945,0.061,5.957,0.122
			c2.064,0.065,4.142,0.126,6.186,0.126c4.953,0,8.523-0.392,11.575-1.269c0.656-0.188,1.901-0.326,2.839-0.384l0.918,0.05
			c0.217,0.012,0.4,0.016,0.547,0.016c0.27,0,1.102,0,1.384-0.75c0.057-0.147,0.09-0.331,0.061-0.535
			c0.327,0.024,0.845,0.118,1.628,0.388c1.371,0.474,2.195,0.151,2.485-0.188l0.175-0.261c0.139,0,0.294,0.016,0.457,0.045
			c1.105,0.188,2.379,0.354,3.66,0.521c2.305,0.302,4.691,0.616,6.111,1.053c0.857,0.253,1.489,0.384,1.959,0.481
			c0.298,0.062,0.632,0.131,0.693,0.163c0.065,0.078,0.171,0.367,0.314,0.861l0.179,0.641c0.478,1.705,0.82,2.938,2.118,3.949
			c1.302,1.04,1.697,1.354,2.256,1.354l0.567-0.036l0.306-0.376c0.404-0.493,0.298-1.02,0.086-2.064
			c-0.098-0.485-0.225-1.114-0.339-1.889c-0.18-1.232-0.253-2.203-0.31-2.982c-0.257-3.521-0.869-4.076-5.443-4.929
			c-1.656-0.302-3.476-0.6-5.296-0.902c-2.443-0.403-4.883-0.804-6.907-1.211c-0.448-0.09-0.93-0.616-0.995-1.18
			c-0.229-1.938-1.93-2.203-3.097-1.354c-1.824,1.322-3.056,1.995-3.66,1.995c-0.11,0-0.289,0-0.587-0.746
			c-0.352-0.882-1.021-1.408-1.8-1.408c-0.371,0-0.93,0.122-1.489,0.706c-0.551,0.575-1.848,1.922-2.677,1.982
			c-0.738,0.058-1.497,0.114-2.239,0.114l-0.318-0.028c-1.216-0.534-2.48-0.547-3.468-0.021c-0.2,0.106-0.335,0.147-0.404,0.159
			c-0.167,0.028-0.339,0.037-0.506,0.037l-0.637-0.009c-0.518,0-1.126,0.05-1.733,0.4c-0.172,0.098-0.331,0.155-0.449,0.155
			c-0.236-0.005-0.474-0.033-0.706-0.058c-0.84-0.086-1.656-0.098-2.321,0.143c-0.171,0.065-0.33,0.094-0.693,0.074
			c-1.081-0.233-2.354-0.363-3.301,0.049c-0.612,0.265-1.686,0.587-3.309,0.624l-3.493,0.094c-2.546,0-4.631-0.869-5.932-1.6
			c-0.608-0.343-1.522-1.272-1.995-1.926l-3.077-4.202c0.005-0.049,0.058-0.18,0.086-0.261c0.106-0.273,0.306-0.779,0.004-1.294
			c-0.021-0.032-0.045-0.069-0.073-0.105c0.078-0.352,0.098-0.816-0.135-1.318c-0.098-0.208-0.098-0.624-0.098-1.032
			c0-0.485-0.004-1.04-0.163-1.575c-0.114-0.387-0.306-0.763-0.579-1.126c-0.168-0.22-0.2-0.502-0.245-0.983
			c-0.032-0.354-0.073-0.722-0.176-1.097c-0.229-0.845-0.922-1.543-1.57-2.122c-0.196-0.176-0.326-0.616-0.449-1.04
			c-0.122-0.421-0.253-0.837-0.44-1.191c-0.122-0.241-0.29-0.498-0.502-0.792c-0.143-0.195-0.208-0.611-0.273-1.016
			c-0.081-0.51-0.171-1.085-0.461-1.615c-0.081-0.147-0.18-0.303-0.306-0.462c-0.188-0.248-0.302-0.591-0.433-0.987
			c-0.143-0.424-0.306-0.909-0.6-1.366l-0.217-0.335c-0.249-0.379-0.575-0.881-0.987-1.562c-2.02-3.35-3.215-6.609-4.026-9.069
			c-0.139-0.421-0.213-0.788-0.237-1.013c0.747-0.641,1.485-1.913,2.347-3.382c0.648-1.11,1.856-3.17,2.537-3.387
			c1.184,0,2.073,0.796,2.444,2.207c1.897,6.549,10.176,16.063,18.837,16.063c2.313,0,4.476-0.689,6.422-2.044
			c0.535-0.376,1.469-0.633,2.081-0.51c2.648,0.534,8.772,1.411,11.579,0.665c6.189-1.612,9.923-3.815,10.693-10.323
			c0.086-0.722,0.53-1.812,0.967-2.378c1.167-1.502,2.318-3.391,2.86-7.026c0.099-0.661,0.592-1.737,1.077-2.35
			c3.542-4.479,3.415-10.282,1.8-13.774c-1.021-2.207-2.615-3.639-4.46-4.043c4.121-3.799,9.319-6.116,11.987-6.116
			c0.6,0,0.935,0.127,1.032,0.237c1.987,2.17,4.354,2.595,6.173,1.166c0.828-0.632,1.771-1.354,1.502-2.35
			c-0.27-0.996-1.444-1.22-3.081-1.428c-0.706-0.086-1.473-0.221-2.276-0.355c-2.477-0.424-5.504-0.832-7.43-0.384l-0.575,0.123
			c-2.448,0.526-6.141,1.321-9.841,3.713c-0.388,0.249-1.102,0.285-1.265,0.098c-0.237-0.273-0.445-0.563-0.653-0.853
			c-0.869-1.208-1.95-2.709-4.684-2.709c-0.906,0-1.93,0.159-3.387,0.521c-0.363,0-0.71-0.188-0.824-0.444l-0.461-1.057
			c-1.95-4.524-4.378-10.155-16.797-12.995c-1.086-0.249-2.175-0.375-3.235-0.375c-8.609,0-13.856,8.037-16.051,12.28
			c-0.571-0.673-1.216-0.828-1.686-0.828c-1.583,0-3.264,1.722-5.688,5.835c-0.918-1.392-1.722-3.203-2.501-4.957
			c-1.759-3.975-3.578-8.079-7.214-8.662c-0.648-0.103-1.235-0.465-1.391-0.865c-2.407-6.096-5.721-8.531-7.911-10.143
			c-1.004-0.738-1.795-1.322-2.068-1.934c-0.221-0.511-0.322-1.062-0.429-1.641c-0.494-2.692-1.367-4.867-7.634-6.32
			c-2.644-0.604-4.479-1.306-5.455-2.085c-0.171-0.139-0.18-0.804,0.11-1.269c0.938-1.497,2.746-4.667,4.292-9.094
			c0.837-2.432,1.967-5.149,3.162-8.025c2.559-6.133,5.455-13.089,6.043-18.973c1.354-13.908,4.124-38.111,6.209-55.965
			c1.886-16.189,5.741-66.585,4.337-72.089c-0.832-3.207,0.311-6.475,1.886-11c0.71-2.044,1.521-4.362,2.239-6.985
			c10.649-38.675,21.702-109.838,19.454-140.201C451.569,19.396,441.586,0,428.889,0c-4.899,0-9.714,2.896-14.309,8.609
			c-12.962,16.14-37.295,52.905-48.988,75.635c-7.327-35.867-27.898-67.083-44.41-67.083c-5.133,0-12.102,3.04-16.137,17.528
			c-34.346,123.465-41.637,187.101-28.907,252.107c2.729,24.986,16.895,51.84,38.854,73.68c0.555,0.556,1.269,1.616,1.55,2.318
			l0.196,0.493c-2.113-1.66-4.112-3.61-6.524-5.965c-7.074-6.903-16.765-16.356-40.543-29.548
			c-28.564-15.871-107.994-67.258-131.833-92.444c-34.146-36.141-44.9-42.701-52.02-47.046c-1.979-1.208-3.545-2.163-5.251-3.549
			c-7.217-5.847-9.519-7.046-10.75-7.046c-0.576,0-1.057,0.265-1.318,0.726c-0.502,0.881-0.143,2.224,1.615,5.398
			c-1.542-0.91-2.333-1.044-2.827-1.044C66.585,182.764,66.03,183.094,65.761,183.673z"/>
	</g>
</g>
<g>
</g>
<g>
</g>
<g>
</g>
<g>
</g>
<g>
</g>
<g>
</g>
<g>
</g>
<g>
</g>
<g>
</g>
<g>
</g>
<g>
</g>
<g>
</g>
<g>
</g>
<g>
</g>
<g>
</g>
</svg>
