<?xml version="1.0" encoding="iso-8859-1"?>
<!-- Generator: Adobe Illustrator 16.0.0, SVG Export Plug-In . SVG Version: 6.00 Build 0)  -->
<!DOCTYPE svg PUBLIC "-//W3C//DTD SVG 1.1//EN" "http://www.w3.org/Graphics/SVG/1.1/DTD/svg11.dtd">
<svg version="1.1" id="Capa_1" xmlns="http://www.w3.org/2000/svg" xmlns:xlink="http://www.w3.org/1999/xlink" x="0px" y="0px"
	 width="564.293px" height="564.293px" viewBox="0 0 564.293 564.293" style="enable-background:new 0 0 564.293 564.293;"
	 xml:space="preserve">
<g>
	<g>
		<path d="M6.263,376.871c11.171-0.648,22.396-1.305,33.962-1.975c3.439-0.199,7.589,2.078,9.107,5.166
			c7.205,14.68,4.831,19.479-11.477,31.117c-7.581,5.41-15.602,10.221-23.044,15.807c-1.498,1.123-2.729,2.596-3.896,4.162
			c-1.885,2.533-2.538,5.76-1.489,7.189c1.049,1.428,4.431,1.402,7.548-0.055c12.999-6.07,26.019-12.15,39.246-18.322
			c3.121-1.457,6.691-1.473,8.001-0.057c0.759,0.818,1.579,1.684,2.444,2.5c8.429,7.957,22.767,15.125,23.864,23.959
			c1.306,10.518-8.809,22.41-13.823,33.777c-1.159,2.627-2.179,5.316-3.178,8.014c-1.196,3.23-0.829,6.662,0.836,7.67
			c1.665,1.008,4.684-0.404,6.748-3.162c7.932-10.584,15.859-21.168,23.766-31.723c2.064-2.754,6.389-4.107,9.657-3.027
			c6.953,2.307,14.137,4.689,21.494,7.129c3.268,1.084,5.487,4.721,4.957,8.123c-1.999,12.811-3.978,25.508-5.953,38.189
			c-0.53,3.402,1.134,6.16,3.717,6.16s5.614-2.633,6.769-5.875c4.537-12.723,9.045-25.365,13.337-37.406
			c1.154-3.244,4.859-6.223,8.278-6.654c12.795-1.619,25.263-3.203,38.148-4.834c3.415-0.434,7.185,1.822,8.413,5.039
			c4.725,12.361,9.514,24.887,14.312,37.438c1.228,3.215,3.978,5.348,6.132,4.762c2.158-0.588,3.447-3.824,2.88-7.219
			c-2.501-15.002-5.002-30-7.491-44.92c-0.567-3.398,1.672-6.863,5.014-7.695c19.649-4.896,21.449-3.447,40.983,8.812
			c4.66,2.926,10.331,4.23,15.933,5.65c3.337,0.85,6.63,0.381,7.397-1.211c0.767-1.592-0.727-4.695-3.338-6.939
			c-7.201-6.182-14.603-12.539-23.125-19.857c-2.611-2.244-2.468-5.695,0.322-7.711c6.455-4.664,11.914-8.605,16.908-12.217
			c2.791-2.016,7.181-1.844,9.747,0.449c9.596,8.568,17.891,16.613,29.196,17.516c3.432,0.273,7.295-1.525,8.629-3.143
			c1.335-1.615,0.151-4.561-2.64-6.58c-8.041-5.814-16.1-11.641-24.271-17.549c-2.791-2.016-2.896-5.422-0.232-7.604
			c8.119-6.646,14.549-11.914,20.62-16.889c2.664-2.182,6.079-1.451,7.36,1.742c4.056,10.115,7.107,21.404,19.91,27.924
			c3.068,1.562,4.99-0.314,4.031-3.619c-3.244-11.17-6.075-20.57-8.523-30.072c-3.786-14.689,0.571-24.195,14.198-30.234
			c3.15-1.395,5.558,0.58,5.316,4.016c-0.999,14.447-0.294,28.438,9.567,40.191c2.216,2.637,4.803,1.723,5.162-1.705
			c1.003-9.576,0.824-19.053,1.199-28.508c0.522-13.215,1.48-26.467,16.871-30.547c3.329-0.881,5.707,1.701,5.271,5.121
			c-2.011,15.703-2.142,31.074,6.798,44.215c1.938,2.848,5.189,4.807,6.834,4.695c1.645-0.109,2.975-2.986,2.975-6.43v-37.498
			c0-3.443,1.231-6.5,2.75-6.822c1.518-0.326,4.312,1.721,6.422,4.443c2.896,3.74,5.806,7.482,6.662,11.645
			c2.216,10.73,3.297,21.672,4.235,30.934c0.347,3.428-1.225,6.557-3.366,7.475c-1.298,0.555-2.529,1.24-3.655,2.076
			c-4.725,3.506-7.74,7.365-9.601,12.975c-1.828,5.5,0.33,13.938,5.026,17.609c0.037,0.029,0.073,0.059,0.11,0.086
			c0.062,0.045,1.396,2.723,4.223,4.691c5.051,3.518,12.615,4.068,19.764,3.947c24.729-0.412,39.196-15.918,51.641-34.893
			c4.382-6.684,9.522-15.406,16.152-17.578c14.962-4.891,23.24-15.164,30.131-27.221c1.71-2.99,2.991-6.25,2.991-7.213
			s1.351-4.223,2.224-7.553c2.799-10.697-0.739-22.488-9.262-29.625c-2.64-2.211-7.504-5.148-10.841-5.994
			c-2.754-0.693-5.843-0.766-9.286-0.109c-11.343,2.166-16.1,9.596-15.328,23.277c0.191,3.439-1.384,4.291-3.9,1.945
			c-4.423-4.129-8.083-7.539-11.972-11.172c-2.517-2.35-2.031-5.438,1.09-6.898c8.221-3.848,15.691-7.344,23.941-11.203
			c3.117-1.461,3.432-4.383,0.322-5.863c-9.511-4.521-17.222-1.547-25.414,1.195c-6.952,2.326-14.953,9.592-22.143,1.787
			c-2.334-2.533-1.709-7.324,0.465-9.992c8.765-10.763,17.785-21.84,26.839-32.954c2.175-2.672,3.149-5.598,2.179-6.544
			c-0.972-0.946-4.427-0.865-7.557,0.575c-15.459,7.12-26.026,20.498-36.932,33.089c-2.257,2.603-6.916,4.276-10.114,2.999
			c-10.584-4.219-11.555-13.211-8.76-24.753c2.562-10.563,4.178-21.379,5.772-32.146c0.245-1.656,0.119-3.366-0.109-5.087
			c-0.367-2.799-2.184-5.316-4.031-5.631c-1.849-0.314-4.198,2.081-5.255,5.361c-4.782,14.839-9.617,29.837-14.88,46.153
			c-1.057,3.276-4.688,5.651-8.111,5.3c-5.271-0.535-11.008-1.114-17.075-1.73c-3.427-0.347-6.201-3.419-6.201-6.863v-45.961
			c0-3.443-1.407-6.487-3.146-6.797c-1.738-0.31-3.811,2.15-4.708,5.476c-3.085,11.436-6.684,22.815-8.062,34.452
			c-2.497,21.057-2.04,23.007-21.277,24.941c-3.427,0.343-6.806-2.146-7.544-5.508c-3.129-14.256-6.291-28.687-9.466-43.138
			c-0.738-3.362-2.685-6.034-4.345-5.957c-1.661,0.078-3.22,2.921-3.48,6.353c-0.579,7.527-1.167,15.055-1.611,22.591
			c-0.151,2.562,0.326,5.182,0.665,7.752c3.672,27.875,3.933,29.784-20.163,40.278c-3.158,1.375-6.978-0.029-8.523-3.105
			c-6.463-12.872-12.966-25.818-19.47-38.776c-1.547-3.076-4.084-5.23-5.671-4.81c-1.587,0.42-2.432,3.513-1.917,6.919
			c1.179,7.813,2.297,15.639,3.966,23.342c0.967,4.463,3.668,8.547,5.585,12.803c8.707,19.33,9.495,21.082-7.233,30.004
			c-3.04,1.619-7.364,0.809-9.645-1.775c-9.466-10.725-19.058-21.594-28.666-32.484c-2.277-2.582-4.513-1.896-4.423,1.547
			c0.481,18.621,13.529,30.348,23.75,44.215c2.044,2.77,1.334,6.834-1.391,8.939c-6.952,5.369-13.917,10.75-21.709,16.768
			c-2.726,2.105-6.189,1.314-7.736-1.762c-6.704-13.342-13.448-26.766-20.2-40.199c-1.546-3.078-3.794-5.109-5.019-4.541
			c-1.224,0.566-2.766,3.781-2.876,7.225c-0.478,15.223,7.283,28.588,13.121,42.502c1.334,3.174,0.114,7.551-2.566,9.719
			c-3.276,2.646-6.634,5.361-10.416,8.416c-2.677,2.162-5.435,1.188-6.157-2.178c-3.011-14.031-5.814-27.076-8.584-39.988
			c-0.722-3.367-2.664-5.912-4.337-5.691c-1.673,0.225-3.027,3.197-3.027,6.643v40.125c0,3.445-2.791,6.234-6.234,6.234H153.2
			c-3.443,0-5.357-2.65-4.271-5.92c4.68-14.104,8.662-26.115,12.55-37.83c1.085-3.268,0.963-6.377-0.277-6.939
			c-1.236-0.562-4.586,0.523-7.099,2.873c-10.069,9.42-14.382,22.877-19.641,35.814c-1.297,3.189-4.578,3.936-6.969,1.455
			c-5.125-5.324-3.537-7.355,5.128-18.262c4.737-5.961,9.547-11.859,15.855-19.648c2.167-2.678,1.114-4.871-2.281-4.293
			c-12.636,2.146-19.645,10.156-27.85,18.025c-2.484,2.383-4.773,1.428-4.99-2.008c-0.331-5.238-0.641-10.117-0.963-15.182
			c-0.216-3.434,2.362-6.65,5.765-7.184c9.572-1.498,18.829-2.945,28.025-4.387c3.403-0.533,6.189-2.316,6.23-3.982
			c0.041-1.668-2.677-3.508-6.067-4.111c-6.561-1.168-13.122-2.338-19.694-3.51c-3.391-0.604-6.43-3.889-6.169-7.324
			c1-13.072,9.208-19.068,24.146-16.756c11.775,1.824,23.391,4.672,35.145,6.666c1.971,0.336,3.994,0.359,6.034,0.303
			c3.342-0.094,6.357-1.637,6.732-3.414c0.375-1.779-1.958-4.117-5.218-5.227c-13.623-4.627-27.238-9.25-40.824-13.865
			c-3.26-1.105-4.904-4.63-3.117-7.576c6.185-10.208,15.353-13.228,26.206-8.07c12.611,5.998,24.913,12.656,37.496,18.719
			c1.995,0.963,4.263,1.359,7.915,2.073c3.378,0.661,4.765-1.163,2.815-4.002c-12.607-18.36-30.91-24.933-47.752-34.623
			c-2.987-1.717-3.236-5.067-0.645-7.335c2.077-1.82,4.097-3.59,6.165-5.406c2.591-2.269,7.222-2.938,10.343-1.489
			c15.092,7.001,30.417,14.104,45.761,21.224c3.125,1.449,6.247,1.546,6.977,0.221c0.73-1.326-0.237-4.729-2.468-7.353
			c-10.8-12.672-25.904-19.849-41.09-27.544c-3.072-1.555-4.847-5.622-2.934-8.486c3.456-5.166,8.376-5.374,15.679-1.498
			c12.041,6.385,24.46,12.057,37.752,16.422c3.272,1.077,4.847-0.722,3.04-3.656c-8.592-13.962-22.811-20.914-36.781-28.124
			c-3.06-1.579-5.21-5.724-3.794-8.866c3.815-8.466,11.828-8.364,21.293-7.36c15.879,1.689,31.869,2.317,47.83,3.223
			c3.439,0.196,6.447-1.436,6.724-3.664c0.277-2.228-2.244-4.537-5.631-5.161c-17.107-3.146-34.443-6.332-53.889-9.906
			c-3.386-0.624-4.533-3.415-2.566-6.242c19.633-28.148,37.985-54.472,56.263-80.678c1.971-2.823,2.811-5.846,1.881-6.752
			c-0.931-0.905-4.415-0.975-7.601,0.327c-19.017,7.744-29.09,26.381-42.971,40.784c-2.391,2.48-3.284,1.815-1.815-1.297
			c7.421-15.745,14.839-31.49,22.26-47.234c1.469-3.113,0.563-5.639-2.02-5.639s-6.344,2.236-8.421,4.982
			c-11.167,14.761-22.677,29.29-32.991,44.627c-7.854,11.677-12.811,25.798-28.197,30.266c-3.305,0.958-8.119-0.763-10.592-3.158
			c-8.425-8.172-17.299-16.777-26.238-25.443c-2.473-2.399-4.9-1.562-4.814,1.877c0.408,16.626,11.779,26.288,20.526,36.944
			c2.183,2.66,2.387,7.491-0.253,9.707c-4.268,3.586-8.502,2.399-14.251-2.118c-8.768-6.891-19.049-12-29.103-17.026
			c-1.489-0.743-3.386-0.665-5.386-0.392c-2.999,0.408-4.447,3.011-3.211,5.793c0.779,1.758,1.665,3.407,2.962,4.602
			c9.094,8.376,18.535,16.377,27.968,24.48c2.611,2.244,2.787,6.091,0.236,8.405c-5.581,5.055-7.458,4.337-17.229-0.437
			c-11.485-5.614-23.032-9.372-36.524-4.341c-3.227,1.204-3.19,3.88-0.143,5.475c10.669,5.582,21.322,11.155,31.881,16.679
			c3.052,1.595,4.566,5.541,2.689,8.429c-8.115,12.497-20.49,7.724-31.734,5.325c-12.721-2.713-24.757-2.566-36.745,5.141
			c-2.896,1.865-2.309,4.354,1.037,5.173c13.623,3.35,27.369,6.728,42.024,10.331c3.346,0.82,4.251,3.623,2.077,6.292
			c-10.343,12.701-19.017,23.611-38.56,16.059c-6.397-2.469-14.704,0.016-22.717,1.726c-3.366,0.718-6.259,2.452-6.406,4.149
			s2.395,3.917,5.679,4.953c10.221,3.223,20.347,6.418,29.923,9.441c3.285,1.037,5.39,4.623,4.28,7.883
			c-8.425,24.77-29.963,24.207-51.241,24.01c-3.443-0.031-5.977,1.621-5.667,3.648c0.31,2.023,3.235,4.471,6.536,5.463
			c8.283,2.492,16.569,4.986,24.872,7.479c3.297,0.992,6.173,4.582,6.349,8.021c1.538,30.135-3.647,35.545-35.019,45.15
			c-1.958,0.6-3.868,1.361-5.761,2.17C2.53,369.879,0,372.367,0,374.086C0,375.803,2.823,377.072,6.263,376.871z M461.623,363.465
			c1.311-0.66,4.089,1.004,6.206,3.721c6.467,8.279,13.061,16.725,20.441,26.174c2.117,2.713,1.688,6.695-0.959,8.895
			c-1.881,1.559-3.975,3.301-6.279,5.209c-2.648,2.199-4.704,1.143-5.598-2.182c-1.498-5.574-5.035-10.572-10.013-13.865
			c-0.607-0.402-1.244-0.754-1.901-1.072c-1.089-0.525-2.265-3.639-2.578-7.066c-0.384-4.223-0.755-8.336-1.126-12.408
			C459.506,367.439,460.313,364.121,461.623,363.465z"/>
	</g>
</g>
<g>
</g>
<g>
</g>
<g>
</g>
<g>
</g>
<g>
</g>
<g>
</g>
<g>
</g>
<g>
</g>
<g>
</g>
<g>
</g>
<g>
</g>
<g>
</g>
<g>
</g>
<g>
</g>
<g>
</g>
</svg>
