<?xml version="1.0" encoding="iso-8859-1"?>
<!-- Generator: Adobe Illustrator 16.0.0, SVG Export Plug-In . SVG Version: 6.00 Build 0)  -->
<!DOCTYPE svg PUBLIC "-//W3C//DTD SVG 1.1//EN" "http://www.w3.org/Graphics/SVG/1.1/DTD/svg11.dtd">
<svg version="1.1" id="Capa_1" xmlns="http://www.w3.org/2000/svg" xmlns:xlink="http://www.w3.org/1999/xlink" x="0px" y="0px"
	 width="594.886px" height="594.886px" viewBox="0 0 594.886 594.886" style="enable-background:new 0 0 594.886 594.886;"
	 xml:space="preserve">
<g>
	<g>
		<path d="M594.098,325.382c-15.076-3.794-30.05-6.851-42.714-9.343l-5.427-1.057c-5.238-1.021-10.656-2.077-16.006-2.987
			c-2.554-0.444-5.104-0.905-7.658-1.362c-4.598-0.828-9.196-1.652-13.807-2.395l-21.493-3.48
			c-4.627-0.747-9.262-1.412-13.896-2.077c-2.55-0.363-5.1-0.73-7.654-1.105c-2.19-0.314-4.382-0.633-6.572-0.955
			c-4.909-0.722-9.984-1.469-14.994-2.076l-21.584-2.788l-1.02-0.098l-0.697,0.078c-7.055,0.812-14.203,1.767-21.118,2.685
			c-3.934,0.522-7.862,1.045-11.796,1.547c-7.119,0.93-14.341,1.991-21.321,3.019c-3.844,0.567-7.691,1.131-11.555,1.682
			c-3.126,0.502-6.251,0.995-9.376,1.485c-7.679,1.207-15.618,2.456-23.403,3.855c-2.056,0.347-4.108,0.718-6.165,1.093
			l-1.848,0.335l-0.086-0.09c-0.236-0.27-0.469-0.539-0.702-0.787l-1.518-1.661c7.083-4.863,14.174-9.902,21.041-14.782
			c2.934-2.085,5.867-4.166,8.816-6.25c3.709-2.713,7.426-5.402,11.146-8.095c6.532-4.725,13.285-9.608,19.854-14.521
			c3.603-2.701,7.222-5.386,10.837-8.07c6.54-4.851,13.301-9.87,19.869-14.913l0.91-0.698c0.102-0.082,0.191-0.179,0.257-0.29
			l14.811-25.149c3.247-5.443,6.438-11.037,9.526-16.442c1.485-2.607,2.975-5.21,4.476-7.817c1.641-2.889,3.297-5.769,4.953-8.654
			c2.991-5.21,5.985-10.424,8.903-15.679l13.606-24.472l13.358-24.603c3.288-6.01,6.516-12.179,9.641-18.144l3.477-6.625
			c7.646-14.656,16.609-32.073,25.148-50.176c0.225-0.477,0.049-1.052-0.412-1.313c-0.465-0.27-1.044-0.139-1.351,0.293
			c-11.432,16.3-22.142,32.758-31.113,46.712l-3.881,6.071c-3.68,5.745-7.49,11.685-11.13,17.593l-14.753,23.807l-14.509,23.937
			c-3.134,5.166-6.189,10.367-9.245,15.573c-1.669,2.84-3.334,5.688-5.019,8.527c-1.551,2.652-3.117,5.3-4.676,7.94
			c-3.134,5.3-6.373,10.783-9.445,16.234l-13.252,23.15c-6.185,4.843-12.395,9.845-18.4,14.692
			c-3.477,2.803-6.948,5.598-10.437,8.384c-6.414,5.145-12.856,10.465-19.091,15.618c-3.517,2.909-7.042,5.822-10.587,8.728
			l-6.549,5.524c-0.311,0.261-0.62,0.526-0.935,0.788c0.429-0.473,0.857-0.946,1.281-1.424c3.358-3.668,6.639-7.401,9.914-11.134
			l4.64-5.275c2.591-2.934,5.178-5.867,7.694-8.854l4.578-5.357c5.663-6.618,11.514-13.46,17.115-20.31l10.727-12.938l12.289-15.207
			c0.191-0.236,0.266-0.539,0.208-0.832l-4.822-24.966l-4.599-22.064c-2.072-10.29-4.414-20.698-6.683-30.763
			c-1-4.435-1.995-8.87-2.979-13.33l-5.247-21.938c-1.109-4.721-2.317-9.433-3.525-14.137c-0.66-2.591-1.325-5.182-1.975-7.768
			c-1.236-4.913-2.562-9.809-3.888-14.705c-0.645-2.378-1.29-4.757-1.93-7.152c-2.403-8.568-4.415-15.475-6.345-21.742
			c-0.155-0.494-0.637-0.8-1.175-0.702c-0.515,0.102-0.869,0.579-0.816,1.102c0.637,6.532,1.444,13.684,2.534,22.525
			c0.347,2.514,0.677,5.027,1.008,7.544c0.652,4.958,1.305,9.915,2.052,14.859c0.399,2.624,0.783,5.251,1.167,7.883
			c0.706,4.822,1.411,9.645,2.207,14.443l3.627,22.289c0.824,4.557,1.628,9.123,2.437,13.688
			c1.778,10.074,3.614,20.486,5.654,30.686l4.276,22.154l3.933,18.915l-8.254,10.645l-10.118,13.391
			c-5.337,6.96-10.6,14.153-15.691,21.11l-4.321,5.892c-2.342,3.146-4.61,6.353-6.883,9.551l-4.019,5.659
			c-2.893,4.06-5.785,8.12-8.589,12.236c-3.178,4.582-6.418,9.339-9.841,14.467c-0.734-10.873-8.633-19.461-18.237-19.461
			c-7.683,0-14.452,5.549-17.087,13.754c-1.983-2.934-3.978-5.859-5.989-8.756c-2.754-4.039-5.585-8.017-8.413-11.991l-4.288-6.026
			c-2.244-3.162-4.484-6.328-6.793-9.433l-4.325-5.896c-5.092-6.957-10.355-14.149-15.688-21.102l-10.13-13.411l-8.246-10.633
			l3.937-18.931l4.272-22.134c2.04-10.204,3.876-20.616,5.655-30.686c0.804-4.566,1.611-9.131,2.44-13.713l3.623-22.265
			c0.795-4.802,1.501-9.625,2.207-14.447c0.384-2.632,0.767-5.259,1.167-7.887c0.747-4.941,1.399-9.898,2.052-14.855
			c0.331-2.513,0.661-5.026,1.008-7.56c1.093-8.825,1.897-15.978,2.534-22.509c0.053-0.522-0.302-0.996-0.816-1.102
			c-0.502-0.082-1.02,0.204-1.175,0.702c-1.93,6.271-3.945,13.178-6.344,21.754c-0.637,2.383-1.281,4.761-1.93,7.14
			c-1.326,4.896-2.656,9.792-3.888,14.704c-0.648,2.591-1.313,5.182-1.975,7.769c-1.208,4.704-2.416,9.417-3.525,14.133
			l-5.251,21.962c-0.979,4.439-1.979,8.874-2.975,13.309c-2.269,10.065-4.61,20.473-6.683,30.755l-4.598,22.085l-4.822,24.953
			c-0.062,0.294,0.016,0.596,0.208,0.833l12.297,15.214l10.714,12.925c5.606,6.854,11.46,13.693,17.12,20.314l4.574,5.353
			c2.521,2.986,5.108,5.924,7.699,8.857l4.635,5.275c3.28,3.729,6.556,7.462,9.914,11.13c0.424,0.478,0.853,0.951,1.281,1.428
			l-7.491-6.324c-3.55-2.909-7.087-5.834-10.625-8.756c-6.214-5.141-12.64-10.453-19.037-15.577
			c-3.529-2.815-7.05-5.651-10.563-8.486c-5.965-4.806-12.134-9.776-18.274-14.582l-13.252-23.154
			c-3.081-5.455-6.32-10.938-9.449-16.234c-1.567-2.644-3.129-5.292-4.68-7.948c-1.681-2.832-3.346-5.68-5.015-8.519
			c-3.056-5.206-6.112-10.412-9.245-15.574l-14.513-23.945l-14.749-23.794c-3.639-5.912-7.446-11.853-11.13-17.597l-3.884-6.071
			c-8.939-13.913-19.633-30.347-31.11-46.712c-0.306-0.432-0.889-0.567-1.351-0.293c-0.457,0.261-0.632,0.836-0.412,1.314
			c8.507,18.033,17.487,35.483,25.153,50.18l3.472,6.622c3.129,5.965,6.356,12.134,9.641,18.14l13.362,24.614l13.603,24.464
			c2.934,5.288,5.944,10.53,8.956,15.773c1.636,2.848,3.276,5.7,4.9,8.563c1.481,2.571,2.954,5.149,4.423,7.728
			c3.105,5.439,6.312,11.061,9.572,16.528l14.814,25.153c0.069,0.11,0.155,0.212,0.257,0.29l0.91,0.698
			c6.569,5.043,13.333,10.061,19.87,14.912c3.619,2.681,7.234,5.365,10.841,8.07c6.561,4.9,13.309,9.784,19.833,14.509
			c3.725,2.697,7.45,5.394,11.175,8.115l7.691,5.443c5.961,4.223,11.922,8.442,17.923,12.62c0.8,1.693,1.75,3.207,2.819,4.513
			l-0.889,0.991l-1.849-0.334c-2.056-0.376-4.108-0.747-6.157-1.094c-7.792-1.403-15.732-2.647-23.411-3.855
			c-3.125-0.489-6.251-0.983-9.396-1.485c-3.843-0.551-7.691-1.113-11.534-1.681c-6.981-1.028-14.198-2.093-21.326-3.02
			c-3.929-0.502-7.858-1.023-11.791-1.546c-6.912-0.922-14.064-1.874-21.122-2.685l-0.935-0.078l-22.354,2.885
			c-5.014,0.604-10.094,1.354-15.002,2.077c-2.191,0.322-4.382,0.641-6.581,0.954c-2.546,0.38-5.096,0.747-7.646,1.106
			c-4.639,0.665-9.27,1.33-13.896,2.076l-21.489,3.48c-4.615,0.742-9.213,1.566-13.811,2.395c-2.554,0.457-5.104,0.918-7.654,1.363
			c-5.353,0.914-10.771,1.967-16.01,2.986l-5.431,1.057c-12.66,2.493-27.63,5.549-42.709,9.344
			c-0.506,0.126-0.833,0.607-0.767,1.126c0.074,0.506,0.502,0.881,1.012,0.881c0.008,0,0.017,0,0.029,0
			c15.553-0.408,30.792-1.489,43.652-2.493l5.516-0.457c5.324-0.428,10.824-0.873,16.23-1.432c2.611-0.266,5.226-0.514,7.842-0.763
			c4.618-0.437,9.237-0.877,13.843-1.403l21.636-2.44c4.692-0.526,9.38-1.139,14.06-1.754c2.513-0.331,5.027-0.661,7.552-0.976
			c2.215-0.294,4.435-0.579,6.654-0.856c4.9-0.624,9.968-1.273,14.933-2.032l20.628-3.023c6.887,0.71,13.79,1.306,20.694,1.901
			c3.843,0.335,7.695,0.669,11.538,1.021c7.12,0.636,14.37,1.158,21.383,1.664c3.9,0.282,7.805,0.567,11.726,0.869
			c3.183,0.188,6.369,0.384,9.547,0.584c7.679,0.477,15.614,0.971,23.439,1.293c-5.822,3.354-11.632,6.817-17.271,10.184
			c-2.758,1.645-5.52,3.289-8.294,4.933c-3.448,2.126-6.903,4.235-10.363,6.345c-6.026,3.672-12.252,7.471-18.311,11.31
			c-3.354,2.13-6.72,4.247-10.086,6.365c-6.034,3.79-12.269,7.707-18.335,11.677l-0.951,0.624c-0.106,0.073-0.204,0.163-0.273,0.27
			l-14.704,21.15c-3.219,4.565-6.385,9.274-9.445,13.831c-1.453,2.167-2.909,4.333-4.378,6.491c-1.595,2.383-3.203,4.758-4.81,7.128
			c-2.982,4.411-5.969,8.817-8.882,13.276l-13.443,20.556c-2.885,4.401-5.7,8.857-8.519,13.312
			c-1.563,2.473-3.125,4.945-4.696,7.409c-3.264,5.071-6.475,10.294-9.58,15.354l-3.411,5.536
			c-7.613,12.456-16.532,27.246-24.929,42.514c-0.253,0.457-0.114,1.036,0.314,1.33c0.429,0.29,1.024,0.221,1.359-0.184
			c11.24-13.402,21.791-27.038,30.628-38.617l3.917-5.153c3.594-4.729,7.315-9.616,10.873-14.5c1.713-2.338,3.443-4.676,5.169-7.005
			c3.146-4.256,6.295-8.507,9.376-12.812l14.308-19.968c3.06-4.255,6.042-8.567,9.029-12.872c1.681-2.424,3.358-4.848,5.055-7.267
			c1.501-2.175,3.015-4.345,4.529-6.516c3.121-4.472,6.344-9.095,9.413-13.709l13.007-19.273c5.684-3.815,11.306-7.716,16.92-11.612
			c3.203-2.224,6.405-4.447,9.621-6.654c5.961-4.108,11.946-8.389,17.731-12.525c3.244-2.317,6.487-4.639,9.759-6.952l7.181-5.256
			l-4.757,5.565c-5.594,6.544-11.379,13.309-16.916,20.082l-10.727,12.938l-12.289,15.206c-0.191,0.236-0.265,0.539-0.208,0.832
			l4.823,24.966l4.598,22.061c2.068,10.281,4.406,20.669,6.675,30.727c1,4.447,1.999,8.898,2.986,13.366l5.247,21.938
			c1.105,4.712,2.313,9.412,3.517,14.108c0.665,2.599,1.33,5.193,1.983,7.793c1.24,4.94,2.574,9.865,3.913,14.785
			c0.636,2.354,1.273,4.704,1.905,7.071c2.399,8.556,4.411,15.463,6.344,21.746c0.155,0.498,0.633,0.808,1.175,0.702
			c0.514-0.103,0.869-0.58,0.816-1.102c-0.636-6.536-1.444-13.685-2.534-22.526c-0.347-2.518-0.677-5.038-1.012-7.564
			c-0.653-4.948-1.306-9.901-2.048-14.83c-0.4-2.624-0.779-5.243-1.163-7.866c-0.706-4.831-1.412-9.657-2.211-14.468l-3.627-22.285
			c-0.828-4.565-1.632-9.14-2.439-13.709c-1.775-10.069-3.611-20.481-5.651-30.669l-4.272-22.159l-3.937-18.91l8.254-10.649
			l10.118-13.386c5.439-7.104,10.808-14.439,16.002-21.534l0.881-1.2c0,0.065,0,0.131,0,0.196c0,21.926,13.493,39.764,30.078,39.764
			c16.585,0,30.082-17.838,30.082-39.764c0-2.632-0.204-5.259-0.604-7.858c0.812,1.135,1.628,2.269,2.464,3.387l4.19,5.716
			c5.133,7.018,10.445,14.268,15.818,21.285l10.131,13.407l8.245,10.637l-3.933,18.927l-4.276,22.134
			c-2.04,10.196-3.876,20.608-5.65,30.678c-0.804,4.57-1.611,9.144-2.444,13.729l-3.623,22.261
			c-0.799,4.814-1.505,9.641-2.211,14.472c-0.384,2.623-0.768,5.242-1.163,7.866c-0.742,4.929-1.396,9.877-2.048,14.826
			c-0.335,2.525-0.665,5.047-1.012,7.581c-1.105,8.972-1.89,15.912-2.534,22.514c-0.053,0.522,0.302,0.995,0.816,1.102
			c0.069,0.012,0.135,0.021,0.2,0.021c0.44,0,0.84-0.286,0.975-0.723c1.93-6.283,3.945-13.19,6.345-21.759
			c0.628-2.354,1.269-4.708,1.909-7.062c1.334-4.92,2.668-9.841,3.908-14.781c0.649-2.6,1.314-5.19,1.979-7.785
			c1.207-4.696,2.415-9.4,3.521-14.112l5.251-21.963c0.983-4.451,1.983-8.902,2.982-13.346c2.269-10.057,4.606-20.449,6.675-30.718
			l4.599-22.081l4.822-24.949c0.062-0.298-0.016-0.601-0.208-0.837l-12.297-15.214l-10.714-12.926
			c-5.541-6.777-11.326-13.541-16.92-20.086l-4.758-5.565l7.197,5.268c3.256,2.302,6.5,4.623,9.743,6.94
			c5.785,4.141,11.771,8.417,17.731,12.525c3.216,2.207,6.418,4.431,9.621,6.654c5.618,3.896,11.24,7.797,16.92,11.612l13.003,19.27
			c3.072,4.622,6.295,9.245,9.416,13.709c1.514,2.17,3.027,4.341,4.533,6.527c1.693,2.416,3.374,4.843,5.056,7.263
			c2.982,4.309,5.969,8.613,9.024,12.868l14.309,19.968c3.08,4.305,6.227,8.556,9.376,12.812c1.729,2.333,3.456,4.667,5.169,7.005
			c3.559,4.884,7.279,9.771,10.878,14.5l3.917,5.157c8.833,11.575,19.384,25.211,30.624,38.613c0.335,0.404,0.926,0.474,1.358,0.184
			c0.429-0.294,0.571-0.873,0.314-1.33c-8.4-15.268-17.315-30.058-24.929-42.518l-3.411-5.536
			c-3.104-5.052-6.315-10.278-9.576-15.35c-1.578-2.464-3.142-4.94-4.704-7.409c-2.811-4.455-5.63-8.91-8.515-13.312l-13.443-20.556
			c-2.913-4.459-5.896-8.865-8.883-13.276c-1.607-2.37-3.215-4.745-4.814-7.132c-1.464-2.154-2.921-4.32-4.369-6.482
			c-3.064-4.554-6.227-9.266-9.445-13.827l-14.708-21.159c-0.074-0.106-0.168-0.2-0.273-0.27l-0.955-0.624
			c-6.062-3.974-12.301-7.891-18.331-11.677c-3.362-2.118-6.729-4.231-10.086-6.365c-6.059-3.839-12.289-7.638-18.312-11.31
			c-3.46-2.109-6.915-4.215-10.379-6.353c-2.763-1.636-5.524-3.28-8.278-4.925c-5.643-3.366-11.453-6.83-17.271-10.184
			c7.829-0.322,15.765-0.815,23.439-1.293c3.178-0.2,6.364-0.396,9.567-0.588c3.9-0.298,7.805-0.583,11.705-0.865
			c7.014-0.506,14.264-1.027,21.384-1.664c3.843-0.351,7.694-0.686,11.538-1.021c6.899-0.596,13.807-1.191,20.445-1.909
			l20.869,3.031c4.974,0.763,10.041,1.408,14.94,2.032c2.22,0.277,4.439,0.562,6.663,0.856c2.513,0.314,5.026,0.645,7.544,0.976
			c4.68,0.611,9.367,1.228,14.06,1.754l21.636,2.44c4.606,0.526,9.226,0.963,13.844,1.403c2.615,0.249,5.23,0.493,7.842,0.763
			c5.406,0.559,10.918,1.004,16.242,1.433l5.496,0.444c12.852,1.004,28.091,2.089,43.644,2.493c0.013,0,0.021,0,0.029,0
			c0.51,0,0.938-0.376,1.012-0.882C594.93,325.99,594.604,325.509,594.098,325.382z"/>
	</g>
</g>
<g>
</g>
<g>
</g>
<g>
</g>
<g>
</g>
<g>
</g>
<g>
</g>
<g>
</g>
<g>
</g>
<g>
</g>
<g>
</g>
<g>
</g>
<g>
</g>
<g>
</g>
<g>
</g>
<g>
</g>
</svg>
